<?xml version="1.0" encoding="us-ascii" standalone="no"?><svg xmlns="http://www.w3.org/2000/svg" xmlns:xlink="http://www.w3.org/1999/xlink" contentStyleType="text/css" height="949px" preserveAspectRatio="none" style="width:426px;height:949px;background:#FFFFFF;" version="1.1" viewBox="0 0 426 949" width="426px" zoomAndPan="magnify"><defs/><g><!--cluster Eventify--><g id="cluster_Eventify"><rect fill="none" height="936" rx="2.5" ry="2.5" style="stroke:#181818;stroke-width:1.0;" width="346" x="74" y="7"/><text fill="#000000" font-family="sans-serif" font-size="14" font-weight="bold" lengthAdjust="spacing" textLength="57" x="218.5" y="23.5332">Eventify</text></g><!--cluster Gesti?n de Eventos--><g id="cluster_Gesti&#243;n de Eventos"><path d="M100.5,51 L240.5,51 A3.75,3.75 0 0 1 243,53.5 L250,74.6094 L393.5,74.6094 A2.5,2.5 0 0 1 396,77.1094 L396,916.5 A2.5,2.5 0 0 1 393.5,919 L100.5,919 A2.5,2.5 0 0 1 98,916.5 L98,53.5 A2.5,2.5 0 0 1 100.5,51 " fill="none" style="stroke:#000000;stroke-width:1.5;"/><line style="stroke:#000000;stroke-width:1.5;" x1="98" x2="250" y1="74.6094" y2="74.6094"/><text fill="#000000" font-family="sans-serif" font-size="14" font-weight="bold" lengthAdjust="spacing" textLength="139" x="102" y="67.5332">Gesti&#243;n de Eventos</text></g><g id="elem_buscarEvento"><ellipse cx="246.8974" cy="107.9795" fill="#F1F1F1" rx="90.3974" ry="20.4795" style="stroke:#181818;stroke-width:0.5;"/><text fill="#000000" font-family="sans-serif" font-size="14" lengthAdjust="spacing" textLength="139" x="177.3974" y="111.708">UC19 - Buscar evento</text></g><g id="elem_publicarEvento"><ellipse cx="246.9382" cy="185.0876" fill="#F1F1F1" rx="93.4382" ry="21.0876" style="stroke:#181818;stroke-width:0.5;"/><text fill="#000000" font-family="sans-serif" font-size="14" lengthAdjust="spacing" textLength="146" x="173.9382" y="188.8162">UC20 - Publicar evento</text></g><g id="elem_editarEvento"><ellipse cx="246.8923" cy="260.8785" fill="#F1F1F1" rx="87.3923" ry="19.8785" style="stroke:#181818;stroke-width:0.5;"/><text fill="#000000" font-family="sans-serif" font-size="14" lengthAdjust="spacing" textLength="132" x="180.8923" y="264.607">UC21 - Editar evento</text></g><g id="elem_verDetallesEvento"><ellipse cx="247.0541" cy="341.8108" fill="#F1F1F1" rx="114.5541" ry="25.3108" style="stroke:#181818;stroke-width:0.5;"/><text fill="#000000" font-family="sans-serif" font-size="14" lengthAdjust="spacing" textLength="193" x="150.5541" y="345.5393">UC22 - Ver detalles del evento</text></g><g id="elem_subirImagenEvento"><ellipse cx="247.0137" cy="427.9027" fill="#F1F1F1" rx="115.0137" ry="25.4027" style="stroke:#181818;stroke-width:0.5;"/><text fill="#000000" font-family="sans-serif" font-size="14" lengthAdjust="spacing" textLength="194" x="150.0137" y="431.6313">UC23 - Subir imagen al Evento</text></g><g id="elem_subirMusicaEvento"><ellipse cx="247.0948" cy="514.219" fill="#F1F1F1" rx="114.0948" ry="25.219" style="stroke:#181818;stroke-width:0.5;"/><text fill="#000000" font-family="sans-serif" font-size="14" lengthAdjust="spacing" textLength="192" x="151.0948" y="517.9475">UC24 - Subir m&#250;sica al Evento</text></g><g id="elem_agregarUbicacionEvento"><ellipse cx="246.8821" cy="602.8764" fill="#F1F1F1" rx="129.8821" ry="28.3764" style="stroke:#181818;stroke-width:0.5;"/><text fill="#000000" font-family="sans-serif" font-size="14" lengthAdjust="spacing" textLength="226" x="133.8821" y="606.6049">UC25 - Agregar ubicaci&#243;n al Evento</text></g><g id="elem_eliminarImagenEvento"><ellipse cx="247.0545" cy="693.0109" fill="#F1F1F1" rx="120.5545" ry="26.5109" style="stroke:#181818;stroke-width:0.5;"/><text fill="#000000" font-family="sans-serif" font-size="14" lengthAdjust="spacing" textLength="206" x="144.0545" y="696.7394">UC26 - Editar imagen del Evento</text></g><g id="elem_editarMusicaEvento"><ellipse cx="247.1716" cy="782.0343" fill="#F1F1F1" rx="125.6716" ry="27.5343" style="stroke:#181818;stroke-width:0.5;"/><text fill="#000000" font-family="sans-serif" font-size="14" lengthAdjust="spacing" textLength="217" x="138.6716" y="785.7628">UC27 - Eliminar m&#250;sica del Evento</text></g><g id="elem_editarUbicacionEvento"><ellipse cx="247.1703" cy="874.0341" fill="#F1F1F1" rx="133.1703" ry="29.0341" style="stroke:#181818;stroke-width:0.5;"/><text fill="#000000" font-family="sans-serif" font-size="14" lengthAdjust="spacing" textLength="233" x="130.6703" y="877.7626">UC28 - Eliminar ubicaci&#243;n del Evento</text></g><!--entity usuario--><g id="elem_usuario"><ellipse cx="30" cy="440.5" fill="#F1F1F1" rx="8" ry="8" style="stroke:#181818;stroke-width:0.5;"/><path d="M30,448.5 L30,475.5 M17,456.5 L43,456.5 M30,475.5 L17,490.5 M30,475.5 L43,490.5 " fill="none" style="stroke:#181818;stroke-width:0.5;"/><text fill="#000000" font-family="sans-serif" font-size="14" lengthAdjust="spacing" textLength="48" x="6" y="506.5332">Usuario</text></g><!--link usuario to buscarEvento--><g id="link_usuario_buscarEvento"><path d="M32.67,431.72 C36.53,349.86 47.16,166.84 66,146 C88.81,120.77 123.79,109.95 156.87,105.93 " fill="none" id="usuario-buscarEvento" style="stroke:#181818;stroke-width:1.0;"/></g><!--link usuario to publicarEvento--><g id="link_usuario_publicarEvento"><path d="M31.23,431.89 C32.44,369.76 38.43,252.51 66,223 C88.35,199.08 121.66,188.22 153.57,183.8 " fill="none" id="usuario-publicarEvento" style="stroke:#181818;stroke-width:1.0;"/></g><!--link usuario to editarEvento--><g id="link_usuario_editarEvento"><path d="M34.06,431.64 C38.36,386.79 47.81,317.33 66,299 C90.3,274.52 126.13,263.93 159.44,259.87 " fill="none" id="usuario-editarEvento" style="stroke:#181818;stroke-width:1.0;"/></g><!--link usuario to verDetallesEvento--><g id="link_usuario_verDetallesEvento"><path d="M38.62,431.58 C43.74,415.01 52.18,396.86 66,385 C86.36,367.52 112.58,356.88 138.68,350.46 " fill="none" id="usuario-verDetallesEvento" style="stroke:#181818;stroke-width:1.0;"/></g><!--link usuario to subirImagenEvento--><g id="link_usuario_subirImagenEvento"><path d="M54.01,466.4 C79.57,461.29 122.36,452.73 161.06,444.99 " fill="none" id="usuario-subirImagenEvento" style="stroke:#181818;stroke-width:1.0;"/></g><!--link usuario to subirMusicaEvento--><g id="link_usuario_subirMusicaEvento"><path d="M54.01,475.6 C79.79,480.76 123.09,489.42 162.05,497.21 " fill="none" id="usuario-subirMusicaEvento" style="stroke:#181818;stroke-width:1.0;"/></g><!--link usuario to agregarUbicacionEvento--><g id="link_usuario_agregarUbicacionEvento"><path d="M38.98,510.27 C44.15,526.5 52.54,544.24 66,556 C84.37,572.04 107.56,582.7 131.13,589.77 " fill="none" id="usuario-agregarUbicacionEvento" style="stroke:#181818;stroke-width:1.0;"/></g><!--link usuario to eliminarImagenEvento--><g id="link_usuario_eliminarImagenEvento"><path d="M33.86,510.4 C38.03,556.65 47.4,629.53 66,649 C83.45,667.26 107.12,678.46 131.56,685.21 " fill="none" id="usuario-eliminarImagenEvento" style="stroke:#181818;stroke-width:1.0;"/></g><!--link usuario to editarMusicaEvento--><g id="link_usuario_editarMusicaEvento"><path d="M30.92,510.16 C31.63,575.84 36.82,704.28 66,737 C82.08,755.03 104.19,766.36 127.41,773.36 " fill="none" id="usuario-editarMusicaEvento" style="stroke:#181818;stroke-width:1.0;"/></g><!--link usuario to editarUbicacionEvento--><g id="link_usuario_editarUbicacionEvento"><path d="M32.36,510.28 C35.74,597.85 45.76,803.3 66,827 C80.89,844.44 101.37,855.82 123.18,863.16 " fill="none" id="usuario-editarUbicacionEvento" style="stroke:#181818;stroke-width:1.0;"/></g><!--SRC=[ZLF9JiCm4BtdAqQvHw9bFrAe40Sa95JkKsSQB9oayb898RwA6zV-66CdAcwJDFKXiloMyHjF000KhIpO6hGitYtaKfEmiguIXW25hJMa2-DGope5DE2QVO0z5Qj24QJp3LLMhZvJ-0gGNsiK7rWm-4Z6okrF1Jb18DOcvldb30aqp5tSJsuXWvap0ZLGO8V2ot3Io8UaqpEMlhYbaWVYTNis8f-mV9vBko-cS38YdRBqZJH7jAWK6Twes6H3-g65HfpEsUdLBQK6MNBxAa3LTYqO6Gyz1MJ4w69dL6v_3SVlStfs7XbnkcIdkq9JmOrXaK0HddFV3Xl2ei7hiTjT_VUwpUax5lcHagMiyBIirzwj5UpY7Xg6QYS5ledjeiIzZaE9lvFccpJkuR-1BEjESeJr36g4TYOnmle7B2Bq3yuXeTEUY73aXUDB3hrR9yYnMhsj_GC0]--></g></svg>