<?xml version="1.0" encoding="us-ascii" standalone="no"?><svg xmlns="http://www.w3.org/2000/svg" xmlns:xlink="http://www.w3.org/1999/xlink" contentStyleType="text/css" height="566px" preserveAspectRatio="none" style="width:374px;height:566px;background:#FFFFFF;" version="1.1" viewBox="0 0 374 566" width="374px" zoomAndPan="magnify"><defs/><g><!--cluster Eventify--><g id="cluster_Eventify"><rect fill="none" height="553" rx="2.5" ry="2.5" style="stroke:#181818;stroke-width:1.0;" width="294" x="74" y="7"/><text fill="#000000" font-family="sans-serif" font-size="14" font-weight="bold" lengthAdjust="spacing" textLength="57" x="192.5" y="23.5332">Eventify</text></g><!--cluster Gesti?n de Usuario--><g id="cluster_Gesti&#243;n de Usuario"><path d="M100.5,51 L236.5,51 A3.75,3.75 0 0 1 239,53.5 L246,74.6094 L341.5,74.6094 A2.5,2.5 0 0 1 344,77.1094 L344,533.5 A2.5,2.5 0 0 1 341.5,536 L100.5,536 A2.5,2.5 0 0 1 98,533.5 L98,53.5 A2.5,2.5 0 0 1 100.5,51 " fill="none" style="stroke:#000000;stroke-width:1.5;"/><line style="stroke:#000000;stroke-width:1.5;" x1="98" x2="246" y1="74.6094" y2="74.6094"/><text fill="#000000" font-family="sans-serif" font-size="14" font-weight="bold" lengthAdjust="spacing" textLength="135" x="102" y="67.5332">Gesti&#243;n de Usuario</text></g><g id="elem_verPerfil"><ellipse cx="220.7982" cy="110.7596" fill="#F1F1F1" rx="106.7982" ry="23.7596" style="stroke:#181818;stroke-width:0.5;"/><text fill="#000000" font-family="sans-serif" font-size="14" lengthAdjust="spacing" textLength="176" x="132.7982" y="114.4882">UC23 - Ver perfil de usuario</text></g><g id="elem_editarPerfil"><ellipse cx="220.8351" cy="188.867" fill="#F1F1F1" rx="82.3351" ry="18.867" style="stroke:#181818;stroke-width:0.5;"/><text fill="#000000" font-family="sans-serif" font-size="14" lengthAdjust="spacing" textLength="120" x="160.8351" y="192.5955">UC24 - Editar perfil</text></g><g id="elem_cambiarIdioma"><ellipse cx="220.9382" cy="264.0876" fill="#F1F1F1" rx="93.4382" ry="21.0876" style="stroke:#181818;stroke-width:0.5;"/><text fill="#000000" font-family="sans-serif" font-size="14" lengthAdjust="spacing" textLength="146" x="147.9382" y="267.8162">UC25 - Cambiar idioma</text></g><g id="elem_cambiarContrasena"><ellipse cx="220.7982" cy="343.7596" fill="#F1F1F1" rx="106.7982" ry="23.7596" style="stroke:#181818;stroke-width:0.5;"/><text fill="#000000" font-family="sans-serif" font-size="14" lengthAdjust="spacing" textLength="176" x="132.7982" y="347.4882">UC26 - Cambiar contrase&#241;a</text></g><g id="elem_verSeguidos"><ellipse cx="220.9661" cy="422.7932" fill="#F1F1F1" rx="86.9661" ry="19.7932" style="stroke:#181818;stroke-width:0.5;"/><text fill="#000000" font-family="sans-serif" font-size="14" lengthAdjust="spacing" textLength="131" x="155.4661" y="426.5217">UC27 - Ver seguidos</text></g><g id="elem_verSeguidores"><ellipse cx="221.066" cy="498.9132" fill="#F1F1F1" rx="92.566" ry="20.9132" style="stroke:#181818;stroke-width:0.5;"/><text fill="#000000" font-family="sans-serif" font-size="14" lengthAdjust="spacing" textLength="144" x="149.066" y="502.6417">UC28 - Ver seguidores</text></g><!--entity usuario--><g id="elem_usuario"><ellipse cx="30" cy="273.5" fill="#F1F1F1" rx="8" ry="8" style="stroke:#181818;stroke-width:0.5;"/><path d="M30,281.5 L30,308.5 M17,289.5 L43,289.5 M30,308.5 L17,323.5 M30,308.5 L43,323.5 " fill="none" style="stroke:#181818;stroke-width:0.5;"/><text fill="#000000" font-family="sans-serif" font-size="14" lengthAdjust="spacing" textLength="48" x="6" y="339.5332">Usuario</text></g><!--link usuario to verPerfil--><g id="link_usuario_verPerfil"><path d="M35.43,264.68 C40.67,225.15 50.66,167.87 66,152 C81,136.48 101.15,126.62 121.93,120.4 " fill="none" id="usuario-verPerfil" style="stroke:#181818;stroke-width:1.0;"/></g><!--link usuario to editarPerfil--><g id="link_usuario_editarPerfil"><path d="M40.35,264.86 C45.65,250.43 53.75,235.14 66,225 C86.83,207.75 114.43,198.44 140.5,193.52 " fill="none" id="usuario-editarPerfil" style="stroke:#181818;stroke-width:1.0;"/></g><!--link usuario to cambiarIdioma--><g id="link_usuario_cambiarIdioma"><path d="M54.18,299.1 C78.52,293.94 117.97,285.59 152.28,278.33 " fill="none" id="usuario-cambiarIdioma" style="stroke:#181818;stroke-width:1.0;"/></g><!--link usuario to cambiarContrasena--><g id="link_usuario_cambiarContrasena"><path d="M54.18,308.9 C76.26,313.58 110.75,320.88 142.58,327.62 " fill="none" id="usuario-cambiarContrasena" style="stroke:#181818;stroke-width:1.0;"/></g><!--link usuario to verSeguidos--><g id="link_usuario_verSeguidos"><path d="M39.91,343.2 C45.17,358.22 53.37,374.31 66,385 C86.07,401.99 112.6,411.59 137.97,416.96 " fill="none" id="usuario-verSeguidos" style="stroke:#181818;stroke-width:1.0;"/></g><!--link usuario to verSeguidores--><g id="link_usuario_verSeguidores"><path d="M35.12,343.27 C40.17,383.89 50.08,443.64 66,460 C83.31,477.79 107.48,487.89 131.55,493.51 " fill="none" id="usuario-verSeguidores" style="stroke:#181818;stroke-width:1.0;"/></g><!--SRC=[XP3BJiCm44Nt-OghxBFXlOygn0u9bVrWJyA8rAvifn92V1JY4_fZE4vQyY32YoYPC-V6Cm3GS1KGB9pKhm5Q7AiWrcGHWLIm3ldMj-J4vY2FjdzFk6ibKpUCV7DW4wHwp_6HK7VsfDweZl2UVP3Zju5cdBD- -xhJUbRaO- -slBX4WMTssBEhfEcaTdI10xl715Rzg-Xlj0GwHIIFK-KVzJgg9UrU9BgYnUuekQelFQJAgdmpafKrmKLm_9eab4FPhAVS3jDxhblHrf-6VXg-LyMxgUXuhiRAMVxC-cVMfwJreYXcsns1nVf6RBcU9PnDFltbPBO_KRpx3m00]--></g></svg>