<?xml version="1.0" encoding="us-ascii" standalone="no"?><svg xmlns="http://www.w3.org/2000/svg" xmlns:xlink="http://www.w3.org/1999/xlink" contentStyleType="text/css" height="941px" preserveAspectRatio="none" style="width:426px;height:941px;background:#FFFFFF;" version="1.1" viewBox="0 0 426 941" width="426px" zoomAndPan="magnify"><defs/><g><!--cluster Eventify--><g id="cluster_Eventify"><rect fill="none" height="928" rx="2.5" ry="2.5" style="stroke:#181818;stroke-width:1.0;" width="346" x="74" y="7"/><text fill="#000000" font-family="sans-serif" font-size="14" font-weight="bold" lengthAdjust="spacing" textLength="57" x="218.5" y="23.5332">Eventify</text></g><!--cluster Gesti?n de Eventos--><g id="cluster_Gesti&#243;n de Eventos"><path d="M100.5,51 L240.5,51 A3.75,3.75 0 0 1 243,53.5 L250,74.6094 L393.5,74.6094 A2.5,2.5 0 0 1 396,77.1094 L396,908.5 A2.5,2.5 0 0 1 393.5,911 L100.5,911 A2.5,2.5 0 0 1 98,908.5 L98,53.5 A2.5,2.5 0 0 1 100.5,51 " fill="none" style="stroke:#000000;stroke-width:1.5;"/><line style="stroke:#000000;stroke-width:1.5;" x1="98" x2="250" y1="74.6094" y2="74.6094"/><text fill="#000000" font-family="sans-serif" font-size="14" font-weight="bold" lengthAdjust="spacing" textLength="139" x="102" y="67.5332">Gesti&#243;n de Eventos</text></g><g id="elem_buscarEvento"><ellipse cx="246.9661" cy="106.7932" fill="#F1F1F1" rx="86.9661" ry="19.7932" style="stroke:#181818;stroke-width:0.5;"/><text fill="#000000" font-family="sans-serif" font-size="14" lengthAdjust="spacing" textLength="131" x="181.4661" y="110.5217">UC5 - Buscar evento</text></g><g id="elem_publicarEvento"><ellipse cx="246.9659" cy="182.8932" fill="#F1F1F1" rx="89.9659" ry="20.3932" style="stroke:#181818;stroke-width:0.5;"/><text fill="#000000" font-family="sans-serif" font-size="14" lengthAdjust="spacing" textLength="138" x="177.9659" y="186.6217">UC6 - Publicar evento</text></g><g id="elem_editarEvento"><ellipse cx="247.0066" cy="258.2013" fill="#F1F1F1" rx="84.0066" ry="19.2013" style="stroke:#181818;stroke-width:0.5;"/><text fill="#000000" font-family="sans-serif" font-size="14" lengthAdjust="spacing" textLength="124" x="185.0066" y="261.9298">UC7 - Editar evento</text></g><g id="elem_verDetallesEvento"><ellipse cx="246.8903" cy="337.0781" fill="#F1F1F1" rx="110.8903" ry="24.5781" style="stroke:#181818;stroke-width:0.5;"/><text fill="#000000" font-family="sans-serif" font-size="14" lengthAdjust="spacing" textLength="185" x="154.3903" y="340.8066">UC8 - Ver detalles del evento</text></g><g id="elem_subirImagenEvento"><ellipse cx="246.847" cy="421.1694" fill="#F1F1F1" rx="111.347" ry="24.6694" style="stroke:#181818;stroke-width:0.5;"/><text fill="#000000" font-family="sans-serif" font-size="14" lengthAdjust="spacing" textLength="186" x="153.847" y="424.8979">UC9 - Subir imagen al Evento</text></g><g id="elem_subirMusicaEvento"><ellipse cx="247.0948" cy="506.219" fill="#F1F1F1" rx="114.0948" ry="25.219" style="stroke:#181818;stroke-width:0.5;"/><text fill="#000000" font-family="sans-serif" font-size="14" lengthAdjust="spacing" textLength="192" x="151.0948" y="509.9475">UC10 - Subir m&#250;sica al Evento</text></g><g id="elem_agregarUbicacionEvento"><ellipse cx="246.8821" cy="594.8764" fill="#F1F1F1" rx="129.8821" ry="28.3764" style="stroke:#181818;stroke-width:0.5;"/><text fill="#000000" font-family="sans-serif" font-size="14" lengthAdjust="spacing" textLength="226" x="133.8821" y="598.6049">UC11 - Agregar ubicaci&#243;n al Evento</text></g><g id="elem_eliminarImagenEvento"><ellipse cx="247.0545" cy="685.0109" fill="#F1F1F1" rx="120.5545" ry="26.5109" style="stroke:#181818;stroke-width:0.5;"/><text fill="#000000" font-family="sans-serif" font-size="14" lengthAdjust="spacing" textLength="206" x="144.0545" y="688.7394">UC12 - Editar imagen del Evento</text></g><g id="elem_editarMusicaEvento"><ellipse cx="247.1716" cy="774.0343" fill="#F1F1F1" rx="125.6716" ry="27.5343" style="stroke:#181818;stroke-width:0.5;"/><text fill="#000000" font-family="sans-serif" font-size="14" lengthAdjust="spacing" textLength="217" x="138.6716" y="777.7628">UC13 - Eliminar m&#250;sica del Evento</text></g><g id="elem_editarUbicacionEvento"><ellipse cx="247.1703" cy="866.0341" fill="#F1F1F1" rx="133.1703" ry="29.0341" style="stroke:#181818;stroke-width:0.5;"/><text fill="#000000" font-family="sans-serif" font-size="14" lengthAdjust="spacing" textLength="233" x="130.6703" y="869.7626">UC14 - Eliminar ubicaci&#243;n del Evento</text></g><!--entity usuario--><g id="elem_usuario"><ellipse cx="30" cy="433.5" fill="#F1F1F1" rx="8" ry="8" style="stroke:#181818;stroke-width:0.5;"/><path d="M30,441.5 L30,468.5 M17,449.5 L43,449.5 M30,468.5 L17,483.5 M30,468.5 L43,483.5 " fill="none" style="stroke:#181818;stroke-width:0.5;"/><text fill="#000000" font-family="sans-serif" font-size="14" lengthAdjust="spacing" textLength="48" x="6" y="499.5332">Usuario</text></g><!--link usuario to buscarEvento--><g id="link_usuario_buscarEvento"><path d="M32.75,424.83 C36.73,344.18 47.53,165.39 66,145 C89.69,118.84 126.47,108.19 160.62,104.52 " fill="none" id="usuario-buscarEvento" style="stroke:#181818;stroke-width:1.0;"/></g><!--link usuario to publicarEvento--><g id="link_usuario_publicarEvento"><path d="M31.36,424.93 C32.77,363.86 39.04,249.77 66,221 C89.15,196.3 123.99,185.53 156.87,181.41 " fill="none" id="usuario-publicarEvento" style="stroke:#181818;stroke-width:1.0;"/></g><!--link usuario to editarEvento--><g id="link_usuario_editarEvento"><path d="M34.17,424.91 C38.57,380.81 48.08,312.89 66,295 C91.28,269.75 128.9,259.51 163.21,255.99 " fill="none" id="usuario-editarEvento" style="stroke:#181818;stroke-width:1.0;"/></g><!--link usuario to verDetallesEvento--><g id="link_usuario_verDetallesEvento"><path d="M38.7,425 C43.83,408.61 52.26,390.68 66,379 C86.9,361.23 113.92,350.64 140.64,344.42 " fill="none" id="usuario-verDetallesEvento" style="stroke:#181818;stroke-width:1.0;"/></g><!--link usuario to subirImagenEvento--><g id="link_usuario_subirImagenEvento"><path d="M54.01,459.4 C80.22,454.16 124.55,445.29 164.01,437.4 " fill="none" id="usuario-subirImagenEvento" style="stroke:#181818;stroke-width:1.0;"/></g><!--link usuario to subirMusicaEvento--><g id="link_usuario_subirMusicaEvento"><path d="M54.01,468.49 C79.57,473.49 122.36,481.85 161.06,489.41 " fill="none" id="usuario-subirMusicaEvento" style="stroke:#181818;stroke-width:1.0;"/></g><!--link usuario to agregarUbicacionEvento--><g id="link_usuario_agregarUbicacionEvento"><path d="M39.23,503.24 C44.43,519.17 52.77,536.49 66,548 C84.52,564.11 107.91,574.79 131.65,581.86 " fill="none" id="usuario-agregarUbicacionEvento" style="stroke:#181818;stroke-width:1.0;"/></g><!--link usuario to eliminarImagenEvento--><g id="link_usuario_eliminarImagenEvento"><path d="M33.89,503.18 C38.09,549.17 47.49,621.65 66,641 C83.46,659.25 107.13,670.44 131.57,677.2 " fill="none" id="usuario-eliminarImagenEvento" style="stroke:#181818;stroke-width:1.0;"/></g><!--link usuario to editarMusicaEvento--><g id="link_usuario_editarMusicaEvento"><path d="M30.95,503.01 C31.68,568.45 36.92,696.41 66,729 C82.08,747.03 104.19,758.35 127.42,765.36 " fill="none" id="usuario-editarMusicaEvento" style="stroke:#181818;stroke-width:1.0;"/></g><!--link usuario to editarUbicacionEvento--><g id="link_usuario_editarUbicacionEvento"><path d="M32.37,503.17 C35.76,590.5 45.81,795.36 66,819 C80.89,836.44 101.37,847.82 123.19,855.16 " fill="none" id="usuario-editarUbicacionEvento" style="stroke:#181818;stroke-width:1.0;"/></g><!--SRC=[ZLF9QiCm4BtxAmRV3Ktt7hk4qaEXKDpxH9wueh8Tj0HAwLVrrcj-h2FPf4gy93eOeRUCtcWC0A1eQS4se6NvRg6GceILJPqm12Xieo7DZKCjcnJGW6lt0VPKh4j5aCxNL5kv_4pXAq1-hL1yOCdW8nahDpyr50I1s9YOvvSp9D0mDx-_W0pkd16eWG8vr5s4arOzfhnavOjRABcdNNLdq-ehLiyBQNUr54wcbTUiV2FDyImgHOOtAlPOatxee6cZ6pPwTGkfGLRSkHfGTGqBFiP3Jm6PzfcTR8sgpQ_Xx4DEpyuZ1vncx7HRQYgvBImIAC9BxjfXIyXRl3bqkzF_JdSvVSCYFrAoaZKUb_NCktM2RTnzmr3jgC3diLsKUD1nBF5tqdwJrZtyCf1b_IcEi84fZT3U74ROy7n5XE71sIVqsXCH9buulkJOk_M2JDKQREqV]--></g></svg>