<?xml version="1.0" encoding="us-ascii" standalone="no"?><svg xmlns="http://www.w3.org/2000/svg" xmlns:xlink="http://www.w3.org/1999/xlink" contentStyleType="text/css" height="778px" preserveAspectRatio="none" style="width:427px;height:778px;background:#FFFFFF;" version="1.1" viewBox="0 0 427 778" width="427px" zoomAndPan="magnify"><defs/><g><!--cluster Eventify--><g id="cluster_Eventify"><rect fill="none" height="765" rx="2.5" ry="2.5" style="stroke:#181818;stroke-width:1.0;" width="347" x="74" y="7"/><text fill="#000000" font-family="sans-serif" font-size="14" font-weight="bold" lengthAdjust="spacing" textLength="57" x="219" y="23.5332">Eventify</text></g><!--cluster Interacciones Sociales--><g id="cluster_Interacciones Sociales"><path d="M100.5,51 L260.5,51 A3.75,3.75 0 0 1 263,53.5 L270,74.6094 L394.5,74.6094 A2.5,2.5 0 0 1 397,77.1094 L397,745.5 A2.5,2.5 0 0 1 394.5,748 L100.5,748 A2.5,2.5 0 0 1 98,745.5 L98,53.5 A2.5,2.5 0 0 1 100.5,51 " fill="none" style="stroke:#000000;stroke-width:1.5;"/><line style="stroke:#000000;stroke-width:1.5;" x1="98" x2="270" y1="74.6094" y2="74.6094"/><text fill="#000000" font-family="sans-serif" font-size="14" font-weight="bold" lengthAdjust="spacing" textLength="159" x="102" y="67.5332">Interacciones Sociales</text></g><g id="elem_seguirUsuario"><ellipse cx="247.3297" cy="108.0659" fill="#F1F1F1" rx="90.8297" ry="20.5659" style="stroke:#181818;stroke-width:0.5;"/><text fill="#000000" font-family="sans-serif" font-size="14" lengthAdjust="spacing" textLength="140" x="177.3297" y="111.7945">UC15 - Seguir usuario</text></g><g id="elem_dejarSeguirUsuario"><ellipse cx="247.4339" cy="189.0868" fill="#F1F1F1" rx="115.9339" ry="25.5868" style="stroke:#181818;stroke-width:0.5;"/><text fill="#000000" font-family="sans-serif" font-size="14" lengthAdjust="spacing" textLength="196" x="149.4339" y="192.8153">UC16 - Dejar de seguir usuario</text></g><g id="elem_verNotificaciones"><ellipse cx="247.613" cy="271.8226" fill="#F1F1F1" rx="99.613" ry="22.3226" style="stroke:#181818;stroke-width:0.5;"/><text fill="#000000" font-family="sans-serif" font-size="14" lengthAdjust="spacing" textLength="160" x="167.613" y="275.5511">UC17 - Ver notificaciones</text></g><g id="elem_buscarPerfil"><ellipse cx="247.3554" cy="355.7711" fill="#F1F1F1" rx="116.8554" ry="25.7711" style="stroke:#181818;stroke-width:0.5;"/><text fill="#000000" font-family="sans-serif" font-size="14" lengthAdjust="spacing" textLength="198" x="148.3554" y="359.4996">UC18 - Buscar perfil de usuario</text></g><g id="elem_darMeGusta"><ellipse cx="247.6384" cy="445.1277" fill="#F1F1F1" rx="126.1384" ry="27.6277" style="stroke:#181818;stroke-width:0.5;"/><text fill="#000000" font-family="sans-serif" font-size="14" lengthAdjust="spacing" textLength="218" x="138.6384" y="448.8562">UC19 - Dar 'Me gusta' a un evento</text></g><g id="elem_quitarMeGusta"><ellipse cx="247.641" cy="537.1282" fill="#F1F1F1" rx="133.641" ry="29.1282" style="stroke:#181818;stroke-width:0.5;"/><text fill="#000000" font-family="sans-serif" font-size="14" lengthAdjust="spacing" textLength="234" x="130.641" y="540.8567">UC20 - Quitar 'Me gusta' a un evento</text></g><g id="elem_compartirEvento"><ellipse cx="247.2512" cy="624.8502" fill="#F1F1F1" rx="107.2512" ry="23.8502" style="stroke:#181818;stroke-width:0.5;"/><text fill="#000000" font-family="sans-serif" font-size="14" lengthAdjust="spacing" textLength="177" x="158.7512" y="628.5788">UC21 - Compartir un evento</text></g><g id="elem_comentarEvento"><ellipse cx="247.2512" cy="707.8502" fill="#F1F1F1" rx="107.2512" ry="23.8502" style="stroke:#181818;stroke-width:0.5;"/><text fill="#000000" font-family="sans-serif" font-size="14" lengthAdjust="spacing" textLength="177" x="158.7512" y="711.5788">UC22 - Comentar un evento</text></g><!--entity usuario--><g id="elem_usuario"><ellipse cx="30" cy="370.5" fill="#F1F1F1" rx="8" ry="8" style="stroke:#181818;stroke-width:0.5;"/><path d="M30,378.5 L30,405.5 M17,386.5 L43,386.5 M30,405.5 L17,420.5 M30,405.5 L43,420.5 " fill="none" style="stroke:#181818;stroke-width:0.5;"/><text fill="#000000" font-family="sans-serif" font-size="14" lengthAdjust="spacing" textLength="48" x="6" y="436.5332">Usuario</text></g><!--link usuario to seguirUsuario--><g id="link_usuario_seguirUsuario"><path d="M31.06,361.82 C31.99,298.22 37.56,176.53 66,146 C89.03,121.28 123.73,110.48 156.57,106.32 " fill="none" id="usuario-seguirUsuario" style="stroke:#181818;stroke-width:1.0;"/></g><!--link usuario to dejarSeguirUsuario--><g id="link_usuario_dejarSeguirUsuario"><path d="M34.31,361.61 C38.82,317.6 48.42,250.11 66,232 C84.29,213.16 109.22,201.96 134.72,195.44 " fill="none" id="usuario-dejarSeguirUsuario" style="stroke:#181818;stroke-width:1.0;"/></g><!--link usuario to verNotificaciones--><g id="link_usuario_verNotificaciones"><path d="M37.69,361.94 C42.65,344.29 51.23,324.62 66,312 C89.18,292.19 120.01,281.58 149.63,276.06 " fill="none" id="usuario-verNotificaciones" style="stroke:#181818;stroke-width:1.0;"/></g><!--link usuario to buscarPerfil--><g id="link_usuario_buscarPerfil"><path d="M54.06,396.18 C79.69,390.83 122.58,381.88 161.37,373.78 " fill="none" id="usuario-buscarPerfil" style="stroke:#181818;stroke-width:1.0;"/></g><!--link usuario to darMeGusta--><g id="link_usuario_darMeGusta"><path d="M54.06,405.71 C78.28,410.65 117.9,418.74 154.92,426.3 " fill="none" id="usuario-darMeGusta" style="stroke:#181818;stroke-width:1.0;"/></g><!--link usuario to quitarMeGusta--><g id="link_usuario_quitarMeGusta"><path d="M38.02,440.27 C43.05,457.75 51.59,477.22 66,490 C83.81,505.79 106.27,516.39 129.24,523.47 " fill="none" id="usuario-quitarMeGusta" style="stroke:#181818;stroke-width:1.0;"/></g><!--link usuario to compartirEvento--><g id="link_usuario_compartirEvento"><path d="M33.6,440.07 C37.56,487.32 46.76,563 66,583 C85.74,603.52 113.41,614.87 141.15,620.94 " fill="none" id="usuario-compartirEvento" style="stroke:#181818;stroke-width:1.0;"/></g><!--link usuario to comentarEvento--><g id="link_usuario_comentarEvento"><path d="M30.89,440.06 C31.54,505.58 36.65,633.65 66,666 C85.24,687.21 112.92,698.75 140.84,704.78 " fill="none" id="usuario-comentarEvento" style="stroke:#181818;stroke-width:1.0;"/></g><!--SRC=[ZP9DJuGm48Rl_8e9bpsHk2H-NLsDyR16G_0-bW6hIB4VcnZZVtTQTfEoWDe38VE-VJhpjW00BTKMh08jcnSBbTGah5HTmXAWi4f3MXg7MgeKq80R_eFihTWrBK5wiwFEolepXQyW-TMZUCE6nRlEaaOX64i62YKajcHYgr_Ea433zdApFeKC2cgSr8S3m-4cbCgeXRdDPxpvcbvHGqNxBIDAvRNYNwXpHZsHXaxnS5BWC4AWx4ZVZwgBa0k6N3aZkA6UT2rRtrVSq7CG7uAsIBdqKp5YjILedB6u0WJN0VdazuEXtjAjrvOe-GbJ7fsqluC-WkClrffP6_NUexO-uH517EhXOIm6dES3WpquWmZb8y9tCdoJ0HLIX2oRUHkHEBrorezDypSQ6IRt59ympYjIfc56ubnEOpdAu0S0]--></g></svg>