<?xml version="1.0" encoding="us-ascii" standalone="no"?><svg xmlns="http://www.w3.org/2000/svg" xmlns:xlink="http://www.w3.org/1999/xlink" contentStyleType="text/css" height="945px" preserveAspectRatio="none" style="width:420px;height:945px;background:#FFFFFF;" version="1.1" viewBox="0 0 420 945" width="420px" zoomAndPan="magnify"><defs/><g><!--cluster Eventify--><g id="cluster_Eventify"><rect fill="none" height="932" rx="2.5" ry="2.5" style="stroke:#181818;stroke-width:1.0;" width="340" x="74" y="7"/><text fill="#000000" font-family="sans-serif" font-size="14" font-weight="bold" lengthAdjust="spacing" textLength="57" x="215.5" y="23.5332">Eventify</text></g><!--cluster Gesti?n de Eventos--><g id="cluster_Gesti&#243;n de Eventos"><path d="M100.5,51 L240.5,51 A3.75,3.75 0 0 1 243,53.5 L250,74.6094 L387.5,74.6094 A2.5,2.5 0 0 1 390,77.1094 L390,912.5 A2.5,2.5 0 0 1 387.5,915 L100.5,915 A2.5,2.5 0 0 1 98,912.5 L98,53.5 A2.5,2.5 0 0 1 100.5,51 " fill="none" style="stroke:#000000;stroke-width:1.5;"/><line style="stroke:#000000;stroke-width:1.5;" x1="98" x2="250" y1="74.6094" y2="74.6094"/><text fill="#000000" font-family="sans-serif" font-size="14" font-weight="bold" lengthAdjust="spacing" textLength="139" x="102" y="67.5332">Gesti&#243;n de Eventos</text></g><g id="elem_buscarEvento"><ellipse cx="243.8974" cy="107.9795" fill="#F1F1F1" rx="90.3974" ry="20.4795" style="stroke:#181818;stroke-width:0.5;"/><text fill="#000000" font-family="sans-serif" font-size="14" lengthAdjust="spacing" textLength="139" x="174.3974" y="111.708">UC19 - Buscar evento</text></g><g id="elem_publicarEvento"><ellipse cx="243.9382" cy="185.0876" fill="#F1F1F1" rx="93.4382" ry="21.0876" style="stroke:#181818;stroke-width:0.5;"/><text fill="#000000" font-family="sans-serif" font-size="14" lengthAdjust="spacing" textLength="146" x="170.9382" y="188.8162">UC20 - Publicar evento</text></g><g id="elem_editarEvento"><ellipse cx="243.8923" cy="260.8785" fill="#F1F1F1" rx="87.3923" ry="19.8785" style="stroke:#181818;stroke-width:0.5;"/><text fill="#000000" font-family="sans-serif" font-size="14" lengthAdjust="spacing" textLength="132" x="177.8923" y="264.607">UC21 - Editar evento</text></g><g id="elem_verDetallesEvento"><ellipse cx="244.0541" cy="341.8108" fill="#F1F1F1" rx="114.5541" ry="25.3108" style="stroke:#181818;stroke-width:0.5;"/><text fill="#000000" font-family="sans-serif" font-size="14" lengthAdjust="spacing" textLength="193" x="147.5541" y="345.5393">UC22 - Ver detalles del evento</text></g><g id="elem_subirImagenEvento"><ellipse cx="244.0137" cy="427.9027" fill="#F1F1F1" rx="115.0137" ry="25.4027" style="stroke:#181818;stroke-width:0.5;"/><text fill="#000000" font-family="sans-serif" font-size="14" lengthAdjust="spacing" textLength="194" x="147.0137" y="431.6313">UC23 - Subir imagen al Evento</text></g><g id="elem_subirMusicaEvento"><ellipse cx="244.0948" cy="514.219" fill="#F1F1F1" rx="114.0948" ry="25.219" style="stroke:#181818;stroke-width:0.5;"/><text fill="#000000" font-family="sans-serif" font-size="14" lengthAdjust="spacing" textLength="192" x="148.0948" y="517.9475">UC24 - Subir m&#250;sica al Evento</text></g><g id="elem_agregarUbicacionEvento"><ellipse cx="243.8821" cy="602.8764" fill="#F1F1F1" rx="129.8821" ry="28.3764" style="stroke:#181818;stroke-width:0.5;"/><text fill="#000000" font-family="sans-serif" font-size="14" lengthAdjust="spacing" textLength="226" x="130.8821" y="606.6049">UC25 - Agregar ubicaci&#243;n al Evento</text></g><g id="elem_eliminarImagenEvento"><ellipse cx="244.0545" cy="693.0109" fill="#F1F1F1" rx="120.5545" ry="26.5109" style="stroke:#181818;stroke-width:0.5;"/><text fill="#000000" font-family="sans-serif" font-size="14" lengthAdjust="spacing" textLength="206" x="141.0545" y="696.7394">UC26 - Editar imagen del Evento</text></g><g id="elem_editarMusicaEvento"><ellipse cx="244.1279" cy="780.8256" fill="#F1F1F1" rx="119.6279" ry="26.3256" style="stroke:#181818;stroke-width:0.5;"/><text fill="#000000" font-family="sans-serif" font-size="14" lengthAdjust="spacing" textLength="204" x="142.1279" y="784.5541">UC27 - Editar m&#250;sica del Evento</text></g><g id="elem_editarUbicacionEvento"><ellipse cx="244.0728" cy="870.8146" fill="#F1F1F1" rx="127.0728" ry="27.8146" style="stroke:#181818;stroke-width:0.5;"/><text fill="#000000" font-family="sans-serif" font-size="14" lengthAdjust="spacing" textLength="220" x="134.0728" y="874.5431">UC28 - Editar ubicaci&#243;n del Evento</text></g><!--entity usuario--><g id="elem_usuario"><ellipse cx="30" cy="440.5" fill="#F1F1F1" rx="8" ry="8" style="stroke:#181818;stroke-width:0.5;"/><path d="M30,448.5 L30,475.5 M17,456.5 L43,456.5 M30,475.5 L17,490.5 M30,475.5 L43,490.5 " fill="none" style="stroke:#181818;stroke-width:0.5;"/><text fill="#000000" font-family="sans-serif" font-size="14" lengthAdjust="spacing" textLength="48" x="6" y="506.5332">Usuario</text></g><!--link usuario to buscarEvento--><g id="link_usuario_buscarEvento"><path d="M32.68,431.73 C36.54,349.87 47.2,166.87 66,146 C87.98,121.6 121.51,110.79 153.5,106.54 " fill="none" id="usuario-buscarEvento" style="stroke:#181818;stroke-width:1.0;"/></g><!--link usuario to publicarEvento--><g id="link_usuario_publicarEvento"><path d="M31.24,431.9 C32.47,369.79 38.48,252.56 66,223 C87.53,199.88 119.43,189.06 150.24,184.44 " fill="none" id="usuario-publicarEvento" style="stroke:#181818;stroke-width:1.0;"/></g><!--link usuario to editarEvento--><g id="link_usuario_editarEvento"><path d="M34.07,431.65 C38.38,386.81 47.84,317.36 66,299 C89.54,275.2 124.13,264.63 156.5,260.4 " fill="none" id="usuario-editarEvento" style="stroke:#181818;stroke-width:1.0;"/></g><!--link usuario to verDetallesEvento--><g id="link_usuario_verDetallesEvento"><path d="M38.65,431.61 C43.77,415.04 52.2,396.89 66,385 C85.76,367.97 111.17,357.45 136.53,351.01 " fill="none" id="usuario-verDetallesEvento" style="stroke:#181818;stroke-width:1.0;"/></g><!--link usuario to subirImagenEvento--><g id="link_usuario_subirImagenEvento"><path d="M54.09,466.32 C79.2,461.22 120.82,452.78 158.61,445.12 " fill="none" id="usuario-subirImagenEvento" style="stroke:#181818;stroke-width:1.0;"/></g><!--link usuario to subirMusicaEvento--><g id="link_usuario_subirMusicaEvento"><path d="M54.09,475.68 C79.42,480.82 121.53,489.36 159.58,497.08 " fill="none" id="usuario-subirMusicaEvento" style="stroke:#181818;stroke-width:1.0;"/></g><!--link usuario to agregarUbicacionEvento--><g id="link_usuario_agregarUbicacionEvento"><path d="M39.01,510.24 C44.18,526.47 52.56,544.22 66,556 C83.93,571.72 106.55,582.26 129.56,589.31 " fill="none" id="usuario-agregarUbicacionEvento" style="stroke:#181818;stroke-width:1.0;"/></g><!--link usuario to eliminarImagenEvento--><g id="link_usuario_eliminarImagenEvento"><path d="M33.87,510.39 C38.06,556.63 47.44,629.49 66,649 C82.92,666.78 105.81,677.82 129.52,684.58 " fill="none" id="usuario-eliminarImagenEvento" style="stroke:#181818;stroke-width:1.0;"/></g><!--link usuario to editarMusicaEvento--><g id="link_usuario_editarMusicaEvento"><path d="M30.92,510.16 C31.62,575.85 36.8,704.3 66,737 C82.45,755.42 105.31,766.7 129.14,773.48 " fill="none" id="usuario-editarMusicaEvento" style="stroke:#181818;stroke-width:1.0;"/></g><!--link usuario to editarUbicacionEvento--><g id="link_usuario_editarUbicacionEvento"><path d="M32.37,510.06 C35.78,597.14 45.85,801.45 66,825 C81.17,842.73 102.22,854.08 124.52,861.24 " fill="none" id="usuario-editarUbicacionEvento" style="stroke:#181818;stroke-width:1.0;"/></g><!--SRC=[ZLF9JiCm4BtdAqQvLw9bFx9KY0CI4WhtgJCD5gvJUQc445_5ZMj_Z8aJYDiaJNs8h7cB_SOJ0015ImUk12EBDmUvD2ISB7N24A1mfO4qinwDB5D02xxU1xYYeYuKGJhVa7Po-P72Pu2gjKRnZWM33sITt7vho0a2iRGnhrhUaa3BtEnkUWqJkFLMe04Ax73m8bHg-P1qTiBIPxzGSa-yRceZyYdBvxbqks8AbH7fZAMlP3YYGwN8yaR59XiozmqqudJAJYz-8Gt85RTF0wgcQy78Lj1ZG4QCplwDLjiVo_7xd9vyXOmudRFJJM6euCQmIA08pxbhXpKXg_5ox7ONRQ-Rd5N78ZzISYKr7fVridNx2xjl5z2ZubwrPb7QNh-Xj5z9_Krgx_3Fm6JIdU88wndI2ErCOOJr3rT4w1-QVKAdEH7XmEl6bnnwiqwGGsVrjlON]--></g></svg>