<?xml version="1.0" encoding="us-ascii" standalone="no"?><svg xmlns="http://www.w3.org/2000/svg" xmlns:xlink="http://www.w3.org/1999/xlink" contentStyleType="text/css" height="947px" preserveAspectRatio="none" style="width:420px;height:947px;background:#FFFFFF;" version="1.1" viewBox="0 0 420 947" width="420px" zoomAndPan="magnify"><defs/><g><!--cluster Eventify--><g id="cluster_Eventify"><rect fill="none" height="934" rx="2.5" ry="2.5" style="stroke:#181818;stroke-width:1.0;" width="340" x="74" y="7"/><text fill="#000000" font-family="sans-serif" font-size="14" font-weight="bold" lengthAdjust="spacing" textLength="57" x="215.5" y="23.5332">Eventify</text></g><!--cluster Gesti?n de Eventos--><g id="cluster_Gesti&#243;n de Eventos"><path d="M100.5,51 L240.5,51 A3.75,3.75 0 0 1 243,53.5 L250,74.6094 L387.5,74.6094 A2.5,2.5 0 0 1 390,77.1094 L390,914.5 A2.5,2.5 0 0 1 387.5,917 L100.5,917 A2.5,2.5 0 0 1 98,914.5 L98,53.5 A2.5,2.5 0 0 1 100.5,51 " fill="none" style="stroke:#000000;stroke-width:1.5;"/><line style="stroke:#000000;stroke-width:1.5;" x1="98" x2="250" y1="74.6094" y2="74.6094"/><text fill="#000000" font-family="sans-serif" font-size="14" font-weight="bold" lengthAdjust="spacing" textLength="139" x="102" y="67.5332">Gesti&#243;n de Eventos</text></g><g id="elem_buscarEvento"><ellipse cx="243.8974" cy="107.9795" fill="#F1F1F1" rx="90.3974" ry="20.4795" style="stroke:#181818;stroke-width:0.5;"/><text fill="#000000" font-family="sans-serif" font-size="14" lengthAdjust="spacing" textLength="139" x="174.3974" y="111.708">UC19 - Buscar evento</text></g><g id="elem_publicarEvento"><ellipse cx="243.9382" cy="185.0876" fill="#F1F1F1" rx="93.4382" ry="21.0876" style="stroke:#181818;stroke-width:0.5;"/><text fill="#000000" font-family="sans-serif" font-size="14" lengthAdjust="spacing" textLength="146" x="170.9382" y="188.8162">UC20 - Publicar evento</text></g><g id="elem_editarEvento"><ellipse cx="243.8923" cy="260.8785" fill="#F1F1F1" rx="87.3923" ry="19.8785" style="stroke:#181818;stroke-width:0.5;"/><text fill="#000000" font-family="sans-serif" font-size="14" lengthAdjust="spacing" textLength="132" x="177.8923" y="264.607">UC21 - Editar evento</text></g><g id="elem_verDetallesEvento"><ellipse cx="244.0541" cy="341.8108" fill="#F1F1F1" rx="114.5541" ry="25.3108" style="stroke:#181818;stroke-width:0.5;"/><text fill="#000000" font-family="sans-serif" font-size="14" lengthAdjust="spacing" textLength="193" x="147.5541" y="345.5393">UC22 - Ver detalles del evento</text></g><g id="elem_subirImagenEvento"><ellipse cx="244.0137" cy="427.9027" fill="#F1F1F1" rx="115.0137" ry="25.4027" style="stroke:#181818;stroke-width:0.5;"/><text fill="#000000" font-family="sans-serif" font-size="14" lengthAdjust="spacing" textLength="194" x="147.0137" y="431.6313">UC23 - Subir imagen al Evento</text></g><g id="elem_subirMusicaEvento"><ellipse cx="244.0948" cy="514.219" fill="#F1F1F1" rx="114.0948" ry="25.219" style="stroke:#181818;stroke-width:0.5;"/><text fill="#000000" font-family="sans-serif" font-size="14" lengthAdjust="spacing" textLength="192" x="148.0948" y="517.9475">UC24 - Subir m&#250;sica al Evento</text></g><g id="elem_agregarUbicacionEvento"><ellipse cx="243.8821" cy="602.8764" fill="#F1F1F1" rx="129.8821" ry="28.3764" style="stroke:#181818;stroke-width:0.5;"/><text fill="#000000" font-family="sans-serif" font-size="14" lengthAdjust="spacing" textLength="226" x="130.8821" y="606.6049">UC25 - Agregar ubicaci&#243;n al Evento</text></g><g id="elem_eliminarImagenEvento"><ellipse cx="244.1055" cy="694.2211" fill="#F1F1F1" rx="126.6055" ry="27.7211" style="stroke:#181818;stroke-width:0.5;"/><text fill="#000000" font-family="sans-serif" font-size="14" lengthAdjust="spacing" textLength="219" x="134.6055" y="697.9496">UC26 - Eliminar imagen del Evento</text></g><g id="elem_editarMusicaEvento"><ellipse cx="244.1279" cy="782.8256" fill="#F1F1F1" rx="119.6279" ry="26.3256" style="stroke:#181818;stroke-width:0.5;"/><text fill="#000000" font-family="sans-serif" font-size="14" lengthAdjust="spacing" textLength="204" x="142.1279" y="786.5541">UC27 - Editar m&#250;sica del Evento</text></g><g id="elem_editarUbicacionEvento"><ellipse cx="244.0728" cy="872.8146" fill="#F1F1F1" rx="127.0728" ry="27.8146" style="stroke:#181818;stroke-width:0.5;"/><text fill="#000000" font-family="sans-serif" font-size="14" lengthAdjust="spacing" textLength="220" x="134.0728" y="876.5431">UC28 - Editar ubicaci&#243;n del Evento</text></g><!--entity usuario--><g id="elem_usuario"><ellipse cx="30" cy="440.5" fill="#F1F1F1" rx="8" ry="8" style="stroke:#181818;stroke-width:0.5;"/><path d="M30,448.5 L30,475.5 M17,456.5 L43,456.5 M30,475.5 L17,490.5 M30,475.5 L43,490.5 " fill="none" style="stroke:#181818;stroke-width:0.5;"/><text fill="#000000" font-family="sans-serif" font-size="14" lengthAdjust="spacing" textLength="48" x="6" y="506.5332">Usuario</text></g><!--link usuario to buscarEvento--><g id="link_usuario_buscarEvento"><path d="M32.68,431.73 C36.54,349.87 47.2,166.87 66,146 C87.98,121.6 121.51,110.79 153.5,106.54 " fill="none" id="usuario-buscarEvento" style="stroke:#181818;stroke-width:1.0;"/></g><!--link usuario to publicarEvento--><g id="link_usuario_publicarEvento"><path d="M31.24,431.9 C32.47,369.79 38.48,252.56 66,223 C87.53,199.88 119.43,189.06 150.24,184.44 " fill="none" id="usuario-publicarEvento" style="stroke:#181818;stroke-width:1.0;"/></g><!--link usuario to editarEvento--><g id="link_usuario_editarEvento"><path d="M34.07,431.65 C38.38,386.81 47.84,317.36 66,299 C89.54,275.2 124.13,264.63 156.5,260.4 " fill="none" id="usuario-editarEvento" style="stroke:#181818;stroke-width:1.0;"/></g><!--link usuario to verDetallesEvento--><g id="link_usuario_verDetallesEvento"><path d="M38.65,431.61 C43.77,415.04 52.2,396.89 66,385 C85.76,367.97 111.17,357.45 136.53,351.01 " fill="none" id="usuario-verDetallesEvento" style="stroke:#181818;stroke-width:1.0;"/></g><!--link usuario to subirImagenEvento--><g id="link_usuario_subirImagenEvento"><path d="M54.09,466.32 C79.2,461.22 120.82,452.78 158.61,445.12 " fill="none" id="usuario-subirImagenEvento" style="stroke:#181818;stroke-width:1.0;"/></g><!--link usuario to subirMusicaEvento--><g id="link_usuario_subirMusicaEvento"><path d="M54.09,475.68 C79.42,480.82 121.53,489.36 159.58,497.08 " fill="none" id="usuario-subirMusicaEvento" style="stroke:#181818;stroke-width:1.0;"/></g><!--link usuario to agregarUbicacionEvento--><g id="link_usuario_agregarUbicacionEvento"><path d="M39.01,510.24 C44.18,526.47 52.56,544.22 66,556 C83.93,571.72 106.55,582.26 129.56,589.31 " fill="none" id="usuario-agregarUbicacionEvento" style="stroke:#181818;stroke-width:1.0;"/></g><!--link usuario to eliminarImagenEvento--><g id="link_usuario_eliminarImagenEvento"><path d="M33.89,510.37 C38.09,556.59 47.49,629.44 66,649 C82.02,665.92 103.43,676.84 125.82,683.8 " fill="none" id="usuario-eliminarImagenEvento" style="stroke:#181818;stroke-width:1.0;"/></g><!--link usuario to editarMusicaEvento--><g id="link_usuario_editarMusicaEvento"><path d="M30.88,510.19 C31.5,576.29 36.56,706 66,739 C82.44,757.43 105.3,768.71 129.13,775.49 " fill="none" id="usuario-editarMusicaEvento" style="stroke:#181818;stroke-width:1.0;"/></g><!--link usuario to editarUbicacionEvento--><g id="link_usuario_editarUbicacionEvento"><path d="M32.36,510.28 C35.74,597.86 45.75,803.31 66,827 C81.16,844.74 102.21,856.08 124.51,863.24 " fill="none" id="usuario-editarUbicacionEvento" style="stroke:#181818;stroke-width:1.0;"/></g><!--SRC=[ZLF9JiCm4BtdAqQvHw9bFrAe40Sa95Jk4tSQBDoayb898RwA6zV-66Cdj6wJDFKXilmM-yrC000KBIpO2hGitYtCfIPXPLKc304AMsb8PyQXbbKAQC3L-m1xAfQ58aYdQogjN7ocy1KWlrOeFh1Wy96CbPkV4kO4WLYPcEUNCoJGC7TsFxg532RE2DH0WHqkpiD9BU-JZizO-k9o9G_4g-PiG3vY-NGkxRwOmic0TCpIDz8SqQ9IP7YZOfCrwOS66d0wPwTNbqiDSidbAm5LKxLWP3pq5901eukjqNBpQpX-bzEpyyY0qoKxtHMQ2YuCYmIAqCvzEwm9inglXbvtvMkjv5AMk4tgQnOvKWEVbFPwrxl_k8Ts0JqfyCtEBChRwTUNzpkflqdj7VuQoBBs74TOnvX6Q6iE8wnxl292zzWS4bh5YGX7-Xi_igzdhI37xkeixHy0]--></g></svg>