<?xml version="1.0" encoding="us-ascii" standalone="no"?><svg xmlns="http://www.w3.org/2000/svg" xmlns:xlink="http://www.w3.org/1999/xlink" contentStyleType="text/css" height="685px" preserveAspectRatio="none" style="width:1941px;height:685px;background:#FFFFFF;" version="1.1" viewBox="0 0 1941 685" width="1941px" zoomAndPan="magnify"><defs/><g><!--cluster mobileDevice--><g id="cluster_mobileDevice"><polygon fill="none" points="496,47,506,37,1487,37,1487,658,1477,668,496,668,496,47" style="stroke:#181818;stroke-width:1.0;"/><line style="stroke:#181818;stroke-width:1.0;" x1="1477" x2="1487" y1="47" y2="37"/><line style="stroke:#181818;stroke-width:1.0;" x1="496" x2="1477" y1="47" y2="47"/><line style="stroke:#181818;stroke-width:1.0;" x1="1477" x2="1477" y1="47" y2="668"/><text fill="#000000" font-family="sans-serif" font-size="11" font-weight="bold" lengthAdjust="spacing" textLength="76" x="949.5" y="61.4189">Mobile Device</text></g><!--cluster reactNativeApp--><g id="cluster_reactNativeApp"><rect fill="#FFFFFF" height="562" rx="2.5" ry="2.5" style="stroke:#181818;stroke-width:1.0;" width="943" x="520" y="82"/><rect fill="#FFFFFF" height="10" style="stroke:#181818;stroke-width:1.0;" width="15" x="1443" y="87"/><rect fill="#FFFFFF" height="2" style="stroke:#181818;stroke-width:1.0;" width="4" x="1441" y="89"/><rect fill="#FFFFFF" height="2" style="stroke:#181818;stroke-width:1.0;" width="4" x="1441" y="93"/><text fill="#000000" font-family="sans-serif" font-size="11" font-style="italic" lengthAdjust="spacing" textLength="108" x="937.5" y="106.4189">&#171;React Native:0.76.6&#187;</text><text fill="#000000" font-family="sans-serif" font-size="11" font-weight="bold" lengthAdjust="spacing" textLength="91" x="946" y="120.2549">React Native App</text></g><!--cluster jsLayer--><g id="cluster_jsLayer"><rect fill="#FFFFFF" height="281" rx="2.5" ry="2.5" style="stroke:#181818;stroke-width:1.0;" width="166" x="552" y="158"/><rect fill="#FFFFFF" height="10" style="stroke:#181818;stroke-width:1.0;" width="15" x="698" y="163"/><rect fill="#FFFFFF" height="2" style="stroke:#181818;stroke-width:1.0;" width="4" x="696" y="165"/><rect fill="#FFFFFF" height="2" style="stroke:#181818;stroke-width:1.0;" width="4" x="696" y="169"/><text fill="#000000" font-family="sans-serif" font-size="11" font-weight="bold" lengthAdjust="spacing" textLength="90" x="590" y="182.4189">JavaScript Layer</text></g><!--cluster bridgeLayer--><g id="cluster_bridgeLayer"><rect fill="#FFFFFF" height="108" rx="2.5" ry="2.5" style="stroke:#181818;stroke-width:1.0;" width="168" x="750" y="323"/><rect fill="#FFFFFF" height="10" style="stroke:#181818;stroke-width:1.0;" width="15" x="898" y="328"/><rect fill="#FFFFFF" height="2" style="stroke:#181818;stroke-width:1.0;" width="4" x="896" y="330"/><rect fill="#FFFFFF" height="2" style="stroke:#181818;stroke-width:1.0;" width="4" x="896" y="334"/><text fill="#000000" font-family="sans-serif" font-size="11" font-weight="bold" lengthAdjust="spacing" textLength="70" x="799" y="347.4189">Bridge Layer</text></g><!--cluster nativeLayer--><g id="cluster_nativeLayer"><rect fill="#FFFFFF" height="124" rx="2.5" ry="2.5" style="stroke:#181818;stroke-width:1.0;" width="361" x="826" y="488"/><rect fill="#FFFFFF" height="10" style="stroke:#181818;stroke-width:1.0;" width="15" x="1167" y="493"/><rect fill="#FFFFFF" height="2" style="stroke:#181818;stroke-width:1.0;" width="4" x="1165" y="495"/><rect fill="#FFFFFF" height="2" style="stroke:#181818;stroke-width:1.0;" width="4" x="1165" y="499"/><text fill="#000000" font-family="sans-serif" font-size="11" font-weight="bold" lengthAdjust="spacing" textLength="67" x="973" y="512.4189">Native Layer</text></g><!--cluster runtime--><g id="cluster_runtime"><rect fill="#FFFFFF" height="124" rx="2.5" ry="2.5" style="stroke:#181818;stroke-width:1.0;" width="481" x="950" y="315"/><rect fill="#FFFFFF" height="10" style="stroke:#181818;stroke-width:1.0;" width="15" x="1411" y="320"/><rect fill="#FFFFFF" height="2" style="stroke:#181818;stroke-width:1.0;" width="4" x="1409" y="322"/><rect fill="#FFFFFF" height="2" style="stroke:#181818;stroke-width:1.0;" width="4" x="1409" y="326"/><text fill="#000000" font-family="sans-serif" font-size="11" font-weight="bold" lengthAdjust="spacing" textLength="188" x="1096.5" y="339.4189">React Native Runtime Environment</text></g><!--cluster backend--><g id="cluster_backend"><polygon fill="none" points="204,166,214,156,472,156,472,264,462,274,204,274,204,166" style="stroke:#181818;stroke-width:1.0;"/><line style="stroke:#181818;stroke-width:1.0;" x1="462" x2="472" y1="166" y2="156"/><line style="stroke:#181818;stroke-width:1.0;" x1="204" x2="462" y1="166" y2="166"/><line style="stroke:#181818;stroke-width:1.0;" x1="462" x2="462" y1="166" y2="274"/><text fill="#000000" font-family="sans-serif" font-size="11" font-weight="bold" lengthAdjust="spacing" textLength="47" x="310.5" y="180.4189">Backend</text></g><!--cluster supabase--><g id="cluster_supabase"><polygon fill="none" points="16,323,26,313,472,313,472,421,462,431,16,431,16,323" style="stroke:#181818;stroke-width:1.0;"/><line style="stroke:#181818;stroke-width:1.0;" x1="462" x2="472" y1="323" y2="313"/><line style="stroke:#181818;stroke-width:1.0;" x1="16" x2="462" y1="323" y2="323"/><line style="stroke:#181818;stroke-width:1.0;" x1="462" x2="462" y1="323" y2="431"/><text fill="#000000" font-family="sans-serif" font-size="11" font-weight="bold" lengthAdjust="spacing" textLength="54" x="213" y="337.4189">Supabase</text></g><!--cluster expoServices--><g id="cluster_expoServices"><polygon fill="none" points="1511,323,1521,313,1924,313,1924,421,1914,431,1511,431,1511,323" style="stroke:#181818;stroke-width:1.0;"/><line style="stroke:#181818;stroke-width:1.0;" x1="1914" x2="1924" y1="323" y2="313"/><line style="stroke:#181818;stroke-width:1.0;" x1="1511" x2="1914" y1="323" y2="323"/><line style="stroke:#181818;stroke-width:1.0;" x1="1914" x2="1914" y1="323" y2="431"/><text fill="#000000" font-family="sans-serif" font-size="11" font-weight="bold" lengthAdjust="spacing" textLength="173" x="1627" y="337.4189">Expo Application Services (EAS)</text></g><!--entity app--><g id="elem_app"><rect fill="#FFFFFF" height="43.8359" rx="2.5" ry="2.5" style="stroke:#181818;stroke-width:0.5;" width="60" x="601" y="214"/><rect fill="#FFFFFF" height="10" style="stroke:#181818;stroke-width:0.5;" width="15" x="641" y="219"/><rect fill="#FFFFFF" height="2" style="stroke:#181818;stroke-width:0.5;" width="4" x="639" y="221"/><rect fill="#FFFFFF" height="2" style="stroke:#181818;stroke-width:0.5;" width="4" x="639" y="225"/><text fill="#000000" font-family="sans-serif" font-size="11" lengthAdjust="spacing" textLength="20" x="616" y="245.4189">App</text></g><!--entity nodeModules--><g id="elem_nodeModules"><rect fill="#FFFFFF" height="43.8359" rx="2.5" ry="2.5" style="stroke:#181818;stroke-width:0.5;" width="110" x="576" y="371"/><rect fill="#FFFFFF" height="10" style="stroke:#181818;stroke-width:0.5;" width="15" x="666" y="376"/><rect fill="#FFFFFF" height="2" style="stroke:#181818;stroke-width:0.5;" width="4" x="664" y="378"/><rect fill="#FFFFFF" height="2" style="stroke:#181818;stroke-width:0.5;" width="4" x="664" y="382"/><text fill="#000000" font-family="sans-serif" font-size="11" lengthAdjust="spacing" textLength="70" x="591" y="402.4189">node_modules</text></g><!--entity bridge--><g id="elem_bridge"><rect fill="#FFFFFF" height="43.8359" rx="2.5" ry="2.5" style="stroke:#181818;stroke-width:0.5;" width="135" x="766.5" y="371"/><rect fill="#FFFFFF" height="10" style="stroke:#181818;stroke-width:0.5;" width="15" x="881.5" y="376"/><rect fill="#FFFFFF" height="2" style="stroke:#181818;stroke-width:0.5;" width="4" x="879.5" y="378"/><rect fill="#FFFFFF" height="2" style="stroke:#181818;stroke-width:0.5;" width="4" x="879.5" y="382"/><text fill="#000000" font-family="sans-serif" font-size="11" lengthAdjust="spacing" textLength="95" x="781.5" y="402.4189">React Native Bridge</text></g><!--entity nativeModules--><g id="elem_nativeModules"><rect fill="#FFFFFF" height="43.8359" rx="2.5" ry="2.5" style="stroke:#181818;stroke-width:0.5;" width="113" x="1049.5" y="544"/><rect fill="#FFFFFF" height="10" style="stroke:#181818;stroke-width:0.5;" width="15" x="1142.5" y="549"/><rect fill="#FFFFFF" height="2" style="stroke:#181818;stroke-width:0.5;" width="4" x="1140.5" y="551"/><rect fill="#FFFFFF" height="2" style="stroke:#181818;stroke-width:0.5;" width="4" x="1140.5" y="555"/><text fill="#000000" font-family="sans-serif" font-size="11" lengthAdjust="spacing" textLength="73" x="1064.5" y="575.4189">Native Modules</text></g><!--entity nativeComponents--><g id="elem_nativeComponents"><rect fill="#FFFFFF" height="43.8359" rx="2.5" ry="2.5" style="stroke:#181818;stroke-width:0.5;" width="145" x="869.5" y="544"/><rect fill="#FFFFFF" height="10" style="stroke:#181818;stroke-width:0.5;" width="15" x="994.5" y="549"/><rect fill="#FFFFFF" height="2" style="stroke:#181818;stroke-width:0.5;" width="4" x="992.5" y="551"/><rect fill="#FFFFFF" height="2" style="stroke:#181818;stroke-width:0.5;" width="4" x="992.5" y="555"/><text fill="#000000" font-family="sans-serif" font-size="11" lengthAdjust="spacing" textLength="105" x="884.5" y="575.4189">Native UI Components</text></g><!--entity expoRuntime--><g id="elem_expoRuntime"><rect fill="#FFFFFF" height="43.8359" rx="2.5" ry="2.5" style="stroke:#181818;stroke-width:0.5;" width="105" x="1301.5" y="371"/><rect fill="#FFFFFF" height="10" style="stroke:#181818;stroke-width:0.5;" width="15" x="1386.5" y="376"/><rect fill="#FFFFFF" height="2" style="stroke:#181818;stroke-width:0.5;" width="4" x="1384.5" y="378"/><rect fill="#FFFFFF" height="2" style="stroke:#181818;stroke-width:0.5;" width="4" x="1384.5" y="382"/><text fill="#000000" font-family="sans-serif" font-size="11" lengthAdjust="spacing" textLength="65" x="1316.5" y="402.4189">Expo Runtime</text></g><!--entity jsEngine--><g id="elem_jsEngine"><rect fill="#FFFFFF" height="43.8359" rx="2.5" ry="2.5" style="stroke:#181818;stroke-width:0.5;" width="87" x="1179.5" y="371"/><rect fill="#FFFFFF" height="10" style="stroke:#181818;stroke-width:0.5;" width="15" x="1246.5" y="376"/><rect fill="#FFFFFF" height="2" style="stroke:#181818;stroke-width:0.5;" width="4" x="1244.5" y="378"/><rect fill="#FFFFFF" height="2" style="stroke:#181818;stroke-width:0.5;" width="4" x="1244.5" y="382"/><text fill="#000000" font-family="sans-serif" font-size="11" lengthAdjust="spacing" textLength="47" x="1194.5" y="402.4189">JS Engine</text></g><!--entity moduleBindings--><g id="elem_moduleBindings"><rect fill="#FFFFFF" height="43.8359" rx="2.5" ry="2.5" style="stroke:#181818;stroke-width:0.5;" width="151" x="993.5" y="371"/><rect fill="#FFFFFF" height="10" style="stroke:#181818;stroke-width:0.5;" width="15" x="1124.5" y="376"/><rect fill="#FFFFFF" height="2" style="stroke:#181818;stroke-width:0.5;" width="4" x="1122.5" y="378"/><rect fill="#FFFFFF" height="2" style="stroke:#181818;stroke-width:0.5;" width="4" x="1122.5" y="382"/><text fill="#000000" font-family="sans-serif" font-size="11" lengthAdjust="spacing" textLength="111" x="1008.5" y="402.4189">Native Module Bindings</text></g><!--entity expressAPI--><g id="elem_expressAPI"><rect fill="#FFFFFF" height="43.8359" rx="2.5" ry="2.5" style="stroke:#181818;stroke-width:0.5;" width="99" x="356.5" y="214"/><rect fill="#FFFFFF" height="10" style="stroke:#181818;stroke-width:0.5;" width="15" x="435.5" y="219"/><rect fill="#FFFFFF" height="2" style="stroke:#181818;stroke-width:0.5;" width="4" x="433.5" y="221"/><rect fill="#FFFFFF" height="2" style="stroke:#181818;stroke-width:0.5;" width="4" x="433.5" y="225"/><text fill="#000000" font-family="sans-serif" font-size="11" lengthAdjust="spacing" textLength="59" x="371.5" y="245.4189">Express API</text></g><!--entity prismaClient--><g id="elem_prismaClient"><rect fill="#FFFFFF" height="43.8359" rx="2.5" ry="2.5" style="stroke:#181818;stroke-width:0.5;" width="101" x="220.5" y="214"/><rect fill="#FFFFFF" height="10" style="stroke:#181818;stroke-width:0.5;" width="15" x="301.5" y="219"/><rect fill="#FFFFFF" height="2" style="stroke:#181818;stroke-width:0.5;" width="4" x="299.5" y="221"/><rect fill="#FFFFFF" height="2" style="stroke:#181818;stroke-width:0.5;" width="4" x="299.5" y="225"/><text fill="#000000" font-family="sans-serif" font-size="11" lengthAdjust="spacing" textLength="61" x="235.5" y="245.4189">Prisma Client</text></g><!--entity auth--><g id="elem_auth"><rect fill="#FFFFFF" height="43.8359" rx="2.5" ry="2.5" style="stroke:#181818;stroke-width:0.5;" width="109" x="214.5" y="371"/><rect fill="#FFFFFF" height="10" style="stroke:#181818;stroke-width:0.5;" width="15" x="303.5" y="376"/><rect fill="#FFFFFF" height="2" style="stroke:#181818;stroke-width:0.5;" width="4" x="301.5" y="378"/><rect fill="#FFFFFF" height="2" style="stroke:#181818;stroke-width:0.5;" width="4" x="301.5" y="382"/><text fill="#000000" font-family="sans-serif" font-size="11" lengthAdjust="spacing" textLength="69" x="229.5" y="402.4189">Authentication</text></g><!--entity fileStorage--><g id="elem_fileStorage"><rect fill="#FFFFFF" height="43.8359" rx="2.5" ry="2.5" style="stroke:#181818;stroke-width:0.5;" width="97" x="358.5" y="371"/><rect fill="#FFFFFF" height="10" style="stroke:#181818;stroke-width:0.5;" width="15" x="435.5" y="376"/><rect fill="#FFFFFF" height="2" style="stroke:#181818;stroke-width:0.5;" width="4" x="433.5" y="378"/><rect fill="#FFFFFF" height="2" style="stroke:#181818;stroke-width:0.5;" width="4" x="433.5" y="382"/><text fill="#000000" font-family="sans-serif" font-size="11" lengthAdjust="spacing" textLength="57" x="373.5" y="402.4189">File Storage</text></g><!--entity postgresDB--><g id="elem_postgresDB"><rect fill="#FFFFFF" height="43.8359" rx="2.5" ry="2.5" style="stroke:#181818;stroke-width:0.5;" width="147" x="32.5" y="371"/><rect fill="#FFFFFF" height="10" style="stroke:#181818;stroke-width:0.5;" width="15" x="159.5" y="376"/><rect fill="#FFFFFF" height="2" style="stroke:#181818;stroke-width:0.5;" width="4" x="157.5" y="378"/><rect fill="#FFFFFF" height="2" style="stroke:#181818;stroke-width:0.5;" width="4" x="157.5" y="382"/><text fill="#000000" font-family="sans-serif" font-size="11" lengthAdjust="spacing" textLength="107" x="47.5" y="402.4189">PostgreSQL Database</text></g><!--entity expoPushNotifications--><g id="elem_expoPushNotifications"><rect fill="#FFFFFF" height="43.8359" rx="2.5" ry="2.5" style="stroke:#181818;stroke-width:0.5;" width="153" x="1527.5" y="371"/><rect fill="#FFFFFF" height="10" style="stroke:#181818;stroke-width:0.5;" width="15" x="1660.5" y="376"/><rect fill="#FFFFFF" height="2" style="stroke:#181818;stroke-width:0.5;" width="4" x="1658.5" y="378"/><rect fill="#FFFFFF" height="2" style="stroke:#181818;stroke-width:0.5;" width="4" x="1658.5" y="382"/><text fill="#000000" font-family="sans-serif" font-size="11" lengthAdjust="spacing" textLength="113" x="1542.5" y="402.4189">Expo Push Notifications</text></g><!--entity expoApplicationServicesBuild--><g id="elem_expoApplicationServicesBuild"><rect fill="#FFFFFF" height="43.8359" rx="2.5" ry="2.5" style="stroke:#181818;stroke-width:0.5;" width="192" x="1716" y="371"/><rect fill="#FFFFFF" height="10" style="stroke:#181818;stroke-width:0.5;" width="15" x="1888" y="376"/><rect fill="#FFFFFF" height="2" style="stroke:#181818;stroke-width:0.5;" width="4" x="1886" y="378"/><rect fill="#FFFFFF" height="2" style="stroke:#181818;stroke-width:0.5;" width="4" x="1886" y="382"/><text fill="#000000" font-family="sans-serif" font-size="11" lengthAdjust="spacing" textLength="152" x="1731" y="402.4189">Expo Application Services Build</text></g><!--link jsLayer to bridge--><g id="link_jsLayer_bridge"><path d="M718.1691,247.2103 C719.708,249.134 721.4348,251.2927 723.3239,253.6542 C730.8803,263.1003 741.0331,275.7919 752.1363,289.6713 C774.3425,317.43 796.6018,345.2548 813.2418,366.0548 " fill="none" id="jsLayer-to-bridge" style="stroke:#181818;stroke-width:1.0;"/><polygon fill="#181818" points="816.99,370.74,814.4912,361.2134,813.8665,366.8357,808.2443,366.211,816.99,370.74" style="stroke:#181818;stroke-width:1.0;"/></g><!--link bridge to nativeLayer--><g id="link_bridge_nativeLayer"><path d="M834,415.31 C834,426.59 834,441.3837 834,457.2786 C834,465.226 834,473.4487 834,481.6451 C834,483.6942 834,479.7416 834,481.7827 " fill="none" id="bridge-to-nativeLayer" style="stroke:#181818;stroke-width:1.0;"/><polygon fill="#181818" points="834,487.7827,838,478.7827,834,482.7827,830,478.7827,834,487.7827" style="stroke:#181818;stroke-width:1.0;"/></g><!--link jsLayer to runtime--><g id="link_jsLayer_runtime"><path d="M718.1095,237.0789 C718.3826,237.0853 718.662,237.0923 718.9476,237.0997 C719.5188,237.1146 720.1149,237.1315 720.7352,237.1506 C721.9757,237.1888 723.3127,237.236 724.7406,237.2941 C727.5964,237.4104 730.8153,237.5704 734.3508,237.7902 C748.4928,238.6691 767.7006,240.5031 788.9962,244.3112 C831.5875,251.9275 882.53,267.44 918,299 C926.2725,306.36 932.8956,315.73 938.1803,325.6748 C940.8227,330.6473 943.1304,335.7634 945.1424,340.8438 C946.1484,343.3841 947.0804,345.9154 947.9434,348.4153 C948.3749,349.6653 948.7891,350.9075 949.1867,352.139 C949.3855,352.7547 949.5801,353.3678 949.7706,353.9779 C949.8182,354.1304 948.0905,348.5514 948.1376,348.7035 " fill="none" id="jsLayer-to-runtime" style="stroke:#181818;stroke-width:1.0;"/><polygon fill="#181818" points="949.9127,354.4349,951.0709,344.6544,948.4334,349.6587,943.4291,347.0212,949.9127,354.4349" style="stroke:#181818;stroke-width:1.0;"/></g><!--link app to nodeModules--><g id="link_app_nodeModules"><path d="M631,258.23 C631,287.74 631,334.89 631,364.53 " fill="none" id="app-to-nodeModules" style="stroke:#181818;stroke-width:1.0;"/><polygon fill="#181818" points="631,370.53,635,361.53,631,365.53,627,361.53,631,370.53" style="stroke:#181818;stroke-width:1.0;"/></g><!--link moduleBindings to nativeModules--><g id="link_moduleBindings_nativeModules"><path d="M1073.61,415.31 C1080.74,448.26 1093.0802,505.3059 1100.1802,538.0959 " fill="none" id="moduleBindings-to-nativeModules" style="stroke:#181818;stroke-width:1.0;"/><polygon fill="#181818" points="1101.45,543.96,1103.4548,534.3173,1100.3919,539.0732,1095.636,536.0103,1101.45,543.96" style="stroke:#181818;stroke-width:1.0;"/></g><!--link nativeComponents to runtime--><g id="link_nativeComponents_runtime"><path d="M943.97,543.96 C946.065,521.565 949.475,485.1125 952.4088,453.755 C952.7755,449.8353 953.1347,445.9952 953.4831,442.2722 C953.5702,441.3414 953.0976,446.3919 953.1833,445.4763 " fill="none" id="nativeComponents-to-runtime" style="stroke:#181818;stroke-width:1.0;"/><polygon fill="#181818" points="953.7422,439.5024,948.9212,448.0906,953.2764,444.4807,956.8864,448.8359,953.7422,439.5024" style="stroke:#181818;stroke-width:1.0;"/></g><!--link expressAPI to jsLayer--><g id="link_expressAPI_jsLayer"><path d="M421.1114,208.6362 C443.3414,170.4962 491.73,98.91 560,69 C617.81,43.67 656.32,25.45 702,69 C727.63,93.435 730.6475,132.5075 726.785,166.7175 C725.8194,175.27 724.4238,183.5186 722.8439,191.1586 C722.054,194.9786 721.2181,198.6464 720.3668,202.1241 C719.9412,203.8629 719.5117,205.5541 719.0823,207.1931 C718.8676,208.0125 718.6528,208.8189 718.4386,209.6116 C718.3315,210.008 719.8116,204.6146 719.7048,205.0041 " fill="none" id="expressAPI-jsLayer" style="stroke:#000000;stroke-width:1.0;stroke-dasharray:7.0,7.0;"/><polygon fill="#000000" points="418.09,213.82,426.0779,208.0586,420.6078,209.5002,419.1662,204.0301,418.09,213.82" style="stroke:#000000;stroke-width:1.0;"/><polygon fill="#000000" points="718.1177,210.7903,724.3558,203.169,719.4402,205.9684,716.6408,201.0529,718.1177,210.7903" style="stroke:#000000;stroke-width:1.0;"/><text fill="#000000" font-family="sans-serif" font-size="11" lengthAdjust="spacing" textLength="25" x="570.5" y="18.4189">HTTP</text></g><!--link postgresDB to prismaClient--><g id="link_postgresDB_prismaClient"><path d="M129.7764,366.3553 C147.8364,347.1153 171.47,322.63 197,299 C212.25,284.88 225.4411,273.6831 239.7811,261.9831 " fill="none" id="postgresDB-prismaClient" style="stroke:#000000;stroke-width:1.0;stroke-dasharray:7.0,7.0;"/><polygon fill="#000000" points="125.67,370.73,134.746,366.9056,129.092,367.0844,128.9131,361.4304,125.67,370.73" style="stroke:#000000;stroke-width:1.0;"/><polygon fill="#000000" points="244.43,258.19,234.9279,260.7803,240.5559,261.3509,239.9853,266.9789,244.43,258.19" style="stroke:#000000;stroke-width:1.0;"/></g><!--link jsLayer to fileStorage--><g id="link_jsLayer_fileStorage"><path d="M545.9476,304.2352 C542.9421,305.3966 544.9754,304.6828 541.9771,305.9543 C535.9805,308.4971 530.0084,311.2464 524.1019,314.1472 C512.2887,319.9488 500.7375,326.3563 489.775,332.93 C467.85,346.0775 453.0784,356.2879 438.4784,367.2479 " fill="none" id="jsLayer-fileStorage" style="stroke:#000000;stroke-width:1.0;stroke-dasharray:7.0,7.0;"/><polygon fill="#000000" points="551.549,302.0846,541.7132,301.5763,546.8812,303.8768,544.5807,309.0447,551.549,302.0846" style="stroke:#000000;stroke-width:1.0;"/><polygon fill="#000000" points="433.68,370.85,443.279,368.6458,437.6787,367.8482,438.4762,362.2479,433.68,370.85" style="stroke:#000000;stroke-width:1.0;"/></g><!--link jsLayer to auth--><g id="link_jsLayer_auth"><path d="M544.6749,291.614 C542.0064,291.663 541.3327,291.6727 538.6517,291.7201 C533.2898,291.8148 527.9074,291.9065 522.5238,291.9963 C436.385,293.4325 349.905,294.37 341,299 C311.11,314.54 292.5606,343.3323 281.2106,365.6423 " fill="none" id="jsLayer-auth" style="stroke:#000000;stroke-width:1.0;stroke-dasharray:7.0,7.0;"/><polygon fill="#000000" points="550.6738,291.5016,541.6005,287.6709,545.6747,291.5953,541.7504,295.6695,550.6738,291.5016" style="stroke:#000000;stroke-width:1.0;"/><polygon fill="#000000" points="278.49,370.99,286.1361,364.7821,280.7572,366.5336,279.0058,361.1547,278.49,370.99" style="stroke:#000000;stroke-width:1.0;"/></g><!--link prismaClient to expressAPI--><g id="link_prismaClient_expressAPI"><path d="M327.62,236 C339.16,236 338.7,236 350.23,236 " fill="none" id="prismaClient-expressAPI" style="stroke:#000000;stroke-width:1.0;stroke-dasharray:7.0,7.0;"/><polygon fill="#000000" points="321.62,236,330.62,240,326.62,236,330.62,232,321.62,236" style="stroke:#000000;stroke-width:1.0;"/><polygon fill="#000000" points="356.23,236,347.23,232,351.23,236,347.23,240,356.23,236" style="stroke:#000000;stroke-width:1.0;"/></g><!--link jsLayer to expoPushNotifications--><g id="link_jsLayer_expoPushNotifications"><path d="M724.7359,237.5014 C725.3645,237.5233 720.9469,237.3699 721.6333,237.3941 C723.0062,237.4425 724.4939,237.4954 726.0928,237.5528 C729.2905,237.6676 732.933,237.8005 736.9914,237.9517 C753.225,238.5563 776.113,239.4535 803.8098,240.6589 C859.2034,243.0697 933.8319,246.7131 1012.9288,251.7138 C1171.1225,261.715 1347.19,277.145 1423,299 C1478.67,315.05 1532.2305,345.4906 1567.1705,367.6106 " fill="none" id="jsLayer-expoPushNotifications" style="stroke:#000000;stroke-width:1.0;stroke-dasharray:7.0,7.0;"/><polygon fill="#000000" points="718.7396,237.2927,727.595,241.6033,723.7365,237.4666,727.8732,233.6081,718.7396,237.2927" style="stroke:#000000;stroke-width:1.0;"/><polygon fill="#000000" points="1572.24,370.82,1566.7754,362.6262,1568.0154,368.1455,1562.4962,369.3855,1572.24,370.82" style="stroke:#000000;stroke-width:1.0;"/></g><!--link jsLayer to expoApplicationServicesBuild--><g id="link_jsLayer_expoApplicationServicesBuild"><path d="M724.6661,237.3737 C725.4685,237.3946 721.4882,237.2913 722.3837,237.3148 C729.5484,237.5032 739.6704,237.7747 752.352,238.1284 C777.715,238.8359 813.3159,239.8725 855.9712,241.2313 C941.2819,243.9488 1054.81,247.955 1171.0875,253.195 C1403.6425,263.675 1647.195,279.09 1698,299 C1737.24,314.38 1769.1793,344.1622 1789.8293,366.5222 " fill="none" id="jsLayer-expoApplicationServicesBuild" style="stroke:#000000;stroke-width:1.0;stroke-dasharray:7.0,7.0;"/><polygon fill="#000000" points="718.6682,237.2177,727.5611,241.4503,723.6665,237.3477,727.7691,233.453,718.6682,237.2177" style="stroke:#000000;stroke-width:1.0;"/><polygon fill="#000000" points="1793.9,370.93,1790.7324,361.6044,1790.5077,367.2568,1784.8553,367.0321,1793.9,370.93" style="stroke:#000000;stroke-width:1.0;"/></g><!--SRC=[ZLNBRjim4BphAnRfeUqXQd99WK0Lu5TG1t7WHkwfA0fQecqs4YcGb9kcoB-NBqcqBCNnmH27CxFBtHKb7Waj4KS5J5XHCegf7AFqSSjPHRC9onc7FpiYSI0QOeOtgChb2Z_9KKwsj50QIDKVviUi6qPbGfunN5u60MKPXhC5MvCSmnJlIOhF00ae3681-1U0-gLrDd3sW54guHv9iiSmAaiZuHgqc88WYdpMzKNu-IgyYcDd1Xt7MxH7ISf9AU4E_SNSEFuMvjcN7Ahgq4Z56-Be4_ugM5RbM1Yo1XPstMXUcgUWnsBCIRR5Nc9h0vn8xg18ri8Jlp6qaxUXgG5EX7QgXNzg0tNFtQ_xFcz7prUte9TzSFBi3nMLfC0metl2cHbEEp0E7pp6xAbajTeei09gjo7HRQ82RGd5ReJiuasLWZ6X6Q5RuLu1ZTNGQ_rw3tFzgb6KAsjASIe9ewsY7kFpyxZRVBiqErvZUvMkMisUddcZwnddmzGz-ownszUZIAg_B_KjeMyXJ3CxnFRv-6fGFUDO21WjvtNBz5ejkymb9w90CCb9FH2bGIpGXasg4gsHiFqKRd4SU5J9dNeWATBLjzU2Whgq6ttH9P9nv5x7ZGBS-YX39kIMu-JR7KoHR9CeBIwcupPBCwlgFifT0f1WhYzF0Hzce-HZCxuDt5Sv1ijAxE2UIR9nFg9Hwgs3dLw3tXJ65ScpniYZr0n3q8Uf9ouAmn_lBiplPnw6iTT7k8Pem_G7Hd-BlbXI_7MrMaQVD1u7VX-LKsDKAH-lTcsiXf4fXj-G0OffRE2b5FdPneU3DE3HNz9No8Db-my0]--></g></svg>