<?xml version="1.0" encoding="us-ascii" standalone="no"?><svg xmlns="http://www.w3.org/2000/svg" xmlns:xlink="http://www.w3.org/1999/xlink" contentStyleType="text/css" height="850px" preserveAspectRatio="none" style="width:1858px;height:850px;background:#FFFFFF;" version="1.1" viewBox="0 0 1858 850" width="1858px" zoomAndPan="magnify"><defs/><g><!--cluster mobileDevice--><g id="cluster_mobileDevice"><polygon fill="none" points="342,47,352,37,1333,37,1333,672,1323,682,342,682,342,47" style="stroke:#181818;stroke-width:1.0;"/><line style="stroke:#181818;stroke-width:1.0;" x1="1323" x2="1333" y1="47" y2="37"/><line style="stroke:#181818;stroke-width:1.0;" x1="342" x2="1323" y1="47" y2="47"/><line style="stroke:#181818;stroke-width:1.0;" x1="1323" x2="1323" y1="47" y2="682"/><text fill="#000000" font-family="sans-serif" font-size="11" font-weight="bold" lengthAdjust="spacing" textLength="76" x="795.5" y="61.4189">Mobile Device</text></g><!--cluster reactNativeApp--><g id="cluster_reactNativeApp"><rect fill="#FFFFFF" height="576" rx="2.5" ry="2.5" style="stroke:#181818;stroke-width:1.0;" width="943" x="366" y="82"/><rect fill="#FFFFFF" height="10" style="stroke:#181818;stroke-width:1.0;" width="15" x="1289" y="87"/><rect fill="#FFFFFF" height="2" style="stroke:#181818;stroke-width:1.0;" width="4" x="1287" y="89"/><rect fill="#FFFFFF" height="2" style="stroke:#181818;stroke-width:1.0;" width="4" x="1287" y="93"/><text fill="#000000" font-family="sans-serif" font-size="11" font-style="italic" lengthAdjust="spacing" textLength="108" x="783.5" y="106.4189">&#171;React Native:0.76.6&#187;</text><text fill="#000000" font-family="sans-serif" font-size="11" font-weight="bold" lengthAdjust="spacing" textLength="91" x="792" y="120.2549">React Native App</text></g><!--cluster jsLayer--><g id="cluster_jsLayer"><rect fill="#FFFFFF" height="281" rx="2.5" ry="2.5" style="stroke:#181818;stroke-width:1.0;" width="166" x="398" y="158"/><rect fill="#FFFFFF" height="10" style="stroke:#181818;stroke-width:1.0;" width="15" x="544" y="163"/><rect fill="#FFFFFF" height="2" style="stroke:#181818;stroke-width:1.0;" width="4" x="542" y="165"/><rect fill="#FFFFFF" height="2" style="stroke:#181818;stroke-width:1.0;" width="4" x="542" y="169"/><text fill="#000000" font-family="sans-serif" font-size="11" font-weight="bold" lengthAdjust="spacing" textLength="90" x="436" y="182.4189">JavaScript Layer</text></g><!--cluster bridgeLayer--><g id="cluster_bridgeLayer"><rect fill="#FFFFFF" height="108" rx="2.5" ry="2.5" style="stroke:#181818;stroke-width:1.0;" width="168" x="596" y="323"/><rect fill="#FFFFFF" height="10" style="stroke:#181818;stroke-width:1.0;" width="15" x="744" y="328"/><rect fill="#FFFFFF" height="2" style="stroke:#181818;stroke-width:1.0;" width="4" x="742" y="330"/><rect fill="#FFFFFF" height="2" style="stroke:#181818;stroke-width:1.0;" width="4" x="742" y="334"/><text fill="#000000" font-family="sans-serif" font-size="11" font-weight="bold" lengthAdjust="spacing" textLength="70" x="645" y="347.4189">Bridge Layer</text></g><!--cluster nativeLayer--><g id="cluster_nativeLayer"><rect fill="#FFFFFF" height="124" rx="2.5" ry="2.5" style="stroke:#181818;stroke-width:1.0;" width="361" x="672" y="502"/><rect fill="#FFFFFF" height="10" style="stroke:#181818;stroke-width:1.0;" width="15" x="1013" y="507"/><rect fill="#FFFFFF" height="2" style="stroke:#181818;stroke-width:1.0;" width="4" x="1011" y="509"/><rect fill="#FFFFFF" height="2" style="stroke:#181818;stroke-width:1.0;" width="4" x="1011" y="513"/><text fill="#000000" font-family="sans-serif" font-size="11" font-weight="bold" lengthAdjust="spacing" textLength="67" x="819" y="526.4189">Native Layer</text></g><!--cluster runtime--><g id="cluster_runtime"><rect fill="#FFFFFF" height="124" rx="2.5" ry="2.5" style="stroke:#181818;stroke-width:1.0;" width="481" x="796" y="315"/><rect fill="#FFFFFF" height="10" style="stroke:#181818;stroke-width:1.0;" width="15" x="1257" y="320"/><rect fill="#FFFFFF" height="2" style="stroke:#181818;stroke-width:1.0;" width="4" x="1255" y="322"/><rect fill="#FFFFFF" height="2" style="stroke:#181818;stroke-width:1.0;" width="4" x="1255" y="326"/><text fill="#000000" font-family="sans-serif" font-size="11" font-weight="bold" lengthAdjust="spacing" textLength="188" x="942.5" y="339.4189">React Native Runtime Environment</text></g><!--cluster backend--><g id="cluster_backend"><polygon fill="none" points="16,166,26,156,318,156,318,264,308,274,16,274,16,166" style="stroke:#181818;stroke-width:1.0;"/><line style="stroke:#181818;stroke-width:1.0;" x1="308" x2="318" y1="166" y2="156"/><line style="stroke:#181818;stroke-width:1.0;" x1="16" x2="308" y1="166" y2="166"/><line style="stroke:#181818;stroke-width:1.0;" x1="308" x2="308" y1="166" y2="274"/><text fill="#000000" font-family="sans-serif" font-size="11" font-weight="bold" lengthAdjust="spacing" textLength="47" x="139.5" y="180.4189">Backend</text></g><!--cluster supabase--><g id="cluster_supabase"><polygon fill="none" points="1000,725,1010,715,1456,715,1456,823,1446,833,1000,833,1000,725" style="stroke:#181818;stroke-width:1.0;"/><line style="stroke:#181818;stroke-width:1.0;" x1="1446" x2="1456" y1="725" y2="715"/><line style="stroke:#181818;stroke-width:1.0;" x1="1000" x2="1446" y1="725" y2="725"/><line style="stroke:#181818;stroke-width:1.0;" x1="1446" x2="1446" y1="725" y2="833"/><text fill="#000000" font-family="sans-serif" font-size="11" font-weight="bold" lengthAdjust="spacing" textLength="54" x="1197" y="739.4189">Supabase</text></g><!--cluster expoServices--><g id="cluster_expoServices"><polygon fill="none" points="1428,323,1438,313,1841,313,1841,421,1831,431,1428,431,1428,323" style="stroke:#181818;stroke-width:1.0;"/><line style="stroke:#181818;stroke-width:1.0;" x1="1831" x2="1841" y1="323" y2="313"/><line style="stroke:#181818;stroke-width:1.0;" x1="1428" x2="1831" y1="323" y2="323"/><line style="stroke:#181818;stroke-width:1.0;" x1="1831" x2="1831" y1="323" y2="431"/><text fill="#000000" font-family="sans-serif" font-size="11" font-weight="bold" lengthAdjust="spacing" textLength="173" x="1544" y="337.4189">Expo Application Services (EAS)</text></g><!--entity app--><g id="elem_app"><rect fill="#FFFFFF" height="43.8359" rx="2.5" ry="2.5" style="stroke:#181818;stroke-width:0.5;" width="60" x="447" y="214"/><rect fill="#FFFFFF" height="10" style="stroke:#181818;stroke-width:0.5;" width="15" x="487" y="219"/><rect fill="#FFFFFF" height="2" style="stroke:#181818;stroke-width:0.5;" width="4" x="485" y="221"/><rect fill="#FFFFFF" height="2" style="stroke:#181818;stroke-width:0.5;" width="4" x="485" y="225"/><text fill="#000000" font-family="sans-serif" font-size="11" lengthAdjust="spacing" textLength="20" x="462" y="245.4189">App</text></g><!--entity nodeModules--><g id="elem_nodeModules"><rect fill="#FFFFFF" height="43.8359" rx="2.5" ry="2.5" style="stroke:#181818;stroke-width:0.5;" width="110" x="422" y="371"/><rect fill="#FFFFFF" height="10" style="stroke:#181818;stroke-width:0.5;" width="15" x="512" y="376"/><rect fill="#FFFFFF" height="2" style="stroke:#181818;stroke-width:0.5;" width="4" x="510" y="378"/><rect fill="#FFFFFF" height="2" style="stroke:#181818;stroke-width:0.5;" width="4" x="510" y="382"/><text fill="#000000" font-family="sans-serif" font-size="11" lengthAdjust="spacing" textLength="70" x="437" y="402.4189">node_modules</text></g><!--entity bridge--><g id="elem_bridge"><rect fill="#FFFFFF" height="43.8359" rx="2.5" ry="2.5" style="stroke:#181818;stroke-width:0.5;" width="135" x="612.5" y="371"/><rect fill="#FFFFFF" height="10" style="stroke:#181818;stroke-width:0.5;" width="15" x="727.5" y="376"/><rect fill="#FFFFFF" height="2" style="stroke:#181818;stroke-width:0.5;" width="4" x="725.5" y="378"/><rect fill="#FFFFFF" height="2" style="stroke:#181818;stroke-width:0.5;" width="4" x="725.5" y="382"/><text fill="#000000" font-family="sans-serif" font-size="11" lengthAdjust="spacing" textLength="95" x="627.5" y="402.4189">React Native Bridge</text></g><!--entity nativeModules--><g id="elem_nativeModules"><rect fill="#FFFFFF" height="43.8359" rx="2.5" ry="2.5" style="stroke:#181818;stroke-width:0.5;" width="113" x="895.5" y="558"/><rect fill="#FFFFFF" height="10" style="stroke:#181818;stroke-width:0.5;" width="15" x="988.5" y="563"/><rect fill="#FFFFFF" height="2" style="stroke:#181818;stroke-width:0.5;" width="4" x="986.5" y="565"/><rect fill="#FFFFFF" height="2" style="stroke:#181818;stroke-width:0.5;" width="4" x="986.5" y="569"/><text fill="#000000" font-family="sans-serif" font-size="11" lengthAdjust="spacing" textLength="73" x="910.5" y="589.4189">Native Modules</text></g><!--entity nativeComponents--><g id="elem_nativeComponents"><rect fill="#FFFFFF" height="43.8359" rx="2.5" ry="2.5" style="stroke:#181818;stroke-width:0.5;" width="145" x="715.5" y="558"/><rect fill="#FFFFFF" height="10" style="stroke:#181818;stroke-width:0.5;" width="15" x="840.5" y="563"/><rect fill="#FFFFFF" height="2" style="stroke:#181818;stroke-width:0.5;" width="4" x="838.5" y="565"/><rect fill="#FFFFFF" height="2" style="stroke:#181818;stroke-width:0.5;" width="4" x="838.5" y="569"/><text fill="#000000" font-family="sans-serif" font-size="11" lengthAdjust="spacing" textLength="105" x="730.5" y="589.4189">Native UI Components</text></g><!--entity expoRuntime--><g id="elem_expoRuntime"><rect fill="#FFFFFF" height="43.8359" rx="2.5" ry="2.5" style="stroke:#181818;stroke-width:0.5;" width="105" x="1147.5" y="371"/><rect fill="#FFFFFF" height="10" style="stroke:#181818;stroke-width:0.5;" width="15" x="1232.5" y="376"/><rect fill="#FFFFFF" height="2" style="stroke:#181818;stroke-width:0.5;" width="4" x="1230.5" y="378"/><rect fill="#FFFFFF" height="2" style="stroke:#181818;stroke-width:0.5;" width="4" x="1230.5" y="382"/><text fill="#000000" font-family="sans-serif" font-size="11" lengthAdjust="spacing" textLength="65" x="1162.5" y="402.4189">Expo Runtime</text></g><!--entity jsEngine--><g id="elem_jsEngine"><rect fill="#FFFFFF" height="43.8359" rx="2.5" ry="2.5" style="stroke:#181818;stroke-width:0.5;" width="87" x="1025.5" y="371"/><rect fill="#FFFFFF" height="10" style="stroke:#181818;stroke-width:0.5;" width="15" x="1092.5" y="376"/><rect fill="#FFFFFF" height="2" style="stroke:#181818;stroke-width:0.5;" width="4" x="1090.5" y="378"/><rect fill="#FFFFFF" height="2" style="stroke:#181818;stroke-width:0.5;" width="4" x="1090.5" y="382"/><text fill="#000000" font-family="sans-serif" font-size="11" lengthAdjust="spacing" textLength="47" x="1040.5" y="402.4189">JS Engine</text></g><!--entity moduleBindings--><g id="elem_moduleBindings"><rect fill="#FFFFFF" height="43.8359" rx="2.5" ry="2.5" style="stroke:#181818;stroke-width:0.5;" width="151" x="839.5" y="371"/><rect fill="#FFFFFF" height="10" style="stroke:#181818;stroke-width:0.5;" width="15" x="970.5" y="376"/><rect fill="#FFFFFF" height="2" style="stroke:#181818;stroke-width:0.5;" width="4" x="968.5" y="378"/><rect fill="#FFFFFF" height="2" style="stroke:#181818;stroke-width:0.5;" width="4" x="968.5" y="382"/><text fill="#000000" font-family="sans-serif" font-size="11" lengthAdjust="spacing" textLength="111" x="854.5" y="402.4189">Native Module Bindings</text></g><!--entity expressAPI--><g id="elem_expressAPI"><rect fill="#FFFFFF" height="43.8359" rx="2.5" ry="2.5" style="stroke:#181818;stroke-width:0.5;" width="99" x="202.5" y="214"/><rect fill="#FFFFFF" height="10" style="stroke:#181818;stroke-width:0.5;" width="15" x="281.5" y="219"/><rect fill="#FFFFFF" height="2" style="stroke:#181818;stroke-width:0.5;" width="4" x="279.5" y="221"/><rect fill="#FFFFFF" height="2" style="stroke:#181818;stroke-width:0.5;" width="4" x="279.5" y="225"/><text fill="#000000" font-family="sans-serif" font-size="11" lengthAdjust="spacing" textLength="59" x="217.5" y="245.4189">Express API</text></g><!--entity prismaClient--><g id="elem_prismaClient"><rect fill="#FFFFFF" height="43.8359" rx="2.5" ry="2.5" style="stroke:#181818;stroke-width:0.5;" width="101" x="32.5" y="214"/><rect fill="#FFFFFF" height="10" style="stroke:#181818;stroke-width:0.5;" width="15" x="113.5" y="219"/><rect fill="#FFFFFF" height="2" style="stroke:#181818;stroke-width:0.5;" width="4" x="111.5" y="221"/><rect fill="#FFFFFF" height="2" style="stroke:#181818;stroke-width:0.5;" width="4" x="111.5" y="225"/><text fill="#000000" font-family="sans-serif" font-size="11" lengthAdjust="spacing" textLength="61" x="47.5" y="245.4189">Prisma Client</text></g><!--entity auth--><g id="elem_auth"><rect fill="#FFFFFF" height="43.8359" rx="2.5" ry="2.5" style="stroke:#181818;stroke-width:0.5;" width="109" x="1198.5" y="773"/><rect fill="#FFFFFF" height="10" style="stroke:#181818;stroke-width:0.5;" width="15" x="1287.5" y="778"/><rect fill="#FFFFFF" height="2" style="stroke:#181818;stroke-width:0.5;" width="4" x="1285.5" y="780"/><rect fill="#FFFFFF" height="2" style="stroke:#181818;stroke-width:0.5;" width="4" x="1285.5" y="784"/><text fill="#000000" font-family="sans-serif" font-size="11" lengthAdjust="spacing" textLength="69" x="1213.5" y="804.4189">Authentication</text></g><!--entity fileStorage--><g id="elem_fileStorage"><rect fill="#FFFFFF" height="43.8359" rx="2.5" ry="2.5" style="stroke:#181818;stroke-width:0.5;" width="97" x="1342.5" y="773"/><rect fill="#FFFFFF" height="10" style="stroke:#181818;stroke-width:0.5;" width="15" x="1419.5" y="778"/><rect fill="#FFFFFF" height="2" style="stroke:#181818;stroke-width:0.5;" width="4" x="1417.5" y="780"/><rect fill="#FFFFFF" height="2" style="stroke:#181818;stroke-width:0.5;" width="4" x="1417.5" y="784"/><text fill="#000000" font-family="sans-serif" font-size="11" lengthAdjust="spacing" textLength="57" x="1357.5" y="804.4189">File Storage</text></g><!--entity postgresDB--><g id="elem_postgresDB"><rect fill="#FFFFFF" height="43.8359" rx="2.5" ry="2.5" style="stroke:#181818;stroke-width:0.5;" width="147" x="1016.5" y="773"/><rect fill="#FFFFFF" height="10" style="stroke:#181818;stroke-width:0.5;" width="15" x="1143.5" y="778"/><rect fill="#FFFFFF" height="2" style="stroke:#181818;stroke-width:0.5;" width="4" x="1141.5" y="780"/><rect fill="#FFFFFF" height="2" style="stroke:#181818;stroke-width:0.5;" width="4" x="1141.5" y="784"/><text fill="#000000" font-family="sans-serif" font-size="11" lengthAdjust="spacing" textLength="107" x="1031.5" y="804.4189">PostgreSQL Database</text></g><!--entity expoPushNotifications--><g id="elem_expoPushNotifications"><rect fill="#FFFFFF" height="43.8359" rx="2.5" ry="2.5" style="stroke:#181818;stroke-width:0.5;" width="153" x="1444.5" y="371"/><rect fill="#FFFFFF" height="10" style="stroke:#181818;stroke-width:0.5;" width="15" x="1577.5" y="376"/><rect fill="#FFFFFF" height="2" style="stroke:#181818;stroke-width:0.5;" width="4" x="1575.5" y="378"/><rect fill="#FFFFFF" height="2" style="stroke:#181818;stroke-width:0.5;" width="4" x="1575.5" y="382"/><text fill="#000000" font-family="sans-serif" font-size="11" lengthAdjust="spacing" textLength="113" x="1459.5" y="402.4189">Expo Push Notifications</text></g><!--entity expoApplicationServicesBuild--><g id="elem_expoApplicationServicesBuild"><rect fill="#FFFFFF" height="43.8359" rx="2.5" ry="2.5" style="stroke:#181818;stroke-width:0.5;" width="192" x="1633" y="371"/><rect fill="#FFFFFF" height="10" style="stroke:#181818;stroke-width:0.5;" width="15" x="1805" y="376"/><rect fill="#FFFFFF" height="2" style="stroke:#181818;stroke-width:0.5;" width="4" x="1803" y="378"/><rect fill="#FFFFFF" height="2" style="stroke:#181818;stroke-width:0.5;" width="4" x="1803" y="382"/><text fill="#000000" font-family="sans-serif" font-size="11" lengthAdjust="spacing" textLength="152" x="1648" y="402.4189">Expo Application Services Build</text></g><!--link jsLayer to bridge--><g id="link_jsLayer_bridge"><path d="M564.1691,247.2103 C565.708,249.134 567.4348,251.2927 569.3239,253.6542 C576.8803,263.1003 587.0331,275.7919 598.1363,289.6713 C620.3425,317.43 642.6018,345.2548 659.2418,366.0548 " fill="none" id="jsLayer-to-bridge" style="stroke:#181818;stroke-width:1.0;"/><polygon fill="#181818" points="662.99,370.74,660.4912,361.2134,659.8665,366.8357,654.2443,366.211,662.99,370.74" style="stroke:#181818;stroke-width:1.0;"/></g><!--link bridge to nativeLayer--><g id="link_bridge_nativeLayer"><path d="M680,415.22 C680,427.18 680,443.1725 680,460.4884 C680,469.1464 680,478.1352 680,487.1163 C680,491.6068 680,496.0954 680,500.5397 C680,500.8175 680,495.0951 680,495.3725 " fill="none" id="bridge-to-nativeLayer" style="stroke:#181818;stroke-width:1.0;"/><polygon fill="#181818" points="680,501.3725,684,492.3725,680,496.3725,676,492.3725,680,501.3725" style="stroke:#181818;stroke-width:1.0;"/></g><!--link jsLayer to runtime--><g id="link_jsLayer_runtime"><path d="M564.1095,237.0789 C564.3826,237.0853 564.662,237.0923 564.9476,237.0997 C565.5188,237.1146 566.1149,237.1315 566.7352,237.1506 C567.9757,237.1888 569.3127,237.236 570.7406,237.2941 C573.5964,237.4104 576.8153,237.5704 580.3508,237.7902 C594.4928,238.6691 613.7006,240.5031 634.9962,244.3113 C677.5875,251.9275 728.53,267.44 764,299 C772.2725,306.36 778.8956,315.73 784.1803,325.6748 C786.8227,330.6473 789.1304,335.7634 791.1424,340.8438 C792.1484,343.3841 793.0804,345.9154 793.9434,348.4153 C794.3749,349.6653 794.7891,350.9075 795.1867,352.139 C795.3855,352.7547 795.5801,353.3678 795.7706,353.9779 C795.8182,354.1304 794.0905,348.5514 794.1376,348.7035 " fill="none" id="jsLayer-to-runtime" style="stroke:#181818;stroke-width:1.0;"/><polygon fill="#181818" points="795.9127,354.4349,797.0709,344.6544,794.4334,349.6587,789.4291,347.0212,795.9127,354.4349" style="stroke:#181818;stroke-width:1.0;"/></g><!--link app to nodeModules--><g id="link_app_nodeModules"><path d="M477,258.23 C477,287.74 477,334.89 477,364.53 " fill="none" id="app-to-nodeModules" style="stroke:#181818;stroke-width:1.0;"/><polygon fill="#181818" points="477,370.53,481,361.53,477,365.53,473,361.53,477,370.53" style="stroke:#181818;stroke-width:1.0;"/></g><!--link moduleBindings to nativeModules--><g id="link_moduleBindings_nativeModules"><path d="M919.24,415.22 C926.36,450.81 939.4536,516.2465 946.5736,551.8565 " fill="none" id="moduleBindings-to-nativeModules" style="stroke:#181818;stroke-width:1.0;"/><polygon fill="#181818" points="947.75,557.74,949.9078,548.1304,946.7697,552.837,942.0631,549.6989,947.75,557.74" style="stroke:#181818;stroke-width:1.0;"/></g><!--link nativeComponents to runtime--><g id="link_nativeComponents_runtime"><path d="M789.84,557.68 C791.905,533.835 795.3475,494.0475 798.3213,459.6713 C798.693,455.3742 799.0574,451.1617 799.4108,447.0755 C799.5876,445.0324 799.7616,443.0209 799.9324,441.0461 C799.9751,440.5524 799.5005,446.0387 799.5428,445.5497 " fill="none" id="nativeComponents-to-runtime" style="stroke:#181818;stroke-width:1.0;"/><polygon fill="#181818" points="800.0599,439.572,795.2992,448.1938,799.629,444.5534,803.2694,448.8832,800.0599,439.572" style="stroke:#181818;stroke-width:1.0;"/></g><!--link expressAPI to jsLayer--><g id="link_expressAPI_jsLayer"><path d="M267.1114,208.6362 C289.3414,170.4962 337.73,98.91 406,69 C463.81,43.67 502.32,25.45 548,69 C573.63,93.435 576.6475,132.5075 572.785,166.7175 C571.8194,175.27 570.4238,183.5186 568.8439,191.1586 C568.054,194.9786 567.2181,198.6464 566.3668,202.1241 C565.9412,203.8629 565.5117,205.5541 565.0823,207.1931 C564.8676,208.0125 564.6528,208.8189 564.4386,209.6116 C564.3315,210.008 565.8116,204.6146 565.7048,205.0041 " fill="none" id="expressAPI-jsLayer" style="stroke:#000000;stroke-width:1.0;stroke-dasharray:7.0,7.0;"/><polygon fill="#000000" points="264.09,213.82,272.0779,208.0586,266.6078,209.5002,265.1662,204.0301,264.09,213.82" style="stroke:#000000;stroke-width:1.0;"/><polygon fill="#000000" points="564.1177,210.7903,570.3558,203.169,565.4402,205.9684,562.6408,201.0529,564.1177,210.7903" style="stroke:#000000;stroke-width:1.0;"/><text fill="#000000" font-family="sans-serif" font-size="11" lengthAdjust="spacing" textLength="32" x="412" y="18.4189">HTTPS</text></g><!--link postgresDB to prismaClient--><g id="link_postgresDB_prismaClient"><path d="M1010.4065,784.7886 C922.8565,772.6886 779.98,746.14 664,690 C415.62,569.76 177.4066,334.7477 107.3266,262.4677 " fill="none" id="postgresDB-prismaClient" style="stroke:#000000;stroke-width:1.0;stroke-dasharray:7.0,7.0;"/><polygon fill="#000000" points="1016.35,785.61,1007.9824,780.4155,1011.3971,784.9255,1006.8871,788.3402,1016.35,785.61" style="stroke:#000000;stroke-width:1.0;"/><polygon fill="#000000" points="103.15,258.16,106.5431,267.4059,106.6305,261.7497,112.2867,261.8372,103.15,258.16" style="stroke:#000000;stroke-width:1.0;"/></g><!--link jsLayer to fileStorage--><g id="link_jsLayer_fileStorage"><path d="M570.7202,237.015 C576.3561,237.0254 579.3445,237.041 589.3068,237.0936 C609.2313,237.1988 637.1695,237.4195 670.5653,237.8802 C737.3569,238.8016 825.9788,240.6831 915.9825,244.5213 C1095.99,252.1975 1281.525,267.7 1309,299 C1433.69,441.07 1406.8088,692.0177 1395.4488,766.9977 " fill="none" id="jsLayer-fileStorage" style="stroke:#000000;stroke-width:1.0;stroke-dasharray:7.0,7.0;"/><polygon fill="#000000" points="564.7202,237.0051,573.7136,241.0199,569.7202,237.0133,573.7268,233.0199,564.7202,237.0051" style="stroke:#000000;stroke-width:1.0;"/><polygon fill="#000000" points="1394.55,772.93,1399.853,764.6307,1395.299,767.9864,1391.9433,763.4324,1394.55,772.93" style="stroke:#000000;stroke-width:1.0;"/><text fill="#000000" font-family="sans-serif" font-size="11" lengthAdjust="spacing" textLength="32" x="1392" y="475.4189">HTTPS</text></g><!--link jsLayer to auth--><g id="link_jsLayer_auth"><path d="M570.2381,237.1088 C575.5646,237.154 578.0598,237.1845 587.4759,237.2958 C606.308,237.5185 632.7161,237.8983 664.2872,238.5341 C727.4294,239.8056 811.2238,242.1013 896.3675,246.2125 C1066.655,254.435 1242.34,269.92 1269,299 C1333.28,369.11 1275.6831,681.8878 1258.5431,767.1078 " fill="none" id="jsLayer-auth" style="stroke:#000000;stroke-width:1.0;stroke-dasharray:7.0,7.0;"/><polygon fill="#000000" points="564.2383,237.0591,573.2048,241.1335,569.2381,237.1005,573.2711,233.1338,564.2383,237.0591" style="stroke:#000000;stroke-width:1.0;"/><polygon fill="#000000" points="1257.36,772.99,1263.0561,764.9554,1258.3459,768.0882,1255.2131,763.378,1257.36,772.99" style="stroke:#000000;stroke-width:1.0;"/><text fill="#000000" font-family="sans-serif" font-size="11" lengthAdjust="spacing" textLength="32" x="1298" y="475.4189">HTTPS</text></g><!--link prismaClient to expressAPI--><g id="link_prismaClient_expressAPI"><path d="M139.71,236 C161.48,236 174.85,236 196.49,236 " fill="none" id="prismaClient-expressAPI" style="stroke:#000000;stroke-width:1.0;stroke-dasharray:7.0,7.0;"/><polygon fill="#000000" points="133.71,236,142.71,240,138.71,236,142.71,232,133.71,236" style="stroke:#000000;stroke-width:1.0;"/><polygon fill="#000000" points="202.49,236,193.49,232,197.49,236,193.49,240,202.49,236" style="stroke:#000000;stroke-width:1.0;"/><text fill="#000000" font-family="sans-serif" font-size="11" lengthAdjust="spacing" textLength="32" x="152" y="230.4189">HTTPS</text></g><!--link jsLayer to expoPushNotifications--><g id="link_jsLayer_expoPushNotifications"><path d="M570.5887,237.2812 C576.8452,237.4062 581.9096,237.5138 592.9828,237.7553 C615.1293,238.2382 646.2132,238.9591 683.4508,239.9389 C757.9259,241.8984 857.0156,244.8931 958.4487,249.0888 C1161.315,257.48 1373.555,270.675 1417,290 C1456.05,307.37 1485.338,341.4097 1503.128,365.8397 " fill="none" id="jsLayer-expoPushNotifications" style="stroke:#000000;stroke-width:1.0;stroke-dasharray:7.0,7.0;"/><polygon fill="#000000" points="564.5899,237.1626,573.509,241.3397,569.5889,237.2615,573.6672,233.3413,564.5899,237.1626" style="stroke:#000000;stroke-width:1.0;"/><polygon fill="#000000" points="1506.66,370.69,1504.5955,361.0599,1503.7167,366.6481,1498.1285,365.7692,1506.66,370.69" style="stroke:#000000;stroke-width:1.0;"/></g><!--link jsLayer to expoApplicationServicesBuild--><g id="link_jsLayer_expoApplicationServicesBuild"><path d="M570.1605,237.3 C570.9755,237.3175 567.0271,237.2329 567.9436,237.2529 C575.2755,237.4124 585.8275,237.6476 599.1682,237.9595 C625.8495,238.5831 663.6853,239.5134 709.2231,240.7587 C800.2988,243.2494 922.1825,247 1047.255,252.0775 C1297.4,262.2325 1560.3,277.695 1615,299 C1654.27,314.29 1686.2143,344.0975 1706.8443,366.4875 " fill="none" id="jsLayer-expoApplicationServicesBuild" style="stroke:#000000;stroke-width:1.0;stroke-dasharray:7.0,7.0;"/><polygon fill="#000000" points="564.1619,237.1711,573.0739,241.3635,569.1607,237.2785,573.2457,233.3653,564.1619,237.1711" style="stroke:#000000;stroke-width:1.0;"/><polygon fill="#000000" points="1710.91,370.9,1707.7532,361.5708,1707.5219,367.2229,1701.8698,366.9917,1710.91,370.9" style="stroke:#000000;stroke-width:1.0;"/></g><!--SRC=[bLN9Rjim4BthAmRkeUqXQd99WK0Lu2seWpXm8_TK50KjqJ8RYHH8oarRvD_BHGijIx6hWq0-pdipmncDn1EX1U8eXodB2qOnbHCKFwMSbJIPienn-BKZ4dkYCKpm5fMPNEDdESv8IdF5WLYzC3-skcLKHkGFXgihpwCimJ1QiWt9CCpmdiHu14X0RX0Bm5yFr1FNqS3e4QDOmWEIP8zXN1I6mZLeCGL14BXMDvV-nsl_EWmhCUWetg4zYc9E2Wdtw3VcHl6dC6kNSiYgNIFbRyX6P_WZPqcPOM6CDR2q-uRpqgoy7ea99qcAdS0s1ZWHtC4bMGc7VARhYjwwfWOuuRfYBTsi3TJDkv_tTT6sdijkGITwxsJkZoML9CSmftl2cMbEsp0LFfZ6_BbWDTimi09gjI7INQGSfOJYgeNivgoRWWcX2Q6fg3u1ZTNGQ_Lw2mlzgL6KAMbASIm9eosZRkEBYx1RVBir9qvXUvdLRJLdkkSDhwUT3qDtvBk6tReUULBrVQcdX9v2c2QsYUtwU3Iecd4i18nNYxfaUg-sNSiL9o97CCr8tH25GIpGketA0csGiFKKrUROyRYKExKWCTAtRyU2WhfcjthGHP9nL7sEMmLK-wC8cP0fnz6NUvWXsGPHM5pC9csKfbVLFCgg0232N0zF0U_cu-XzqxuDt7Tp35QbsC43asHRwOY6gOyEJde5UaEOb2HB6Y77fBOm1ZgPkkC2t__svj8ytpFV3vqwmWq4MwP_CFfVzCaQXP_NwrKKVD07eUSMKaarIgKISYwlprcYdJarESFRe8ok_nbypyajSDCE3pholo9n0Wa7glUAyM25_W40]--></g></svg>