<?xml version="1.0" encoding="us-ascii" standalone="no"?><svg xmlns="http://www.w3.org/2000/svg" xmlns:xlink="http://www.w3.org/1999/xlink" contentStyleType="text/css" height="662px" preserveAspectRatio="none" style="width:1941px;height:662px;background:#FFFFFF;" version="1.1" viewBox="0 0 1941 662" width="1941px" zoomAndPan="magnify"><defs/><g><!--cluster mobileDevice--><g id="cluster_mobileDevice"><polygon fill="none" points="496,47,506,37,1487,37,1487,635,1477,645,496,645,496,47" style="stroke:#181818;stroke-width:1.0;"/><line style="stroke:#181818;stroke-width:1.0;" x1="1477" x2="1487" y1="47" y2="37"/><line style="stroke:#181818;stroke-width:1.0;" x1="496" x2="1477" y1="47" y2="47"/><line style="stroke:#181818;stroke-width:1.0;" x1="1477" x2="1477" y1="47" y2="645"/><text fill="#000000" font-family="sans-serif" font-size="11" font-weight="bold" lengthAdjust="spacing" textLength="76" x="949.5" y="61.4189">Mobile Device</text></g><!--cluster reactNativeApp--><g id="cluster_reactNativeApp"><rect fill="#FFFFFF" height="534" rx="2.5" ry="2.5" style="stroke:#181818;stroke-width:1.0;" width="943" x="520" y="87"/><rect fill="#FFFFFF" height="10" style="stroke:#181818;stroke-width:1.0;" width="15" x="1443" y="92"/><rect fill="#FFFFFF" height="2" style="stroke:#181818;stroke-width:1.0;" width="4" x="1441" y="94"/><rect fill="#FFFFFF" height="2" style="stroke:#181818;stroke-width:1.0;" width="4" x="1441" y="98"/><text fill="#000000" font-family="sans-serif" font-size="11" font-weight="bold" lengthAdjust="spacing" textLength="91" x="946" y="111.4189">React Native App</text></g><!--cluster jsLayer--><g id="cluster_jsLayer"><rect fill="#FFFFFF" height="281" rx="2.5" ry="2.5" style="stroke:#181818;stroke-width:1.0;" width="166" x="552" y="135"/><rect fill="#FFFFFF" height="10" style="stroke:#181818;stroke-width:1.0;" width="15" x="698" y="140"/><rect fill="#FFFFFF" height="2" style="stroke:#181818;stroke-width:1.0;" width="4" x="696" y="142"/><rect fill="#FFFFFF" height="2" style="stroke:#181818;stroke-width:1.0;" width="4" x="696" y="146"/><text fill="#000000" font-family="sans-serif" font-size="11" font-weight="bold" lengthAdjust="spacing" textLength="90" x="590" y="159.4189">JavaScript Layer</text></g><!--cluster bridgeLayer--><g id="cluster_bridgeLayer"><rect fill="#FFFFFF" height="108" rx="2.5" ry="2.5" style="stroke:#181818;stroke-width:1.0;" width="168" x="750" y="300"/><rect fill="#FFFFFF" height="10" style="stroke:#181818;stroke-width:1.0;" width="15" x="898" y="305"/><rect fill="#FFFFFF" height="2" style="stroke:#181818;stroke-width:1.0;" width="4" x="896" y="307"/><rect fill="#FFFFFF" height="2" style="stroke:#181818;stroke-width:1.0;" width="4" x="896" y="311"/><text fill="#000000" font-family="sans-serif" font-size="11" font-weight="bold" lengthAdjust="spacing" textLength="70" x="799" y="324.4189">Bridge Layer</text></g><!--cluster nativeLayer--><g id="cluster_nativeLayer"><rect fill="#FFFFFF" height="124" rx="2.5" ry="2.5" style="stroke:#181818;stroke-width:1.0;" width="361" x="826" y="465"/><rect fill="#FFFFFF" height="10" style="stroke:#181818;stroke-width:1.0;" width="15" x="1167" y="470"/><rect fill="#FFFFFF" height="2" style="stroke:#181818;stroke-width:1.0;" width="4" x="1165" y="472"/><rect fill="#FFFFFF" height="2" style="stroke:#181818;stroke-width:1.0;" width="4" x="1165" y="476"/><text fill="#000000" font-family="sans-serif" font-size="11" font-weight="bold" lengthAdjust="spacing" textLength="67" x="973" y="489.4189">Native Layer</text></g><!--cluster runtime--><g id="cluster_runtime"><rect fill="#FFFFFF" height="124" rx="2.5" ry="2.5" style="stroke:#181818;stroke-width:1.0;" width="481" x="950" y="292"/><rect fill="#FFFFFF" height="10" style="stroke:#181818;stroke-width:1.0;" width="15" x="1411" y="297"/><rect fill="#FFFFFF" height="2" style="stroke:#181818;stroke-width:1.0;" width="4" x="1409" y="299"/><rect fill="#FFFFFF" height="2" style="stroke:#181818;stroke-width:1.0;" width="4" x="1409" y="303"/><text fill="#000000" font-family="sans-serif" font-size="11" font-weight="bold" lengthAdjust="spacing" textLength="188" x="1096.5" y="316.4189">React Native Runtime Environment</text></g><!--cluster backend--><g id="cluster_backend"><polygon fill="none" points="204,143,214,133,472,133,472,241,462,251,204,251,204,143" style="stroke:#181818;stroke-width:1.0;"/><line style="stroke:#181818;stroke-width:1.0;" x1="462" x2="472" y1="143" y2="133"/><line style="stroke:#181818;stroke-width:1.0;" x1="204" x2="462" y1="143" y2="143"/><line style="stroke:#181818;stroke-width:1.0;" x1="462" x2="462" y1="143" y2="251"/><text fill="#000000" font-family="sans-serif" font-size="11" font-weight="bold" lengthAdjust="spacing" textLength="47" x="310.5" y="157.4189">Backend</text></g><!--cluster supabase--><g id="cluster_supabase"><polygon fill="none" points="16,300,26,290,472,290,472,398,462,408,16,408,16,300" style="stroke:#181818;stroke-width:1.0;"/><line style="stroke:#181818;stroke-width:1.0;" x1="462" x2="472" y1="300" y2="290"/><line style="stroke:#181818;stroke-width:1.0;" x1="16" x2="462" y1="300" y2="300"/><line style="stroke:#181818;stroke-width:1.0;" x1="462" x2="462" y1="300" y2="408"/><text fill="#000000" font-family="sans-serif" font-size="11" font-weight="bold" lengthAdjust="spacing" textLength="54" x="213" y="314.4189">Supabase</text></g><!--cluster expoServices--><g id="cluster_expoServices"><polygon fill="none" points="1511,300,1521,290,1924,290,1924,398,1914,408,1511,408,1511,300" style="stroke:#181818;stroke-width:1.0;"/><line style="stroke:#181818;stroke-width:1.0;" x1="1914" x2="1924" y1="300" y2="290"/><line style="stroke:#181818;stroke-width:1.0;" x1="1511" x2="1914" y1="300" y2="300"/><line style="stroke:#181818;stroke-width:1.0;" x1="1914" x2="1914" y1="300" y2="408"/><text fill="#000000" font-family="sans-serif" font-size="11" font-weight="bold" lengthAdjust="spacing" textLength="173" x="1627" y="314.4189">Expo Application Services (EAS)</text></g><!--entity app--><g id="elem_app"><rect fill="#FFFFFF" height="43.8359" rx="2.5" ry="2.5" style="stroke:#181818;stroke-width:0.5;" width="60" x="601" y="191"/><rect fill="#FFFFFF" height="10" style="stroke:#181818;stroke-width:0.5;" width="15" x="641" y="196"/><rect fill="#FFFFFF" height="2" style="stroke:#181818;stroke-width:0.5;" width="4" x="639" y="198"/><rect fill="#FFFFFF" height="2" style="stroke:#181818;stroke-width:0.5;" width="4" x="639" y="202"/><text fill="#000000" font-family="sans-serif" font-size="11" lengthAdjust="spacing" textLength="20" x="616" y="222.4189">App</text></g><!--entity nodeModules--><g id="elem_nodeModules"><rect fill="#FFFFFF" height="43.8359" rx="2.5" ry="2.5" style="stroke:#181818;stroke-width:0.5;" width="110" x="576" y="348"/><rect fill="#FFFFFF" height="10" style="stroke:#181818;stroke-width:0.5;" width="15" x="666" y="353"/><rect fill="#FFFFFF" height="2" style="stroke:#181818;stroke-width:0.5;" width="4" x="664" y="355"/><rect fill="#FFFFFF" height="2" style="stroke:#181818;stroke-width:0.5;" width="4" x="664" y="359"/><text fill="#000000" font-family="sans-serif" font-size="11" lengthAdjust="spacing" textLength="70" x="591" y="379.4189">node_modules</text></g><!--entity bridge--><g id="elem_bridge"><rect fill="#FFFFFF" height="43.8359" rx="2.5" ry="2.5" style="stroke:#181818;stroke-width:0.5;" width="135" x="766.5" y="348"/><rect fill="#FFFFFF" height="10" style="stroke:#181818;stroke-width:0.5;" width="15" x="881.5" y="353"/><rect fill="#FFFFFF" height="2" style="stroke:#181818;stroke-width:0.5;" width="4" x="879.5" y="355"/><rect fill="#FFFFFF" height="2" style="stroke:#181818;stroke-width:0.5;" width="4" x="879.5" y="359"/><text fill="#000000" font-family="sans-serif" font-size="11" lengthAdjust="spacing" textLength="95" x="781.5" y="379.4189">React Native Bridge</text></g><!--entity nativeModules--><g id="elem_nativeModules"><rect fill="#FFFFFF" height="43.8359" rx="2.5" ry="2.5" style="stroke:#181818;stroke-width:0.5;" width="113" x="1049.5" y="521"/><rect fill="#FFFFFF" height="10" style="stroke:#181818;stroke-width:0.5;" width="15" x="1142.5" y="526"/><rect fill="#FFFFFF" height="2" style="stroke:#181818;stroke-width:0.5;" width="4" x="1140.5" y="528"/><rect fill="#FFFFFF" height="2" style="stroke:#181818;stroke-width:0.5;" width="4" x="1140.5" y="532"/><text fill="#000000" font-family="sans-serif" font-size="11" lengthAdjust="spacing" textLength="73" x="1064.5" y="552.4189">Native Modules</text></g><!--entity nativeComponents--><g id="elem_nativeComponents"><rect fill="#FFFFFF" height="43.8359" rx="2.5" ry="2.5" style="stroke:#181818;stroke-width:0.5;" width="145" x="869.5" y="521"/><rect fill="#FFFFFF" height="10" style="stroke:#181818;stroke-width:0.5;" width="15" x="994.5" y="526"/><rect fill="#FFFFFF" height="2" style="stroke:#181818;stroke-width:0.5;" width="4" x="992.5" y="528"/><rect fill="#FFFFFF" height="2" style="stroke:#181818;stroke-width:0.5;" width="4" x="992.5" y="532"/><text fill="#000000" font-family="sans-serif" font-size="11" lengthAdjust="spacing" textLength="105" x="884.5" y="552.4189">Native UI Components</text></g><!--entity expoRuntime--><g id="elem_expoRuntime"><rect fill="#FFFFFF" height="43.8359" rx="2.5" ry="2.5" style="stroke:#181818;stroke-width:0.5;" width="105" x="1301.5" y="348"/><rect fill="#FFFFFF" height="10" style="stroke:#181818;stroke-width:0.5;" width="15" x="1386.5" y="353"/><rect fill="#FFFFFF" height="2" style="stroke:#181818;stroke-width:0.5;" width="4" x="1384.5" y="355"/><rect fill="#FFFFFF" height="2" style="stroke:#181818;stroke-width:0.5;" width="4" x="1384.5" y="359"/><text fill="#000000" font-family="sans-serif" font-size="11" lengthAdjust="spacing" textLength="65" x="1316.5" y="379.4189">Expo Runtime</text></g><!--entity jsEngine--><g id="elem_jsEngine"><rect fill="#FFFFFF" height="43.8359" rx="2.5" ry="2.5" style="stroke:#181818;stroke-width:0.5;" width="87" x="1179.5" y="348"/><rect fill="#FFFFFF" height="10" style="stroke:#181818;stroke-width:0.5;" width="15" x="1246.5" y="353"/><rect fill="#FFFFFF" height="2" style="stroke:#181818;stroke-width:0.5;" width="4" x="1244.5" y="355"/><rect fill="#FFFFFF" height="2" style="stroke:#181818;stroke-width:0.5;" width="4" x="1244.5" y="359"/><text fill="#000000" font-family="sans-serif" font-size="11" lengthAdjust="spacing" textLength="47" x="1194.5" y="379.4189">JS Engine</text></g><!--entity moduleBindings--><g id="elem_moduleBindings"><rect fill="#FFFFFF" height="43.8359" rx="2.5" ry="2.5" style="stroke:#181818;stroke-width:0.5;" width="151" x="993.5" y="348"/><rect fill="#FFFFFF" height="10" style="stroke:#181818;stroke-width:0.5;" width="15" x="1124.5" y="353"/><rect fill="#FFFFFF" height="2" style="stroke:#181818;stroke-width:0.5;" width="4" x="1122.5" y="355"/><rect fill="#FFFFFF" height="2" style="stroke:#181818;stroke-width:0.5;" width="4" x="1122.5" y="359"/><text fill="#000000" font-family="sans-serif" font-size="11" lengthAdjust="spacing" textLength="111" x="1008.5" y="379.4189">Native Module Bindings</text></g><!--entity expressAPI--><g id="elem_expressAPI"><rect fill="#FFFFFF" height="43.8359" rx="2.5" ry="2.5" style="stroke:#181818;stroke-width:0.5;" width="99" x="356.5" y="191"/><rect fill="#FFFFFF" height="10" style="stroke:#181818;stroke-width:0.5;" width="15" x="435.5" y="196"/><rect fill="#FFFFFF" height="2" style="stroke:#181818;stroke-width:0.5;" width="4" x="433.5" y="198"/><rect fill="#FFFFFF" height="2" style="stroke:#181818;stroke-width:0.5;" width="4" x="433.5" y="202"/><text fill="#000000" font-family="sans-serif" font-size="11" lengthAdjust="spacing" textLength="59" x="371.5" y="222.4189">Express API</text></g><!--entity prismaClient--><g id="elem_prismaClient"><rect fill="#FFFFFF" height="43.8359" rx="2.5" ry="2.5" style="stroke:#181818;stroke-width:0.5;" width="101" x="220.5" y="191"/><rect fill="#FFFFFF" height="10" style="stroke:#181818;stroke-width:0.5;" width="15" x="301.5" y="196"/><rect fill="#FFFFFF" height="2" style="stroke:#181818;stroke-width:0.5;" width="4" x="299.5" y="198"/><rect fill="#FFFFFF" height="2" style="stroke:#181818;stroke-width:0.5;" width="4" x="299.5" y="202"/><text fill="#000000" font-family="sans-serif" font-size="11" lengthAdjust="spacing" textLength="61" x="235.5" y="222.4189">Prisma Client</text></g><!--entity auth--><g id="elem_auth"><rect fill="#FFFFFF" height="43.8359" rx="2.5" ry="2.5" style="stroke:#181818;stroke-width:0.5;" width="109" x="214.5" y="348"/><rect fill="#FFFFFF" height="10" style="stroke:#181818;stroke-width:0.5;" width="15" x="303.5" y="353"/><rect fill="#FFFFFF" height="2" style="stroke:#181818;stroke-width:0.5;" width="4" x="301.5" y="355"/><rect fill="#FFFFFF" height="2" style="stroke:#181818;stroke-width:0.5;" width="4" x="301.5" y="359"/><text fill="#000000" font-family="sans-serif" font-size="11" lengthAdjust="spacing" textLength="69" x="229.5" y="379.4189">Authentication</text></g><!--entity fileStorage--><g id="elem_fileStorage"><rect fill="#FFFFFF" height="43.8359" rx="2.5" ry="2.5" style="stroke:#181818;stroke-width:0.5;" width="97" x="358.5" y="348"/><rect fill="#FFFFFF" height="10" style="stroke:#181818;stroke-width:0.5;" width="15" x="435.5" y="353"/><rect fill="#FFFFFF" height="2" style="stroke:#181818;stroke-width:0.5;" width="4" x="433.5" y="355"/><rect fill="#FFFFFF" height="2" style="stroke:#181818;stroke-width:0.5;" width="4" x="433.5" y="359"/><text fill="#000000" font-family="sans-serif" font-size="11" lengthAdjust="spacing" textLength="57" x="373.5" y="379.4189">File Storage</text></g><!--entity postgresDB--><g id="elem_postgresDB"><rect fill="#FFFFFF" height="43.8359" rx="2.5" ry="2.5" style="stroke:#181818;stroke-width:0.5;" width="147" x="32.5" y="348"/><rect fill="#FFFFFF" height="10" style="stroke:#181818;stroke-width:0.5;" width="15" x="159.5" y="353"/><rect fill="#FFFFFF" height="2" style="stroke:#181818;stroke-width:0.5;" width="4" x="157.5" y="355"/><rect fill="#FFFFFF" height="2" style="stroke:#181818;stroke-width:0.5;" width="4" x="157.5" y="359"/><text fill="#000000" font-family="sans-serif" font-size="11" lengthAdjust="spacing" textLength="107" x="47.5" y="379.4189">PostgreSQL Database</text></g><!--entity expoPushNotifications--><g id="elem_expoPushNotifications"><rect fill="#FFFFFF" height="43.8359" rx="2.5" ry="2.5" style="stroke:#181818;stroke-width:0.5;" width="153" x="1527.5" y="348"/><rect fill="#FFFFFF" height="10" style="stroke:#181818;stroke-width:0.5;" width="15" x="1660.5" y="353"/><rect fill="#FFFFFF" height="2" style="stroke:#181818;stroke-width:0.5;" width="4" x="1658.5" y="355"/><rect fill="#FFFFFF" height="2" style="stroke:#181818;stroke-width:0.5;" width="4" x="1658.5" y="359"/><text fill="#000000" font-family="sans-serif" font-size="11" lengthAdjust="spacing" textLength="113" x="1542.5" y="379.4189">Expo Push Notifications</text></g><!--entity expoApplicationServicesBuild--><g id="elem_expoApplicationServicesBuild"><rect fill="#FFFFFF" height="43.8359" rx="2.5" ry="2.5" style="stroke:#181818;stroke-width:0.5;" width="192" x="1716" y="348"/><rect fill="#FFFFFF" height="10" style="stroke:#181818;stroke-width:0.5;" width="15" x="1888" y="353"/><rect fill="#FFFFFF" height="2" style="stroke:#181818;stroke-width:0.5;" width="4" x="1886" y="355"/><rect fill="#FFFFFF" height="2" style="stroke:#181818;stroke-width:0.5;" width="4" x="1886" y="359"/><text fill="#000000" font-family="sans-serif" font-size="11" lengthAdjust="spacing" textLength="152" x="1731" y="379.4189">Expo Application Services Build</text></g><!--link jsLayer to bridge--><g id="link_jsLayer_bridge"><path d="M718.1691,224.2103 C719.708,226.134 721.4348,228.2927 723.3239,230.6542 C730.8803,240.1003 741.0331,252.7919 752.1363,266.6713 C774.3425,294.43 796.6018,322.2548 813.2418,343.0548 " fill="none" id="jsLayer-to-bridge" style="stroke:#181818;stroke-width:1.0;"/><polygon fill="#181818" points="816.99,347.74,814.4912,338.2134,813.8665,343.8357,808.2443,343.211,816.99,347.74" style="stroke:#181818;stroke-width:1.0;"/></g><!--link bridge to nativeLayer--><g id="link_bridge_nativeLayer"><path d="M834,392.31 C834,403.59 834,418.3837 834,434.2786 C834,442.226 834,450.4487 834,458.6451 C834,460.6942 834,456.7416 834,458.7827 " fill="none" id="bridge-to-nativeLayer" style="stroke:#181818;stroke-width:1.0;"/><polygon fill="#181818" points="834,464.7827,838,455.7827,834,459.7827,830,455.7827,834,464.7827" style="stroke:#181818;stroke-width:1.0;"/></g><!--link jsLayer to runtime--><g id="link_jsLayer_runtime"><path d="M718.1095,214.0789 C718.3826,214.0853 718.662,214.0923 718.9476,214.0997 C719.5188,214.1146 720.1149,214.1315 720.7352,214.1506 C721.9757,214.1888 723.3127,214.236 724.7406,214.2941 C727.5964,214.4104 730.8153,214.5704 734.3508,214.7902 C748.4928,215.6691 767.7006,217.5031 788.9962,221.3112 C831.5875,228.9275 882.53,244.44 918,276 C926.2725,283.36 932.8956,292.73 938.1803,302.6748 C940.8227,307.6473 943.1304,312.7634 945.1424,317.8438 C946.1484,320.3841 947.0804,322.9154 947.9434,325.4153 C948.3749,326.6653 948.7891,327.9075 949.1867,329.139 C949.3855,329.7547 949.5801,330.3678 949.7706,330.9779 C949.8182,331.1304 948.0905,325.5514 948.1376,325.7035 " fill="none" id="jsLayer-to-runtime" style="stroke:#181818;stroke-width:1.0;"/><polygon fill="#181818" points="949.9127,331.4349,951.0709,321.6544,948.4334,326.6587,943.4291,324.0212,949.9127,331.4349" style="stroke:#181818;stroke-width:1.0;"/></g><!--link app to nodeModules--><g id="link_app_nodeModules"><path d="M631,235.23 C631,264.74 631,311.89 631,341.53 " fill="none" id="app-to-nodeModules" style="stroke:#181818;stroke-width:1.0;"/><polygon fill="#181818" points="631,347.53,635,338.53,631,342.53,627,338.53,631,347.53" style="stroke:#181818;stroke-width:1.0;"/></g><!--link moduleBindings to nativeModules--><g id="link_moduleBindings_nativeModules"><path d="M1073.61,392.31 C1080.74,425.26 1093.0802,482.3059 1100.1802,515.0959 " fill="none" id="moduleBindings-to-nativeModules" style="stroke:#181818;stroke-width:1.0;"/><polygon fill="#181818" points="1101.45,520.96,1103.4548,511.3173,1100.3919,516.0732,1095.636,513.0103,1101.45,520.96" style="stroke:#181818;stroke-width:1.0;"/></g><!--link nativeComponents to runtime--><g id="link_nativeComponents_runtime"><path d="M943.97,520.96 C946.065,498.565 949.475,462.1125 952.4088,430.755 C952.7755,426.8353 953.1347,422.9952 953.4831,419.2722 C953.5702,418.3414 953.0976,423.3919 953.1833,422.4763 " fill="none" id="nativeComponents-to-runtime" style="stroke:#181818;stroke-width:1.0;"/><polygon fill="#181818" points="953.7422,416.5024,948.9212,425.0906,953.2764,421.4807,956.8864,425.8359,953.7422,416.5024" style="stroke:#181818;stroke-width:1.0;"/></g><!--link expressAPI to jsLayer--><g id="link_expressAPI_jsLayer"><path d="M423.3362,185.9565 C447.0762,150.7765 495.7,88.26 560,62 C618.43,38.14 656.21,18.57 702,62 C725.24,84.04 728.145,119.3675 724.82,150.3125 C723.9888,158.0488 722.7681,165.5111 721.3785,172.4234 C720.6837,175.8796 719.9467,179.1983 719.1949,182.3449 C718.819,183.9183 719.928,179.6362 719.5482,181.1192 " fill="none" id="expressAPI-jsLayer" style="stroke:#000000;stroke-width:1.0;stroke-dasharray:7.0,7.0;"/><polygon fill="#000000" points="419.98,190.93,428.33,185.7072,422.7768,186.7854,421.6986,181.2323,419.98,190.93" style="stroke:#000000;stroke-width:1.0;"/><polygon fill="#000000" points="718.0597,186.9316,724.1674,179.2053,719.3001,182.0879,716.4175,177.2206,718.0597,186.9316" style="stroke:#000000;stroke-width:1.0;"/><text fill="#000000" font-family="sans-serif" font-size="11" lengthAdjust="spacing" textLength="25" x="570.5" y="18.4189">HTTP</text></g><!--link postgresDB to prismaClient--><g id="link_postgresDB_prismaClient"><path d="M129.7764,343.3553 C147.8364,324.1153 171.47,299.63 197,276 C212.25,261.88 225.4411,250.6831 239.7811,238.9831 " fill="none" id="postgresDB-prismaClient" style="stroke:#000000;stroke-width:1.0;stroke-dasharray:7.0,7.0;"/><polygon fill="#000000" points="125.67,347.73,134.746,343.9056,129.092,344.0844,128.9131,338.4304,125.67,347.73" style="stroke:#000000;stroke-width:1.0;"/><polygon fill="#000000" points="244.43,235.19,234.9279,237.7803,240.5559,238.3509,239.9853,243.9789,244.43,235.19" style="stroke:#000000;stroke-width:1.0;"/></g><!--link jsLayer to fileStorage--><g id="link_jsLayer_fileStorage"><path d="M545.9476,281.2352 C542.9421,282.3966 544.9754,281.6828 541.9771,282.9543 C535.9805,285.4971 530.0084,288.2464 524.1019,291.1472 C512.2887,296.9488 500.7375,303.3563 489.775,309.93 C467.85,323.0775 453.0784,333.2879 438.4784,344.2479 " fill="none" id="jsLayer-fileStorage" style="stroke:#000000;stroke-width:1.0;stroke-dasharray:7.0,7.0;"/><polygon fill="#000000" points="551.549,279.0846,541.7132,278.5763,546.8812,280.8768,544.5807,286.0447,551.549,279.0846" style="stroke:#000000;stroke-width:1.0;"/><polygon fill="#000000" points="433.68,347.85,443.279,345.6458,437.6787,344.8482,438.4762,339.2479,433.68,347.85" style="stroke:#000000;stroke-width:1.0;"/></g><!--link jsLayer to auth--><g id="link_jsLayer_auth"><path d="M544.6749,268.614 C542.0064,268.663 541.3327,268.6727 538.6517,268.7201 C533.2898,268.8148 527.9074,268.9065 522.5238,268.9963 C436.385,270.4325 349.905,271.37 341,276 C311.11,291.54 292.5606,320.3323 281.2106,342.6423 " fill="none" id="jsLayer-auth" style="stroke:#000000;stroke-width:1.0;stroke-dasharray:7.0,7.0;"/><polygon fill="#000000" points="550.6738,268.5016,541.6005,264.6709,545.6747,268.5953,541.7504,272.6695,550.6738,268.5016" style="stroke:#000000;stroke-width:1.0;"/><polygon fill="#000000" points="278.49,347.99,286.1361,341.7821,280.7572,343.5336,279.0058,338.1547,278.49,347.99" style="stroke:#000000;stroke-width:1.0;"/></g><!--link prismaClient to expressAPI--><g id="link_prismaClient_expressAPI"><path d="M327.62,213 C339.16,213 338.7,213 350.23,213 " fill="none" id="prismaClient-expressAPI" style="stroke:#000000;stroke-width:1.0;stroke-dasharray:7.0,7.0;"/><polygon fill="#000000" points="321.62,213,330.62,217,326.62,213,330.62,209,321.62,213" style="stroke:#000000;stroke-width:1.0;"/><polygon fill="#000000" points="356.23,213,347.23,209,351.23,213,347.23,217,356.23,213" style="stroke:#000000;stroke-width:1.0;"/></g><!--link jsLayer to expoPushNotifications--><g id="link_jsLayer_expoPushNotifications"><path d="M724.7359,214.5014 C725.3645,214.5233 720.9469,214.3699 721.6333,214.3941 C723.0062,214.4425 724.4939,214.4954 726.0928,214.5528 C729.2905,214.6676 732.933,214.8005 736.9914,214.9517 C753.225,215.5563 776.113,216.4535 803.8098,217.6589 C859.2034,220.0697 933.8319,223.7131 1012.9288,228.7138 C1171.1225,238.715 1347.19,254.145 1423,276 C1478.67,292.05 1532.2305,322.4906 1567.1705,344.6106 " fill="none" id="jsLayer-expoPushNotifications" style="stroke:#000000;stroke-width:1.0;stroke-dasharray:7.0,7.0;"/><polygon fill="#000000" points="718.7396,214.2927,727.595,218.6033,723.7365,214.4666,727.8732,210.6081,718.7396,214.2927" style="stroke:#000000;stroke-width:1.0;"/><polygon fill="#000000" points="1572.24,347.82,1566.7754,339.6262,1568.0154,345.1455,1562.4962,346.3855,1572.24,347.82" style="stroke:#000000;stroke-width:1.0;"/></g><!--link jsLayer to expoApplicationServicesBuild--><g id="link_jsLayer_expoApplicationServicesBuild"><path d="M724.6661,214.3737 C725.4685,214.3946 721.4882,214.2913 722.3837,214.3148 C729.5484,214.5032 739.6704,214.7747 752.352,215.1284 C777.715,215.8359 813.3159,216.8725 855.9712,218.2313 C941.2819,220.9488 1054.81,224.955 1171.0875,230.195 C1403.6425,240.675 1647.195,256.09 1698,276 C1737.24,291.38 1769.1793,321.1622 1789.8293,343.5222 " fill="none" id="jsLayer-expoApplicationServicesBuild" style="stroke:#000000;stroke-width:1.0;stroke-dasharray:7.0,7.0;"/><polygon fill="#000000" points="718.6682,214.2177,727.5611,218.4503,723.6665,214.3477,727.7691,210.453,718.6682,214.2177" style="stroke:#000000;stroke-width:1.0;"/><polygon fill="#000000" points="1793.9,347.93,1790.7324,338.6044,1790.5077,344.2568,1784.8553,344.0321,1793.9,347.93" style="stroke:#000000;stroke-width:1.0;"/></g><!--SRC=[ZLLDRzim3BtxLn3POTkXsNeTiW3vAfQYAR8wEmt3eDYCezMM34dEkWtzxzENRSLnclfWI4_laHH9q_AHif88Ki2C5oLdoDIK98-Pu1LBPppd0dxlgS98DiGKTwJArGQVr2Id6Ikq1XBzGd7Akk5CnVGlmlLr536U8WnMV4jpX3aUQ883818AYpW0_aMWdwIE1WOFI185zqJH0yAaBAr46D1X6l8Yw2XloO74YQ2bWZlo1uLL_f9s7KgELRKBeksUuvYR_2nuMkKeBTa0AxTlDC_DAkenCHKqpJ08R6k12y4T9SEP2CIlTEtbhMjcWGkklMeLtjf2tNltwxujsnOBrIqOH1zTlFj3nHGj41RiG0MtJUWQm-Ddhx5uAdcjjWhKG6tjdEWsreuooj2taDkyAbCmfIobB9E-rGrMGo_LwoqipIV5IAvDCuQ9eforYhgDhwx6tUAxhJq92jkhzDbgpapFMrrFEn-77fZl4hjrFV6aw_jSJmCpRP2bhedT-dG4w9e9b18cwsLTChFNsovpBQWi2CnoMZT4QH47j6xZgYHR8bqzfT-SEfvKQgyND24c-suiQAXBkp43BLPS4FyvxZJWzoSHSgaoWV7NEvWJrGPHEbpEfssKjbVrFCfz012ZC4DImhl597xVj6y3zsMEmxgIUxZdYkwy7TaepT7HIQ-1tX2c5StJnb10gHcMO2vJTzneEFp-vgDzVkJ3uJYe8to2qOwR7udvvtnsfF6NpMOz-c3mSHJMKLjg35NQJf2xrbV3I3KZBCWPYYri58Gq2gCT7pVI6HlzANs1V3Pj_m40]--></g></svg>