<?xml version="1.0" encoding="us-ascii" standalone="no"?><svg xmlns="http://www.w3.org/2000/svg" xmlns:xlink="http://www.w3.org/1999/xlink" contentStyleType="text/css" height="841px" preserveAspectRatio="none" style="width:1229px;height:841px;background:#FFFFFF;" version="1.1" viewBox="0 0 1229 841" width="1229px" zoomAndPan="magnify"><defs/><g><!--cluster mobileDevice--><g id="cluster_mobileDevice"><polygon fill="none" points="16,50.26,26,40.26,732,40.26,732,814.26,722,824.26,16,824.26,16,50.26" style="stroke:#181818;stroke-width:1.0;"/><line style="stroke:#181818;stroke-width:1.0;" x1="722" x2="732" y1="50.26" y2="40.26"/><line style="stroke:#181818;stroke-width:1.0;" x1="16" x2="722" y1="50.26" y2="50.26"/><line style="stroke:#181818;stroke-width:1.0;" x1="722" x2="722" y1="50.26" y2="824.26"/><text fill="#000000" font-family="sans-serif" font-size="11" font-weight="bold" lengthAdjust="spacing" textLength="76" x="332" y="64.6789">Mobile Device</text></g><!--cluster ionicApp--><g id="cluster_ionicApp"><rect fill="#FFFFFF" height="715" rx="2.5" ry="2.5" style="stroke:#181818;stroke-width:1.0;" width="668" x="40" y="85.26"/><rect fill="#FFFFFF" height="10" style="stroke:#181818;stroke-width:1.0;" width="15" x="688" y="90.26"/><rect fill="#FFFFFF" height="2" style="stroke:#181818;stroke-width:1.0;" width="4" x="686" y="92.26"/><rect fill="#FFFFFF" height="2" style="stroke:#181818;stroke-width:1.0;" width="4" x="686" y="96.26"/><text fill="#000000" font-family="sans-serif" font-size="11" font-style="italic" lengthAdjust="spacing" textLength="95" x="326.5" y="109.6789">&#171;Ionic/React:7.0.0&#187;</text><text fill="#000000" font-family="sans-serif" font-size="11" font-weight="bold" lengthAdjust="spacing" textLength="51" x="348.5" y="123.5149">Ionic App</text></g><!--cluster Capacitor--><g id="cluster_Capacitor"><rect fill="#FFFFFF" height="392" rx="2.5" ry="2.5" style="stroke:#181818;stroke-width:1.0;" width="485" x="72" y="376.26"/><rect fill="#FFFFFF" height="10" style="stroke:#181818;stroke-width:1.0;" width="15" x="537" y="381.26"/><rect fill="#FFFFFF" height="2" style="stroke:#181818;stroke-width:1.0;" width="4" x="535" y="383.26"/><rect fill="#FFFFFF" height="2" style="stroke:#181818;stroke-width:1.0;" width="4" x="535" y="387.26"/><text fill="#000000" font-family="sans-serif" font-size="11" font-weight="bold" lengthAdjust="spacing" textLength="52" x="288.5" y="400.6789">Capacitor</text></g><!--cluster NativeBridge--><g id="cluster_NativeBridge"><rect fill="#FFFFFF" height="108" rx="2.5" ry="2.5" style="stroke:#181818;stroke-width:1.0;" width="187" x="284" y="432.26"/><rect fill="#FFFFFF" height="10" style="stroke:#181818;stroke-width:1.0;" width="15" x="451" y="437.26"/><rect fill="#FFFFFF" height="2" style="stroke:#181818;stroke-width:1.0;" width="4" x="449" y="439.26"/><rect fill="#FFFFFF" height="2" style="stroke:#181818;stroke-width:1.0;" width="4" x="449" y="443.26"/><text fill="#000000" font-family="sans-serif" font-size="11" font-weight="bold" lengthAdjust="spacing" textLength="72" x="341.5" y="456.6789">Native Bridge</text></g><!--cluster backend--><g id="cluster_backend"><polygon fill="none" points="756,248.26,766,238.26,1024,238.26,1024,325.26,1014,335.26,756,335.26,756,248.26" style="stroke:#181818;stroke-width:1.0;"/><line style="stroke:#181818;stroke-width:1.0;" x1="1014" x2="1024" y1="248.26" y2="238.26"/><line style="stroke:#181818;stroke-width:1.0;" x1="756" x2="1014" y1="248.26" y2="248.26"/><line style="stroke:#181818;stroke-width:1.0;" x1="1014" x2="1014" y1="248.26" y2="335.26"/><text fill="#000000" font-family="sans-serif" font-size="11" font-weight="bold" lengthAdjust="spacing" textLength="47" x="862.5" y="262.6789">Backend</text></g><!--cluster supabase--><g id="cluster_supabase"><polygon fill="none" points="756,104.26,766,94.26,1212,94.26,1212,181.26,1202,191.26,756,191.26,756,104.26" style="stroke:#181818;stroke-width:1.0;"/><line style="stroke:#181818;stroke-width:1.0;" x1="1202" x2="1212" y1="104.26" y2="94.26"/><line style="stroke:#181818;stroke-width:1.0;" x1="756" x2="1202" y1="104.26" y2="104.26"/><line style="stroke:#181818;stroke-width:1.0;" x1="1202" x2="1202" y1="104.26" y2="191.26"/><text fill="#000000" font-family="sans-serif" font-size="11" font-weight="bold" lengthAdjust="spacing" textLength="54" x="953" y="118.6789">Supabase</text></g><!--entity App--><g id="elem_App"><rect fill="#FFFFFF" height="43.8359" rx="2.5" ry="2.5" style="stroke:#181818;stroke-width:0.5;" width="60" x="632" y="131.26"/><rect fill="#FFFFFF" height="10" style="stroke:#181818;stroke-width:0.5;" width="15" x="672" y="136.26"/><rect fill="#FFFFFF" height="2" style="stroke:#181818;stroke-width:0.5;" width="4" x="670" y="138.26"/><rect fill="#FFFFFF" height="2" style="stroke:#181818;stroke-width:0.5;" width="4" x="670" y="142.26"/><text fill="#000000" font-family="sans-serif" font-size="11" lengthAdjust="spacing" textLength="20" x="647" y="162.6789">App</text></g><!--entity WebView--><g id="elem_WebView"><rect fill="#FFFFFF" height="43.8359" rx="2.5" ry="2.5" style="stroke:#181818;stroke-width:0.5;" width="91" x="567.5" y="275.26"/><rect fill="#FFFFFF" height="10" style="stroke:#181818;stroke-width:0.5;" width="15" x="638.5" y="280.26"/><rect fill="#FFFFFF" height="2" style="stroke:#181818;stroke-width:0.5;" width="4" x="636.5" y="282.26"/><rect fill="#FFFFFF" height="2" style="stroke:#181818;stroke-width:0.5;" width="4" x="636.5" y="286.26"/><text fill="#000000" font-family="sans-serif" font-size="11" lengthAdjust="spacing" textLength="51" x="582.5" y="306.6789">Web View</text></g><!--entity Runtime--><g id="elem_Runtime"><rect fill="#FFFFFF" height="43.8359" rx="2.5" ry="2.5" style="stroke:#181818;stroke-width:0.5;" width="78" x="253" y="595.26"/><rect fill="#FFFFFF" height="10" style="stroke:#181818;stroke-width:0.5;" width="15" x="311" y="600.26"/><rect fill="#FFFFFF" height="2" style="stroke:#181818;stroke-width:0.5;" width="4" x="309" y="602.26"/><rect fill="#FFFFFF" height="2" style="stroke:#181818;stroke-width:0.5;" width="4" x="309" y="606.26"/><text fill="#000000" font-family="sans-serif" font-size="11" lengthAdjust="spacing" textLength="38" x="268" y="626.6789">Runtime</text></g><!--entity CorePlugins--><g id="elem_CorePlugins"><rect fill="#FFFFFF" height="43.8359" rx="2.5" ry="2.5" style="stroke:#181818;stroke-width:0.5;" width="100" x="96" y="700.26"/><rect fill="#FFFFFF" height="10" style="stroke:#181818;stroke-width:0.5;" width="15" x="176" y="705.26"/><rect fill="#FFFFFF" height="2" style="stroke:#181818;stroke-width:0.5;" width="4" x="174" y="707.26"/><rect fill="#FFFFFF" height="2" style="stroke:#181818;stroke-width:0.5;" width="4" x="174" y="711.26"/><text fill="#000000" font-family="sans-serif" font-size="11" lengthAdjust="spacing" textLength="60" x="111" y="731.6789">Core Plugins</text></g><!--entity ThirdPartyPlugins--><g id="elem_ThirdPartyPlugins"><rect fill="#FFFFFF" height="43.8359" rx="2.5" ry="2.5" style="stroke:#181818;stroke-width:0.5;" width="121" x="231.5" y="700.26"/><rect fill="#FFFFFF" height="10" style="stroke:#181818;stroke-width:0.5;" width="15" x="332.5" y="705.26"/><rect fill="#FFFFFF" height="2" style="stroke:#181818;stroke-width:0.5;" width="4" x="330.5" y="707.26"/><rect fill="#FFFFFF" height="2" style="stroke:#181818;stroke-width:0.5;" width="4" x="330.5" y="711.26"/><text fill="#000000" font-family="sans-serif" font-size="11" lengthAdjust="spacing" textLength="81" x="246.5" y="731.6789">3rd Party Plugins</text></g><!--entity CustomNativeCode--><g id="elem_CustomNativeCode"><rect fill="#FFFFFF" height="43.8359" rx="2.5" ry="2.5" style="stroke:#181818;stroke-width:0.5;" width="137" x="387.5" y="700.26"/><rect fill="#FFFFFF" height="10" style="stroke:#181818;stroke-width:0.5;" width="15" x="504.5" y="705.26"/><rect fill="#FFFFFF" height="2" style="stroke:#181818;stroke-width:0.5;" width="4" x="502.5" y="707.26"/><rect fill="#FFFFFF" height="2" style="stroke:#181818;stroke-width:0.5;" width="4" x="502.5" y="711.26"/><text fill="#000000" font-family="sans-serif" font-size="11" lengthAdjust="spacing" textLength="97" x="402.5" y="731.6789">Custom Native Code</text></g><!--entity CapacitorJSAPI--><g id="elem_CapacitorJSAPI"><rect fill="#FFFFFF" height="43.8359" rx="2.5" ry="2.5" style="stroke:#181818;stroke-width:0.5;" width="120" x="327" y="472.26"/><rect fill="#FFFFFF" height="10" style="stroke:#181818;stroke-width:0.5;" width="15" x="427" y="477.26"/><rect fill="#FFFFFF" height="2" style="stroke:#181818;stroke-width:0.5;" width="4" x="425" y="479.26"/><rect fill="#FFFFFF" height="2" style="stroke:#181818;stroke-width:0.5;" width="4" x="425" y="483.26"/><text fill="#000000" font-family="sans-serif" font-size="11" lengthAdjust="spacing" textLength="80" x="342" y="503.6789">Capacitor JS API</text></g><!--entity HardwareAPI--><g id="elem_HardwareAPI"><rect fill="#FFFFFF" height="43.8359" rx="2.5" ry="2.5" style="stroke:#181818;stroke-width:0.5;" width="108" x="584" y="472.26"/><rect fill="#FFFFFF" height="10" style="stroke:#181818;stroke-width:0.5;" width="15" x="672" y="477.26"/><rect fill="#FFFFFF" height="2" style="stroke:#181818;stroke-width:0.5;" width="4" x="670" y="479.26"/><rect fill="#FFFFFF" height="2" style="stroke:#181818;stroke-width:0.5;" width="4" x="670" y="483.26"/><text fill="#000000" font-family="sans-serif" font-size="11" lengthAdjust="spacing" textLength="68" x="599" y="503.6789">Hardware API</text></g><!--entity DeviceOS--><g id="elem_DeviceOS"><rect fill="#FFFFFF" height="43.8359" rx="2.5" ry="2.5" style="stroke:#181818;stroke-width:0.5;" width="91" x="586.5" y="595.26"/><rect fill="#FFFFFF" height="10" style="stroke:#181818;stroke-width:0.5;" width="15" x="657.5" y="600.26"/><rect fill="#FFFFFF" height="2" style="stroke:#181818;stroke-width:0.5;" width="4" x="655.5" y="602.26"/><rect fill="#FFFFFF" height="2" style="stroke:#181818;stroke-width:0.5;" width="4" x="655.5" y="606.26"/><text fill="#000000" font-family="sans-serif" font-size="11" lengthAdjust="spacing" textLength="51" x="601.5" y="626.6789">Device OS</text></g><!--entity expressAPI--><g id="elem_expressAPI"><rect fill="#FFFFFF" height="43.8359" rx="2.5" ry="2.5" style="stroke:#181818;stroke-width:0.5;" width="99" x="772.5" y="275.26"/><rect fill="#FFFFFF" height="10" style="stroke:#181818;stroke-width:0.5;" width="15" x="851.5" y="280.26"/><rect fill="#FFFFFF" height="2" style="stroke:#181818;stroke-width:0.5;" width="4" x="849.5" y="282.26"/><rect fill="#FFFFFF" height="2" style="stroke:#181818;stroke-width:0.5;" width="4" x="849.5" y="286.26"/><text fill="#000000" font-family="sans-serif" font-size="11" lengthAdjust="spacing" textLength="59" x="787.5" y="306.6789">Express API</text></g><!--entity prismaClient--><g id="elem_prismaClient"><rect fill="#FFFFFF" height="43.8359" rx="2.5" ry="2.5" style="stroke:#181818;stroke-width:0.5;" width="101" x="906.5" y="275.26"/><rect fill="#FFFFFF" height="10" style="stroke:#181818;stroke-width:0.5;" width="15" x="987.5" y="280.26"/><rect fill="#FFFFFF" height="2" style="stroke:#181818;stroke-width:0.5;" width="4" x="985.5" y="282.26"/><rect fill="#FFFFFF" height="2" style="stroke:#181818;stroke-width:0.5;" width="4" x="985.5" y="286.26"/><text fill="#000000" font-family="sans-serif" font-size="11" lengthAdjust="spacing" textLength="61" x="921.5" y="306.6789">Prisma Client</text></g><!--entity auth--><g id="elem_auth"><rect fill="#FFFFFF" height="43.8359" rx="2.5" ry="2.5" style="stroke:#181818;stroke-width:0.5;" width="109" x="954.5" y="131.26"/><rect fill="#FFFFFF" height="10" style="stroke:#181818;stroke-width:0.5;" width="15" x="1043.5" y="136.26"/><rect fill="#FFFFFF" height="2" style="stroke:#181818;stroke-width:0.5;" width="4" x="1041.5" y="138.26"/><rect fill="#FFFFFF" height="2" style="stroke:#181818;stroke-width:0.5;" width="4" x="1041.5" y="142.26"/><text fill="#000000" font-family="sans-serif" font-size="11" lengthAdjust="spacing" textLength="69" x="969.5" y="162.6789">Authentication</text></g><!--entity fileStorage--><g id="elem_fileStorage"><rect fill="#FFFFFF" height="43.8359" rx="2.5" ry="2.5" style="stroke:#181818;stroke-width:0.5;" width="97" x="1098.5" y="131.26"/><rect fill="#FFFFFF" height="10" style="stroke:#181818;stroke-width:0.5;" width="15" x="1175.5" y="136.26"/><rect fill="#FFFFFF" height="2" style="stroke:#181818;stroke-width:0.5;" width="4" x="1173.5" y="138.26"/><rect fill="#FFFFFF" height="2" style="stroke:#181818;stroke-width:0.5;" width="4" x="1173.5" y="142.26"/><text fill="#000000" font-family="sans-serif" font-size="11" lengthAdjust="spacing" textLength="57" x="1113.5" y="162.6789">File Storage</text></g><!--entity postgresDB--><g id="elem_postgresDB"><rect fill="#FFFFFF" height="43.8359" rx="2.5" ry="2.5" style="stroke:#181818;stroke-width:0.5;" width="147" x="772.5" y="131.26"/><rect fill="#FFFFFF" height="10" style="stroke:#181818;stroke-width:0.5;" width="15" x="899.5" y="136.26"/><rect fill="#FFFFFF" height="2" style="stroke:#181818;stroke-width:0.5;" width="4" x="897.5" y="138.26"/><rect fill="#FFFFFF" height="2" style="stroke:#181818;stroke-width:0.5;" width="4" x="897.5" y="142.26"/><text fill="#000000" font-family="sans-serif" font-size="11" lengthAdjust="spacing" textLength="107" x="787.5" y="162.6789">PostgreSQL Database</text></g><!--link NativeBridge to Runtime--><g id="link_NativeBridge_Runtime"><path d="M292,540.3892 C292,540.7192 292,541.0498 292,541.381 C292,544.0306 292,546.7193 292,549.4251 C292,554.8367 292,560.3166 292,565.6892 C292,576.4344 292,580.75 292,589.23 " fill="none" id="NativeBridge-to-Runtime" style="stroke:#181818;stroke-width:1.0;"/><polygon fill="#181818" points="292,595.23,296,586.23,292,590.23,288,586.23,292,595.23" style="stroke:#181818;stroke-width:1.0;"/></g><!--link Runtime to CorePlugins--><g id="link_Runtime_CorePlugins"><path d="M262.1,639.35 C236.91,657.13 205.9422,678.9704 180.7622,696.7404 " fill="none" id="Runtime-to-CorePlugins" style="stroke:#181818;stroke-width:1.0;"/><polygon fill="#181818" points="175.86,700.2,185.5197,698.2788,179.9452,697.317,180.9069,691.7425,175.86,700.2" style="stroke:#181818;stroke-width:1.0;"/></g><!--link Runtime to ThirdPartyPlugins--><g id="link_Runtime_ThirdPartyPlugins"><path d="M292,639.6 C292,657.28 292,676.28 292,693.95 " fill="none" id="Runtime-to-ThirdPartyPlugins" style="stroke:#181818;stroke-width:1.0;"/><polygon fill="#181818" points="292,699.95,296,690.95,292,694.95,288,690.95,292,699.95" style="stroke:#181818;stroke-width:1.0;"/></g><!--link Runtime to CustomNativeCode--><g id="link_Runtime_CustomNativeCode"><path d="M325.58,639.35 C353.88,657.13 389.0892,679.2386 417.3792,697.0086 " fill="none" id="Runtime-to-CustomNativeCode" style="stroke:#181818;stroke-width:1.0;"/><polygon fill="#181818" points="422.46,700.2,416.9664,692.0256,418.226,697.5405,412.7111,698.8,422.46,700.2" style="stroke:#181818;stroke-width:1.0;"/></g><!--link App to WebView--><g id="link_App_WebView"><path d="M652.7043,181.1923 C643.4743,207.9623 631.6069,242.3481 622.3469,269.1881 " fill="none" id="App-WebView" style="stroke:#181818;stroke-width:1.0;"/><polygon fill="#181818" points="654.66,175.52,647.9448,182.7246,653.0302,180.2469,655.5079,185.3323,654.66,175.52" style="stroke:#181818;stroke-width:1.0;"/><polygon fill="#181818" points="620.39,274.86,627.1066,267.6567,622.0207,270.1334,619.544,265.0475,620.39,274.86" style="stroke:#181818;stroke-width:1.0;"/></g><!--link WebView to Capacitor--><g id="link_WebView_Capacitor"><path d="M580.0627,323.5142 C568.0127,334.2642 559.7,344.39 553,360.26 C551.585,363.6119 550.329,367.0547 549.2177,370.5647 C548.6621,372.3196 549.7155,368.3012 549.2305,370.0867 " fill="none" id="WebView-Capacitor" style="stroke:#181818;stroke-width:1.0;"/><polygon fill="#181818" points="584.54,319.52,575.1613,322.5265,580.8089,322.8485,580.4869,328.4962,584.54,319.52" style="stroke:#181818;stroke-width:1.0;"/><polygon fill="#181818" points="547.6577,375.8769,553.877,368.2402,548.9684,371.0518,546.1568,366.1431,547.6577,375.8769" style="stroke:#181818;stroke-width:1.0;"/></g><!--link Capacitor to HardwareAPI--><g id="link_Capacitor_HardwareAPI"><path d="M563.0348,494.26 C563.3904,494.26 557.8794,494.26 558.235,494.26 C561.08,494.26 563.925,494.26 566.77,494.26 C572.46,494.26 572.15,494.26 577.84,494.26 " fill="none" id="Capacitor-HardwareAPI" style="stroke:#181818;stroke-width:1.0;"/><polygon fill="#181818" points="557.0348,494.26,566.0348,498.26,562.0348,494.26,566.0348,490.26,557.0348,494.26" style="stroke:#181818;stroke-width:1.0;"/><polygon fill="#181818" points="583.84,494.26,574.84,490.26,578.84,494.26,574.84,498.26,583.84,494.26" style="stroke:#181818;stroke-width:1.0;"/></g><!--link Capacitor to DeviceOS--><g id="link_Capacitor_DeviceOS"><path d="M560.3736,567.8311 C560.701,568.3038 558.1562,564.5171 558.4939,564.9838 C559.1692,565.9172 559.8644,566.8386 560.578,567.748 C563.4322,571.3853 566.5794,574.8294 569.9137,578.0763 C576.5825,584.57 579.0093,586.9444 586.3293,591.8294 " fill="none" id="Capacitor-DeviceOS" style="stroke:#181818;stroke-width:1.0;"/><polygon fill="#181818" points="557.0089,562.8633,558.7441,572.5581,559.8128,567.0031,565.3678,568.0718,557.0089,562.8633" style="stroke:#181818;stroke-width:1.0;"/><polygon fill="#181818" points="591.32,595.16,586.0543,586.837,587.1611,592.3845,581.6135,593.4913,591.32,595.16" style="stroke:#181818;stroke-width:1.0;"/></g><!--link HardwareAPI to DeviceOS--><g id="link_HardwareAPI_DeviceOS"><path d="M636.654,522.3327 C635.564,544.4027 634.4477,566.8874 633.3477,589.0274 " fill="none" id="HardwareAPI-DeviceOS" style="stroke:#181818;stroke-width:1.0;"/><polygon fill="#181818" points="636.95,516.34,632.5109,525.1317,636.7034,521.3339,640.5012,525.5264,636.95,516.34" style="stroke:#181818;stroke-width:1.0;"/><polygon fill="#181818" points="633.05,595.02,637.4917,586.2296,633.2981,590.0262,629.5015,585.8326,633.05,595.02" style="stroke:#181818;stroke-width:1.0;"/></g><!--link App to expressAPI--><g id="link_App_expressAPI"><path d="M690.4373,179.503 C720.6873,206.353 763.453,244.2967 793.653,271.1067 " fill="none" id="App-expressAPI" style="stroke:#000000;stroke-width:1.0;stroke-dasharray:7.0,7.0;"/><polygon fill="#000000" points="685.95,175.52,690.0257,184.486,689.6894,178.8391,695.3363,178.5029,685.95,175.52" style="stroke:#000000;stroke-width:1.0;"/><polygon fill="#000000" points="798.14,275.09,794.0651,266.1237,794.4008,271.7706,788.754,272.1063,798.14,275.09" style="stroke:#000000;stroke-width:1.0;"/><text fill="#000000" font-family="sans-serif" font-size="11" lengthAdjust="spacing" textLength="25" x="739" y="219.6789">HTTP</text></g><!--link postgresDB to prismaClient--><g id="link_postgresDB_prismaClient"><path d="M866.3145,180.2476 C887.2345,207.0176 915.5949,243.2928 936.5749,270.1328 " fill="none" id="postgresDB-prismaClient" style="stroke:#000000;stroke-width:1.0;stroke-dasharray:7.0,7.0;"/><polygon fill="#000000" points="862.62,175.52,865.01,185.0745,865.6988,179.4597,871.3135,180.1484,862.62,175.52" style="stroke:#000000;stroke-width:1.0;"/><polygon fill="#000000" points="940.27,274.86,937.8788,265.3058,937.1908,270.9207,931.5759,270.2326,940.27,274.86" style="stroke:#000000;stroke-width:1.0;"/></g><!--link fileStorage to App--><g id="link_fileStorage_App"><path d="M1140.7499,125.4306 C1132.0299,91.6606 1111.31,34.95 1063.5,17.26 C1033.28,6.08 803.72,6.08 773.5,17.26 C721.1,36.65 689.1565,92.3632 673.7665,125.6732 " fill="none" id="fileStorage-App" style="stroke:#000000;stroke-width:1.0;stroke-dasharray:7.0,7.0;"/><polygon fill="#000000" points="1142.25,131.24,1143.8728,121.5258,1140.9999,126.3988,1136.1269,123.5259,1142.25,131.24" style="stroke:#000000;stroke-width:1.0;"/><polygon fill="#000000" points="671.25,131.12,678.656,124.6276,673.3471,126.581,671.3936,121.2722,671.25,131.12" style="stroke:#000000;stroke-width:1.0;"/></g><!--link auth to App--><g id="link_auth_App"><path d="M1001.5023,125.2971 C991.3023,91.5871 968.14,35.25 919.5,17.26 C889.07,6 803.93,6 773.5,17.26 C721.1,36.65 689.1565,92.3632 673.7665,125.6732 " fill="none" id="auth-App" style="stroke:#000000;stroke-width:1.0;stroke-dasharray:7.0,7.0;"/><polygon fill="#000000" points="1003.24,131.04,1004.4621,121.2673,1001.7919,126.2543,996.8049,123.5842,1003.24,131.04" style="stroke:#000000;stroke-width:1.0;"/><polygon fill="#000000" points="671.25,131.12,678.656,124.6276,673.3471,126.581,671.3936,121.2722,671.25,131.12" style="stroke:#000000;stroke-width:1.0;"/></g><!--link prismaClient to expressAPI--><g id="link_prismaClient_expressAPI"><path d="M900.28,297.26 C888.71,297.26 889.14,297.26 877.57,297.26 " fill="none" id="prismaClient-expressAPI" style="stroke:#000000;stroke-width:1.0;stroke-dasharray:7.0,7.0;"/><polygon fill="#000000" points="906.28,297.26,897.28,293.26,901.28,297.26,897.28,301.26,906.28,297.26" style="stroke:#000000;stroke-width:1.0;"/><polygon fill="#000000" points="871.57,297.26,880.57,301.26,876.57,297.26,880.57,293.26,871.57,297.26" style="stroke:#000000;stroke-width:1.0;"/></g><!--SRC=[xLLRRzem57xFhpZg7jO-a4BNRXDYQ5pN8bXPGzd3j0UJk60rs97Zq7PJ__kExIGaNCRhD14XvFFv-tmklfpuaV68IBA4ZbX6WbEksiH_d4kHyA0ZGY7XQS4KTUAS6D07aeHgGfzLAsHplaGD-FX7vJQhBxZos2yAjPhZE5m454v6OiP22bswOZuz0HB3qY0MWDyEuETduS39ZU3CXrOK6IxJ5XhGQ82PER-Zn5Vr3sxLhKApcUetriZKMhWcw2ytNdVfljCPJ1bzCc8qz1WNA8XsgJea8ZvJGXfPRcruBWY-4iLM5DgI1NDR4ejOO4EtpnaCF6YDRye-1nv29VdhlY3k4gxOqhfFnx2Fsn6ImZXCvep7rY42gRrFyqu6C2PIlPI4amMJWO4Fo3j9hCGoBGpw2soa5hQe1alojt2ZpoKd8Qx4EVKL7f-oXrAXAvLcbdg9b9L3p-_BjCZvUrAbrVQ5l_jaNHCPF16iVRRH6O3suNEPth1RpqYjTUkLTLltua0DpLNKcQIt8v_8RekPpCzZFhq-jWsSBwInau6KBDnylfZwDWChy9gzEFf9epmmMS_iUFkPwJr7aiPnNbbgxIoY0dCiMRmaq0aPceOR6SG2QxTU4f4PYUqvZLDZst4hKGiSC9_eoXeoGMYJrjUFfeVb8EaJyO10Qcz5A68rbzJxDeGkKUiW8el7tRQEqcoTw_vuKpNVJ-cwpKBQK8V6Wz2Fk-u3doofUJsPZ1ld6cywnRHnfNoX1DSfkDhq4se_nUXt4amD7ASGJwF8Q9QB_Xdtr2dqdsCxExQp_wwT7NlLWLvrR4R7PlJFDADnIBYw7mrXHMMCnOIQUr6zk7JVdKuM2VJnAQvTuQz-MQrNhs3Qcu2UFdDEluo7gmk8HIBn0WGiLfBD4hqTPyw0h4Xs9-kWhTF9w0oyNdvHUtp5f31jp1bCHvO4rq9vaL26_FwoqcOAF2enC9YEdAvjRYZrHS3ul0xtatxbepCaV9vWIUf0OwU3BLJ9bpe6-WS0]--></g></svg>