<?xml version="1.0" encoding="us-ascii" standalone="no"?><svg xmlns="http://www.w3.org/2000/svg" xmlns:xlink="http://www.w3.org/1999/xlink" contentStyleType="text/css" height="905px" preserveAspectRatio="none" style="width:1229px;height:905px;background:#FFFFFF;" version="1.1" viewBox="0 0 1229 905" width="1229px" zoomAndPan="magnify"><defs/><g><!--cluster mobileDevice--><g id="cluster_mobileDevice"><polygon fill="none" points="16,47,26,37,732,37,732,878,722,888,16,888,16,47" style="stroke:#181818;stroke-width:1.0;"/><line style="stroke:#181818;stroke-width:1.0;" x1="722" x2="732" y1="47" y2="37"/><line style="stroke:#181818;stroke-width:1.0;" x1="16" x2="722" y1="47" y2="47"/><line style="stroke:#181818;stroke-width:1.0;" x1="722" x2="722" y1="47" y2="888"/><text fill="#000000" font-family="sans-serif" font-size="11" font-weight="bold" lengthAdjust="spacing" textLength="76" x="332" y="61.4189">Mobile Device</text></g><!--cluster ionicApp--><g id="cluster_ionicApp"><rect fill="#FFFFFF" height="782" rx="2.5" ry="2.5" style="stroke:#181818;stroke-width:1.0;" width="668" x="40" y="82"/><rect fill="#FFFFFF" height="10" style="stroke:#181818;stroke-width:1.0;" width="15" x="688" y="87"/><rect fill="#FFFFFF" height="2" style="stroke:#181818;stroke-width:1.0;" width="4" x="686" y="89"/><rect fill="#FFFFFF" height="2" style="stroke:#181818;stroke-width:1.0;" width="4" x="686" y="93"/><text fill="#000000" font-family="sans-serif" font-size="11" font-style="italic" lengthAdjust="spacing" textLength="95" x="326.5" y="106.4189">&#171;Ionic/React:7.0.0&#187;</text><text fill="#000000" font-family="sans-serif" font-size="11" font-weight="bold" lengthAdjust="spacing" textLength="51" x="348.5" y="120.2549">Ionic App</text></g><!--cluster Capacitor--><g id="cluster_Capacitor"><rect fill="#FFFFFF" height="408" rx="2.5" ry="2.5" style="stroke:#181818;stroke-width:1.0;" width="485" x="72" y="424"/><rect fill="#FFFFFF" height="10" style="stroke:#181818;stroke-width:1.0;" width="15" x="537" y="429"/><rect fill="#FFFFFF" height="2" style="stroke:#181818;stroke-width:1.0;" width="4" x="535" y="431"/><rect fill="#FFFFFF" height="2" style="stroke:#181818;stroke-width:1.0;" width="4" x="535" y="435"/><text fill="#000000" font-family="sans-serif" font-size="11" font-weight="bold" lengthAdjust="spacing" textLength="52" x="288.5" y="448.4189">Capacitor</text></g><!--cluster NativeBridge--><g id="cluster_NativeBridge"><rect fill="#FFFFFF" height="124" rx="2.5" ry="2.5" style="stroke:#181818;stroke-width:1.0;" width="187" x="284" y="480"/><rect fill="#FFFFFF" height="10" style="stroke:#181818;stroke-width:1.0;" width="15" x="451" y="485"/><rect fill="#FFFFFF" height="2" style="stroke:#181818;stroke-width:1.0;" width="4" x="449" y="487"/><rect fill="#FFFFFF" height="2" style="stroke:#181818;stroke-width:1.0;" width="4" x="449" y="491"/><text fill="#000000" font-family="sans-serif" font-size="11" font-weight="bold" lengthAdjust="spacing" textLength="72" x="341.5" y="504.4189">Native Bridge</text></g><!--cluster backend--><g id="cluster_backend"><polygon fill="none" points="756,275,766,265,1024,265,1024,373,1014,383,756,383,756,275" style="stroke:#181818;stroke-width:1.0;"/><line style="stroke:#181818;stroke-width:1.0;" x1="1014" x2="1024" y1="275" y2="265"/><line style="stroke:#181818;stroke-width:1.0;" x1="756" x2="1014" y1="275" y2="275"/><line style="stroke:#181818;stroke-width:1.0;" x1="1014" x2="1014" y1="275" y2="383"/><text fill="#000000" font-family="sans-serif" font-size="11" font-weight="bold" lengthAdjust="spacing" textLength="47" x="862.5" y="289.4189">Backend</text></g><!--cluster supabase--><g id="cluster_supabase"><polygon fill="none" points="756,110,766,100,1212,100,1212,208,1202,218,756,218,756,110" style="stroke:#181818;stroke-width:1.0;"/><line style="stroke:#181818;stroke-width:1.0;" x1="1202" x2="1212" y1="110" y2="100"/><line style="stroke:#181818;stroke-width:1.0;" x1="756" x2="1202" y1="110" y2="110"/><line style="stroke:#181818;stroke-width:1.0;" x1="1202" x2="1202" y1="110" y2="218"/><text fill="#000000" font-family="sans-serif" font-size="11" font-weight="bold" lengthAdjust="spacing" textLength="54" x="953" y="124.4189">Supabase</text></g><!--entity App--><g id="elem_App"><rect fill="#FFFFFF" height="43.8359" rx="2.5" ry="2.5" style="stroke:#181818;stroke-width:0.5;" width="60" x="632" y="158"/><rect fill="#FFFFFF" height="10" style="stroke:#181818;stroke-width:0.5;" width="15" x="672" y="163"/><rect fill="#FFFFFF" height="2" style="stroke:#181818;stroke-width:0.5;" width="4" x="670" y="165"/><rect fill="#FFFFFF" height="2" style="stroke:#181818;stroke-width:0.5;" width="4" x="670" y="169"/><text fill="#000000" font-family="sans-serif" font-size="11" lengthAdjust="spacing" textLength="20" x="647" y="189.4189">App</text></g><!--entity WebView--><g id="elem_WebView"><rect fill="#FFFFFF" height="43.8359" rx="2.5" ry="2.5" style="stroke:#181818;stroke-width:0.5;" width="91" x="567.5" y="323"/><rect fill="#FFFFFF" height="10" style="stroke:#181818;stroke-width:0.5;" width="15" x="638.5" y="328"/><rect fill="#FFFFFF" height="2" style="stroke:#181818;stroke-width:0.5;" width="4" x="636.5" y="330"/><rect fill="#FFFFFF" height="2" style="stroke:#181818;stroke-width:0.5;" width="4" x="636.5" y="334"/><text fill="#000000" font-family="sans-serif" font-size="11" lengthAdjust="spacing" textLength="51" x="582.5" y="354.4189">Web View</text></g><!--entity Runtime--><g id="elem_Runtime"><rect fill="#FFFFFF" height="43.8359" rx="2.5" ry="2.5" style="stroke:#181818;stroke-width:0.5;" width="78" x="253" y="659"/><rect fill="#FFFFFF" height="10" style="stroke:#181818;stroke-width:0.5;" width="15" x="311" y="664"/><rect fill="#FFFFFF" height="2" style="stroke:#181818;stroke-width:0.5;" width="4" x="309" y="666"/><rect fill="#FFFFFF" height="2" style="stroke:#181818;stroke-width:0.5;" width="4" x="309" y="670"/><text fill="#000000" font-family="sans-serif" font-size="11" lengthAdjust="spacing" textLength="38" x="268" y="690.4189">Runtime</text></g><!--entity CorePlugins--><g id="elem_CorePlugins"><rect fill="#FFFFFF" height="43.8359" rx="2.5" ry="2.5" style="stroke:#181818;stroke-width:0.5;" width="100" x="96" y="764"/><rect fill="#FFFFFF" height="10" style="stroke:#181818;stroke-width:0.5;" width="15" x="176" y="769"/><rect fill="#FFFFFF" height="2" style="stroke:#181818;stroke-width:0.5;" width="4" x="174" y="771"/><rect fill="#FFFFFF" height="2" style="stroke:#181818;stroke-width:0.5;" width="4" x="174" y="775"/><text fill="#000000" font-family="sans-serif" font-size="11" lengthAdjust="spacing" textLength="60" x="111" y="795.4189">Core Plugins</text></g><!--entity ThirdPartyPlugins--><g id="elem_ThirdPartyPlugins"><rect fill="#FFFFFF" height="43.8359" rx="2.5" ry="2.5" style="stroke:#181818;stroke-width:0.5;" width="121" x="231.5" y="764"/><rect fill="#FFFFFF" height="10" style="stroke:#181818;stroke-width:0.5;" width="15" x="332.5" y="769"/><rect fill="#FFFFFF" height="2" style="stroke:#181818;stroke-width:0.5;" width="4" x="330.5" y="771"/><rect fill="#FFFFFF" height="2" style="stroke:#181818;stroke-width:0.5;" width="4" x="330.5" y="775"/><text fill="#000000" font-family="sans-serif" font-size="11" lengthAdjust="spacing" textLength="81" x="246.5" y="795.4189">3rd Party Plugins</text></g><!--entity CustomNativeCode--><g id="elem_CustomNativeCode"><rect fill="#FFFFFF" height="43.8359" rx="2.5" ry="2.5" style="stroke:#181818;stroke-width:0.5;" width="137" x="387.5" y="764"/><rect fill="#FFFFFF" height="10" style="stroke:#181818;stroke-width:0.5;" width="15" x="504.5" y="769"/><rect fill="#FFFFFF" height="2" style="stroke:#181818;stroke-width:0.5;" width="4" x="502.5" y="771"/><rect fill="#FFFFFF" height="2" style="stroke:#181818;stroke-width:0.5;" width="4" x="502.5" y="775"/><text fill="#000000" font-family="sans-serif" font-size="11" lengthAdjust="spacing" textLength="97" x="402.5" y="795.4189">Custom Native Code</text></g><!--entity CapacitorJSAPI--><g id="elem_CapacitorJSAPI"><rect fill="#FFFFFF" height="43.8359" rx="2.5" ry="2.5" style="stroke:#181818;stroke-width:0.5;" width="120" x="327" y="536"/><rect fill="#FFFFFF" height="10" style="stroke:#181818;stroke-width:0.5;" width="15" x="427" y="541"/><rect fill="#FFFFFF" height="2" style="stroke:#181818;stroke-width:0.5;" width="4" x="425" y="543"/><rect fill="#FFFFFF" height="2" style="stroke:#181818;stroke-width:0.5;" width="4" x="425" y="547"/><text fill="#000000" font-family="sans-serif" font-size="11" lengthAdjust="spacing" textLength="80" x="342" y="567.4189">Capacitor JS API</text></g><!--entity HardwareAPI--><g id="elem_HardwareAPI"><rect fill="#FFFFFF" height="43.8359" rx="2.5" ry="2.5" style="stroke:#181818;stroke-width:0.5;" width="108" x="584" y="536"/><rect fill="#FFFFFF" height="10" style="stroke:#181818;stroke-width:0.5;" width="15" x="672" y="541"/><rect fill="#FFFFFF" height="2" style="stroke:#181818;stroke-width:0.5;" width="4" x="670" y="543"/><rect fill="#FFFFFF" height="2" style="stroke:#181818;stroke-width:0.5;" width="4" x="670" y="547"/><text fill="#000000" font-family="sans-serif" font-size="11" lengthAdjust="spacing" textLength="68" x="599" y="567.4189">Hardware API</text></g><!--entity DeviceOS--><g id="elem_DeviceOS"><rect fill="#FFFFFF" height="43.8359" rx="2.5" ry="2.5" style="stroke:#181818;stroke-width:0.5;" width="91" x="586.5" y="659"/><rect fill="#FFFFFF" height="10" style="stroke:#181818;stroke-width:0.5;" width="15" x="657.5" y="664"/><rect fill="#FFFFFF" height="2" style="stroke:#181818;stroke-width:0.5;" width="4" x="655.5" y="666"/><rect fill="#FFFFFF" height="2" style="stroke:#181818;stroke-width:0.5;" width="4" x="655.5" y="670"/><text fill="#000000" font-family="sans-serif" font-size="11" lengthAdjust="spacing" textLength="51" x="601.5" y="690.4189">Device OS</text></g><!--entity expressAPI--><g id="elem_expressAPI"><rect fill="#FFFFFF" height="43.8359" rx="2.5" ry="2.5" style="stroke:#181818;stroke-width:0.5;" width="99" x="772.5" y="323"/><rect fill="#FFFFFF" height="10" style="stroke:#181818;stroke-width:0.5;" width="15" x="851.5" y="328"/><rect fill="#FFFFFF" height="2" style="stroke:#181818;stroke-width:0.5;" width="4" x="849.5" y="330"/><rect fill="#FFFFFF" height="2" style="stroke:#181818;stroke-width:0.5;" width="4" x="849.5" y="334"/><text fill="#000000" font-family="sans-serif" font-size="11" lengthAdjust="spacing" textLength="59" x="787.5" y="354.4189">Express API</text></g><!--entity prismaClient--><g id="elem_prismaClient"><rect fill="#FFFFFF" height="43.8359" rx="2.5" ry="2.5" style="stroke:#181818;stroke-width:0.5;" width="101" x="906.5" y="323"/><rect fill="#FFFFFF" height="10" style="stroke:#181818;stroke-width:0.5;" width="15" x="987.5" y="328"/><rect fill="#FFFFFF" height="2" style="stroke:#181818;stroke-width:0.5;" width="4" x="985.5" y="330"/><rect fill="#FFFFFF" height="2" style="stroke:#181818;stroke-width:0.5;" width="4" x="985.5" y="334"/><text fill="#000000" font-family="sans-serif" font-size="11" lengthAdjust="spacing" textLength="61" x="921.5" y="354.4189">Prisma Client</text></g><!--entity auth--><g id="elem_auth"><rect fill="#FFFFFF" height="43.8359" rx="2.5" ry="2.5" style="stroke:#181818;stroke-width:0.5;" width="109" x="954.5" y="158"/><rect fill="#FFFFFF" height="10" style="stroke:#181818;stroke-width:0.5;" width="15" x="1043.5" y="163"/><rect fill="#FFFFFF" height="2" style="stroke:#181818;stroke-width:0.5;" width="4" x="1041.5" y="165"/><rect fill="#FFFFFF" height="2" style="stroke:#181818;stroke-width:0.5;" width="4" x="1041.5" y="169"/><text fill="#000000" font-family="sans-serif" font-size="11" lengthAdjust="spacing" textLength="69" x="969.5" y="189.4189">Authentication</text></g><!--entity fileStorage--><g id="elem_fileStorage"><rect fill="#FFFFFF" height="43.8359" rx="2.5" ry="2.5" style="stroke:#181818;stroke-width:0.5;" width="97" x="1098.5" y="158"/><rect fill="#FFFFFF" height="10" style="stroke:#181818;stroke-width:0.5;" width="15" x="1175.5" y="163"/><rect fill="#FFFFFF" height="2" style="stroke:#181818;stroke-width:0.5;" width="4" x="1173.5" y="165"/><rect fill="#FFFFFF" height="2" style="stroke:#181818;stroke-width:0.5;" width="4" x="1173.5" y="169"/><text fill="#000000" font-family="sans-serif" font-size="11" lengthAdjust="spacing" textLength="57" x="1113.5" y="189.4189">File Storage</text></g><!--entity postgresDB--><g id="elem_postgresDB"><rect fill="#FFFFFF" height="43.8359" rx="2.5" ry="2.5" style="stroke:#181818;stroke-width:0.5;" width="147" x="772.5" y="158"/><rect fill="#FFFFFF" height="10" style="stroke:#181818;stroke-width:0.5;" width="15" x="899.5" y="163"/><rect fill="#FFFFFF" height="2" style="stroke:#181818;stroke-width:0.5;" width="4" x="897.5" y="165"/><rect fill="#FFFFFF" height="2" style="stroke:#181818;stroke-width:0.5;" width="4" x="897.5" y="169"/><text fill="#000000" font-family="sans-serif" font-size="11" lengthAdjust="spacing" textLength="107" x="787.5" y="189.4189">PostgreSQL Database</text></g><!--link NativeBridge to Runtime--><g id="link_NativeBridge_Runtime"><path d="M292,604.1292 C292,604.4592 292,604.7898 292,605.121 C292,607.7706 292,610.4593 292,613.1651 C292,618.5767 292,624.0566 292,629.4292 C292,640.1744 292,644.49 292,652.97 " fill="none" id="NativeBridge-to-Runtime" style="stroke:#181818;stroke-width:1.0;"/><polygon fill="#181818" points="292,658.97,296,649.97,292,653.97,288,649.97,292,658.97" style="stroke:#181818;stroke-width:1.0;"/></g><!--link Runtime to CorePlugins--><g id="link_Runtime_CorePlugins"><path d="M262.1,703.09 C236.91,720.87 205.9422,742.7104 180.7622,760.4804 " fill="none" id="Runtime-to-CorePlugins" style="stroke:#181818;stroke-width:1.0;"/><polygon fill="#181818" points="175.86,763.94,185.5197,762.0188,179.9452,761.057,180.9069,755.4825,175.86,763.94" style="stroke:#181818;stroke-width:1.0;"/></g><!--link Runtime to ThirdPartyPlugins--><g id="link_Runtime_ThirdPartyPlugins"><path d="M292,703.34 C292,721.02 292,740.02 292,757.69 " fill="none" id="Runtime-to-ThirdPartyPlugins" style="stroke:#181818;stroke-width:1.0;"/><polygon fill="#181818" points="292,763.69,296,754.69,292,758.69,288,754.69,292,763.69" style="stroke:#181818;stroke-width:1.0;"/></g><!--link Runtime to CustomNativeCode--><g id="link_Runtime_CustomNativeCode"><path d="M325.58,703.09 C353.88,720.87 389.0892,742.9786 417.3792,760.7486 " fill="none" id="Runtime-to-CustomNativeCode" style="stroke:#181818;stroke-width:1.0;"/><polygon fill="#181818" points="422.46,763.94,416.9664,755.7656,418.226,761.2805,412.7111,762.54,422.46,763.94" style="stroke:#181818;stroke-width:1.0;"/></g><!--link App to WebView--><g id="link_App_WebView"><path d="M653.8636,208.0563 C644.4536,239.3763 630.4268,286.0139 621.0568,317.1939 " fill="none" id="App-WebView" style="stroke:#181818;stroke-width:1.0;"/><polygon fill="#181818" points="655.59,202.31,649.1695,209.7784,654.1513,207.0985,656.8312,212.0803,655.59,202.31" style="stroke:#181818;stroke-width:1.0;"/><polygon fill="#181818" points="619.33,322.94,625.751,315.472,620.769,318.1515,618.0894,313.1696,619.33,322.94" style="stroke:#181818;stroke-width:1.0;"/></g><!--link WebView to Capacitor--><g id="link_WebView_Capacitor"><path d="M580.0411,371.2424 C567.9811,381.9924 559.68,392.12 553,408 C551.4206,411.7575 550.0204,415.6166 548.7833,419.5507 C548.4741,420.5342 548.175,421.5224 547.8859,422.5149 C547.8136,422.763 549.3903,417.2422 549.3193,417.4909 " fill="none" id="WebView-Capacitor" style="stroke:#181818;stroke-width:1.0;"/><polygon fill="#181818" points="584.52,367.25,575.14,370.2527,580.7876,370.577,580.4632,376.2246,584.52,367.25" style="stroke:#181818;stroke-width:1.0;"/><polygon fill="#181818" points="547.6709,423.26,553.9896,415.7053,549.0446,418.4524,546.2974,413.5074,547.6709,423.26" style="stroke:#181818;stroke-width:1.0;"/></g><!--link Capacitor to HardwareAPI--><g id="link_Capacitor_HardwareAPI"><path d="M563.0348,558 C563.3904,558 557.8794,558 558.235,558 C561.08,558 563.925,558 566.77,558 C572.46,558 572.15,558 577.84,558 " fill="none" id="Capacitor-HardwareAPI" style="stroke:#181818;stroke-width:1.0;"/><polygon fill="#181818" points="557.0348,558,566.0348,562,562.0348,558,566.0348,554,557.0348,558" style="stroke:#181818;stroke-width:1.0;"/><polygon fill="#181818" points="583.84,558,574.84,554,578.84,558,574.84,562,583.84,558" style="stroke:#181818;stroke-width:1.0;"/></g><!--link Capacitor to DeviceOS--><g id="link_Capacitor_DeviceOS"><path d="M560.3736,631.5711 C560.701,632.0438 558.1562,628.2571 558.4939,628.7238 C559.1692,629.6572 559.8644,630.5786 560.578,631.488 C563.4322,635.1253 566.5794,638.5694 569.9137,641.8163 C576.5825,648.31 579.0093,650.6844 586.3293,655.5694 " fill="none" id="Capacitor-DeviceOS" style="stroke:#181818;stroke-width:1.0;"/><polygon fill="#181818" points="557.0089,626.6033,558.7441,636.2981,559.8128,630.7431,565.3678,631.8118,557.0089,626.6033" style="stroke:#181818;stroke-width:1.0;"/><polygon fill="#181818" points="591.32,658.9,586.0543,650.577,587.1611,656.1245,581.6135,657.2313,591.32,658.9" style="stroke:#181818;stroke-width:1.0;"/></g><!--link HardwareAPI to DeviceOS--><g id="link_HardwareAPI_DeviceOS"><path d="M636.654,586.0727 C635.564,608.1427 634.4477,630.6274 633.3477,652.7674 " fill="none" id="HardwareAPI-DeviceOS" style="stroke:#181818;stroke-width:1.0;"/><polygon fill="#181818" points="636.95,580.08,632.5109,588.8717,636.7034,585.0739,640.5012,589.2664,636.95,580.08" style="stroke:#181818;stroke-width:1.0;"/><polygon fill="#181818" points="633.05,658.76,637.4917,649.9696,633.2981,653.7662,629.5015,649.5726,633.05,658.76" style="stroke:#181818;stroke-width:1.0;"/></g><!--link App to expressAPI--><g id="link_App_expressAPI"><path d="M687.1235,206.5914 C717.8735,237.9114 766.5274,287.4777 797.1274,318.6577 " fill="none" id="App-expressAPI" style="stroke:#000000;stroke-width:1.0;stroke-dasharray:7.0,7.0;"/><polygon fill="#000000" points="682.92,202.31,686.371,211.5345,686.4229,205.8779,692.0795,205.9298,682.92,202.31" style="stroke:#000000;stroke-width:1.0;"/><polygon fill="#000000" points="801.33,322.94,797.8809,313.7148,797.8278,319.3714,792.1712,319.3183,801.33,322.94" style="stroke:#000000;stroke-width:1.0;"/><text fill="#000000" font-family="sans-serif" font-size="11" lengthAdjust="spacing" textLength="32" x="729" y="246.4189">HTTPS</text></g><!--link postgresDB to prismaClient--><g id="link_postgresDB_prismaClient"><path d="M863.8874,207.2692 C885.2174,238.5892 918.0531,286.8005 939.2831,317.9805 " fill="none" id="postgresDB-prismaClient" style="stroke:#000000;stroke-width:1.0;stroke-dasharray:7.0,7.0;"/><polygon fill="#000000" points="860.51,202.31,862.2699,212.0003,863.3245,206.4426,868.8822,207.4972,860.51,202.31" style="stroke:#000000;stroke-width:1.0;"/><polygon fill="#000000" points="942.66,322.94,940.9011,313.2495,939.8459,318.8071,934.2884,317.752,942.66,322.94" style="stroke:#000000;stroke-width:1.0;"/></g><!--link fileStorage to App--><g id="link_fileStorage_App"><path d="M1141.6753,152.0258 C1134.8753,121.7458 1119.2,74.37 1081,51 C1019.39,13.32 820.37,18.26 756,51 C711.91,73.43 685.9624,121.7847 672.8724,152.3447 " fill="none" id="fileStorage-App" style="stroke:#000000;stroke-width:1.0;stroke-dasharray:7.0,7.0;"/><polygon fill="#000000" points="1142.99,157.88,1144.9208,148.2223,1141.8944,153.0015,1137.1152,149.9752,1142.99,157.88" style="stroke:#000000;stroke-width:1.0;"/><polygon fill="#000000" points="670.51,157.86,677.7305,151.1619,672.4787,153.2639,670.3767,148.012,670.51,157.86" style="stroke:#000000;stroke-width:1.0;"/><text fill="#000000" font-family="sans-serif" font-size="11" lengthAdjust="spacing" textLength="32" x="956" y="18.4189">HTTPS</text></g><!--link auth to App--><g id="link_auth_App"><path d="M1002.4273,152.0171 C994.2373,121.6571 976.37,74.11 937,51 C867.63,10.27 827.7,14.53 756,51 C711.91,73.43 685.9624,121.7847 672.8724,152.3447 " fill="none" id="auth-App" style="stroke:#000000;stroke-width:1.0;stroke-dasharray:7.0,7.0;"/><polygon fill="#000000" points="1003.99,157.81,1005.5079,148.0788,1002.6877,152.9826,997.784,150.1624,1003.99,157.81" style="stroke:#000000;stroke-width:1.0;"/><polygon fill="#000000" points="670.51,157.86,677.7305,151.1619,672.4787,153.2639,670.3767,148.012,670.51,157.86" style="stroke:#000000;stroke-width:1.0;"/><text fill="#000000" font-family="sans-serif" font-size="11" lengthAdjust="spacing" textLength="32" x="807" y="18.4189">HTTPS</text></g><!--link prismaClient to expressAPI--><g id="link_prismaClient_expressAPI"><path d="M900.28,345 C888.71,345 889.14,345 877.57,345 " fill="none" id="prismaClient-expressAPI" style="stroke:#000000;stroke-width:1.0;stroke-dasharray:7.0,7.0;"/><polygon fill="#000000" points="906.28,345,897.28,341,901.28,345,897.28,349,906.28,345" style="stroke:#000000;stroke-width:1.0;"/><polygon fill="#000000" points="871.57,345,880.57,349,876.57,345,880.57,341,871.57,345" style="stroke:#000000;stroke-width:1.0;"/></g><!--SRC=[xLLBRzf04BxxLupIGvC33gH9Mo6AoYjD43Gq9lHGzR3O6rZ5x5hhDKbQvRztTjSsDe-ISuI5qCxCzyrh7nC_C1uHIHRG4Oj8SCfLc_WFCoaI7dH4A2GypfcYJfm30tfFab2DwPDgXMp65yW17_-et4HT2guyzeT2hUOu3XS1XQEXcBAGGfSkcK-FWCImC1ghWByEuETdwS3HjU3CXrOK6IpJ4WhGQ82ndDvIuglw9xVgLg7PJFbhFZAs9gu0-ik5bssydtGA4qOV3Ha5lKO71T8sLeT4n6TAI4FBfRN81S9tejYIGbkoO6PROZLMiSRR5Gpw7hH6r-MOVGzL9VhBhYHk4wxOmePFrx0Bsn6ImYXCPep7DY0gKdaNvuCCO4IaUYuHntCc0wFUG-yaiHABj34OBx2PMhNLQcM9_XwkzRda94HFd5DVuV4fHoWrkb9fPgMNG5axj7rNfKNC_uigUTkL_lQJTKLay4Ymzzb6PmgKzv_Bz8RTU8PgfHklpDku5tjwQAwYhYIz7RaXkot6c9_7tBmwjWsq5yhOYa18bcvkBvQ-YS0El6GlZdxIA0zCrLExtdncUa-Hf76STvPQESkeW1n95Yy8T4A6ei56HcCLgx1U4f4fYUqvZLDXCt0hKNDSC9_epXemGTKwx58_cXwsWwHFn3qgKdaZGn6hcQJUZm5qYLeb4Lbzt6thBCtMkUwlTrNp_PQksooK3NLet0lzkEivyCM2cbVZySXhd6f3qodMZQvoJmawMiM2ZKYXZbJ8_nMXjhhGVNe5rt4ALJMAFfhbhVkA9yCfJB73K3mCnJSt50yJRy_4EuoqmqXxOoDj51AkxeO3M58PuvP0pJshdfsx7ux7ymGkyK6lNU2lVbwjLozWqXk3Dfyunzz6W-KPn2AHU8q25Yl9fedUr1EdJvOakzbrqDBnU7W2NY-_xZs-P5AOOUZq9qCBWYkXl4We0_vuNcap1HwLc1XCXaxNZaYa-Y9WV5Q7k_5bvRCp87oMO5lhG6EdWuDOoUSw9leF]--></g></svg>