<?xml version="1.0" encoding="us-ascii" standalone="no"?><svg xmlns="http://www.w3.org/2000/svg" xmlns:xlink="http://www.w3.org/1999/xlink" contentStyleType="text/css" height="68px" preserveAspectRatio="none" style="width:365px;height:68px;background:#FFFFFF;" version="1.1" viewBox="0 0 365 68" width="365px" zoomAndPan="magnify"><defs/><g><path d="M8.5,6 L50.5,6 A3.75,3.75 0 0 1 53,8.5 L60,29.6094 L64.5,29.6094 A2.5,2.5 0 0 1 67,32.1094 L67,58.7188 A2.5,2.5 0 0 1 64.5,61.2188 L8.5,61.2188 A2.5,2.5 0 0 1 6,58.7188 L6,8.5 A2.5,2.5 0 0 1 8.5,6 " fill="#FFB3BA" style="stroke:#181818;stroke-width:0.5;"/><line style="stroke:#181818;stroke-width:0.5;" x1="6" x2="60" y1="29.6094" y2="29.6094"/><text fill="#000000" font-family="sans-serif" font-size="14" font-weight="bold" lengthAdjust="spacing" textLength="41" x="10" y="22.5332">Views</text><path d="M129.5,6 L209.5,6 A3.75,3.75 0 0 1 212,8.5 L219,29.6094 L223.5,29.6094 A2.5,2.5 0 0 1 226,32.1094 L226,58.7188 A2.5,2.5 0 0 1 223.5,61.2188 L129.5,61.2188 A2.5,2.5 0 0 1 127,58.7188 L127,8.5 A2.5,2.5 0 0 1 129.5,6 " fill="#BAFFC9" style="stroke:#181818;stroke-width:0.5;"/><line style="stroke:#181818;stroke-width:0.5;" x1="127" x2="219" y1="29.6094" y2="29.6094"/><text fill="#000000" font-family="sans-serif" font-size="14" font-weight="bold" lengthAdjust="spacing" textLength="79" x="131" y="22.5332">Controllers</text><path d="M288.5,6 L341.5,6 A3.75,3.75 0 0 1 344,8.5 L351,29.6094 L355.5,29.6094 A2.5,2.5 0 0 1 358,32.1094 L358,58.7188 A2.5,2.5 0 0 1 355.5,61.2188 L288.5,61.2188 A2.5,2.5 0 0 1 286,58.7188 L286,8.5 A2.5,2.5 0 0 1 288.5,6 " fill="#FFFFBA" style="stroke:#181818;stroke-width:0.5;"/><line style="stroke:#181818;stroke-width:0.5;" x1="286" x2="351" y1="29.6094" y2="29.6094"/><text fill="#000000" font-family="sans-serif" font-size="14" font-weight="bold" lengthAdjust="spacing" textLength="52" x="290" y="22.5332">Models</text><!--link Views to Controllers--><g id="link_Views_Controllers"><path codeLine="8" d="M67.1,33.5 C84.53,33.5 100.99,33.5 120.95,33.5 " fill="none" id="Views-to-Controllers" style="stroke:#181818;stroke-width:1.0;stroke-dasharray:7.0,7.0;"/><polygon fill="#181818" points="126.95,33.5,117.95,29.5,121.95,33.5,117.95,37.5,126.95,33.5" style="stroke:#181818;stroke-width:1.0;"/></g><!--link Controllers to Models--><g id="link_Controllers_Models"><path codeLine="9" d="M226.08,33.5 C245.6,33.5 261.67,33.5 279.62,33.5 " fill="none" id="Controllers-to-Models" style="stroke:#181818;stroke-width:1.0;stroke-dasharray:7.0,7.0;"/><polygon fill="#181818" points="285.62,33.5,276.62,29.5,280.62,33.5,276.62,37.5,285.62,33.5" style="stroke:#181818;stroke-width:1.0;"/></g><!--SRC=[JSon3i8m34NHtLzXYRqB4miBCokxaph5gfjKZX52Y7ydfHBAui5NvzLPyaf62rP_ARTh4lsnA2WdHozeCjqTHp6EBYK3h1HdcXXlmi-AXvJ2CT3xy_zVIdOhgcoj1aefdhfwBIFhZpMuCTXtXk7SI-XNjhOx-080]--></g></svg>