<?xml version="1.0" encoding="us-ascii" standalone="no"?><svg xmlns="http://www.w3.org/2000/svg" xmlns:xlink="http://www.w3.org/1999/xlink" contentStyleType="text/css" height="1172px" preserveAspectRatio="none" style="width:1058px;height:1172px;background:#FFFFFF;" version="1.1" viewBox="0 0 1058 1172" width="1058px" zoomAndPan="magnify"><defs/><g><!--cluster frontend--><g id="cluster_frontend"><polygon fill="none" points="117,6,171,6,178,25.8359,1041,25.8359,1041,1165,117,1165,117,6" style="stroke:#000000;stroke-width:1.5;"/><line style="stroke:#000000;stroke-width:1.5;" x1="117" x2="178" y1="25.8359" y2="25.8359"/><text fill="#000000" font-family="sans-serif" font-size="11" font-weight="bold" lengthAdjust="spacing" textLength="48" x="121" y="19.4189">frontend</text><text fill="#000000" font-family="sans-serif" font-size="11" font-style="italic" lengthAdjust="spacing" textLength="108" x="529" y="39.2549">&#171;React Native:0.76.6&#187;</text></g><!--entity addEventView--><g id="elem_addEventView"><path d="M149,590.8359 L149,614.8359 M149,602.8359 L166,602.8359 " fill="none" style="stroke:#181818;stroke-width:0.5;"/><ellipse cx="178" cy="602.8359" fill="#F1F1F1" rx="12" ry="12" style="stroke:#181818;stroke-width:0.5;"/><text fill="#000000" font-family="sans-serif" font-size="11" lengthAdjust="spacing" textLength="73" x="133" y="630.2549">AddEventView</text><text fill="#000000" font-family="sans-serif" font-size="11" font-style="italic" lengthAdjust="spacing" textLength="33" x="153" y="584.4189">&#171;TSX&#187;</text></g><!--entity AddDefaultView--><g id="elem_AddDefaultView"><path d="M303,1106.8359 L303,1130.8359 M303,1118.8359 L320,1118.8359 " fill="none" style="stroke:#181818;stroke-width:0.5;"/><ellipse cx="332" cy="1118.8359" fill="#F1F1F1" rx="12" ry="12" style="stroke:#181818;stroke-width:0.5;"/><text fill="#000000" font-family="sans-serif" font-size="11" lengthAdjust="spacing" textLength="80" x="283.5" y="1146.2549">AddDefaultView</text><text fill="#000000" font-family="sans-serif" font-size="11" font-style="italic" lengthAdjust="spacing" textLength="33" x="307" y="1100.4189">&#171;TSX&#187;</text></g><!--entity AddDateView--><g id="elem_AddDateView"><path d="M303,1011.8359 L303,1035.8359 M303,1023.8359 L320,1023.8359 " fill="none" style="stroke:#181818;stroke-width:0.5;"/><ellipse cx="332" cy="1023.8359" fill="#F1F1F1" rx="12" ry="12" style="stroke:#181818;stroke-width:0.5;"/><text fill="#000000" font-family="sans-serif" font-size="11" lengthAdjust="spacing" textLength="68" x="289.5" y="1051.2549">AddDateView</text><text fill="#000000" font-family="sans-serif" font-size="11" font-style="italic" lengthAdjust="spacing" textLength="33" x="307" y="1005.4189">&#171;TSX&#187;</text></g><!--entity ChooseCategoriesView--><g id="elem_ChooseCategoriesView"><path d="M303,916.8359 L303,940.8359 M303,928.8359 L320,928.8359 " fill="none" style="stroke:#181818;stroke-width:0.5;"/><ellipse cx="332" cy="928.8359" fill="#F1F1F1" rx="12" ry="12" style="stroke:#181818;stroke-width:0.5;"/><text fill="#000000" font-family="sans-serif" font-size="11" lengthAdjust="spacing" textLength="115" x="266" y="956.2549">ChooseCategoriesView</text><text fill="#000000" font-family="sans-serif" font-size="11" font-style="italic" lengthAdjust="spacing" textLength="33" x="307" y="910.4189">&#171;TSX&#187;</text></g><!--entity React--><g id="elem_React"><rect fill="#F1F1F1" height="57.6719" rx="2.5" ry="2.5" style="stroke:#181818;stroke-width:0.5;" width="87" x="280" y="806"/><rect fill="#F1F1F1" height="10" style="stroke:#181818;stroke-width:0.5;" width="15" x="347" y="811"/><rect fill="#F1F1F1" height="2" style="stroke:#181818;stroke-width:0.5;" width="4" x="345" y="813"/><rect fill="#F1F1F1" height="2" style="stroke:#181818;stroke-width:0.5;" width="4" x="345" y="817"/><text fill="#000000" font-family="sans-serif" font-size="11" font-style="italic" lengthAdjust="spacing" textLength="47" x="295" y="837.4189">&#171;Library&#187;</text><text fill="#000000" font-family="sans-serif" font-size="11" lengthAdjust="spacing" textLength="25" x="306" y="851.2549">react</text></g><!--entity useState--><g id="elem_useState"><rect fill="#F1F1F1" height="57.6719" rx="2.5" ry="2.5" style="stroke:#181818;stroke-width:0.5;" width="83" x="467" y="719"/><rect fill="#F1F1F1" height="10" style="stroke:#181818;stroke-width:0.5;" width="15" x="530" y="724"/><rect fill="#F1F1F1" height="2" style="stroke:#181818;stroke-width:0.5;" width="4" x="528" y="726"/><rect fill="#F1F1F1" height="2" style="stroke:#181818;stroke-width:0.5;" width="4" x="528" y="730"/><text fill="#000000" font-family="sans-serif" font-size="11" font-style="italic" lengthAdjust="spacing" textLength="38" x="484.5" y="750.4189">&#171;Hook&#187;</text><text fill="#000000" font-family="sans-serif" font-size="11" lengthAdjust="spacing" textLength="43" x="482" y="764.2549">useState</text></g><!--entity ReactRouter--><g id="elem_ReactRouter"><rect fill="#F1F1F1" height="57.6719" rx="2.5" ry="2.5" style="stroke:#181818;stroke-width:0.5;" width="98" x="274.5" y="713"/><rect fill="#F1F1F1" height="10" style="stroke:#181818;stroke-width:0.5;" width="15" x="352.5" y="718"/><rect fill="#F1F1F1" height="2" style="stroke:#181818;stroke-width:0.5;" width="4" x="350.5" y="720"/><rect fill="#F1F1F1" height="2" style="stroke:#181818;stroke-width:0.5;" width="4" x="350.5" y="724"/><text fill="#000000" font-family="sans-serif" font-size="11" font-style="italic" lengthAdjust="spacing" textLength="47" x="295" y="744.4189">&#171;Library&#187;</text><text fill="#000000" font-family="sans-serif" font-size="11" lengthAdjust="spacing" textLength="58" x="289.5" y="758.2549">react-router</text></g><!--entity useHistory--><g id="elem_useHistory"><rect fill="#F1F1F1" height="57.6719" rx="2.5" ry="2.5" style="stroke:#181818;stroke-width:0.5;" width="92" x="462.5" y="626"/><rect fill="#F1F1F1" height="10" style="stroke:#181818;stroke-width:0.5;" width="15" x="534.5" y="631"/><rect fill="#F1F1F1" height="2" style="stroke:#181818;stroke-width:0.5;" width="4" x="532.5" y="633"/><rect fill="#F1F1F1" height="2" style="stroke:#181818;stroke-width:0.5;" width="4" x="532.5" y="637"/><text fill="#000000" font-family="sans-serif" font-size="11" font-style="italic" lengthAdjust="spacing" textLength="38" x="484.5" y="657.4189">&#171;Hook&#187;</text><text fill="#000000" font-family="sans-serif" font-size="11" lengthAdjust="spacing" textLength="52" x="477.5" y="671.2549">useHistory</text></g><!--entity IonicReact--><g id="elem_IonicReact"><rect fill="#F1F1F1" height="57.6719" rx="2.5" ry="2.5" style="stroke:#181818;stroke-width:0.5;" width="90" x="278.5" y="620"/><rect fill="#F1F1F1" height="10" style="stroke:#181818;stroke-width:0.5;" width="15" x="348.5" y="625"/><rect fill="#F1F1F1" height="2" style="stroke:#181818;stroke-width:0.5;" width="4" x="346.5" y="627"/><rect fill="#F1F1F1" height="2" style="stroke:#181818;stroke-width:0.5;" width="4" x="346.5" y="631"/><text fill="#000000" font-family="sans-serif" font-size="11" font-style="italic" lengthAdjust="spacing" textLength="47" x="295" y="651.4189">&#171;Library&#187;</text><text fill="#000000" font-family="sans-serif" font-size="11" lengthAdjust="spacing" textLength="50" x="293.5" y="665.2549">ionic/react</text></g><!--entity IonImg--><g id="elem_IonImg"><rect fill="#F1F1F1" height="57.6719" rx="2.5" ry="2.5" style="stroke:#181818;stroke-width:0.5;" width="108" x="454.5" y="533"/><rect fill="#F1F1F1" height="10" style="stroke:#181818;stroke-width:0.5;" width="15" x="542.5" y="538"/><rect fill="#F1F1F1" height="2" style="stroke:#181818;stroke-width:0.5;" width="4" x="540.5" y="540"/><rect fill="#F1F1F1" height="2" style="stroke:#181818;stroke-width:0.5;" width="4" x="540.5" y="544"/><text fill="#000000" font-family="sans-serif" font-size="11" font-style="italic" lengthAdjust="spacing" textLength="68" x="469.5" y="564.4189">&#171;Component&#187;</text><text fill="#000000" font-family="sans-serif" font-size="11" lengthAdjust="spacing" textLength="30" x="488.5" y="578.2549">IonImg</text></g><!--entity IonText--><g id="elem_IonText"><rect fill="#F1F1F1" height="57.6719" rx="2.5" ry="2.5" style="stroke:#181818;stroke-width:0.5;" width="108" x="454.5" y="440"/><rect fill="#F1F1F1" height="10" style="stroke:#181818;stroke-width:0.5;" width="15" x="542.5" y="445"/><rect fill="#F1F1F1" height="2" style="stroke:#181818;stroke-width:0.5;" width="4" x="540.5" y="447"/><rect fill="#F1F1F1" height="2" style="stroke:#181818;stroke-width:0.5;" width="4" x="540.5" y="451"/><text fill="#000000" font-family="sans-serif" font-size="11" font-style="italic" lengthAdjust="spacing" textLength="68" x="469.5" y="471.4189">&#171;Component&#187;</text><text fill="#000000" font-family="sans-serif" font-size="11" lengthAdjust="spacing" textLength="35" x="486" y="485.2549">IonText</text></g><!--entity ReactI18next--><g id="elem_ReactI18next"><rect fill="#F1F1F1" height="57.6719" rx="2.5" ry="2.5" style="stroke:#181818;stroke-width:0.5;" width="104" x="271.5" y="527"/><rect fill="#F1F1F1" height="10" style="stroke:#181818;stroke-width:0.5;" width="15" x="355.5" y="532"/><rect fill="#F1F1F1" height="2" style="stroke:#181818;stroke-width:0.5;" width="4" x="353.5" y="534"/><rect fill="#F1F1F1" height="2" style="stroke:#181818;stroke-width:0.5;" width="4" x="353.5" y="538"/><text fill="#000000" font-family="sans-serif" font-size="11" font-style="italic" lengthAdjust="spacing" textLength="47" x="295" y="558.4189">&#171;Library&#187;</text><text fill="#000000" font-family="sans-serif" font-size="11" lengthAdjust="spacing" textLength="64" x="286.5" y="572.2549">react-i18next</text></g><!--entity useTranslation--><g id="elem_useTranslation"><rect fill="#F1F1F1" height="57.6719" rx="2.5" ry="2.5" style="stroke:#181818;stroke-width:0.5;" width="111" x="453" y="347"/><rect fill="#F1F1F1" height="10" style="stroke:#181818;stroke-width:0.5;" width="15" x="544" y="352"/><rect fill="#F1F1F1" height="2" style="stroke:#181818;stroke-width:0.5;" width="4" x="542" y="354"/><rect fill="#F1F1F1" height="2" style="stroke:#181818;stroke-width:0.5;" width="4" x="542" y="358"/><text fill="#000000" font-family="sans-serif" font-size="11" font-style="italic" lengthAdjust="spacing" textLength="38" x="484.5" y="378.4189">&#171;Hook&#187;</text><text fill="#000000" font-family="sans-serif" font-size="11" lengthAdjust="spacing" textLength="71" x="468" y="392.2549">useTranslation</text></g><!--entity Modal--><g id="elem_Modal"><path d="M303,449.8359 L303,473.8359 M303,461.8359 L320,461.8359 " fill="none" style="stroke:#181818;stroke-width:0.5;"/><ellipse cx="332" cy="461.8359" fill="#F1F1F1" rx="12" ry="12" style="stroke:#181818;stroke-width:0.5;"/><text fill="#000000" font-family="sans-serif" font-size="11" lengthAdjust="spacing" textLength="28" x="309.5" y="489.2549">Modal</text><text fill="#000000" font-family="sans-serif" font-size="11" font-style="italic" lengthAdjust="spacing" textLength="115" x="266" y="443.4189">&#171;Custom Components&#187;</text></g><!--entity AppHeader--><g id="elem_AppHeader"><path d="M303,354.8359 L303,378.8359 M303,366.8359 L320,366.8359 " fill="none" style="stroke:#181818;stroke-width:0.5;"/><ellipse cx="332" cy="366.8359" fill="#F1F1F1" rx="12" ry="12" style="stroke:#181818;stroke-width:0.5;"/><text fill="#000000" font-family="sans-serif" font-size="11" lengthAdjust="spacing" textLength="55" x="296" y="394.2549">AppHeader</text><text fill="#000000" font-family="sans-serif" font-size="11" font-style="italic" lengthAdjust="spacing" textLength="115" x="266" y="348.4189">&#171;Custom Components&#187;</text></g><!--entity useCurrentLocation--><g id="elem_useCurrentLocation"><rect fill="#F1F1F1" height="57.6719" rx="2.5" ry="2.5" style="stroke:#181818;stroke-width:0.5;" width="135" x="441" y="1091"/><rect fill="#F1F1F1" height="10" style="stroke:#181818;stroke-width:0.5;" width="15" x="556" y="1096"/><rect fill="#F1F1F1" height="2" style="stroke:#181818;stroke-width:0.5;" width="4" x="554" y="1098"/><rect fill="#F1F1F1" height="2" style="stroke:#181818;stroke-width:0.5;" width="4" x="554" y="1102"/><text fill="#000000" font-family="sans-serif" font-size="11" font-style="italic" lengthAdjust="spacing" textLength="85" x="461" y="1122.4189">&#171;Custom Hooks&#187;</text><text fill="#000000" font-family="sans-serif" font-size="11" lengthAdjust="spacing" textLength="95" x="456" y="1136.2549">useCurrentLocation</text></g><!--entity CapacitorGeolocation--><g id="elem_CapacitorGeolocation"><rect fill="#F1F1F1" height="57.6719" rx="2.5" ry="2.5" style="stroke:#181818;stroke-width:0.5;" width="154" x="667" y="1091"/><rect fill="#F1F1F1" height="10" style="stroke:#181818;stroke-width:0.5;" width="15" x="801" y="1096"/><rect fill="#F1F1F1" height="2" style="stroke:#181818;stroke-width:0.5;" width="4" x="799" y="1098"/><rect fill="#F1F1F1" height="2" style="stroke:#181818;stroke-width:0.5;" width="4" x="799" y="1102"/><text fill="#000000" font-family="sans-serif" font-size="11" font-style="italic" lengthAdjust="spacing" textLength="47" x="715.5" y="1122.4189">&#171;Library&#187;</text><text fill="#000000" font-family="sans-serif" font-size="11" lengthAdjust="spacing" textLength="114" x="682" y="1136.2549">@capacitor/geolocation</text></g><!--entity Geolocation--><g id="elem_Geolocation"><rect fill="#F1F1F1" height="57.6719" rx="2.5" ry="2.5" style="stroke:#181818;stroke-width:0.5;" width="108" x="914.5" y="1091"/><rect fill="#F1F1F1" height="10" style="stroke:#181818;stroke-width:0.5;" width="15" x="1002.5" y="1096"/><rect fill="#F1F1F1" height="2" style="stroke:#181818;stroke-width:0.5;" width="4" x="1000.5" y="1098"/><rect fill="#F1F1F1" height="2" style="stroke:#181818;stroke-width:0.5;" width="4" x="1000.5" y="1102"/><text fill="#000000" font-family="sans-serif" font-size="11" font-style="italic" lengthAdjust="spacing" textLength="68" x="929.5" y="1122.4189">&#171;Component&#187;</text><text fill="#000000" font-family="sans-serif" font-size="11" lengthAdjust="spacing" textLength="57" x="935" y="1136.2549">Geolocation</text></g><!--entity useImagePicker--><g id="elem_useImagePicker"><rect fill="#F1F1F1" height="57.6719" rx="2.5" ry="2.5" style="stroke:#181818;stroke-width:0.5;" width="125" x="446" y="998"/><rect fill="#F1F1F1" height="10" style="stroke:#181818;stroke-width:0.5;" width="15" x="551" y="1003"/><rect fill="#F1F1F1" height="2" style="stroke:#181818;stroke-width:0.5;" width="4" x="549" y="1005"/><rect fill="#F1F1F1" height="2" style="stroke:#181818;stroke-width:0.5;" width="4" x="549" y="1009"/><text fill="#000000" font-family="sans-serif" font-size="11" font-style="italic" lengthAdjust="spacing" textLength="85" x="461" y="1029.4189">&#171;Custom Hooks&#187;</text><text fill="#000000" font-family="sans-serif" font-size="11" lengthAdjust="spacing" textLength="75" x="466" y="1043.2549">useImagePicker</text></g><!--entity CapacitorCamera--><g id="elem_CapacitorCamera"><rect fill="#F1F1F1" height="57.6719" rx="2.5" ry="2.5" style="stroke:#181818;stroke-width:0.5;" width="135" x="676.5" y="998"/><rect fill="#F1F1F1" height="10" style="stroke:#181818;stroke-width:0.5;" width="15" x="791.5" y="1003"/><rect fill="#F1F1F1" height="2" style="stroke:#181818;stroke-width:0.5;" width="4" x="789.5" y="1005"/><rect fill="#F1F1F1" height="2" style="stroke:#181818;stroke-width:0.5;" width="4" x="789.5" y="1009"/><text fill="#000000" font-family="sans-serif" font-size="11" font-style="italic" lengthAdjust="spacing" textLength="47" x="715.5" y="1029.4189">&#171;Library&#187;</text><text fill="#000000" font-family="sans-serif" font-size="11" lengthAdjust="spacing" textLength="95" x="691.5" y="1043.2549">@capacitor/camera</text></g><!--entity Camera--><g id="elem_Camera"><rect fill="#F1F1F1" height="57.6719" rx="2.5" ry="2.5" style="stroke:#181818;stroke-width:0.5;" width="108" x="914.5" y="998"/><rect fill="#F1F1F1" height="10" style="stroke:#181818;stroke-width:0.5;" width="15" x="1002.5" y="1003"/><rect fill="#F1F1F1" height="2" style="stroke:#181818;stroke-width:0.5;" width="4" x="1000.5" y="1005"/><rect fill="#F1F1F1" height="2" style="stroke:#181818;stroke-width:0.5;" width="4" x="1000.5" y="1009"/><text fill="#000000" font-family="sans-serif" font-size="11" font-style="italic" lengthAdjust="spacing" textLength="68" x="929.5" y="1029.4189">&#171;Component&#187;</text><text fill="#000000" font-family="sans-serif" font-size="11" lengthAdjust="spacing" textLength="37" x="945" y="1043.2549">Camera</text></g><!--entity useFilePicker--><g id="elem_useFilePicker"><rect fill="#F1F1F1" height="57.6719" rx="2.5" ry="2.5" style="stroke:#181818;stroke-width:0.5;" width="125" x="446" y="905"/><rect fill="#F1F1F1" height="10" style="stroke:#181818;stroke-width:0.5;" width="15" x="551" y="910"/><rect fill="#F1F1F1" height="2" style="stroke:#181818;stroke-width:0.5;" width="4" x="549" y="912"/><rect fill="#F1F1F1" height="2" style="stroke:#181818;stroke-width:0.5;" width="4" x="549" y="916"/><text fill="#000000" font-family="sans-serif" font-size="11" font-style="italic" lengthAdjust="spacing" textLength="85" x="461" y="936.4189">&#171;Custom Hooks&#187;</text><text fill="#000000" font-family="sans-serif" font-size="11" lengthAdjust="spacing" textLength="63" x="472" y="950.2549">useFilePicker</text></g><!--entity CapacitorFilePicker--><g id="elem_CapacitorFilePicker"><rect fill="#F1F1F1" height="57.6719" rx="2.5" ry="2.5" style="stroke:#181818;stroke-width:0.5;" width="216" x="636" y="905"/><rect fill="#F1F1F1" height="10" style="stroke:#181818;stroke-width:0.5;" width="15" x="832" y="910"/><rect fill="#F1F1F1" height="2" style="stroke:#181818;stroke-width:0.5;" width="4" x="830" y="912"/><rect fill="#F1F1F1" height="2" style="stroke:#181818;stroke-width:0.5;" width="4" x="830" y="916"/><text fill="#000000" font-family="sans-serif" font-size="11" font-style="italic" lengthAdjust="spacing" textLength="47" x="715.5" y="936.4189">&#171;Library&#187;</text><text fill="#000000" font-family="sans-serif" font-size="11" lengthAdjust="spacing" textLength="176" x="651" y="950.2549">@capawesome/capacitor-file-picker</text></g><!--entity FilePicker--><g id="elem_FilePicker"><rect fill="#F1F1F1" height="57.6719" rx="2.5" ry="2.5" style="stroke:#181818;stroke-width:0.5;" width="108" x="914.5" y="905"/><rect fill="#F1F1F1" height="10" style="stroke:#181818;stroke-width:0.5;" width="15" x="1002.5" y="910"/><rect fill="#F1F1F1" height="2" style="stroke:#181818;stroke-width:0.5;" width="4" x="1000.5" y="912"/><rect fill="#F1F1F1" height="2" style="stroke:#181818;stroke-width:0.5;" width="4" x="1000.5" y="916"/><text fill="#000000" font-family="sans-serif" font-size="11" font-style="italic" lengthAdjust="spacing" textLength="68" x="929.5" y="936.4189">&#171;Component&#187;</text><text fill="#000000" font-family="sans-serif" font-size="11" lengthAdjust="spacing" textLength="45" x="941" y="950.2549">FilePicker</text></g><!--entity useAudioRecorder--><g id="elem_useAudioRecorder"><rect fill="#F1F1F1" height="57.6719" rx="2.5" ry="2.5" style="stroke:#181818;stroke-width:0.5;" width="131" x="443" y="812"/><rect fill="#F1F1F1" height="10" style="stroke:#181818;stroke-width:0.5;" width="15" x="554" y="817"/><rect fill="#F1F1F1" height="2" style="stroke:#181818;stroke-width:0.5;" width="4" x="552" y="819"/><rect fill="#F1F1F1" height="2" style="stroke:#181818;stroke-width:0.5;" width="4" x="552" y="823"/><text fill="#000000" font-family="sans-serif" font-size="11" font-style="italic" lengthAdjust="spacing" textLength="85" x="461" y="843.4189">&#171;Custom Hooks&#187;</text><text fill="#000000" font-family="sans-serif" font-size="11" lengthAdjust="spacing" textLength="91" x="458" y="857.2549">useAudioRecorder</text></g><!--entity CapacitorVoiceRecorder--><g id="elem_CapacitorVoiceRecorder"><rect fill="#F1F1F1" height="57.6719" rx="2.5" ry="2.5" style="stroke:#181818;stroke-width:0.5;" width="161" x="663.5" y="812"/><rect fill="#F1F1F1" height="10" style="stroke:#181818;stroke-width:0.5;" width="15" x="804.5" y="817"/><rect fill="#F1F1F1" height="2" style="stroke:#181818;stroke-width:0.5;" width="4" x="802.5" y="819"/><rect fill="#F1F1F1" height="2" style="stroke:#181818;stroke-width:0.5;" width="4" x="802.5" y="823"/><text fill="#000000" font-family="sans-serif" font-size="11" font-style="italic" lengthAdjust="spacing" textLength="47" x="715.5" y="843.4189">&#171;Library&#187;</text><text fill="#000000" font-family="sans-serif" font-size="11" lengthAdjust="spacing" textLength="121" x="678.5" y="857.2549">capacitor-voice-recorder</text></g><!--entity VoiceRecorder--><g id="elem_VoiceRecorder"><rect fill="#F1F1F1" height="57.6719" rx="2.5" ry="2.5" style="stroke:#181818;stroke-width:0.5;" width="113" x="912" y="812"/><rect fill="#F1F1F1" height="10" style="stroke:#181818;stroke-width:0.5;" width="15" x="1005" y="817"/><rect fill="#F1F1F1" height="2" style="stroke:#181818;stroke-width:0.5;" width="4" x="1003" y="819"/><rect fill="#F1F1F1" height="2" style="stroke:#181818;stroke-width:0.5;" width="4" x="1003" y="823"/><text fill="#000000" font-family="sans-serif" font-size="11" font-style="italic" lengthAdjust="spacing" textLength="68" x="929.5" y="843.4189">&#171;Component&#187;</text><text fill="#000000" font-family="sans-serif" font-size="11" lengthAdjust="spacing" textLength="73" x="927" y="857.2549">VoiceRecorder</text></g><!--entity AddEventController--><g id="elem_AddEventController"><ellipse cx="323.5" cy="271.8359" fill="#F1F1F1" rx="12" ry="12" style="stroke:#181818;stroke-width:0.5;"/><polygon fill="#181818" points="319.5,259.8359,325.5,254.8359,323.5,259.8359,325.5,264.8359,319.5,259.8359" style="stroke:#181818;stroke-width:1.0;"/><text fill="#000000" font-family="sans-serif" font-size="11" lengthAdjust="spacing" textLength="93" x="277" y="299.2549">AddEventController</text><text fill="#000000" font-family="sans-serif" font-size="11" font-style="italic" lengthAdjust="spacing" textLength="26" x="310.5" y="253.4189">&#171;TS&#187;</text></g><!--entity LocationController--><g id="elem_LocationController"><ellipse cx="323.5" cy="176.8359" fill="#F1F1F1" rx="12" ry="12" style="stroke:#181818;stroke-width:0.5;"/><polygon fill="#181818" points="319.5,164.8359,325.5,159.8359,323.5,164.8359,325.5,169.8359,319.5,164.8359" style="stroke:#181818;stroke-width:1.0;"/><text fill="#000000" font-family="sans-serif" font-size="11" lengthAdjust="spacing" textLength="87" x="280" y="204.2549">LocationController</text><text fill="#000000" font-family="sans-serif" font-size="11" font-style="italic" lengthAdjust="spacing" textLength="26" x="310.5" y="158.4189">&#171;TS&#187;</text></g><!--entity FileController--><g id="elem_FileController"><ellipse cx="323.5" cy="81.8359" fill="#F1F1F1" rx="12" ry="12" style="stroke:#181818;stroke-width:0.5;"/><polygon fill="#181818" points="319.5,69.8359,325.5,64.8359,323.5,69.8359,325.5,74.8359,319.5,69.8359" style="stroke:#181818;stroke-width:1.0;"/><text fill="#000000" font-family="sans-serif" font-size="11" lengthAdjust="spacing" textLength="62" x="292.5" y="109.2549">FileController</text><text fill="#000000" font-family="sans-serif" font-size="11" font-style="italic" lengthAdjust="spacing" textLength="26" x="310.5" y="63.4189">&#171;TS&#187;</text></g><!--entity EventModel--><g id="elem_EventModel"><ellipse cx="508.5" cy="271.8359" fill="#F1F1F1" rx="12" ry="12" style="stroke:#181818;stroke-width:0.5;"/><line style="stroke:#181818;stroke-width:0.5;" x1="496.5" x2="520.5" y1="285.8359" y2="285.8359"/><text fill="#000000" font-family="sans-serif" font-size="11" lengthAdjust="spacing" textLength="55" x="481" y="299.2549">EventModel</text><text fill="#000000" font-family="sans-serif" font-size="11" font-style="italic" lengthAdjust="spacing" textLength="26" x="495.5" y="253.4189">&#171;TS&#187;</text></g><!--entity LocationModel--><g id="elem_LocationModel"><ellipse cx="508.5" cy="176.8359" fill="#F1F1F1" rx="12" ry="12" style="stroke:#181818;stroke-width:0.5;"/><line style="stroke:#181818;stroke-width:0.5;" x1="496.5" x2="520.5" y1="190.8359" y2="190.8359"/><text fill="#000000" font-family="sans-serif" font-size="11" lengthAdjust="spacing" textLength="69" x="474" y="204.2549">LocationModel</text><text fill="#000000" font-family="sans-serif" font-size="11" font-style="italic" lengthAdjust="spacing" textLength="26" x="495.5" y="158.4189">&#171;TS&#187;</text></g><!--entity UserReg--><g id="elem_UserReg"><ellipse cx="39.5" cy="567.5" fill="#F1F1F1" rx="8" ry="8" style="stroke:#181818;stroke-width:0.5;"/><path d="M39.5,575.5 L39.5,602.5 M26.5,583.5 L52.5,583.5 M39.5,602.5 L26.5,617.5 M39.5,602.5 L52.5,617.5 " fill="none" style="stroke:#181818;stroke-width:0.5;"/><text fill="#000000" font-family="sans-serif" font-size="11" lengthAdjust="spacing" textLength="67" x="6" y="630.4189">Authenticated</text><text fill="#000000" font-family="sans-serif" font-size="11" lengthAdjust="spacing" textLength="23" x="28" y="644.2549">User</text></g><!--link addEventView to AddDefaultView--><g id="link_addEventView_AddDefaultView"><path d="M170.06,633.04 C170.22,711.04 179.17,924.13 266,1071 C270.52,1078.64 272.3144,1081.576 278.9444,1087.736 " fill="none" id="addEventView-to-AddDefaultView" style="stroke:#181818;stroke-width:1.0;"/><polygon fill="#181818" points="283.34,1091.82,279.4693,1082.7636,279.677,1088.4167,274.024,1088.6244,283.34,1091.82" style="stroke:#181818;stroke-width:1.0;"/></g><!--link addEventView to AddDateView--><g id="link_addEventView_AddDateView"><path d="M172.09,633.21 C176.85,699.97 195.41,863.06 266,976 C272.07,985.71 276.1424,990.6368 284.8824,997.9268 " fill="none" id="addEventView-to-AddDateView" style="stroke:#181818;stroke-width:1.0;"/><polygon fill="#181818" points="289.49,1001.77,285.1407,992.9335,285.6503,998.5673,280.0165,999.077,289.49,1001.77" style="stroke:#181818;stroke-width:1.0;"/></g><!--link addEventView to ChooseCategoriesView--><g id="link_addEventView_ChooseCategoriesView"><path d="M175.45,633.36 C185.36,687.17 211.5,801.12 266,881 C270.35,887.38 271.434,889.2528 277.174,894.7428 " fill="none" id="addEventView-to-ChooseCategoriesView" style="stroke:#181818;stroke-width:1.0;"/><polygon fill="#181818" points="281.51,898.89,277.7708,889.7786,277.8967,895.434,272.2412,895.5599,281.51,898.89" style="stroke:#181818;stroke-width:1.0;"/></g><!--link addEventView to ReactRouter--><g id="link_addEventView_ReactRouter"><path d="M200.93,633.41 C219.43,651.62 243.7,675.03 266,695 C272.56,700.87 275.0976,703.1287 282.0076,708.9387 " fill="none" id="addEventView-to-ReactRouter" style="stroke:#181818;stroke-width:1.0;"/><polygon fill="#181818" points="286.6,712.8,282.2856,703.9464,282.773,709.5822,277.1372,710.0696,286.6,712.8" style="stroke:#181818;stroke-width:1.0;"/></g><!--link addEventView to IonicReact--><g id="link_addEventView_IonicReact"><path d="M206.14,613.78 C227.72,620.32 249.6873,626.9617 272.6473,633.9117 " fill="none" id="addEventView-to-IonicReact" style="stroke:#181818;stroke-width:1.0;"/><polygon fill="#181818" points="278.39,635.65,270.9349,629.2141,273.6044,634.2014,268.6171,636.871,278.39,635.65" style="stroke:#181818;stroke-width:1.0;"/></g><!--link ReactRouter to useHistory--><g id="link_ReactRouter_useHistory"><path d="M372.58,719.14 C400.33,705.95 429.5908,692.0354 456.8408,679.0854 " fill="none" id="ReactRouter-to-useHistory" style="stroke:#181818;stroke-width:1.0;"/><polygon fill="#181818" points="462.26,676.51,452.4143,676.7602,457.744,678.6561,455.8481,683.9858,462.26,676.51" style="stroke:#181818;stroke-width:1.0;"/></g><!--link IonicReact to IonImg--><g id="link_IonicReact_IonImg"><path d="M368.8,627.94 C394.61,615.67 421.9014,602.6967 449.0714,589.7767 " fill="none" id="IonicReact-to-IonImg" style="stroke:#181818;stroke-width:1.0;"/><polygon fill="#181818" points="454.49,587.2,444.6444,587.4526,449.9745,589.3472,448.0799,594.6774,454.49,587.2" style="stroke:#181818;stroke-width:1.0;"/></g><!--link IonicReact to IonText--><g id="link_IonicReact_IonText"><path d="M362.58,619.78 C369.01,614.17 375.41,608.12 381,602 C412.68,567.32 407.81,548.24 441,515 C446.95,509.04 448.9783,506.961 455.9183,501.731 " fill="none" id="IonicReact-to-IonText" style="stroke:#181818;stroke-width:1.0;"/><polygon fill="#181818" points="460.71,498.12,451.1151,500.3421,456.7169,501.1292,455.9298,506.731,460.71,498.12" style="stroke:#181818;stroke-width:1.0;"/></g><!--link addEventView to ReactI18next--><g id="link_addEventView_ReactI18next"><path d="M206.14,591.98 C225.53,585.98 244.1275,580.2315 265.5175,573.6215 " fill="none" id="addEventView-to-ReactI18next" style="stroke:#181818;stroke-width:1.0;"/><polygon fill="#181818" points="271.25,571.85,261.4702,570.6855,266.4729,573.3262,263.8322,578.3289,271.25,571.85" style="stroke:#181818;stroke-width:1.0;"/></g><!--link addEventView to React--><g id="link_addEventView_React"><path d="M181.63,633.02 C196.82,671.51 226.73,739.11 266,788 C271.03,794.27 272.5448,796.2922 278.6948,801.8122 " fill="none" id="addEventView-to-React" style="stroke:#181818;stroke-width:1.0;"/><polygon fill="#181818" points="283.16,805.82,279.1341,796.8316,279.439,802.4802,273.7904,802.7851,283.16,805.82" style="stroke:#181818;stroke-width:1.0;"/></g><!--link addEventView to Modal--><g id="link_addEventView_Modal"><path d="M199.99,572.71 C218.55,553.96 243.23,529.61 266,509 C272.15,503.43 274.2344,501.5294 280.7644,496.0194 " fill="none" id="addEventView-to-Modal" style="stroke:#181818;stroke-width:1.0;"/><polygon fill="#181818" points="285.35,492.15,275.892,494.8969,281.5286,495.3745,281.0511,501.0111,285.35,492.15" style="stroke:#181818;stroke-width:1.0;"/></g><!--link addEventView to AppHeader--><g id="link_addEventView_AppHeader"><path d="M181.23,572.99 C196.19,533.77 226.04,464.19 266,414 C270.69,408.11 271.7923,406.4891 277.5223,401.2491 " fill="none" id="addEventView-to-AppHeader" style="stroke:#181818;stroke-width:1.0;"/><polygon fill="#181818" points="281.95,397.2,272.609,400.3218,278.2602,400.5742,278.0078,406.2255,281.95,397.2" style="stroke:#181818;stroke-width:1.0;"/></g><!--link AddDefaultView to useImagePicker--><g id="link_AddDefaultView_useImagePicker"><path d="M363.76,1099.26 C388.75,1086.7 416.2092,1072.8948 444.1792,1058.8348 " fill="none" id="AddDefaultView-to-useImagePicker" style="stroke:#181818;stroke-width:1.0;"/><polygon fill="#181818" points="449.54,1056.14,439.7023,1056.6083,445.0727,1058.3856,443.2953,1063.756,449.54,1056.14" style="stroke:#181818;stroke-width:1.0;"/></g><!--link AddDefaultView to useFilePicker--><g id="link_AddDefaultView_useFilePicker"><path d="M362.96,1088.91 C369.28,1083.25 375.54,1077.17 381,1071 C413.12,1034.73 407.13,1014.63 441,980 C446.89,973.98 448.8841,971.8688 455.8141,966.6288 " fill="none" id="AddDefaultView-to-useFilePicker" style="stroke:#181818;stroke-width:1.0;"/><polygon fill="#181818" points="460.6,963.01,451.0087,965.2476,456.6118,966.0256,455.8337,971.6287,460.6,963.01" style="stroke:#181818;stroke-width:1.0;"/></g><!--link AddDefaultView to useAudioRecorder--><g id="link_AddDefaultView_useAudioRecorder"><path d="M363.56,1090.85 C370.04,1084.86 376.2,1078.16 381,1071 C428.92,999.57 389.6,955.97 441,887 C445.61,880.81 446.6889,878.977 452.7989,873.917 " fill="none" id="AddDefaultView-to-useAudioRecorder" style="stroke:#181818;stroke-width:1.0;"/><polygon fill="#181818" points="457.42,870.09,447.9371,872.7497,453.5691,873.2791,453.0397,878.9112,457.42,870.09" style="stroke:#181818;stroke-width:1.0;"/></g><!--link AddDefaultView to useCurrentLocation--><g id="link_AddDefaultView_useCurrentLocation"><path d="M363.76,1119.21 C386.23,1119.34 409.0301,1119.4553 434.9401,1119.6053 " fill="none" id="AddDefaultView-to-useCurrentLocation" style="stroke:#181818;stroke-width:1.0;"/><polygon fill="#181818" points="440.94,1119.64,431.9633,1115.588,435.9401,1119.6111,431.917,1123.5878,440.94,1119.64" style="stroke:#181818;stroke-width:1.0;"/></g><!--link useAudioRecorder to CapacitorVoiceRecorder--><g id="link_useAudioRecorder_CapacitorVoiceRecorder"><path d="M574.23,841 C601.77,841 628.15,841 657.15,841 " fill="none" id="useAudioRecorder-to-CapacitorVoiceRecorder" style="stroke:#181818;stroke-width:1.0;"/><polygon fill="#181818" points="663.15,841,654.15,837,658.15,841,654.15,845,663.15,841" style="stroke:#181818;stroke-width:1.0;"/></g><!--link CapacitorVoiceRecorder to VoiceRecorder--><g id="link_CapacitorVoiceRecorder_VoiceRecorder"><path d="M824.7,841 C853.5,841 879.38,841 905.7,841 " fill="none" id="CapacitorVoiceRecorder-to-VoiceRecorder" style="stroke:#181818;stroke-width:1.0;"/><polygon fill="#181818" points="911.7,841,902.7,837,906.7,841,902.7,845,911.7,841" style="stroke:#181818;stroke-width:1.0;"/></g><!--link useFilePicker to CapacitorFilePicker--><g id="link_useFilePicker_CapacitorFilePicker"><path d="M571.15,934 C591.02,934 607.64,934 629.8,934 " fill="none" id="useFilePicker-to-CapacitorFilePicker" style="stroke:#181818;stroke-width:1.0;"/><polygon fill="#181818" points="635.8,934,626.8,930,630.8,934,626.8,938,635.8,934" style="stroke:#181818;stroke-width:1.0;"/></g><!--link CapacitorFilePicker to FilePicker--><g id="link_CapacitorFilePicker_FilePicker"><path d="M852.01,934 C873.72,934 889.65,934 908.47,934 " fill="none" id="CapacitorFilePicker-to-FilePicker" style="stroke:#181818;stroke-width:1.0;"/><polygon fill="#181818" points="914.47,934,905.47,930,909.47,934,905.47,938,914.47,934" style="stroke:#181818;stroke-width:1.0;"/></g><!--link useImagePicker to CapacitorCamera--><g id="link_useImagePicker_CapacitorCamera"><path d="M571.15,1027 C603.58,1027 637.37,1027 670.49,1027 " fill="none" id="useImagePicker-to-CapacitorCamera" style="stroke:#181818;stroke-width:1.0;"/><polygon fill="#181818" points="676.49,1027,667.49,1023,671.49,1027,667.49,1031,676.49,1027" style="stroke:#181818;stroke-width:1.0;"/></g><!--link CapacitorCamera to Camera--><g id="link_CapacitorCamera_Camera"><path d="M811.76,1027 C844.53,1027 877.46,1027 908.21,1027 " fill="none" id="CapacitorCamera-to-Camera" style="stroke:#181818;stroke-width:1.0;"/><polygon fill="#181818" points="914.21,1027,905.21,1023,909.21,1027,905.21,1031,914.21,1027" style="stroke:#181818;stroke-width:1.0;"/></g><!--link useCurrentLocation to CapacitorGeolocation--><g id="link_useCurrentLocation_CapacitorGeolocation"><path d="M576.1,1120 C604.41,1120 631.57,1120 660.85,1120 " fill="none" id="useCurrentLocation-to-CapacitorGeolocation" style="stroke:#181818;stroke-width:1.0;"/><polygon fill="#181818" points="666.85,1120,657.85,1116,661.85,1120,657.85,1124,666.85,1120" style="stroke:#181818;stroke-width:1.0;"/></g><!--link CapacitorGeolocation to Geolocation--><g id="link_CapacitorGeolocation_Geolocation"><path d="M821.26,1120 C851.96,1120 880.61,1120 908.47,1120 " fill="none" id="CapacitorGeolocation-to-Geolocation" style="stroke:#181818;stroke-width:1.0;"/><polygon fill="#181818" points="914.47,1120,905.47,1116,909.47,1120,905.47,1124,914.47,1120" style="stroke:#181818;stroke-width:1.0;"/></g><!--link React to useState--><g id="link_React_useState"><path d="M367.41,814.6 C397.41,800.34 431.8116,783.987 461.3316,769.947 " fill="none" id="React-to-useState" style="stroke:#181818;stroke-width:1.0;"/><polygon fill="#181818" points="466.75,767.37,456.9044,767.6233,462.2347,769.5175,460.3404,774.8478,466.75,767.37" style="stroke:#181818;stroke-width:1.0;"/></g><!--link addEventView to AddEventController--><g id="link_addEventView_AddEventController"><path d="M175.06,572.79 C184.46,518.1 209.99,400.75 266,319 C270.11,313 270.8484,311.4813 276.2684,306.3113 " fill="none" id="addEventView-to-AddEventController" style="stroke:#181818;stroke-width:1.0;"/><polygon fill="#181818" points="280.61,302.17,271.3367,305.4876,276.992,305.6211,276.8585,311.2764,280.61,302.17" style="stroke:#181818;stroke-width:1.0;"/></g><!--link addEventView to LocationController--><g id="link_addEventView_LocationController"><path d="M171.85,572.76 C176.12,505.15 193.79,338.7 266,224 C269.81,217.95 270.3586,216.4933 275.6086,211.3633 " fill="none" id="addEventView-to-LocationController" style="stroke:#181818;stroke-width:1.0;"/><polygon fill="#181818" points="279.9,207.17,270.6674,210.599,276.3238,210.6644,276.2584,216.3209,279.9,207.17" style="stroke:#181818;stroke-width:1.0;"/></g><!--link addEventView to FileController--><g id="link_addEventView_FileController"><path d="M169.87,572.81 C169.56,493.94 177.41,277.51 266,129 C272.54,118.04 277.8427,112.1392 287.6627,104.5492 " fill="none" id="addEventView-to-FileController" style="stroke:#181818;stroke-width:1.0;"/><polygon fill="#181818" points="292.41,100.88,282.8429,103.219,288.4539,103.9377,287.7352,109.5487,292.41,100.88" style="stroke:#181818;stroke-width:1.0;"/></g><!--link AddEventController to EventModel--><g id="link_AddEventController_EventModel"><path d="M370.21,272 C405.04,272 445.79,272 474.77,272 " fill="none" id="AddEventController-to-EventModel" style="stroke:#181818;stroke-width:1.0;"/><polygon fill="#181818" points="480.77,272,471.77,268,475.77,272,471.77,276,480.77,272" style="stroke:#181818;stroke-width:1.0;"/></g><!--link LocationController to LocationModel--><g id="link_LocationController_LocationModel"><path d="M367.41,177 C399.94,177 438.03,177 468,177 " fill="none" id="LocationController-to-LocationModel" style="stroke:#181818;stroke-width:1.0;"/><polygon fill="#181818" points="474,177,465,173,469,177,465,181,474,177" style="stroke:#181818;stroke-width:1.0;"/></g><!--link ReactI18next to useTranslation--><g id="link_ReactI18next_useTranslation"><path d="M362.58,526.78 C369.01,521.17 375.41,515.12 381,509 C412.68,474.32 407.81,455.24 441,422 C446.95,416.04 448.9783,413.961 455.9183,408.731 " fill="none" id="ReactI18next-to-useTranslation" style="stroke:#181818;stroke-width:1.0;"/><polygon fill="#181818" points="460.71,405.12,451.1151,407.3421,456.7169,408.1292,455.9298,413.731,460.71,405.12" style="stroke:#181818;stroke-width:1.0;"/></g><!--link UserReg to addEventView--><g id="link_UserReg_addEventView"><path d="M73.13,603 C91.35,603 108.08,603 126.78,603 " fill="none" id="UserReg-to-addEventView" style="stroke:#181818;stroke-width:1.0;stroke-dasharray:7.0,7.0;"/><polygon fill="#181818" points="132.78,603,123.78,599,127.78,603,123.78,607,132.78,603" style="stroke:#181818;stroke-width:1.0;"/></g><!--SRC=[bLSzRzim4DtvAuWidUmqIreKWT50RM83QL4uQT2X2oFHCc59D2WggLlql_T8YUAd7DU38HxVEzuToNjIksFDdWXIurOUAWh_WkMogolKZZC5tP2kaW_qbxokMDdKj94uXpygOjGDR-Gz-qtnnGMgw4PYoR5WvLRYWWcQIyORH7B91JwxxkGMlB2SI5hyRBwtL9nXqcBriAObGcXFyXqfATu8y4gR0bzThIcmyLSYsJFzy7R-xd9-kLZyGHX-Jxnh2Y8EuBaeFZ-3wqT6NxHBuXZ02Nwu_u4NYvZrgKzYvFcceqn8mgCDuqbEjkMyfHd0IYuORKToQiBnejtalDxpHkt3cL05qSI-D82yOqz2hJ6iwO2xbjvByApnPg0eIyvtazvdWdTos1ozo5gFNrrgoLhOw8DPR1WUMmvE1ylFRKehDJuXBy2jwj9Gu571it4-IL3dsJ3KSqH9ru9Tl6yCKqUswWslLkD1aAQjYBe1fYAEAQgAFIbVU44gJT5FEiuEIbdRSDl4cTplbvGKmxQDeqbs8kAi4mAUxtZkHHsO7OygWJQH_SUSm5LciFld9UMLwoypCxTsudWfRmCF0V7e5aBqgnewoZUMxuRA-AR_IoOdDHN4poFJjkCfP2xFmAFZcWZ-XbL1xDPoQkWljEKrFH-pc6t0nMnllOwf-BwdqmcY2a8w8Qthhc1yJNCk2fkPPpmXEPlGCsSvdGdNtvZJevfplKwdvK6rbuYSEcoD5Boo6fJrXifSnCZSztQx_i0trolWn-O9ljg5WEkRB4yJbH9Bw1iwEcWqj6yvTkYlO-0c7ilmB9Rq5w4t-CO8kHQr9OEZB_Bj0NdwF9ijGk5D0up4nhD93OrXZfZ5arPx8F9UWmQegu4AQRKDa9hMUqQEV0qUGPeILYK_IDL7BsxxyaJ4W-9CpCPcBHk94XfDW9N3UWVZ8KkdKKuWxDsV07YtUW8J20o45n6Z_g1tFNd9qSJTLmmVgDTnCl3RgxU2WqgrIuLr8DgnMxn0T3pNlIAWK51wZ9xIxi8Y9OJPS-l894gAhaAx83YE_NcoHzMyCQevfv48sh_3j5ksRvDNDMXvCIPkQp76Rry89LgfWjcEXHBDqbsi1q4kpdiOyjxfXgJTUO2h3nJCrFSFwJzeXYyMF9yll4yDXFu1]--></g></svg>