<?xml version="1.0" encoding="us-ascii" standalone="no"?><svg xmlns="http://www.w3.org/2000/svg" xmlns:xlink="http://www.w3.org/1999/xlink" contentStyleType="text/css" height="1390px" preserveAspectRatio="none" style="width:2101px;height:1390px;background:#FFFFFF;" version="1.1" viewBox="0 0 2101 1390" width="2101px" zoomAndPan="magnify"><defs/><g><!--cluster mobileDevice--><g id="cluster_mobileDevice"><polygon fill="none" points="16,181,26,171,1880,171,1880,1363,1870,1373,16,1373,16,181" style="stroke:#181818;stroke-width:1.0;"/><line style="stroke:#181818;stroke-width:1.0;" x1="1870" x2="1880" y1="181" y2="171"/><line style="stroke:#181818;stroke-width:1.0;" x1="16" x2="1870" y1="181" y2="181"/><line style="stroke:#181818;stroke-width:1.0;" x1="1870" x2="1870" y1="181" y2="1373"/><text fill="#000000" font-family="sans-serif" font-size="11" font-weight="bold" lengthAdjust="spacing" textLength="76" x="906" y="195.4189">Mobile Device</text></g><!--cluster flutterApp--><g id="cluster_flutterApp"><rect fill="#FFFFFF" height="1133" rx="2.5" ry="2.5" style="stroke:#181818;stroke-width:1.0;" width="1816" x="40" y="216"/><rect fill="#FFFFFF" height="10" style="stroke:#181818;stroke-width:1.0;" width="15" x="1836" y="221"/><rect fill="#FFFFFF" height="2" style="stroke:#181818;stroke-width:1.0;" width="4" x="1834" y="223"/><rect fill="#FFFFFF" height="2" style="stroke:#181818;stroke-width:1.0;" width="4" x="1834" y="227"/><text fill="#000000" font-family="sans-serif" font-size="11" font-style="italic" lengthAdjust="spacing" textLength="77" x="909.5" y="240.4189">&#171;Flutter:3.10.0&#187;</text><text fill="#000000" font-family="sans-serif" font-size="11" font-weight="bold" lengthAdjust="spacing" textLength="61" x="917.5" y="254.2549">Flutter App</text></g><!--cluster dartApp--><g id="cluster_dartApp"><rect fill="#FFFFFF" height="124" rx="2.5" ry="2.5" style="stroke:#181818;stroke-width:1.0;" width="271" x="1553" y="292"/><rect fill="#FFFFFF" height="10" style="stroke:#181818;stroke-width:1.0;" width="15" x="1804" y="297"/><rect fill="#FFFFFF" height="2" style="stroke:#181818;stroke-width:1.0;" width="4" x="1802" y="299"/><rect fill="#FFFFFF" height="2" style="stroke:#181818;stroke-width:1.0;" width="4" x="1802" y="303"/><text fill="#000000" font-family="sans-serif" font-size="11" font-weight="bold" lengthAdjust="spacing" textLength="47" x="1665" y="316.4189">Dart App</text></g><!--cluster framework--><g id="cluster_framework"><rect fill="#FFFFFF" height="646" rx="2.5" ry="2.5" style="stroke:#181818;stroke-width:1.0;" width="376" x="72" y="465"/><rect fill="#FFFFFF" height="10" style="stroke:#181818;stroke-width:1.0;" width="15" x="428" y="470"/><rect fill="#FFFFFF" height="2" style="stroke:#181818;stroke-width:1.0;" width="4" x="426" y="472"/><rect fill="#FFFFFF" height="2" style="stroke:#181818;stroke-width:1.0;" width="4" x="426" y="476"/><text fill="#000000" font-family="sans-serif" font-size="11" font-weight="bold" lengthAdjust="spacing" textLength="136" x="192" y="489.4189">Flutter Framework (Dart)</text></g><!--cluster engine--><g id="cluster_engine"><rect fill="#FFFFFF" height="384" rx="2.5" ry="2.5" style="stroke:#181818;stroke-width:1.0;" width="643" x="488" y="727"/><rect fill="#FFFFFF" height="10" style="stroke:#181818;stroke-width:1.0;" width="15" x="1111" y="732"/><rect fill="#FFFFFF" height="2" style="stroke:#181818;stroke-width:1.0;" width="4" x="1109" y="734"/><rect fill="#FFFFFF" height="2" style="stroke:#181818;stroke-width:1.0;" width="4" x="1109" y="738"/><text fill="#000000" font-family="sans-serif" font-size="11" font-weight="bold" lengthAdjust="spacing" textLength="118" x="750.5" y="751.4189">Flutter Engine (C/C++)</text></g><!--cluster embedder--><g id="cluster_embedder"><rect fill="#FFFFFF" height="247" rx="2.5" ry="2.5" style="stroke:#181818;stroke-width:1.0;" width="505" x="1171" y="987"/><rect fill="#FFFFFF" height="10" style="stroke:#181818;stroke-width:1.0;" width="15" x="1656" y="992"/><rect fill="#FFFFFF" height="2" style="stroke:#181818;stroke-width:1.0;" width="4" x="1654" y="994"/><rect fill="#FFFFFF" height="2" style="stroke:#181818;stroke-width:1.0;" width="4" x="1654" y="998"/><text fill="#000000" font-family="sans-serif" font-size="11" font-weight="bold" lengthAdjust="spacing" textLength="149" x="1349" y="1011.4189">Platform Embedder (C/C++)</text></g><!--cluster backend--><g id="cluster_backend"><polygon fill="none" points="1950,300,1960,290,2084,290,2084,571,2074,581,1950,581,1950,300" style="stroke:#181818;stroke-width:1.0;"/><line style="stroke:#181818;stroke-width:1.0;" x1="2074" x2="2084" y1="300" y2="290"/><line style="stroke:#181818;stroke-width:1.0;" x1="1950" x2="2074" y1="300" y2="300"/><line style="stroke:#181818;stroke-width:1.0;" x1="2074" x2="2074" y1="300" y2="581"/><text fill="#000000" font-family="sans-serif" font-size="11" font-weight="bold" lengthAdjust="spacing" textLength="47" x="1989.5" y="314.4189">Backend</text></g><!--cluster supabase--><g id="cluster_supabase"><polygon fill="none" points="1496,16,1506,6,1952,6,1952,114,1942,124,1496,124,1496,16" style="stroke:#181818;stroke-width:1.0;"/><line style="stroke:#181818;stroke-width:1.0;" x1="1942" x2="1952" y1="16" y2="6"/><line style="stroke:#181818;stroke-width:1.0;" x1="1496" x2="1942" y1="16" y2="16"/><line style="stroke:#181818;stroke-width:1.0;" x1="1942" x2="1942" y1="16" y2="124"/><text fill="#000000" font-family="sans-serif" font-size="11" font-weight="bold" lengthAdjust="spacing" textLength="54" x="1693" y="30.4189">Supabase</text></g><!--entity appLogic--><g id="elem_appLogic"><rect fill="#FFFFFF" height="43.8359" rx="2.5" ry="2.5" style="stroke:#181818;stroke-width:0.5;" width="89" x="1710.5" y="348"/><rect fill="#FFFFFF" height="10" style="stroke:#181818;stroke-width:0.5;" width="15" x="1779.5" y="353"/><rect fill="#FFFFFF" height="2" style="stroke:#181818;stroke-width:0.5;" width="4" x="1777.5" y="355"/><rect fill="#FFFFFF" height="2" style="stroke:#181818;stroke-width:0.5;" width="4" x="1777.5" y="359"/><text fill="#000000" font-family="sans-serif" font-size="11" lengthAdjust="spacing" textLength="49" x="1725.5" y="379.4189">App Logic</text></g><!--entity widgets--><g id="elem_widgets"><rect fill="#FFFFFF" height="43.8359" rx="2.5" ry="2.5" style="stroke:#181818;stroke-width:0.5;" width="79" x="1596.5" y="348"/><rect fill="#FFFFFF" height="10" style="stroke:#181818;stroke-width:0.5;" width="15" x="1655.5" y="353"/><rect fill="#FFFFFF" height="2" style="stroke:#181818;stroke-width:0.5;" width="4" x="1653.5" y="355"/><rect fill="#FFFFFF" height="2" style="stroke:#181818;stroke-width:0.5;" width="4" x="1653.5" y="359"/><text fill="#000000" font-family="sans-serif" font-size="11" lengthAdjust="spacing" textLength="39" x="1611.5" y="379.4189">Widgets</text></g><!--entity materialCupertino--><g id="elem_materialCupertino"><rect fill="#FFFFFF" height="43.8359" rx="2.5" ry="2.5" style="stroke:#181818;stroke-width:0.5;" width="126" x="194" y="521"/><rect fill="#FFFFFF" height="10" style="stroke:#181818;stroke-width:0.5;" width="15" x="300" y="526"/><rect fill="#FFFFFF" height="2" style="stroke:#181818;stroke-width:0.5;" width="4" x="298" y="528"/><rect fill="#FFFFFF" height="2" style="stroke:#181818;stroke-width:0.5;" width="4" x="298" y="532"/><text fill="#000000" font-family="sans-serif" font-size="11" lengthAdjust="spacing" textLength="86" x="209" y="552.4189">Material/Cupertino</text></g><!--entity widgetsLayer--><g id="elem_widgetsLayer"><rect fill="#FFFFFF" height="43.8359" rx="2.5" ry="2.5" style="stroke:#181818;stroke-width:0.5;" width="79" x="217.5" y="628"/><rect fill="#FFFFFF" height="10" style="stroke:#181818;stroke-width:0.5;" width="15" x="276.5" y="633"/><rect fill="#FFFFFF" height="2" style="stroke:#181818;stroke-width:0.5;" width="4" x="274.5" y="635"/><rect fill="#FFFFFF" height="2" style="stroke:#181818;stroke-width:0.5;" width="4" x="274.5" y="639"/><text fill="#000000" font-family="sans-serif" font-size="11" lengthAdjust="spacing" textLength="39" x="232.5" y="659.4189">Widgets</text></g><!--entity renderingLayer--><g id="elem_renderingLayer"><rect fill="#FFFFFF" height="43.8359" rx="2.5" ry="2.5" style="stroke:#181818;stroke-width:0.5;" width="89" x="212.5" y="783"/><rect fill="#FFFFFF" height="10" style="stroke:#181818;stroke-width:0.5;" width="15" x="281.5" y="788"/><rect fill="#FFFFFF" height="2" style="stroke:#181818;stroke-width:0.5;" width="4" x="279.5" y="790"/><rect fill="#FFFFFF" height="2" style="stroke:#181818;stroke-width:0.5;" width="4" x="279.5" y="794"/><text fill="#000000" font-family="sans-serif" font-size="11" lengthAdjust="spacing" textLength="49" x="227.5" y="814.4189">Rendering</text></g><!--entity animation--><g id="elem_animation"><rect fill="#FFFFFF" height="43.8359" rx="2.5" ry="2.5" style="stroke:#181818;stroke-width:0.5;" width="87" x="96.5" y="888"/><rect fill="#FFFFFF" height="10" style="stroke:#181818;stroke-width:0.5;" width="15" x="163.5" y="893"/><rect fill="#FFFFFF" height="2" style="stroke:#181818;stroke-width:0.5;" width="4" x="161.5" y="895"/><rect fill="#FFFFFF" height="2" style="stroke:#181818;stroke-width:0.5;" width="4" x="161.5" y="899"/><text fill="#000000" font-family="sans-serif" font-size="11" lengthAdjust="spacing" textLength="47" x="111.5" y="919.4189">Animation</text></g><!--entity painting--><g id="elem_painting"><rect fill="#FFFFFF" height="43.8359" rx="2.5" ry="2.5" style="stroke:#181818;stroke-width:0.5;" width="77" x="218.5" y="888"/><rect fill="#FFFFFF" height="10" style="stroke:#181818;stroke-width:0.5;" width="15" x="275.5" y="893"/><rect fill="#FFFFFF" height="2" style="stroke:#181818;stroke-width:0.5;" width="4" x="273.5" y="895"/><rect fill="#FFFFFF" height="2" style="stroke:#181818;stroke-width:0.5;" width="4" x="273.5" y="899"/><text fill="#000000" font-family="sans-serif" font-size="11" lengthAdjust="spacing" textLength="37" x="233.5" y="919.4189">Painting</text></g><!--entity gestures--><g id="elem_gestures"><rect fill="#FFFFFF" height="43.8359" rx="2.5" ry="2.5" style="stroke:#181818;stroke-width:0.5;" width="85" x="330.5" y="888"/><rect fill="#FFFFFF" height="10" style="stroke:#181818;stroke-width:0.5;" width="15" x="395.5" y="893"/><rect fill="#FFFFFF" height="2" style="stroke:#181818;stroke-width:0.5;" width="4" x="393.5" y="895"/><rect fill="#FFFFFF" height="2" style="stroke:#181818;stroke-width:0.5;" width="4" x="393.5" y="899"/><text fill="#000000" font-family="sans-serif" font-size="11" lengthAdjust="spacing" textLength="45" x="345.5" y="919.4189">Gestures</text></g><!--entity foundation--><g id="elem_foundation"><rect fill="#FFFFFF" height="43.8359" rx="2.5" ry="2.5" style="stroke:#181818;stroke-width:0.5;" width="93" x="210.5" y="1043"/><rect fill="#FFFFFF" height="10" style="stroke:#181818;stroke-width:0.5;" width="15" x="283.5" y="1048"/><rect fill="#FFFFFF" height="2" style="stroke:#181818;stroke-width:0.5;" width="4" x="281.5" y="1050"/><rect fill="#FFFFFF" height="2" style="stroke:#181818;stroke-width:0.5;" width="4" x="281.5" y="1054"/><text fill="#000000" font-family="sans-serif" font-size="11" lengthAdjust="spacing" textLength="53" x="225.5" y="1074.4189">Foundation</text></g><!--entity dartUI--><g id="elem_dartUI"><rect fill="#FFFFFF" height="43.8359" rx="2.5" ry="2.5" style="stroke:#181818;stroke-width:0.5;" width="89" x="775.5" y="628"/><rect fill="#FFFFFF" height="10" style="stroke:#181818;stroke-width:0.5;" width="15" x="844.5" y="633"/><rect fill="#FFFFFF" height="2" style="stroke:#181818;stroke-width:0.5;" width="4" x="842.5" y="635"/><rect fill="#FFFFFF" height="2" style="stroke:#181818;stroke-width:0.5;" width="4" x="842.5" y="639"/><text fill="#000000" font-family="sans-serif" font-size="11" lengthAdjust="spacing" textLength="49" x="790.5" y="659.4189">dart:ui API</text></g><!--entity serviceProtocol--><g id="elem_serviceProtocol"><rect fill="#FFFFFF" height="43.8359" rx="2.5" ry="2.5" style="stroke:#181818;stroke-width:0.5;" width="119" x="512.5" y="783"/><rect fill="#FFFFFF" height="10" style="stroke:#181818;stroke-width:0.5;" width="15" x="611.5" y="788"/><rect fill="#FFFFFF" height="2" style="stroke:#181818;stroke-width:0.5;" width="4" x="609.5" y="790"/><rect fill="#FFFFFF" height="2" style="stroke:#181818;stroke-width:0.5;" width="4" x="609.5" y="794"/><text fill="#000000" font-family="sans-serif" font-size="11" lengthAdjust="spacing" textLength="79" x="527.5" y="814.4189">Service Protocol</text></g><!--entity composition--><g id="elem_composition"><rect fill="#FFFFFF" height="43.8359" rx="2.5" ry="2.5" style="stroke:#181818;stroke-width:0.5;" width="98" x="667" y="783"/><rect fill="#FFFFFF" height="10" style="stroke:#181818;stroke-width:0.5;" width="15" x="745" y="788"/><rect fill="#FFFFFF" height="2" style="stroke:#181818;stroke-width:0.5;" width="4" x="743" y="790"/><rect fill="#FFFFFF" height="2" style="stroke:#181818;stroke-width:0.5;" width="4" x="743" y="794"/><text fill="#000000" font-family="sans-serif" font-size="11" lengthAdjust="spacing" textLength="58" x="682" y="814.4189">Composition</text></g><!--entity platformChannels--><g id="elem_platformChannels"><rect fill="#FFFFFF" height="43.8359" rx="2.5" ry="2.5" style="stroke:#181818;stroke-width:0.5;" width="127" x="800.5" y="783"/><rect fill="#FFFFFF" height="10" style="stroke:#181818;stroke-width:0.5;" width="15" x="907.5" y="788"/><rect fill="#FFFFFF" height="2" style="stroke:#181818;stroke-width:0.5;" width="4" x="905.5" y="790"/><rect fill="#FFFFFF" height="2" style="stroke:#181818;stroke-width:0.5;" width="4" x="905.5" y="794"/><text fill="#000000" font-family="sans-serif" font-size="11" lengthAdjust="spacing" textLength="87" x="815.5" y="814.4189">Platform Channels</text></g><!--entity dartIsolateSetup--><g id="elem_dartIsolateSetup"><rect fill="#FFFFFF" height="43.8359" rx="2.5" ry="2.5" style="stroke:#181818;stroke-width:0.5;" width="125" x="962.5" y="783"/><rect fill="#FFFFFF" height="10" style="stroke:#181818;stroke-width:0.5;" width="15" x="1067.5" y="788"/><rect fill="#FFFFFF" height="2" style="stroke:#181818;stroke-width:0.5;" width="4" x="1065.5" y="790"/><rect fill="#FFFFFF" height="2" style="stroke:#181818;stroke-width:0.5;" width="4" x="1065.5" y="794"/><text fill="#000000" font-family="sans-serif" font-size="11" lengthAdjust="spacing" textLength="85" x="977.5" y="814.4189">Dart Isolate Setup</text></g><!--entity rendering--><g id="elem_rendering"><rect fill="#FFFFFF" height="43.8359" rx="2.5" ry="2.5" style="stroke:#181818;stroke-width:0.5;" width="89" x="525.5" y="888"/><rect fill="#FFFFFF" height="10" style="stroke:#181818;stroke-width:0.5;" width="15" x="594.5" y="893"/><rect fill="#FFFFFF" height="2" style="stroke:#181818;stroke-width:0.5;" width="4" x="592.5" y="895"/><rect fill="#FFFFFF" height="2" style="stroke:#181818;stroke-width:0.5;" width="4" x="592.5" y="899"/><text fill="#000000" font-family="sans-serif" font-size="11" lengthAdjust="spacing" textLength="49" x="540.5" y="919.4189">Rendering</text></g><!--entity systemEvents--><g id="elem_systemEvents"><rect fill="#FFFFFF" height="43.8359" rx="2.5" ry="2.5" style="stroke:#181818;stroke-width:0.5;" width="112" x="650" y="888"/><rect fill="#FFFFFF" height="10" style="stroke:#181818;stroke-width:0.5;" width="15" x="742" y="893"/><rect fill="#FFFFFF" height="2" style="stroke:#181818;stroke-width:0.5;" width="4" x="740" y="895"/><rect fill="#FFFFFF" height="2" style="stroke:#181818;stroke-width:0.5;" width="4" x="740" y="899"/><text fill="#000000" font-family="sans-serif" font-size="11" lengthAdjust="spacing" textLength="72" x="665" y="919.4189">System Events</text></g><!--entity dartRuntimeMgmt--><g id="elem_dartRuntimeMgmt"><rect fill="#FFFFFF" height="43.8359" rx="2.5" ry="2.5" style="stroke:#181818;stroke-width:0.5;" width="129" x="797.5" y="888"/><rect fill="#FFFFFF" height="10" style="stroke:#181818;stroke-width:0.5;" width="15" x="906.5" y="893"/><rect fill="#FFFFFF" height="2" style="stroke:#181818;stroke-width:0.5;" width="4" x="904.5" y="895"/><rect fill="#FFFFFF" height="2" style="stroke:#181818;stroke-width:0.5;" width="4" x="904.5" y="899"/><text fill="#000000" font-family="sans-serif" font-size="11" lengthAdjust="spacing" textLength="89" x="812.5" y="919.4189">Dart Runtime Mgmt</text></g><!--entity frameScheduling--><g id="elem_frameScheduling"><rect fill="#FFFFFF" height="43.8359" rx="2.5" ry="2.5" style="stroke:#181818;stroke-width:0.5;" width="126" x="962" y="888"/><rect fill="#FFFFFF" height="10" style="stroke:#181818;stroke-width:0.5;" width="15" x="1068" y="893"/><rect fill="#FFFFFF" height="2" style="stroke:#181818;stroke-width:0.5;" width="4" x="1066" y="895"/><rect fill="#FFFFFF" height="2" style="stroke:#181818;stroke-width:0.5;" width="4" x="1066" y="899"/><text fill="#000000" font-family="sans-serif" font-size="11" lengthAdjust="spacing" textLength="86" x="977" y="919.4189">Frame Scheduling</text></g><!--entity assetResolution--><g id="elem_assetResolution"><rect fill="#FFFFFF" height="43.8359" rx="2.5" ry="2.5" style="stroke:#181818;stroke-width:0.5;" width="122" x="512" y="1043"/><rect fill="#FFFFFF" height="10" style="stroke:#181818;stroke-width:0.5;" width="15" x="614" y="1048"/><rect fill="#FFFFFF" height="2" style="stroke:#181818;stroke-width:0.5;" width="4" x="612" y="1050"/><rect fill="#FFFFFF" height="2" style="stroke:#181818;stroke-width:0.5;" width="4" x="612" y="1054"/><text fill="#000000" font-family="sans-serif" font-size="11" lengthAdjust="spacing" textLength="82" x="527" y="1074.4189">Asset Resolution</text></g><!--entity framePipelining--><g id="elem_framePipelining"><rect fill="#FFFFFF" height="43.8359" rx="2.5" ry="2.5" style="stroke:#181818;stroke-width:0.5;" width="117" x="669.5" y="1043"/><rect fill="#FFFFFF" height="10" style="stroke:#181818;stroke-width:0.5;" width="15" x="766.5" y="1048"/><rect fill="#FFFFFF" height="2" style="stroke:#181818;stroke-width:0.5;" width="4" x="764.5" y="1050"/><rect fill="#FFFFFF" height="2" style="stroke:#181818;stroke-width:0.5;" width="4" x="764.5" y="1054"/><text fill="#000000" font-family="sans-serif" font-size="11" lengthAdjust="spacing" textLength="77" x="684.5" y="1074.4189">Frame Pipelining</text></g><!--entity textLayout--><g id="elem_textLayout"><rect fill="#FFFFFF" height="43.8359" rx="2.5" ry="2.5" style="stroke:#181818;stroke-width:0.5;" width="97" x="821.5" y="1043"/><rect fill="#FFFFFF" height="10" style="stroke:#181818;stroke-width:0.5;" width="15" x="898.5" y="1048"/><rect fill="#FFFFFF" height="2" style="stroke:#181818;stroke-width:0.5;" width="4" x="896.5" y="1050"/><rect fill="#FFFFFF" height="2" style="stroke:#181818;stroke-width:0.5;" width="4" x="896.5" y="1054"/><text fill="#000000" font-family="sans-serif" font-size="11" lengthAdjust="spacing" textLength="57" x="836.5" y="1074.4189">Text Layout</text></g><!--entity embedderAPI--><g id="elem_embedderAPI"><rect fill="#FFFFFF" height="43.8359" rx="2.5" ry="2.5" style="stroke:#181818;stroke-width:0.5;" width="107" x="1384.5" y="888"/><rect fill="#FFFFFF" height="10" style="stroke:#181818;stroke-width:0.5;" width="15" x="1471.5" y="893"/><rect fill="#FFFFFF" height="2" style="stroke:#181818;stroke-width:0.5;" width="4" x="1469.5" y="895"/><rect fill="#FFFFFF" height="2" style="stroke:#181818;stroke-width:0.5;" width="4" x="1469.5" y="899"/><text fill="#000000" font-family="sans-serif" font-size="11" lengthAdjust="spacing" textLength="67" x="1399.5" y="919.4189">Embedder API</text></g><!--entity renderSurfaceSetup--><g id="elem_renderSurfaceSetup"><rect fill="#FFFFFF" height="43.8359" rx="2.5" ry="2.5" style="stroke:#181818;stroke-width:0.5;" width="148" x="1195" y="1043"/><rect fill="#FFFFFF" height="10" style="stroke:#181818;stroke-width:0.5;" width="15" x="1323" y="1048"/><rect fill="#FFFFFF" height="2" style="stroke:#181818;stroke-width:0.5;" width="4" x="1321" y="1050"/><rect fill="#FFFFFF" height="2" style="stroke:#181818;stroke-width:0.5;" width="4" x="1321" y="1054"/><text fill="#000000" font-family="sans-serif" font-size="11" lengthAdjust="spacing" textLength="108" x="1210" y="1074.4189">Render Surface Setup</text></g><!--entity nativePlugins--><g id="elem_nativePlugins"><rect fill="#FFFFFF" height="43.8359" rx="2.5" ry="2.5" style="stroke:#181818;stroke-width:0.5;" width="107" x="1378.5" y="1043"/><rect fill="#FFFFFF" height="10" style="stroke:#181818;stroke-width:0.5;" width="15" x="1465.5" y="1048"/><rect fill="#FFFFFF" height="2" style="stroke:#181818;stroke-width:0.5;" width="4" x="1463.5" y="1050"/><rect fill="#FFFFFF" height="2" style="stroke:#181818;stroke-width:0.5;" width="4" x="1463.5" y="1054"/><text fill="#000000" font-family="sans-serif" font-size="11" lengthAdjust="spacing" textLength="67" x="1393.5" y="1074.4189">Native Plugins</text></g><!--entity appPackaging--><g id="elem_appPackaging"><rect fill="#FFFFFF" height="43.8359" rx="2.5" ry="2.5" style="stroke:#181818;stroke-width:0.5;" width="112" x="1521" y="1043"/><rect fill="#FFFFFF" height="10" style="stroke:#181818;stroke-width:0.5;" width="15" x="1613" y="1048"/><rect fill="#FFFFFF" height="2" style="stroke:#181818;stroke-width:0.5;" width="4" x="1611" y="1050"/><rect fill="#FFFFFF" height="2" style="stroke:#181818;stroke-width:0.5;" width="4" x="1611" y="1054"/><text fill="#000000" font-family="sans-serif" font-size="11" lengthAdjust="spacing" textLength="72" x="1536" y="1074.4189">App Packaging</text></g><!--entity threadSetup--><g id="elem_threadSetup"><rect fill="#FFFFFF" height="43.8359" rx="2.5" ry="2.5" style="stroke:#181818;stroke-width:0.5;" width="105" x="1216.5" y="1166"/><rect fill="#FFFFFF" height="10" style="stroke:#181818;stroke-width:0.5;" width="15" x="1301.5" y="1171"/><rect fill="#FFFFFF" height="2" style="stroke:#181818;stroke-width:0.5;" width="4" x="1299.5" y="1173"/><rect fill="#FFFFFF" height="2" style="stroke:#181818;stroke-width:0.5;" width="4" x="1299.5" y="1177"/><text fill="#000000" font-family="sans-serif" font-size="11" lengthAdjust="spacing" textLength="65" x="1231.5" y="1197.4189">Thread Setup</text></g><!--entity eventLoopInterop--><g id="elem_eventLoopInterop"><rect fill="#FFFFFF" height="43.8359" rx="2.5" ry="2.5" style="stroke:#181818;stroke-width:0.5;" width="130" x="1357" y="1166"/><rect fill="#FFFFFF" height="10" style="stroke:#181818;stroke-width:0.5;" width="15" x="1467" y="1171"/><rect fill="#FFFFFF" height="2" style="stroke:#181818;stroke-width:0.5;" width="4" x="1465" y="1173"/><rect fill="#FFFFFF" height="2" style="stroke:#181818;stroke-width:0.5;" width="4" x="1465" y="1177"/><text fill="#000000" font-family="sans-serif" font-size="11" lengthAdjust="spacing" textLength="90" x="1372" y="1197.4189">Event Loop Interop</text></g><!--entity platformAPI--><g id="elem_platformAPI"><rect fill="#FFFFFF" height="43.8359" rx="2.5" ry="2.5" style="stroke:#181818;stroke-width:0.5;" width="140" x="1700" y="1166"/><rect fill="#FFFFFF" height="10" style="stroke:#181818;stroke-width:0.5;" width="15" x="1820" y="1171"/><rect fill="#FFFFFF" height="2" style="stroke:#181818;stroke-width:0.5;" width="4" x="1818" y="1173"/><rect fill="#FFFFFF" height="2" style="stroke:#181818;stroke-width:0.5;" width="4" x="1818" y="1177"/><text fill="#000000" font-family="sans-serif" font-size="11" lengthAdjust="spacing" textLength="100" x="1715" y="1197.4189">Platform-specific API</text></g><!--entity runner--><g id="elem_runner"><rect fill="#FFFFFF" height="43.8359" rx="2.5" ry="2.5" style="stroke:#181818;stroke-width:0.5;" width="75" x="1732.5" y="1289"/><rect fill="#FFFFFF" height="10" style="stroke:#181818;stroke-width:0.5;" width="15" x="1787.5" y="1294"/><rect fill="#FFFFFF" height="2" style="stroke:#181818;stroke-width:0.5;" width="4" x="1785.5" y="1296"/><rect fill="#FFFFFF" height="2" style="stroke:#181818;stroke-width:0.5;" width="4" x="1785.5" y="1300"/><text fill="#000000" font-family="sans-serif" font-size="11" lengthAdjust="spacing" textLength="35" x="1747.5" y="1320.4189">Runner</text></g><!--entity expressAPI--><g id="elem_expressAPI"><rect fill="#FFFFFF" height="43.8359" rx="2.5" ry="2.5" style="stroke:#181818;stroke-width:0.5;" width="99" x="1968.5" y="348"/><rect fill="#FFFFFF" height="10" style="stroke:#181818;stroke-width:0.5;" width="15" x="2047.5" y="353"/><rect fill="#FFFFFF" height="2" style="stroke:#181818;stroke-width:0.5;" width="4" x="2045.5" y="355"/><rect fill="#FFFFFF" height="2" style="stroke:#181818;stroke-width:0.5;" width="4" x="2045.5" y="359"/><text fill="#000000" font-family="sans-serif" font-size="11" lengthAdjust="spacing" textLength="59" x="1983.5" y="379.4189">Express API</text></g><!--entity prismaClient--><g id="elem_prismaClient"><rect fill="#FFFFFF" height="43.8359" rx="2.5" ry="2.5" style="stroke:#181818;stroke-width:0.5;" width="101" x="1966.5" y="521"/><rect fill="#FFFFFF" height="10" style="stroke:#181818;stroke-width:0.5;" width="15" x="2047.5" y="526"/><rect fill="#FFFFFF" height="2" style="stroke:#181818;stroke-width:0.5;" width="4" x="2045.5" y="528"/><rect fill="#FFFFFF" height="2" style="stroke:#181818;stroke-width:0.5;" width="4" x="2045.5" y="532"/><text fill="#000000" font-family="sans-serif" font-size="11" lengthAdjust="spacing" textLength="61" x="1981.5" y="552.4189">Prisma Client</text></g><!--entity auth--><g id="elem_auth"><rect fill="#FFFFFF" height="43.8359" rx="2.5" ry="2.5" style="stroke:#181818;stroke-width:0.5;" width="109" x="1644.5" y="64"/><rect fill="#FFFFFF" height="10" style="stroke:#181818;stroke-width:0.5;" width="15" x="1733.5" y="69"/><rect fill="#FFFFFF" height="2" style="stroke:#181818;stroke-width:0.5;" width="4" x="1731.5" y="71"/><rect fill="#FFFFFF" height="2" style="stroke:#181818;stroke-width:0.5;" width="4" x="1731.5" y="75"/><text fill="#000000" font-family="sans-serif" font-size="11" lengthAdjust="spacing" textLength="69" x="1659.5" y="95.4189">Authentication</text></g><!--entity fileStorage--><g id="elem_fileStorage"><rect fill="#FFFFFF" height="43.8359" rx="2.5" ry="2.5" style="stroke:#181818;stroke-width:0.5;" width="97" x="1512.5" y="64"/><rect fill="#FFFFFF" height="10" style="stroke:#181818;stroke-width:0.5;" width="15" x="1589.5" y="69"/><rect fill="#FFFFFF" height="2" style="stroke:#181818;stroke-width:0.5;" width="4" x="1587.5" y="71"/><rect fill="#FFFFFF" height="2" style="stroke:#181818;stroke-width:0.5;" width="4" x="1587.5" y="75"/><text fill="#000000" font-family="sans-serif" font-size="11" lengthAdjust="spacing" textLength="57" x="1527.5" y="95.4189">File Storage</text></g><!--entity postgresDB--><g id="elem_postgresDB"><rect fill="#FFFFFF" height="43.8359" rx="2.5" ry="2.5" style="stroke:#181818;stroke-width:0.5;" width="147" x="1788.5" y="64"/><rect fill="#FFFFFF" height="10" style="stroke:#181818;stroke-width:0.5;" width="15" x="1915.5" y="69"/><rect fill="#FFFFFF" height="2" style="stroke:#181818;stroke-width:0.5;" width="4" x="1913.5" y="71"/><rect fill="#FFFFFF" height="2" style="stroke:#181818;stroke-width:0.5;" width="4" x="1913.5" y="75"/><text fill="#000000" font-family="sans-serif" font-size="11" lengthAdjust="spacing" textLength="107" x="1803.5" y="95.4189">PostgreSQL Database</text></g><!--link dartApp to framework--><g id="link_dartApp_framework"><path d="M1552.74,372.2622 C1551.0759,372.5161 1549.1696,372.8069 1547.0293,373.1333 C1538.4684,374.4392 1526.1649,376.3159 1510.6535,378.6821 C1479.6308,383.4143 1435.7766,390.1038 1383.3681,398.0983 C1278.5513,414.0872 1139.5175,435.2956 1000.485,456.5038 C861.4525,477.7119 722.4213,498.9197 617.6094,514.9073 C565.2034,522.9012 521.3523,529.59 490.3334,534.3212 C474.8239,536.6869 462.5224,538.5631 453.9636,539.8684 C451.8239,540.1948 455.8496,539.5809 454.1861,539.8345 " fill="none" id="dartApp-to-framework" style="stroke:#181818;stroke-width:1.0;"/><polygon fill="#181818" points="448.2546,540.7391,457.7548,543.3366,453.1975,539.9853,456.5487,535.428,448.2546,540.7391" style="stroke:#181818;stroke-width:1.0;"/></g><!--link framework to dartUI--><g id="link_framework_dartUI"><path d="M448.0979,546.2393 C448.4642,546.3405 448.8421,546.4449 449.2314,546.5525 C450.0101,546.7677 450.8344,546.9955 451.7032,547.2356 C458.6531,549.1562 468.4421,551.8612 480.3711,555.1573 C504.2291,561.7497 536.6469,570.7069 572.0313,580.4837 C642.8,600.0375 719.6518,621.2718 769.4068,635.0218 " fill="none" id="framework-to-dartUI" style="stroke:#181818;stroke-width:1.0;"/><polygon fill="#181818" points="775.19,636.62,767.5806,630.3672,770.3706,635.2882,765.4497,638.0782,775.19,636.62" style="stroke:#181818;stroke-width:1.0;"/></g><!--link dartUI to engine--><g id="link_dartUI_engine"><path d="M864.68,654.55 C936.02,661.14 1070.97,677.75 1104,711 C1107.6588,714.6825 1110.7048,718.8669 1113.2337,723.3738 C1113.8659,724.5006 1111.8311,720.2569 1112.4001,721.4212 " fill="none" id="dartUI-to-engine" style="stroke:#181818;stroke-width:1.0;"/><polygon fill="#181818" points="1115.0348,726.8118,1114.6765,716.9694,1112.8392,722.3196,1107.4891,720.4823,1115.0348,726.8118" style="stroke:#181818;stroke-width:1.0;"/></g><!--link engine to embedderAPI--><g id="link_engine_embedderAPI"><path d="M1131.1804,808.674 C1131.3364,808.725 1131.4946,808.7767 1131.6547,808.829 C1136.7802,810.5046 1144.007,812.8673 1152.8572,815.7609 C1170.5575,821.5481 1194.7512,829.4588 1221.615,838.2425 C1275.3425,855.81 1334.0471,875.0053 1378.5471,889.5553 " fill="none" id="engine-to-embedderAPI" style="stroke:#181818;stroke-width:1.0;"/><polygon fill="#181818" points="1384.25,891.42,1376.9388,884.8211,1379.4976,889.8661,1374.4525,892.4249,1384.25,891.42" style="stroke:#181818;stroke-width:1.0;"/></g><!--link embedderAPI to embedder--><g id="link_embedderAPI_embedder"><path d="M1491.87,911.44 C1539.98,914.85 1608.86,927.71 1649,971 C1652.53,974.8063 1655.4789,979.0839 1657.9363,983.6593 C1658.2435,984.2312 1658.543,984.8078 1658.8349,985.3887 C1658.9809,985.6792 1659.1251,985.9707 1659.2673,986.2632 C1659.3384,986.4095 1656.8203,981.1433 1656.8905,981.2901 " fill="none" id="embedderAPI-to-embedder" style="stroke:#181818;stroke-width:1.0;"/><polygon fill="#181818" points="1659.4793,986.7029,1659.2047,976.8578,1657.322,982.1922,1651.9876,980.3095,1659.4793,986.7029" style="stroke:#181818;stroke-width:1.0;"/></g><!--link embedder to platformAPI--><g id="link_embedder_platformAPI"><path d="M1676.0934,1075.6025 C1676.7491,1076.3802 1677.4385,1077.1978 1678.1592,1078.0527 C1683.9253,1084.8916 1691.6994,1094.1131 1700.2962,1104.3113 C1717.49,1124.7075 1734.1081,1144.4223 1748.4031,1161.3823 " fill="none" id="embedder-to-platformAPI" style="stroke:#181818;stroke-width:1.0;"/><polygon fill="#181818" points="1752.27,1165.97,1749.5282,1156.5105,1749.0476,1162.1469,1743.4112,1161.6663,1752.27,1165.97" style="stroke:#181818;stroke-width:1.0;"/></g><!--link platformAPI to runner--><g id="link_platformAPI_runner"><path d="M1770,1210.08 C1770,1232.15 1770,1260.62 1770,1282.76 " fill="none" id="platformAPI-to-runner" style="stroke:#181818;stroke-width:1.0;"/><polygon fill="#181818" points="1770,1288.76,1774,1279.76,1770,1283.76,1766,1279.76,1770,1288.76" style="stroke:#181818;stroke-width:1.0;"/></g><!--link materialCupertino to widgetsLayer--><g id="link_materialCupertino_widgetsLayer"><path d="M257,565.25 C257,583.47 257,603.58 257,621.78 " fill="none" id="materialCupertino-to-widgetsLayer" style="stroke:#181818;stroke-width:1.0;"/><polygon fill="#181818" points="257,627.78,261,618.78,257,622.78,253,618.78,257,627.78" style="stroke:#181818;stroke-width:1.0;"/></g><!--link widgetsLayer to renderingLayer--><g id="link_widgetsLayer_renderingLayer"><path d="M257,672.27 C257,701.51 257,747.77 257,776.91 " fill="none" id="widgetsLayer-to-renderingLayer" style="stroke:#181818;stroke-width:1.0;"/><polygon fill="#181818" points="257,782.91,261,773.91,257,777.91,253,773.91,257,782.91" style="stroke:#181818;stroke-width:1.0;"/></g><!--link renderingLayer to gestures--><g id="link_renderingLayer_gestures"><path d="M280.75,827.09 C300.77,844.87 324.7837,866.1859 344.7937,883.9559 " fill="none" id="renderingLayer-to-gestures" style="stroke:#181818;stroke-width:1.0;"/><polygon fill="#181818" points="349.28,887.94,345.2066,878.973,345.5414,884.6199,339.8945,884.9547,349.28,887.94" style="stroke:#181818;stroke-width:1.0;"/></g><!--link renderingLayer to painting--><g id="link_renderingLayer_painting"><path d="M257,827.34 C257,845.02 257,864.02 257,881.69 " fill="none" id="renderingLayer-to-painting" style="stroke:#181818;stroke-width:1.0;"/><polygon fill="#181818" points="257,887.69,261,878.69,257,882.69,253,878.69,257,887.69" style="stroke:#181818;stroke-width:1.0;"/></g><!--link renderingLayer to animation--><g id="link_renderingLayer_animation"><path d="M233.04,827.09 C212.85,844.87 188.613,866.2048 168.433,883.9748 " fill="none" id="renderingLayer-to-animation" style="stroke:#181818;stroke-width:1.0;"/><polygon fill="#181818" points="163.93,887.94,173.328,884.9942,167.6825,884.6356,168.041,878.9902,163.93,887.94" style="stroke:#181818;stroke-width:1.0;"/></g><!--link animation to foundation--><g id="link_animation_foundation"><path d="M156.27,932.27 C178.62,961.51 214.9457,1009.0036 237.2257,1038.1436 " fill="none" id="animation-to-foundation" style="stroke:#181818;stroke-width:1.0;"/><polygon fill="#181818" points="240.87,1042.91,238.5811,1033.3308,237.8331,1038.938,232.2259,1038.1899,240.87,1042.91" style="stroke:#181818;stroke-width:1.0;"/></g><!--link painting to foundation--><g id="link_painting_foundation"><path d="M257,932.27 C257,961.51 257,1007.77 257,1036.91 " fill="none" id="painting-to-foundation" style="stroke:#181818;stroke-width:1.0;"/><polygon fill="#181818" points="257,1042.91,261,1033.91,257,1037.91,253,1033.91,257,1042.91" style="stroke:#181818;stroke-width:1.0;"/></g><!--link gestures to foundation--><g id="link_gestures_foundation"><path d="M356.87,932.27 C334.71,961.51 298.7046,1008.9886 276.6146,1038.1286 " fill="none" id="gestures-to-foundation" style="stroke:#181818;stroke-width:1.0;"/><polygon fill="#181818" points="272.99,1042.91,281.6146,1038.1543,276.0105,1038.9255,275.2393,1033.3214,272.99,1042.91" style="stroke:#181818;stroke-width:1.0;"/></g><!--link auth to dartApp--><g id="link_auth_dartApp"><path d="M1668.6702,111.8745 C1650.0302,126.5045 1628.42,141.91 1603,155 C1593.38,159.95 1586.67,154.48 1580,163 C1552.11,198.64 1547.0725,249.1 1549.1475,291.1575 C1549.6663,301.6719 1550.6295,311.6611 1551.7914,320.7623 C1552.0819,323.0376 1552.3848,325.2574 1552.6962,327.416 C1552.7741,327.9557 1551.9724,322.5564 1552.0513,323.0884 " fill="none" id="auth-dartApp" style="stroke:#000000;stroke-width:1.0;stroke-dasharray:7.0,7.0;"/><polygon fill="#000000" points="1673.39,108.17,1663.8406,110.5801,1669.4568,111.2571,1668.7799,116.8733,1673.39,108.17" style="stroke:#000000;stroke-width:1.0;"/><polygon fill="#000000" points="1552.9313,329.0235,1555.568,319.5341,1552.198,324.0775,1547.6545,320.7075,1552.9313,329.0235" style="stroke:#000000;stroke-width:1.0;"/><text fill="#000000" font-family="sans-serif" font-size="11" lengthAdjust="spacing" textLength="32" x="1629" y="152.4189">HTTPS</text></g><!--link fileStorage to dartApp--><g id="link_fileStorage_dartApp"><path d="M1561,114.2 C1561,146.475 1561,204.1575 1561,260.5125 C1561,267.5569 1561,274.4868 1561,281.2265 C1561,284.5964 1561,281.9187 1561,285.184 " fill="none" id="fileStorage-dartApp" style="stroke:#000000;stroke-width:1.0;stroke-dasharray:7.0,7.0;"/><polygon fill="#000000" points="1561,108.2,1557,117.2,1561,113.2,1565,117.2,1561,108.2" style="stroke:#000000;stroke-width:1.0;"/><polygon fill="#000000" points="1561,291.184,1565,282.184,1561,286.184,1557,282.184,1561,291.184" style="stroke:#000000;stroke-width:1.0;"/><text fill="#000000" font-family="sans-serif" font-size="11" lengthAdjust="spacing" textLength="32" x="1562" y="152.4189">HTTPS</text></g><!--link dartApp to expressAPI--><g id="link_dartApp_expressAPI"><path d="M1551.9402,328.7811 C1551.8653,328.3315 1552.6764,333.1232 1552.6025,332.6679 C1552.4548,331.7571 1552.3093,330.835 1552.1664,329.902 C1551.8805,328.0361 1551.6051,326.1271 1551.3436,324.1799 C1550.2973,316.3909 1549.4731,307.9906 1549.0925,299.295 C1547.57,264.5125 1553.145,225.005 1580,201 C1639.64,147.69 1872.61,157.88 1940,201 C1991.31,233.83 2008.42,304.0125 2014.36,341.8725 " fill="none" id="dartApp-expressAPI" style="stroke:#000000;stroke-width:1.0;stroke-dasharray:7.0,7.0;"/><polygon fill="#000000" points="1552.9383,334.6975,1555.3854,325.1575,1552.1065,329.7672,1547.4968,326.4884,1552.9383,334.6975" style="stroke:#000000;stroke-width:1.0;"/><polygon fill="#000000" points="2015.29,347.8,2017.8467,338.2888,2014.515,342.8604,2009.9434,339.5288,2015.29,347.8" style="stroke:#000000;stroke-width:1.0;"/><text fill="#000000" font-family="sans-serif" font-size="11" lengthAdjust="spacing" textLength="32" x="1936" y="152.4189">HTTPS</text></g><!--link expressAPI to prismaClient--><g id="link_expressAPI_prismaClient"><path d="M2017.8436,398.3099 C2017.6436,431.2599 2017.3448,482.1701 2017.1548,514.9601 " fill="none" id="expressAPI-prismaClient" style="stroke:#000000;stroke-width:1.0;stroke-dasharray:7.0,7.0;"/><polygon fill="#000000" points="2017.88,392.31,2013.8254,401.2856,2017.8497,397.3099,2021.8253,401.3341,2017.88,392.31" style="stroke:#000000;stroke-width:1.0;"/><polygon fill="#000000" points="2017.12,520.96,2021.1721,511.9833,2017.149,515.9601,2013.1722,511.937,2017.12,520.96" style="stroke:#000000;stroke-width:1.0;"/></g><!--link prismaClient to postgresDB--><g id="link_prismaClient_postgresDB"><path d="M1998.2316,515.7221 C1983.4116,494.2521 1964.67,464.66 1951,432 C1901.92,314.74 1875.2455,169.3518 1866.2555,114.2118 " fill="none" id="prismaClient-postgresDB" style="stroke:#000000;stroke-width:1.0;stroke-dasharray:7.0,7.0;"/><polygon fill="#000000" points="2001.64,520.66,1999.8193,510.9809,1998.7996,516.5451,1993.2354,515.5255,2001.64,520.66" style="stroke:#000000;stroke-width:1.0;"/><polygon fill="#000000" points="1865.29,108.29,1862.7904,117.8164,1866.0946,113.2248,1870.6861,116.5291,1865.29,108.29" style="stroke:#000000;stroke-width:1.0;"/></g><!--SRC=[dLPBR-Cs4BxhLn3f8LiiuYJeBN0DU1sd3P0KtbMA7XPxO2HQ9YAH0Xz9jelyzmvV8cMP3hO-69oFC-HevXlEo2VAUYnmXrQywpaZJ7t2rLCZk6RrYhTSe9STLQIGWs9DjbYtwe6ygcLB6zQ13QhWZuYfrWrdggJ_4dHvMHICrmITtFD7sX9qJPvfHKuGbgYpY0FGZmB1hmhUe9ERLYiu6otxtcfldGmYci_zvjLliykBsSLYuStDxnHTOw7G7VuEZWKmETVkXaDh4Co9qNnFsspUyOPMLXttlHLosl_GkY5AMjqNjnvKtuh4nHk85NdXuYdlP_Z-gFh1kFwh2yO0PZs_ns1DSNk-qZqHYZBkWkxX0Vs9RndxkgV_XR0QJcQDjH11EcgpP1JyePovw0Offxx1bAbmG- -5dF8VH2ejYFk0nWivvHl3- -Z9TX2Jz8NLeMGP7brfYfQRsu5NVz_k9USm5TQieOoypmElzs5rllhuqR60E2XBWP88MriRmHMlU6kDf0C3bhErxuAaGqYgA6VJqsArvGBUb1rcZBGkzBr70vYpjdLvApce4rGIfME5UjI2Fqc_R6Y-IqKwj7u6oVafBUA0epv-qS2xZg3xfbE3YnuqM9PZfcPHMUr8hTlWg2taY6KBHKe2DnC8X8xrOi287RztGti2DupkZLZErhpsXffSkqzL83ln49aJmtNtIEhQFD- -8eW7G0R27Yw5GA0psPEARccLhug1QyD5ey88u8_ZT46b5bjSfNnppF7uKSRz1G_4CmIsrL25ZaFCGXuvrb8sq6nn4v81RMK0ifdO2OBhn55bWQCUMZ93- -8zkZLzcZjBOc23Ul2TL4wp4d8QIdkIqqC1rr3zmeNOBgSMRyLR61RCC0A9iEgFRZsT4DQlFJpfCbBCoI3kQsu4bHr6gvQ2w5otY0FYjQNkyIEMRZoHNfXUlDHg1mjQ9RqBeCa4O-QTKd616tVY5W0lJppaKZM2b9_lO7nHqOdUuVBwa_7orEMHuHQ5jb1n26Pb_915c6REpXPnGYZYh61mrvaAtw0Cuhf8uPk9HMAj5cdTfdl3XaKJ9XGfAyoUIpVuReiP9aI5ARI1oI1YbKUJHYgueyPJnLYq6aEZFx0tJ0m7zkBiCQnS6ECa4CptyN3bFbwOVArVVRxIF9sYKV0YRz4L-lFXOJCaSZxx-ik5_NtJiuKb6QZCjzoCtcPA_ztjBenLEJyt6ukSTSA-_tU8cEtv-juPfsZ4oD7zrrH0E49v54LoS78bt3Ygr5JOrukLKlm7]--></g></svg>