<?xml version="1.0" encoding="us-ascii" standalone="no"?><svg xmlns="http://www.w3.org/2000/svg" xmlns:xlink="http://www.w3.org/1999/xlink" contentStyleType="text/css" height="1141px" preserveAspectRatio="none" style="width:2100px;height:1141px;background:#FFFFFF;" version="1.1" viewBox="0 0 2100 1141" width="2100px" zoomAndPan="magnify"><defs/><g><!--cluster mobileDevice--><g id="cluster_mobileDevice"><polygon fill="none" points="16,137,26,127,1880,127,1880,1114,1870,1124,16,1124,16,137" style="stroke:#181818;stroke-width:1.0;"/><line style="stroke:#181818;stroke-width:1.0;" x1="1870" x2="1880" y1="137" y2="127"/><line style="stroke:#181818;stroke-width:1.0;" x1="16" x2="1870" y1="137" y2="137"/><line style="stroke:#181818;stroke-width:1.0;" x1="1870" x2="1870" y1="137" y2="1124"/><text fill="#000000" font-family="sans-serif" font-size="11" font-weight="bold" lengthAdjust="spacing" textLength="76" x="906" y="151.4189">Mobile Device</text></g><!--cluster flutterApp--><g id="cluster_flutterApp"><rect fill="#FFFFFF" height="928" rx="2.5" ry="2.5" style="stroke:#181818;stroke-width:1.0;" width="1816" x="40" y="172"/><rect fill="#FFFFFF" height="10" style="stroke:#181818;stroke-width:1.0;" width="15" x="1836" y="177"/><rect fill="#FFFFFF" height="2" style="stroke:#181818;stroke-width:1.0;" width="4" x="1834" y="179"/><rect fill="#FFFFFF" height="2" style="stroke:#181818;stroke-width:1.0;" width="4" x="1834" y="183"/><text fill="#000000" font-family="sans-serif" font-size="11" font-weight="bold" lengthAdjust="spacing" textLength="61" x="917.5" y="196.4189">Flutter App</text></g><!--cluster dartApp--><g id="cluster_dartApp"><rect fill="#FFFFFF" height="108" rx="2.5" ry="2.5" style="stroke:#181818;stroke-width:1.0;" width="271" x="1553" y="220"/><rect fill="#FFFFFF" height="10" style="stroke:#181818;stroke-width:1.0;" width="15" x="1804" y="225"/><rect fill="#FFFFFF" height="2" style="stroke:#181818;stroke-width:1.0;" width="4" x="1802" y="227"/><rect fill="#FFFFFF" height="2" style="stroke:#181818;stroke-width:1.0;" width="4" x="1802" y="231"/><text fill="#000000" font-family="sans-serif" font-size="11" font-weight="bold" lengthAdjust="spacing" textLength="47" x="1665" y="244.4189">Dart App</text></g><!--cluster framework--><g id="cluster_framework"><rect fill="#FFFFFF" height="532" rx="2.5" ry="2.5" style="stroke:#181818;stroke-width:1.0;" width="376" x="72" y="368"/><rect fill="#FFFFFF" height="10" style="stroke:#181818;stroke-width:1.0;" width="15" x="428" y="373"/><rect fill="#FFFFFF" height="2" style="stroke:#181818;stroke-width:1.0;" width="4" x="426" y="375"/><rect fill="#FFFFFF" height="2" style="stroke:#181818;stroke-width:1.0;" width="4" x="426" y="379"/><text fill="#000000" font-family="sans-serif" font-size="11" font-weight="bold" lengthAdjust="spacing" textLength="136" x="192" y="392.4189">Flutter Framework (Dart)</text></g><!--cluster engine--><g id="cluster_engine"><rect fill="#FFFFFF" height="320" rx="2.5" ry="2.5" style="stroke:#181818;stroke-width:1.0;" width="643" x="488" y="580"/><rect fill="#FFFFFF" height="10" style="stroke:#181818;stroke-width:1.0;" width="15" x="1111" y="585"/><rect fill="#FFFFFF" height="2" style="stroke:#181818;stroke-width:1.0;" width="4" x="1109" y="587"/><rect fill="#FFFFFF" height="2" style="stroke:#181818;stroke-width:1.0;" width="4" x="1109" y="591"/><text fill="#000000" font-family="sans-serif" font-size="11" font-weight="bold" lengthAdjust="spacing" textLength="118" x="750.5" y="604.4189">Flutter Engine (C/C++)</text></g><!--cluster embedder--><g id="cluster_embedder"><rect fill="#FFFFFF" height="212" rx="2.5" ry="2.5" style="stroke:#181818;stroke-width:1.0;" width="505" x="1171" y="792"/><rect fill="#FFFFFF" height="10" style="stroke:#181818;stroke-width:1.0;" width="15" x="1656" y="797"/><rect fill="#FFFFFF" height="2" style="stroke:#181818;stroke-width:1.0;" width="4" x="1654" y="799"/><rect fill="#FFFFFF" height="2" style="stroke:#181818;stroke-width:1.0;" width="4" x="1654" y="803"/><text fill="#000000" font-family="sans-serif" font-size="11" font-weight="bold" lengthAdjust="spacing" textLength="149" x="1349" y="816.4189">Platform Embedder (C/C++)</text></g><!--cluster backend--><g id="cluster_backend"><polygon fill="none" points="1949,233,1959,223,2083,223,2083,458,2073,468,1949,468,1949,233" style="stroke:#181818;stroke-width:1.0;"/><line style="stroke:#181818;stroke-width:1.0;" x1="2073" x2="2083" y1="233" y2="223"/><line style="stroke:#181818;stroke-width:1.0;" x1="1949" x2="2073" y1="233" y2="233"/><line style="stroke:#181818;stroke-width:1.0;" x1="2073" x2="2073" y1="233" y2="468"/><text fill="#000000" font-family="sans-serif" font-size="11" font-weight="bold" lengthAdjust="spacing" textLength="47" x="1988.5" y="247.4189">Backend</text></g><!--cluster supabase--><g id="cluster_supabase"><polygon fill="none" points="1490,16,1500,6,1946,6,1946,93,1936,103,1490,103,1490,16" style="stroke:#181818;stroke-width:1.0;"/><line style="stroke:#181818;stroke-width:1.0;" x1="1936" x2="1946" y1="16" y2="6"/><line style="stroke:#181818;stroke-width:1.0;" x1="1490" x2="1936" y1="16" y2="16"/><line style="stroke:#181818;stroke-width:1.0;" x1="1936" x2="1936" y1="16" y2="103"/><text fill="#000000" font-family="sans-serif" font-size="11" font-weight="bold" lengthAdjust="spacing" textLength="54" x="1687" y="30.4189">Supabase</text></g><!--entity appLogic--><g id="elem_appLogic"><rect fill="#FFFFFF" height="43.8359" rx="2.5" ry="2.5" style="stroke:#181818;stroke-width:0.5;" width="89" x="1710.5" y="260"/><rect fill="#FFFFFF" height="10" style="stroke:#181818;stroke-width:0.5;" width="15" x="1779.5" y="265"/><rect fill="#FFFFFF" height="2" style="stroke:#181818;stroke-width:0.5;" width="4" x="1777.5" y="267"/><rect fill="#FFFFFF" height="2" style="stroke:#181818;stroke-width:0.5;" width="4" x="1777.5" y="271"/><text fill="#000000" font-family="sans-serif" font-size="11" lengthAdjust="spacing" textLength="49" x="1725.5" y="291.4189">App Logic</text></g><!--entity widgets--><g id="elem_widgets"><rect fill="#FFFFFF" height="43.8359" rx="2.5" ry="2.5" style="stroke:#181818;stroke-width:0.5;" width="79" x="1596.5" y="260"/><rect fill="#FFFFFF" height="10" style="stroke:#181818;stroke-width:0.5;" width="15" x="1655.5" y="265"/><rect fill="#FFFFFF" height="2" style="stroke:#181818;stroke-width:0.5;" width="4" x="1653.5" y="267"/><rect fill="#FFFFFF" height="2" style="stroke:#181818;stroke-width:0.5;" width="4" x="1653.5" y="271"/><text fill="#000000" font-family="sans-serif" font-size="11" lengthAdjust="spacing" textLength="39" x="1611.5" y="291.4189">Widgets</text></g><!--entity materialCupertino--><g id="elem_materialCupertino"><rect fill="#FFFFFF" height="43.8359" rx="2.5" ry="2.5" style="stroke:#181818;stroke-width:0.5;" width="126" x="194" y="408"/><rect fill="#FFFFFF" height="10" style="stroke:#181818;stroke-width:0.5;" width="15" x="300" y="413"/><rect fill="#FFFFFF" height="2" style="stroke:#181818;stroke-width:0.5;" width="4" x="298" y="415"/><rect fill="#FFFFFF" height="2" style="stroke:#181818;stroke-width:0.5;" width="4" x="298" y="419"/><text fill="#000000" font-family="sans-serif" font-size="11" lengthAdjust="spacing" textLength="86" x="209" y="439.4189">Material/Cupertino</text></g><!--entity widgetsLayer--><g id="elem_widgetsLayer"><rect fill="#FFFFFF" height="43.8359" rx="2.5" ry="2.5" style="stroke:#181818;stroke-width:0.5;" width="79" x="217.5" y="512"/><rect fill="#FFFFFF" height="10" style="stroke:#181818;stroke-width:0.5;" width="15" x="276.5" y="517"/><rect fill="#FFFFFF" height="2" style="stroke:#181818;stroke-width:0.5;" width="4" x="274.5" y="519"/><rect fill="#FFFFFF" height="2" style="stroke:#181818;stroke-width:0.5;" width="4" x="274.5" y="523"/><text fill="#000000" font-family="sans-serif" font-size="11" lengthAdjust="spacing" textLength="39" x="232.5" y="543.4189">Widgets</text></g><!--entity renderingLayer--><g id="elem_renderingLayer"><rect fill="#FFFFFF" height="43.8359" rx="2.5" ry="2.5" style="stroke:#181818;stroke-width:0.5;" width="89" x="212.5" y="620"/><rect fill="#FFFFFF" height="10" style="stroke:#181818;stroke-width:0.5;" width="15" x="281.5" y="625"/><rect fill="#FFFFFF" height="2" style="stroke:#181818;stroke-width:0.5;" width="4" x="279.5" y="627"/><rect fill="#FFFFFF" height="2" style="stroke:#181818;stroke-width:0.5;" width="4" x="279.5" y="631"/><text fill="#000000" font-family="sans-serif" font-size="11" lengthAdjust="spacing" textLength="49" x="227.5" y="651.4189">Rendering</text></g><!--entity animation--><g id="elem_animation"><rect fill="#FFFFFF" height="43.8359" rx="2.5" ry="2.5" style="stroke:#181818;stroke-width:0.5;" width="87" x="96.5" y="724"/><rect fill="#FFFFFF" height="10" style="stroke:#181818;stroke-width:0.5;" width="15" x="163.5" y="729"/><rect fill="#FFFFFF" height="2" style="stroke:#181818;stroke-width:0.5;" width="4" x="161.5" y="731"/><rect fill="#FFFFFF" height="2" style="stroke:#181818;stroke-width:0.5;" width="4" x="161.5" y="735"/><text fill="#000000" font-family="sans-serif" font-size="11" lengthAdjust="spacing" textLength="47" x="111.5" y="755.4189">Animation</text></g><!--entity painting--><g id="elem_painting"><rect fill="#FFFFFF" height="43.8359" rx="2.5" ry="2.5" style="stroke:#181818;stroke-width:0.5;" width="77" x="218.5" y="724"/><rect fill="#FFFFFF" height="10" style="stroke:#181818;stroke-width:0.5;" width="15" x="275.5" y="729"/><rect fill="#FFFFFF" height="2" style="stroke:#181818;stroke-width:0.5;" width="4" x="273.5" y="731"/><rect fill="#FFFFFF" height="2" style="stroke:#181818;stroke-width:0.5;" width="4" x="273.5" y="735"/><text fill="#000000" font-family="sans-serif" font-size="11" lengthAdjust="spacing" textLength="37" x="233.5" y="755.4189">Painting</text></g><!--entity gestures--><g id="elem_gestures"><rect fill="#FFFFFF" height="43.8359" rx="2.5" ry="2.5" style="stroke:#181818;stroke-width:0.5;" width="85" x="330.5" y="724"/><rect fill="#FFFFFF" height="10" style="stroke:#181818;stroke-width:0.5;" width="15" x="395.5" y="729"/><rect fill="#FFFFFF" height="2" style="stroke:#181818;stroke-width:0.5;" width="4" x="393.5" y="731"/><rect fill="#FFFFFF" height="2" style="stroke:#181818;stroke-width:0.5;" width="4" x="393.5" y="735"/><text fill="#000000" font-family="sans-serif" font-size="11" lengthAdjust="spacing" textLength="45" x="345.5" y="755.4189">Gestures</text></g><!--entity foundation--><g id="elem_foundation"><rect fill="#FFFFFF" height="43.8359" rx="2.5" ry="2.5" style="stroke:#181818;stroke-width:0.5;" width="93" x="210.5" y="832"/><rect fill="#FFFFFF" height="10" style="stroke:#181818;stroke-width:0.5;" width="15" x="283.5" y="837"/><rect fill="#FFFFFF" height="2" style="stroke:#181818;stroke-width:0.5;" width="4" x="281.5" y="839"/><rect fill="#FFFFFF" height="2" style="stroke:#181818;stroke-width:0.5;" width="4" x="281.5" y="843"/><text fill="#000000" font-family="sans-serif" font-size="11" lengthAdjust="spacing" textLength="53" x="225.5" y="863.4189">Foundation</text></g><!--entity dartUI--><g id="elem_dartUI"><rect fill="#FFFFFF" height="43.8359" rx="2.5" ry="2.5" style="stroke:#181818;stroke-width:0.5;" width="89" x="775.5" y="512"/><rect fill="#FFFFFF" height="10" style="stroke:#181818;stroke-width:0.5;" width="15" x="844.5" y="517"/><rect fill="#FFFFFF" height="2" style="stroke:#181818;stroke-width:0.5;" width="4" x="842.5" y="519"/><rect fill="#FFFFFF" height="2" style="stroke:#181818;stroke-width:0.5;" width="4" x="842.5" y="523"/><text fill="#000000" font-family="sans-serif" font-size="11" lengthAdjust="spacing" textLength="49" x="790.5" y="543.4189">dart:ui API</text></g><!--entity serviceProtocol--><g id="elem_serviceProtocol"><rect fill="#FFFFFF" height="43.8359" rx="2.5" ry="2.5" style="stroke:#181818;stroke-width:0.5;" width="119" x="512.5" y="620"/><rect fill="#FFFFFF" height="10" style="stroke:#181818;stroke-width:0.5;" width="15" x="611.5" y="625"/><rect fill="#FFFFFF" height="2" style="stroke:#181818;stroke-width:0.5;" width="4" x="609.5" y="627"/><rect fill="#FFFFFF" height="2" style="stroke:#181818;stroke-width:0.5;" width="4" x="609.5" y="631"/><text fill="#000000" font-family="sans-serif" font-size="11" lengthAdjust="spacing" textLength="79" x="527.5" y="651.4189">Service Protocol</text></g><!--entity composition--><g id="elem_composition"><rect fill="#FFFFFF" height="43.8359" rx="2.5" ry="2.5" style="stroke:#181818;stroke-width:0.5;" width="98" x="667" y="620"/><rect fill="#FFFFFF" height="10" style="stroke:#181818;stroke-width:0.5;" width="15" x="745" y="625"/><rect fill="#FFFFFF" height="2" style="stroke:#181818;stroke-width:0.5;" width="4" x="743" y="627"/><rect fill="#FFFFFF" height="2" style="stroke:#181818;stroke-width:0.5;" width="4" x="743" y="631"/><text fill="#000000" font-family="sans-serif" font-size="11" lengthAdjust="spacing" textLength="58" x="682" y="651.4189">Composition</text></g><!--entity platformChannels--><g id="elem_platformChannels"><rect fill="#FFFFFF" height="43.8359" rx="2.5" ry="2.5" style="stroke:#181818;stroke-width:0.5;" width="127" x="800.5" y="620"/><rect fill="#FFFFFF" height="10" style="stroke:#181818;stroke-width:0.5;" width="15" x="907.5" y="625"/><rect fill="#FFFFFF" height="2" style="stroke:#181818;stroke-width:0.5;" width="4" x="905.5" y="627"/><rect fill="#FFFFFF" height="2" style="stroke:#181818;stroke-width:0.5;" width="4" x="905.5" y="631"/><text fill="#000000" font-family="sans-serif" font-size="11" lengthAdjust="spacing" textLength="87" x="815.5" y="651.4189">Platform Channels</text></g><!--entity dartIsolateSetup--><g id="elem_dartIsolateSetup"><rect fill="#FFFFFF" height="43.8359" rx="2.5" ry="2.5" style="stroke:#181818;stroke-width:0.5;" width="125" x="962.5" y="620"/><rect fill="#FFFFFF" height="10" style="stroke:#181818;stroke-width:0.5;" width="15" x="1067.5" y="625"/><rect fill="#FFFFFF" height="2" style="stroke:#181818;stroke-width:0.5;" width="4" x="1065.5" y="627"/><rect fill="#FFFFFF" height="2" style="stroke:#181818;stroke-width:0.5;" width="4" x="1065.5" y="631"/><text fill="#000000" font-family="sans-serif" font-size="11" lengthAdjust="spacing" textLength="85" x="977.5" y="651.4189">Dart Isolate Setup</text></g><!--entity rendering--><g id="elem_rendering"><rect fill="#FFFFFF" height="43.8359" rx="2.5" ry="2.5" style="stroke:#181818;stroke-width:0.5;" width="89" x="525.5" y="724"/><rect fill="#FFFFFF" height="10" style="stroke:#181818;stroke-width:0.5;" width="15" x="594.5" y="729"/><rect fill="#FFFFFF" height="2" style="stroke:#181818;stroke-width:0.5;" width="4" x="592.5" y="731"/><rect fill="#FFFFFF" height="2" style="stroke:#181818;stroke-width:0.5;" width="4" x="592.5" y="735"/><text fill="#000000" font-family="sans-serif" font-size="11" lengthAdjust="spacing" textLength="49" x="540.5" y="755.4189">Rendering</text></g><!--entity systemEvents--><g id="elem_systemEvents"><rect fill="#FFFFFF" height="43.8359" rx="2.5" ry="2.5" style="stroke:#181818;stroke-width:0.5;" width="112" x="650" y="724"/><rect fill="#FFFFFF" height="10" style="stroke:#181818;stroke-width:0.5;" width="15" x="742" y="729"/><rect fill="#FFFFFF" height="2" style="stroke:#181818;stroke-width:0.5;" width="4" x="740" y="731"/><rect fill="#FFFFFF" height="2" style="stroke:#181818;stroke-width:0.5;" width="4" x="740" y="735"/><text fill="#000000" font-family="sans-serif" font-size="11" lengthAdjust="spacing" textLength="72" x="665" y="755.4189">System Events</text></g><!--entity dartRuntimeMgmt--><g id="elem_dartRuntimeMgmt"><rect fill="#FFFFFF" height="43.8359" rx="2.5" ry="2.5" style="stroke:#181818;stroke-width:0.5;" width="129" x="797.5" y="724"/><rect fill="#FFFFFF" height="10" style="stroke:#181818;stroke-width:0.5;" width="15" x="906.5" y="729"/><rect fill="#FFFFFF" height="2" style="stroke:#181818;stroke-width:0.5;" width="4" x="904.5" y="731"/><rect fill="#FFFFFF" height="2" style="stroke:#181818;stroke-width:0.5;" width="4" x="904.5" y="735"/><text fill="#000000" font-family="sans-serif" font-size="11" lengthAdjust="spacing" textLength="89" x="812.5" y="755.4189">Dart Runtime Mgmt</text></g><!--entity frameScheduling--><g id="elem_frameScheduling"><rect fill="#FFFFFF" height="43.8359" rx="2.5" ry="2.5" style="stroke:#181818;stroke-width:0.5;" width="126" x="962" y="724"/><rect fill="#FFFFFF" height="10" style="stroke:#181818;stroke-width:0.5;" width="15" x="1068" y="729"/><rect fill="#FFFFFF" height="2" style="stroke:#181818;stroke-width:0.5;" width="4" x="1066" y="731"/><rect fill="#FFFFFF" height="2" style="stroke:#181818;stroke-width:0.5;" width="4" x="1066" y="735"/><text fill="#000000" font-family="sans-serif" font-size="11" lengthAdjust="spacing" textLength="86" x="977" y="755.4189">Frame Scheduling</text></g><!--entity assetResolution--><g id="elem_assetResolution"><rect fill="#FFFFFF" height="43.8359" rx="2.5" ry="2.5" style="stroke:#181818;stroke-width:0.5;" width="122" x="512" y="832"/><rect fill="#FFFFFF" height="10" style="stroke:#181818;stroke-width:0.5;" width="15" x="614" y="837"/><rect fill="#FFFFFF" height="2" style="stroke:#181818;stroke-width:0.5;" width="4" x="612" y="839"/><rect fill="#FFFFFF" height="2" style="stroke:#181818;stroke-width:0.5;" width="4" x="612" y="843"/><text fill="#000000" font-family="sans-serif" font-size="11" lengthAdjust="spacing" textLength="82" x="527" y="863.4189">Asset Resolution</text></g><!--entity framePipelining--><g id="elem_framePipelining"><rect fill="#FFFFFF" height="43.8359" rx="2.5" ry="2.5" style="stroke:#181818;stroke-width:0.5;" width="117" x="669.5" y="832"/><rect fill="#FFFFFF" height="10" style="stroke:#181818;stroke-width:0.5;" width="15" x="766.5" y="837"/><rect fill="#FFFFFF" height="2" style="stroke:#181818;stroke-width:0.5;" width="4" x="764.5" y="839"/><rect fill="#FFFFFF" height="2" style="stroke:#181818;stroke-width:0.5;" width="4" x="764.5" y="843"/><text fill="#000000" font-family="sans-serif" font-size="11" lengthAdjust="spacing" textLength="77" x="684.5" y="863.4189">Frame Pipelining</text></g><!--entity textLayout--><g id="elem_textLayout"><rect fill="#FFFFFF" height="43.8359" rx="2.5" ry="2.5" style="stroke:#181818;stroke-width:0.5;" width="97" x="821.5" y="832"/><rect fill="#FFFFFF" height="10" style="stroke:#181818;stroke-width:0.5;" width="15" x="898.5" y="837"/><rect fill="#FFFFFF" height="2" style="stroke:#181818;stroke-width:0.5;" width="4" x="896.5" y="839"/><rect fill="#FFFFFF" height="2" style="stroke:#181818;stroke-width:0.5;" width="4" x="896.5" y="843"/><text fill="#000000" font-family="sans-serif" font-size="11" lengthAdjust="spacing" textLength="57" x="836.5" y="863.4189">Text Layout</text></g><!--entity embedderAPI--><g id="elem_embedderAPI"><rect fill="#FFFFFF" height="43.8359" rx="2.5" ry="2.5" style="stroke:#181818;stroke-width:0.5;" width="107" x="1384.5" y="724"/><rect fill="#FFFFFF" height="10" style="stroke:#181818;stroke-width:0.5;" width="15" x="1471.5" y="729"/><rect fill="#FFFFFF" height="2" style="stroke:#181818;stroke-width:0.5;" width="4" x="1469.5" y="731"/><rect fill="#FFFFFF" height="2" style="stroke:#181818;stroke-width:0.5;" width="4" x="1469.5" y="735"/><text fill="#000000" font-family="sans-serif" font-size="11" lengthAdjust="spacing" textLength="67" x="1399.5" y="755.4189">Embedder API</text></g><!--entity renderSurfaceSetup--><g id="elem_renderSurfaceSetup"><rect fill="#FFFFFF" height="43.8359" rx="2.5" ry="2.5" style="stroke:#181818;stroke-width:0.5;" width="148" x="1195" y="832"/><rect fill="#FFFFFF" height="10" style="stroke:#181818;stroke-width:0.5;" width="15" x="1323" y="837"/><rect fill="#FFFFFF" height="2" style="stroke:#181818;stroke-width:0.5;" width="4" x="1321" y="839"/><rect fill="#FFFFFF" height="2" style="stroke:#181818;stroke-width:0.5;" width="4" x="1321" y="843"/><text fill="#000000" font-family="sans-serif" font-size="11" lengthAdjust="spacing" textLength="108" x="1210" y="863.4189">Render Surface Setup</text></g><!--entity nativePlugins--><g id="elem_nativePlugins"><rect fill="#FFFFFF" height="43.8359" rx="2.5" ry="2.5" style="stroke:#181818;stroke-width:0.5;" width="107" x="1378.5" y="832"/><rect fill="#FFFFFF" height="10" style="stroke:#181818;stroke-width:0.5;" width="15" x="1465.5" y="837"/><rect fill="#FFFFFF" height="2" style="stroke:#181818;stroke-width:0.5;" width="4" x="1463.5" y="839"/><rect fill="#FFFFFF" height="2" style="stroke:#181818;stroke-width:0.5;" width="4" x="1463.5" y="843"/><text fill="#000000" font-family="sans-serif" font-size="11" lengthAdjust="spacing" textLength="67" x="1393.5" y="863.4189">Native Plugins</text></g><!--entity appPackaging--><g id="elem_appPackaging"><rect fill="#FFFFFF" height="43.8359" rx="2.5" ry="2.5" style="stroke:#181818;stroke-width:0.5;" width="112" x="1521" y="832"/><rect fill="#FFFFFF" height="10" style="stroke:#181818;stroke-width:0.5;" width="15" x="1613" y="837"/><rect fill="#FFFFFF" height="2" style="stroke:#181818;stroke-width:0.5;" width="4" x="1611" y="839"/><rect fill="#FFFFFF" height="2" style="stroke:#181818;stroke-width:0.5;" width="4" x="1611" y="843"/><text fill="#000000" font-family="sans-serif" font-size="11" lengthAdjust="spacing" textLength="72" x="1536" y="863.4189">App Packaging</text></g><!--entity threadSetup--><g id="elem_threadSetup"><rect fill="#FFFFFF" height="43.8359" rx="2.5" ry="2.5" style="stroke:#181818;stroke-width:0.5;" width="105" x="1216.5" y="936"/><rect fill="#FFFFFF" height="10" style="stroke:#181818;stroke-width:0.5;" width="15" x="1301.5" y="941"/><rect fill="#FFFFFF" height="2" style="stroke:#181818;stroke-width:0.5;" width="4" x="1299.5" y="943"/><rect fill="#FFFFFF" height="2" style="stroke:#181818;stroke-width:0.5;" width="4" x="1299.5" y="947"/><text fill="#000000" font-family="sans-serif" font-size="11" lengthAdjust="spacing" textLength="65" x="1231.5" y="967.4189">Thread Setup</text></g><!--entity eventLoopInterop--><g id="elem_eventLoopInterop"><rect fill="#FFFFFF" height="43.8359" rx="2.5" ry="2.5" style="stroke:#181818;stroke-width:0.5;" width="130" x="1357" y="936"/><rect fill="#FFFFFF" height="10" style="stroke:#181818;stroke-width:0.5;" width="15" x="1467" y="941"/><rect fill="#FFFFFF" height="2" style="stroke:#181818;stroke-width:0.5;" width="4" x="1465" y="943"/><rect fill="#FFFFFF" height="2" style="stroke:#181818;stroke-width:0.5;" width="4" x="1465" y="947"/><text fill="#000000" font-family="sans-serif" font-size="11" lengthAdjust="spacing" textLength="90" x="1372" y="967.4189">Event Loop Interop</text></g><!--entity platformAPI--><g id="elem_platformAPI"><rect fill="#FFFFFF" height="43.8359" rx="2.5" ry="2.5" style="stroke:#181818;stroke-width:0.5;" width="140" x="1700" y="936"/><rect fill="#FFFFFF" height="10" style="stroke:#181818;stroke-width:0.5;" width="15" x="1820" y="941"/><rect fill="#FFFFFF" height="2" style="stroke:#181818;stroke-width:0.5;" width="4" x="1818" y="943"/><rect fill="#FFFFFF" height="2" style="stroke:#181818;stroke-width:0.5;" width="4" x="1818" y="947"/><text fill="#000000" font-family="sans-serif" font-size="11" lengthAdjust="spacing" textLength="100" x="1715" y="967.4189">Platform-specific API</text></g><!--entity runner--><g id="elem_runner"><rect fill="#FFFFFF" height="43.8359" rx="2.5" ry="2.5" style="stroke:#181818;stroke-width:0.5;" width="75" x="1732.5" y="1040"/><rect fill="#FFFFFF" height="10" style="stroke:#181818;stroke-width:0.5;" width="15" x="1787.5" y="1045"/><rect fill="#FFFFFF" height="2" style="stroke:#181818;stroke-width:0.5;" width="4" x="1785.5" y="1047"/><rect fill="#FFFFFF" height="2" style="stroke:#181818;stroke-width:0.5;" width="4" x="1785.5" y="1051"/><text fill="#000000" font-family="sans-serif" font-size="11" lengthAdjust="spacing" textLength="35" x="1747.5" y="1071.4189">Runner</text></g><!--entity expressAPI--><g id="elem_expressAPI"><rect fill="#FFFFFF" height="43.8359" rx="2.5" ry="2.5" style="stroke:#181818;stroke-width:0.5;" width="99" x="1967.5" y="260"/><rect fill="#FFFFFF" height="10" style="stroke:#181818;stroke-width:0.5;" width="15" x="2046.5" y="265"/><rect fill="#FFFFFF" height="2" style="stroke:#181818;stroke-width:0.5;" width="4" x="2044.5" y="267"/><rect fill="#FFFFFF" height="2" style="stroke:#181818;stroke-width:0.5;" width="4" x="2044.5" y="271"/><text fill="#000000" font-family="sans-serif" font-size="11" lengthAdjust="spacing" textLength="59" x="1982.5" y="291.4189">Express API</text></g><!--entity prismaClient--><g id="elem_prismaClient"><rect fill="#FFFFFF" height="43.8359" rx="2.5" ry="2.5" style="stroke:#181818;stroke-width:0.5;" width="101" x="1965.5" y="408"/><rect fill="#FFFFFF" height="10" style="stroke:#181818;stroke-width:0.5;" width="15" x="2046.5" y="413"/><rect fill="#FFFFFF" height="2" style="stroke:#181818;stroke-width:0.5;" width="4" x="2044.5" y="415"/><rect fill="#FFFFFF" height="2" style="stroke:#181818;stroke-width:0.5;" width="4" x="2044.5" y="419"/><text fill="#000000" font-family="sans-serif" font-size="11" lengthAdjust="spacing" textLength="61" x="1980.5" y="439.4189">Prisma Client</text></g><!--entity auth--><g id="elem_auth"><rect fill="#FFFFFF" height="43.8359" rx="2.5" ry="2.5" style="stroke:#181818;stroke-width:0.5;" width="109" x="1506.5" y="43"/><rect fill="#FFFFFF" height="10" style="stroke:#181818;stroke-width:0.5;" width="15" x="1595.5" y="48"/><rect fill="#FFFFFF" height="2" style="stroke:#181818;stroke-width:0.5;" width="4" x="1593.5" y="50"/><rect fill="#FFFFFF" height="2" style="stroke:#181818;stroke-width:0.5;" width="4" x="1593.5" y="54"/><text fill="#000000" font-family="sans-serif" font-size="11" lengthAdjust="spacing" textLength="69" x="1521.5" y="74.4189">Authentication</text></g><!--entity fileStorage--><g id="elem_fileStorage"><rect fill="#FFFFFF" height="43.8359" rx="2.5" ry="2.5" style="stroke:#181818;stroke-width:0.5;" width="97" x="1650.5" y="43"/><rect fill="#FFFFFF" height="10" style="stroke:#181818;stroke-width:0.5;" width="15" x="1727.5" y="48"/><rect fill="#FFFFFF" height="2" style="stroke:#181818;stroke-width:0.5;" width="4" x="1725.5" y="50"/><rect fill="#FFFFFF" height="2" style="stroke:#181818;stroke-width:0.5;" width="4" x="1725.5" y="54"/><text fill="#000000" font-family="sans-serif" font-size="11" lengthAdjust="spacing" textLength="57" x="1665.5" y="74.4189">File Storage</text></g><!--entity postgresDB--><g id="elem_postgresDB"><rect fill="#FFFFFF" height="43.8359" rx="2.5" ry="2.5" style="stroke:#181818;stroke-width:0.5;" width="147" x="1782.5" y="43"/><rect fill="#FFFFFF" height="10" style="stroke:#181818;stroke-width:0.5;" width="15" x="1909.5" y="48"/><rect fill="#FFFFFF" height="2" style="stroke:#181818;stroke-width:0.5;" width="4" x="1907.5" y="50"/><rect fill="#FFFFFF" height="2" style="stroke:#181818;stroke-width:0.5;" width="4" x="1907.5" y="54"/><text fill="#000000" font-family="sans-serif" font-size="11" lengthAdjust="spacing" textLength="107" x="1797.5" y="74.4189">PostgreSQL Database</text></g><!--link dartApp to framework--><g id="link_dartApp_framework"><path d="M1552.74,284.0782 C1551.0759,284.2949 1549.1696,284.543 1547.0293,284.8217 C1538.4684,285.9363 1526.1649,287.5383 1510.6535,289.5582 C1479.6308,293.598 1435.7766,299.3091 1383.3681,306.1344 C1278.5513,319.785 1139.5175,337.8925 1000.485,356 C861.4525,374.1075 722.4213,392.215 617.6094,405.8656 C565.2034,412.6909 521.3523,418.402 490.3334,422.4418 C474.8239,424.4617 462.5224,426.0637 453.9636,427.1783 C451.8239,427.457 455.8679,426.9304 454.2044,427.147 " fill="none" id="dartApp-to-framework" style="stroke:#181818;stroke-width:1.0;"/><polygon fill="#181818" points="448.2546,427.9218,457.6958,430.7261,453.2128,427.2761,456.6628,422.7931,448.2546,427.9218" style="stroke:#181818;stroke-width:1.0;"/></g><!--link framework to dartUI--><g id="link_framework_dartUI"><path d="M448.0979,433.1749 C448.4642,433.2733 448.8421,433.3747 449.2314,433.4792 C450.0101,433.6882 450.8344,433.9095 451.7032,434.1427 C458.6531,436.0081 468.4421,438.6356 480.3711,441.8375 C504.2291,448.2413 536.6469,456.9425 572.0313,466.44 C642.8,485.435 719.6401,506.0596 769.3951,519.4146 " fill="none" id="framework-to-dartUI" style="stroke:#181818;stroke-width:1.0;"/><polygon fill="#181818" points="775.19,520.97,767.5346,514.7736,770.3609,519.6738,765.4607,522.5001,775.19,520.97" style="stroke:#181818;stroke-width:1.0;"/></g><!--link dartUI to engine--><g id="link_dartUI_engine"><path d="M864.54,536.76 C939.95,540.15 1086.32,548.64 1104,564 C1107.2225,566.8 1109.9431,570.0509 1112.2362,573.6025 C1113.3827,575.3783 1114.4223,577.2293 1115.3643,579.1367 C1115.4821,579.3751 1113.012,574.2004 1113.1267,574.4406 " fill="none" id="dartUI-to-engine" style="stroke:#181818;stroke-width:1.0;"/><polygon fill="#181818" points="1115.713,579.8545,1115.4428,570.0094,1113.5578,575.3429,1108.2242,573.4578,1115.713,579.8545" style="stroke:#181818;stroke-width:1.0;"/></g><!--link engine to embedderAPI--><g id="link_engine_embedderAPI"><path d="M1131.1804,645.6484 C1131.3364,645.6989 1131.4946,645.7501 1131.6547,645.802 C1136.7802,647.4613 1144.007,649.8011 1152.8572,652.6666 C1170.5575,658.3975 1194.7512,666.2313 1221.615,674.93 C1275.3425,692.3275 1334.042,711.336 1378.542,725.751 " fill="none" id="engine-to-embedderAPI" style="stroke:#181818;stroke-width:1.0;"/><polygon fill="#181818" points="1384.25,727.6,1376.9207,721.0212,1379.4933,726.0592,1374.4553,728.6318,1384.25,727.6" style="stroke:#181818;stroke-width:1.0;"/></g><!--link embedderAPI to embedder--><g id="link_embedderAPI_embedder"><path d="M1491.68,747.69 C1546.45,749.54 1626.5,755.75 1649,776 C1652.1725,778.855 1654.8553,782.1477 1657.1205,785.7301 C1658.2531,787.5213 1659.2813,789.385 1660.2141,791.3027 C1660.2724,791.4225 1657.7403,786.1304 1657.7978,786.2507 " fill="none" id="embedderAPI-to-embedder" style="stroke:#181818;stroke-width:1.0;"/><polygon fill="#181818" points="1660.3879,791.6629,1660.1109,781.8179,1658.2295,787.1527,1652.8947,785.2713,1660.3879,791.6629" style="stroke:#181818;stroke-width:1.0;"/></g><!--link embedder to platformAPI--><g id="link_embedder_platformAPI"><path d="M1676.0523,863.0523 C1676.2098,863.2098 1676.3691,863.3691 1676.5305,863.5305 C1676.8531,863.8531 1677.1834,864.1834 1677.5211,864.5211 C1682.9247,869.9247 1690.2294,877.2294 1698.3787,885.3788 C1714.6775,901.6775 1730.1124,917.1124 1744.7174,931.7174 " fill="none" id="embedder-to-platformAPI" style="stroke:#181818;stroke-width:1.0;"/><polygon fill="#181818" points="1748.96,935.96,1745.4245,926.7676,1745.4245,932.4245,1739.7676,932.4245,1748.96,935.96" style="stroke:#181818;stroke-width:1.0;"/></g><!--link platformAPI to runner--><g id="link_platformAPI_runner"><path d="M1770,980.13 C1770,997.64 1770,1016.39 1770,1033.89 " fill="none" id="platformAPI-to-runner" style="stroke:#181818;stroke-width:1.0;"/><polygon fill="#181818" points="1770,1039.89,1774,1030.89,1770,1034.89,1766,1030.89,1770,1039.89" style="stroke:#181818;stroke-width:1.0;"/></g><!--link materialCupertino to widgetsLayer--><g id="link_materialCupertino_widgetsLayer"><path d="M257,452.13 C257,469.64 257,488.39 257,505.89 " fill="none" id="materialCupertino-to-widgetsLayer" style="stroke:#181818;stroke-width:1.0;"/><polygon fill="#181818" points="257,511.89,261,502.89,257,506.89,253,502.89,257,511.89" style="stroke:#181818;stroke-width:1.0;"/></g><!--link widgetsLayer to renderingLayer--><g id="link_widgetsLayer_renderingLayer"><path d="M257,556.2 C257,574.68 257,595.36 257,613.84 " fill="none" id="widgetsLayer-to-renderingLayer" style="stroke:#181818;stroke-width:1.0;"/><polygon fill="#181818" points="257,619.84,261,610.84,257,614.84,253,610.84,257,619.84" style="stroke:#181818;stroke-width:1.0;"/></g><!--link renderingLayer to gestures--><g id="link_renderingLayer_gestures"><path d="M281.04,664.13 C300.94,681.64 324.5944,702.4278 344.4944,719.9278 " fill="none" id="renderingLayer-to-gestures" style="stroke:#181818;stroke-width:1.0;"/><polygon fill="#181818" points="349,723.89,344.883,714.9429,345.2453,720.5881,339.6001,720.9504,349,723.89" style="stroke:#181818;stroke-width:1.0;"/></g><!--link renderingLayer to painting--><g id="link_renderingLayer_painting"><path d="M257,664.13 C257,681.64 257,700.39 257,717.89 " fill="none" id="renderingLayer-to-painting" style="stroke:#181818;stroke-width:1.0;"/><polygon fill="#181818" points="257,723.89,261,714.89,257,718.89,253,714.89,257,723.89" style="stroke:#181818;stroke-width:1.0;"/></g><!--link renderingLayer to animation--><g id="link_renderingLayer_animation"><path d="M232.76,664.13 C212.68,681.64 188.8023,702.4468 168.7323,719.9468 " fill="none" id="renderingLayer-to-animation" style="stroke:#181818;stroke-width:1.0;"/><polygon fill="#181818" points="164.21,723.89,173.6222,720.9901,167.9786,720.604,168.3646,714.9603,164.21,723.89" style="stroke:#181818;stroke-width:1.0;"/></g><!--link animation to foundation--><g id="link_animation_foundation"><path d="M163.4,768.2 C183.8,786.68 208.8033,809.3318 229.2033,827.8118 " fill="none" id="animation-to-foundation" style="stroke:#181818;stroke-width:1.0;"/><polygon fill="#181818" points="233.65,831.84,229.6654,822.8332,229.9444,828.4832,224.2944,828.7622,233.65,831.84" style="stroke:#181818;stroke-width:1.0;"/></g><!--link painting to foundation--><g id="link_painting_foundation"><path d="M257,768.2 C257,786.68 257,807.36 257,825.84 " fill="none" id="painting-to-foundation" style="stroke:#181818;stroke-width:1.0;"/><polygon fill="#181818" points="257,831.84,261,822.84,257,826.84,253,822.84,257,831.84" style="stroke:#181818;stroke-width:1.0;"/></g><!--link gestures to foundation--><g id="link_gestures_foundation"><path d="M349.8,768.2 C329.57,786.68 304.8089,809.3122 284.5889,827.7922 " fill="none" id="gestures-to-foundation" style="stroke:#181818;stroke-width:1.0;"/><polygon fill="#181818" points="280.16,831.84,289.5019,828.7209,283.8508,828.4668,284.1048,822.8157,280.16,831.84" style="stroke:#181818;stroke-width:1.0;"/></g><!--link auth to dartApp--><g id="link_auth_dartApp"><path d="M1561,93.01 C1561,119.635 1561,161.045 1561,202.33 C1561,207.4906 1561,212.5555 1561,217.4722 C1561,218.0868 1561,212.6991 1561,213.3089 " fill="none" id="auth-dartApp" style="stroke:#000000;stroke-width:1.0;stroke-dasharray:7.0,7.0;"/><polygon fill="#000000" points="1561,87.01,1557,96.01,1561,92.01,1565,96.01,1561,87.01" style="stroke:#000000;stroke-width:1.0;"/><polygon fill="#000000" points="1561,219.3089,1565,210.3089,1561,214.3089,1557,210.3089,1561,219.3089" style="stroke:#000000;stroke-width:1.0;"/></g><!--link fileStorage to dartApp--><g id="link_fileStorage_dartApp"><path d="M1669.0721,90.6695 C1657.3521,99.4195 1647.59,105.27 1633,111 C1610.83,119.71 1596.56,101.88 1580,119 C1555.19,144.645 1550.2,184.29 1551.53,217.9412 C1551.6963,222.1477 1551.9613,226.2604 1552.2986,230.2405 C1552.4673,232.2305 1552.6541,234.1873 1552.8557,236.1061 C1552.8809,236.346 1552.265,230.6196 1552.2907,230.8583 " fill="none" id="fileStorage-dartApp" style="stroke:#000000;stroke-width:1.0;stroke-dasharray:7.0,7.0;"/><polygon fill="#000000" points="1673.88,87.08,1664.2752,89.259,1669.8734,90.0712,1669.0612,95.6695,1673.88,87.08" style="stroke:#000000;stroke-width:1.0;"/><polygon fill="#000000" points="1552.932,236.8239,1555.9471,227.4479,1552.3976,231.8525,1547.993,228.303,1552.932,236.8239" style="stroke:#000000;stroke-width:1.0;"/></g><!--link dartApp to expressAPI--><g id="link_dartApp_expressAPI"><path d="M1552.5027,227.2014 C1552.4644,226.7234 1552.8631,231.5074 1552.8268,231.0254 C1552.7542,230.0614 1552.6857,229.0895 1552.6218,228.1103 C1552.366,224.1935 1552.1828,220.1594 1552.095,216.0425 C1551.3925,183.1075 1556.795,144.875 1580,119 C1585.33,113.06 1589.57,115.89 1597.5,115 C1633.38,110.95 1886.62,110.95 1922.5,115 C1930.43,115.89 1933.78,114 1940,119 C1985.25,155.37 2004.0835,218.7552 2011.7235,254.1352 " fill="none" id="dartApp-expressAPI" style="stroke:#000000;stroke-width:1.0;stroke-dasharray:7.0,7.0;"/><polygon fill="#000000" points="1552.9972,233.181,1556.2419,223.8819,1552.5851,228.198,1548.2691,224.5412,1552.9972,233.181" style="stroke:#000000;stroke-width:1.0;"/><polygon fill="#000000" points="2012.99,260,2015.0002,250.3585,2011.9346,255.1127,2007.1804,252.0471,2012.99,260" style="stroke:#000000;stroke-width:1.0;"/></g><!--link expressAPI to prismaClient--><g id="link_expressAPI_prismaClient"><path d="M2016.8088,310.2299 C2016.6188,337.9099 2016.3812,374.0501 2016.1912,401.7401 " fill="none" id="expressAPI-prismaClient" style="stroke:#000000;stroke-width:1.0;stroke-dasharray:7.0,7.0;"/><polygon fill="#000000" points="2016.85,304.23,2012.7883,313.2023,2016.8157,309.2299,2020.7881,313.2572,2016.85,304.23" style="stroke:#000000;stroke-width:1.0;"/><polygon fill="#000000" points="2016.15,407.74,2020.2117,398.7677,2016.1843,402.7401,2012.2118,398.7128,2016.15,407.74" style="stroke:#000000;stroke-width:1.0;"/></g><!--link prismaClient to postgresDB--><g id="link_prismaClient_postgresDB"><path d="M1992.2083,403.1839 C1977.7983,386.7939 1962.65,367.53 1950,344 C1901.76,254.24 1872.855,140.8996 1861.935,93.0496 " fill="none" id="prismaClient-postgresDB" style="stroke:#000000;stroke-width:1.0;stroke-dasharray:7.0,7.0;"/><polygon fill="#000000" points="1996.17,407.69,1993.2315,398.2897,1992.8686,403.9349,1987.2234,403.572,1996.17,407.69" style="stroke:#000000;stroke-width:1.0;"/><polygon fill="#000000" points="1860.6,87.2,1858.7027,96.8644,1861.7125,92.0747,1866.5022,95.0844,1860.6,87.2" style="stroke:#000000;stroke-width:1.0;"/></g><!--SRC=[bLPBRziu4BxhLn3f8LqKITfhiIZWEivkWAJmrYdsiEY1aSOo4OaK-4ZIBVBVEto9b6MwY0y6v-CCEPhvXZFgWV61IjgJfUW7mO7hpxH-QAKml5cAJaZoj6CQAZKgDh2bfjDtyAmN7MjvZpQanZ-GSwqhmVM6_G_amuUgug81Sd8hxba7v18UMGqdX2hIEyG3v6T5y5T7RyZ9LMSqdaqMm-2qjrv6CUZQtocvf5AJ6_e3lOXWTeZRZISqA4pDzxJjvereMUtKwJ0ueQJzBsjQqChfFldrgFfIPIvUOM3WISY7if_nOvFgM-lw7_xBHx3e-Ir5QqQxYwKPG6h6XOzmW4Vq5TyozNLF_olm1a_chREGKJfgi-0C_M62- -X6gQI-fephUCCGX9BoNw2qaU0_e0r2IVdAaZnviXt5B7rnTIXPbaSV3IEBzVN8gs_NUyavJ8KLRnc7t_CWwBrTNYpVlVCi00yLAR01wGffBOKMjUYSaV9Wn4gsxX5GR0n9dUHYUZggjqBY0xAZd4FdGpy4D88bQrUNrqgWEf0DQ9CgDA0EV2NzYg7veJJqPFM8alTJESG3HttyQf1tFP3RjjUZYm6qM95ZjcR9fjv1Oxheg2laX1KBHId0cm43OLAzM31Xn-zTim7mXicz2IlPsgVTKbCO_waQPIyU8dDckEhleMdiMnqg0WA0CXBsS2b40fsf0MgsPNMvAaQkZHTD2YE2Fu_JXMoCtD8wvvjdJi2FCkuBFX2F6DZEO1Lw3d471UHOIrbZPwLjJ0QsbH4ePc8dWJQPeze1HprqPCRs9GPoRPkoy9PWOOi6y3Ufd6SbvZIMzYodXm9kiFgb3x5RpYrUgfSu6TZ90nFXrE_zUZuEh9u7VD9LefYNKTpNN4kcUagM7KFHk-uG3wHhDsQWzrJvMKG5ONxnmkWTBbYTzIw4PkEA7MusMaZQ-XEt20Hvvg5GkfMm-US6nnUTd1WyhYu_MozFVHuvxKXi2xN0ODRM3rN5QURix5EQ4AeqArZSTwOgD2YB-2vIXMRYa5IhLLwt-TwuuT2C2LNE2hldqus-ksB6SL1JXcrWDeWuvScaaGl-gEbKCHMTnjZe3-oD4yE1lJHxZ2iVnZG9HFDzF5wvZrSsNwldaAyyJwTa4hp4M_AH_7rtjnuJ-UVvVs_UkzztS_x9aOoKDdDo7L2Hv_b5wCA4BCaMNRXa4ZsDpAsgpB_iG3nlKaIviA-NI5pz0W00]--></g></svg>