<?xml version="1.0" encoding="us-ascii" standalone="no"?><svg xmlns="http://www.w3.org/2000/svg" xmlns:xlink="http://www.w3.org/1999/xlink" contentStyleType="text/css" height="1155px" preserveAspectRatio="none" style="width:2100px;height:1155px;background:#FFFFFF;" version="1.1" viewBox="0 0 2100 1155" width="2100px" zoomAndPan="magnify"><defs/><g><!--cluster mobileDevice--><g id="cluster_mobileDevice"><polygon fill="none" points="16,137,26,127,1880,127,1880,1128,1870,1138,16,1138,16,137" style="stroke:#181818;stroke-width:1.0;"/><line style="stroke:#181818;stroke-width:1.0;" x1="1870" x2="1880" y1="137" y2="127"/><line style="stroke:#181818;stroke-width:1.0;" x1="16" x2="1870" y1="137" y2="137"/><line style="stroke:#181818;stroke-width:1.0;" x1="1870" x2="1870" y1="137" y2="1138"/><text fill="#000000" font-family="sans-serif" font-size="11" font-weight="bold" lengthAdjust="spacing" textLength="76" x="906" y="151.4189">Mobile Device</text></g><!--cluster flutterApp--><g id="cluster_flutterApp"><rect fill="#FFFFFF" height="942" rx="2.5" ry="2.5" style="stroke:#181818;stroke-width:1.0;" width="1816" x="40" y="172"/><rect fill="#FFFFFF" height="10" style="stroke:#181818;stroke-width:1.0;" width="15" x="1836" y="177"/><rect fill="#FFFFFF" height="2" style="stroke:#181818;stroke-width:1.0;" width="4" x="1834" y="179"/><rect fill="#FFFFFF" height="2" style="stroke:#181818;stroke-width:1.0;" width="4" x="1834" y="183"/><text fill="#000000" font-family="sans-serif" font-size="11" font-style="italic" lengthAdjust="spacing" textLength="77" x="909.5" y="196.4189">&#171;Flutter:3.10.0&#187;</text><text fill="#000000" font-family="sans-serif" font-size="11" font-weight="bold" lengthAdjust="spacing" textLength="61" x="917.5" y="210.2549">Flutter App</text></g><!--cluster dartApp--><g id="cluster_dartApp"><rect fill="#FFFFFF" height="108" rx="2.5" ry="2.5" style="stroke:#181818;stroke-width:1.0;" width="271" x="1553" y="234"/><rect fill="#FFFFFF" height="10" style="stroke:#181818;stroke-width:1.0;" width="15" x="1804" y="239"/><rect fill="#FFFFFF" height="2" style="stroke:#181818;stroke-width:1.0;" width="4" x="1802" y="241"/><rect fill="#FFFFFF" height="2" style="stroke:#181818;stroke-width:1.0;" width="4" x="1802" y="245"/><text fill="#000000" font-family="sans-serif" font-size="11" font-weight="bold" lengthAdjust="spacing" textLength="47" x="1665" y="258.4189">Dart App</text></g><!--cluster framework--><g id="cluster_framework"><rect fill="#FFFFFF" height="532" rx="2.5" ry="2.5" style="stroke:#181818;stroke-width:1.0;" width="376" x="72" y="382"/><rect fill="#FFFFFF" height="10" style="stroke:#181818;stroke-width:1.0;" width="15" x="428" y="387"/><rect fill="#FFFFFF" height="2" style="stroke:#181818;stroke-width:1.0;" width="4" x="426" y="389"/><rect fill="#FFFFFF" height="2" style="stroke:#181818;stroke-width:1.0;" width="4" x="426" y="393"/><text fill="#000000" font-family="sans-serif" font-size="11" font-weight="bold" lengthAdjust="spacing" textLength="136" x="192" y="406.4189">Flutter Framework (Dart)</text></g><!--cluster engine--><g id="cluster_engine"><rect fill="#FFFFFF" height="320" rx="2.5" ry="2.5" style="stroke:#181818;stroke-width:1.0;" width="643" x="488" y="594"/><rect fill="#FFFFFF" height="10" style="stroke:#181818;stroke-width:1.0;" width="15" x="1111" y="599"/><rect fill="#FFFFFF" height="2" style="stroke:#181818;stroke-width:1.0;" width="4" x="1109" y="601"/><rect fill="#FFFFFF" height="2" style="stroke:#181818;stroke-width:1.0;" width="4" x="1109" y="605"/><text fill="#000000" font-family="sans-serif" font-size="11" font-weight="bold" lengthAdjust="spacing" textLength="118" x="750.5" y="618.4189">Flutter Engine (C/C++)</text></g><!--cluster embedder--><g id="cluster_embedder"><rect fill="#FFFFFF" height="212" rx="2.5" ry="2.5" style="stroke:#181818;stroke-width:1.0;" width="505" x="1171" y="806"/><rect fill="#FFFFFF" height="10" style="stroke:#181818;stroke-width:1.0;" width="15" x="1656" y="811"/><rect fill="#FFFFFF" height="2" style="stroke:#181818;stroke-width:1.0;" width="4" x="1654" y="813"/><rect fill="#FFFFFF" height="2" style="stroke:#181818;stroke-width:1.0;" width="4" x="1654" y="817"/><text fill="#000000" font-family="sans-serif" font-size="11" font-weight="bold" lengthAdjust="spacing" textLength="149" x="1349" y="830.4189">Platform Embedder (C/C++)</text></g><!--cluster backend--><g id="cluster_backend"><polygon fill="none" points="1949,247,1959,237,2083,237,2083,472,2073,482,1949,482,1949,247" style="stroke:#181818;stroke-width:1.0;"/><line style="stroke:#181818;stroke-width:1.0;" x1="2073" x2="2083" y1="247" y2="237"/><line style="stroke:#181818;stroke-width:1.0;" x1="1949" x2="2073" y1="247" y2="247"/><line style="stroke:#181818;stroke-width:1.0;" x1="2073" x2="2073" y1="247" y2="482"/><text fill="#000000" font-family="sans-serif" font-size="11" font-weight="bold" lengthAdjust="spacing" textLength="47" x="1988.5" y="261.4189">Backend</text></g><!--cluster supabase--><g id="cluster_supabase"><polygon fill="none" points="1490,16,1500,6,1946,6,1946,93,1936,103,1490,103,1490,16" style="stroke:#181818;stroke-width:1.0;"/><line style="stroke:#181818;stroke-width:1.0;" x1="1936" x2="1946" y1="16" y2="6"/><line style="stroke:#181818;stroke-width:1.0;" x1="1490" x2="1936" y1="16" y2="16"/><line style="stroke:#181818;stroke-width:1.0;" x1="1936" x2="1936" y1="16" y2="103"/><text fill="#000000" font-family="sans-serif" font-size="11" font-weight="bold" lengthAdjust="spacing" textLength="54" x="1687" y="30.4189">Supabase</text></g><!--entity appLogic--><g id="elem_appLogic"><rect fill="#FFFFFF" height="43.8359" rx="2.5" ry="2.5" style="stroke:#181818;stroke-width:0.5;" width="89" x="1710.5" y="274"/><rect fill="#FFFFFF" height="10" style="stroke:#181818;stroke-width:0.5;" width="15" x="1779.5" y="279"/><rect fill="#FFFFFF" height="2" style="stroke:#181818;stroke-width:0.5;" width="4" x="1777.5" y="281"/><rect fill="#FFFFFF" height="2" style="stroke:#181818;stroke-width:0.5;" width="4" x="1777.5" y="285"/><text fill="#000000" font-family="sans-serif" font-size="11" lengthAdjust="spacing" textLength="49" x="1725.5" y="305.4189">App Logic</text></g><!--entity widgets--><g id="elem_widgets"><rect fill="#FFFFFF" height="43.8359" rx="2.5" ry="2.5" style="stroke:#181818;stroke-width:0.5;" width="79" x="1596.5" y="274"/><rect fill="#FFFFFF" height="10" style="stroke:#181818;stroke-width:0.5;" width="15" x="1655.5" y="279"/><rect fill="#FFFFFF" height="2" style="stroke:#181818;stroke-width:0.5;" width="4" x="1653.5" y="281"/><rect fill="#FFFFFF" height="2" style="stroke:#181818;stroke-width:0.5;" width="4" x="1653.5" y="285"/><text fill="#000000" font-family="sans-serif" font-size="11" lengthAdjust="spacing" textLength="39" x="1611.5" y="305.4189">Widgets</text></g><!--entity materialCupertino--><g id="elem_materialCupertino"><rect fill="#FFFFFF" height="43.8359" rx="2.5" ry="2.5" style="stroke:#181818;stroke-width:0.5;" width="126" x="194" y="422"/><rect fill="#FFFFFF" height="10" style="stroke:#181818;stroke-width:0.5;" width="15" x="300" y="427"/><rect fill="#FFFFFF" height="2" style="stroke:#181818;stroke-width:0.5;" width="4" x="298" y="429"/><rect fill="#FFFFFF" height="2" style="stroke:#181818;stroke-width:0.5;" width="4" x="298" y="433"/><text fill="#000000" font-family="sans-serif" font-size="11" lengthAdjust="spacing" textLength="86" x="209" y="453.4189">Material/Cupertino</text></g><!--entity widgetsLayer--><g id="elem_widgetsLayer"><rect fill="#FFFFFF" height="43.8359" rx="2.5" ry="2.5" style="stroke:#181818;stroke-width:0.5;" width="79" x="217.5" y="526"/><rect fill="#FFFFFF" height="10" style="stroke:#181818;stroke-width:0.5;" width="15" x="276.5" y="531"/><rect fill="#FFFFFF" height="2" style="stroke:#181818;stroke-width:0.5;" width="4" x="274.5" y="533"/><rect fill="#FFFFFF" height="2" style="stroke:#181818;stroke-width:0.5;" width="4" x="274.5" y="537"/><text fill="#000000" font-family="sans-serif" font-size="11" lengthAdjust="spacing" textLength="39" x="232.5" y="557.4189">Widgets</text></g><!--entity renderingLayer--><g id="elem_renderingLayer"><rect fill="#FFFFFF" height="43.8359" rx="2.5" ry="2.5" style="stroke:#181818;stroke-width:0.5;" width="89" x="212.5" y="634"/><rect fill="#FFFFFF" height="10" style="stroke:#181818;stroke-width:0.5;" width="15" x="281.5" y="639"/><rect fill="#FFFFFF" height="2" style="stroke:#181818;stroke-width:0.5;" width="4" x="279.5" y="641"/><rect fill="#FFFFFF" height="2" style="stroke:#181818;stroke-width:0.5;" width="4" x="279.5" y="645"/><text fill="#000000" font-family="sans-serif" font-size="11" lengthAdjust="spacing" textLength="49" x="227.5" y="665.4189">Rendering</text></g><!--entity animation--><g id="elem_animation"><rect fill="#FFFFFF" height="43.8359" rx="2.5" ry="2.5" style="stroke:#181818;stroke-width:0.5;" width="87" x="96.5" y="738"/><rect fill="#FFFFFF" height="10" style="stroke:#181818;stroke-width:0.5;" width="15" x="163.5" y="743"/><rect fill="#FFFFFF" height="2" style="stroke:#181818;stroke-width:0.5;" width="4" x="161.5" y="745"/><rect fill="#FFFFFF" height="2" style="stroke:#181818;stroke-width:0.5;" width="4" x="161.5" y="749"/><text fill="#000000" font-family="sans-serif" font-size="11" lengthAdjust="spacing" textLength="47" x="111.5" y="769.4189">Animation</text></g><!--entity painting--><g id="elem_painting"><rect fill="#FFFFFF" height="43.8359" rx="2.5" ry="2.5" style="stroke:#181818;stroke-width:0.5;" width="77" x="218.5" y="738"/><rect fill="#FFFFFF" height="10" style="stroke:#181818;stroke-width:0.5;" width="15" x="275.5" y="743"/><rect fill="#FFFFFF" height="2" style="stroke:#181818;stroke-width:0.5;" width="4" x="273.5" y="745"/><rect fill="#FFFFFF" height="2" style="stroke:#181818;stroke-width:0.5;" width="4" x="273.5" y="749"/><text fill="#000000" font-family="sans-serif" font-size="11" lengthAdjust="spacing" textLength="37" x="233.5" y="769.4189">Painting</text></g><!--entity gestures--><g id="elem_gestures"><rect fill="#FFFFFF" height="43.8359" rx="2.5" ry="2.5" style="stroke:#181818;stroke-width:0.5;" width="85" x="330.5" y="738"/><rect fill="#FFFFFF" height="10" style="stroke:#181818;stroke-width:0.5;" width="15" x="395.5" y="743"/><rect fill="#FFFFFF" height="2" style="stroke:#181818;stroke-width:0.5;" width="4" x="393.5" y="745"/><rect fill="#FFFFFF" height="2" style="stroke:#181818;stroke-width:0.5;" width="4" x="393.5" y="749"/><text fill="#000000" font-family="sans-serif" font-size="11" lengthAdjust="spacing" textLength="45" x="345.5" y="769.4189">Gestures</text></g><!--entity foundation--><g id="elem_foundation"><rect fill="#FFFFFF" height="43.8359" rx="2.5" ry="2.5" style="stroke:#181818;stroke-width:0.5;" width="93" x="210.5" y="846"/><rect fill="#FFFFFF" height="10" style="stroke:#181818;stroke-width:0.5;" width="15" x="283.5" y="851"/><rect fill="#FFFFFF" height="2" style="stroke:#181818;stroke-width:0.5;" width="4" x="281.5" y="853"/><rect fill="#FFFFFF" height="2" style="stroke:#181818;stroke-width:0.5;" width="4" x="281.5" y="857"/><text fill="#000000" font-family="sans-serif" font-size="11" lengthAdjust="spacing" textLength="53" x="225.5" y="877.4189">Foundation</text></g><!--entity dartUI--><g id="elem_dartUI"><rect fill="#FFFFFF" height="43.8359" rx="2.5" ry="2.5" style="stroke:#181818;stroke-width:0.5;" width="89" x="775.5" y="526"/><rect fill="#FFFFFF" height="10" style="stroke:#181818;stroke-width:0.5;" width="15" x="844.5" y="531"/><rect fill="#FFFFFF" height="2" style="stroke:#181818;stroke-width:0.5;" width="4" x="842.5" y="533"/><rect fill="#FFFFFF" height="2" style="stroke:#181818;stroke-width:0.5;" width="4" x="842.5" y="537"/><text fill="#000000" font-family="sans-serif" font-size="11" lengthAdjust="spacing" textLength="49" x="790.5" y="557.4189">dart:ui API</text></g><!--entity serviceProtocol--><g id="elem_serviceProtocol"><rect fill="#FFFFFF" height="43.8359" rx="2.5" ry="2.5" style="stroke:#181818;stroke-width:0.5;" width="119" x="512.5" y="634"/><rect fill="#FFFFFF" height="10" style="stroke:#181818;stroke-width:0.5;" width="15" x="611.5" y="639"/><rect fill="#FFFFFF" height="2" style="stroke:#181818;stroke-width:0.5;" width="4" x="609.5" y="641"/><rect fill="#FFFFFF" height="2" style="stroke:#181818;stroke-width:0.5;" width="4" x="609.5" y="645"/><text fill="#000000" font-family="sans-serif" font-size="11" lengthAdjust="spacing" textLength="79" x="527.5" y="665.4189">Service Protocol</text></g><!--entity composition--><g id="elem_composition"><rect fill="#FFFFFF" height="43.8359" rx="2.5" ry="2.5" style="stroke:#181818;stroke-width:0.5;" width="98" x="667" y="634"/><rect fill="#FFFFFF" height="10" style="stroke:#181818;stroke-width:0.5;" width="15" x="745" y="639"/><rect fill="#FFFFFF" height="2" style="stroke:#181818;stroke-width:0.5;" width="4" x="743" y="641"/><rect fill="#FFFFFF" height="2" style="stroke:#181818;stroke-width:0.5;" width="4" x="743" y="645"/><text fill="#000000" font-family="sans-serif" font-size="11" lengthAdjust="spacing" textLength="58" x="682" y="665.4189">Composition</text></g><!--entity platformChannels--><g id="elem_platformChannels"><rect fill="#FFFFFF" height="43.8359" rx="2.5" ry="2.5" style="stroke:#181818;stroke-width:0.5;" width="127" x="800.5" y="634"/><rect fill="#FFFFFF" height="10" style="stroke:#181818;stroke-width:0.5;" width="15" x="907.5" y="639"/><rect fill="#FFFFFF" height="2" style="stroke:#181818;stroke-width:0.5;" width="4" x="905.5" y="641"/><rect fill="#FFFFFF" height="2" style="stroke:#181818;stroke-width:0.5;" width="4" x="905.5" y="645"/><text fill="#000000" font-family="sans-serif" font-size="11" lengthAdjust="spacing" textLength="87" x="815.5" y="665.4189">Platform Channels</text></g><!--entity dartIsolateSetup--><g id="elem_dartIsolateSetup"><rect fill="#FFFFFF" height="43.8359" rx="2.5" ry="2.5" style="stroke:#181818;stroke-width:0.5;" width="125" x="962.5" y="634"/><rect fill="#FFFFFF" height="10" style="stroke:#181818;stroke-width:0.5;" width="15" x="1067.5" y="639"/><rect fill="#FFFFFF" height="2" style="stroke:#181818;stroke-width:0.5;" width="4" x="1065.5" y="641"/><rect fill="#FFFFFF" height="2" style="stroke:#181818;stroke-width:0.5;" width="4" x="1065.5" y="645"/><text fill="#000000" font-family="sans-serif" font-size="11" lengthAdjust="spacing" textLength="85" x="977.5" y="665.4189">Dart Isolate Setup</text></g><!--entity rendering--><g id="elem_rendering"><rect fill="#FFFFFF" height="43.8359" rx="2.5" ry="2.5" style="stroke:#181818;stroke-width:0.5;" width="89" x="525.5" y="738"/><rect fill="#FFFFFF" height="10" style="stroke:#181818;stroke-width:0.5;" width="15" x="594.5" y="743"/><rect fill="#FFFFFF" height="2" style="stroke:#181818;stroke-width:0.5;" width="4" x="592.5" y="745"/><rect fill="#FFFFFF" height="2" style="stroke:#181818;stroke-width:0.5;" width="4" x="592.5" y="749"/><text fill="#000000" font-family="sans-serif" font-size="11" lengthAdjust="spacing" textLength="49" x="540.5" y="769.4189">Rendering</text></g><!--entity systemEvents--><g id="elem_systemEvents"><rect fill="#FFFFFF" height="43.8359" rx="2.5" ry="2.5" style="stroke:#181818;stroke-width:0.5;" width="112" x="650" y="738"/><rect fill="#FFFFFF" height="10" style="stroke:#181818;stroke-width:0.5;" width="15" x="742" y="743"/><rect fill="#FFFFFF" height="2" style="stroke:#181818;stroke-width:0.5;" width="4" x="740" y="745"/><rect fill="#FFFFFF" height="2" style="stroke:#181818;stroke-width:0.5;" width="4" x="740" y="749"/><text fill="#000000" font-family="sans-serif" font-size="11" lengthAdjust="spacing" textLength="72" x="665" y="769.4189">System Events</text></g><!--entity dartRuntimeMgmt--><g id="elem_dartRuntimeMgmt"><rect fill="#FFFFFF" height="43.8359" rx="2.5" ry="2.5" style="stroke:#181818;stroke-width:0.5;" width="129" x="797.5" y="738"/><rect fill="#FFFFFF" height="10" style="stroke:#181818;stroke-width:0.5;" width="15" x="906.5" y="743"/><rect fill="#FFFFFF" height="2" style="stroke:#181818;stroke-width:0.5;" width="4" x="904.5" y="745"/><rect fill="#FFFFFF" height="2" style="stroke:#181818;stroke-width:0.5;" width="4" x="904.5" y="749"/><text fill="#000000" font-family="sans-serif" font-size="11" lengthAdjust="spacing" textLength="89" x="812.5" y="769.4189">Dart Runtime Mgmt</text></g><!--entity frameScheduling--><g id="elem_frameScheduling"><rect fill="#FFFFFF" height="43.8359" rx="2.5" ry="2.5" style="stroke:#181818;stroke-width:0.5;" width="126" x="962" y="738"/><rect fill="#FFFFFF" height="10" style="stroke:#181818;stroke-width:0.5;" width="15" x="1068" y="743"/><rect fill="#FFFFFF" height="2" style="stroke:#181818;stroke-width:0.5;" width="4" x="1066" y="745"/><rect fill="#FFFFFF" height="2" style="stroke:#181818;stroke-width:0.5;" width="4" x="1066" y="749"/><text fill="#000000" font-family="sans-serif" font-size="11" lengthAdjust="spacing" textLength="86" x="977" y="769.4189">Frame Scheduling</text></g><!--entity assetResolution--><g id="elem_assetResolution"><rect fill="#FFFFFF" height="43.8359" rx="2.5" ry="2.5" style="stroke:#181818;stroke-width:0.5;" width="122" x="512" y="846"/><rect fill="#FFFFFF" height="10" style="stroke:#181818;stroke-width:0.5;" width="15" x="614" y="851"/><rect fill="#FFFFFF" height="2" style="stroke:#181818;stroke-width:0.5;" width="4" x="612" y="853"/><rect fill="#FFFFFF" height="2" style="stroke:#181818;stroke-width:0.5;" width="4" x="612" y="857"/><text fill="#000000" font-family="sans-serif" font-size="11" lengthAdjust="spacing" textLength="82" x="527" y="877.4189">Asset Resolution</text></g><!--entity framePipelining--><g id="elem_framePipelining"><rect fill="#FFFFFF" height="43.8359" rx="2.5" ry="2.5" style="stroke:#181818;stroke-width:0.5;" width="117" x="669.5" y="846"/><rect fill="#FFFFFF" height="10" style="stroke:#181818;stroke-width:0.5;" width="15" x="766.5" y="851"/><rect fill="#FFFFFF" height="2" style="stroke:#181818;stroke-width:0.5;" width="4" x="764.5" y="853"/><rect fill="#FFFFFF" height="2" style="stroke:#181818;stroke-width:0.5;" width="4" x="764.5" y="857"/><text fill="#000000" font-family="sans-serif" font-size="11" lengthAdjust="spacing" textLength="77" x="684.5" y="877.4189">Frame Pipelining</text></g><!--entity textLayout--><g id="elem_textLayout"><rect fill="#FFFFFF" height="43.8359" rx="2.5" ry="2.5" style="stroke:#181818;stroke-width:0.5;" width="97" x="821.5" y="846"/><rect fill="#FFFFFF" height="10" style="stroke:#181818;stroke-width:0.5;" width="15" x="898.5" y="851"/><rect fill="#FFFFFF" height="2" style="stroke:#181818;stroke-width:0.5;" width="4" x="896.5" y="853"/><rect fill="#FFFFFF" height="2" style="stroke:#181818;stroke-width:0.5;" width="4" x="896.5" y="857"/><text fill="#000000" font-family="sans-serif" font-size="11" lengthAdjust="spacing" textLength="57" x="836.5" y="877.4189">Text Layout</text></g><!--entity embedderAPI--><g id="elem_embedderAPI"><rect fill="#FFFFFF" height="43.8359" rx="2.5" ry="2.5" style="stroke:#181818;stroke-width:0.5;" width="107" x="1384.5" y="738"/><rect fill="#FFFFFF" height="10" style="stroke:#181818;stroke-width:0.5;" width="15" x="1471.5" y="743"/><rect fill="#FFFFFF" height="2" style="stroke:#181818;stroke-width:0.5;" width="4" x="1469.5" y="745"/><rect fill="#FFFFFF" height="2" style="stroke:#181818;stroke-width:0.5;" width="4" x="1469.5" y="749"/><text fill="#000000" font-family="sans-serif" font-size="11" lengthAdjust="spacing" textLength="67" x="1399.5" y="769.4189">Embedder API</text></g><!--entity renderSurfaceSetup--><g id="elem_renderSurfaceSetup"><rect fill="#FFFFFF" height="43.8359" rx="2.5" ry="2.5" style="stroke:#181818;stroke-width:0.5;" width="148" x="1195" y="846"/><rect fill="#FFFFFF" height="10" style="stroke:#181818;stroke-width:0.5;" width="15" x="1323" y="851"/><rect fill="#FFFFFF" height="2" style="stroke:#181818;stroke-width:0.5;" width="4" x="1321" y="853"/><rect fill="#FFFFFF" height="2" style="stroke:#181818;stroke-width:0.5;" width="4" x="1321" y="857"/><text fill="#000000" font-family="sans-serif" font-size="11" lengthAdjust="spacing" textLength="108" x="1210" y="877.4189">Render Surface Setup</text></g><!--entity nativePlugins--><g id="elem_nativePlugins"><rect fill="#FFFFFF" height="43.8359" rx="2.5" ry="2.5" style="stroke:#181818;stroke-width:0.5;" width="107" x="1378.5" y="846"/><rect fill="#FFFFFF" height="10" style="stroke:#181818;stroke-width:0.5;" width="15" x="1465.5" y="851"/><rect fill="#FFFFFF" height="2" style="stroke:#181818;stroke-width:0.5;" width="4" x="1463.5" y="853"/><rect fill="#FFFFFF" height="2" style="stroke:#181818;stroke-width:0.5;" width="4" x="1463.5" y="857"/><text fill="#000000" font-family="sans-serif" font-size="11" lengthAdjust="spacing" textLength="67" x="1393.5" y="877.4189">Native Plugins</text></g><!--entity appPackaging--><g id="elem_appPackaging"><rect fill="#FFFFFF" height="43.8359" rx="2.5" ry="2.5" style="stroke:#181818;stroke-width:0.5;" width="112" x="1521" y="846"/><rect fill="#FFFFFF" height="10" style="stroke:#181818;stroke-width:0.5;" width="15" x="1613" y="851"/><rect fill="#FFFFFF" height="2" style="stroke:#181818;stroke-width:0.5;" width="4" x="1611" y="853"/><rect fill="#FFFFFF" height="2" style="stroke:#181818;stroke-width:0.5;" width="4" x="1611" y="857"/><text fill="#000000" font-family="sans-serif" font-size="11" lengthAdjust="spacing" textLength="72" x="1536" y="877.4189">App Packaging</text></g><!--entity threadSetup--><g id="elem_threadSetup"><rect fill="#FFFFFF" height="43.8359" rx="2.5" ry="2.5" style="stroke:#181818;stroke-width:0.5;" width="105" x="1216.5" y="950"/><rect fill="#FFFFFF" height="10" style="stroke:#181818;stroke-width:0.5;" width="15" x="1301.5" y="955"/><rect fill="#FFFFFF" height="2" style="stroke:#181818;stroke-width:0.5;" width="4" x="1299.5" y="957"/><rect fill="#FFFFFF" height="2" style="stroke:#181818;stroke-width:0.5;" width="4" x="1299.5" y="961"/><text fill="#000000" font-family="sans-serif" font-size="11" lengthAdjust="spacing" textLength="65" x="1231.5" y="981.4189">Thread Setup</text></g><!--entity eventLoopInterop--><g id="elem_eventLoopInterop"><rect fill="#FFFFFF" height="43.8359" rx="2.5" ry="2.5" style="stroke:#181818;stroke-width:0.5;" width="130" x="1357" y="950"/><rect fill="#FFFFFF" height="10" style="stroke:#181818;stroke-width:0.5;" width="15" x="1467" y="955"/><rect fill="#FFFFFF" height="2" style="stroke:#181818;stroke-width:0.5;" width="4" x="1465" y="957"/><rect fill="#FFFFFF" height="2" style="stroke:#181818;stroke-width:0.5;" width="4" x="1465" y="961"/><text fill="#000000" font-family="sans-serif" font-size="11" lengthAdjust="spacing" textLength="90" x="1372" y="981.4189">Event Loop Interop</text></g><!--entity platformAPI--><g id="elem_platformAPI"><rect fill="#FFFFFF" height="43.8359" rx="2.5" ry="2.5" style="stroke:#181818;stroke-width:0.5;" width="140" x="1700" y="950"/><rect fill="#FFFFFF" height="10" style="stroke:#181818;stroke-width:0.5;" width="15" x="1820" y="955"/><rect fill="#FFFFFF" height="2" style="stroke:#181818;stroke-width:0.5;" width="4" x="1818" y="957"/><rect fill="#FFFFFF" height="2" style="stroke:#181818;stroke-width:0.5;" width="4" x="1818" y="961"/><text fill="#000000" font-family="sans-serif" font-size="11" lengthAdjust="spacing" textLength="100" x="1715" y="981.4189">Platform-specific API</text></g><!--entity runner--><g id="elem_runner"><rect fill="#FFFFFF" height="43.8359" rx="2.5" ry="2.5" style="stroke:#181818;stroke-width:0.5;" width="75" x="1732.5" y="1054"/><rect fill="#FFFFFF" height="10" style="stroke:#181818;stroke-width:0.5;" width="15" x="1787.5" y="1059"/><rect fill="#FFFFFF" height="2" style="stroke:#181818;stroke-width:0.5;" width="4" x="1785.5" y="1061"/><rect fill="#FFFFFF" height="2" style="stroke:#181818;stroke-width:0.5;" width="4" x="1785.5" y="1065"/><text fill="#000000" font-family="sans-serif" font-size="11" lengthAdjust="spacing" textLength="35" x="1747.5" y="1085.4189">Runner</text></g><!--entity expressAPI--><g id="elem_expressAPI"><rect fill="#FFFFFF" height="43.8359" rx="2.5" ry="2.5" style="stroke:#181818;stroke-width:0.5;" width="99" x="1967.5" y="274"/><rect fill="#FFFFFF" height="10" style="stroke:#181818;stroke-width:0.5;" width="15" x="2046.5" y="279"/><rect fill="#FFFFFF" height="2" style="stroke:#181818;stroke-width:0.5;" width="4" x="2044.5" y="281"/><rect fill="#FFFFFF" height="2" style="stroke:#181818;stroke-width:0.5;" width="4" x="2044.5" y="285"/><text fill="#000000" font-family="sans-serif" font-size="11" lengthAdjust="spacing" textLength="59" x="1982.5" y="305.4189">Express API</text></g><!--entity prismaClient--><g id="elem_prismaClient"><rect fill="#FFFFFF" height="43.8359" rx="2.5" ry="2.5" style="stroke:#181818;stroke-width:0.5;" width="101" x="1965.5" y="422"/><rect fill="#FFFFFF" height="10" style="stroke:#181818;stroke-width:0.5;" width="15" x="2046.5" y="427"/><rect fill="#FFFFFF" height="2" style="stroke:#181818;stroke-width:0.5;" width="4" x="2044.5" y="429"/><rect fill="#FFFFFF" height="2" style="stroke:#181818;stroke-width:0.5;" width="4" x="2044.5" y="433"/><text fill="#000000" font-family="sans-serif" font-size="11" lengthAdjust="spacing" textLength="61" x="1980.5" y="453.4189">Prisma Client</text></g><!--entity auth--><g id="elem_auth"><rect fill="#FFFFFF" height="43.8359" rx="2.5" ry="2.5" style="stroke:#181818;stroke-width:0.5;" width="109" x="1506.5" y="43"/><rect fill="#FFFFFF" height="10" style="stroke:#181818;stroke-width:0.5;" width="15" x="1595.5" y="48"/><rect fill="#FFFFFF" height="2" style="stroke:#181818;stroke-width:0.5;" width="4" x="1593.5" y="50"/><rect fill="#FFFFFF" height="2" style="stroke:#181818;stroke-width:0.5;" width="4" x="1593.5" y="54"/><text fill="#000000" font-family="sans-serif" font-size="11" lengthAdjust="spacing" textLength="69" x="1521.5" y="74.4189">Authentication</text></g><!--entity fileStorage--><g id="elem_fileStorage"><rect fill="#FFFFFF" height="43.8359" rx="2.5" ry="2.5" style="stroke:#181818;stroke-width:0.5;" width="97" x="1650.5" y="43"/><rect fill="#FFFFFF" height="10" style="stroke:#181818;stroke-width:0.5;" width="15" x="1727.5" y="48"/><rect fill="#FFFFFF" height="2" style="stroke:#181818;stroke-width:0.5;" width="4" x="1725.5" y="50"/><rect fill="#FFFFFF" height="2" style="stroke:#181818;stroke-width:0.5;" width="4" x="1725.5" y="54"/><text fill="#000000" font-family="sans-serif" font-size="11" lengthAdjust="spacing" textLength="57" x="1665.5" y="74.4189">File Storage</text></g><!--entity postgresDB--><g id="elem_postgresDB"><rect fill="#FFFFFF" height="43.8359" rx="2.5" ry="2.5" style="stroke:#181818;stroke-width:0.5;" width="147" x="1782.5" y="43"/><rect fill="#FFFFFF" height="10" style="stroke:#181818;stroke-width:0.5;" width="15" x="1909.5" y="48"/><rect fill="#FFFFFF" height="2" style="stroke:#181818;stroke-width:0.5;" width="4" x="1907.5" y="50"/><rect fill="#FFFFFF" height="2" style="stroke:#181818;stroke-width:0.5;" width="4" x="1907.5" y="54"/><text fill="#000000" font-family="sans-serif" font-size="11" lengthAdjust="spacing" textLength="107" x="1797.5" y="74.4189">PostgreSQL Database</text></g><!--link dartApp to framework--><g id="link_dartApp_framework"><path d="M1552.74,298.0782 C1551.0759,298.2949 1549.1696,298.543 1547.0293,298.8217 C1538.4684,299.9363 1526.1649,301.5383 1510.6535,303.5582 C1479.6308,307.598 1435.7766,313.3091 1383.3681,320.1344 C1278.5513,333.785 1139.5175,351.8925 1000.485,370 C861.4525,388.1075 722.4213,406.215 617.6094,419.8656 C565.2034,426.6909 521.3523,432.402 490.3334,436.4418 C474.8239,438.4617 462.5224,440.0637 453.9636,441.1783 C451.8239,441.457 455.8679,440.9304 454.2044,441.147 " fill="none" id="dartApp-to-framework" style="stroke:#181818;stroke-width:1.0;"/><polygon fill="#181818" points="448.2546,441.9218,457.6958,444.7261,453.2128,441.2761,456.6628,436.7931,448.2546,441.9218" style="stroke:#181818;stroke-width:1.0;"/></g><!--link framework to dartUI--><g id="link_framework_dartUI"><path d="M448.0979,447.1749 C448.4642,447.2733 448.8421,447.3747 449.2314,447.4792 C450.0101,447.6882 450.8344,447.9095 451.7032,448.1427 C458.6531,450.0081 468.4421,452.6356 480.3711,455.8375 C504.2291,462.2413 536.6469,470.9425 572.0313,480.44 C642.8,499.435 719.6401,520.0596 769.3951,533.4146 " fill="none" id="framework-to-dartUI" style="stroke:#181818;stroke-width:1.0;"/><polygon fill="#181818" points="775.19,534.97,767.5346,528.7736,770.3609,533.6738,765.4607,536.5001,775.19,534.97" style="stroke:#181818;stroke-width:1.0;"/></g><!--link dartUI to engine--><g id="link_dartUI_engine"><path d="M864.54,550.76 C939.95,554.15 1086.32,562.64 1104,578 C1107.2225,580.8 1109.9431,584.0509 1112.2362,587.6025 C1113.3827,589.3783 1114.4223,591.2293 1115.3643,593.1367 C1115.4821,593.3751 1113.012,588.2004 1113.1267,588.4406 " fill="none" id="dartUI-to-engine" style="stroke:#181818;stroke-width:1.0;"/><polygon fill="#181818" points="1115.713,593.8545,1115.4428,584.0094,1113.5578,589.3429,1108.2242,587.4578,1115.713,593.8545" style="stroke:#181818;stroke-width:1.0;"/></g><!--link engine to embedderAPI--><g id="link_engine_embedderAPI"><path d="M1131.1804,659.6484 C1131.3364,659.6989 1131.4946,659.7501 1131.6547,659.802 C1136.7802,661.4613 1144.007,663.8011 1152.8572,666.6666 C1170.5575,672.3975 1194.7512,680.2313 1221.615,688.93 C1275.3425,706.3275 1334.042,725.336 1378.542,739.751 " fill="none" id="engine-to-embedderAPI" style="stroke:#181818;stroke-width:1.0;"/><polygon fill="#181818" points="1384.25,741.6,1376.9207,735.0212,1379.4933,740.0592,1374.4553,742.6318,1384.25,741.6" style="stroke:#181818;stroke-width:1.0;"/></g><!--link embedderAPI to embedder--><g id="link_embedderAPI_embedder"><path d="M1491.68,761.69 C1546.45,763.54 1626.5,769.75 1649,790 C1652.1725,792.855 1654.8553,796.1477 1657.1205,799.7301 C1658.2531,801.5213 1659.2813,803.385 1660.2141,805.3027 C1660.2724,805.4225 1657.7403,800.1304 1657.7978,800.2507 " fill="none" id="embedderAPI-to-embedder" style="stroke:#181818;stroke-width:1.0;"/><polygon fill="#181818" points="1660.3879,805.6629,1660.1109,795.8179,1658.2295,801.1527,1652.8947,799.2713,1660.3879,805.6629" style="stroke:#181818;stroke-width:1.0;"/></g><!--link embedder to platformAPI--><g id="link_embedder_platformAPI"><path d="M1676.0523,877.0523 C1676.2098,877.2098 1676.3691,877.3691 1676.5305,877.5305 C1676.8531,877.8531 1677.1834,878.1834 1677.5211,878.5211 C1682.9247,883.9247 1690.2294,891.2294 1698.3787,899.3788 C1714.6775,915.6775 1730.1124,931.1124 1744.7174,945.7174 " fill="none" id="embedder-to-platformAPI" style="stroke:#181818;stroke-width:1.0;"/><polygon fill="#181818" points="1748.96,949.96,1745.4245,940.7676,1745.4245,946.4245,1739.7676,946.4245,1748.96,949.96" style="stroke:#181818;stroke-width:1.0;"/></g><!--link platformAPI to runner--><g id="link_platformAPI_runner"><path d="M1770,994.13 C1770,1011.64 1770,1030.39 1770,1047.89 " fill="none" id="platformAPI-to-runner" style="stroke:#181818;stroke-width:1.0;"/><polygon fill="#181818" points="1770,1053.89,1774,1044.89,1770,1048.89,1766,1044.89,1770,1053.89" style="stroke:#181818;stroke-width:1.0;"/></g><!--link materialCupertino to widgetsLayer--><g id="link_materialCupertino_widgetsLayer"><path d="M257,466.13 C257,483.64 257,502.39 257,519.89 " fill="none" id="materialCupertino-to-widgetsLayer" style="stroke:#181818;stroke-width:1.0;"/><polygon fill="#181818" points="257,525.89,261,516.89,257,520.89,253,516.89,257,525.89" style="stroke:#181818;stroke-width:1.0;"/></g><!--link widgetsLayer to renderingLayer--><g id="link_widgetsLayer_renderingLayer"><path d="M257,570.2 C257,588.68 257,609.36 257,627.84 " fill="none" id="widgetsLayer-to-renderingLayer" style="stroke:#181818;stroke-width:1.0;"/><polygon fill="#181818" points="257,633.84,261,624.84,257,628.84,253,624.84,257,633.84" style="stroke:#181818;stroke-width:1.0;"/></g><!--link renderingLayer to gestures--><g id="link_renderingLayer_gestures"><path d="M281.04,678.13 C300.94,695.64 324.5944,716.4278 344.4944,733.9278 " fill="none" id="renderingLayer-to-gestures" style="stroke:#181818;stroke-width:1.0;"/><polygon fill="#181818" points="349,737.89,344.883,728.9429,345.2453,734.5881,339.6001,734.9504,349,737.89" style="stroke:#181818;stroke-width:1.0;"/></g><!--link renderingLayer to painting--><g id="link_renderingLayer_painting"><path d="M257,678.13 C257,695.64 257,714.39 257,731.89 " fill="none" id="renderingLayer-to-painting" style="stroke:#181818;stroke-width:1.0;"/><polygon fill="#181818" points="257,737.89,261,728.89,257,732.89,253,728.89,257,737.89" style="stroke:#181818;stroke-width:1.0;"/></g><!--link renderingLayer to animation--><g id="link_renderingLayer_animation"><path d="M232.76,678.13 C212.68,695.64 188.8023,716.4468 168.7323,733.9468 " fill="none" id="renderingLayer-to-animation" style="stroke:#181818;stroke-width:1.0;"/><polygon fill="#181818" points="164.21,737.89,173.6222,734.9901,167.9786,734.604,168.3646,728.9603,164.21,737.89" style="stroke:#181818;stroke-width:1.0;"/></g><!--link animation to foundation--><g id="link_animation_foundation"><path d="M163.4,782.2 C183.8,800.68 208.8033,823.3318 229.2033,841.8118 " fill="none" id="animation-to-foundation" style="stroke:#181818;stroke-width:1.0;"/><polygon fill="#181818" points="233.65,845.84,229.6654,836.8332,229.9444,842.4832,224.2944,842.7622,233.65,845.84" style="stroke:#181818;stroke-width:1.0;"/></g><!--link painting to foundation--><g id="link_painting_foundation"><path d="M257,782.2 C257,800.68 257,821.36 257,839.84 " fill="none" id="painting-to-foundation" style="stroke:#181818;stroke-width:1.0;"/><polygon fill="#181818" points="257,845.84,261,836.84,257,840.84,253,836.84,257,845.84" style="stroke:#181818;stroke-width:1.0;"/></g><!--link gestures to foundation--><g id="link_gestures_foundation"><path d="M349.8,782.2 C329.57,800.68 304.8089,823.3122 284.5889,841.7922 " fill="none" id="gestures-to-foundation" style="stroke:#181818;stroke-width:1.0;"/><polygon fill="#181818" points="280.16,845.84,289.5019,842.7209,283.8508,842.4668,284.1048,836.8157,280.16,845.84" style="stroke:#181818;stroke-width:1.0;"/></g><!--link auth to dartApp--><g id="link_auth_dartApp"><path d="M1561,93.13 C1561,121.035 1561,165.8275 1561,210.2175 C1561,215.7663 1561,221.215 1561,226.5064 C1561,227.8293 1561,229.1423 1561,230.4446 C1561,231.0958 1561,231.7443 1561,232.39 C1561,232.7128 1561,227.035 1561,227.3564 " fill="none" id="auth-dartApp" style="stroke:#000000;stroke-width:1.0;stroke-dasharray:7.0,7.0;"/><polygon fill="#000000" points="1561,87.13,1557,96.13,1561,92.13,1565,96.13,1561,87.13" style="stroke:#000000;stroke-width:1.0;"/><polygon fill="#000000" points="1561,233.3564,1565,224.3564,1561,228.3564,1557,224.3564,1561,233.3564" style="stroke:#000000;stroke-width:1.0;"/></g><!--link fileStorage to dartApp--><g id="link_fileStorage_dartApp"><path d="M1669.0721,90.6695 C1657.3521,99.4195 1647.59,105.27 1633,111 C1610.83,119.71 1596.49,101.8 1580,119 C1553.205,146.955 1548.1825,190.0275 1549.9913,226.5637 C1550.4434,235.6978 1551.3226,244.4234 1552.3952,252.4021 C1552.5293,253.3994 1552.6664,254.3851 1552.8061,255.3584 C1552.841,255.6017 1552.0109,249.907 1552.0461,250.1488 " fill="none" id="fileStorage-dartApp" style="stroke:#000000;stroke-width:1.0;stroke-dasharray:7.0,7.0;"/><polygon fill="#000000" points="1673.88,87.08,1664.2752,89.259,1669.8734,90.0712,1669.0612,95.6695,1673.88,87.08" style="stroke:#000000;stroke-width:1.0;"/><polygon fill="#000000" points="1552.9113,256.0861,1555.5718,246.6034,1552.1903,251.1383,1547.6554,247.7569,1552.9113,256.0861" style="stroke:#000000;stroke-width:1.0;"/></g><!--link dartApp to expressAPI--><g id="link_dartApp_expressAPI"><path d="M1552.2236,248.3037 C1552.1047,247.3354 1552.5651,250.8643 1552.4523,249.8749 C1551.5503,241.9596 1550.8587,233.3847 1550.58,224.4488 C1549.465,188.705 1554.955,147.185 1580,119 C1585.3,113.04 1589.57,115.89 1597.5,115 C1633.38,110.95 1886.62,110.95 1922.5,115 C1930.43,115.89 1933.86,113.91 1940,119 C1988.61,159.33 2006.3588,230.3275 2012.8788,268.0775 " fill="none" id="dartApp-expressAPI" style="stroke:#000000;stroke-width:1.0;stroke-dasharray:7.0,7.0;"/><polygon fill="#000000" points="1552.9806,254.2557,1555.8132,244.823,1552.3498,249.2957,1547.8771,245.8323,1552.9806,254.2557" style="stroke:#000000;stroke-width:1.0;"/><polygon fill="#000000" points="2013.9,273.99,2016.3099,264.4405,2013.049,269.0629,2008.4266,265.8021,2013.9,273.99" style="stroke:#000000;stroke-width:1.0;"/></g><!--link expressAPI to prismaClient--><g id="link_expressAPI_prismaClient"><path d="M2016.8088,324.2299 C2016.6188,351.9099 2016.3812,388.0501 2016.1912,415.7401 " fill="none" id="expressAPI-prismaClient" style="stroke:#000000;stroke-width:1.0;stroke-dasharray:7.0,7.0;"/><polygon fill="#000000" points="2016.85,318.23,2012.7883,327.2023,2016.8157,323.2299,2020.7881,327.2572,2016.85,318.23" style="stroke:#000000;stroke-width:1.0;"/><polygon fill="#000000" points="2016.15,421.74,2020.2117,412.7677,2016.1843,416.7401,2012.2118,412.7128,2016.15,421.74" style="stroke:#000000;stroke-width:1.0;"/></g><!--link prismaClient to postgresDB--><g id="link_prismaClient_postgresDB"><path d="M1992.0978,417.2531 C1977.6378,400.8831 1962.48,381.63 1950,358 C1899.89,263.11 1871.6496,142.5647 1861.3696,93.0447 " fill="none" id="prismaClient-postgresDB" style="stroke:#000000;stroke-width:1.0;stroke-dasharray:7.0,7.0;"/><polygon fill="#000000" points="1996.07,421.75,1993.1096,412.3566,1992.7598,418.0026,1987.1138,417.6528,1996.07,421.75" style="stroke:#000000;stroke-width:1.0;"/><polygon fill="#000000" points="1860.15,87.17,1858.0628,96.7952,1861.1663,92.0656,1865.8958,95.1691,1860.15,87.17" style="stroke:#000000;stroke-width:1.0;"/></g><!--SRC=[bLRFRziw3Bxxhn3w3jqmD6knMr4KoDBqhK0xP4k77HxUGRKPHwWj6PBSTXlwlu_wPSbnb64v1E8dKgB9ZoBL8-CTbRGb2z5sWWFN7sdvM4lHyseX6Y79yvPfADIWMC66zes-XnSzRrZDMxGX9Vw1d6fT2wxNx2UGixEYuA82SdGd7bW3v0gUM0b7X2hIMiG1v5T1y5S6RyZHTTDhF9lCkyvgRvoC8hcuy9ld7sPdfxFJoqjlRdx7v8fAJMxf3tGiWCcvTZSSMg5WJepcEzfcyrRKhBJgjEkiaDF-pgeQjBAwpsuzgBuMYOlN62ju5l8nxsVu_gZwnhZ-rWLZ0BEUtr6qPhHvl-Wxa9fnuOBkuG7zYsyP-xgZ_nLuXIVpsbh881sqcNE6_Z31NNI3b5DVKSPrkA7pGaxvNr2wb-0-eFP2JldQy3vwiXd497rXjIzPXaVdFIFprSt0gsytEydPJuKbhnc7F_F0wxrPl5-yU-TO00xAKc0DqjRMIWejIj5O8-N0WELixRkWs12ICihPz3HKRuJ4DsLBEOV6XRxpQ01prhOkRvH0TI1hq7siK8zQy2_fbmtD3wMX9Sidb9oVoY8EEEZZrnvvrmAvgrizkEX1WsKvPcgMhCijL7qJ7BM57B5ieIW5U3DW8FfOBmQCsE5xLwm3l65qRyHojkQrDzGKlVjKZR8Jzv4vCLos3r1Lvlds5G4UG1a9kxyK0e5EL0Sbsx0oNnK3ruQBHeKHm5-7wKBMlTpGCkMROux73pBkCpuGJnZOfiSgT1pY5lB8ePQomcPBwv0CR2i3aCt4LWAj4aUr1GvwQCcCxKjqvCRqQU4imS06zU0VKZdDIiXfAEr9JlS5lCVgbox4TZcrU2rUmx1WXX5CX5L_SElfXB1ywV19Lv5YJaPnLtCbcMefMJGCHUUwHHmGhrtt7NsWoeqdoWlJY-UztkA2bKdlGcWomPXvPws5fBKxSOE0boSU2gLh2UiljpY-wEX4vt1rzT5uUUpoo6b3Gbie1GQpD7we8amp9oUNSK8eugnWSDUP2j-W3EAwIE6RYKLYhHPftQPxmuP54oOKAIlCdait-cwB6IT4JHcsWSaWOfL7aqOgkAF6KyLOj1f3ez-pDqmCU_RYx36iN1ZZ913CT_5mvIvUc7mjNto-qZmTar7m8c_9EVbqVxyQ4dan- - -VK_lxlvzTMfAHt6PAhZqgSfPUX2wCo19jqOKh9j7JmDoYIFnB3iJpHaMK2hjwaSJ5Rm00]--></g></svg>