<?xml version="1.0" encoding="us-ascii" standalone="no"?><svg xmlns="http://www.w3.org/2000/svg" xmlns:xlink="http://www.w3.org/1999/xlink" contentStyleType="text/css" height="776px" preserveAspectRatio="none" style="width:422px;height:776px;background:#FFFFFF;" version="1.1" viewBox="0 0 422 776" width="422px" zoomAndPan="magnify"><defs/><g><!--cluster Eventify--><g id="cluster_Eventify"><rect fill="none" height="763" rx="2.5" ry="2.5" style="stroke:#181818;stroke-width:1.0;" width="342" x="74" y="7"/><text fill="#000000" font-family="sans-serif" font-size="14" font-weight="bold" lengthAdjust="spacing" textLength="57" x="216.5" y="23.5332">Eventify</text></g><!--cluster Interacciones Sociales--><g id="cluster_Interacciones Sociales"><path d="M100.5,51 L260.5,51 A3.75,3.75 0 0 1 263,53.5 L270,74.6094 L389.5,74.6094 A2.5,2.5 0 0 1 392,77.1094 L392,743.5 A2.5,2.5 0 0 1 389.5,746 L100.5,746 A2.5,2.5 0 0 1 98,743.5 L98,53.5 A2.5,2.5 0 0 1 100.5,51 " fill="none" style="stroke:#000000;stroke-width:1.5;"/><line style="stroke:#000000;stroke-width:1.5;" x1="98" x2="270" y1="74.6094" y2="74.6094"/><text fill="#000000" font-family="sans-serif" font-size="14" font-weight="bold" lengthAdjust="spacing" textLength="159" x="102" y="67.5332">Interacciones Sociales</text></g><g id="elem_seguirUsuario"><ellipse cx="244.8297" cy="108.0659" fill="#F1F1F1" rx="90.8297" ry="20.5659" style="stroke:#181818;stroke-width:0.5;"/><text fill="#000000" font-family="sans-serif" font-size="14" lengthAdjust="spacing" textLength="140" x="174.8297" y="111.7945">UC11 - Seguir usuario</text></g><g id="elem_dejarSeguirUsuario"><ellipse cx="244.9339" cy="189.0868" fill="#F1F1F1" rx="115.9339" ry="25.5868" style="stroke:#181818;stroke-width:0.5;"/><text fill="#000000" font-family="sans-serif" font-size="14" lengthAdjust="spacing" textLength="196" x="146.9339" y="192.8153">UC12 - Dejar de seguir usuario</text></g><g id="elem_verNotificaciones"><ellipse cx="245.113" cy="271.8226" fill="#F1F1F1" rx="99.613" ry="22.3226" style="stroke:#181818;stroke-width:0.5;"/><text fill="#000000" font-family="sans-serif" font-size="14" lengthAdjust="spacing" textLength="160" x="165.113" y="275.5511">UC13 - Ver notificaciones</text></g><g id="elem_buscarPerfil"><ellipse cx="244.8554" cy="355.7711" fill="#F1F1F1" rx="116.8554" ry="25.7711" style="stroke:#181818;stroke-width:0.5;"/><text fill="#000000" font-family="sans-serif" font-size="14" lengthAdjust="spacing" textLength="198" x="145.8554" y="359.4996">UC14 - Buscar perfil de usuario</text></g><g id="elem_darMeGusta"><ellipse cx="244.8414" cy="444.0683" fill="#F1F1F1" rx="123.3414" ry="27.0683" style="stroke:#181818;stroke-width:0.5;"/><text fill="#000000" font-family="sans-serif" font-size="14" lengthAdjust="spacing" textLength="212" x="138.8414" y="447.7968">UC15 - Dar Me gusta a un evento</text></g><g id="elem_quitarMeGusta"><ellipse cx="244.8204" cy="535.0641" fill="#F1F1F1" rx="130.8204" ry="28.5641" style="stroke:#181818;stroke-width:0.5;"/><text fill="#000000" font-family="sans-serif" font-size="14" lengthAdjust="spacing" textLength="228" x="130.8204" y="538.7926">UC16 - Quitar Me gusta a un evento</text></g><g id="elem_compartirEvento"><ellipse cx="244.7512" cy="622.8502" fill="#F1F1F1" rx="107.2512" ry="23.8502" style="stroke:#181818;stroke-width:0.5;"/><text fill="#000000" font-family="sans-serif" font-size="14" lengthAdjust="spacing" textLength="177" x="156.2512" y="626.5788">UC17 - Compartir un evento</text></g><g id="elem_comentarEvento"><ellipse cx="244.7512" cy="705.8502" fill="#F1F1F1" rx="107.2512" ry="23.8502" style="stroke:#181818;stroke-width:0.5;"/><text fill="#000000" font-family="sans-serif" font-size="14" lengthAdjust="spacing" textLength="177" x="156.2512" y="709.5788">UC18 - Comentar un evento</text></g><!--entity usuario--><g id="elem_usuario"><ellipse cx="30" cy="369.5" fill="#F1F1F1" rx="8" ry="8" style="stroke:#181818;stroke-width:0.5;"/><path d="M30,377.5 L30,404.5 M17,385.5 L43,385.5 M30,404.5 L17,419.5 M30,404.5 L43,419.5 " fill="none" style="stroke:#181818;stroke-width:0.5;"/><text fill="#000000" font-family="sans-serif" font-size="14" lengthAdjust="spacing" textLength="48" x="6" y="435.5332">Usuario</text></g><!--link usuario to seguirUsuario--><g id="link_usuario_seguirUsuario"><path d="M31.09,360.98 C32.07,297.64 37.71,176.45 66,146 C88.37,121.93 121.94,111.14 153.92,106.82 " fill="none" id="usuario-seguirUsuario" style="stroke:#181818;stroke-width:1.0;"/></g><!--link usuario to dejarSeguirUsuario--><g id="link_usuario_dejarSeguirUsuario"><path d="M34.35,360.85 C38.9,317.11 48.53,250.03 66,232 C83.92,213.51 108.32,202.41 133.3,195.88 " fill="none" id="usuario-dejarSeguirUsuario" style="stroke:#181818;stroke-width:1.0;"/></g><!--link usuario to verNotificaciones--><g id="link_usuario_verNotificaciones"><path d="M37.94,360.94 C42.95,343.61 51.49,324.38 66,312 C88.52,292.77 118.34,282.25 147.11,276.65 " fill="none" id="usuario-verNotificaciones" style="stroke:#181818;stroke-width:1.0;"/></g><!--link usuario to buscarPerfil--><g id="link_usuario_buscarPerfil"><path d="M54.2,395.21 C79.32,390.02 120.89,381.43 158.72,373.62 " fill="none" id="usuario-buscarPerfil" style="stroke:#181818;stroke-width:1.0;"/></g><!--link usuario to darMeGusta--><g id="link_usuario_darMeGusta"><path d="M54.2,404.79 C78.35,409.78 117.7,417.91 154.32,425.48 " fill="none" id="usuario-darMeGusta" style="stroke:#181818;stroke-width:1.0;"/></g><!--link usuario to quitarMeGusta--><g id="link_usuario_quitarMeGusta"><path d="M38.28,439.27 C43.35,456.43 51.85,475.46 66,488 C83.82,503.79 106.34,514.38 129.32,521.44 " fill="none" id="usuario-quitarMeGusta" style="stroke:#181818;stroke-width:1.0;"/></g><!--link usuario to compartirEvento--><g id="link_usuario_compartirEvento"><path d="M33.67,439.26 C37.69,486.26 46.94,561.14 66,581 C85.24,601.04 112.12,612.29 139.18,618.41 " fill="none" id="usuario-compartirEvento" style="stroke:#181818;stroke-width:1.0;"/></g><!--link usuario to comentarEvento--><g id="link_usuario_comentarEvento"><path d="M30.92,439.16 C31.63,504.5 36.84,631.77 66,664 C84.64,684.6 111.33,696.03 138.4,702.14 " fill="none" id="usuario-comentarEvento" style="stroke:#181818;stroke-width:1.0;"/></g><!--SRC=[ZP9DJyCm38Rl_HLMxpsCxpC38Gv3eAhSJUgMG4bAFYOXn7_7IJSfNLj63bNbrtvilma0G4UD0wV1oFRLGIqD2IUrobW254uRo2lhqKYT0rhmmt-KGoggjYF8RxUad6o-SlYEKZWzYdTiMRnNZWmAmLYoK6eXiIERfeRZBGcqd5wjLoieeAJMIxDl69lR6AgI4UQAJxZuXjxGG4sxaX6b3bhvBzGfevx9WDAyd1Guh10fMp8Fe-WYv8mXrzuA7gWdqyWkp9KEz1B5nwWjKix3LepO4BJUEWG4hu22xxkrq6peBaYBZ0jcF7df_i9yHlqOwP99Q_tHet71tH51xEFnKIoRUpKmE0Td435yGFZ9XcyseAA3K1Gpxo8HfzVD-c7I_6qc2PCxIZkC_KgKgPc9EEVJM4uy-0K0]--></g></svg>