<?xml version="1.0" encoding="us-ascii" standalone="no"?><svg xmlns="http://www.w3.org/2000/svg" xmlns:xlink="http://www.w3.org/1999/xlink" contentStyleType="text/css" height="220px" preserveAspectRatio="none" style="width:454px;height:220px;background:#FFFFFF;" version="1.1" viewBox="0 0 454 220" width="454px" zoomAndPan="magnify"><defs/><g><!--entity user--><g id="elem_user"><ellipse cx="19" cy="82.5" fill="#F1F1F1" rx="8" ry="8" style="stroke:#181818;stroke-width:0.5;"/><path d="M19,90.5 L19,117.5 M6,98.5 L32,98.5 M19,117.5 L6,132.5 M19,117.5 L32,132.5 " fill="none" style="stroke:#181818;stroke-width:0.5;"/><text fill="#000000" font-family="sans-serif" font-size="11" lengthAdjust="spacing" textLength="23" x="7.5" y="145.4189">User</text></g><!--entity eventModel--><g id="elem_eventModel"><ellipse cx="413" cy="64" fill="#F1F1F1" rx="12" ry="12" style="stroke:#181818;stroke-width:0.5;"/><line style="stroke:#181818;stroke-width:0.5;" x1="401" x2="425" y1="78" y2="78"/><text fill="#000000" font-family="sans-serif" font-size="11" lengthAdjust="spacing" textLength="55" x="385.5" y="91.4189">EventModel</text></g><!--entity locationModel--><g id="elem_locationModel"><ellipse cx="413" cy="185" fill="#F1F1F1" rx="12" ry="12" style="stroke:#181818;stroke-width:0.5;"/><line style="stroke:#181818;stroke-width:0.5;" x1="401" x2="425" y1="199" y2="199"/><text fill="#000000" font-family="sans-serif" font-size="11" lengthAdjust="spacing" textLength="69" x="378.5" y="212.4189">LocationModel</text></g><!--entity addEventView--><g id="elem_addEventView"><path d="M108.5,92 L108.5,116 M108.5,104 L125.5,104 " fill="none" style="stroke:#181818;stroke-width:0.5;"/><ellipse cx="137.5" cy="104" fill="#F1F1F1" rx="12" ry="12" style="stroke:#181818;stroke-width:0.5;"/><text fill="#000000" font-family="sans-serif" font-size="11" lengthAdjust="spacing" textLength="73" x="92.5" y="131.4189">AddEventView</text></g><!--entity fileController--><g id="elem_fileController"><ellipse cx="272" cy="23" fill="#F1F1F1" rx="12" ry="12" style="stroke:#181818;stroke-width:0.5;"/><polygon fill="#181818" points="268,11,274,6,272,11,274,16,268,11" style="stroke:#181818;stroke-width:1.0;"/><text fill="#000000" font-family="sans-serif" font-size="11" lengthAdjust="spacing" textLength="62" x="241" y="50.4189">FileController</text></g><!--entity addEventController--><g id="elem_addEventController"><ellipse cx="272" cy="104" fill="#F1F1F1" rx="12" ry="12" style="stroke:#181818;stroke-width:0.5;"/><polygon fill="#181818" points="268,92,274,87,272,92,274,97,268,92" style="stroke:#181818;stroke-width:1.0;"/><text fill="#000000" font-family="sans-serif" font-size="11" lengthAdjust="spacing" textLength="93" x="225.5" y="131.4189">AddEventController</text></g><!--entity locationController--><g id="elem_locationController"><ellipse cx="272" cy="185" fill="#F1F1F1" rx="12" ry="12" style="stroke:#181818;stroke-width:0.5;"/><polygon fill="#181818" points="268,173,274,168,272,173,274,178,268,173" style="stroke:#181818;stroke-width:1.0;"/><text fill="#000000" font-family="sans-serif" font-size="11" lengthAdjust="spacing" textLength="87" x="228.5" y="212.4189">LocationController</text></g><!--link user to addEventView--><g id="link_user_addEventView"><path d="M32.81,111 C47.34,111 65.66,111 86.08,111 " fill="none" id="user-to-addEventView" style="stroke:#181818;stroke-width:1.0;"/><polygon fill="#181818" points="92.08,111,83.08,107,87.08,111,83.08,115,92.08,111" style="stroke:#181818;stroke-width:1.0;"/></g><!--link addEventView to addEventController--><g id="link_addEventView_addEventController"><path d="M165.58,111 C183.69,111 199.92,111 219.28,111 " fill="none" id="addEventView-to-addEventController" style="stroke:#181818;stroke-width:1.0;"/><polygon fill="#181818" points="225.28,111,216.28,107,220.28,111,216.28,115,225.28,111" style="stroke:#181818;stroke-width:1.0;"/></g><!--link addEventView to locationController--><g id="link_addEventView_locationController"><path d="M165.58,131.44 C185.49,142.88 205.1565,154.1828 225.7465,166.0028 " fill="none" id="addEventView-to-locationController" style="stroke:#181818;stroke-width:1.0;"/><polygon fill="#181818" points="230.95,168.99,225.1361,161.0402,226.6137,166.5007,221.1532,167.9783,230.95,168.99" style="stroke:#181818;stroke-width:1.0;"/></g><!--link addEventView to fileController--><g id="link_addEventView_fileController"><path d="M165.58,90.56 C188.75,77.25 213.4472,63.0585 235.4872,50.3985 " fill="none" id="addEventView-to-fileController" style="stroke:#181818;stroke-width:1.0;"/><polygon fill="#181818" points="240.69,47.41,230.8935,48.4243,236.3544,49.9004,234.8782,55.3613,240.69,47.41" style="stroke:#181818;stroke-width:1.0;"/></g><!--link addEventController to eventModel--><g id="link_addEventController_eventModel"><path d="M318.51,97.9 C340.68,91.52 360.7939,85.7388 379.7039,80.2988 " fill="none" id="addEventController-to-eventModel" style="stroke:#181818;stroke-width:1.0;"/><polygon fill="#181818" points="385.47,78.64,375.7149,77.2841,380.6649,80.0223,377.9266,84.9723,385.47,78.64" style="stroke:#181818;stroke-width:1.0;"/></g><!--link fileController to eventModel--><g id="link_fileController_eventModel"><path d="M303.16,38.9 C327.59,46.1 355.9452,54.4622 379.4352,61.3922 " fill="none" id="fileController-to-eventModel" style="stroke:#181818;stroke-width:1.0;"/><polygon fill="#181818" points="385.19,63.09,377.6897,56.7068,380.3943,61.6752,375.426,64.3799,385.19,63.09" style="stroke:#181818;stroke-width:1.0;"/></g><!--link locationController to locationModel--><g id="link_locationController_locationModel"><path d="M315.84,192 C335.94,192 353.55,192 372.34,192 " fill="none" id="locationController-to-locationModel" style="stroke:#181818;stroke-width:1.0;"/><polygon fill="#181818" points="378.34,192,369.34,188,373.34,192,369.34,196,378.34,192" style="stroke:#181818;stroke-width:1.0;"/></g><!--SRC=[RP5DRWCX38NtFeKr-onoWKfHrQpQLN_s13ofLGzKu6cJdhvaqimmq0t2pzyp3qWVx3zDD0CcFGlbDRBLSH0GwXKrOEJZkwBZI5OvU4Ypmr5lHj4NEkbE-EW7yeesBnHRQX-yFlCFuNOBOAo6YDrhejYXIJZc3K1sifwnU_ZAkwVWIAOcpULCF0PhBc4MI4e5u116xqpCwCwvQTuRq_T4ca80i3bM38BTdeNkhuNyfUfNqeBUHbQuQUJ5SWjSMQIH0U3o6BZPt5L9oshLBimDyyy13LDT4zgv4rPymzfHTzipLr6kq2y0]--></g></svg>