<?xml version="1.0" encoding="us-ascii" standalone="no"?><svg xmlns="http://www.w3.org/2000/svg" xmlns:xlink="http://www.w3.org/1999/xlink" contentStyleType="text/css" height="283px" preserveAspectRatio="none" style="width:686px;height:283px;background:#FFFFFF;" version="1.1" viewBox="0 0 686 283" width="686px" zoomAndPan="magnify"><defs/><g><g id="elem_UserReg"><rect fill="#F1F1F1" height="37.6094" style="stroke:#181818;stroke-width:0.5;" width="51" x="7" y="124.3564"/><text fill="#000000" font-family="sans-serif" font-size="14" lengthAdjust="spacing" textLength="37" x="14" y="140.8896">: User</text><line style="stroke:#181818;stroke-width:0.5;" x1="8" x2="57" y1="145.9658" y2="145.9658"/></g><g id="elem_AddEventView"><rect fill="#F1F1F1" height="37.6094" style="stroke:#181818;stroke-width:0.5;" width="112" x="238.5" y="124.3564"/><text fill="#000000" font-family="sans-serif" font-size="14" lengthAdjust="spacing" textLength="98" x="245.5" y="140.8896">: AddEventView</text><line style="stroke:#181818;stroke-width:0.5;" x1="239.5" x2="349.5" y1="145.9658" y2="145.9658"/></g><g id="elem_FileController"><rect fill="#F1F1F1" height="37.6094" style="stroke:#181818;stroke-width:0.5;" width="107" x="517" y="124.3564"/><text fill="#000000" font-family="sans-serif" font-size="14" lengthAdjust="spacing" textLength="93" x="524" y="140.8896">: FileController</text><line style="stroke:#181818;stroke-width:0.5;" x1="518" x2="623" y1="145.9658" y2="145.9658"/></g><g id="elem_LocationController"><rect fill="#F1F1F1" height="37.6094" style="stroke:#181818;stroke-width:0.5;" width="138" x="225.5" y="240.3564"/><text fill="#000000" font-family="sans-serif" font-size="14" lengthAdjust="spacing" textLength="124" x="232.5" y="256.8896">: LocationController</text><line style="stroke:#181818;stroke-width:0.5;" x1="226.5" x2="362.5" y1="261.9658" y2="261.9658"/></g><g id="elem_AddEventController"><rect fill="#F1F1F1" height="37.6094" style="stroke:#181818;stroke-width:0.5;" width="145" x="222" y="8.3564"/><text fill="#000000" font-family="sans-serif" font-size="14" lengthAdjust="spacing" textLength="131" x="229" y="24.8896">: AddEventController</text><line style="stroke:#181818;stroke-width:0.5;" x1="223" x2="366" y1="29.9658" y2="29.9658"/></g><g id="elem_EventModel"><rect fill="#F1F1F1" height="37.6094" style="stroke:#181818;stroke-width:0.5;" width="96" x="537.5" y="8.3564"/><text fill="#000000" font-family="sans-serif" font-size="14" lengthAdjust="spacing" textLength="82" x="544.5" y="24.8896">: EventModel</text><line style="stroke:#181818;stroke-width:0.5;" x1="538.5" x2="632.5" y1="29.9658" y2="29.9658"/></g><g id="elem_LocationModel"><rect fill="#F1F1F1" height="37.6094" style="stroke:#181818;stroke-width:0.5;" width="114" x="566.5" y="240.3564"/><text fill="#000000" font-family="sans-serif" font-size="14" lengthAdjust="spacing" textLength="100" x="573.5" y="256.8896">: LocationModel</text><line style="stroke:#181818;stroke-width:0.5;" x1="567.5" x2="679.5" y1="261.9658" y2="261.9658"/></g><!--link UserReg to AddEventView--><g id="link_UserReg_AddEventView"><path codeLine="9" d="M58.1,143.3564 C99.62,143.3564 182.63,143.3564 238.39,143.3564 " fill="none" id="UserReg-AddEventView" style="stroke:#181818;stroke-width:1.0;"/><polygon fill="#000000" points="85.25,131.5322,76.2049,128.5933,76.2049,134.4712,85.25,131.5322" style="stroke:#000000;stroke-width:1.0;"/><text fill="#000000" font-family="sans-serif" font-size="13" lengthAdjust="spacing" textLength="131" x="89.25" y="136.8516">handleAddEvent(event)</text></g><!--link AddEventView to FileController--><g id="link_AddEventView_FileController"><path codeLine="10" d="M350.55,161.1364 C356.31,162.4464 362.12,163.5664 367.75,164.3564 C396.8,168.4364 470.72,168.5764 499.75,164.3564 C505.33,163.5464 511.08,162.3964 516.78,161.0364 " fill="none" id="AddEventView-FileController" style="stroke:#181818;stroke-width:1.0;"/><polygon fill="#000000" points="377.75,155.5292,368.7031,152.5957,368.7067,158.4736,377.75,155.5292" style="stroke:#000000;stroke-width:1.0;"/><text fill="#000000" font-family="sans-serif" font-size="13" lengthAdjust="spacing" textLength="117" x="381.75" y="160.8516">1: uploadFile(image)</text></g><!--link AddEventView to FileController--><g id="link_AddEventView_FileController"><path codeLine="11" d="M350.69,143.3564 C399.23,143.3564 468.92,143.3564 516.74,143.3564 " fill="none" id="AddEventView-FileController-1" style="stroke:#181818;stroke-width:1.0;"/><polygon fill="#000000" points="377.75,131.5322,368.7049,128.5933,368.7049,134.4712,377.75,131.5322" style="stroke:#000000;stroke-width:1.0;"/><text fill="#000000" font-family="sans-serif" font-size="13" lengthAdjust="spacing" textLength="117" x="381.75" y="136.8516">2: uploadFile(music)</text></g><!--link AddEventView to LocationController--><g id="link_AddEventView_LocationController"><path codeLine="12" d="M294.5,162.4164 C294.5,183.6364 294.5,218.6564 294.5,239.9964 " fill="none" id="AddEventView-LocationController" style="stroke:#181818;stroke-width:1.0;"/><polygon fill="#000000" points="299.5,206.5322,302.4389,197.4871,296.5611,197.4871,299.5,206.5322" style="stroke:#000000;stroke-width:1.0;"/><text fill="#000000" font-family="sans-serif" font-size="13" lengthAdjust="spacing" textLength="138" x="308.5" y="206.8516">3: addLocation(location)</text></g><!--link LocationController to LocationModel--><g id="link_LocationController_LocationModel"><path codeLine="13" d="M363.87,259.3564 C424.01,259.3564 509.99,259.3564 566.27,259.3564 " fill="none" id="LocationController-LocationModel" style="stroke:#181818;stroke-width:1.0;"/><polygon fill="#000000" points="391,247.5322,381.9549,244.5933,381.9549,250.4712,391,247.5322" style="stroke:#000000;stroke-width:1.0;"/><text fill="#000000" font-family="sans-serif" font-size="13" lengthAdjust="spacing" textLength="153" x="395" y="252.8516">4: createLocation(location)</text></g><!--link AddEventController to AddEventView--><g id="link_AddEventController_AddEventView"><path codeLine="14" d="M294.5,46.4164 C294.5,67.6364 294.5,102.6564 294.5,123.9964 " fill="none" id="AddEventController-AddEventView" style="stroke:#181818;stroke-width:1.0;"/><polygon fill="#000000" points="299.5,80.5322,296.5611,89.5773,302.4389,89.5773,299.5,80.5322" style="stroke:#000000;stroke-width:1.0;"/><text fill="#000000" font-family="sans-serif" font-size="13" lengthAdjust="spacing" textLength="110" x="308.5" y="90.8516">5: postEvent(event)</text></g><!--link AddEventController to EventModel--><g id="link_AddEventController_EventModel"><path codeLine="15" d="M367.18,27.3564 C420.38,27.3564 491.07,27.3564 537.4,27.3564 " fill="none" id="AddEventController-EventModel" style="stroke:#181818;stroke-width:1.0;"/><polygon fill="#000000" points="394.25,15.5322,385.2049,12.5933,385.2049,18.4712,394.25,15.5322" style="stroke:#000000;stroke-width:1.0;"/><text fill="#000000" font-family="sans-serif" font-size="13" lengthAdjust="spacing" textLength="121" x="398.25" y="20.8516">6: createEvent(event)</text></g><!--SRC=[ZL6xReGm4Epz5IigA2ZkyYXS89sYk-hIHBhh7RmYZWoBm2I_dzY2m68NQQprxCpiUapldrWxo2JSHXmoK6Ceth0HzDSwQNt-mixT3Nu7oXROy2x6uWjrRY1hPpCERRXNgfKprEtuCPpOOwU9uOqcT5v9emtSzPhOPQKnH8Wv4YY7ahqT97oeJbjSm1pzMK0b6CthU18IAZX8c7fBIljMRbhLO07_4HwPi9r6KqT2NIQozE872KhhfPVRkVWrYFbXFil2EpnAg0TK3bCcV8kfJFoEztYIqDFeM6WYfeO5rZ_pokTbEjV-0000]--></g></svg>