<?xml version="1.0" encoding="us-ascii" standalone="no"?><svg xmlns="http://www.w3.org/2000/svg" xmlns:xlink="http://www.w3.org/1999/xlink" contentStyleType="text/css" height="331px" preserveAspectRatio="none" style="width:686px;height:331px;background:#FFFFFF;" version="1.1" viewBox="0 0 686 331" width="686px" zoomAndPan="magnify"><defs/><g><g id="elem_UserReg"><rect fill="#F1F1F1" height="37.6094" style="stroke:#181818;stroke-width:0.5;" width="51" x="7" y="156.3564"/><text fill="#000000" font-family="sans-serif" font-size="14" lengthAdjust="spacing" textLength="37" x="14" y="172.8896">: User</text><line style="stroke:#181818;stroke-width:0.5;" x1="8" x2="57" y1="177.9658" y2="177.9658"/></g><g id="elem_AddEventView"><rect fill="#F1F1F1" height="37.6094" style="stroke:#181818;stroke-width:0.5;" width="112" x="238.5" y="156.3564"/><text fill="#000000" font-family="sans-serif" font-size="14" lengthAdjust="spacing" textLength="98" x="245.5" y="172.8896">: AddEventView</text><line style="stroke:#181818;stroke-width:0.5;" x1="239.5" x2="349.5" y1="177.9658" y2="177.9658"/></g><g id="elem_FileController"><rect fill="#F1F1F1" height="37.6094" style="stroke:#181818;stroke-width:0.5;" width="107" x="517" y="156.3564"/><text fill="#000000" font-family="sans-serif" font-size="14" lengthAdjust="spacing" textLength="93" x="524" y="172.8896">: FileController</text><line style="stroke:#181818;stroke-width:0.5;" x1="518" x2="623" y1="177.9658" y2="177.9658"/></g><g id="elem_LocationController"><rect fill="#F1F1F1" height="37.6094" style="stroke:#181818;stroke-width:0.5;" width="138" x="225.5" y="288.3564"/><text fill="#000000" font-family="sans-serif" font-size="14" lengthAdjust="spacing" textLength="124" x="232.5" y="304.8896">: LocationController</text><line style="stroke:#181818;stroke-width:0.5;" x1="226.5" x2="362.5" y1="309.9658" y2="309.9658"/></g><g id="elem_AddEventController"><rect fill="#F1F1F1" height="37.6094" style="stroke:#181818;stroke-width:0.5;" width="145" x="222" y="24.3564"/><text fill="#000000" font-family="sans-serif" font-size="14" lengthAdjust="spacing" textLength="131" x="229" y="40.8896">: AddEventController</text><line style="stroke:#181818;stroke-width:0.5;" x1="223" x2="366" y1="45.9658" y2="45.9658"/></g><g id="elem_EventModel"><rect fill="#F1F1F1" height="37.6094" style="stroke:#181818;stroke-width:0.5;" width="96" x="544.5" y="24.3564"/><text fill="#000000" font-family="sans-serif" font-size="14" lengthAdjust="spacing" textLength="82" x="551.5" y="40.8896">: EventModel</text><line style="stroke:#181818;stroke-width:0.5;" x1="545.5" x2="639.5" y1="45.9658" y2="45.9658"/></g><g id="elem_LocationModel"><rect fill="#F1F1F1" height="37.6094" style="stroke:#181818;stroke-width:0.5;" width="114" x="566.5" y="288.3564"/><text fill="#000000" font-family="sans-serif" font-size="14" lengthAdjust="spacing" textLength="100" x="573.5" y="304.8896">: LocationModel</text><line style="stroke:#181818;stroke-width:0.5;" x1="567.5" x2="679.5" y1="309.9658" y2="309.9658"/></g><!--link UserReg to AddEventView--><g id="link_UserReg_AddEventView"><path codeLine="9" d="M58.1,175.3564 C99.62,175.3564 182.63,175.3564 238.39,175.3564 " fill="none" id="UserReg-AddEventView" style="stroke:#181818;stroke-width:1.0;"/><polygon fill="#000000" points="85.25,163.5322,76.2049,160.5933,76.2049,166.4712,85.25,163.5322" style="stroke:#000000;stroke-width:1.0;"/><text fill="#000000" font-family="sans-serif" font-size="13" lengthAdjust="spacing" textLength="131" x="89.25" y="168.8516">handleAddEvent(event)</text></g><!--link AddEventView to FileController--><g id="link_AddEventView_FileController"><path codeLine="10" d="M324.28,194.3864 C337.12,201.5164 352.64,208.7564 367.75,212.3564 C396.28,219.1564 471.26,219.3564 499.75,212.3564 C514.42,208.7564 529.43,201.5064 541.82,194.3764 " fill="none" id="AddEventView-FileController" style="stroke:#181818;stroke-width:1.0;"/><polygon fill="#000000" points="378.75,187.532,369.7048,184.5935,369.7051,190.4713,378.75,187.532" style="stroke:#000000;stroke-width:1.0;"/><text fill="#000000" font-family="sans-serif" font-size="13" lengthAdjust="spacing" textLength="117" x="381.75" y="192.8516">1: uploadFile(image)</text><polygon fill="#000000" points="394.25,203.884,403.2952,206.8225,403.2949,200.9447,394.25,203.884" style="stroke:#000000;stroke-width:1.0;"/><text fill="#000000" font-family="sans-serif" font-size="13" lengthAdjust="spacing" textLength="66" x="407.25" y="209.2031">2: imageUrl</text></g><!--link AddEventView to FileController--><g id="link_AddEventView_FileController"><path codeLine="11" d="M350.69,175.3564 C399.23,175.3564 468.92,175.3564 516.74,175.3564 " fill="none" id="AddEventView-FileController-1" style="stroke:#181818;stroke-width:1.0;"/><polygon fill="#000000" points="378.75,147.5322,369.7049,144.5933,369.7049,150.4712,378.75,147.5322" style="stroke:#000000;stroke-width:1.0;"/><text fill="#000000" font-family="sans-serif" font-size="13" lengthAdjust="spacing" textLength="117" x="381.75" y="152.8516">3: uploadFile(music)</text><polygon fill="#000000" points="394.25,163.8838,403.2951,166.8227,403.2951,160.9449,394.25,163.8838" style="stroke:#000000;stroke-width:1.0;"/><text fill="#000000" font-family="sans-serif" font-size="13" lengthAdjust="spacing" textLength="66" x="407.25" y="169.2031">4: musicUrl</text></g><!--link AddEventView to LocationController--><g id="link_AddEventView_LocationController"><path codeLine="12" d="M294.5,194.4364 C294.5,219.1264 294.5,263.1764 294.5,288.0164 " fill="none" id="AddEventView-LocationController" style="stroke:#181818;stroke-width:1.0;"/><polygon fill="#000000" points="300.5,238.5322,303.4389,229.4871,297.5611,229.4871,300.5,238.5322" style="stroke:#000000;stroke-width:1.0;"/><text fill="#000000" font-family="sans-serif" font-size="13" lengthAdjust="spacing" textLength="138" x="308.5" y="238.8516">5: addLocation(location)</text><polygon fill="#000000" points="334.5,244.8838,331.5611,253.9289,337.4389,253.9289,334.5,244.8838" style="stroke:#000000;stroke-width:1.0;"/><text fill="#000000" font-family="sans-serif" font-size="13" lengthAdjust="spacing" textLength="70" x="342.5" y="255.2031">8: locationId</text></g><!--link LocationController to LocationModel--><g id="link_LocationController_LocationModel"><path codeLine="13" d="M363.87,307.3564 C424.01,307.3564 509.99,307.3564 566.27,307.3564 " fill="none" id="LocationController-LocationModel" style="stroke:#181818;stroke-width:1.0;"/><polygon fill="#000000" points="392,279.5322,382.9549,276.5933,382.9549,282.4712,392,279.5322" style="stroke:#000000;stroke-width:1.0;"/><text fill="#000000" font-family="sans-serif" font-size="13" lengthAdjust="spacing" textLength="153" x="395" y="284.8516">6: createLocation(location)</text><polygon fill="#000000" points="428.5,295.8838,437.5451,298.8227,437.5451,292.9449,428.5,295.8838" style="stroke:#000000;stroke-width:1.0;"/><text fill="#000000" font-family="sans-serif" font-size="13" lengthAdjust="spacing" textLength="60" x="441.5" y="301.2031">7: location</text></g><!--link AddEventController to AddEventView--><g id="link_AddEventController_AddEventView"><path codeLine="14" d="M294.5,62.4364 C294.5,87.1264 294.5,131.1764 294.5,156.0164 " fill="none" id="AddEventController-AddEventView" style="stroke:#181818;stroke-width:1.0;"/><polygon fill="#000000" points="300.5,106.5322,303.4389,97.4871,297.5611,97.4871,300.5,106.5322" style="stroke:#000000;stroke-width:1.0;"/><text fill="#000000" font-family="sans-serif" font-size="13" lengthAdjust="spacing" textLength="110" x="308.5" y="106.8516">9: postEvent(event)</text><polygon fill="#000000" points="329.5,112.8838,326.5611,121.9289,332.4389,121.9289,329.5,112.8838" style="stroke:#000000;stroke-width:1.0;"/><text fill="#000000" font-family="sans-serif" font-size="13" lengthAdjust="spacing" textLength="52" x="337.5" y="123.2031">10: event</text></g><!--link AddEventController to EventModel--><g id="link_AddEventController_EventModel"><path codeLine="15" d="M367.02,43.3564 C422.15,43.3564 496.44,43.3564 544.41,43.3564 " fill="none" id="AddEventController-EventModel" style="stroke:#181818;stroke-width:1.0;"/><polygon fill="#000000" points="395.25,15.5322,386.2049,12.5933,386.2049,18.4712,395.25,15.5322" style="stroke:#000000;stroke-width:1.0;"/><text fill="#000000" font-family="sans-serif" font-size="13" lengthAdjust="spacing" textLength="128" x="398.25" y="20.8516">10: createEvent(event)</text><polygon fill="#000000" points="423.25,31.8838,432.2951,34.8227,432.2951,28.9449,423.25,31.8838" style="stroke:#000000;stroke-width:1.0;"/><text fill="#000000" font-family="sans-serif" font-size="13" lengthAdjust="spacing" textLength="52" x="436.25" y="37.2031">11: event</text></g><!--SRC=[ZP9FQyCm3CNl-HIYf_GGQBh_OXJ6s62mNGRTQHSl5fsBQnV7sRx-Qf4iTk93By5wUlhnBCT-xQdni43OjkGM85e-lDEkiF-j1ocVViZu3qM_R8c5oFUiD3rQuvtLkeUbKkHzjOtmofg9VovdSancvd8qmvqtAqcpTompMKPReXH5lnAeN9NS7H2-XP6Q1h6ay5t2faXiOIxT1C86QeJkgAsGeLMgWzZH4ZuDh16us3eDz-U0BXBGeMjLmw1B12vo85bbTXrWLmX2og5Nwlx0m5k4eNwH9-ISm0cJxGNcDKBZI7ZAOsz6x2ndLsNUDp3l48wszSdQJwnwXS1LH9h46_y1VeNL46w6gaVK7m00]--></g></svg>