<?xml version="1.0" encoding="us-ascii" standalone="no"?><svg xmlns="http://www.w3.org/2000/svg" xmlns:xlink="http://www.w3.org/1999/xlink" contentStyleType="text/css" height="220px" preserveAspectRatio="none" style="width:454px;height:220px;background:#FFFFFF;" version="1.1" viewBox="0 0 454 220" width="454px" zoomAndPan="magnify"><defs/><g><!--entity user--><g id="elem_user"><ellipse cx="19" cy="82.5" fill="#F1F1F1" rx="8" ry="8" style="stroke:#181818;stroke-width:0.5;"/><path d="M19,90.5 L19,117.5 M6,98.5 L32,98.5 M19,117.5 L6,132.5 M19,117.5 L32,132.5 " fill="none" style="stroke:#181818;stroke-width:0.5;"/><text fill="#000000" font-family="sans-serif" font-size="11" lengthAdjust="spacing" textLength="23" x="7.5" y="145.4189">User</text></g><!--entity eventModel--><g id="elem_eventModel"><ellipse cx="413" cy="64" fill="#F1F1F1" rx="12" ry="12" style="stroke:#181818;stroke-width:0.5;"/><line style="stroke:#181818;stroke-width:0.5;" x1="401" x2="425" y1="78" y2="78"/><text fill="#000000" font-family="sans-serif" font-size="11" lengthAdjust="spacing" textLength="55" x="385.5" y="91.4189">EventModel</text></g><!--entity locationModel--><g id="elem_locationModel"><ellipse cx="413" cy="185" fill="#F1F1F1" rx="12" ry="12" style="stroke:#181818;stroke-width:0.5;"/><line style="stroke:#181818;stroke-width:0.5;" x1="401" x2="425" y1="199" y2="199"/><text fill="#000000" font-family="sans-serif" font-size="11" lengthAdjust="spacing" textLength="69" x="378.5" y="212.4189">LocationModel</text></g><!--entity addEventView--><g id="elem_addEventView"><path d="M108.5,92 L108.5,116 M108.5,104 L125.5,104 " fill="none" style="stroke:#181818;stroke-width:0.5;"/><ellipse cx="137.5" cy="104" fill="#F1F1F1" rx="12" ry="12" style="stroke:#181818;stroke-width:0.5;"/><text fill="#000000" font-family="sans-serif" font-size="11" lengthAdjust="spacing" textLength="73" x="92.5" y="131.4189">AddEventView</text></g><!--entity fileController--><g id="elem_fileController"><ellipse cx="272" cy="23" fill="#F1F1F1" rx="12" ry="12" style="stroke:#181818;stroke-width:0.5;"/><polygon fill="#181818" points="268,11,274,6,272,11,274,16,268,11" style="stroke:#181818;stroke-width:1.0;"/><text fill="#000000" font-family="sans-serif" font-size="11" lengthAdjust="spacing" textLength="62" x="241" y="50.4189">FileController</text></g><!--entity addEventController--><g id="elem_addEventController"><ellipse cx="272" cy="104" fill="#F1F1F1" rx="12" ry="12" style="stroke:#181818;stroke-width:0.5;"/><polygon fill="#181818" points="268,92,274,87,272,92,274,97,268,92" style="stroke:#181818;stroke-width:1.0;"/><text fill="#000000" font-family="sans-serif" font-size="11" lengthAdjust="spacing" textLength="93" x="225.5" y="131.4189">AddEventController</text></g><!--entity locationController--><g id="elem_locationController"><ellipse cx="272" cy="185" fill="#F1F1F1" rx="12" ry="12" style="stroke:#181818;stroke-width:0.5;"/><polygon fill="#181818" points="268,173,274,168,272,173,274,178,268,173" style="stroke:#181818;stroke-width:1.0;"/><text fill="#000000" font-family="sans-serif" font-size="11" lengthAdjust="spacing" textLength="87" x="228.5" y="212.4189">LocationController</text></g><!--link user to addEventView--><g id="link_user_addEventView"><path d="M32.81,111 C47.34,111 71.66,111 92.08,111 " fill="none" id="user-addEventView" style="stroke:#181818;stroke-width:1.0;"/></g><!--link addEventView to addEventController--><g id="link_addEventView_addEventController"><path d="M165.58,111 C183.69,111 205.92,111 225.28,111 " fill="none" id="addEventView-addEventController" style="stroke:#181818;stroke-width:1.0;"/></g><!--link addEventView to locationController--><g id="link_addEventView_locationController"><path d="M165.58,131.44 C185.49,142.88 210.36,157.17 230.95,168.99 " fill="none" id="addEventView-locationController" style="stroke:#181818;stroke-width:1.0;"/></g><!--link addEventView to fileController--><g id="link_addEventView_fileController"><path d="M165.58,90.56 C188.75,77.25 218.65,60.07 240.69,47.41 " fill="none" id="addEventView-fileController" style="stroke:#181818;stroke-width:1.0;"/></g><!--link addEventController to eventModel--><g id="link_addEventController_eventModel"><path d="M318.51,97.9 C340.68,91.52 366.56,84.08 385.47,78.64 " fill="none" id="addEventController-eventModel" style="stroke:#181818;stroke-width:1.0;"/></g><!--link fileController to eventModel--><g id="link_fileController_eventModel"><path d="M303.16,38.9 C327.59,46.1 361.7,56.16 385.19,63.09 " fill="none" id="fileController-eventModel" style="stroke:#181818;stroke-width:1.0;"/></g><!--link locationController to locationModel--><g id="link_locationController_locationModel"><path d="M315.84,192 C335.94,192 359.55,192 378.34,192 " fill="none" id="locationController-locationModel" style="stroke:#181818;stroke-width:1.0;"/></g><!--SRC=[RP5DSiCW38NtEeN6-onoX4odMRMh_kmfoAccCdH0JfkSFjXfR0BTCEZfU-81wOlzjubcmAGdeRn6jZeE0aAzeWQCVFXKT1p9AWSFQN4uwiqe-ag_kXC- -86yeiqBnPRQ1wylV2RSRW6CrH2nUqiKEpG9nxm1o4xM4tQFnxnx3evaRj9IBiHJi6OAiq9IAW0VOVJEn8pkd9ldlJFzpAGf102ROyKWsErPwE5Qo5-g_avQqTl82ZUDl5fkWIkBD380J8-1cqqLjApARc6jaN-crqXrHMYdJbJn0_U6gjaUMCQuCXS0]--></g></svg>