<?xml version="1.0" encoding="us-ascii" standalone="no"?><svg xmlns="http://www.w3.org/2000/svg" xmlns:xlink="http://www.w3.org/1999/xlink" contentStyleType="text/css" height="976px" preserveAspectRatio="none" style="width:774px;height:976px;background:#FFFFFF;" version="1.1" viewBox="0 0 774 976" width="774px" zoomAndPan="magnify"><defs/><g><!--cluster frontend--><g id="cluster_frontend"><polygon fill="none" points="117,6,171,6,178,25.8359,757,25.8359,757,969,117,969,117,6" style="stroke:#000000;stroke-width:1.5;"/><line style="stroke:#000000;stroke-width:1.5;" x1="117" x2="178" y1="25.8359" y2="25.8359"/><text fill="#000000" font-family="sans-serif" font-size="11" font-weight="bold" lengthAdjust="spacing" textLength="48" x="121" y="19.4189">frontend</text><text fill="#000000" font-family="sans-serif" font-size="11" font-style="italic" lengthAdjust="spacing" textLength="77" x="402.5" y="39.2549">&#171;Flutter:3.10.0&#187;</text></g><!--entity addEventView--><g id="elem_addEventView"><path d="M149,489.8359 L149,513.8359 M149,501.8359 L166,501.8359 " fill="none" style="stroke:#181818;stroke-width:0.5;"/><ellipse cx="178" cy="501.8359" fill="#F1F1F1" rx="12" ry="12" style="stroke:#181818;stroke-width:0.5;"/><text fill="#000000" font-family="sans-serif" font-size="11" lengthAdjust="spacing" textLength="73" x="133" y="529.2549">AddEventView</text><text fill="#000000" font-family="sans-serif" font-size="11" font-style="italic" lengthAdjust="spacing" textLength="31" x="154" y="483.4189">&#171;dart&#187;</text></g><!--entity addDateView--><g id="elem_addDateView"><path d="M312.5,910.8359 L312.5,934.8359 M312.5,922.8359 L329.5,922.8359 " fill="none" style="stroke:#181818;stroke-width:0.5;"/><ellipse cx="341.5" cy="922.8359" fill="#F1F1F1" rx="12" ry="12" style="stroke:#181818;stroke-width:0.5;"/><text fill="#000000" font-family="sans-serif" font-size="11" lengthAdjust="spacing" textLength="68" x="299" y="950.2549">AddDateView</text><text fill="#000000" font-family="sans-serif" font-size="11" font-style="italic" lengthAdjust="spacing" textLength="31" x="317.5" y="904.4189">&#171;dart&#187;</text></g><!--entity chooseCategoriesView--><g id="elem_chooseCategoriesView"><path d="M312.5,815.8359 L312.5,839.8359 M312.5,827.8359 L329.5,827.8359 " fill="none" style="stroke:#181818;stroke-width:0.5;"/><ellipse cx="341.5" cy="827.8359" fill="#F1F1F1" rx="12" ry="12" style="stroke:#181818;stroke-width:0.5;"/><text fill="#000000" font-family="sans-serif" font-size="11" lengthAdjust="spacing" textLength="115" x="275.5" y="855.2549">ChooseCategoriesView</text><text fill="#000000" font-family="sans-serif" font-size="11" font-style="italic" lengthAdjust="spacing" textLength="31" x="317.5" y="809.4189">&#171;dart&#187;</text></g><!--entity widgets--><g id="elem_widgets"><rect fill="#F1F1F1" height="57.6719" rx="2.5" ry="2.5" style="stroke:#181818;stroke-width:0.5;" width="128" x="269" y="705"/><rect fill="#F1F1F1" height="10" style="stroke:#181818;stroke-width:0.5;" width="15" x="377" y="710"/><rect fill="#F1F1F1" height="2" style="stroke:#181818;stroke-width:0.5;" width="4" x="375" y="712"/><rect fill="#F1F1F1" height="2" style="stroke:#181818;stroke-width:0.5;" width="4" x="375" y="716"/><text fill="#000000" font-family="sans-serif" font-size="11" font-style="italic" lengthAdjust="spacing" textLength="88" x="284" y="736.4189">&#171;custom widgets&#187;</text><text fill="#000000" font-family="sans-serif" font-size="11" lengthAdjust="spacing" textLength="39" x="308.5" y="750.2549">widgets</text></g><!--entity material--><g id="elem_material"><rect fill="#F1F1F1" height="57.6719" rx="2.5" ry="2.5" style="stroke:#181818;stroke-width:0.5;" width="94" x="286" y="612"/><rect fill="#F1F1F1" height="10" style="stroke:#181818;stroke-width:0.5;" width="15" x="360" y="617"/><rect fill="#F1F1F1" height="2" style="stroke:#181818;stroke-width:0.5;" width="4" x="358" y="619"/><rect fill="#F1F1F1" height="2" style="stroke:#181818;stroke-width:0.5;" width="4" x="358" y="623"/><text fill="#000000" font-family="sans-serif" font-size="11" font-style="italic" lengthAdjust="spacing" textLength="54" x="301" y="643.4189">&#171;package&#187;</text><text fill="#000000" font-family="sans-serif" font-size="11" lengthAdjust="spacing" textLength="37" x="309.5" y="657.2549">material</text></g><!--entity locationPackage--><g id="elem_locationPackage"><rect fill="#F1F1F1" height="57.6719" rx="2.5" ry="2.5" style="stroke:#181818;stroke-width:0.5;" width="94" x="286" y="519"/><rect fill="#F1F1F1" height="10" style="stroke:#181818;stroke-width:0.5;" width="15" x="360" y="524"/><rect fill="#F1F1F1" height="2" style="stroke:#181818;stroke-width:0.5;" width="4" x="358" y="526"/><rect fill="#F1F1F1" height="2" style="stroke:#181818;stroke-width:0.5;" width="4" x="358" y="530"/><text fill="#000000" font-family="sans-serif" font-size="11" font-style="italic" lengthAdjust="spacing" textLength="54" x="301" y="550.4189">&#171;package&#187;</text><text fill="#000000" font-family="sans-serif" font-size="11" lengthAdjust="spacing" textLength="37" x="309.5" y="564.2549">location</text></g><!--entity flutterFilePicker--><g id="elem_flutterFilePicker"><rect fill="#F1F1F1" height="57.6719" rx="2.5" ry="2.5" style="stroke:#181818;stroke-width:0.5;" width="94" x="286" y="426"/><rect fill="#F1F1F1" height="10" style="stroke:#181818;stroke-width:0.5;" width="15" x="360" y="431"/><rect fill="#F1F1F1" height="2" style="stroke:#181818;stroke-width:0.5;" width="4" x="358" y="433"/><rect fill="#F1F1F1" height="2" style="stroke:#181818;stroke-width:0.5;" width="4" x="358" y="437"/><text fill="#000000" font-family="sans-serif" font-size="11" font-style="italic" lengthAdjust="spacing" textLength="54" x="301" y="457.4189">&#171;package&#187;</text><text fill="#000000" font-family="sans-serif" font-size="11" lengthAdjust="spacing" textLength="49" x="303.5" y="471.2549">file_picker</text></g><!--entity flutterSound--><g id="elem_flutterSound"><rect fill="#F1F1F1" height="57.6719" rx="2.5" ry="2.5" style="stroke:#181818;stroke-width:0.5;" width="104" x="281" y="333"/><rect fill="#F1F1F1" height="10" style="stroke:#181818;stroke-width:0.5;" width="15" x="365" y="338"/><rect fill="#F1F1F1" height="2" style="stroke:#181818;stroke-width:0.5;" width="4" x="363" y="340"/><rect fill="#F1F1F1" height="2" style="stroke:#181818;stroke-width:0.5;" width="4" x="363" y="344"/><text fill="#000000" font-family="sans-serif" font-size="11" font-style="italic" lengthAdjust="spacing" textLength="54" x="301" y="364.4189">&#171;package&#187;</text><text fill="#000000" font-family="sans-serif" font-size="11" lengthAdjust="spacing" textLength="64" x="296" y="378.2549">flutter_sound</text></g><!--entity permissionHandler--><g id="elem_permissionHandler"><rect fill="#F1F1F1" height="57.6719" rx="2.5" ry="2.5" style="stroke:#181818;stroke-width:0.5;" width="134" x="266" y="240"/><rect fill="#F1F1F1" height="10" style="stroke:#181818;stroke-width:0.5;" width="15" x="380" y="245"/><rect fill="#F1F1F1" height="2" style="stroke:#181818;stroke-width:0.5;" width="4" x="378" y="247"/><rect fill="#F1F1F1" height="2" style="stroke:#181818;stroke-width:0.5;" width="4" x="378" y="251"/><text fill="#000000" font-family="sans-serif" font-size="11" font-style="italic" lengthAdjust="spacing" textLength="54" x="301" y="271.4189">&#171;package&#187;</text><text fill="#000000" font-family="sans-serif" font-size="11" lengthAdjust="spacing" textLength="94" x="281" y="285.2549">permission_handler</text></g><!--entity flutterImagePicker--><g id="elem_flutterImagePicker"><rect fill="#F1F1F1" height="57.6719" rx="2.5" ry="2.5" style="stroke:#181818;stroke-width:0.5;" width="103" x="281.5" y="147"/><rect fill="#F1F1F1" height="10" style="stroke:#181818;stroke-width:0.5;" width="15" x="364.5" y="152"/><rect fill="#F1F1F1" height="2" style="stroke:#181818;stroke-width:0.5;" width="4" x="362.5" y="154"/><rect fill="#F1F1F1" height="2" style="stroke:#181818;stroke-width:0.5;" width="4" x="362.5" y="158"/><text fill="#000000" font-family="sans-serif" font-size="11" font-style="italic" lengthAdjust="spacing" textLength="54" x="301" y="178.4189">&#171;package&#187;</text><text fill="#000000" font-family="sans-serif" font-size="11" lengthAdjust="spacing" textLength="63" x="296.5" y="192.2549">image_picker</text></g><!--entity location--><g id="elem_location"><rect fill="#F1F1F1" height="57.6719" rx="2.5" ry="2.5" style="stroke:#181818;stroke-width:0.5;" width="81" x="492.5" y="616"/><rect fill="#F1F1F1" height="10" style="stroke:#181818;stroke-width:0.5;" width="15" x="553.5" y="621"/><rect fill="#F1F1F1" height="2" style="stroke:#181818;stroke-width:0.5;" width="4" x="551.5" y="623"/><rect fill="#F1F1F1" height="2" style="stroke:#181818;stroke-width:0.5;" width="4" x="551.5" y="627"/><text fill="#000000" font-family="sans-serif" font-size="11" font-style="italic" lengthAdjust="spacing" textLength="41" x="507.5" y="647.4189">&#171;Class&#187;</text><text fill="#000000" font-family="sans-serif" font-size="11" lengthAdjust="spacing" textLength="41" x="507.5" y="661.2549">Location</text></g><!--entity filePicker--><g id="elem_filePicker"><rect fill="#F1F1F1" height="57.6719" rx="2.5" ry="2.5" style="stroke:#181818;stroke-width:0.5;" width="85" x="490.5" y="523"/><rect fill="#F1F1F1" height="10" style="stroke:#181818;stroke-width:0.5;" width="15" x="555.5" y="528"/><rect fill="#F1F1F1" height="2" style="stroke:#181818;stroke-width:0.5;" width="4" x="553.5" y="530"/><rect fill="#F1F1F1" height="2" style="stroke:#181818;stroke-width:0.5;" width="4" x="553.5" y="534"/><text fill="#000000" font-family="sans-serif" font-size="11" font-style="italic" lengthAdjust="spacing" textLength="41" x="507.5" y="554.4189">&#171;Class&#187;</text><text fill="#000000" font-family="sans-serif" font-size="11" lengthAdjust="spacing" textLength="45" x="505.5" y="568.2549">FilePicker</text></g><!--entity flutterSoundRecorder--><g id="elem_flutterSoundRecorder"><rect fill="#F1F1F1" height="57.6719" rx="2.5" ry="2.5" style="stroke:#181818;stroke-width:0.5;" width="146" x="460" y="430"/><rect fill="#F1F1F1" height="10" style="stroke:#181818;stroke-width:0.5;" width="15" x="586" y="435"/><rect fill="#F1F1F1" height="2" style="stroke:#181818;stroke-width:0.5;" width="4" x="584" y="437"/><rect fill="#F1F1F1" height="2" style="stroke:#181818;stroke-width:0.5;" width="4" x="584" y="441"/><text fill="#000000" font-family="sans-serif" font-size="11" font-style="italic" lengthAdjust="spacing" textLength="41" x="507.5" y="461.4189">&#171;Class&#187;</text><text fill="#000000" font-family="sans-serif" font-size="11" lengthAdjust="spacing" textLength="106" x="475" y="475.2549">FlutterSoundRecorder</text></g><!--entity imagePicker--><g id="elem_imagePicker"><rect fill="#F1F1F1" height="57.6719" rx="2.5" ry="2.5" style="stroke:#181818;stroke-width:0.5;" width="97" x="484.5" y="337"/><rect fill="#F1F1F1" height="10" style="stroke:#181818;stroke-width:0.5;" width="15" x="561.5" y="342"/><rect fill="#F1F1F1" height="2" style="stroke:#181818;stroke-width:0.5;" width="4" x="559.5" y="344"/><rect fill="#F1F1F1" height="2" style="stroke:#181818;stroke-width:0.5;" width="4" x="559.5" y="348"/><text fill="#000000" font-family="sans-serif" font-size="11" font-style="italic" lengthAdjust="spacing" textLength="41" x="507.5" y="368.4189">&#171;Class&#187;</text><text fill="#000000" font-family="sans-serif" font-size="11" lengthAdjust="spacing" textLength="57" x="499.5" y="382.2549">ImagePicker</text></g><!--entity eventRepository--><g id="elem_eventRepository"><ellipse cx="533" cy="81.8359" fill="#F1F1F1" rx="12" ry="12" style="stroke:#181818;stroke-width:0.5;"/><polygon fill="#181818" points="529,69.8359,535,64.8359,533,69.8359,535,74.8359,529,69.8359" style="stroke:#181818;stroke-width:1.0;"/><text fill="#000000" font-family="sans-serif" font-size="11" lengthAdjust="spacing" textLength="79" x="493.5" y="109.2549">EventRepository</text><text fill="#000000" font-family="sans-serif" font-size="11" font-style="italic" lengthAdjust="spacing" textLength="31" x="517.5" y="63.4189">&#171;dart&#187;</text></g><!--entity locationRepository--><g id="elem_locationRepository"><ellipse cx="533" cy="176.8359" fill="#F1F1F1" rx="12" ry="12" style="stroke:#181818;stroke-width:0.5;"/><polygon fill="#181818" points="529,164.8359,535,159.8359,533,164.8359,535,169.8359,529,164.8359" style="stroke:#181818;stroke-width:1.0;"/><text fill="#000000" font-family="sans-serif" font-size="11" lengthAdjust="spacing" textLength="93" x="486.5" y="204.2549">LocationRepository</text><text fill="#000000" font-family="sans-serif" font-size="11" font-style="italic" lengthAdjust="spacing" textLength="31" x="517.5" y="158.4189">&#171;dart&#187;</text></g><!--entity storageService--><g id="elem_storageService"><ellipse cx="533" cy="271.8359" fill="#F1F1F1" rx="12" ry="12" style="stroke:#181818;stroke-width:0.5;"/><polygon fill="#181818" points="529,259.8359,535,254.8359,533,259.8359,535,264.8359,529,259.8359" style="stroke:#181818;stroke-width:1.0;"/><text fill="#000000" font-family="sans-serif" font-size="11" lengthAdjust="spacing" textLength="75" x="495.5" y="299.2549">StorageService</text><text fill="#000000" font-family="sans-serif" font-size="11" font-style="italic" lengthAdjust="spacing" textLength="31" x="517.5" y="253.4189">&#171;dart&#187;</text></g><!--entity apiClient--><g id="elem_apiClient"><ellipse cx="703.5" cy="162.8359" fill="#F1F1F1" rx="12" ry="12" style="stroke:#181818;stroke-width:0.5;"/><polygon fill="#181818" points="699.5,150.8359,705.5,145.8359,703.5,150.8359,705.5,155.8359,699.5,150.8359" style="stroke:#181818;stroke-width:1.0;"/><text fill="#000000" font-family="sans-serif" font-size="11" lengthAdjust="spacing" textLength="42" x="682.5" y="190.2549">ApiClient</text><text fill="#000000" font-family="sans-serif" font-size="11" font-style="italic" lengthAdjust="spacing" textLength="31" x="688" y="144.4189">&#171;dart&#187;</text></g><!--entity supabaseClient--><g id="elem_supabaseClient"><ellipse cx="703.5" cy="338.8359" fill="#F1F1F1" rx="12" ry="12" style="stroke:#181818;stroke-width:0.5;"/><polygon fill="#181818" points="699.5,326.8359,705.5,321.8359,703.5,326.8359,705.5,331.8359,699.5,326.8359" style="stroke:#181818;stroke-width:1.0;"/><text fill="#000000" font-family="sans-serif" font-size="11" lengthAdjust="spacing" textLength="75" x="666" y="366.2549">SupabaseClient</text><text fill="#000000" font-family="sans-serif" font-size="11" font-style="italic" lengthAdjust="spacing" textLength="31" x="688" y="320.4189">&#171;dart&#187;</text></g><!--entity addEventViewModel--><g id="elem_addEventViewModel"><ellipse cx="333" cy="81.8359" fill="#F1F1F1" rx="12" ry="12" style="stroke:#181818;stroke-width:0.5;"/><polygon fill="#181818" points="329,69.8359,335,64.8359,333,69.8359,335,74.8359,329,69.8359" style="stroke:#181818;stroke-width:1.0;"/><text fill="#000000" font-family="sans-serif" font-size="11" lengthAdjust="spacing" textLength="101" x="282.5" y="109.2549">AddEventViewModel</text><text fill="#000000" font-family="sans-serif" font-size="11" font-style="italic" lengthAdjust="spacing" textLength="31" x="317.5" y="63.4189">&#171;dart&#187;</text></g><!--entity eventModel--><g id="elem_eventModel"><ellipse cx="703.5" cy="68" fill="#F1F1F1" rx="12" ry="12" style="stroke:#181818;stroke-width:0.5;"/><line style="stroke:#181818;stroke-width:0.5;" x1="691.5" x2="715.5" y1="82" y2="82"/><text fill="#000000" font-family="sans-serif" font-size="11" lengthAdjust="spacing" textLength="55" x="676" y="95.4189">EventModel</text></g><!--entity locationModel--><g id="elem_locationModel"><ellipse cx="703.5" cy="244" fill="#F1F1F1" rx="12" ry="12" style="stroke:#181818;stroke-width:0.5;"/><line style="stroke:#181818;stroke-width:0.5;" x1="691.5" x2="715.5" y1="258" y2="258"/><text fill="#000000" font-family="sans-serif" font-size="11" lengthAdjust="spacing" textLength="69" x="669" y="271.4189">LocationModel</text></g><!--entity UserReg--><g id="elem_UserReg"><ellipse cx="39.5" cy="466.5" fill="#F1F1F1" rx="8" ry="8" style="stroke:#181818;stroke-width:0.5;"/><path d="M39.5,474.5 L39.5,501.5 M26.5,482.5 L52.5,482.5 M39.5,501.5 L26.5,516.5 M39.5,501.5 L52.5,516.5 " fill="none" style="stroke:#181818;stroke-width:0.5;"/><text fill="#000000" font-family="sans-serif" font-size="11" lengthAdjust="spacing" textLength="67" x="6" y="529.4189">Authenticated</text><text fill="#000000" font-family="sans-serif" font-size="11" lengthAdjust="spacing" textLength="23" x="28" y="543.2549">User</text></g><!--link UserReg to addEventView--><g id="link_UserReg_addEventView"><path d="M73.13,502 C91.35,502 108.08,502 126.78,502 " fill="none" id="UserReg-to-addEventView" style="stroke:#181818;stroke-width:1.0;stroke-dasharray:7.0,7.0;"/><polygon fill="#181818" points="132.78,502,123.78,498,127.78,502,123.78,506,132.78,502" style="stroke:#181818;stroke-width:1.0;"/></g><!--link addEventView to addDateView--><g id="link_addEventView_addDateView"><path d="M171.44,532.11 C174.9,599.36 191.01,764.52 266,875 C274.35,887.31 281.944,894.3077 293.904,902.1577 " fill="none" id="addEventView-to-addDateView" style="stroke:#181818;stroke-width:1.0;"/><polygon fill="#181818" points="298.92,905.45,293.5908,897.1675,294.74,902.7064,289.2011,903.8556,298.92,905.45" style="stroke:#181818;stroke-width:1.0;"/></g><!--link addEventView to chooseCategoriesView--><g id="link_addEventView_chooseCategoriesView"><path d="M174.78,532.36 C183.68,586.66 208.37,702.02 266,780 C270.8,786.49 272.1546,788.5985 278.4846,793.9685 " fill="none" id="addEventView-to-chooseCategoriesView" style="stroke:#181818;stroke-width:1.0;"/><polygon fill="#181818" points="283.06,797.85,278.7846,788.9775,279.2472,794.6154,273.6093,795.078,283.06,797.85" style="stroke:#181818;stroke-width:1.0;"/></g><!--link addEventView to widgets--><g id="link_addEventView_widgets"><path d="M180.94,532.16 C195.49,571.09 224.8,639.48 266,687 C271.53,693.38 273.3887,695.6221 280.1987,701.0221 " fill="none" id="addEventView-to-widgets" style="stroke:#181818;stroke-width:1.0;"/><polygon fill="#181818" points="284.9,704.75,280.3333,696.0239,280.9822,701.6434,275.3627,702.2923,284.9,704.75" style="stroke:#181818;stroke-width:1.0;"/></g><!--link addEventView to material--><g id="link_addEventView_material"><path d="M199.55,532.18 C217.96,550.74 242.62,574.59 266,594 C273.25,600.02 276.3843,602.5718 284.2043,608.2818 " fill="none" id="addEventView-to-material" style="stroke:#181818;stroke-width:1.0;"/><polygon fill="#181818" points="289.05,611.82,284.1403,603.2822,285.0119,608.8715,279.4226,609.7431,289.05,611.82" style="stroke:#181818;stroke-width:1.0;"/></g><!--link addEventView to locationPackage--><g id="link_addEventView_locationPackage"><path d="M206.34,512.21 C229.76,518.88 254.8,526.0047 280.05,533.2047 " fill="none" id="addEventView-to-locationPackage" style="stroke:#181818;stroke-width:1.0;"/><polygon fill="#181818" points="285.82,534.85,278.2619,528.5354,281.0117,533.4789,276.0681,536.2287,285.82,534.85" style="stroke:#181818;stroke-width:1.0;"/></g><!--link addEventView to flutterFilePicker--><g id="link_addEventView_flutterFilePicker"><path d="M206.34,491.57 C229.76,484.75 254.8091,477.4669 280.0591,470.1169 " fill="none" id="addEventView-to-flutterFilePicker" style="stroke:#181818;stroke-width:1.0;"/><polygon fill="#181818" points="285.82,468.44,276.0607,467.1148,281.0193,469.8374,278.2966,474.796,285.82,468.44" style="stroke:#181818;stroke-width:1.0;"/></g><!--link addEventView to flutterSound--><g id="link_addEventView_flutterSound"><path d="M198.56,471.87 C216.98,452.74 242.02,427.92 266,408 C272.88,402.29 275.5691,400.0634 283.0491,394.6834 " fill="none" id="addEventView-to-flutterSound" style="stroke:#181818;stroke-width:1.0;"/><polygon fill="#181818" points="287.92,391.18,278.278,393.1878,283.8609,394.0995,282.9492,399.6824,287.92,391.18" style="stroke:#181818;stroke-width:1.0;"/></g><!--link addEventView to permissionHandler--><g id="link_addEventView_permissionHandler"><path d="M180.66,471.79 C195.01,432.41 224.19,362.94 266,315 C271.32,308.89 272.9041,306.8995 279.4641,301.7395 " fill="none" id="addEventView-to-permissionHandler" style="stroke:#181818;stroke-width:1.0;"/><polygon fill="#181818" points="284.18,298.03,274.6332,300.4503,280.2501,301.1212,279.5791,306.7381,284.18,298.03" style="stroke:#181818;stroke-width:1.0;"/></g><!--link addEventView to flutterImagePicker--><g id="link_addEventView_flutterImagePicker"><path d="M174.5,471.74 C183,417.05 207.15,300.16 266,222 C270.62,215.86 271.6845,214.0736 277.7645,209.0236 " fill="none" id="addEventView-to-flutterImagePicker" style="stroke:#181818;stroke-width:1.0;"/><polygon fill="#181818" points="282.38,205.19,272.9009,207.8634,278.5337,208.3847,278.0124,214.0175,282.38,205.19" style="stroke:#181818;stroke-width:1.0;"/></g><!--link addEventView to addEventViewModel--><g id="link_addEventView_addEventViewModel"><path d="M171.37,471.84 C174.66,404.48 190.46,239.1 266,129 C270.46,122.5 271.5666,120.5072 277.6966,115.2472 " fill="none" id="addEventView-to-addEventViewModel" style="stroke:#181818;stroke-width:1.0;"/><polygon fill="#181818" points="282.25,111.34,272.815,114.1652,278.4555,114.596,278.0246,120.2364,282.25,111.34" style="stroke:#181818;stroke-width:1.0;"/></g><!--link addEventViewModel to eventRepository--><g id="link_addEventViewModel_eventRepository"><path d="M383.71,82 C417.62,82 455.88,82 487.2,82 " fill="none" id="addEventViewModel-to-eventRepository" style="stroke:#181818;stroke-width:1.0;"/><polygon fill="#181818" points="493.2,82,484.2,78,488.2,82,484.2,86,493.2,82" style="stroke:#181818;stroke-width:1.0;"/></g><!--link addEventViewModel to locationRepository--><g id="link_addEventViewModel_locationRepository"><path d="M383.71,105.85 C415.21,120.96 450.2401,137.7752 480.9301,152.4952 " fill="none" id="addEventViewModel-to-locationRepository" style="stroke:#181818;stroke-width:1.0;"/><polygon fill="#181818" points="486.34,155.09,479.955,147.5912,481.8317,152.9277,476.4953,154.8044,486.34,155.09" style="stroke:#181818;stroke-width:1.0;"/></g><!--link addEventViewModel to storageService--><g id="link_addEventViewModel_storageService"><path d="M381.31,112.22 C387.94,117.42 394.39,123.07 400,129 C434.32,165.28 425.13,188.26 460,224 C470.28,234.54 478.1842,240.809 490.2642,248.529 " fill="none" id="addEventViewModel-to-storageService" style="stroke:#181818;stroke-width:1.0;"/><polygon fill="#181818" points="495.32,251.76,489.8904,243.543,491.1069,249.0675,485.5824,250.284,495.32,251.76" style="stroke:#181818;stroke-width:1.0;"/></g><!--link eventRepository to apiClient--><g id="link_eventRepository_apiClient"><path d="M572.66,100.58 C606.86,117.02 649.9924,137.7604 676.9924,150.7404 " fill="none" id="eventRepository-to-apiClient" style="stroke:#181818;stroke-width:1.0;"/><polygon fill="#181818" points="682.4,153.34,676.0217,145.8355,677.8937,151.1736,672.5555,153.0456,682.4,153.34" style="stroke:#181818;stroke-width:1.0;"/></g><!--link eventRepository to eventModel--><g id="link_eventRepository_eventModel"><path d="M572.66,80.39 C604.23,79.08 642.0451,77.5081 669.8351,76.3581 " fill="none" id="eventRepository-to-eventModel" style="stroke:#181818;stroke-width:1.0;"/><polygon fill="#181818" points="675.83,76.11,666.6723,72.4855,670.8343,76.3167,667.0031,80.4787,675.83,76.11" style="stroke:#181818;stroke-width:1.0;"/></g><!--link locationRepository to apiClient--><g id="link_locationRepository_apiClient"><path d="M579.6,173.21 C613.13,170.43 651.1005,167.2651 676.3405,165.1751 " fill="none" id="locationRepository-to-apiClient" style="stroke:#181818;stroke-width:1.0;"/><polygon fill="#181818" points="682.32,164.68,673.0206,161.4363,677.3371,165.0926,673.6808,169.4091,682.32,164.68" style="stroke:#181818;stroke-width:1.0;"/></g><!--link locationRepository to locationModel--><g id="link_locationRepository_locationModel"><path d="M579.6,197.03 C607.77,209.4 637.7959,222.5887 663.4059,233.8287 " fill="none" id="locationRepository-to-locationModel" style="stroke:#181818;stroke-width:1.0;"/><polygon fill="#181818" points="668.9,236.24,662.2664,228.9603,664.3216,234.2306,659.0512,236.2858,668.9,236.24" style="stroke:#181818;stroke-width:1.0;"/></g><!--link storageService to supabaseClient--><g id="link_storageService_supabaseClient"><path d="M570.56,286.54 C598.73,297.74 631.9245,310.9332 660.1445,322.1532 " fill="none" id="storageService-to-supabaseClient" style="stroke:#181818;stroke-width:1.0;"/><polygon fill="#181818" points="665.72,324.37,658.8346,317.3279,661.0738,322.5227,655.8789,324.7619,665.72,324.37" style="stroke:#181818;stroke-width:1.0;"/></g><!--link locationPackage to location--><g id="link_locationPackage_location"><path d="M380.17,570.62 C414.23,587.3 454.6817,607.1207 487.0617,622.9807 " fill="none" id="locationPackage-to-location" style="stroke:#181818;stroke-width:1.0;"/><polygon fill="#181818" points="492.45,625.62,486.127,618.0689,487.9597,623.4206,482.608,625.2533,492.45,625.62" style="stroke:#181818;stroke-width:1.0;"/></g><!--link flutterFilePicker to filePicker--><g id="link_flutterFilePicker_filePicker"><path d="M380.17,477.62 C413.54,493.97 452.8419,513.2202 485.0919,529.0202 " fill="none" id="flutterFilePicker-to-filePicker" style="stroke:#181818;stroke-width:1.0;"/><polygon fill="#181818" points="490.48,531.66,484.1577,524.1083,485.9899,529.4602,480.638,531.2924,490.48,531.66" style="stroke:#181818;stroke-width:1.0;"/></g><!--link flutterSound to flutterSoundRecorder--><g id="link_flutterSound_flutterSoundRecorder"><path d="M385.25,387.11 C411.95,400.19 439.3519,413.6102 467.1519,427.2302 " fill="none" id="flutterSound-to-flutterSoundRecorder" style="stroke:#181818;stroke-width:1.0;"/><polygon fill="#181818" points="472.54,429.87,466.2177,422.3183,468.0499,427.6702,462.698,429.5024,472.54,429.87" style="stroke:#181818;stroke-width:1.0;"/></g><!--link flutterImagePicker to imagePicker--><g id="link_flutterImagePicker_imagePicker"><path d="M381.03,205.17 C387.78,210.35 394.33,216.02 400,222 C434.85,258.81 424.59,282.72 460,319 C467.19,326.37 470.8153,329.7526 479.4653,335.7726 " fill="none" id="flutterImagePicker-to-imagePicker" style="stroke:#181818;stroke-width:1.0;"/><polygon fill="#181818" points="484.39,339.2,479.2878,330.7758,480.2861,336.3438,474.718,337.3421,484.39,339.2" style="stroke:#181818;stroke-width:1.0;"/></g><!--SRC=[VLN1Yjim4BthAqJk6pRqLXP3I1ksqCAIj3qLWbQUE2AoPIHvjsdfltUiMB5aMSd1H3FlpOndDC_cB9gMQLPJOoyIyAa5jrqjYRbvIZYoJjhlyDkkfQYQ6XfBEJv0fwYjQknU_06wMX49HqkjebfK9qjBeO5ReHh2k5MQBjQTFM4KmPc5ybVpmu1UK6Pe_sS75I6aPVpCAg17ZL6XAUdJqrPs5XD__B1SFIuVY-8leVXxLLrJCdt1e6Nv-GsZ_XJmxgAnm81yYZ1BYoAbVS8oGfO_vqcRar86DeYhb1PWRcm-umZ3k3XSrQrg-buktaLPWJMEE_n7EE-CLRKt3Da3LetnjM3IqVm1UKFNKe9Ks6eSW2FumylGupkyev1mQ0K_3mCwNcUmHVEBizubNy47qxSjfEzxmprc2xeMnc2DXnDhIZba7ytFL-kz6A96yqpjNthxJF5J_jUvbY5Z8vcP6SdOackoi4CvIj2D7N2boxZIo94F4xoGOule1JrfO3LMAqaNRYzsq2eZS24lZWUnRNhvRrpVc0bT9kPiX3rwiSOzw3V1mR5DPCeorwtOI85rNbVLd_APkfQzCbp8aMGYKpvJ81xVL0aoaHHdJNQxbpLx6Jey4k5sZ52-boDGXXP2_X4oY29TBeieFo6Hm3qy5A5sfSuvQKfHW-Qa3YypgMUY9oaWKOqin5tvr9iiVZP0i0opxOcd5xVmEj0UE5c532gzyHbWVBa9cMwQgytVvLblS7t8pAB50JA0oSsQR9ohCrgDCPF_K8HHIFefS6COPno9_NJ6NjR8Z2hts434o7y0]--></g></svg>