<?xml version="1.0" encoding="us-ascii" standalone="no"?><svg xmlns="http://www.w3.org/2000/svg" xmlns:xlink="http://www.w3.org/1999/xlink" contentStyleType="text/css" height="878px" preserveAspectRatio="none" style="width:962px;height:878px;background:#FFFFFF;" version="1.1" viewBox="0 0 962 878" width="962px" zoomAndPan="magnify"><defs/><g><!--cluster frontend--><g id="cluster_frontend"><polygon fill="none" points="117,6,171,6,178,25.8359,945,25.8359,945,871,117,871,117,6" style="stroke:#000000;stroke-width:1.5;"/><line style="stroke:#000000;stroke-width:1.5;" x1="117" x2="178" y1="25.8359" y2="25.8359"/><text fill="#000000" font-family="sans-serif" font-size="11" font-weight="bold" lengthAdjust="spacing" textLength="48" x="121" y="19.4189">frontend</text><text fill="#000000" font-family="sans-serif" font-size="11" font-style="italic" lengthAdjust="spacing" textLength="77" x="496.5" y="39.2549">&#171;Flutter:3.10.0&#187;</text></g><!--entity addEventView--><g id="elem_addEventView"><path d="M149,433.8359 L149,457.8359 M149,445.8359 L166,445.8359 " fill="none" style="stroke:#181818;stroke-width:0.5;"/><ellipse cx="178" cy="445.8359" fill="#F1F1F1" rx="12" ry="12" style="stroke:#181818;stroke-width:0.5;"/><text fill="#000000" font-family="sans-serif" font-size="11" lengthAdjust="spacing" textLength="73" x="133" y="473.2549">AddEventView</text><text fill="#000000" font-family="sans-serif" font-size="11" font-style="italic" lengthAdjust="spacing" textLength="31" x="154" y="427.4189">&#171;dart&#187;</text></g><!--entity addDateView--><g id="elem_addDateView"><path d="M394,812.8359 L394,836.8359 M394,824.8359 L411,824.8359 " fill="none" style="stroke:#181818;stroke-width:0.5;"/><ellipse cx="423" cy="824.8359" fill="#F1F1F1" rx="12" ry="12" style="stroke:#181818;stroke-width:0.5;"/><text fill="#000000" font-family="sans-serif" font-size="11" lengthAdjust="spacing" textLength="68" x="380.5" y="852.2549">AddDateView</text><text fill="#000000" font-family="sans-serif" font-size="11" font-style="italic" lengthAdjust="spacing" textLength="31" x="399" y="806.4189">&#171;dart&#187;</text></g><!--entity chooseCategoriesView--><g id="elem_chooseCategoriesView"><path d="M394,717.8359 L394,741.8359 M394,729.8359 L411,729.8359 " fill="none" style="stroke:#181818;stroke-width:0.5;"/><ellipse cx="423" cy="729.8359" fill="#F1F1F1" rx="12" ry="12" style="stroke:#181818;stroke-width:0.5;"/><text fill="#000000" font-family="sans-serif" font-size="11" lengthAdjust="spacing" textLength="115" x="357" y="757.2549">ChooseCategoriesView</text><text fill="#000000" font-family="sans-serif" font-size="11" font-style="italic" lengthAdjust="spacing" textLength="31" x="399" y="711.4189">&#171;dart&#187;</text></g><!--entity widgets--><g id="elem_widgets"><rect fill="#F1F1F1" height="43.8359" rx="2.5" ry="2.5" style="stroke:#181818;stroke-width:0.5;" width="165" x="332" y="621"/><rect fill="#F1F1F1" height="10" style="stroke:#181818;stroke-width:0.5;" width="15" x="477" y="626"/><rect fill="#F1F1F1" height="2" style="stroke:#181818;stroke-width:0.5;" width="4" x="475" y="628"/><rect fill="#F1F1F1" height="2" style="stroke:#181818;stroke-width:0.5;" width="4" x="475" y="632"/><text fill="#000000" font-family="sans-serif" font-size="11" lengthAdjust="spacing" textLength="125" x="347" y="652.4189">package:eventify/widgets</text></g><!--entity material--><g id="elem_material"><rect fill="#F1F1F1" height="43.8359" rx="2.5" ry="2.5" style="stroke:#181818;stroke-width:0.5;" width="174" x="327.5" y="542"/><rect fill="#F1F1F1" height="10" style="stroke:#181818;stroke-width:0.5;" width="15" x="481.5" y="547"/><rect fill="#F1F1F1" height="2" style="stroke:#181818;stroke-width:0.5;" width="4" x="479.5" y="549"/><rect fill="#F1F1F1" height="2" style="stroke:#181818;stroke-width:0.5;" width="4" x="479.5" y="553"/><text fill="#000000" font-family="sans-serif" font-size="11" lengthAdjust="spacing" textLength="134" x="342.5" y="573.4189">package:flutter/material.dart</text></g><!--entity locationPackage--><g id="elem_locationPackage"><rect fill="#F1F1F1" height="43.8359" rx="2.5" ry="2.5" style="stroke:#181818;stroke-width:0.5;" width="183" x="323" y="463"/><rect fill="#F1F1F1" height="10" style="stroke:#181818;stroke-width:0.5;" width="15" x="486" y="468"/><rect fill="#F1F1F1" height="2" style="stroke:#181818;stroke-width:0.5;" width="4" x="484" y="470"/><rect fill="#F1F1F1" height="2" style="stroke:#181818;stroke-width:0.5;" width="4" x="484" y="474"/><text fill="#000000" font-family="sans-serif" font-size="11" lengthAdjust="spacing" textLength="143" x="338" y="494.4189">package:location/location.dart</text></g><!--entity flutterFilePicker--><g id="elem_flutterFilePicker"><rect fill="#F1F1F1" height="43.8359" rx="2.5" ry="2.5" style="stroke:#181818;stroke-width:0.5;" width="207" x="311" y="384"/><rect fill="#F1F1F1" height="10" style="stroke:#181818;stroke-width:0.5;" width="15" x="498" y="389"/><rect fill="#F1F1F1" height="2" style="stroke:#181818;stroke-width:0.5;" width="4" x="496" y="391"/><rect fill="#F1F1F1" height="2" style="stroke:#181818;stroke-width:0.5;" width="4" x="496" y="395"/><text fill="#000000" font-family="sans-serif" font-size="11" lengthAdjust="spacing" textLength="167" x="326" y="415.4189">package:file_picker/file_picker.dart</text></g><!--entity flutterSound--><g id="elem_flutterSound"><rect fill="#F1F1F1" height="43.8359" rx="2.5" ry="2.5" style="stroke:#181818;stroke-width:0.5;" width="237" x="296" y="305"/><rect fill="#F1F1F1" height="10" style="stroke:#181818;stroke-width:0.5;" width="15" x="513" y="310"/><rect fill="#F1F1F1" height="2" style="stroke:#181818;stroke-width:0.5;" width="4" x="511" y="312"/><rect fill="#F1F1F1" height="2" style="stroke:#181818;stroke-width:0.5;" width="4" x="511" y="316"/><text fill="#000000" font-family="sans-serif" font-size="11" lengthAdjust="spacing" textLength="197" x="311" y="336.4189">package:flutter_sound/flutter_sound.dart</text></g><!--entity permissionHandler--><g id="elem_permissionHandler"><rect fill="#F1F1F1" height="43.8359" rx="2.5" ry="2.5" style="stroke:#181818;stroke-width:0.5;" width="297" x="266" y="226"/><rect fill="#F1F1F1" height="10" style="stroke:#181818;stroke-width:0.5;" width="15" x="543" y="231"/><rect fill="#F1F1F1" height="2" style="stroke:#181818;stroke-width:0.5;" width="4" x="541" y="233"/><rect fill="#F1F1F1" height="2" style="stroke:#181818;stroke-width:0.5;" width="4" x="541" y="237"/><text fill="#000000" font-family="sans-serif" font-size="11" lengthAdjust="spacing" textLength="257" x="281" y="257.4189">package:permission_handler/permission_handler.dart</text></g><!--entity flutterImagePicker--><g id="elem_flutterImagePicker"><rect fill="#F1F1F1" height="43.8359" rx="2.5" ry="2.5" style="stroke:#181818;stroke-width:0.5;" width="235" x="297" y="147"/><rect fill="#F1F1F1" height="10" style="stroke:#181818;stroke-width:0.5;" width="15" x="512" y="152"/><rect fill="#F1F1F1" height="2" style="stroke:#181818;stroke-width:0.5;" width="4" x="510" y="154"/><rect fill="#F1F1F1" height="2" style="stroke:#181818;stroke-width:0.5;" width="4" x="510" y="158"/><text fill="#000000" font-family="sans-serif" font-size="11" lengthAdjust="spacing" textLength="195" x="312" y="178.4189">package:image_picker/image_picker.dart</text></g><!--entity location--><g id="elem_location"><rect fill="#F1F1F1" height="43.8359" rx="2.5" ry="2.5" style="stroke:#181818;stroke-width:0.5;" width="81" x="655.5" y="669"/><rect fill="#F1F1F1" height="10" style="stroke:#181818;stroke-width:0.5;" width="15" x="716.5" y="674"/><rect fill="#F1F1F1" height="2" style="stroke:#181818;stroke-width:0.5;" width="4" x="714.5" y="676"/><rect fill="#F1F1F1" height="2" style="stroke:#181818;stroke-width:0.5;" width="4" x="714.5" y="680"/><text fill="#000000" font-family="sans-serif" font-size="11" lengthAdjust="spacing" textLength="41" x="670.5" y="700.4189">Location</text></g><!--entity filePicker--><g id="elem_filePicker"><rect fill="#F1F1F1" height="43.8359" rx="2.5" ry="2.5" style="stroke:#181818;stroke-width:0.5;" width="85" x="653.5" y="590"/><rect fill="#F1F1F1" height="10" style="stroke:#181818;stroke-width:0.5;" width="15" x="718.5" y="595"/><rect fill="#F1F1F1" height="2" style="stroke:#181818;stroke-width:0.5;" width="4" x="716.5" y="597"/><rect fill="#F1F1F1" height="2" style="stroke:#181818;stroke-width:0.5;" width="4" x="716.5" y="601"/><text fill="#000000" font-family="sans-serif" font-size="11" lengthAdjust="spacing" textLength="45" x="668.5" y="621.4189">FilePicker</text></g><!--entity flutterSoundRecorder--><g id="elem_flutterSoundRecorder"><rect fill="#F1F1F1" height="43.8359" rx="2.5" ry="2.5" style="stroke:#181818;stroke-width:0.5;" width="146" x="623" y="511"/><rect fill="#F1F1F1" height="10" style="stroke:#181818;stroke-width:0.5;" width="15" x="749" y="516"/><rect fill="#F1F1F1" height="2" style="stroke:#181818;stroke-width:0.5;" width="4" x="747" y="518"/><rect fill="#F1F1F1" height="2" style="stroke:#181818;stroke-width:0.5;" width="4" x="747" y="522"/><text fill="#000000" font-family="sans-serif" font-size="11" lengthAdjust="spacing" textLength="106" x="638" y="542.4189">FlutterSoundRecorder</text></g><!--entity imagePicker--><g id="elem_imagePicker"><rect fill="#F1F1F1" height="43.8359" rx="2.5" ry="2.5" style="stroke:#181818;stroke-width:0.5;" width="97" x="647.5" y="432"/><rect fill="#F1F1F1" height="10" style="stroke:#181818;stroke-width:0.5;" width="15" x="724.5" y="437"/><rect fill="#F1F1F1" height="2" style="stroke:#181818;stroke-width:0.5;" width="4" x="722.5" y="439"/><rect fill="#F1F1F1" height="2" style="stroke:#181818;stroke-width:0.5;" width="4" x="722.5" y="443"/><text fill="#000000" font-family="sans-serif" font-size="11" lengthAdjust="spacing" textLength="57" x="662.5" y="463.4189">ImagePicker</text></g><!--entity eventRepository--><g id="elem_eventRepository"><ellipse cx="696" cy="366.8359" fill="#F1F1F1" rx="12" ry="12" style="stroke:#181818;stroke-width:0.5;"/><polygon fill="#181818" points="692,354.8359,698,349.8359,696,354.8359,698,359.8359,692,354.8359" style="stroke:#181818;stroke-width:1.0;"/><text fill="#000000" font-family="sans-serif" font-size="11" lengthAdjust="spacing" textLength="79" x="656.5" y="394.2549">EventRepository</text><text fill="#000000" font-family="sans-serif" font-size="11" font-style="italic" lengthAdjust="spacing" textLength="31" x="680.5" y="348.4189">&#171;dart&#187;</text></g><!--entity locationRepository--><g id="elem_locationRepository"><ellipse cx="696" cy="271.8359" fill="#F1F1F1" rx="12" ry="12" style="stroke:#181818;stroke-width:0.5;"/><polygon fill="#181818" points="692,259.8359,698,254.8359,696,259.8359,698,264.8359,692,259.8359" style="stroke:#181818;stroke-width:1.0;"/><text fill="#000000" font-family="sans-serif" font-size="11" lengthAdjust="spacing" textLength="93" x="649.5" y="299.2549">LocationRepository</text><text fill="#000000" font-family="sans-serif" font-size="11" font-style="italic" lengthAdjust="spacing" textLength="31" x="680.5" y="253.4189">&#171;dart&#187;</text></g><!--entity storageService--><g id="elem_storageService"><ellipse cx="696" cy="176.8359" fill="#F1F1F1" rx="12" ry="12" style="stroke:#181818;stroke-width:0.5;"/><polygon fill="#181818" points="692,164.8359,698,159.8359,696,164.8359,698,169.8359,692,164.8359" style="stroke:#181818;stroke-width:1.0;"/><text fill="#000000" font-family="sans-serif" font-size="11" lengthAdjust="spacing" textLength="75" x="658.5" y="204.2549">StorageService</text><text fill="#000000" font-family="sans-serif" font-size="11" font-style="italic" lengthAdjust="spacing" textLength="31" x="680.5" y="158.4189">&#171;dart&#187;</text></g><!--entity userProvider--><g id="elem_userProvider"><ellipse cx="696" cy="81.8359" fill="#F1F1F1" rx="12" ry="12" style="stroke:#181818;stroke-width:0.5;"/><polygon fill="#181818" points="692,69.8359,698,64.8359,696,69.8359,698,74.8359,692,69.8359" style="stroke:#181818;stroke-width:1.0;"/><text fill="#000000" font-family="sans-serif" font-size="11" lengthAdjust="spacing" textLength="63" x="664.5" y="109.2549">UserProvider</text><text fill="#000000" font-family="sans-serif" font-size="11" font-style="italic" lengthAdjust="spacing" textLength="31" x="680.5" y="63.4189">&#171;dart&#187;</text></g><!--entity apiClient--><g id="elem_apiClient"><ellipse cx="879" cy="356.8359" fill="#F1F1F1" rx="12" ry="12" style="stroke:#181818;stroke-width:0.5;"/><polygon fill="#181818" points="875,344.8359,881,339.8359,879,344.8359,881,349.8359,875,344.8359" style="stroke:#181818;stroke-width:1.0;"/><text fill="#000000" font-family="sans-serif" font-size="11" lengthAdjust="spacing" textLength="42" x="858" y="384.2549">ApiClient</text><text fill="#000000" font-family="sans-serif" font-size="11" font-style="italic" lengthAdjust="spacing" textLength="31" x="863.5" y="338.4189">&#171;dart&#187;</text></g><!--entity supabaseClient--><g id="elem_supabaseClient"><ellipse cx="879" cy="176.8359" fill="#F1F1F1" rx="12" ry="12" style="stroke:#181818;stroke-width:0.5;"/><polygon fill="#181818" points="875,164.8359,881,159.8359,879,164.8359,881,169.8359,875,164.8359" style="stroke:#181818;stroke-width:1.0;"/><text fill="#000000" font-family="sans-serif" font-size="11" lengthAdjust="spacing" textLength="75" x="841.5" y="204.2549">SupabaseClient</text><text fill="#000000" font-family="sans-serif" font-size="11" font-style="italic" lengthAdjust="spacing" textLength="31" x="863.5" y="158.4189">&#171;dart&#187;</text></g><!--entity addEventViewModel--><g id="elem_addEventViewModel"><ellipse cx="414.5" cy="81.8359" fill="#F1F1F1" rx="12" ry="12" style="stroke:#181818;stroke-width:0.5;"/><polygon fill="#181818" points="410.5,69.8359,416.5,64.8359,414.5,69.8359,416.5,74.8359,410.5,69.8359" style="stroke:#181818;stroke-width:1.0;"/><text fill="#000000" font-family="sans-serif" font-size="11" lengthAdjust="spacing" textLength="101" x="364" y="109.2549">AddEventViewModel</text><text fill="#000000" font-family="sans-serif" font-size="11" font-style="italic" lengthAdjust="spacing" textLength="31" x="399" y="63.4189">&#171;dart&#187;</text></g><!--entity eventModel--><g id="elem_eventModel"><ellipse cx="879" cy="438" fill="#F1F1F1" rx="12" ry="12" style="stroke:#181818;stroke-width:0.5;"/><line style="stroke:#181818;stroke-width:0.5;" x1="867" x2="891" y1="452" y2="452"/><text fill="#000000" font-family="sans-serif" font-size="11" lengthAdjust="spacing" textLength="55" x="851.5" y="465.4189">EventModel</text></g><!--entity locationModel--><g id="elem_locationModel"><ellipse cx="879" cy="262" fill="#F1F1F1" rx="12" ry="12" style="stroke:#181818;stroke-width:0.5;"/><line style="stroke:#181818;stroke-width:0.5;" x1="867" x2="891" y1="276" y2="276"/><text fill="#000000" font-family="sans-serif" font-size="11" lengthAdjust="spacing" textLength="69" x="844.5" y="289.4189">LocationModel</text></g><!--entity supabaseUserModel--><g id="elem_supabaseUserModel"><ellipse cx="879" cy="75" fill="#F1F1F1" rx="12" ry="12" style="stroke:#181818;stroke-width:0.5;"/><line style="stroke:#181818;stroke-width:0.5;" x1="867" x2="891" y1="89" y2="89"/><text fill="#000000" font-family="sans-serif" font-size="11" lengthAdjust="spacing" textLength="100" x="829" y="102.4189">SupabaseUserModel</text></g><!--entity UserReg--><g id="elem_UserReg"><ellipse cx="39.5" cy="410.5" fill="#F1F1F1" rx="8" ry="8" style="stroke:#181818;stroke-width:0.5;"/><path d="M39.5,418.5 L39.5,445.5 M26.5,426.5 L52.5,426.5 M39.5,445.5 L26.5,460.5 M39.5,445.5 L52.5,460.5 " fill="none" style="stroke:#181818;stroke-width:0.5;"/><text fill="#000000" font-family="sans-serif" font-size="11" lengthAdjust="spacing" textLength="67" x="6" y="473.4189">Authenticated</text><text fill="#000000" font-family="sans-serif" font-size="11" lengthAdjust="spacing" textLength="23" x="28" y="487.2549">User</text></g><!--link UserReg to addEventView--><g id="link_UserReg_addEventView"><path d="M73.13,446 C91.35,446 108.08,446 126.78,446 " fill="none" id="UserReg-to-addEventView" style="stroke:#181818;stroke-width:1.0;stroke-dasharray:7.0,7.0;"/><polygon fill="#181818" points="132.78,446,123.78,442,127.78,446,123.78,450,132.78,446" style="stroke:#181818;stroke-width:1.0;"/></g><!--link addEventView to addDateView--><g id="link_addEventView_addDateView"><path d="M170.31,476.16 C171.57,540.42 183.69,691.86 266,777 C296.23,808.27 341.0585,818.5113 374.4385,822.3113 " fill="none" id="addEventView-to-addDateView" style="stroke:#181818;stroke-width:1.0;"/><polygon fill="#181818" points="380.4,822.99,371.9102,817.9977,375.4321,822.4244,371.0053,825.9463,380.4,822.99" style="stroke:#181818;stroke-width:1.0;"/></g><!--link addEventView to chooseCategoriesView--><g id="link_addEventView_chooseCategoriesView"><path d="M174.46,476.31 C182.58,526.22 205.71,625.78 266,682 C290.72,705.05 320.7737,715.8182 350.9837,722.0482 " fill="none" id="addEventView-to-chooseCategoriesView" style="stroke:#181818;stroke-width:1.0;"/><polygon fill="#181818" points="356.86,723.26,348.8534,717.5247,351.963,722.2501,347.2376,725.3598,356.86,723.26" style="stroke:#181818;stroke-width:1.0;"/></g><!--link addEventView to widgets--><g id="link_addEventView_widgets"><path d="M180.91,476.22 C194.76,511.87 222.65,570.41 266,603 C285.09,617.35 303.1788,625.0567 326.1388,630.9567 " fill="none" id="addEventView-to-widgets" style="stroke:#181818;stroke-width:1.0;"/><polygon fill="#181818" points="331.95,632.45,324.2287,626.3359,327.1073,631.2056,322.2377,634.0842,331.95,632.45" style="stroke:#181818;stroke-width:1.0;"/></g><!--link addEventView to material--><g id="link_addEventView_material"><path d="M200.81,476.37 C218.5,492.58 242.01,511.67 266,524 C285,533.77 300.8526,539.7208 321.5826,545.5308 " fill="none" id="addEventView-to-material" style="stroke:#181818;stroke-width:1.0;"/><polygon fill="#181818" points="327.36,547.15,319.7734,540.8696,322.5455,545.8006,317.6144,548.5727,327.36,547.15" style="stroke:#181818;stroke-width:1.0;"/></g><!--link addEventView to locationPackage--><g id="link_addEventView_locationPackage"><path d="M206.09,451.71 C236.74,456.63 276.4058,462.9993 317.0358,469.5193 " fill="none" id="addEventView-to-locationPackage" style="stroke:#181818;stroke-width:1.0;"/><polygon fill="#181818" points="322.96,470.47,314.7075,465.0945,318.0232,469.6778,313.4399,472.9935,322.96,470.47" style="stroke:#181818;stroke-width:1.0;"/></g><!--link addEventView to flutterFilePicker--><g id="link_addEventView_flutterFilePicker"><path d="M206.09,440.14 C233.71,435.59 267.5296,430.024 304.8496,423.884 " fill="none" id="addEventView-to-flutterFilePicker" style="stroke:#181818;stroke-width:1.0;"/><polygon fill="#181818" points="310.77,422.91,301.24,420.4241,305.8363,423.7217,302.5387,428.318,310.77,422.91" style="stroke:#181818;stroke-width:1.0;"/></g><!--link addEventView to flutterSound--><g id="link_addEventView_flutterSound"><path d="M199.4,415.94 C217.17,399.05 241.23,378.83 266,366 C278.82,359.36 287.1615,355.6581 301.3315,350.9881 " fill="none" id="addEventView-to-flutterSound" style="stroke:#181818;stroke-width:1.0;"/><polygon fill="#181818" points="307.03,349.11,297.2302,348.1281,302.2812,350.675,299.7343,355.7261,307.03,349.11" style="stroke:#181818;stroke-width:1.0;"/></g><!--link addEventView to permissionHandler--><g id="link_addEventView_permissionHandler"><path d="M180.53,415.99 C194.15,379.9 221.97,320.07 266,287 C275,280.24 279.5839,277.0568 290.1339,272.4368 " fill="none" id="addEventView-to-permissionHandler" style="stroke:#181818;stroke-width:1.0;"/><polygon fill="#181818" points="295.63,270.03,285.7813,269.9762,291.0499,272.0357,288.9904,277.3043,295.63,270.03" style="stroke:#181818;stroke-width:1.0;"/></g><!--link addEventView to flutterImagePicker--><g id="link_addEventView_flutterImagePicker"><path d="M173.92,415.87 C181.3,365.26 203.45,263.29 266,208 C275.03,200.02 280.0535,196.1354 291.1835,191.0454 " fill="none" id="addEventView-to-flutterImagePicker" style="stroke:#181818;stroke-width:1.0;"/><polygon fill="#181818" points="296.64,188.55,286.7917,188.6554,292.0929,190.6295,290.1189,195.9307,296.64,188.55" style="stroke:#181818;stroke-width:1.0;"/></g><!--link addEventView to addEventViewModel--><g id="link_addEventView_addEventViewModel"><path d="M170.74,415.63 C172.91,353.19 186.77,209.49 266,129 C291.73,102.85 326.0368,92.1866 357.9868,87.0266 " fill="none" id="addEventView-to-addEventViewModel" style="stroke:#181818;stroke-width:1.0;"/><polygon fill="#181818" points="363.91,86.07,354.3874,83.5561,358.974,86.8672,355.6629,91.4538,363.91,86.07" style="stroke:#181818;stroke-width:1.0;"/></g><!--link addEventViewModel to eventRepository--><g id="link_addEventViewModel_eventRepository"><path d="M465.33,86.24 C497.17,91.47 537.19,103.12 563,129 C625.54,191.7 569.81,248.2 623,319 C631.75,330.65 639.1234,337.1777 651.2234,344.7477 " fill="none" id="addEventViewModel-to-eventRepository" style="stroke:#181818;stroke-width:1.0;"/><polygon fill="#181818" points="656.31,347.93,650.8016,339.7656,652.0712,345.2781,646.5586,346.5477,656.31,347.93" style="stroke:#181818;stroke-width:1.0;"/></g><!--link addEventViewModel to locationRepository--><g id="link_addEventViewModel_locationRepository"><path d="M465.34,88.99 C496.01,95.31 534.72,107.14 563,129 C602.51,159.54 588.13,188.26 623,224 C630.76,231.96 635.1214,235.9081 644.4114,242.3581 " fill="none" id="addEventViewModel-to-locationRepository" style="stroke:#181818;stroke-width:1.0;"/><polygon fill="#181818" points="649.34,245.78,644.2284,237.3615,645.2329,242.9284,639.6659,243.9329,649.34,245.78" style="stroke:#181818;stroke-width:1.0;"/></g><!--link addEventViewModel to storageService--><g id="link_addEventViewModel_storageService"><path d="M465.17,97.28 C493.85,106.24 530.57,117.94 563,129 C595.43,140.06 626.3959,151.3496 652.8159,161.1696 " fill="none" id="addEventViewModel-to-storageService" style="stroke:#181818;stroke-width:1.0;"/><polygon fill="#181818" points="658.44,163.26,651.3975,156.375,653.7533,161.518,648.6103,163.8738,658.44,163.26" style="stroke:#181818;stroke-width:1.0;"/></g><!--link addEventViewModel to userProvider--><g id="link_addEventViewModel_userProvider"><path d="M465.15,82 C522.87,82 610.36,82 658.38,82 " fill="none" id="addEventViewModel-to-userProvider" style="stroke:#181818;stroke-width:1.0;"/><polygon fill="#181818" points="664.38,82,655.38,78,659.38,82,655.38,86,664.38,82" style="stroke:#181818;stroke-width:1.0;"/></g><!--link eventRepository to apiClient--><g id="link_eventRepository_apiClient"><path d="M735.83,364.85 C773.22,362.79 822.3291,360.0699 851.7491,358.4499 " fill="none" id="eventRepository-to-apiClient" style="stroke:#181818;stroke-width:1.0;"/><polygon fill="#181818" points="857.74,358.12,848.5337,354.6209,852.7476,358.3949,848.9735,362.6088,857.74,358.12" style="stroke:#181818;stroke-width:1.0;"/></g><!--link eventRepository to eventModel--><g id="link_eventRepository_eventModel"><path d="M735.83,383.73 C770.63,398.73 815.2396,417.956 845.7396,431.096 " fill="none" id="eventRepository-to-eventModel" style="stroke:#181818;stroke-width:1.0;"/><polygon fill="#181818" points="851.25,433.47,844.5671,426.2355,846.658,431.4917,841.4018,433.5826,851.25,433.47" style="stroke:#181818;stroke-width:1.0;"/></g><!--link locationRepository to apiClient--><g id="link_locationRepository_apiClient"><path d="M742.67,293.45 C779.75,310.86 824.8194,332.0188 852.4494,344.9988 " fill="none" id="locationRepository-to-apiClient" style="stroke:#181818;stroke-width:1.0;"/><polygon fill="#181818" points="857.88,347.55,851.4349,340.1028,853.3545,345.424,848.0333,347.3436,857.88,347.55" style="stroke:#181818;stroke-width:1.0;"/></g><!--link locationRepository to locationModel--><g id="link_locationRepository_locationModel"><path d="M742.67,271.24 C774.3,270.72 809.7008,270.1285 838.3408,269.6585 " fill="none" id="locationRepository-to-locationModel" style="stroke:#181818;stroke-width:1.0;"/><polygon fill="#181818" points="844.34,269.56,835.2756,265.7082,839.3407,269.642,835.4068,273.7071,844.34,269.56" style="stroke:#181818;stroke-width:1.0;"/></g><!--link storageService to supabaseClient--><g id="link_storageService_supabaseClient"><path d="M733.63,177 C765.03,177 804.04,177 835.43,177 " fill="none" id="storageService-to-supabaseClient" style="stroke:#181818;stroke-width:1.0;"/><polygon fill="#181818" points="841.43,177,832.43,173,836.43,177,832.43,181,841.43,177" style="stroke:#181818;stroke-width:1.0;"/></g><!--link userProvider to supabaseUserModel--><g id="link_userProvider_supabaseUserModel"><path d="M727.7,82 C755.34,82 790.44,82 822.68,82 " fill="none" id="userProvider-to-supabaseUserModel" style="stroke:#181818;stroke-width:1.0;"/><polygon fill="#181818" points="828.68,82,819.68,78,823.68,82,819.68,86,828.68,82" style="stroke:#181818;stroke-width:1.0;"/></g><!--link locationPackage to location--><g id="link_locationPackage_location"><path d="M506.08,495.85 C526.45,501.67 546.81,510.53 563,524 C610.99,563.93 580.33,605.43 623,651 C631.99,660.6 638.5313,665.6364 649.9913,671.7764 " fill="none" id="locationPackage-to-location" style="stroke:#181818;stroke-width:1.0;"/><polygon fill="#181818" points="655.28,674.61,649.2359,666.8338,650.8727,672.2487,645.4578,673.8855,655.28,674.61" style="stroke:#181818;stroke-width:1.0;"/></g><!--link flutterFilePicker to filePicker--><g id="link_flutterFilePicker_filePicker"><path d="M518.34,420.74 C534.48,426.42 550.07,434.24 563,445 C610.99,484.93 580.33,526.43 623,572 C631.5,581.08 637.283,585.7179 648.153,591.6979 " fill="none" id="flutterFilePicker-to-filePicker" style="stroke:#181818;stroke-width:1.0;"/><polygon fill="#181818" points="653.41,594.59,647.4526,586.7472,649.0292,592.1799,643.5965,593.7566,653.41,594.59" style="stroke:#181818;stroke-width:1.0;"/></g><!--link flutterSound to flutterSoundRecorder--><g id="link_flutterSound_flutterSoundRecorder"><path d="M533.36,347.77 C544.04,352.64 554.14,358.63 563,366 C610.99,405.93 580.33,447.43 623,493 C629.45,499.89 632.2696,502.7039 640.4596,507.8139 " fill="none" id="flutterSound-to-flutterSoundRecorder" style="stroke:#181818;stroke-width:1.0;"/><polygon fill="#181818" points="645.55,510.99,640.0317,502.8323,641.308,508.3433,635.797,509.6195,645.55,510.99" style="stroke:#181818;stroke-width:1.0;"/></g><!--link flutterImagePicker to imagePicker--><g id="link_flutterImagePicker_imagePicker"><path d="M532.09,187.16 C543.48,192.49 554.09,199.31 563,208 C631.26,274.58 563.52,339.47 623,414 C629.51,422.16 633.0301,425.8081 642.0801,431.2981 " fill="none" id="flutterImagePicker-to-imagePicker" style="stroke:#181818;stroke-width:1.0;"/><polygon fill="#181818" points="647.21,434.41,641.5898,426.3222,642.9351,431.8167,637.4405,433.162,647.21,434.41" style="stroke:#181818;stroke-width:1.0;"/></g><!--SRC=[XLJ1Yjim4BthAqJkcspeRLaC8TtGGWiXQNigB5fxueZ8bf7aRDFIV-zOjcB9igWFHffvRpGQpJnzuNN35AkeDZS1-5SyDsqbYBvx2ZYnLfXlyCji12_h2cf3S_o1Yb4xMPiZ_mrqlIO2JeOQIHKlpuOMN45kkAm9ourKTB5fpHcZy9mPA7xMtpMe1MMQTei3b8IGXkKNLW8zAOmATK6VdtUYDNZmquVb-d7vc6L_2CNlJRPrmTGDWnR5onMZ_k3mRgCnpu1yYZ13ioocVSGqV9RRfqdRivGQjeWhfUAWx-nynk67iN5oMJMoxcgv6Exv15sY_7HRlVEY1ADji66TufpwWgmgF4rn9fRT8PReB2cca5XvV8-LMunKPzdtqEJPNC1hm_CBdk-jnpX3SZlqxQthFxTurLrnLy4kYdRihAb03QYAQusvlvvPNGZCB3QD8KVVfzwLYiih_Bkx-fielS-TS_wsNuQo1ZMUWiPYzL6JjTjvvJX0BbNXA3EEATdBqdAub_M0hOsIWYxiz1oWaPhZsDui6aBRT4JkN7VX2Lr4vcI48tenioEeAy_1idLWIZ8x6TahUUMkBArdIB8s3TyAZhVhPS3jqlcr3NjZEEmZIGUcz4cUC7sL1OX8hgmrqerE8injU9UH2FTjW78lC0A5RmcmxYvTvKQydbh9Nq86ZQRBPHQaJ4YWjmyFcI-biNDEAMEKay38SPUuo3DLi0WGIrCAqkjDv8sb8nN0LuIvyeGF7fQmxu4EE9cv12eUhGGmdA84o1yPGgPJRzDt4pBhzPgIp0nz62012FkLJARVNYKOE4A2GVS1OmkJINy49v6eD_hN75l5xuoeLUwI6p-_nVfI-my0]--></g></svg>