<?xml version="1.0" encoding="us-ascii" standalone="no"?><svg xmlns="http://www.w3.org/2000/svg" xmlns:xlink="http://www.w3.org/1999/xlink" contentStyleType="text/css" height="976px" preserveAspectRatio="none" style="width:774px;height:976px;background:#FFFFFF;" version="1.1" viewBox="0 0 774 976" width="774px" zoomAndPan="magnify"><defs/><g><!--cluster frontend--><g id="cluster_frontend"><polygon fill="none" points="117,6,171,6,178,25.8359,757,25.8359,757,969,117,969,117,6" style="stroke:#000000;stroke-width:1.5;"/><line style="stroke:#000000;stroke-width:1.5;" x1="117" x2="178" y1="25.8359" y2="25.8359"/><text fill="#000000" font-family="sans-serif" font-size="11" font-weight="bold" lengthAdjust="spacing" textLength="48" x="121" y="19.4189">frontend</text><text fill="#000000" font-family="sans-serif" font-size="11" font-style="italic" lengthAdjust="spacing" textLength="77" x="402.5" y="39.2549">&#171;Flutter:3.10.0&#187;</text></g><!--entity addEventView--><g id="elem_addEventView"><path d="M149,489.8359 L149,513.8359 M149,501.8359 L166,501.8359 " fill="none" style="stroke:#181818;stroke-width:0.5;"/><ellipse cx="178" cy="501.8359" fill="#F1F1F1" rx="12" ry="12" style="stroke:#181818;stroke-width:0.5;"/><text fill="#000000" font-family="sans-serif" font-size="11" lengthAdjust="spacing" textLength="73" x="133" y="529.2549">AddEventView</text><text fill="#000000" font-family="sans-serif" font-size="11" font-style="italic" lengthAdjust="spacing" textLength="33" x="153" y="483.4189">&#171;Dart&#187;</text></g><!--entity addDateView--><g id="elem_addDateView"><path d="M312.5,910.8359 L312.5,934.8359 M312.5,922.8359 L329.5,922.8359 " fill="none" style="stroke:#181818;stroke-width:0.5;"/><ellipse cx="341.5" cy="922.8359" fill="#F1F1F1" rx="12" ry="12" style="stroke:#181818;stroke-width:0.5;"/><text fill="#000000" font-family="sans-serif" font-size="11" lengthAdjust="spacing" textLength="68" x="299" y="950.2549">AddDateView</text><text fill="#000000" font-family="sans-serif" font-size="11" font-style="italic" lengthAdjust="spacing" textLength="33" x="316.5" y="904.4189">&#171;Dart&#187;</text></g><!--entity chooseCategoriesView--><g id="elem_chooseCategoriesView"><path d="M312.5,815.8359 L312.5,839.8359 M312.5,827.8359 L329.5,827.8359 " fill="none" style="stroke:#181818;stroke-width:0.5;"/><ellipse cx="341.5" cy="827.8359" fill="#F1F1F1" rx="12" ry="12" style="stroke:#181818;stroke-width:0.5;"/><text fill="#000000" font-family="sans-serif" font-size="11" lengthAdjust="spacing" textLength="115" x="275.5" y="855.2549">ChooseCategoriesView</text><text fill="#000000" font-family="sans-serif" font-size="11" font-style="italic" lengthAdjust="spacing" textLength="33" x="316.5" y="809.4189">&#171;Dart&#187;</text></g><!--entity widgets--><g id="elem_widgets"><rect fill="#F1F1F1" height="57.6719" rx="2.5" ry="2.5" style="stroke:#181818;stroke-width:0.5;" width="134" x="266" y="705"/><rect fill="#F1F1F1" height="10" style="stroke:#181818;stroke-width:0.5;" width="15" x="380" y="710"/><rect fill="#F1F1F1" height="2" style="stroke:#181818;stroke-width:0.5;" width="4" x="378" y="712"/><rect fill="#F1F1F1" height="2" style="stroke:#181818;stroke-width:0.5;" width="4" x="378" y="716"/><text fill="#000000" font-family="sans-serif" font-size="11" font-style="italic" lengthAdjust="spacing" textLength="94" x="281" y="736.4189">&#171;Custom Widgets&#187;</text><text fill="#000000" font-family="sans-serif" font-size="11" lengthAdjust="spacing" textLength="39" x="308.5" y="750.2549">widgets</text></g><!--entity material--><g id="elem_material"><rect fill="#F1F1F1" height="57.6719" rx="2.5" ry="2.5" style="stroke:#181818;stroke-width:0.5;" width="95" x="285.5" y="612"/><rect fill="#F1F1F1" height="10" style="stroke:#181818;stroke-width:0.5;" width="15" x="360.5" y="617"/><rect fill="#F1F1F1" height="2" style="stroke:#181818;stroke-width:0.5;" width="4" x="358.5" y="619"/><rect fill="#F1F1F1" height="2" style="stroke:#181818;stroke-width:0.5;" width="4" x="358.5" y="623"/><text fill="#000000" font-family="sans-serif" font-size="11" font-style="italic" lengthAdjust="spacing" textLength="55" x="300.5" y="643.4189">&#171;Package&#187;</text><text fill="#000000" font-family="sans-serif" font-size="11" lengthAdjust="spacing" textLength="37" x="309.5" y="657.2549">material</text></g><!--entity locationPackage--><g id="elem_locationPackage"><rect fill="#F1F1F1" height="57.6719" rx="2.5" ry="2.5" style="stroke:#181818;stroke-width:0.5;" width="95" x="285.5" y="519"/><rect fill="#F1F1F1" height="10" style="stroke:#181818;stroke-width:0.5;" width="15" x="360.5" y="524"/><rect fill="#F1F1F1" height="2" style="stroke:#181818;stroke-width:0.5;" width="4" x="358.5" y="526"/><rect fill="#F1F1F1" height="2" style="stroke:#181818;stroke-width:0.5;" width="4" x="358.5" y="530"/><text fill="#000000" font-family="sans-serif" font-size="11" font-style="italic" lengthAdjust="spacing" textLength="55" x="300.5" y="550.4189">&#171;Package&#187;</text><text fill="#000000" font-family="sans-serif" font-size="11" lengthAdjust="spacing" textLength="37" x="309.5" y="564.2549">location</text></g><!--entity flutterFilePicker--><g id="elem_flutterFilePicker"><rect fill="#F1F1F1" height="57.6719" rx="2.5" ry="2.5" style="stroke:#181818;stroke-width:0.5;" width="95" x="285.5" y="426"/><rect fill="#F1F1F1" height="10" style="stroke:#181818;stroke-width:0.5;" width="15" x="360.5" y="431"/><rect fill="#F1F1F1" height="2" style="stroke:#181818;stroke-width:0.5;" width="4" x="358.5" y="433"/><rect fill="#F1F1F1" height="2" style="stroke:#181818;stroke-width:0.5;" width="4" x="358.5" y="437"/><text fill="#000000" font-family="sans-serif" font-size="11" font-style="italic" lengthAdjust="spacing" textLength="55" x="300.5" y="457.4189">&#171;Package&#187;</text><text fill="#000000" font-family="sans-serif" font-size="11" lengthAdjust="spacing" textLength="49" x="303.5" y="471.2549">file_picker</text></g><!--entity flutterSound--><g id="elem_flutterSound"><rect fill="#F1F1F1" height="57.6719" rx="2.5" ry="2.5" style="stroke:#181818;stroke-width:0.5;" width="104" x="281" y="333"/><rect fill="#F1F1F1" height="10" style="stroke:#181818;stroke-width:0.5;" width="15" x="365" y="338"/><rect fill="#F1F1F1" height="2" style="stroke:#181818;stroke-width:0.5;" width="4" x="363" y="340"/><rect fill="#F1F1F1" height="2" style="stroke:#181818;stroke-width:0.5;" width="4" x="363" y="344"/><text fill="#000000" font-family="sans-serif" font-size="11" font-style="italic" lengthAdjust="spacing" textLength="55" x="300.5" y="364.4189">&#171;Package&#187;</text><text fill="#000000" font-family="sans-serif" font-size="11" lengthAdjust="spacing" textLength="64" x="296" y="378.2549">flutter_sound</text></g><!--entity permissionHandler--><g id="elem_permissionHandler"><rect fill="#F1F1F1" height="57.6719" rx="2.5" ry="2.5" style="stroke:#181818;stroke-width:0.5;" width="134" x="266" y="240"/><rect fill="#F1F1F1" height="10" style="stroke:#181818;stroke-width:0.5;" width="15" x="380" y="245"/><rect fill="#F1F1F1" height="2" style="stroke:#181818;stroke-width:0.5;" width="4" x="378" y="247"/><rect fill="#F1F1F1" height="2" style="stroke:#181818;stroke-width:0.5;" width="4" x="378" y="251"/><text fill="#000000" font-family="sans-serif" font-size="11" font-style="italic" lengthAdjust="spacing" textLength="55" x="300.5" y="271.4189">&#171;Package&#187;</text><text fill="#000000" font-family="sans-serif" font-size="11" lengthAdjust="spacing" textLength="94" x="281" y="285.2549">permission_handler</text></g><!--entity flutterImagePicker--><g id="elem_flutterImagePicker"><rect fill="#F1F1F1" height="57.6719" rx="2.5" ry="2.5" style="stroke:#181818;stroke-width:0.5;" width="103" x="281.5" y="147"/><rect fill="#F1F1F1" height="10" style="stroke:#181818;stroke-width:0.5;" width="15" x="364.5" y="152"/><rect fill="#F1F1F1" height="2" style="stroke:#181818;stroke-width:0.5;" width="4" x="362.5" y="154"/><rect fill="#F1F1F1" height="2" style="stroke:#181818;stroke-width:0.5;" width="4" x="362.5" y="158"/><text fill="#000000" font-family="sans-serif" font-size="11" font-style="italic" lengthAdjust="spacing" textLength="55" x="300.5" y="178.4189">&#171;Package&#187;</text><text fill="#000000" font-family="sans-serif" font-size="11" lengthAdjust="spacing" textLength="63" x="296.5" y="192.2549">image_picker</text></g><!--entity location--><g id="elem_location"><rect fill="#F1F1F1" height="57.6719" rx="2.5" ry="2.5" style="stroke:#181818;stroke-width:0.5;" width="81" x="492.5" y="616"/><rect fill="#F1F1F1" height="10" style="stroke:#181818;stroke-width:0.5;" width="15" x="553.5" y="621"/><rect fill="#F1F1F1" height="2" style="stroke:#181818;stroke-width:0.5;" width="4" x="551.5" y="623"/><rect fill="#F1F1F1" height="2" style="stroke:#181818;stroke-width:0.5;" width="4" x="551.5" y="627"/><text fill="#000000" font-family="sans-serif" font-size="11" font-style="italic" lengthAdjust="spacing" textLength="41" x="507.5" y="647.4189">&#171;Class&#187;</text><text fill="#000000" font-family="sans-serif" font-size="11" lengthAdjust="spacing" textLength="41" x="507.5" y="661.2549">Location</text></g><!--entity filePicker--><g id="elem_filePicker"><rect fill="#F1F1F1" height="57.6719" rx="2.5" ry="2.5" style="stroke:#181818;stroke-width:0.5;" width="85" x="490.5" y="523"/><rect fill="#F1F1F1" height="10" style="stroke:#181818;stroke-width:0.5;" width="15" x="555.5" y="528"/><rect fill="#F1F1F1" height="2" style="stroke:#181818;stroke-width:0.5;" width="4" x="553.5" y="530"/><rect fill="#F1F1F1" height="2" style="stroke:#181818;stroke-width:0.5;" width="4" x="553.5" y="534"/><text fill="#000000" font-family="sans-serif" font-size="11" font-style="italic" lengthAdjust="spacing" textLength="41" x="507.5" y="554.4189">&#171;Class&#187;</text><text fill="#000000" font-family="sans-serif" font-size="11" lengthAdjust="spacing" textLength="45" x="505.5" y="568.2549">FilePicker</text></g><!--entity flutterSoundRecorder--><g id="elem_flutterSoundRecorder"><rect fill="#F1F1F1" height="57.6719" rx="2.5" ry="2.5" style="stroke:#181818;stroke-width:0.5;" width="146" x="460" y="430"/><rect fill="#F1F1F1" height="10" style="stroke:#181818;stroke-width:0.5;" width="15" x="586" y="435"/><rect fill="#F1F1F1" height="2" style="stroke:#181818;stroke-width:0.5;" width="4" x="584" y="437"/><rect fill="#F1F1F1" height="2" style="stroke:#181818;stroke-width:0.5;" width="4" x="584" y="441"/><text fill="#000000" font-family="sans-serif" font-size="11" font-style="italic" lengthAdjust="spacing" textLength="41" x="507.5" y="461.4189">&#171;Class&#187;</text><text fill="#000000" font-family="sans-serif" font-size="11" lengthAdjust="spacing" textLength="106" x="475" y="475.2549">FlutterSoundRecorder</text></g><!--entity imagePicker--><g id="elem_imagePicker"><rect fill="#F1F1F1" height="57.6719" rx="2.5" ry="2.5" style="stroke:#181818;stroke-width:0.5;" width="97" x="484.5" y="337"/><rect fill="#F1F1F1" height="10" style="stroke:#181818;stroke-width:0.5;" width="15" x="561.5" y="342"/><rect fill="#F1F1F1" height="2" style="stroke:#181818;stroke-width:0.5;" width="4" x="559.5" y="344"/><rect fill="#F1F1F1" height="2" style="stroke:#181818;stroke-width:0.5;" width="4" x="559.5" y="348"/><text fill="#000000" font-family="sans-serif" font-size="11" font-style="italic" lengthAdjust="spacing" textLength="41" x="507.5" y="368.4189">&#171;Class&#187;</text><text fill="#000000" font-family="sans-serif" font-size="11" lengthAdjust="spacing" textLength="57" x="499.5" y="382.2549">ImagePicker</text></g><!--entity eventRepository--><g id="elem_eventRepository"><ellipse cx="533" cy="81.8359" fill="#F1F1F1" rx="12" ry="12" style="stroke:#181818;stroke-width:0.5;"/><polygon fill="#181818" points="529,69.8359,535,64.8359,533,69.8359,535,74.8359,529,69.8359" style="stroke:#181818;stroke-width:1.0;"/><text fill="#000000" font-family="sans-serif" font-size="11" lengthAdjust="spacing" textLength="79" x="493.5" y="109.2549">EventRepository</text><text fill="#000000" font-family="sans-serif" font-size="11" font-style="italic" lengthAdjust="spacing" textLength="33" x="516.5" y="63.4189">&#171;Dart&#187;</text></g><!--entity locationRepository--><g id="elem_locationRepository"><ellipse cx="533" cy="176.8359" fill="#F1F1F1" rx="12" ry="12" style="stroke:#181818;stroke-width:0.5;"/><polygon fill="#181818" points="529,164.8359,535,159.8359,533,164.8359,535,169.8359,529,164.8359" style="stroke:#181818;stroke-width:1.0;"/><text fill="#000000" font-family="sans-serif" font-size="11" lengthAdjust="spacing" textLength="93" x="486.5" y="204.2549">LocationRepository</text><text fill="#000000" font-family="sans-serif" font-size="11" font-style="italic" lengthAdjust="spacing" textLength="33" x="516.5" y="158.4189">&#171;Dart&#187;</text></g><!--entity storageService--><g id="elem_storageService"><ellipse cx="533" cy="271.8359" fill="#F1F1F1" rx="12" ry="12" style="stroke:#181818;stroke-width:0.5;"/><polygon fill="#181818" points="529,259.8359,535,254.8359,533,259.8359,535,264.8359,529,259.8359" style="stroke:#181818;stroke-width:1.0;"/><text fill="#000000" font-family="sans-serif" font-size="11" lengthAdjust="spacing" textLength="75" x="495.5" y="299.2549">StorageService</text><text fill="#000000" font-family="sans-serif" font-size="11" font-style="italic" lengthAdjust="spacing" textLength="33" x="516.5" y="253.4189">&#171;Dart&#187;</text></g><!--entity apiClient--><g id="elem_apiClient"><ellipse cx="703.5" cy="176.8359" fill="#F1F1F1" rx="12" ry="12" style="stroke:#181818;stroke-width:0.5;"/><polygon fill="#181818" points="699.5,164.8359,705.5,159.8359,703.5,164.8359,705.5,169.8359,699.5,164.8359" style="stroke:#181818;stroke-width:1.0;"/><text fill="#000000" font-family="sans-serif" font-size="11" lengthAdjust="spacing" textLength="42" x="682.5" y="204.2549">ApiClient</text><text fill="#000000" font-family="sans-serif" font-size="11" font-style="italic" lengthAdjust="spacing" textLength="33" x="687" y="158.4189">&#171;Dart&#187;</text></g><!--entity supabaseClient--><g id="elem_supabaseClient"><ellipse cx="703.5" cy="366.8359" fill="#F1F1F1" rx="12" ry="12" style="stroke:#181818;stroke-width:0.5;"/><polygon fill="#181818" points="699.5,354.8359,705.5,349.8359,703.5,354.8359,705.5,359.8359,699.5,354.8359" style="stroke:#181818;stroke-width:1.0;"/><text fill="#000000" font-family="sans-serif" font-size="11" lengthAdjust="spacing" textLength="75" x="666" y="394.2549">SupabaseClient</text><text fill="#000000" font-family="sans-serif" font-size="11" font-style="italic" lengthAdjust="spacing" textLength="33" x="687" y="348.4189">&#171;Dart&#187;</text></g><!--entity addEventViewModel--><g id="elem_addEventViewModel"><ellipse cx="333" cy="81.8359" fill="#F1F1F1" rx="12" ry="12" style="stroke:#181818;stroke-width:0.5;"/><polygon fill="#181818" points="329,69.8359,335,64.8359,333,69.8359,335,74.8359,329,69.8359" style="stroke:#181818;stroke-width:1.0;"/><text fill="#000000" font-family="sans-serif" font-size="11" lengthAdjust="spacing" textLength="101" x="282.5" y="109.2549">AddEventViewModel</text><text fill="#000000" font-family="sans-serif" font-size="11" font-style="italic" lengthAdjust="spacing" textLength="33" x="316.5" y="63.4189">&#171;Dart&#187;</text></g><!--entity eventModel--><g id="elem_eventModel"><ellipse cx="703.5" cy="81.8359" fill="#F1F1F1" rx="12" ry="12" style="stroke:#181818;stroke-width:0.5;"/><line style="stroke:#181818;stroke-width:0.5;" x1="691.5" x2="715.5" y1="95.8359" y2="95.8359"/><text fill="#000000" font-family="sans-serif" font-size="11" lengthAdjust="spacing" textLength="55" x="676" y="109.2549">EventModel</text><text fill="#000000" font-family="sans-serif" font-size="11" font-style="italic" lengthAdjust="spacing" textLength="33" x="687" y="63.4189">&#171;Dart&#187;</text></g><!--entity locationModel--><g id="elem_locationModel"><ellipse cx="703.5" cy="271.8359" fill="#F1F1F1" rx="12" ry="12" style="stroke:#181818;stroke-width:0.5;"/><line style="stroke:#181818;stroke-width:0.5;" x1="691.5" x2="715.5" y1="285.8359" y2="285.8359"/><text fill="#000000" font-family="sans-serif" font-size="11" lengthAdjust="spacing" textLength="69" x="669" y="299.2549">LocationModel</text><text fill="#000000" font-family="sans-serif" font-size="11" font-style="italic" lengthAdjust="spacing" textLength="33" x="687" y="253.4189">&#171;Dart&#187;</text></g><!--entity UserReg--><g id="elem_UserReg"><ellipse cx="39.5" cy="466.5" fill="#F1F1F1" rx="8" ry="8" style="stroke:#181818;stroke-width:0.5;"/><path d="M39.5,474.5 L39.5,501.5 M26.5,482.5 L52.5,482.5 M39.5,501.5 L26.5,516.5 M39.5,501.5 L52.5,516.5 " fill="none" style="stroke:#181818;stroke-width:0.5;"/><text fill="#000000" font-family="sans-serif" font-size="11" lengthAdjust="spacing" textLength="67" x="6" y="529.4189">Authenticated</text><text fill="#000000" font-family="sans-serif" font-size="11" lengthAdjust="spacing" textLength="23" x="28" y="543.2549">User</text></g><!--link UserReg to addEventView--><g id="link_UserReg_addEventView"><path d="M73.13,502 C91.35,502 108.08,502 126.78,502 " fill="none" id="UserReg-to-addEventView" style="stroke:#181818;stroke-width:1.0;stroke-dasharray:7.0,7.0;"/><polygon fill="#181818" points="132.78,502,123.78,498,127.78,502,123.78,506,132.78,502" style="stroke:#181818;stroke-width:1.0;"/></g><!--link addEventView to addDateView--><g id="link_addEventView_addDateView"><path d="M171.44,532.11 C174.9,599.36 191.01,764.52 266,875 C274.35,887.31 281.944,894.3077 293.904,902.1577 " fill="none" id="addEventView-to-addDateView" style="stroke:#181818;stroke-width:1.0;"/><polygon fill="#181818" points="298.92,905.45,293.5908,897.1675,294.74,902.7064,289.2011,903.8556,298.92,905.45" style="stroke:#181818;stroke-width:1.0;"/></g><!--link addEventView to chooseCategoriesView--><g id="link_addEventView_chooseCategoriesView"><path d="M174.78,532.36 C183.68,586.66 208.37,702.02 266,780 C270.8,786.49 272.1546,788.5985 278.4846,793.9685 " fill="none" id="addEventView-to-chooseCategoriesView" style="stroke:#181818;stroke-width:1.0;"/><polygon fill="#181818" points="283.06,797.85,278.7846,788.9775,279.2472,794.6154,273.6093,795.078,283.06,797.85" style="stroke:#181818;stroke-width:1.0;"/></g><!--link addEventView to widgets--><g id="link_addEventView_widgets"><path d="M180.94,532.16 C195.49,571.09 224.8,639.48 266,687 C271.53,693.38 273.3887,695.6221 280.1987,701.0221 " fill="none" id="addEventView-to-widgets" style="stroke:#181818;stroke-width:1.0;"/><polygon fill="#181818" points="284.9,704.75,280.3333,696.0239,280.9822,701.6434,275.3627,702.2923,284.9,704.75" style="stroke:#181818;stroke-width:1.0;"/></g><!--link addEventView to material--><g id="link_addEventView_material"><path d="M199.55,532.18 C217.96,550.74 242.62,574.59 266,594 C273.25,600.02 276.3843,602.5718 284.2043,608.2818 " fill="none" id="addEventView-to-material" style="stroke:#181818;stroke-width:1.0;"/><polygon fill="#181818" points="289.05,611.82,284.1403,603.2822,285.0119,608.8715,279.4226,609.7431,289.05,611.82" style="stroke:#181818;stroke-width:1.0;"/></g><!--link addEventView to locationPackage--><g id="link_addEventView_locationPackage"><path d="M206.34,512.21 C229.57,518.83 254.3096,525.8659 279.4396,533.0259 " fill="none" id="addEventView-to-locationPackage" style="stroke:#181818;stroke-width:1.0;"/><polygon fill="#181818" points="285.21,534.67,277.6505,528.357,280.4014,533.2999,275.4584,536.0508,285.21,534.67" style="stroke:#181818;stroke-width:1.0;"/></g><!--link addEventView to flutterFilePicker--><g id="link_addEventView_flutterFilePicker"><path d="M206.34,491.57 C229.57,484.81 254.3188,477.6059 279.4488,470.2959 " fill="none" id="addEventView-to-flutterFilePicker" style="stroke:#181818;stroke-width:1.0;"/><polygon fill="#181818" points="285.21,468.62,275.451,467.293,280.409,470.0166,277.6854,474.9746,285.21,468.62" style="stroke:#181818;stroke-width:1.0;"/></g><!--link addEventView to flutterSound--><g id="link_addEventView_flutterSound"><path d="M198.56,471.87 C216.98,452.74 242.02,427.92 266,408 C272.88,402.29 275.5691,400.0634 283.0491,394.6834 " fill="none" id="addEventView-to-flutterSound" style="stroke:#181818;stroke-width:1.0;"/><polygon fill="#181818" points="287.92,391.18,278.278,393.1878,283.8609,394.0995,282.9492,399.6824,287.92,391.18" style="stroke:#181818;stroke-width:1.0;"/></g><!--link addEventView to permissionHandler--><g id="link_addEventView_permissionHandler"><path d="M180.66,471.79 C195.01,432.41 224.19,362.94 266,315 C271.32,308.89 272.9041,306.8995 279.4641,301.7395 " fill="none" id="addEventView-to-permissionHandler" style="stroke:#181818;stroke-width:1.0;"/><polygon fill="#181818" points="284.18,298.03,274.6332,300.4503,280.2501,301.1212,279.5791,306.7381,284.18,298.03" style="stroke:#181818;stroke-width:1.0;"/></g><!--link addEventView to flutterImagePicker--><g id="link_addEventView_flutterImagePicker"><path d="M174.5,471.74 C183,417.05 207.15,300.16 266,222 C270.62,215.86 271.6845,214.0736 277.7645,209.0236 " fill="none" id="addEventView-to-flutterImagePicker" style="stroke:#181818;stroke-width:1.0;"/><polygon fill="#181818" points="282.38,205.19,272.9009,207.8634,278.5337,208.3847,278.0124,214.0175,282.38,205.19" style="stroke:#181818;stroke-width:1.0;"/></g><!--link addEventView to addEventViewModel--><g id="link_addEventView_addEventViewModel"><path d="M171.37,471.84 C174.66,404.48 190.46,239.1 266,129 C270.46,122.5 271.5666,120.5072 277.6966,115.2472 " fill="none" id="addEventView-to-addEventViewModel" style="stroke:#181818;stroke-width:1.0;"/><polygon fill="#181818" points="282.25,111.34,272.815,114.1652,278.4555,114.596,278.0246,120.2364,282.25,111.34" style="stroke:#181818;stroke-width:1.0;"/></g><!--link addEventViewModel to eventRepository--><g id="link_addEventViewModel_eventRepository"><path d="M383.71,82 C417.62,82 455.88,82 487.2,82 " fill="none" id="addEventViewModel-to-eventRepository" style="stroke:#181818;stroke-width:1.0;"/><polygon fill="#181818" points="493.2,82,484.2,78,488.2,82,484.2,86,493.2,82" style="stroke:#181818;stroke-width:1.0;"/></g><!--link addEventViewModel to locationRepository--><g id="link_addEventViewModel_locationRepository"><path d="M383.71,105.85 C415.21,120.96 450.2401,137.7752 480.9301,152.4952 " fill="none" id="addEventViewModel-to-locationRepository" style="stroke:#181818;stroke-width:1.0;"/><polygon fill="#181818" points="486.34,155.09,479.955,147.5912,481.8317,152.9277,476.4953,154.8044,486.34,155.09" style="stroke:#181818;stroke-width:1.0;"/></g><!--link addEventViewModel to storageService--><g id="link_addEventViewModel_storageService"><path d="M381.31,112.22 C387.94,117.42 394.39,123.07 400,129 C434.32,165.28 425.13,188.26 460,224 C470.28,234.54 478.1842,240.809 490.2642,248.529 " fill="none" id="addEventViewModel-to-storageService" style="stroke:#181818;stroke-width:1.0;"/><polygon fill="#181818" points="495.32,251.76,489.8904,243.543,491.1069,249.0675,485.5824,250.284,495.32,251.76" style="stroke:#181818;stroke-width:1.0;"/></g><!--link eventRepository to apiClient--><g id="link_eventRepository_apiClient"><path d="M572.66,103.79 C606.86,123.08 650.1732,147.5037 677.1732,162.7237 " fill="none" id="eventRepository-to-apiClient" style="stroke:#181818;stroke-width:1.0;"/><polygon fill="#181818" points="682.4,165.67,676.5241,157.766,678.0444,163.2147,672.5956,164.735,682.4,165.67" style="stroke:#181818;stroke-width:1.0;"/></g><!--link eventRepository to eventModel--><g id="link_eventRepository_eventModel"><path d="M572.66,82 C604.23,82 642.04,82 669.83,82 " fill="none" id="eventRepository-to-eventModel" style="stroke:#181818;stroke-width:1.0;"/><polygon fill="#181818" points="675.83,82,666.83,78,670.83,82,666.83,86,675.83,82" style="stroke:#181818;stroke-width:1.0;"/></g><!--link locationRepository to apiClient--><g id="link_locationRepository_apiClient"><path d="M579.6,177 C613.13,177 651.08,177 676.32,177 " fill="none" id="locationRepository-to-apiClient" style="stroke:#181818;stroke-width:1.0;"/><polygon fill="#181818" points="682.32,177,673.32,173,677.32,177,673.32,181,682.32,177" style="stroke:#181818;stroke-width:1.0;"/></g><!--link locationRepository to locationModel--><g id="link_locationRepository_locationModel"><path d="M579.6,202.71 C607.77,218.59 638.0627,235.6747 663.6727,250.1047 " fill="none" id="locationRepository-to-locationModel" style="stroke:#181818;stroke-width:1.0;"/><polygon fill="#181818" points="668.9,253.05,663.0226,245.1471,664.5439,250.5955,659.0954,252.1169,668.9,253.05" style="stroke:#181818;stroke-width:1.0;"/></g><!--link storageService to supabaseClient--><g id="link_storageService_supabaseClient"><path d="M570.56,292.61 C598.73,308.49 632.2734,327.4033 660.4934,343.3133 " fill="none" id="storageService-to-supabaseClient" style="stroke:#181818;stroke-width:1.0;"/><polygon fill="#181818" points="665.72,346.26,659.8446,338.3556,661.3645,343.8044,655.9157,345.3244,665.72,346.26" style="stroke:#181818;stroke-width:1.0;"/></g><!--link locationPackage to location--><g id="link_locationPackage_location"><path d="M380.67,570.86 C414.63,587.5 454.7219,607.1403 486.9319,622.9203 " fill="none" id="locationPackage-to-location" style="stroke:#181818;stroke-width:1.0;"/><polygon fill="#181818" points="492.32,625.56,485.9976,618.0084,487.8299,623.3602,482.478,625.1925,492.32,625.56" style="stroke:#181818;stroke-width:1.0;"/></g><!--link flutterFilePicker to filePicker--><g id="link_flutterFilePicker_filePicker"><path d="M380.67,477.86 C413.94,494.16 452.8924,513.2391 484.9624,528.9591 " fill="none" id="flutterFilePicker-to-filePicker" style="stroke:#181818;stroke-width:1.0;"/><polygon fill="#181818" points="490.35,531.6,484.0292,524.047,485.8604,529.3993,480.5081,531.2304,490.35,531.6" style="stroke:#181818;stroke-width:1.0;"/></g><!--link flutterSound to flutterSoundRecorder--><g id="link_flutterSound_flutterSoundRecorder"><path d="M385.25,387.11 C411.95,400.19 439.3519,413.6102 467.1519,427.2302 " fill="none" id="flutterSound-to-flutterSoundRecorder" style="stroke:#181818;stroke-width:1.0;"/><polygon fill="#181818" points="472.54,429.87,466.2177,422.3183,468.0499,427.6702,462.698,429.5024,472.54,429.87" style="stroke:#181818;stroke-width:1.0;"/></g><!--link flutterImagePicker to imagePicker--><g id="link_flutterImagePicker_imagePicker"><path d="M381.03,205.17 C387.78,210.35 394.33,216.02 400,222 C434.85,258.81 424.59,282.72 460,319 C467.19,326.37 470.8153,329.7526 479.4653,335.7726 " fill="none" id="flutterImagePicker-to-imagePicker" style="stroke:#181818;stroke-width:1.0;"/><polygon fill="#181818" points="484.39,339.2,479.2878,330.7758,480.2861,336.3438,474.718,337.3421,484.39,339.2" style="stroke:#181818;stroke-width:1.0;"/></g><!--SRC=[VLLDRzim3BthLmYvDsYmMr4O2D857T01HRAFou10jHb7Y6mPajmk6_RVHyjMB5bMSZ2YHpwI9iLdVUPrmnIhg3ON0VXKF3Tj9OY-MWeuibQOR_3Rh0KlwmfgGtDyW8gzjh8sU_u7w6f511mDDP8gNfuCBRY2t71P4vORgUXYtPeJHk4vCr3yghzhK0lADEt-xA0aX3GiFxCIw55XLAWB-lYu5Qt1n0-VbglxvNsM_IKKVs-ohGkcBXYqA3w_OzGV73viDEO1oATFJ1cQPJ7j2SlmMUwS9crEKchOe5yf5GTzPUSp1Z-CZPFBgf5rryl51ozACDfoX__elccraHNzsGD3TezLONp5cR0qTq3UQz-rc20ajXe7O0dkC7ZVuXsvW4F3y_Cme6C_Wot2hnQzIUwT3xfhcq_VTy0jPWEgubfZZOSJgminP1_Xvnwz5ODN2C_K_gN3PugVyb_cMjRDHZ0zCvAn9NqolqCfYjUD7UHI5M6bWI4TndiXo-R12phImAgDae8kx5xie96Quq9UB0z2R7hvhrpNc0bTH70omXwjMECUr3lFmR9r02MPwuPl1CSw-rLrftIcjc5l31To9Ea0IcVonEEhB414acBHQBSxMJENeSCZ4Qx7QKP7S6qTES97WaJ_21caaYwNML0L8O7itTrblgB5nZd1Yhq6QOeDJdnYoqHbOeT8Iv8kTX5YQoG7oG3UYios9vnfsCA- -vtZP44INl4U91p3Aq_8TFziRUw6prh7IqN8pFg50H8EmIKZPBA7jivWOSPCxlFXHo7n1yAEOPnny0cOpjY97PdHwixNapRo7m00]--></g></svg>