<?xml version="1.0" encoding="us-ascii" standalone="no"?><svg xmlns="http://www.w3.org/2000/svg" xmlns:xlink="http://www.w3.org/1999/xlink" contentStyleType="text/css" height="878px" preserveAspectRatio="none" style="width:937px;height:878px;background:#FFFFFF;" version="1.1" viewBox="0 0 937 878" width="937px" zoomAndPan="magnify"><defs/><g><!--cluster frontend--><g id="cluster_frontend"><polygon fill="none" points="117,6,171,6,178,25.8359,920,25.8359,920,871,117,871,117,6" style="stroke:#000000;stroke-width:1.5;"/><line style="stroke:#000000;stroke-width:1.5;" x1="117" x2="178" y1="25.8359" y2="25.8359"/><text fill="#000000" font-family="sans-serif" font-size="11" font-weight="bold" lengthAdjust="spacing" textLength="48" x="121" y="19.4189">frontend</text><text fill="#000000" font-family="sans-serif" font-size="11" font-style="italic" lengthAdjust="spacing" textLength="77" x="484" y="39.2549">&#171;Flutter:3.10.0&#187;</text></g><!--entity addEventView--><g id="elem_addEventView"><path d="M149,433.8359 L149,457.8359 M149,445.8359 L166,445.8359 " fill="none" style="stroke:#181818;stroke-width:0.5;"/><ellipse cx="178" cy="445.8359" fill="#F1F1F1" rx="12" ry="12" style="stroke:#181818;stroke-width:0.5;"/><text fill="#000000" font-family="sans-serif" font-size="11" lengthAdjust="spacing" textLength="73" x="133" y="473.2549">AddEventView</text><text fill="#000000" font-family="sans-serif" font-size="11" font-style="italic" lengthAdjust="spacing" textLength="31" x="154" y="427.4189">&#171;dart&#187;</text></g><!--entity addDateView--><g id="elem_addDateView"><path d="M394,812.8359 L394,836.8359 M394,824.8359 L411,824.8359 " fill="none" style="stroke:#181818;stroke-width:0.5;"/><ellipse cx="423" cy="824.8359" fill="#F1F1F1" rx="12" ry="12" style="stroke:#181818;stroke-width:0.5;"/><text fill="#000000" font-family="sans-serif" font-size="11" lengthAdjust="spacing" textLength="68" x="380.5" y="852.2549">AddDateView</text><text fill="#000000" font-family="sans-serif" font-size="11" font-style="italic" lengthAdjust="spacing" textLength="31" x="399" y="806.4189">&#171;dart&#187;</text></g><!--entity chooseCategoriesView--><g id="elem_chooseCategoriesView"><path d="M394,717.8359 L394,741.8359 M394,729.8359 L411,729.8359 " fill="none" style="stroke:#181818;stroke-width:0.5;"/><ellipse cx="423" cy="729.8359" fill="#F1F1F1" rx="12" ry="12" style="stroke:#181818;stroke-width:0.5;"/><text fill="#000000" font-family="sans-serif" font-size="11" lengthAdjust="spacing" textLength="115" x="357" y="757.2549">ChooseCategoriesView</text><text fill="#000000" font-family="sans-serif" font-size="11" font-style="italic" lengthAdjust="spacing" textLength="31" x="399" y="711.4189">&#171;dart&#187;</text></g><!--entity widgets--><g id="elem_widgets"><rect fill="#F1F1F1" height="43.8359" rx="2.5" ry="2.5" style="stroke:#181818;stroke-width:0.5;" width="165" x="332" y="621"/><rect fill="#F1F1F1" height="10" style="stroke:#181818;stroke-width:0.5;" width="15" x="477" y="626"/><rect fill="#F1F1F1" height="2" style="stroke:#181818;stroke-width:0.5;" width="4" x="475" y="628"/><rect fill="#F1F1F1" height="2" style="stroke:#181818;stroke-width:0.5;" width="4" x="475" y="632"/><text fill="#000000" font-family="sans-serif" font-size="11" lengthAdjust="spacing" textLength="125" x="347" y="652.4189">package:eventify/widgets</text></g><!--entity material--><g id="elem_material"><rect fill="#F1F1F1" height="43.8359" rx="2.5" ry="2.5" style="stroke:#181818;stroke-width:0.5;" width="174" x="327.5" y="542"/><rect fill="#F1F1F1" height="10" style="stroke:#181818;stroke-width:0.5;" width="15" x="481.5" y="547"/><rect fill="#F1F1F1" height="2" style="stroke:#181818;stroke-width:0.5;" width="4" x="479.5" y="549"/><rect fill="#F1F1F1" height="2" style="stroke:#181818;stroke-width:0.5;" width="4" x="479.5" y="553"/><text fill="#000000" font-family="sans-serif" font-size="11" lengthAdjust="spacing" textLength="134" x="342.5" y="573.4189">package:flutter/material.dart</text></g><!--entity locationPackage--><g id="elem_locationPackage"><rect fill="#F1F1F1" height="43.8359" rx="2.5" ry="2.5" style="stroke:#181818;stroke-width:0.5;" width="183" x="323" y="463"/><rect fill="#F1F1F1" height="10" style="stroke:#181818;stroke-width:0.5;" width="15" x="486" y="468"/><rect fill="#F1F1F1" height="2" style="stroke:#181818;stroke-width:0.5;" width="4" x="484" y="470"/><rect fill="#F1F1F1" height="2" style="stroke:#181818;stroke-width:0.5;" width="4" x="484" y="474"/><text fill="#000000" font-family="sans-serif" font-size="11" lengthAdjust="spacing" textLength="143" x="338" y="494.4189">package:location/location.dart</text></g><!--entity flutterFilePicker--><g id="elem_flutterFilePicker"><rect fill="#F1F1F1" height="43.8359" rx="2.5" ry="2.5" style="stroke:#181818;stroke-width:0.5;" width="207" x="311" y="384"/><rect fill="#F1F1F1" height="10" style="stroke:#181818;stroke-width:0.5;" width="15" x="498" y="389"/><rect fill="#F1F1F1" height="2" style="stroke:#181818;stroke-width:0.5;" width="4" x="496" y="391"/><rect fill="#F1F1F1" height="2" style="stroke:#181818;stroke-width:0.5;" width="4" x="496" y="395"/><text fill="#000000" font-family="sans-serif" font-size="11" lengthAdjust="spacing" textLength="167" x="326" y="415.4189">package:file_picker/file_picker.dart</text></g><!--entity flutterSound--><g id="elem_flutterSound"><rect fill="#F1F1F1" height="43.8359" rx="2.5" ry="2.5" style="stroke:#181818;stroke-width:0.5;" width="237" x="296" y="305"/><rect fill="#F1F1F1" height="10" style="stroke:#181818;stroke-width:0.5;" width="15" x="513" y="310"/><rect fill="#F1F1F1" height="2" style="stroke:#181818;stroke-width:0.5;" width="4" x="511" y="312"/><rect fill="#F1F1F1" height="2" style="stroke:#181818;stroke-width:0.5;" width="4" x="511" y="316"/><text fill="#000000" font-family="sans-serif" font-size="11" lengthAdjust="spacing" textLength="197" x="311" y="336.4189">package:flutter_sound/flutter_sound.dart</text></g><!--entity permissionHandler--><g id="elem_permissionHandler"><rect fill="#F1F1F1" height="43.8359" rx="2.5" ry="2.5" style="stroke:#181818;stroke-width:0.5;" width="297" x="266" y="226"/><rect fill="#F1F1F1" height="10" style="stroke:#181818;stroke-width:0.5;" width="15" x="543" y="231"/><rect fill="#F1F1F1" height="2" style="stroke:#181818;stroke-width:0.5;" width="4" x="541" y="233"/><rect fill="#F1F1F1" height="2" style="stroke:#181818;stroke-width:0.5;" width="4" x="541" y="237"/><text fill="#000000" font-family="sans-serif" font-size="11" lengthAdjust="spacing" textLength="257" x="281" y="257.4189">package:permission_handler/permission_handler.dart</text></g><!--entity flutterImagePicker--><g id="elem_flutterImagePicker"><rect fill="#F1F1F1" height="43.8359" rx="2.5" ry="2.5" style="stroke:#181818;stroke-width:0.5;" width="235" x="297" y="147"/><rect fill="#F1F1F1" height="10" style="stroke:#181818;stroke-width:0.5;" width="15" x="512" y="152"/><rect fill="#F1F1F1" height="2" style="stroke:#181818;stroke-width:0.5;" width="4" x="510" y="154"/><rect fill="#F1F1F1" height="2" style="stroke:#181818;stroke-width:0.5;" width="4" x="510" y="158"/><text fill="#000000" font-family="sans-serif" font-size="11" lengthAdjust="spacing" textLength="195" x="312" y="178.4189">package:image_picker/image_picker.dart</text></g><!--entity location--><g id="elem_location"><rect fill="#F1F1F1" height="43.8359" rx="2.5" ry="2.5" style="stroke:#181818;stroke-width:0.5;" width="81" x="655.5" y="574"/><rect fill="#F1F1F1" height="10" style="stroke:#181818;stroke-width:0.5;" width="15" x="716.5" y="579"/><rect fill="#F1F1F1" height="2" style="stroke:#181818;stroke-width:0.5;" width="4" x="714.5" y="581"/><rect fill="#F1F1F1" height="2" style="stroke:#181818;stroke-width:0.5;" width="4" x="714.5" y="585"/><text fill="#000000" font-family="sans-serif" font-size="11" lengthAdjust="spacing" textLength="41" x="670.5" y="605.4189">Location</text></g><!--entity filePicker--><g id="elem_filePicker"><rect fill="#F1F1F1" height="43.8359" rx="2.5" ry="2.5" style="stroke:#181818;stroke-width:0.5;" width="85" x="653.5" y="495"/><rect fill="#F1F1F1" height="10" style="stroke:#181818;stroke-width:0.5;" width="15" x="718.5" y="500"/><rect fill="#F1F1F1" height="2" style="stroke:#181818;stroke-width:0.5;" width="4" x="716.5" y="502"/><rect fill="#F1F1F1" height="2" style="stroke:#181818;stroke-width:0.5;" width="4" x="716.5" y="506"/><text fill="#000000" font-family="sans-serif" font-size="11" lengthAdjust="spacing" textLength="45" x="668.5" y="526.4189">FilePicker</text></g><!--entity flutterSoundRecorder--><g id="elem_flutterSoundRecorder"><rect fill="#F1F1F1" height="43.8359" rx="2.5" ry="2.5" style="stroke:#181818;stroke-width:0.5;" width="146" x="623" y="416"/><rect fill="#F1F1F1" height="10" style="stroke:#181818;stroke-width:0.5;" width="15" x="749" y="421"/><rect fill="#F1F1F1" height="2" style="stroke:#181818;stroke-width:0.5;" width="4" x="747" y="423"/><rect fill="#F1F1F1" height="2" style="stroke:#181818;stroke-width:0.5;" width="4" x="747" y="427"/><text fill="#000000" font-family="sans-serif" font-size="11" lengthAdjust="spacing" textLength="106" x="638" y="447.4189">FlutterSoundRecorder</text></g><!--entity imagePicker--><g id="elem_imagePicker"><rect fill="#F1F1F1" height="43.8359" rx="2.5" ry="2.5" style="stroke:#181818;stroke-width:0.5;" width="97" x="647.5" y="337"/><rect fill="#F1F1F1" height="10" style="stroke:#181818;stroke-width:0.5;" width="15" x="724.5" y="342"/><rect fill="#F1F1F1" height="2" style="stroke:#181818;stroke-width:0.5;" width="4" x="722.5" y="344"/><rect fill="#F1F1F1" height="2" style="stroke:#181818;stroke-width:0.5;" width="4" x="722.5" y="348"/><text fill="#000000" font-family="sans-serif" font-size="11" lengthAdjust="spacing" textLength="57" x="662.5" y="368.4189">ImagePicker</text></g><!--entity eventRepository--><g id="elem_eventRepository"><ellipse cx="696" cy="81.8359" fill="#F1F1F1" rx="12" ry="12" style="stroke:#181818;stroke-width:0.5;"/><polygon fill="#181818" points="692,69.8359,698,64.8359,696,69.8359,698,74.8359,692,69.8359" style="stroke:#181818;stroke-width:1.0;"/><text fill="#000000" font-family="sans-serif" font-size="11" lengthAdjust="spacing" textLength="79" x="656.5" y="109.2549">EventRepository</text><text fill="#000000" font-family="sans-serif" font-size="11" font-style="italic" lengthAdjust="spacing" textLength="31" x="680.5" y="63.4189">&#171;dart&#187;</text></g><!--entity locationRepository--><g id="elem_locationRepository"><ellipse cx="696" cy="176.8359" fill="#F1F1F1" rx="12" ry="12" style="stroke:#181818;stroke-width:0.5;"/><polygon fill="#181818" points="692,164.8359,698,159.8359,696,164.8359,698,169.8359,692,164.8359" style="stroke:#181818;stroke-width:1.0;"/><text fill="#000000" font-family="sans-serif" font-size="11" lengthAdjust="spacing" textLength="93" x="649.5" y="204.2549">LocationRepository</text><text fill="#000000" font-family="sans-serif" font-size="11" font-style="italic" lengthAdjust="spacing" textLength="31" x="680.5" y="158.4189">&#171;dart&#187;</text></g><!--entity storageService--><g id="elem_storageService"><ellipse cx="696" cy="271.8359" fill="#F1F1F1" rx="12" ry="12" style="stroke:#181818;stroke-width:0.5;"/><polygon fill="#181818" points="692,259.8359,698,254.8359,696,259.8359,698,264.8359,692,259.8359" style="stroke:#181818;stroke-width:1.0;"/><text fill="#000000" font-family="sans-serif" font-size="11" lengthAdjust="spacing" textLength="75" x="658.5" y="299.2549">StorageService</text><text fill="#000000" font-family="sans-serif" font-size="11" font-style="italic" lengthAdjust="spacing" textLength="31" x="680.5" y="253.4189">&#171;dart&#187;</text></g><!--entity apiClient--><g id="elem_apiClient"><ellipse cx="866.5" cy="162.8359" fill="#F1F1F1" rx="12" ry="12" style="stroke:#181818;stroke-width:0.5;"/><polygon fill="#181818" points="862.5,150.8359,868.5,145.8359,866.5,150.8359,868.5,155.8359,862.5,150.8359" style="stroke:#181818;stroke-width:1.0;"/><text fill="#000000" font-family="sans-serif" font-size="11" lengthAdjust="spacing" textLength="42" x="845.5" y="190.2549">ApiClient</text><text fill="#000000" font-family="sans-serif" font-size="11" font-style="italic" lengthAdjust="spacing" textLength="31" x="851" y="144.4189">&#171;dart&#187;</text></g><!--entity supabaseClient--><g id="elem_supabaseClient"><ellipse cx="866.5" cy="338.8359" fill="#F1F1F1" rx="12" ry="12" style="stroke:#181818;stroke-width:0.5;"/><polygon fill="#181818" points="862.5,326.8359,868.5,321.8359,866.5,326.8359,868.5,331.8359,862.5,326.8359" style="stroke:#181818;stroke-width:1.0;"/><text fill="#000000" font-family="sans-serif" font-size="11" lengthAdjust="spacing" textLength="75" x="829" y="366.2549">SupabaseClient</text><text fill="#000000" font-family="sans-serif" font-size="11" font-style="italic" lengthAdjust="spacing" textLength="31" x="851" y="320.4189">&#171;dart&#187;</text></g><!--entity addEventViewModel--><g id="elem_addEventViewModel"><ellipse cx="414.5" cy="81.8359" fill="#F1F1F1" rx="12" ry="12" style="stroke:#181818;stroke-width:0.5;"/><polygon fill="#181818" points="410.5,69.8359,416.5,64.8359,414.5,69.8359,416.5,74.8359,410.5,69.8359" style="stroke:#181818;stroke-width:1.0;"/><text fill="#000000" font-family="sans-serif" font-size="11" lengthAdjust="spacing" textLength="101" x="364" y="109.2549">AddEventViewModel</text><text fill="#000000" font-family="sans-serif" font-size="11" font-style="italic" lengthAdjust="spacing" textLength="31" x="399" y="63.4189">&#171;dart&#187;</text></g><!--entity eventModel--><g id="elem_eventModel"><ellipse cx="866.5" cy="68" fill="#F1F1F1" rx="12" ry="12" style="stroke:#181818;stroke-width:0.5;"/><line style="stroke:#181818;stroke-width:0.5;" x1="854.5" x2="878.5" y1="82" y2="82"/><text fill="#000000" font-family="sans-serif" font-size="11" lengthAdjust="spacing" textLength="55" x="839" y="95.4189">EventModel</text></g><!--entity locationModel--><g id="elem_locationModel"><ellipse cx="866.5" cy="244" fill="#F1F1F1" rx="12" ry="12" style="stroke:#181818;stroke-width:0.5;"/><line style="stroke:#181818;stroke-width:0.5;" x1="854.5" x2="878.5" y1="258" y2="258"/><text fill="#000000" font-family="sans-serif" font-size="11" lengthAdjust="spacing" textLength="69" x="832" y="271.4189">LocationModel</text></g><!--entity UserReg--><g id="elem_UserReg"><ellipse cx="39.5" cy="410.5" fill="#F1F1F1" rx="8" ry="8" style="stroke:#181818;stroke-width:0.5;"/><path d="M39.5,418.5 L39.5,445.5 M26.5,426.5 L52.5,426.5 M39.5,445.5 L26.5,460.5 M39.5,445.5 L52.5,460.5 " fill="none" style="stroke:#181818;stroke-width:0.5;"/><text fill="#000000" font-family="sans-serif" font-size="11" lengthAdjust="spacing" textLength="67" x="6" y="473.4189">Authenticated</text><text fill="#000000" font-family="sans-serif" font-size="11" lengthAdjust="spacing" textLength="23" x="28" y="487.2549">User</text></g><!--link UserReg to addEventView--><g id="link_UserReg_addEventView"><path d="M73.13,446 C91.35,446 108.08,446 126.78,446 " fill="none" id="UserReg-to-addEventView" style="stroke:#181818;stroke-width:1.0;stroke-dasharray:7.0,7.0;"/><polygon fill="#181818" points="132.78,446,123.78,442,127.78,446,123.78,450,132.78,446" style="stroke:#181818;stroke-width:1.0;"/></g><!--link addEventView to addDateView--><g id="link_addEventView_addDateView"><path d="M170.31,476.16 C171.57,540.42 183.69,691.86 266,777 C296.23,808.27 341.0585,818.5113 374.4385,822.3113 " fill="none" id="addEventView-to-addDateView" style="stroke:#181818;stroke-width:1.0;"/><polygon fill="#181818" points="380.4,822.99,371.9102,817.9977,375.4321,822.4244,371.0053,825.9463,380.4,822.99" style="stroke:#181818;stroke-width:1.0;"/></g><!--link addEventView to chooseCategoriesView--><g id="link_addEventView_chooseCategoriesView"><path d="M174.46,476.31 C182.58,526.22 205.71,625.78 266,682 C290.72,705.05 320.7737,715.8182 350.9837,722.0482 " fill="none" id="addEventView-to-chooseCategoriesView" style="stroke:#181818;stroke-width:1.0;"/><polygon fill="#181818" points="356.86,723.26,348.8534,717.5247,351.963,722.2501,347.2376,725.3598,356.86,723.26" style="stroke:#181818;stroke-width:1.0;"/></g><!--link addEventView to widgets--><g id="link_addEventView_widgets"><path d="M180.91,476.22 C194.76,511.87 222.65,570.41 266,603 C285.09,617.35 303.1788,625.0567 326.1388,630.9567 " fill="none" id="addEventView-to-widgets" style="stroke:#181818;stroke-width:1.0;"/><polygon fill="#181818" points="331.95,632.45,324.2287,626.3359,327.1073,631.2056,322.2377,634.0842,331.95,632.45" style="stroke:#181818;stroke-width:1.0;"/></g><!--link addEventView to material--><g id="link_addEventView_material"><path d="M200.81,476.37 C218.5,492.58 242.01,511.67 266,524 C285,533.77 300.8526,539.7208 321.5826,545.5308 " fill="none" id="addEventView-to-material" style="stroke:#181818;stroke-width:1.0;"/><polygon fill="#181818" points="327.36,547.15,319.7734,540.8696,322.5455,545.8006,317.6144,548.5727,327.36,547.15" style="stroke:#181818;stroke-width:1.0;"/></g><!--link addEventView to locationPackage--><g id="link_addEventView_locationPackage"><path d="M206.09,451.71 C236.74,456.63 276.4058,462.9993 317.0358,469.5193 " fill="none" id="addEventView-to-locationPackage" style="stroke:#181818;stroke-width:1.0;"/><polygon fill="#181818" points="322.96,470.47,314.7075,465.0945,318.0232,469.6778,313.4399,472.9935,322.96,470.47" style="stroke:#181818;stroke-width:1.0;"/></g><!--link addEventView to flutterFilePicker--><g id="link_addEventView_flutterFilePicker"><path d="M206.09,440.14 C233.71,435.59 267.5296,430.024 304.8496,423.884 " fill="none" id="addEventView-to-flutterFilePicker" style="stroke:#181818;stroke-width:1.0;"/><polygon fill="#181818" points="310.77,422.91,301.24,420.4241,305.8363,423.7217,302.5387,428.318,310.77,422.91" style="stroke:#181818;stroke-width:1.0;"/></g><!--link addEventView to flutterSound--><g id="link_addEventView_flutterSound"><path d="M199.4,415.94 C217.17,399.05 241.23,378.83 266,366 C278.82,359.36 287.1615,355.6581 301.3315,350.9881 " fill="none" id="addEventView-to-flutterSound" style="stroke:#181818;stroke-width:1.0;"/><polygon fill="#181818" points="307.03,349.11,297.2302,348.1281,302.2812,350.675,299.7343,355.7261,307.03,349.11" style="stroke:#181818;stroke-width:1.0;"/></g><!--link addEventView to permissionHandler--><g id="link_addEventView_permissionHandler"><path d="M180.53,415.99 C194.15,379.9 221.97,320.07 266,287 C275,280.24 279.5839,277.0568 290.1339,272.4368 " fill="none" id="addEventView-to-permissionHandler" style="stroke:#181818;stroke-width:1.0;"/><polygon fill="#181818" points="295.63,270.03,285.7813,269.9762,291.0499,272.0357,288.9904,277.3043,295.63,270.03" style="stroke:#181818;stroke-width:1.0;"/></g><!--link addEventView to flutterImagePicker--><g id="link_addEventView_flutterImagePicker"><path d="M173.92,415.87 C181.3,365.26 203.45,263.29 266,208 C275.03,200.02 280.0535,196.1354 291.1835,191.0454 " fill="none" id="addEventView-to-flutterImagePicker" style="stroke:#181818;stroke-width:1.0;"/><polygon fill="#181818" points="296.64,188.55,286.7917,188.6554,292.0929,190.6295,290.1189,195.9307,296.64,188.55" style="stroke:#181818;stroke-width:1.0;"/></g><!--link addEventView to addEventViewModel--><g id="link_addEventView_addEventViewModel"><path d="M170.74,415.63 C172.91,353.19 186.77,209.49 266,129 C291.73,102.85 326.0368,92.1866 357.9868,87.0266 " fill="none" id="addEventView-to-addEventViewModel" style="stroke:#181818;stroke-width:1.0;"/><polygon fill="#181818" points="363.91,86.07,354.3874,83.5561,358.974,86.8672,355.6629,91.4538,363.91,86.07" style="stroke:#181818;stroke-width:1.0;"/></g><!--link addEventViewModel to eventRepository--><g id="link_addEventViewModel_eventRepository"><path d="M465.15,82 C519.74,82 600.31,82 650.16,82 " fill="none" id="addEventViewModel-to-eventRepository" style="stroke:#181818;stroke-width:1.0;"/><polygon fill="#181818" points="656.16,82,647.16,78,651.16,82,647.16,86,656.16,82" style="stroke:#181818;stroke-width:1.0;"/></g><!--link addEventViewModel to locationRepository--><g id="link_addEventViewModel_locationRepository"><path d="M465.17,97.28 C493.85,106.24 530.57,117.94 563,129 C591.85,138.84 618.3724,148.4291 643.7124,157.7991 " fill="none" id="addEventViewModel-to-locationRepository" style="stroke:#181818;stroke-width:1.0;"/><polygon fill="#181818" points="649.34,159.88,642.2859,153.0069,644.6503,158.1459,639.5113,160.5103,649.34,159.88" style="stroke:#181818;stroke-width:1.0;"/></g><!--link addEventViewModel to storageService--><g id="link_addEventViewModel_storageService"><path d="M465.34,88.99 C496.01,95.31 534.72,107.14 563,129 C602.51,159.54 588.13,188.26 623,224 C633.28,234.54 641.1842,240.809 653.2642,248.529 " fill="none" id="addEventViewModel-to-storageService" style="stroke:#181818;stroke-width:1.0;"/><polygon fill="#181818" points="658.32,251.76,652.8904,243.543,654.1069,249.0675,648.5824,250.284,658.32,251.76" style="stroke:#181818;stroke-width:1.0;"/></g><!--link eventRepository to apiClient--><g id="link_eventRepository_apiClient"><path d="M735.66,100.58 C769.86,117.02 812.9924,137.7604 839.9924,150.7404 " fill="none" id="eventRepository-to-apiClient" style="stroke:#181818;stroke-width:1.0;"/><polygon fill="#181818" points="845.4,153.34,839.0217,145.8355,840.8937,151.1736,835.5555,153.0456,845.4,153.34" style="stroke:#181818;stroke-width:1.0;"/></g><!--link eventRepository to eventModel--><g id="link_eventRepository_eventModel"><path d="M735.66,80.39 C767.23,79.08 805.0451,77.5081 832.8351,76.3581 " fill="none" id="eventRepository-to-eventModel" style="stroke:#181818;stroke-width:1.0;"/><polygon fill="#181818" points="838.83,76.11,829.6723,72.4855,833.8343,76.3167,830.0031,80.4787,838.83,76.11" style="stroke:#181818;stroke-width:1.0;"/></g><!--link locationRepository to apiClient--><g id="link_locationRepository_apiClient"><path d="M742.6,173.21 C776.13,170.43 814.1005,167.2651 839.3405,165.1751 " fill="none" id="locationRepository-to-apiClient" style="stroke:#181818;stroke-width:1.0;"/><polygon fill="#181818" points="845.32,164.68,836.0206,161.4363,840.3371,165.0926,836.6808,169.4091,845.32,164.68" style="stroke:#181818;stroke-width:1.0;"/></g><!--link locationRepository to locationModel--><g id="link_locationRepository_locationModel"><path d="M742.6,197.03 C770.77,209.4 800.7959,222.5887 826.4059,233.8287 " fill="none" id="locationRepository-to-locationModel" style="stroke:#181818;stroke-width:1.0;"/><polygon fill="#181818" points="831.9,236.24,825.2664,228.9603,827.3216,234.2306,822.0512,236.2858,831.9,236.24" style="stroke:#181818;stroke-width:1.0;"/></g><!--link storageService to supabaseClient--><g id="link_storageService_supabaseClient"><path d="M733.56,286.54 C761.73,297.74 794.9245,310.9332 823.1445,322.1532 " fill="none" id="storageService-to-supabaseClient" style="stroke:#181818;stroke-width:1.0;"/><polygon fill="#181818" points="828.72,324.37,821.8346,317.3279,824.0738,322.5227,818.8789,324.7619,828.72,324.37" style="stroke:#181818;stroke-width:1.0;"/></g><!--link locationPackage to location--><g id="link_locationPackage_location"><path d="M506.32,505.33 C525.32,510.6 545.04,516.85 563,524 C567.85,525.93 612.9467,550.6713 650.0267,571.1313 " fill="none" id="locationPackage-to-location" style="stroke:#181818;stroke-width:1.0;"/><polygon fill="#181818" points="655.28,574.03,649.3324,566.1797,650.9022,571.6144,645.4675,573.1842,655.28,574.03" style="stroke:#181818;stroke-width:1.0;"/></g><!--link flutterFilePicker to filePicker--><g id="link_flutterFilePicker_filePicker"><path d="M512.59,428.1 C529.62,432.98 547,438.63 563,445 C567.84,446.93 612.6368,471.5011 649.6768,491.9411 " fill="none" id="flutterFilePicker-to-filePicker" style="stroke:#181818;stroke-width:1.0;"/><polygon fill="#181818" points="654.93,494.84,648.9828,486.9895,650.5523,492.4242,645.1176,493.9938,654.93,494.84" style="stroke:#181818;stroke-width:1.0;"/></g><!--link flutterSound to flutterSoundRecorder--><g id="link_flutterSound_flutterSoundRecorder"><path d="M512.59,349.1 C529.62,353.98 547,359.63 563,366 C567.84,367.93 612.6368,392.5011 649.6768,412.9411 " fill="none" id="flutterSound-to-flutterSoundRecorder" style="stroke:#181818;stroke-width:1.0;"/><polygon fill="#181818" points="654.93,415.84,648.9828,407.9895,650.5523,413.4242,645.1176,414.9938,654.93,415.84" style="stroke:#181818;stroke-width:1.0;"/></g><!--link flutterImagePicker to imagePicker--><g id="link_flutterImagePicker_imagePicker"><path d="M532.21,189.95 C543.24,194.78 553.74,200.71 563,208 C607.07,242.69 583.58,279.12 623,319 C630.04,326.12 633.4744,329.2275 642.2144,334.5075 " fill="none" id="flutterImagePicker-to-imagePicker" style="stroke:#181818;stroke-width:1.0;"/><polygon fill="#181818" points="647.35,337.61,641.7149,329.5325,643.0703,335.0246,637.5783,336.38,647.35,337.61" style="stroke:#181818;stroke-width:1.0;"/></g><!--SRC=[XLHDYzim4BthLuZSDzdGsx8OGhgXXHQMfEsfi6YjYICYMqQITvkM_lUEvI_9icWEmPfvxyreHZFcAggQQLPIOsyIy5-Bt3Qb96RqS3YpHjflyClkf2Yg4YfBS_m37QCEgh8dyHleTaiad2srYcfHN2pbGaDkXQe8owtITBLhx0LLHCuiy9_LTmDwHPcXxSSH2a98pV8hAu2UDQf2nUdZuq4s5WC_V5XlxzVtMVQ7KFozggRYJDzGbFEdDrJz8U3TgJ7FW7oAC4kpBAPzn3Hyrd1Ea_ONfGpi4LSeBS2Cx7p1uSiudLoLjQhQMgxwUpv0cwWutpRlWXTWZHFhlrESSrUGJOdHj61otGPnnC6IOag5bST-R8QFYJfOdZjeChQGy5AB_8hnlUz9fq_kWBvdv_hFBLvCMznDS8hKJgqr9LI3BeKncFlBXLLSOcQnQPASV9ywLqfNbFW_tDK_HEbzRftBj_tIbpMeyHmq5QjJJTRku9NZ2BdIVA0iEEPaBql74LxMFRQoMacwSjDpX5ePWMDxSsW8RVCH6Rd3XMTq6PcJ2YVqOcOdq6yY1ySsWId9tDLYBmNcsGtqS4f7Qchsod1i9v89JEb8tehvgZZ8QF4uQxG1sc6tjxx24n76Ou0QQZa1fMyXv2yX_UgawtKMn2SaM8DtTvc_uMBdqWABKSDcYXpZveayyyKI0UADaO9qQo3onXET4l07TQayOVV24dODRO6pKKYWuXUV08QFcv3vfBdSXhUywFMU3raOj50W0PYzhDd4kJo3qPWYzOqDL4ZKrAuDKu_zbaOz7bTOt3U7zLVNFm00]--></g></svg>