<?xml version="1.0" encoding="us-ascii" standalone="no"?><svg xmlns="http://www.w3.org/2000/svg" xmlns:xlink="http://www.w3.org/1999/xlink" contentStyleType="text/css" height="2445px" preserveAspectRatio="none" style="width:1555px;height:2445px;background:#FFFFFF;" version="1.1" viewBox="0 0 1555 2445" width="1555px" zoomAndPan="magnify"><defs/><g><rect fill="#FFFFFF" height="2283.3828" style="stroke:#181818;stroke-width:1.0;" width="10" x="203.5" y="145.3438"/><rect fill="#FFFFFF" height="1503.9766" style="stroke:#181818;stroke-width:1.0;" width="10" x="306.5" y="881.9141"/><rect fill="#FFFFFF" height="539.7188" style="stroke:#181818;stroke-width:1.0;" width="10" x="412.5" y="1818.3359"/><rect fill="#FFFFFF" height="484.0469" style="stroke:#181818;stroke-width:1.0;" width="10" x="514.5" y="1243.7813"/><rect fill="#FFFFFF" height="139.1797" style="stroke:#181818;stroke-width:1.0;" width="10" x="614.5" y="909.75"/><rect fill="#FFFFFF" height="139.1797" style="stroke:#181818;stroke-width:1.0;" width="10" x="614.5" y="1076.7656"/><rect fill="#FFFFFF" height="400.5391" style="stroke:#181818;stroke-width:1.0;" width="10" x="689" y="1271.6172"/><rect fill="#FFFFFF" height="456.2109" style="stroke:#181818;stroke-width:1.0;" width="10" x="689" y="1846.1719"/><rect fill="#FFFFFF" height="83.5078" style="stroke:#181818;stroke-width:1.0;" width="10" x="858.5" y="937.5859"/><rect fill="#FFFFFF" height="83.5078" style="stroke:#181818;stroke-width:1.0;" width="10" x="858.5" y="1104.6016"/><rect fill="#FFFFFF" height="27.8359" style="stroke:#181818;stroke-width:1.0;" width="10" x="950" y="173.1797"/><rect fill="#FFFFFF" height="27.8359" style="stroke:#181818;stroke-width:1.0;" width="10" x="950" y="272.5234"/><rect fill="#FFFFFF" height="27.8359" style="stroke:#181818;stroke-width:1.0;" width="10" x="950" y="552.8828"/><rect fill="#FFFFFF" height="83.5078" style="stroke:#181818;stroke-width:1.0;" width="10" x="950" y="652.2266"/><rect fill="#FFFFFF" height="27.8359" style="stroke:#181818;stroke-width:1.0;" width="10" x="950" y="798.4063"/><rect fill="#FFFFFF" height="266.3594" style="stroke:#181818;stroke-width:1.0;" width="10" x="1031.5" y="2063.8594"/><rect fill="#FFFFFF" height="210.6875" style="stroke:#181818;stroke-width:1.0;" width="10" x="1109.5" y="1489.3047"/><rect fill="#FFFFFF" height="344.8672" style="stroke:#181818;stroke-width:1.0;" width="10" x="1193.5" y="1299.4531"/><rect fill="#FFFFFF" height="400.5391" style="stroke:#181818;stroke-width:1.0;" width="10" x="1193.5" y="1874.0078"/><rect fill="#FFFFFF" height="289.1953" style="stroke:#181818;stroke-width:1.0;" width="10" x="1301.5" y="1327.2891"/><rect fill="#FFFFFF" height="344.8672" style="stroke:#181818;stroke-width:1.0;" width="10" x="1301.5" y="1901.8438"/><rect fill="#FFFFFF" height="233.5234" style="stroke:#181818;stroke-width:1.0;" width="10" x="1437.5" y="1355.125"/><rect fill="#FFFFFF" height="289.1953" style="stroke:#181818;stroke-width:1.0;" width="10" x="1437.5" y="1929.6797"/><rect fill="#FFFFFF" height="27.8359" style="stroke:#181818;stroke-width:1.0;" width="10" x="1515.5" y="965.4219"/><rect fill="#FFFFFF" height="27.8359" style="stroke:#181818;stroke-width:1.0;" width="10" x="1515.5" y="1132.4375"/><rect fill="none" height="198.6875" style="stroke:#000000;stroke-width:1.5;" width="996" x="10" y="109.6719"/><rect fill="none" height="254.3594" style="stroke:#000000;stroke-width:1.5;" width="996" x="10" y="489.375"/><rect fill="none" height="421.375" style="stroke:#000000;stroke-width:1.5;" width="1476.5" x="10" y="1370.125"/><rect fill="none" height="477.0469" style="stroke:#000000;stroke-width:1.5;" width="1476.5" x="10" y="1944.6797"/><line style="stroke:#181818;stroke-width:0.5;stroke-dasharray:5.0,5.0;" x1="56" x2="56" y1="92.6719" y2="2438.7266"/><line style="stroke:#181818;stroke-width:0.5;stroke-dasharray:5.0,5.0;" x1="208" x2="208" y1="92.6719" y2="2438.7266"/><line style="stroke:#181818;stroke-width:0.5;stroke-dasharray:5.0,5.0;" x1="311" x2="311" y1="92.6719" y2="2438.7266"/><line style="stroke:#181818;stroke-width:0.5;stroke-dasharray:5.0,5.0;" x1="417" x2="417" y1="92.6719" y2="2438.7266"/><line style="stroke:#181818;stroke-width:0.5;stroke-dasharray:5.0,5.0;" x1="519" x2="519" y1="92.6719" y2="2438.7266"/><line style="stroke:#181818;stroke-width:0.5;stroke-dasharray:5.0,5.0;" x1="619" x2="619" y1="92.6719" y2="2438.7266"/><line style="stroke:#181818;stroke-width:0.5;stroke-dasharray:5.0,5.0;" x1="694" x2="694" y1="92.6719" y2="2438.7266"/><line style="stroke:#181818;stroke-width:0.5;stroke-dasharray:5.0,5.0;" x1="863" x2="863" y1="92.6719" y2="2438.7266"/><line style="stroke:#181818;stroke-width:0.5;stroke-dasharray:5.0,5.0;" x1="955" x2="955" y1="92.6719" y2="2438.7266"/><line style="stroke:#181818;stroke-width:0.5;stroke-dasharray:5.0,5.0;" x1="1036" x2="1036" y1="92.6719" y2="2438.7266"/><line style="stroke:#181818;stroke-width:0.5;stroke-dasharray:5.0,5.0;" x1="1114" x2="1114" y1="92.6719" y2="2438.7266"/><line style="stroke:#181818;stroke-width:0.5;stroke-dasharray:5.0,5.0;" x1="1198" x2="1198" y1="92.6719" y2="2438.7266"/><line style="stroke:#181818;stroke-width:0.5;stroke-dasharray:5.0,5.0;" x1="1306" x2="1306" y1="92.6719" y2="2438.7266"/><line style="stroke:#181818;stroke-width:0.5;stroke-dasharray:5.0,5.0;" x1="1442.5" x2="1442.5" y1="92.6719" y2="2438.7266"/><line style="stroke:#181818;stroke-width:0.5;stroke-dasharray:5.0,5.0;" x1="1520.5" x2="1520.5" y1="92.6719" y2="2438.7266"/><text fill="#000000" font-family="sans-serif" font-size="11" lengthAdjust="spacing" textLength="67" x="20" y="76.4189">Authenticated</text><text fill="#000000" font-family="sans-serif" font-size="11" lengthAdjust="spacing" textLength="23" x="42" y="90.2549">User</text><ellipse cx="56.5" cy="13.5" fill="#E2E2F0" rx="8" ry="8" style="stroke:#181818;stroke-width:0.5;"/><path d="M56.5,21.5 L56.5,48.5 M43.5,29.5 L69.5,29.5 M56.5,48.5 L43.5,63.5 M56.5,48.5 L69.5,63.5 " fill="none" style="stroke:#181818;stroke-width:0.5;"/><text fill="#000000" font-family="sans-serif" font-size="11" font-style="italic" lengthAdjust="spacing" textLength="33" x="189" y="76.4189">&#171;Dart&#187;</text><text fill="#000000" font-family="sans-serif" font-size="11" lengthAdjust="spacing" textLength="73" x="169" y="90.2549">AddEventView</text><path d="M188,37 L188,61 M188,49 L205,49 " fill="none" style="stroke:#181818;stroke-width:0.5;"/><ellipse cx="217" cy="49" fill="#E2E2F0" rx="12" ry="12" style="stroke:#181818;stroke-width:0.5;"/><text fill="#000000" font-family="sans-serif" font-size="11" font-style="italic" lengthAdjust="spacing" textLength="33" x="292" y="76.4189">&#171;Dart&#187;</text><text fill="#000000" font-family="sans-serif" font-size="11" lengthAdjust="spacing" textLength="101" x="258" y="90.2549">AddEventViewModel</text><ellipse cx="311.5" cy="49" fill="#E2E2F0" rx="12" ry="12" style="stroke:#181818;stroke-width:0.5;"/><polygon fill="#181818" points="307.5,37,313.5,32,311.5,37,313.5,42,307.5,37" style="stroke:#181818;stroke-width:1.0;"/><text fill="#000000" font-family="sans-serif" font-size="11" font-style="italic" lengthAdjust="spacing" textLength="33" x="398" y="76.4189">&#171;Dart&#187;</text><text fill="#000000" font-family="sans-serif" font-size="11" lengthAdjust="spacing" textLength="79" x="375" y="90.2549">EventRepository</text><ellipse cx="417.5" cy="49" fill="#E2E2F0" rx="12" ry="12" style="stroke:#181818;stroke-width:0.5;"/><polygon fill="#181818" points="413.5,37,419.5,32,417.5,37,419.5,42,413.5,37" style="stroke:#181818;stroke-width:1.0;"/><text fill="#000000" font-family="sans-serif" font-size="11" font-style="italic" lengthAdjust="spacing" textLength="33" x="500" y="76.4189">&#171;Dart&#187;</text><text fill="#000000" font-family="sans-serif" font-size="11" lengthAdjust="spacing" textLength="93" x="470" y="90.2549">LocationRepository</text><ellipse cx="519.5" cy="49" fill="#E2E2F0" rx="12" ry="12" style="stroke:#181818;stroke-width:0.5;"/><polygon fill="#181818" points="515.5,37,521.5,32,519.5,37,521.5,42,515.5,37" style="stroke:#181818;stroke-width:1.0;"/><text fill="#000000" font-family="sans-serif" font-size="11" font-style="italic" lengthAdjust="spacing" textLength="33" x="600" y="76.4189">&#171;Dart&#187;</text><text fill="#000000" font-family="sans-serif" font-size="11" lengthAdjust="spacing" textLength="75" x="579" y="90.2549">StorageService</text><ellipse cx="619.5" cy="49" fill="#E2E2F0" rx="12" ry="12" style="stroke:#181818;stroke-width:0.5;"/><polygon fill="#181818" points="615.5,37,621.5,32,619.5,37,621.5,42,615.5,37" style="stroke:#181818;stroke-width:1.0;"/><text fill="#000000" font-family="sans-serif" font-size="11" font-style="italic" lengthAdjust="spacing" textLength="33" x="674.5" y="76.4189">&#171;Dart&#187;</text><text fill="#000000" font-family="sans-serif" font-size="11" lengthAdjust="spacing" textLength="42" x="670" y="90.2549">ApiClient</text><ellipse cx="694" cy="49" fill="#E2E2F0" rx="12" ry="12" style="stroke:#181818;stroke-width:0.5;"/><polygon fill="#181818" points="690,37,696,32,694,37,696,42,690,37" style="stroke:#181818;stroke-width:1.0;"/><text fill="#000000" font-family="sans-serif" font-size="11" lengthAdjust="spacing" textLength="75" x="823" y="90.2549">SupabaseClient</text><ellipse cx="863.5" cy="62.8359" fill="#E2E2F0" rx="12" ry="12" style="stroke:#181818;stroke-width:0.5;"/><polygon fill="#181818" points="859.5,50.8359,865.5,45.8359,863.5,50.8359,865.5,55.8359,859.5,50.8359" style="stroke:#181818;stroke-width:1.0;"/><text fill="#000000" font-family="sans-serif" font-size="11" font-style="italic" lengthAdjust="spacing" textLength="41" x="931.5" y="76.4189">&#171;Class&#187;</text><text fill="#000000" font-family="sans-serif" font-size="11" lengthAdjust="spacing" textLength="76" x="914" y="90.2549">DeviceFeatures</text><ellipse cx="955" cy="49" fill="#E2E2F0" rx="12" ry="12" style="stroke:#181818;stroke-width:0.5;"/><polygon fill="#181818" points="951,37,957,32,955,37,957,42,951,37" style="stroke:#181818;stroke-width:1.0;"/><text fill="#000000" font-family="sans-serif" font-size="11" font-style="italic" lengthAdjust="spacing" textLength="33" x="1017" y="76.4189">&#171;Dart&#187;</text><text fill="#000000" font-family="sans-serif" font-size="11" lengthAdjust="spacing" textLength="55" x="1006" y="90.2549">EventModel</text><ellipse cx="1036.5" cy="49" fill="#E2E2F0" rx="12" ry="12" style="stroke:#181818;stroke-width:0.5;"/><line style="stroke:#181818;stroke-width:0.5;" x1="1024.5" x2="1048.5" y1="63" y2="63"/><text fill="#000000" font-family="sans-serif" font-size="11" font-style="italic" lengthAdjust="spacing" textLength="33" x="1095" y="76.4189">&#171;Dart&#187;</text><text fill="#000000" font-family="sans-serif" font-size="11" lengthAdjust="spacing" textLength="69" x="1077" y="90.2549">LocationModel</text><ellipse cx="1114.5" cy="49" fill="#E2E2F0" rx="12" ry="12" style="stroke:#181818;stroke-width:0.5;"/><line style="stroke:#181818;stroke-width:0.5;" x1="1102.5" x2="1126.5" y1="63" y2="63"/><rect fill="#E2E2F0" height="41.6719" rx="2.5" ry="2.5" style="stroke:#181818;stroke-width:0.5;" width="73" x="1162" y="50"/><text fill="#000000" font-family="sans-serif" font-size="11" font-style="italic" lengthAdjust="spacing" textLength="41" x="1178" y="68.4189">&#171;REST&#187;</text><text fill="#000000" font-family="sans-serif" font-size="11" lengthAdjust="spacing" textLength="59" x="1169" y="82.2549">Express API</text><rect fill="#E2E2F0" height="41.6719" rx="2.5" ry="2.5" style="stroke:#181818;stroke-width:0.5;" width="75" x="1269" y="50"/><text fill="#000000" font-family="sans-serif" font-size="11" font-style="italic" lengthAdjust="spacing" textLength="38" x="1287.5" y="68.4189">&#171;ORM&#187;</text><text fill="#000000" font-family="sans-serif" font-size="11" lengthAdjust="spacing" textLength="61" x="1276" y="82.2549">Prisma Client</text><text fill="#000000" font-family="sans-serif" font-size="11" font-style="italic" lengthAdjust="spacing" textLength="62" x="1408.5" y="76.4189">&#171;Supabase&#187;</text><text fill="#000000" font-family="sans-serif" font-size="11" lengthAdjust="spacing" textLength="51" x="1414" y="90.2549">postgresql</text><path d="M1424.5,29 C1424.5,19 1442.5,19 1442.5,19 C1442.5,19 1460.5,19 1460.5,29 L1460.5,55 C1460.5,65 1442.5,65 1442.5,65 C1442.5,65 1424.5,65 1424.5,55 L1424.5,29 " fill="#E2E2F0" style="stroke:#181818;stroke-width:1.5;"/><path d="M1424.5,29 C1424.5,39 1442.5,39 1442.5,39 C1442.5,39 1460.5,39 1460.5,29 " fill="none" style="stroke:#181818;stroke-width:1.5;"/><text fill="#000000" font-family="sans-serif" font-size="11" font-style="italic" lengthAdjust="spacing" textLength="62" x="1486.5" y="76.4189">&#171;Supabase&#187;</text><text fill="#000000" font-family="sans-serif" font-size="11" lengthAdjust="spacing" textLength="54" x="1490.5" y="90.2549">FileStorage</text><path d="M1502.5,29 C1502.5,19 1520.5,19 1520.5,19 C1520.5,19 1538.5,19 1538.5,29 L1538.5,55 C1538.5,65 1520.5,65 1520.5,65 C1520.5,65 1502.5,65 1502.5,55 L1502.5,29 " fill="#E2E2F0" style="stroke:#181818;stroke-width:1.5;"/><path d="M1502.5,29 C1502.5,39 1520.5,39 1520.5,39 C1520.5,39 1538.5,39 1538.5,29 " fill="none" style="stroke:#181818;stroke-width:1.5;"/><rect fill="#FFFFFF" height="2283.3828" style="stroke:#181818;stroke-width:1.0;" width="10" x="203.5" y="145.3438"/><rect fill="#FFFFFF" height="1503.9766" style="stroke:#181818;stroke-width:1.0;" width="10" x="306.5" y="881.9141"/><rect fill="#FFFFFF" height="539.7188" style="stroke:#181818;stroke-width:1.0;" width="10" x="412.5" y="1818.3359"/><rect fill="#FFFFFF" height="484.0469" style="stroke:#181818;stroke-width:1.0;" width="10" x="514.5" y="1243.7813"/><rect fill="#FFFFFF" height="139.1797" style="stroke:#181818;stroke-width:1.0;" width="10" x="614.5" y="909.75"/><rect fill="#FFFFFF" height="139.1797" style="stroke:#181818;stroke-width:1.0;" width="10" x="614.5" y="1076.7656"/><rect fill="#FFFFFF" height="400.5391" style="stroke:#181818;stroke-width:1.0;" width="10" x="689" y="1271.6172"/><rect fill="#FFFFFF" height="456.2109" style="stroke:#181818;stroke-width:1.0;" width="10" x="689" y="1846.1719"/><rect fill="#FFFFFF" height="83.5078" style="stroke:#181818;stroke-width:1.0;" width="10" x="858.5" y="937.5859"/><rect fill="#FFFFFF" height="83.5078" style="stroke:#181818;stroke-width:1.0;" width="10" x="858.5" y="1104.6016"/><rect fill="#FFFFFF" height="27.8359" style="stroke:#181818;stroke-width:1.0;" width="10" x="950" y="173.1797"/><rect fill="#FFFFFF" height="27.8359" style="stroke:#181818;stroke-width:1.0;" width="10" x="950" y="272.5234"/><rect fill="#FFFFFF" height="27.8359" style="stroke:#181818;stroke-width:1.0;" width="10" x="950" y="552.8828"/><rect fill="#FFFFFF" height="83.5078" style="stroke:#181818;stroke-width:1.0;" width="10" x="950" y="652.2266"/><rect fill="#FFFFFF" height="27.8359" style="stroke:#181818;stroke-width:1.0;" width="10" x="950" y="798.4063"/><rect fill="#FFFFFF" height="266.3594" style="stroke:#181818;stroke-width:1.0;" width="10" x="1031.5" y="2063.8594"/><rect fill="#FFFFFF" height="210.6875" style="stroke:#181818;stroke-width:1.0;" width="10" x="1109.5" y="1489.3047"/><rect fill="#FFFFFF" height="344.8672" style="stroke:#181818;stroke-width:1.0;" width="10" x="1193.5" y="1299.4531"/><rect fill="#FFFFFF" height="400.5391" style="stroke:#181818;stroke-width:1.0;" width="10" x="1193.5" y="1874.0078"/><rect fill="#FFFFFF" height="289.1953" style="stroke:#181818;stroke-width:1.0;" width="10" x="1301.5" y="1327.2891"/><rect fill="#FFFFFF" height="344.8672" style="stroke:#181818;stroke-width:1.0;" width="10" x="1301.5" y="1901.8438"/><rect fill="#FFFFFF" height="233.5234" style="stroke:#181818;stroke-width:1.0;" width="10" x="1437.5" y="1355.125"/><rect fill="#FFFFFF" height="289.1953" style="stroke:#181818;stroke-width:1.0;" width="10" x="1437.5" y="1929.6797"/><rect fill="#FFFFFF" height="27.8359" style="stroke:#181818;stroke-width:1.0;" width="10" x="1515.5" y="965.4219"/><rect fill="#FFFFFF" height="27.8359" style="stroke:#181818;stroke-width:1.0;" width="10" x="1515.5" y="1132.4375"/><path d="M10,109.6719 L68,109.6719 L68,115.5078 L58,125.5078 L10,125.5078 L10,109.6719 " fill="#EEEEEE" style="stroke:#000000;stroke-width:1.5;"/><rect fill="none" height="198.6875" style="stroke:#000000;stroke-width:1.5;" width="996" x="10" y="109.6719"/><text fill="#000000" font-family="sans-serif" font-size="11" font-weight="bold" lengthAdjust="spacing" textLength="13" x="25" y="122.0908">alt</text><text fill="#000000" font-family="sans-serif" font-size="11" font-weight="bold" lengthAdjust="spacing" textLength="77" x="83" y="123.0908">[Take Picture]</text><polygon fill="#181818" points="191.5,141.3438,201.5,145.3438,191.5,149.3438" style="stroke:#181818;stroke-width:1.0;"/><line style="stroke:#181818;stroke-width:1.0;" x1="56.5" x2="197.5" y1="145.3438" y2="145.3438"/><text fill="#000000" font-family="sans-serif" font-size="11" lengthAdjust="spacing" textLength="55" x="63.5" y="140.9268">takePhoto()</text><polygon fill="#181818" points="938,169.1797,948,173.1797,938,177.1797" style="stroke:#181818;stroke-width:1.0;"/><line style="stroke:#181818;stroke-width:1.0;" x1="213.5" x2="944" y1="173.1797" y2="173.1797"/><text fill="#000000" font-family="sans-serif" font-size="11" lengthAdjust="spacing" textLength="73" x="220.5" y="168.7627">captureImage()</text><polygon fill="#181818" points="224.5,197.0156,214.5,201.0156,224.5,205.0156" style="stroke:#181818;stroke-width:1.0;"/><line style="stroke:#181818;stroke-width:1.0;" x1="218.5" x2="954" y1="201.0156" y2="201.0156"/><text fill="#000000" font-family="sans-serif" font-size="11" lengthAdjust="spacing" textLength="47" x="230.5" y="196.5986">_imageUri</text><line style="stroke:#000000;stroke-width:1.0;stroke-dasharray:2.0,2.0;" x1="10" x2="1006" y1="210.0156" y2="210.0156"/><text fill="#000000" font-family="sans-serif" font-size="11" font-weight="bold" lengthAdjust="spacing" textLength="68" x="15" y="221.4346">[Pick Image]</text><polygon fill="#181818" points="191.5,240.6875,201.5,244.6875,191.5,248.6875" style="stroke:#181818;stroke-width:1.0;"/><line style="stroke:#181818;stroke-width:1.0;" x1="56.5" x2="197.5" y1="244.6875" y2="244.6875"/><text fill="#000000" font-family="sans-serif" font-size="11" lengthAdjust="spacing" textLength="102" x="63.5" y="240.2705">chooseFromGallery()</text><polygon fill="#181818" points="938,268.5234,948,272.5234,938,276.5234" style="stroke:#181818;stroke-width:1.0;"/><line style="stroke:#181818;stroke-width:1.0;" x1="213.5" x2="944" y1="272.5234" y2="272.5234"/><text fill="#000000" font-family="sans-serif" font-size="11" lengthAdjust="spacing" textLength="55" x="220.5" y="268.1064">pickImage()</text><polygon fill="#181818" points="224.5,296.3594,214.5,300.3594,224.5,304.3594" style="stroke:#181818;stroke-width:1.0;"/><line style="stroke:#181818;stroke-width:1.0;" x1="218.5" x2="954" y1="300.3594" y2="300.3594"/><text fill="#000000" font-family="sans-serif" font-size="11" lengthAdjust="spacing" textLength="47" x="230.5" y="295.9424">_imageUri</text><polygon fill="#181818" points="191.5,331.1953,201.5,335.1953,191.5,339.1953" style="stroke:#181818;stroke-width:1.0;"/><line style="stroke:#181818;stroke-width:1.0;" x1="56.5" x2="197.5" y1="335.1953" y2="335.1953"/><text fill="#000000" font-family="sans-serif" font-size="11" lengthAdjust="spacing" textLength="70" x="63.5" y="330.7783">setState(_title)</text><polygon fill="#181818" points="191.5,359.0313,201.5,363.0313,191.5,367.0313" style="stroke:#181818;stroke-width:1.0;"/><line style="stroke:#181818;stroke-width:1.0;" x1="56.5" x2="197.5" y1="363.0313" y2="363.0313"/><text fill="#000000" font-family="sans-serif" font-size="11" lengthAdjust="spacing" textLength="107" x="63.5" y="358.6143">setState(_description)</text><polygon fill="#181818" points="191.5,386.8672,201.5,390.8672,191.5,394.8672" style="stroke:#181818;stroke-width:1.0;"/><line style="stroke:#181818;stroke-width:1.0;" x1="56.5" x2="197.5" y1="390.8672" y2="390.8672"/><text fill="#000000" font-family="sans-serif" font-size="11" lengthAdjust="spacing" textLength="75" x="63.5" y="386.4502">setState(_date)</text><polygon fill="#181818" points="191.5,414.7031,201.5,418.7031,191.5,422.7031" style="stroke:#181818;stroke-width:1.0;"/><line style="stroke:#181818;stroke-width:1.0;" x1="56.5" x2="197.5" y1="418.7031" y2="418.7031"/><text fill="#000000" font-family="sans-serif" font-size="11" lengthAdjust="spacing" textLength="93" x="63.5" y="414.2861">setState(_startsAt)</text><polygon fill="#181818" points="191.5,442.5391,201.5,446.5391,191.5,450.5391" style="stroke:#181818;stroke-width:1.0;"/><line style="stroke:#181818;stroke-width:1.0;" x1="56.5" x2="197.5" y1="446.5391" y2="446.5391"/><text fill="#000000" font-family="sans-serif" font-size="11" lengthAdjust="spacing" textLength="89" x="63.5" y="442.1221">setState(_endsAt)</text><polygon fill="#181818" points="191.5,470.375,201.5,474.375,191.5,478.375" style="stroke:#181818;stroke-width:1.0;"/><line style="stroke:#181818;stroke-width:1.0;" x1="56.5" x2="197.5" y1="474.375" y2="474.375"/><text fill="#000000" font-family="sans-serif" font-size="11" lengthAdjust="spacing" textLength="97" x="63.5" y="469.958">setState(_category)</text><path d="M10,489.375 L68,489.375 L68,495.2109 L58,505.2109 L10,505.2109 L10,489.375 " fill="#EEEEEE" style="stroke:#000000;stroke-width:1.5;"/><rect fill="none" height="254.3594" style="stroke:#000000;stroke-width:1.5;" width="996" x="10" y="489.375"/><text fill="#000000" font-family="sans-serif" font-size="11" font-weight="bold" lengthAdjust="spacing" textLength="13" x="25" y="501.7939">alt</text><text fill="#000000" font-family="sans-serif" font-size="11" font-weight="bold" lengthAdjust="spacing" textLength="89" x="83" y="502.7939">[Pick Music File]</text><polygon fill="#181818" points="191.5,521.0469,201.5,525.0469,191.5,529.0469" style="stroke:#181818;stroke-width:1.0;"/><line style="stroke:#181818;stroke-width:1.0;" x1="56.5" x2="197.5" y1="525.0469" y2="525.0469"/><text fill="#000000" font-family="sans-serif" font-size="11" lengthAdjust="spacing" textLength="55" x="63.5" y="520.6299">pickMusic()</text><polygon fill="#181818" points="938,548.8828,948,552.8828,938,556.8828" style="stroke:#181818;stroke-width:1.0;"/><line style="stroke:#181818;stroke-width:1.0;" x1="213.5" x2="944" y1="552.8828" y2="552.8828"/><text fill="#000000" font-family="sans-serif" font-size="11" lengthAdjust="spacing" textLength="71" x="220.5" y="548.4658">pickAudioFile()</text><polygon fill="#181818" points="224.5,576.7188,214.5,580.7188,224.5,584.7188" style="stroke:#181818;stroke-width:1.0;"/><line style="stroke:#181818;stroke-width:1.0;" x1="218.5" x2="954" y1="580.7188" y2="580.7188"/><text fill="#000000" font-family="sans-serif" font-size="11" lengthAdjust="spacing" textLength="47" x="230.5" y="576.3018">_musicUri</text><line style="stroke:#000000;stroke-width:1.0;stroke-dasharray:2.0,2.0;" x1="10" x2="1006" y1="589.7188" y2="589.7188"/><text fill="#000000" font-family="sans-serif" font-size="11" font-weight="bold" lengthAdjust="spacing" textLength="82" x="15" y="601.1377">[Record Audio]</text><polygon fill="#181818" points="191.5,620.3906,201.5,624.3906,191.5,628.3906" style="stroke:#181818;stroke-width:1.0;"/><line style="stroke:#181818;stroke-width:1.0;" x1="56.5" x2="197.5" y1="624.3906" y2="624.3906"/><text fill="#000000" font-family="sans-serif" font-size="11" lengthAdjust="spacing" textLength="79" x="63.5" y="619.9736">startRecording()</text><polygon fill="#181818" points="938,648.2266,948,652.2266,938,656.2266" style="stroke:#181818;stroke-width:1.0;"/><line style="stroke:#181818;stroke-width:1.0;" x1="213.5" x2="944" y1="652.2266" y2="652.2266"/><text fill="#000000" font-family="sans-serif" font-size="11" lengthAdjust="spacing" textLength="107" x="220.5" y="647.8096">startAudioRecording()</text><polygon fill="#181818" points="191.5,676.0625,201.5,680.0625,191.5,684.0625" style="stroke:#181818;stroke-width:1.0;"/><line style="stroke:#181818;stroke-width:1.0;" x1="56.5" x2="197.5" y1="680.0625" y2="680.0625"/><text fill="#000000" font-family="sans-serif" font-size="11" lengthAdjust="spacing" textLength="78" x="63.5" y="675.6455">stopRecording()</text><polygon fill="#181818" points="938,703.8984,948,707.8984,938,711.8984" style="stroke:#181818;stroke-width:1.0;"/><line style="stroke:#181818;stroke-width:1.0;" x1="213.5" x2="944" y1="707.8984" y2="707.8984"/><text fill="#000000" font-family="sans-serif" font-size="11" lengthAdjust="spacing" textLength="106" x="220.5" y="703.4814">stopAudioRecording()</text><polygon fill="#181818" points="224.5,731.7344,214.5,735.7344,224.5,739.7344" style="stroke:#181818;stroke-width:1.0;"/><line style="stroke:#181818;stroke-width:1.0;" x1="218.5" x2="954" y1="735.7344" y2="735.7344"/><text fill="#000000" font-family="sans-serif" font-size="11" lengthAdjust="spacing" textLength="47" x="230.5" y="731.3174">_musicUri</text><polygon fill="#181818" points="191.5,766.5703,201.5,770.5703,191.5,774.5703" style="stroke:#181818;stroke-width:1.0;"/><line style="stroke:#181818;stroke-width:1.0;" x1="56.5" x2="197.5" y1="770.5703" y2="770.5703"/><text fill="#000000" font-family="sans-serif" font-size="11" lengthAdjust="spacing" textLength="37" x="63.5" y="766.1533">location</text><polygon fill="#181818" points="938,794.4063,948,798.4063,938,802.4063" style="stroke:#181818;stroke-width:1.0;"/><line style="stroke:#181818;stroke-width:1.0;" x1="213.5" x2="944" y1="798.4063" y2="798.4063"/><text fill="#000000" font-family="sans-serif" font-size="11" lengthAdjust="spacing" textLength="100" x="220.5" y="793.9893">getCurrentLocation()</text><polygon fill="#181818" points="224.5,822.2422,214.5,826.2422,224.5,830.2422" style="stroke:#181818;stroke-width:1.0;"/><line style="stroke:#181818;stroke-width:1.0;" x1="218.5" x2="954" y1="826.2422" y2="826.2422"/><text fill="#000000" font-family="sans-serif" font-size="11" lengthAdjust="spacing" textLength="37" x="230.5" y="821.8252">location</text><polygon fill="#181818" points="191.5,850.0781,201.5,854.0781,191.5,858.0781" style="stroke:#181818;stroke-width:1.0;"/><line style="stroke:#181818;stroke-width:1.0;" x1="56.5" x2="197.5" y1="854.0781" y2="854.0781"/><text fill="#000000" font-family="sans-serif" font-size="11" lengthAdjust="spacing" textLength="74" x="63.5" y="849.6611">handlePublish()</text><polygon fill="#181818" points="294.5,877.9141,304.5,881.9141,294.5,885.9141" style="stroke:#181818;stroke-width:1.0;"/><line style="stroke:#181818;stroke-width:1.0;" x1="213.5" x2="300.5" y1="881.9141" y2="881.9141"/><text fill="#000000" font-family="sans-serif" font-size="11" lengthAdjust="spacing" textLength="66" x="220.5" y="877.4971">createEvent()</text><polygon fill="#181818" points="602.5,905.75,612.5,909.75,602.5,913.75" style="stroke:#181818;stroke-width:1.0;"/><line style="stroke:#181818;stroke-width:1.0;" x1="316.5" x2="608.5" y1="909.75" y2="909.75"/><text fill="#000000" font-family="sans-serif" font-size="11" lengthAdjust="spacing" textLength="97" x="323.5" y="905.333">uploadFile(imageUri)</text><polygon fill="#181818" points="846.5,933.5859,856.5,937.5859,846.5,941.5859" style="stroke:#181818;stroke-width:1.0;"/><line style="stroke:#181818;stroke-width:1.0;" x1="624.5" x2="852.5" y1="937.5859" y2="937.5859"/><text fill="#000000" font-family="sans-serif" font-size="11" lengthAdjust="spacing" textLength="215" x="631.5" y="933.1689">storage.from(EventImages).upload(imageUri)</text><polygon fill="#181818" points="1503.5,961.4219,1513.5,965.4219,1503.5,969.4219" style="stroke:#181818;stroke-width:1.0;"/><line style="stroke:#181818;stroke-width:1.0;" x1="868.5" x2="1509.5" y1="965.4219" y2="965.4219"/><text fill="#000000" font-family="sans-serif" font-size="11" lengthAdjust="spacing" textLength="215" x="875.5" y="961.0049">storage.from(EventImages).upload(imageUri)</text><polygon fill="#181818" points="879.5,989.2578,869.5,993.2578,879.5,997.2578" style="stroke:#181818;stroke-width:1.0;"/><line style="stroke:#181818;stroke-width:1.0;" x1="873.5" x2="1519.5" y1="993.2578" y2="993.2578"/><text fill="#000000" font-family="sans-serif" font-size="11" lengthAdjust="spacing" textLength="69" x="885.5" y="988.8408">publicImageUrl</text><polygon fill="#181818" points="635.5,1017.0938,625.5,1021.0938,635.5,1025.0938" style="stroke:#181818;stroke-width:1.0;"/><line style="stroke:#181818;stroke-width:1.0;" x1="629.5" x2="862.5" y1="1021.0938" y2="1021.0938"/><text fill="#000000" font-family="sans-serif" font-size="11" lengthAdjust="spacing" textLength="69" x="641.5" y="1016.6768">publicImageUrl</text><polygon fill="#181818" points="327.5,1044.9297,317.5,1048.9297,327.5,1052.9297" style="stroke:#181818;stroke-width:1.0;"/><line style="stroke:#181818;stroke-width:1.0;" x1="321.5" x2="618.5" y1="1048.9297" y2="1048.9297"/><text fill="#000000" font-family="sans-serif" font-size="11" lengthAdjust="spacing" textLength="69" x="333.5" y="1044.5127">publicImageUrl</text><polygon fill="#181818" points="602.5,1072.7656,612.5,1076.7656,602.5,1080.7656" style="stroke:#181818;stroke-width:1.0;"/><line style="stroke:#181818;stroke-width:1.0;" x1="316.5" x2="608.5" y1="1076.7656" y2="1076.7656"/><text fill="#000000" font-family="sans-serif" font-size="11" lengthAdjust="spacing" textLength="97" x="323.5" y="1072.3486">uploadFile(musicUri)</text><polygon fill="#181818" points="846.5,1100.6016,856.5,1104.6016,846.5,1108.6016" style="stroke:#181818;stroke-width:1.0;"/><line style="stroke:#181818;stroke-width:1.0;" x1="624.5" x2="852.5" y1="1104.6016" y2="1104.6016"/><text fill="#000000" font-family="sans-serif" font-size="11" lengthAdjust="spacing" textLength="209" x="631.5" y="1100.1846">storage.from(EventMusic).upload(musicUri)</text><polygon fill="#181818" points="1503.5,1128.4375,1513.5,1132.4375,1503.5,1136.4375" style="stroke:#181818;stroke-width:1.0;"/><line style="stroke:#181818;stroke-width:1.0;" x1="868.5" x2="1509.5" y1="1132.4375" y2="1132.4375"/><text fill="#000000" font-family="sans-serif" font-size="11" lengthAdjust="spacing" textLength="209" x="875.5" y="1128.0205">storage.from(EventMusic).upload(musicUri)</text><polygon fill="#181818" points="879.5,1156.2734,869.5,1160.2734,879.5,1164.2734" style="stroke:#181818;stroke-width:1.0;"/><line style="stroke:#181818;stroke-width:1.0;" x1="873.5" x2="1519.5" y1="1160.2734" y2="1160.2734"/><text fill="#000000" font-family="sans-serif" font-size="11" lengthAdjust="spacing" textLength="69" x="885.5" y="1155.8564">publicMusicUrl</text><polygon fill="#181818" points="635.5,1184.1094,625.5,1188.1094,635.5,1192.1094" style="stroke:#181818;stroke-width:1.0;"/><line style="stroke:#181818;stroke-width:1.0;" x1="629.5" x2="862.5" y1="1188.1094" y2="1188.1094"/><text fill="#000000" font-family="sans-serif" font-size="11" lengthAdjust="spacing" textLength="69" x="641.5" y="1183.6924">publicMusicUrl</text><polygon fill="#181818" points="327.5,1211.9453,317.5,1215.9453,327.5,1219.9453" style="stroke:#181818;stroke-width:1.0;"/><line style="stroke:#181818;stroke-width:1.0;" x1="321.5" x2="618.5" y1="1215.9453" y2="1215.9453"/><text fill="#000000" font-family="sans-serif" font-size="11" lengthAdjust="spacing" textLength="69" x="333.5" y="1211.5283">publicMusicUrl</text><polygon fill="#181818" points="502.5,1239.7813,512.5,1243.7813,502.5,1247.7813" style="stroke:#181818;stroke-width:1.0;"/><line style="stroke:#181818;stroke-width:1.0;" x1="316.5" x2="508.5" y1="1243.7813" y2="1243.7813"/><text fill="#000000" font-family="sans-serif" font-size="11" lengthAdjust="spacing" textLength="80" x="323.5" y="1239.3643">createLocation()</text><polygon fill="#181818" points="677,1267.6172,687,1271.6172,677,1275.6172" style="stroke:#181818;stroke-width:1.0;"/><line style="stroke:#181818;stroke-width:1.0;" x1="524.5" x2="683" y1="1271.6172" y2="1271.6172"/><text fill="#000000" font-family="sans-serif" font-size="11" lengthAdjust="spacing" textLength="80" x="531.5" y="1267.2002">createLocation()</text><polygon fill="#181818" points="1181.5,1295.4531,1191.5,1299.4531,1181.5,1303.4531" style="stroke:#181818;stroke-width:1.0;"/><line style="stroke:#181818;stroke-width:1.0;" x1="699" x2="1187.5" y1="1299.4531" y2="1299.4531"/><text fill="#000000" font-family="sans-serif" font-size="11" lengthAdjust="spacing" textLength="93" x="706" y="1295.0361">POST /api/locations</text><polygon fill="#181818" points="1289.5,1323.2891,1299.5,1327.2891,1289.5,1331.2891" style="stroke:#181818;stroke-width:1.0;"/><line style="stroke:#181818;stroke-width:1.0;" x1="1203.5" x2="1295.5" y1="1327.2891" y2="1327.2891"/><text fill="#000000" font-family="sans-serif" font-size="11" lengthAdjust="spacing" textLength="79" x="1210.5" y="1322.8721">location.create()</text><polygon fill="#181818" points="1425.5,1351.125,1435.5,1355.125,1425.5,1359.125" style="stroke:#181818;stroke-width:1.0;"/><line style="stroke:#181818;stroke-width:1.0;" x1="1311.5" x2="1431.5" y1="1355.125" y2="1355.125"/><text fill="#000000" font-family="sans-serif" font-size="11" lengthAdjust="spacing" textLength="107" x="1318.5" y="1350.708">INSERT INTO locations</text><path d="M10,1370.125 L68,1370.125 L68,1375.9609 L58,1385.9609 L10,1385.9609 L10,1370.125 " fill="#EEEEEE" style="stroke:#000000;stroke-width:1.5;"/><rect fill="none" height="421.375" style="stroke:#000000;stroke-width:1.5;" width="1476.5" x="10" y="1370.125"/><text fill="#000000" font-family="sans-serif" font-size="11" font-weight="bold" lengthAdjust="spacing" textLength="13" x="25" y="1382.5439">alt</text><text fill="#000000" font-family="sans-serif" font-size="11" font-weight="bold" lengthAdjust="spacing" textLength="98" x="83" y="1383.5439">[Successful case]</text><polygon fill="#181818" points="1322.5,1401.7969,1312.5,1405.7969,1322.5,1409.7969" style="stroke:#181818;stroke-width:1.0;"/><line style="stroke:#181818;stroke-width:1.0;" x1="1316.5" x2="1436.5" y1="1405.7969" y2="1405.7969"/><text fill="#000000" font-family="sans-serif" font-size="11" lengthAdjust="spacing" textLength="45" x="1328.5" y="1401.3799">locationId</text><polygon fill="#181818" points="1214.5,1429.6328,1204.5,1433.6328,1214.5,1437.6328" style="stroke:#181818;stroke-width:1.0;"/><line style="stroke:#181818;stroke-width:1.0;" x1="1208.5" x2="1300.5" y1="1433.6328" y2="1433.6328"/><text fill="#000000" font-family="sans-serif" font-size="11" lengthAdjust="spacing" textLength="37" x="1220.5" y="1429.2158">location</text><polygon fill="#181818" points="710,1457.4688,700,1461.4688,710,1465.4688" style="stroke:#181818;stroke-width:1.0;"/><line style="stroke:#181818;stroke-width:1.0;" x1="704" x2="1192.5" y1="1461.4688" y2="1461.4688"/><text fill="#000000" font-family="sans-serif" font-size="11" lengthAdjust="spacing" textLength="145" x="716" y="1457.0518">{data: location, success: true}</text><polygon fill="#181818" points="1097.5,1485.3047,1107.5,1489.3047,1097.5,1493.3047" style="stroke:#181818;stroke-width:1.0;"/><line style="stroke:#181818;stroke-width:1.0;" x1="699" x2="1103.5" y1="1489.3047" y2="1489.3047"/><text fill="#000000" font-family="sans-serif" font-size="11" lengthAdjust="spacing" textLength="90" x="706" y="1484.8877">fromJson(location)</text><polygon fill="#181818" points="535.5,1513.1406,525.5,1517.1406,535.5,1521.1406" style="stroke:#181818;stroke-width:1.0;"/><line style="stroke:#181818;stroke-width:1.0;" x1="529.5" x2="1108.5" y1="1517.1406" y2="1517.1406"/><text fill="#000000" font-family="sans-serif" font-size="11" lengthAdjust="spacing" textLength="37" x="541.5" y="1512.7236">location</text><polygon fill="#181818" points="327.5,1540.9766,317.5,1544.9766,327.5,1548.9766" style="stroke:#181818;stroke-width:1.0;"/><line style="stroke:#181818;stroke-width:1.0;" x1="321.5" x2="513.5" y1="1544.9766" y2="1544.9766"/><text fill="#000000" font-family="sans-serif" font-size="11" lengthAdjust="spacing" textLength="37" x="333.5" y="1540.5596">location</text><line style="stroke:#000000;stroke-width:1.0;stroke-dasharray:2.0,2.0;" x1="10" x2="1486.5" y1="1553.9766" y2="1553.9766"/><text fill="#000000" font-family="sans-serif" font-size="11" font-weight="bold" lengthAdjust="spacing" textLength="69" x="15" y="1565.3955">[Failed case]</text><polygon fill="#181818" points="1322.5,1584.6484,1312.5,1588.6484,1322.5,1592.6484" style="stroke:#181818;stroke-width:1.0;"/><line style="stroke:#181818;stroke-width:1.0;" x1="1316.5" x2="1441.5" y1="1588.6484" y2="1588.6484"/><text fill="#000000" font-family="sans-serif" font-size="11" lengthAdjust="spacing" textLength="24" x="1328.5" y="1584.2314">error</text><polygon fill="#181818" points="1214.5,1612.4844,1204.5,1616.4844,1214.5,1620.4844" style="stroke:#181818;stroke-width:1.0;"/><line style="stroke:#181818;stroke-width:1.0;" x1="1208.5" x2="1305.5" y1="1616.4844" y2="1616.4844"/><text fill="#000000" font-family="sans-serif" font-size="11" lengthAdjust="spacing" textLength="24" x="1220.5" y="1612.0674">error</text><polygon fill="#181818" points="710,1640.3203,700,1644.3203,710,1648.3203" style="stroke:#181818;stroke-width:1.0;"/><line style="stroke:#181818;stroke-width:1.0;" x1="704" x2="1197.5" y1="1644.3203" y2="1644.3203"/><text fill="#000000" font-family="sans-serif" font-size="11" lengthAdjust="spacing" textLength="226" x="716" y="1639.9033">status(500) {error: "FAILED to create location"}</text><polygon fill="#181818" points="1097.5,1668.1563,1107.5,1672.1563,1097.5,1676.1563" style="stroke:#181818;stroke-width:1.0;"/><line style="stroke:#181818;stroke-width:1.0;" x1="694" x2="1103.5" y1="1672.1563" y2="1672.1563"/><text fill="#000000" font-family="sans-serif" font-size="11" lengthAdjust="spacing" textLength="24" x="701" y="1667.7393">error</text><polygon fill="#181818" points="535.5,1695.9922,525.5,1699.9922,535.5,1703.9922" style="stroke:#181818;stroke-width:1.0;"/><line style="stroke:#181818;stroke-width:1.0;" x1="529.5" x2="1113.5" y1="1699.9922" y2="1699.9922"/><text fill="#000000" font-family="sans-serif" font-size="11" lengthAdjust="spacing" textLength="24" x="541.5" y="1695.5752">error</text><polygon fill="#181818" points="327.5,1723.8281,317.5,1727.8281,327.5,1731.8281" style="stroke:#181818;stroke-width:1.0;"/><line style="stroke:#181818;stroke-width:1.0;" x1="321.5" x2="518.5" y1="1727.8281" y2="1727.8281"/><text fill="#000000" font-family="sans-serif" font-size="11" lengthAdjust="spacing" textLength="24" x="333.5" y="1723.4111">error</text><polygon fill="#181818" points="224.5,1751.6641,214.5,1755.6641,224.5,1759.6641" style="stroke:#181818;stroke-width:1.0;"/><line style="stroke:#181818;stroke-width:1.0;" x1="218.5" x2="305.5" y1="1755.6641" y2="1755.6641"/><text fill="#000000" font-family="sans-serif" font-size="11" lengthAdjust="spacing" textLength="24" x="230.5" y="1751.2471">error</text><polygon fill="#181818" points="67.5,1779.5,57.5,1783.5,67.5,1787.5" style="stroke:#181818;stroke-width:1.0;"/><line style="stroke:#181818;stroke-width:1.0;" x1="61.5" x2="202.5" y1="1783.5" y2="1783.5"/><text fill="#000000" font-family="sans-serif" font-size="11" lengthAdjust="spacing" textLength="104" x="73.5" y="1779.083">showErrorMessage()</text><polygon fill="#181818" points="400.5,1814.3359,410.5,1818.3359,400.5,1822.3359" style="stroke:#181818;stroke-width:1.0;"/><line style="stroke:#181818;stroke-width:1.0;" x1="316.5" x2="406.5" y1="1818.3359" y2="1818.3359"/><text fill="#000000" font-family="sans-serif" font-size="11" lengthAdjust="spacing" textLength="66" x="323.5" y="1813.9189">createEvent()</text><polygon fill="#181818" points="677,1842.1719,687,1846.1719,677,1850.1719" style="stroke:#181818;stroke-width:1.0;"/><line style="stroke:#181818;stroke-width:1.0;" x1="422.5" x2="683" y1="1846.1719" y2="1846.1719"/><text fill="#000000" font-family="sans-serif" font-size="11" lengthAdjust="spacing" textLength="66" x="429.5" y="1841.7549">createEvent()</text><polygon fill="#181818" points="1181.5,1870.0078,1191.5,1874.0078,1181.5,1878.0078" style="stroke:#181818;stroke-width:1.0;"/><line style="stroke:#181818;stroke-width:1.0;" x1="699" x2="1187.5" y1="1874.0078" y2="1874.0078"/><text fill="#000000" font-family="sans-serif" font-size="11" lengthAdjust="spacing" textLength="83" x="706" y="1869.5908">POST /api/events</text><polygon fill="#181818" points="1289.5,1897.8438,1299.5,1901.8438,1289.5,1905.8438" style="stroke:#181818;stroke-width:1.0;"/><line style="stroke:#181818;stroke-width:1.0;" x1="1203.5" x2="1295.5" y1="1901.8438" y2="1901.8438"/><text fill="#000000" font-family="sans-serif" font-size="11" lengthAdjust="spacing" textLength="69" x="1210.5" y="1897.4268">event.create()</text><polygon fill="#181818" points="1425.5,1925.6797,1435.5,1929.6797,1425.5,1933.6797" style="stroke:#181818;stroke-width:1.0;"/><line style="stroke:#181818;stroke-width:1.0;" x1="1311.5" x2="1431.5" y1="1929.6797" y2="1929.6797"/><text fill="#000000" font-family="sans-serif" font-size="11" lengthAdjust="spacing" textLength="97" x="1318.5" y="1925.2627">INSERT INTO events</text><path d="M10,1944.6797 L68,1944.6797 L68,1950.5156 L58,1960.5156 L10,1960.5156 L10,1944.6797 " fill="#EEEEEE" style="stroke:#000000;stroke-width:1.5;"/><rect fill="none" height="477.0469" style="stroke:#000000;stroke-width:1.5;" width="1476.5" x="10" y="1944.6797"/><text fill="#000000" font-family="sans-serif" font-size="11" font-weight="bold" lengthAdjust="spacing" textLength="13" x="25" y="1957.0986">alt</text><text fill="#000000" font-family="sans-serif" font-size="11" font-weight="bold" lengthAdjust="spacing" textLength="98" x="83" y="1958.0986">[Successful case]</text><polygon fill="#181818" points="1322.5,1976.3516,1312.5,1980.3516,1322.5,1984.3516" style="stroke:#181818;stroke-width:1.0;"/><line style="stroke:#181818;stroke-width:1.0;" x1="1316.5" x2="1436.5" y1="1980.3516" y2="1980.3516"/><text fill="#000000" font-family="sans-serif" font-size="11" lengthAdjust="spacing" textLength="35" x="1328.5" y="1975.9346">eventId</text><polygon fill="#181818" points="1214.5,2004.1875,1204.5,2008.1875,1214.5,2012.1875" style="stroke:#181818;stroke-width:1.0;"/><line style="stroke:#181818;stroke-width:1.0;" x1="1208.5" x2="1300.5" y1="2008.1875" y2="2008.1875"/><text fill="#000000" font-family="sans-serif" font-size="11" lengthAdjust="spacing" textLength="27" x="1220.5" y="2003.7705">event</text><polygon fill="#181818" points="710,2032.0234,700,2036.0234,710,2040.0234" style="stroke:#181818;stroke-width:1.0;"/><line style="stroke:#181818;stroke-width:1.0;" x1="704" x2="1192.5" y1="2036.0234" y2="2036.0234"/><text fill="#000000" font-family="sans-serif" font-size="11" lengthAdjust="spacing" textLength="135" x="716" y="2031.6064">{data: event, success: true}</text><polygon fill="#181818" points="1019.5,2059.8594,1029.5,2063.8594,1019.5,2067.8594" style="stroke:#181818;stroke-width:1.0;"/><line style="stroke:#181818;stroke-width:1.0;" x1="699" x2="1025.5" y1="2063.8594" y2="2063.8594"/><text fill="#000000" font-family="sans-serif" font-size="11" lengthAdjust="spacing" textLength="80" x="706" y="2059.4424">fromJson(event)</text><polygon fill="#181818" points="433.5,2087.6953,423.5,2091.6953,433.5,2095.6953" style="stroke:#181818;stroke-width:1.0;"/><line style="stroke:#181818;stroke-width:1.0;" x1="427.5" x2="1030.5" y1="2091.6953" y2="2091.6953"/><text fill="#000000" font-family="sans-serif" font-size="11" lengthAdjust="spacing" textLength="27" x="439.5" y="2087.2783">event</text><polygon fill="#181818" points="327.5,2115.5313,317.5,2119.5313,327.5,2123.5313" style="stroke:#181818;stroke-width:1.0;"/><line style="stroke:#181818;stroke-width:1.0;" x1="321.5" x2="411.5" y1="2119.5313" y2="2119.5313"/><text fill="#000000" font-family="sans-serif" font-size="11" lengthAdjust="spacing" textLength="27" x="333.5" y="2115.1143">event</text><polygon fill="#181818" points="224.5,2143.3672,214.5,2147.3672,224.5,2151.3672" style="stroke:#181818;stroke-width:1.0;"/><line style="stroke:#181818;stroke-width:1.0;" x1="218.5" x2="305.5" y1="2147.3672" y2="2147.3672"/><text fill="#000000" font-family="sans-serif" font-size="11" lengthAdjust="spacing" textLength="27" x="230.5" y="2142.9502">event</text><polygon fill="#181818" points="67.5,2171.2031,57.5,2175.2031,67.5,2179.2031" style="stroke:#181818;stroke-width:1.0;"/><line style="stroke:#181818;stroke-width:1.0;" x1="61.5" x2="202.5" y1="2175.2031" y2="2175.2031"/><text fill="#000000" font-family="sans-serif" font-size="11" lengthAdjust="spacing" textLength="123" x="73.5" y="2170.7861">showSuccessMessage()</text><line style="stroke:#000000;stroke-width:1.0;stroke-dasharray:2.0,2.0;" x1="10" x2="1486.5" y1="2184.2031" y2="2184.2031"/><text fill="#000000" font-family="sans-serif" font-size="11" font-weight="bold" lengthAdjust="spacing" textLength="69" x="15" y="2195.6221">[Failed case]</text><polygon fill="#181818" points="1322.5,2214.875,1312.5,2218.875,1322.5,2222.875" style="stroke:#181818;stroke-width:1.0;"/><line style="stroke:#181818;stroke-width:1.0;" x1="1316.5" x2="1441.5" y1="2218.875" y2="2218.875"/><text fill="#000000" font-family="sans-serif" font-size="11" lengthAdjust="spacing" textLength="24" x="1328.5" y="2214.458">error</text><polygon fill="#181818" points="1214.5,2242.7109,1204.5,2246.7109,1214.5,2250.7109" style="stroke:#181818;stroke-width:1.0;"/><line style="stroke:#181818;stroke-width:1.0;" x1="1208.5" x2="1305.5" y1="2246.7109" y2="2246.7109"/><text fill="#000000" font-family="sans-serif" font-size="11" lengthAdjust="spacing" textLength="24" x="1220.5" y="2242.2939">error</text><polygon fill="#181818" points="710,2270.5469,700,2274.5469,710,2278.5469" style="stroke:#181818;stroke-width:1.0;"/><line style="stroke:#181818;stroke-width:1.0;" x1="704" x2="1197.5" y1="2274.5469" y2="2274.5469"/><text fill="#000000" font-family="sans-serif" font-size="11" lengthAdjust="spacing" textLength="216" x="716" y="2270.1299">status(500) {error: "FAILED to create event"}</text><polygon fill="#181818" points="1019.5,2298.3828,1029.5,2302.3828,1019.5,2306.3828" style="stroke:#181818;stroke-width:1.0;"/><line style="stroke:#181818;stroke-width:1.0;" x1="694" x2="1025.5" y1="2302.3828" y2="2302.3828"/><text fill="#000000" font-family="sans-serif" font-size="11" lengthAdjust="spacing" textLength="24" x="701" y="2297.9658">error</text><polygon fill="#181818" points="433.5,2326.2188,423.5,2330.2188,433.5,2334.2188" style="stroke:#181818;stroke-width:1.0;"/><line style="stroke:#181818;stroke-width:1.0;" x1="427.5" x2="1035.5" y1="2330.2188" y2="2330.2188"/><text fill="#000000" font-family="sans-serif" font-size="11" lengthAdjust="spacing" textLength="24" x="439.5" y="2325.8018">error</text><polygon fill="#181818" points="327.5,2354.0547,317.5,2358.0547,327.5,2362.0547" style="stroke:#181818;stroke-width:1.0;"/><line style="stroke:#181818;stroke-width:1.0;" x1="321.5" x2="416.5" y1="2358.0547" y2="2358.0547"/><text fill="#000000" font-family="sans-serif" font-size="11" lengthAdjust="spacing" textLength="24" x="333.5" y="2353.6377">error</text><polygon fill="#181818" points="224.5,2381.8906,214.5,2385.8906,224.5,2389.8906" style="stroke:#181818;stroke-width:1.0;"/><line style="stroke:#181818;stroke-width:1.0;" x1="218.5" x2="310.5" y1="2385.8906" y2="2385.8906"/><text fill="#000000" font-family="sans-serif" font-size="11" lengthAdjust="spacing" textLength="24" x="230.5" y="2381.4736">error</text><polygon fill="#181818" points="67.5,2409.7266,57.5,2413.7266,67.5,2417.7266" style="stroke:#181818;stroke-width:1.0;"/><line style="stroke:#181818;stroke-width:1.0;" x1="61.5" x2="202.5" y1="2413.7266" y2="2413.7266"/><text fill="#000000" font-family="sans-serif" font-size="11" lengthAdjust="spacing" textLength="104" x="73.5" y="2409.3096">showErrorMessage()</text><!--SRC=[rLZFRzis5Bxhho1yYe4jRG-x64K08x473_LYsEbE0mf6OcmYjAcHL3glwF- -HzAII8gof3Weq1oScFg-z_izFKO-qqEE1TuZgOwCmAUWgIhsB97LaumyuOAfEJ-e3VsFe0yVd8TI4K6uEkPanILLb1-GudcIu5HnWKRJGkt8GT4KAvBzVVWiYHWXB95tha-Jv94NXmoB8v2oRFO2J_-YvAj5EmVeuqTqXuL2DpT9ae9DWZEVikGPOGsUENN95TT0rYJNzdDnDCpWBChxnC5wS3YWDe-Zx0qymLko8UA5fiGm_QCeQvhJMqR1DkjV-IskeSZn8vR48VX7DVIEQ8rpWbKXY3HG_qWhk6LOIXDsdJbrF4Mk3dVzrRMd19TngV7UYPTNg2se3PfZS6qq-pS72y3RrS9wlLfey7gsUT1W3xiILEunSbpExGaGxjTBZS-mCZ508yYFseBeVwmvzLUDBaFbK-QKaLEQ34UMg8013S0KUi3F1ArqGmcI8FXfb3twzSQlxWbIG5hjkE9NOyE1Jg8lWFTmLffB1451oYOenRd-Sx47SqDfFjWy2_XDqxvGBUcpe0QUaJPXX4dZzpCogdkxdkuubsGk-Fvtp1WHnvFHdOxceEl7Utd8agIFMvAeZOBdLr-W4nWP3oHbHAQ2vhfJ1bFXSoX7AcWeELL3UH2ELx0qQWipScmxnXJDif0qHRhLUbUEBW136r8nqoAZNAjvawhPQ_KzUsDDKYuoP0pexQD9Z6NImxQleuPb58NKS-xsiuVdhp27vr5htYx0VTkIdLu_IQVHMw9k2o40KhwomEWs_PsEL7hRVUXb_muVCaPMnIEZSWS6DVnehZymOWNe8EROzQ41JPfaa1XiA1DKv8pZpFHGEJKTgJuy2TXQdhUFsFBGaEidU0TS6VrchClnjTKKrU8lDO5Cq5Azf5ydlwGdbPoOvRdEGxgmTERcjk97J6i4j5rCw6OZcB5qdn7dvsPulijsVEDycobUfIEcn8_3q7ntoX-IxgMbNvhkc9WBqXqLroVTaQjBEJ5YWwy9Jo8IjAdLFIKYpXb29GpCgnYQ3Wl_1AtkOTz_XtFwhXoWqg6k5ec60VgqyDTpzjggT2stcEG4rQHwzv-WnP-RsVe1VZtSeuYk6cjtbasHfd0_UIeOBDpIxYoEl9X9YyoYAltMnUhDO5wbrXqtTj_qHQI6_GArPbJ3fK4KvBkbkP7pRrWJfDlW3mbXBqK4cu27Duzy2MqruXdUKWEHSgrePYcQOnWhMMSCYH1SX3k0avDOOECSMmGjiOQzIHNowhVtxyVec-5FuFetNNoQtI75JsLSUJ3w7ahN5TcPZwXTTHlqJq1KK7iskrDpLg3JyE7ILvaPB2krlCQMqbXr8FWx_dMc6KkeRdkjisjTJ5FulvhM9IS09Y4nEgcQgrALdhD3YcXUnuGoc8l6KwZbWjbaHBKC9lEiOoePJFT8Slv9vCmZGmw6KOqqvmunclJQnbXUOoLUEzMdWAFeSmLyYhrJmZ_hb3E-znnnNdvxpBVEjCP4n4hZbJCj70h31vhhMkCQTU74Qv7zFm00]--></g></svg>