<?xml version="1.0" encoding="us-ascii" standalone="no"?><svg xmlns="http://www.w3.org/2000/svg" xmlns:xlink="http://www.w3.org/1999/xlink" contentStyleType="text/css" height="1593px" preserveAspectRatio="none" style="width:1829px;height:1593px;background:#FFFFFF;" version="1.1" viewBox="0 0 1829 1593" width="1829px" zoomAndPan="magnify"><defs/><g><rect fill="#FFFFFF" height="1446.4688" style="stroke:#181818;stroke-width:1.0;" width="10" x="203.5" y="122.5078"/><rect fill="#FFFFFF" height="278.3594" style="stroke:#181818;stroke-width:1.0;" width="10" x="412.5" y="1234.9453"/><rect fill="#FFFFFF" height="264.5234" style="stroke:#181818;stroke-width:1.0;" width="10" x="514.5" y="942.5859"/><rect fill="#FFFFFF" height="83.5078" style="stroke:#181818;stroke-width:1.0;" width="10" x="614.5" y="719.8984"/><rect fill="#FFFFFF" height="83.5078" style="stroke:#181818;stroke-width:1.0;" width="10" x="614.5" y="831.2422"/><rect fill="#FFFFFF" height="181.0156" style="stroke:#181818;stroke-width:1.0;" width="10" x="689" y="970.4219"/><rect fill="#FFFFFF" height="194.8516" style="stroke:#181818;stroke-width:1.0;" width="10" x="689" y="1262.7813"/><rect fill="#FFFFFF" height="27.8359" style="stroke:#181818;stroke-width:1.0;" width="10" x="858.5" y="747.7344"/><rect fill="#FFFFFF" height="27.8359" style="stroke:#181818;stroke-width:1.0;" width="10" x="858.5" y="859.0781"/><rect fill="#FFFFFF" height="27.8359" style="stroke:#181818;stroke-width:1.0;" width="10" x="943.5" y="173.1797"/><rect fill="#FFFFFF" height="27.8359" style="stroke:#181818;stroke-width:1.0;" width="10" x="1013.5" y="474.375"/><rect fill="#FFFFFF" height="27.8359" style="stroke:#181818;stroke-width:1.0;" width="10" x="1105" y="545.8828"/><rect fill="#FFFFFF" height="27.8359" style="stroke:#181818;stroke-width:1.0;" width="10" x="1194.5" y="636.3906"/><rect fill="#FFFFFF" height="27.8359" style="stroke:#181818;stroke-width:1.0;" width="10" x="1258.5" y="1457.6328"/><rect fill="#FFFFFF" height="55.6719" style="stroke:#181818;stroke-width:1.0;" width="10" x="1336.5" y="1151.4375"/><rect fill="#FFFFFF" height="139.1797" style="stroke:#181818;stroke-width:1.0;" width="10" x="1420.5" y="998.2578"/><rect fill="#FFFFFF" height="139.1797" style="stroke:#181818;stroke-width:1.0;" width="10" x="1420.5" y="1290.6172"/><rect fill="#FFFFFF" height="83.5078" style="stroke:#181818;stroke-width:1.0;" width="10" x="1528.5" y="1026.0938"/><rect fill="#FFFFFF" height="83.5078" style="stroke:#181818;stroke-width:1.0;" width="10" x="1528.5" y="1318.4531"/><rect fill="#FFFFFF" height="27.8359" style="stroke:#181818;stroke-width:1.0;" width="10" x="1664.5" y="1053.9297"/><rect fill="#FFFFFF" height="27.8359" style="stroke:#181818;stroke-width:1.0;" width="10" x="1664.5" y="1346.2891"/><rect fill="#FFFFFF" height="849.0781" style="stroke:#181818;stroke-width:1.0;" width="10" x="1760.5" y="692.0625"/><rect fill="none" height="143.0156" style="stroke:#000000;stroke-width:1.5;" width="1017" x="159" y="438.7031"/><line style="stroke:#181818;stroke-width:0.5;stroke-dasharray:5.0,5.0;" x1="56" x2="56" y1="92.6719" y2="1586.9766"/><line style="stroke:#181818;stroke-width:0.5;stroke-dasharray:5.0,5.0;" x1="208" x2="208" y1="92.6719" y2="1586.9766"/><line style="stroke:#181818;stroke-width:0.5;stroke-dasharray:5.0,5.0;" x1="311" x2="311" y1="92.6719" y2="1586.9766"/><line style="stroke:#181818;stroke-width:0.5;stroke-dasharray:5.0,5.0;" x1="417" x2="417" y1="92.6719" y2="1586.9766"/><line style="stroke:#181818;stroke-width:0.5;stroke-dasharray:5.0,5.0;" x1="519" x2="519" y1="92.6719" y2="1586.9766"/><line style="stroke:#181818;stroke-width:0.5;stroke-dasharray:5.0,5.0;" x1="619" x2="619" y1="92.6719" y2="1586.9766"/><line style="stroke:#181818;stroke-width:0.5;stroke-dasharray:5.0,5.0;" x1="694" x2="694" y1="92.6719" y2="1586.9766"/><line style="stroke:#181818;stroke-width:0.5;stroke-dasharray:5.0,5.0;" x1="863" x2="863" y1="92.6719" y2="1586.9766"/><line style="stroke:#181818;stroke-width:0.5;stroke-dasharray:5.0,5.0;" x1="948" x2="948" y1="92.6719" y2="1586.9766"/><line style="stroke:#181818;stroke-width:0.5;stroke-dasharray:5.0,5.0;" x1="1018" x2="1018" y1="92.6719" y2="1586.9766"/><line style="stroke:#181818;stroke-width:0.5;stroke-dasharray:5.0,5.0;" x1="1110" x2="1110" y1="92.6719" y2="1586.9766"/><line style="stroke:#181818;stroke-width:0.5;stroke-dasharray:5.0,5.0;" x1="1199" x2="1199" y1="92.6719" y2="1586.9766"/><line style="stroke:#181818;stroke-width:0.5;stroke-dasharray:5.0,5.0;" x1="1263" x2="1263" y1="92.6719" y2="1586.9766"/><line style="stroke:#181818;stroke-width:0.5;stroke-dasharray:5.0,5.0;" x1="1341" x2="1341" y1="92.6719" y2="1586.9766"/><line style="stroke:#181818;stroke-width:0.5;stroke-dasharray:5.0,5.0;" x1="1425" x2="1425" y1="92.6719" y2="1586.9766"/><line style="stroke:#181818;stroke-width:0.5;stroke-dasharray:5.0,5.0;" x1="1533" x2="1533" y1="92.6719" y2="1586.9766"/><line style="stroke:#181818;stroke-width:0.5;stroke-dasharray:5.0,5.0;" x1="1669" x2="1669" y1="92.6719" y2="1586.9766"/><line style="stroke:#181818;stroke-width:0.5;stroke-dasharray:5.0,5.0;" x1="1765" x2="1765" y1="92.6719" y2="1586.9766"/><text fill="#000000" font-family="sans-serif" font-size="11" lengthAdjust="spacing" textLength="67" x="20" y="76.4189">Authenticated</text><text fill="#000000" font-family="sans-serif" font-size="11" lengthAdjust="spacing" textLength="23" x="42" y="90.2549">User</text><ellipse cx="56.5" cy="13.5" fill="#E2E2F0" rx="8" ry="8" style="stroke:#181818;stroke-width:0.5;"/><path d="M56.5,21.5 L56.5,48.5 M43.5,29.5 L69.5,29.5 M56.5,48.5 L43.5,63.5 M56.5,48.5 L69.5,63.5 " fill="none" style="stroke:#181818;stroke-width:0.5;"/><text fill="#000000" font-family="sans-serif" font-size="11" font-style="italic" lengthAdjust="spacing" textLength="31" x="190" y="76.4189">&#171;dart&#187;</text><text fill="#000000" font-family="sans-serif" font-size="11" lengthAdjust="spacing" textLength="73" x="169" y="90.2549">AddEventView</text><path d="M188,37 L188,61 M188,49 L205,49 " fill="none" style="stroke:#181818;stroke-width:0.5;"/><ellipse cx="217" cy="49" fill="#E2E2F0" rx="12" ry="12" style="stroke:#181818;stroke-width:0.5;"/><text fill="#000000" font-family="sans-serif" font-size="11" lengthAdjust="spacing" textLength="101" x="258" y="90.2549">AddEventViewModel</text><ellipse cx="311.5" cy="62.8359" fill="#E2E2F0" rx="12" ry="12" style="stroke:#181818;stroke-width:0.5;"/><polygon fill="#181818" points="307.5,50.8359,313.5,45.8359,311.5,50.8359,313.5,55.8359,307.5,50.8359" style="stroke:#181818;stroke-width:1.0;"/><text fill="#000000" font-family="sans-serif" font-size="11" lengthAdjust="spacing" textLength="79" x="375" y="90.2549">EventRepository</text><ellipse cx="417.5" cy="62.8359" fill="#E2E2F0" rx="12" ry="12" style="stroke:#181818;stroke-width:0.5;"/><polygon fill="#181818" points="413.5,50.8359,419.5,45.8359,417.5,50.8359,419.5,55.8359,413.5,50.8359" style="stroke:#181818;stroke-width:1.0;"/><text fill="#000000" font-family="sans-serif" font-size="11" lengthAdjust="spacing" textLength="93" x="470" y="90.2549">LocationRepository</text><ellipse cx="519.5" cy="62.8359" fill="#E2E2F0" rx="12" ry="12" style="stroke:#181818;stroke-width:0.5;"/><polygon fill="#181818" points="515.5,50.8359,521.5,45.8359,519.5,50.8359,521.5,55.8359,515.5,50.8359" style="stroke:#181818;stroke-width:1.0;"/><text fill="#000000" font-family="sans-serif" font-size="11" lengthAdjust="spacing" textLength="75" x="579" y="90.2549">StorageService</text><ellipse cx="619.5" cy="62.8359" fill="#E2E2F0" rx="12" ry="12" style="stroke:#181818;stroke-width:0.5;"/><polygon fill="#181818" points="615.5,50.8359,621.5,45.8359,619.5,50.8359,621.5,55.8359,615.5,50.8359" style="stroke:#181818;stroke-width:1.0;"/><text fill="#000000" font-family="sans-serif" font-size="11" lengthAdjust="spacing" textLength="42" x="670" y="90.2549">ApiClient</text><ellipse cx="694" cy="62.8359" fill="#E2E2F0" rx="12" ry="12" style="stroke:#181818;stroke-width:0.5;"/><polygon fill="#181818" points="690,50.8359,696,45.8359,694,50.8359,696,55.8359,690,50.8359" style="stroke:#181818;stroke-width:1.0;"/><text fill="#000000" font-family="sans-serif" font-size="11" lengthAdjust="spacing" textLength="75" x="823" y="90.2549">SupabaseClient</text><ellipse cx="863.5" cy="62.8359" fill="#E2E2F0" rx="12" ry="12" style="stroke:#181818;stroke-width:0.5;"/><polygon fill="#181818" points="859.5,50.8359,865.5,45.8359,863.5,50.8359,865.5,55.8359,859.5,50.8359" style="stroke:#181818;stroke-width:1.0;"/><text fill="#000000" font-family="sans-serif" font-size="11" lengthAdjust="spacing" textLength="63" x="914" y="90.2549">image_picker</text><ellipse cx="948.5" cy="62.8359" fill="#E2E2F0" rx="12" ry="12" style="stroke:#181818;stroke-width:0.5;"/><polygon fill="#181818" points="944.5,50.8359,950.5,45.8359,948.5,50.8359,950.5,55.8359,944.5,50.8359" style="stroke:#181818;stroke-width:1.0;"/><text fill="#000000" font-family="sans-serif" font-size="11" lengthAdjust="spacing" textLength="45" x="993" y="90.2549">FilePicker</text><ellipse cx="1018.5" cy="62.8359" fill="#E2E2F0" rx="12" ry="12" style="stroke:#181818;stroke-width:0.5;"/><polygon fill="#181818" points="1014.5,50.8359,1020.5,45.8359,1018.5,50.8359,1020.5,55.8359,1014.5,50.8359" style="stroke:#181818;stroke-width:1.0;"/><text fill="#000000" font-family="sans-serif" font-size="11" lengthAdjust="spacing" textLength="106" x="1054" y="90.2549">FlutterSoundRecorder</text><ellipse cx="1110" cy="62.8359" fill="#E2E2F0" rx="12" ry="12" style="stroke:#181818;stroke-width:0.5;"/><polygon fill="#181818" points="1106,50.8359,1112,45.8359,1110,50.8359,1112,55.8359,1106,50.8359" style="stroke:#181818;stroke-width:1.0;"/><text fill="#000000" font-family="sans-serif" font-size="11" lengthAdjust="spacing" textLength="41" x="1176" y="90.2549">Location</text><ellipse cx="1199.5" cy="62.8359" fill="#E2E2F0" rx="12" ry="12" style="stroke:#181818;stroke-width:0.5;"/><polygon fill="#181818" points="1195.5,50.8359,1201.5,45.8359,1199.5,50.8359,1201.5,55.8359,1195.5,50.8359" style="stroke:#181818;stroke-width:1.0;"/><text fill="#000000" font-family="sans-serif" font-size="11" lengthAdjust="spacing" textLength="55" x="1233" y="90.2549">EventModel</text><ellipse cx="1263.5" cy="62.8359" fill="#E2E2F0" rx="12" ry="12" style="stroke:#181818;stroke-width:0.5;"/><line style="stroke:#181818;stroke-width:0.5;" x1="1251.5" x2="1275.5" y1="76.8359" y2="76.8359"/><text fill="#000000" font-family="sans-serif" font-size="11" lengthAdjust="spacing" textLength="69" x="1304" y="90.2549">LocationModel</text><ellipse cx="1341.5" cy="62.8359" fill="#E2E2F0" rx="12" ry="12" style="stroke:#181818;stroke-width:0.5;"/><line style="stroke:#181818;stroke-width:0.5;" x1="1329.5" x2="1353.5" y1="76.8359" y2="76.8359"/><rect fill="#E2E2F0" height="41.6719" rx="2.5" ry="2.5" style="stroke:#181818;stroke-width:0.5;" width="73" x="1389" y="50"/><text fill="#000000" font-family="sans-serif" font-size="11" font-style="italic" lengthAdjust="spacing" textLength="41" x="1405" y="68.4189">&#171;REST&#187;</text><text fill="#000000" font-family="sans-serif" font-size="11" lengthAdjust="spacing" textLength="59" x="1396" y="82.2549">Express API</text><rect fill="#E2E2F0" height="41.6719" rx="2.5" ry="2.5" style="stroke:#181818;stroke-width:0.5;" width="75" x="1496" y="50"/><text fill="#000000" font-family="sans-serif" font-size="11" font-style="italic" lengthAdjust="spacing" textLength="38" x="1514.5" y="68.4189">&#171;ORM&#187;</text><text fill="#000000" font-family="sans-serif" font-size="11" lengthAdjust="spacing" textLength="61" x="1503" y="82.2549">Prisma Client</text><text fill="#000000" font-family="sans-serif" font-size="11" lengthAdjust="spacing" textLength="51" x="1641" y="90.2549">postgresql</text><path d="M1651.5,42.8359 C1651.5,32.8359 1669.5,32.8359 1669.5,32.8359 C1669.5,32.8359 1687.5,32.8359 1687.5,42.8359 L1687.5,68.8359 C1687.5,78.8359 1669.5,78.8359 1669.5,78.8359 C1669.5,78.8359 1651.5,78.8359 1651.5,68.8359 L1651.5,42.8359 " fill="#E2E2F0" style="stroke:#181818;stroke-width:1.5;"/><path d="M1651.5,42.8359 C1651.5,52.8359 1669.5,52.8359 1669.5,52.8359 C1669.5,52.8359 1687.5,52.8359 1687.5,42.8359 " fill="none" style="stroke:#181818;stroke-width:1.5;"/><rect fill="#E2E2F0" height="27.8359" rx="2.5" ry="2.5" style="stroke:#181818;stroke-width:0.5;" width="115" x="1708" y="63.8359"/><text fill="#000000" font-family="sans-serif" font-size="11" lengthAdjust="spacing" textLength="101" x="1715" y="82.2549">AddEventViewModel</text><rect fill="#FFFFFF" height="1446.4688" style="stroke:#181818;stroke-width:1.0;" width="10" x="203.5" y="122.5078"/><rect fill="#FFFFFF" height="278.3594" style="stroke:#181818;stroke-width:1.0;" width="10" x="412.5" y="1234.9453"/><rect fill="#FFFFFF" height="264.5234" style="stroke:#181818;stroke-width:1.0;" width="10" x="514.5" y="942.5859"/><rect fill="#FFFFFF" height="83.5078" style="stroke:#181818;stroke-width:1.0;" width="10" x="614.5" y="719.8984"/><rect fill="#FFFFFF" height="83.5078" style="stroke:#181818;stroke-width:1.0;" width="10" x="614.5" y="831.2422"/><rect fill="#FFFFFF" height="181.0156" style="stroke:#181818;stroke-width:1.0;" width="10" x="689" y="970.4219"/><rect fill="#FFFFFF" height="194.8516" style="stroke:#181818;stroke-width:1.0;" width="10" x="689" y="1262.7813"/><rect fill="#FFFFFF" height="27.8359" style="stroke:#181818;stroke-width:1.0;" width="10" x="858.5" y="747.7344"/><rect fill="#FFFFFF" height="27.8359" style="stroke:#181818;stroke-width:1.0;" width="10" x="858.5" y="859.0781"/><rect fill="#FFFFFF" height="27.8359" style="stroke:#181818;stroke-width:1.0;" width="10" x="943.5" y="173.1797"/><rect fill="#FFFFFF" height="27.8359" style="stroke:#181818;stroke-width:1.0;" width="10" x="1013.5" y="474.375"/><rect fill="#FFFFFF" height="27.8359" style="stroke:#181818;stroke-width:1.0;" width="10" x="1105" y="545.8828"/><rect fill="#FFFFFF" height="27.8359" style="stroke:#181818;stroke-width:1.0;" width="10" x="1194.5" y="636.3906"/><rect fill="#FFFFFF" height="27.8359" style="stroke:#181818;stroke-width:1.0;" width="10" x="1258.5" y="1457.6328"/><rect fill="#FFFFFF" height="55.6719" style="stroke:#181818;stroke-width:1.0;" width="10" x="1336.5" y="1151.4375"/><rect fill="#FFFFFF" height="139.1797" style="stroke:#181818;stroke-width:1.0;" width="10" x="1420.5" y="998.2578"/><rect fill="#FFFFFF" height="139.1797" style="stroke:#181818;stroke-width:1.0;" width="10" x="1420.5" y="1290.6172"/><rect fill="#FFFFFF" height="83.5078" style="stroke:#181818;stroke-width:1.0;" width="10" x="1528.5" y="1026.0938"/><rect fill="#FFFFFF" height="83.5078" style="stroke:#181818;stroke-width:1.0;" width="10" x="1528.5" y="1318.4531"/><rect fill="#FFFFFF" height="27.8359" style="stroke:#181818;stroke-width:1.0;" width="10" x="1664.5" y="1053.9297"/><rect fill="#FFFFFF" height="27.8359" style="stroke:#181818;stroke-width:1.0;" width="10" x="1664.5" y="1346.2891"/><rect fill="#FFFFFF" height="849.0781" style="stroke:#181818;stroke-width:1.0;" width="10" x="1760.5" y="692.0625"/><polygon fill="#181818" points="191.5,118.5078,201.5,122.5078,191.5,126.5078" style="stroke:#181818;stroke-width:1.0;"/><line style="stroke:#181818;stroke-width:1.0;" x1="56.5" x2="197.5" y1="122.5078" y2="122.5078"/><text fill="#000000" font-family="sans-serif" font-size="11" lengthAdjust="spacing" textLength="28" x="63.5" y="118.0908">image</text><polygon fill="#181818" points="931.5,169.1797,941.5,173.1797,931.5,177.1797" style="stroke:#181818;stroke-width:1.0;"/><line style="stroke:#181818;stroke-width:1.0;" x1="213.5" x2="937.5" y1="173.1797" y2="173.1797"/><text fill="#000000" font-family="sans-serif" font-size="11" lengthAdjust="spacing" textLength="55" x="220.5" y="168.7627">pickImage()</text><polygon fill="#181818" points="224.5,197.0156,214.5,201.0156,224.5,205.0156" style="stroke:#181818;stroke-width:1.0;"/><line style="stroke:#181818;stroke-width:1.0;" x1="218.5" x2="947.5" y1="201.0156" y2="201.0156"/><text fill="#000000" font-family="sans-serif" font-size="11" lengthAdjust="spacing" textLength="41" x="230.5" y="196.5986">imageUri</text><polygon fill="#181818" points="191.5,224.8516,201.5,228.8516,191.5,232.8516" style="stroke:#181818;stroke-width:1.0;"/><line style="stroke:#181818;stroke-width:1.0;" x1="56.5" x2="197.5" y1="228.8516" y2="228.8516"/><text fill="#000000" font-family="sans-serif" font-size="11" lengthAdjust="spacing" textLength="16" x="63.5" y="224.4346">title</text><polygon fill="#181818" points="191.5,252.6875,201.5,256.6875,191.5,260.6875" style="stroke:#181818;stroke-width:1.0;"/><line style="stroke:#181818;stroke-width:1.0;" x1="56.5" x2="197.5" y1="256.6875" y2="256.6875"/><text fill="#000000" font-family="sans-serif" font-size="11" lengthAdjust="spacing" textLength="53" x="63.5" y="252.2705">description</text><polygon fill="#181818" points="191.5,280.5234,201.5,284.5234,191.5,288.5234" style="stroke:#181818;stroke-width:1.0;"/><line style="stroke:#181818;stroke-width:1.0;" x1="56.5" x2="197.5" y1="284.5234" y2="284.5234"/><text fill="#000000" font-family="sans-serif" font-size="11" lengthAdjust="spacing" textLength="21" x="63.5" y="280.1064">date</text><polygon fill="#181818" points="191.5,308.3594,201.5,312.3594,191.5,316.3594" style="stroke:#181818;stroke-width:1.0;"/><line style="stroke:#181818;stroke-width:1.0;" x1="56.5" x2="197.5" y1="312.3594" y2="312.3594"/><text fill="#000000" font-family="sans-serif" font-size="11" lengthAdjust="spacing" textLength="39" x="63.5" y="307.9424">startsAt</text><polygon fill="#181818" points="191.5,336.1953,201.5,340.1953,191.5,344.1953" style="stroke:#181818;stroke-width:1.0;"/><line style="stroke:#181818;stroke-width:1.0;" x1="56.5" x2="197.5" y1="340.1953" y2="340.1953"/><text fill="#000000" font-family="sans-serif" font-size="11" lengthAdjust="spacing" textLength="35" x="63.5" y="335.7783">endsAt</text><polygon fill="#181818" points="191.5,364.0313,201.5,368.0313,191.5,372.0313" style="stroke:#181818;stroke-width:1.0;"/><line style="stroke:#181818;stroke-width:1.0;" x1="56.5" x2="197.5" y1="368.0313" y2="368.0313"/><text fill="#000000" font-family="sans-serif" font-size="11" lengthAdjust="spacing" textLength="43" x="63.5" y="363.6143">category</text><polygon fill="#181818" points="191.5,391.8672,201.5,395.8672,191.5,399.8672" style="stroke:#181818;stroke-width:1.0;"/><line style="stroke:#181818;stroke-width:1.0;" x1="56.5" x2="197.5" y1="395.8672" y2="395.8672"/><text fill="#000000" font-family="sans-serif" font-size="11" lengthAdjust="spacing" textLength="28" x="63.5" y="391.4502">music</text><polygon fill="#181818" points="191.5,419.7031,201.5,423.7031,191.5,427.7031" style="stroke:#181818;stroke-width:1.0;"/><line style="stroke:#181818;stroke-width:1.0;" x1="56.5" x2="197.5" y1="423.7031" y2="423.7031"/><text fill="#000000" font-family="sans-serif" font-size="11" lengthAdjust="spacing" textLength="28" x="63.5" y="419.2861">music</text><path d="M159,438.7031 L217,438.7031 L217,444.5391 L207,454.5391 L159,454.5391 L159,438.7031 " fill="#EEEEEE" style="stroke:#000000;stroke-width:1.5;"/><rect fill="none" height="143.0156" style="stroke:#000000;stroke-width:1.5;" width="1017" x="159" y="438.7031"/><text fill="#000000" font-family="sans-serif" font-size="11" font-weight="bold" lengthAdjust="spacing" textLength="13" x="174" y="451.1221">alt</text><text fill="#000000" font-family="sans-serif" font-size="11" font-weight="bold" lengthAdjust="spacing" textLength="89" x="232" y="452.1221">[Pick Music File]</text><polygon fill="#181818" points="1001.5,470.375,1011.5,474.375,1001.5,478.375" style="stroke:#181818;stroke-width:1.0;"/><line style="stroke:#181818;stroke-width:1.0;" x1="213.5" x2="1007.5" y1="474.375" y2="474.375"/><text fill="#000000" font-family="sans-serif" font-size="11" lengthAdjust="spacing" textLength="43" x="220.5" y="469.958">pickFile()</text><polygon fill="#181818" points="224.5,498.2109,214.5,502.2109,224.5,506.2109" style="stroke:#181818;stroke-width:1.0;"/><line style="stroke:#181818;stroke-width:1.0;" x1="218.5" x2="1017.5" y1="502.2109" y2="502.2109"/><text fill="#000000" font-family="sans-serif" font-size="11" lengthAdjust="spacing" textLength="41" x="230.5" y="497.7939">musicUri</text><line style="stroke:#000000;stroke-width:1.0;stroke-dasharray:2.0,2.0;" x1="159" x2="1176" y1="511.2109" y2="511.2109"/><text fill="#000000" font-family="sans-serif" font-size="11" font-weight="bold" lengthAdjust="spacing" textLength="82" x="164" y="522.6299">[Record Audio]</text><polygon fill="#181818" points="1093,541.8828,1103,545.8828,1093,549.8828" style="stroke:#181818;stroke-width:1.0;"/><line style="stroke:#181818;stroke-width:1.0;" x1="213.5" x2="1099" y1="545.8828" y2="545.8828"/><text fill="#000000" font-family="sans-serif" font-size="11" lengthAdjust="spacing" textLength="77" x="220.5" y="541.4658">openRecorder()</text><polygon fill="#181818" points="224.5,569.7188,214.5,573.7188,224.5,577.7188" style="stroke:#181818;stroke-width:1.0;"/><line style="stroke:#181818;stroke-width:1.0;" x1="218.5" x2="1109" y1="573.7188" y2="573.7188"/><text fill="#000000" font-family="sans-serif" font-size="11" lengthAdjust="spacing" textLength="41" x="230.5" y="569.3018">musicUri</text><polygon fill="#181818" points="191.5,604.5547,201.5,608.5547,191.5,612.5547" style="stroke:#181818;stroke-width:1.0;"/><line style="stroke:#181818;stroke-width:1.0;" x1="56.5" x2="197.5" y1="608.5547" y2="608.5547"/><text fill="#000000" font-family="sans-serif" font-size="11" lengthAdjust="spacing" textLength="37" x="63.5" y="604.1377">location</text><polygon fill="#181818" points="1182.5,632.3906,1192.5,636.3906,1182.5,640.3906" style="stroke:#181818;stroke-width:1.0;"/><line style="stroke:#181818;stroke-width:1.0;" x1="213.5" x2="1188.5" y1="636.3906" y2="636.3906"/><text fill="#000000" font-family="sans-serif" font-size="11" lengthAdjust="spacing" textLength="64" x="220.5" y="631.9736">getLocation()</text><polygon fill="#181818" points="224.5,660.2266,214.5,664.2266,224.5,668.2266" style="stroke:#181818;stroke-width:1.0;"/><line style="stroke:#181818;stroke-width:1.0;" x1="218.5" x2="1198.5" y1="664.2266" y2="664.2266"/><text fill="#000000" font-family="sans-serif" font-size="11" lengthAdjust="spacing" textLength="37" x="230.5" y="659.8096">location</text><polygon fill="#181818" points="1748.5,688.0625,1758.5,692.0625,1748.5,696.0625" style="stroke:#181818;stroke-width:1.0;"/><line style="stroke:#181818;stroke-width:1.0;" x1="213.5" x2="1754.5" y1="692.0625" y2="692.0625"/><text fill="#000000" font-family="sans-serif" font-size="11" lengthAdjust="spacing" textLength="66" x="220.5" y="687.6455">createEvent()</text><polygon fill="#181818" points="635.5,715.8984,625.5,719.8984,635.5,723.8984" style="stroke:#181818;stroke-width:1.0;"/><line style="stroke:#181818;stroke-width:1.0;" x1="629.5" x2="1759.5" y1="719.8984" y2="719.8984"/><text fill="#000000" font-family="sans-serif" font-size="11" lengthAdjust="spacing" textLength="97" x="641.5" y="715.4814">uploadFile(imageUri)</text><polygon fill="#181818" points="846.5,743.7344,856.5,747.7344,846.5,751.7344" style="stroke:#181818;stroke-width:1.0;"/><line style="stroke:#181818;stroke-width:1.0;" x1="624.5" x2="852.5" y1="747.7344" y2="747.7344"/><text fill="#000000" font-family="sans-serif" font-size="11" lengthAdjust="spacing" textLength="215" x="631.5" y="743.3174">storage.from(EventImages).upload(imageUri)</text><polygon fill="#181818" points="635.5,771.5703,625.5,775.5703,635.5,779.5703" style="stroke:#181818;stroke-width:1.0;"/><line style="stroke:#181818;stroke-width:1.0;" x1="629.5" x2="862.5" y1="775.5703" y2="775.5703"/><text fill="#000000" font-family="sans-serif" font-size="11" lengthAdjust="spacing" textLength="69" x="641.5" y="771.1533">publicImageUrl</text><polygon fill="#181818" points="1748.5,799.4063,1758.5,803.4063,1748.5,807.4063" style="stroke:#181818;stroke-width:1.0;"/><line style="stroke:#181818;stroke-width:1.0;" x1="619.5" x2="1754.5" y1="803.4063" y2="803.4063"/><text fill="#000000" font-family="sans-serif" font-size="11" lengthAdjust="spacing" textLength="69" x="626.5" y="798.9893">publicImageUrl</text><polygon fill="#181818" points="635.5,827.2422,625.5,831.2422,635.5,835.2422" style="stroke:#181818;stroke-width:1.0;"/><line style="stroke:#181818;stroke-width:1.0;" x1="629.5" x2="1759.5" y1="831.2422" y2="831.2422"/><text fill="#000000" font-family="sans-serif" font-size="11" lengthAdjust="spacing" textLength="97" x="641.5" y="826.8252">uploadFile(musicUri)</text><polygon fill="#181818" points="846.5,855.0781,856.5,859.0781,846.5,863.0781" style="stroke:#181818;stroke-width:1.0;"/><line style="stroke:#181818;stroke-width:1.0;" x1="624.5" x2="852.5" y1="859.0781" y2="859.0781"/><text fill="#000000" font-family="sans-serif" font-size="11" lengthAdjust="spacing" textLength="209" x="631.5" y="854.6611">storage.from(EventMusic).upload(musicUri)</text><polygon fill="#181818" points="635.5,882.9141,625.5,886.9141,635.5,890.9141" style="stroke:#181818;stroke-width:1.0;"/><line style="stroke:#181818;stroke-width:1.0;" x1="629.5" x2="862.5" y1="886.9141" y2="886.9141"/><text fill="#000000" font-family="sans-serif" font-size="11" lengthAdjust="spacing" textLength="69" x="641.5" y="882.4971">publicMusicUrl</text><polygon fill="#181818" points="1748.5,910.75,1758.5,914.75,1748.5,918.75" style="stroke:#181818;stroke-width:1.0;"/><line style="stroke:#181818;stroke-width:1.0;" x1="619.5" x2="1754.5" y1="914.75" y2="914.75"/><text fill="#000000" font-family="sans-serif" font-size="11" lengthAdjust="spacing" textLength="69" x="626.5" y="910.333">publicMusicUrl</text><polygon fill="#181818" points="535.5,938.5859,525.5,942.5859,535.5,946.5859" style="stroke:#181818;stroke-width:1.0;"/><line style="stroke:#181818;stroke-width:1.0;" x1="529.5" x2="1759.5" y1="942.5859" y2="942.5859"/><text fill="#000000" font-family="sans-serif" font-size="11" lengthAdjust="spacing" textLength="80" x="541.5" y="938.1689">createLocation()</text><polygon fill="#181818" points="677,966.4219,687,970.4219,677,974.4219" style="stroke:#181818;stroke-width:1.0;"/><line style="stroke:#181818;stroke-width:1.0;" x1="524.5" x2="683" y1="970.4219" y2="970.4219"/><text fill="#000000" font-family="sans-serif" font-size="11" lengthAdjust="spacing" textLength="80" x="531.5" y="966.0049">createLocation()</text><polygon fill="#181818" points="1408.5,994.2578,1418.5,998.2578,1408.5,1002.2578" style="stroke:#181818;stroke-width:1.0;"/><line style="stroke:#181818;stroke-width:1.0;" x1="699" x2="1414.5" y1="998.2578" y2="998.2578"/><text fill="#000000" font-family="sans-serif" font-size="11" lengthAdjust="spacing" textLength="93" x="706" y="993.8408">POST /api/locations</text><polygon fill="#181818" points="1516.5,1022.0938,1526.5,1026.0938,1516.5,1030.0938" style="stroke:#181818;stroke-width:1.0;"/><line style="stroke:#181818;stroke-width:1.0;" x1="1430.5" x2="1522.5" y1="1026.0938" y2="1026.0938"/><text fill="#000000" font-family="sans-serif" font-size="11" lengthAdjust="spacing" textLength="79" x="1437.5" y="1021.6768">location.create()</text><polygon fill="#181818" points="1652.5,1049.9297,1662.5,1053.9297,1652.5,1057.9297" style="stroke:#181818;stroke-width:1.0;"/><line style="stroke:#181818;stroke-width:1.0;" x1="1538.5" x2="1658.5" y1="1053.9297" y2="1053.9297"/><text fill="#000000" font-family="sans-serif" font-size="11" lengthAdjust="spacing" textLength="107" x="1545.5" y="1049.5127">INSERT INTO locations</text><polygon fill="#181818" points="1549.5,1077.7656,1539.5,1081.7656,1549.5,1085.7656" style="stroke:#181818;stroke-width:1.0;"/><line style="stroke:#181818;stroke-width:1.0;" x1="1543.5" x2="1668.5" y1="1081.7656" y2="1081.7656"/><text fill="#000000" font-family="sans-serif" font-size="11" lengthAdjust="spacing" textLength="45" x="1555.5" y="1077.3486">locationId</text><polygon fill="#181818" points="1441.5,1105.6016,1431.5,1109.6016,1441.5,1113.6016" style="stroke:#181818;stroke-width:1.0;"/><line style="stroke:#181818;stroke-width:1.0;" x1="1435.5" x2="1532.5" y1="1109.6016" y2="1109.6016"/><text fill="#000000" font-family="sans-serif" font-size="11" lengthAdjust="spacing" textLength="37" x="1447.5" y="1105.1846">location</text><polygon fill="#181818" points="710,1133.4375,700,1137.4375,710,1141.4375" style="stroke:#181818;stroke-width:1.0;"/><line style="stroke:#181818;stroke-width:1.0;" x1="704" x2="1424.5" y1="1137.4375" y2="1137.4375"/><text fill="#000000" font-family="sans-serif" font-size="11" lengthAdjust="spacing" textLength="145" x="716" y="1133.0205">{data: location, success: true}</text><polygon fill="#181818" points="1324.5,1147.4375,1334.5,1151.4375,1324.5,1155.4375" style="stroke:#181818;stroke-width:1.0;"/><line style="stroke:#181818;stroke-width:1.0;" x1="694" x2="1330.5" y1="1151.4375" y2="1151.4375"/><polygon fill="#181818" points="535.5,1175.2734,525.5,1179.2734,535.5,1183.2734" style="stroke:#181818;stroke-width:1.0;"/><line style="stroke:#181818;stroke-width:1.0;" x1="529.5" x2="1335.5" y1="1179.2734" y2="1179.2734"/><text fill="#000000" font-family="sans-serif" font-size="11" lengthAdjust="spacing" textLength="37" x="541.5" y="1174.8564">location</text><polygon fill="#181818" points="1748.5,1203.1094,1758.5,1207.1094,1748.5,1211.1094" style="stroke:#181818;stroke-width:1.0;"/><line style="stroke:#181818;stroke-width:1.0;" x1="519.5" x2="1754.5" y1="1207.1094" y2="1207.1094"/><text fill="#000000" font-family="sans-serif" font-size="11" lengthAdjust="spacing" textLength="37" x="526.5" y="1202.6924">location</text><polygon fill="#181818" points="433.5,1230.9453,423.5,1234.9453,433.5,1238.9453" style="stroke:#181818;stroke-width:1.0;"/><line style="stroke:#181818;stroke-width:1.0;" x1="427.5" x2="1759.5" y1="1234.9453" y2="1234.9453"/><text fill="#000000" font-family="sans-serif" font-size="11" lengthAdjust="spacing" textLength="66" x="439.5" y="1230.5283">createEvent()</text><polygon fill="#181818" points="677,1258.7813,687,1262.7813,677,1266.7813" style="stroke:#181818;stroke-width:1.0;"/><line style="stroke:#181818;stroke-width:1.0;" x1="422.5" x2="683" y1="1262.7813" y2="1262.7813"/><text fill="#000000" font-family="sans-serif" font-size="11" lengthAdjust="spacing" textLength="66" x="429.5" y="1258.3643">createEvent()</text><polygon fill="#181818" points="1408.5,1286.6172,1418.5,1290.6172,1408.5,1294.6172" style="stroke:#181818;stroke-width:1.0;"/><line style="stroke:#181818;stroke-width:1.0;" x1="699" x2="1414.5" y1="1290.6172" y2="1290.6172"/><text fill="#000000" font-family="sans-serif" font-size="11" lengthAdjust="spacing" textLength="83" x="706" y="1286.2002">POST /api/events</text><polygon fill="#181818" points="1516.5,1314.4531,1526.5,1318.4531,1516.5,1322.4531" style="stroke:#181818;stroke-width:1.0;"/><line style="stroke:#181818;stroke-width:1.0;" x1="1430.5" x2="1522.5" y1="1318.4531" y2="1318.4531"/><text fill="#000000" font-family="sans-serif" font-size="11" lengthAdjust="spacing" textLength="69" x="1437.5" y="1314.0361">event.create()</text><polygon fill="#181818" points="1652.5,1342.2891,1662.5,1346.2891,1652.5,1350.2891" style="stroke:#181818;stroke-width:1.0;"/><line style="stroke:#181818;stroke-width:1.0;" x1="1538.5" x2="1658.5" y1="1346.2891" y2="1346.2891"/><text fill="#000000" font-family="sans-serif" font-size="11" lengthAdjust="spacing" textLength="97" x="1545.5" y="1341.8721">INSERT INTO events</text><polygon fill="#181818" points="1549.5,1370.125,1539.5,1374.125,1549.5,1378.125" style="stroke:#181818;stroke-width:1.0;"/><line style="stroke:#181818;stroke-width:1.0;" x1="1543.5" x2="1668.5" y1="1374.125" y2="1374.125"/><text fill="#000000" font-family="sans-serif" font-size="11" lengthAdjust="spacing" textLength="35" x="1555.5" y="1369.708">eventId</text><polygon fill="#181818" points="1441.5,1397.9609,1431.5,1401.9609,1441.5,1405.9609" style="stroke:#181818;stroke-width:1.0;"/><line style="stroke:#181818;stroke-width:1.0;" x1="1435.5" x2="1532.5" y1="1401.9609" y2="1401.9609"/><text fill="#000000" font-family="sans-serif" font-size="11" lengthAdjust="spacing" textLength="27" x="1447.5" y="1397.5439">event</text><polygon fill="#181818" points="710,1425.7969,700,1429.7969,710,1433.7969" style="stroke:#181818;stroke-width:1.0;"/><line style="stroke:#181818;stroke-width:1.0;" x1="704" x2="1424.5" y1="1429.7969" y2="1429.7969"/><text fill="#000000" font-family="sans-serif" font-size="11" lengthAdjust="spacing" textLength="135" x="716" y="1425.3799">{data: event, success: true}</text><polygon fill="#181818" points="1246.5,1453.6328,1256.5,1457.6328,1246.5,1461.6328" style="stroke:#181818;stroke-width:1.0;"/><line style="stroke:#181818;stroke-width:1.0;" x1="694" x2="1252.5" y1="1457.6328" y2="1457.6328"/><text fill="#000000" font-family="sans-serif" font-size="11" lengthAdjust="spacing" textLength="27" x="701" y="1453.2158">event</text><polygon fill="#181818" points="433.5,1481.4688,423.5,1485.4688,433.5,1489.4688" style="stroke:#181818;stroke-width:1.0;"/><line style="stroke:#181818;stroke-width:1.0;" x1="427.5" x2="1262.5" y1="1485.4688" y2="1485.4688"/><text fill="#000000" font-family="sans-serif" font-size="11" lengthAdjust="spacing" textLength="27" x="439.5" y="1481.0518">event</text><polygon fill="#181818" points="1748.5,1509.3047,1758.5,1513.3047,1748.5,1517.3047" style="stroke:#181818;stroke-width:1.0;"/><line style="stroke:#181818;stroke-width:1.0;" x1="417.5" x2="1754.5" y1="1513.3047" y2="1513.3047"/><text fill="#000000" font-family="sans-serif" font-size="11" lengthAdjust="spacing" textLength="27" x="424.5" y="1508.8877">event</text><polygon fill="#181818" points="224.5,1537.1406,214.5,1541.1406,224.5,1545.1406" style="stroke:#181818;stroke-width:1.0;"/><line style="stroke:#181818;stroke-width:1.0;" x1="218.5" x2="1764.5" y1="1541.1406" y2="1541.1406"/><text fill="#000000" font-family="sans-serif" font-size="11" lengthAdjust="spacing" textLength="27" x="230.5" y="1536.7236">event</text><polygon fill="#181818" points="67.5,1564.9766,57.5,1568.9766,67.5,1572.9766" style="stroke:#181818;stroke-width:1.0;"/><line style="stroke:#181818;stroke-width:1.0;" x1="61.5" x2="207.5" y1="1568.9766" y2="1568.9766"/><text fill="#000000" font-family="sans-serif" font-size="11" lengthAdjust="spacing" textLength="123" x="73.5" y="1564.5596">showSuccessMessage()</text><!--SRC=[hLVVInmn47xFNn5yKcWLNqK44OM3Nbtkj4-5ikx6Qp2tsIPPxRNqV-yasH-JREvkhrLGIV9zCvEPByciVk5LdQjyJRNP20P_5IzCinP4zoibUyuROUvaPPRy5wFdvsXH6wQOD9kQPL9pmsL5ZQm9oGiZ5JswRintLXbUv8QLNwj7pTGHpJKDvkqi8K-ogSfSRO1KbhUliFg5ipUFHXFqyf82pD2hAq8AY4b94LBcicGYuDrucB1kUefRMR3QXYtLnX6YkG7yIKAaiBa8FvuUA4iOvYksPEgL5yp1moaKVSrl10VNFkfkX6mrTVwKQuPGuHJQ5r-3YsyrBrxQNBk9p8q7r1qNxPp334C44Os1wYvjNHQiaAhim8c5SQg2115YgsqsRTg74Wt37j5n1b0mGmWe3vJ3wxmoOEzdhPY6h6KpdxriPYMok5q-M8a4s4nnlSufocBjPu1mlvXRV9aRbrOA1JKhiFm379AHNEd7gr2L5pxD87nXgCqadRand0F-2gm0JG8gc48b0aksTevzV3BmSHKnV4iWZugJaYNPatO3fH1i4h9akb2yTbMUX8UrIK1je7Rwsam2iwgS2hLhAtjKfu3NZUR5H0LuR2-0kHswaqKe_CGr7uvSMt8x0HMtsBvkw5pQUSJPujxMtI9HxP4D9a3P_iZ25LnocOuiSRx1lgnPrGr7SQQk11TnojO1iQViGgsd5KHqjq-ym-v20SoAcMw4Zrj_SVNG7UPHmCE55_iSFL5MYee1oKrZvoCe6PF1OlYSWBcc5Z8ldOwwIm1PZLwVY6tj1K-AEu4ESlgivFhO-NVNaZuvzPwINi9tARAPYhfkdWGlPjwKmCcCROqYJkLqXxam0OSdjLFfEoVLNHHzJbDE_Z6dSs_glNAQD3Sbf-CsgTV-hhE7kgg41HjgrocbpA7Zr3TKP61OEhGA5pIxXqxXBA_vMNUUDQ9cCs9XW6vRXU7OdtgNE7AF8ItKalek0eYppylRnGFyUxYd2L-euq2qbETPYKk0URrZlxVK3TN6sEuAf_2tRNu6qWUgcwA0tWgw0TMmFzY8omlEPTYYOMIV_55zstOk66wLYuWlv4WA2TNkkfz7SIP4bnPpz8sm_HQFFoPYObB0uxUWpzzExJBBsoDSX_alrSPUzalMCIRhrQ4F4gjZ7AJKuOiZvJ0XL_I9WhX99OpCnTpzeasRsAlAk1qUxMjdI-4iZ1egUAk-oxUbJ-qSVlqdoHQhPFZv2m00]--></g></svg>