<?xml version="1.0" encoding="us-ascii" standalone="no"?><svg xmlns="http://www.w3.org/2000/svg" xmlns:xlink="http://www.w3.org/1999/xlink" contentStyleType="text/css" height="1482px" preserveAspectRatio="none" style="width:1929px;height:1482px;background:#FFFFFF;" version="1.1" viewBox="0 0 1929 1482" width="1929px" zoomAndPan="magnify"><defs/><g><rect fill="#FFFFFF" height="1335.125" style="stroke:#181818;stroke-width:1.0;" width="10" x="203.5" y="122.5078"/><rect fill="#FFFFFF" height="278.3594" style="stroke:#181818;stroke-width:1.0;" width="10" x="412.5" y="1123.6016"/><rect fill="#FFFFFF" height="264.5234" style="stroke:#181818;stroke-width:1.0;" width="10" x="514.5" y="831.2422"/><rect fill="#FFFFFF" height="27.8359" style="stroke:#181818;stroke-width:1.0;" width="10" x="614.5" y="719.8984"/><rect fill="#FFFFFF" height="27.8359" style="stroke:#181818;stroke-width:1.0;" width="10" x="614.5" y="775.5703"/><rect fill="#FFFFFF" height="181.0156" style="stroke:#181818;stroke-width:1.0;" width="10" x="768" y="859.0781"/><rect fill="#FFFFFF" height="194.8516" style="stroke:#181818;stroke-width:1.0;" width="10" x="768" y="1151.4375"/><rect fill="#FFFFFF" height="27.8359" style="stroke:#181818;stroke-width:1.0;" width="10" x="927.5" y="173.1797"/><rect fill="#FFFFFF" height="27.8359" style="stroke:#181818;stroke-width:1.0;" width="10" x="997.5" y="474.375"/><rect fill="#FFFFFF" height="27.8359" style="stroke:#181818;stroke-width:1.0;" width="10" x="1089" y="545.8828"/><rect fill="#FFFFFF" height="27.8359" style="stroke:#181818;stroke-width:1.0;" width="10" x="1178.5" y="636.3906"/><rect fill="#FFFFFF" height="27.8359" style="stroke:#181818;stroke-width:1.0;" width="10" x="1242.5" y="1346.2891"/><rect fill="#FFFFFF" height="55.6719" style="stroke:#181818;stroke-width:1.0;" width="10" x="1320.5" y="1040.0938"/><rect fill="#FFFFFF" height="139.1797" style="stroke:#181818;stroke-width:1.0;" width="10" x="1520.5" y="886.9141"/><rect fill="#FFFFFF" height="139.1797" style="stroke:#181818;stroke-width:1.0;" width="10" x="1520.5" y="1179.2734"/><rect fill="#FFFFFF" height="83.5078" style="stroke:#181818;stroke-width:1.0;" width="10" x="1628.5" y="914.75"/><rect fill="#FFFFFF" height="83.5078" style="stroke:#181818;stroke-width:1.0;" width="10" x="1628.5" y="1207.1094"/><rect fill="#FFFFFF" height="27.8359" style="stroke:#181818;stroke-width:1.0;" width="10" x="1764.5" y="942.5859"/><rect fill="#FFFFFF" height="27.8359" style="stroke:#181818;stroke-width:1.0;" width="10" x="1764.5" y="1234.9453"/><rect fill="#FFFFFF" height="737.7344" style="stroke:#181818;stroke-width:1.0;" width="10" x="1860.5" y="692.0625"/><rect fill="none" height="143.0156" style="stroke:#000000;stroke-width:1.5;" width="1001" x="159" y="438.7031"/><line style="stroke:#181818;stroke-width:0.5;stroke-dasharray:5.0,5.0;" x1="56" x2="56" y1="92.6719" y2="1475.6328"/><line style="stroke:#181818;stroke-width:0.5;stroke-dasharray:5.0,5.0;" x1="208" x2="208" y1="92.6719" y2="1475.6328"/><line style="stroke:#181818;stroke-width:0.5;stroke-dasharray:5.0,5.0;" x1="311" x2="311" y1="92.6719" y2="1475.6328"/><line style="stroke:#181818;stroke-width:0.5;stroke-dasharray:5.0,5.0;" x1="417" x2="417" y1="92.6719" y2="1475.6328"/><line style="stroke:#181818;stroke-width:0.5;stroke-dasharray:5.0,5.0;" x1="519" x2="519" y1="92.6719" y2="1475.6328"/><line style="stroke:#181818;stroke-width:0.5;stroke-dasharray:5.0,5.0;" x1="619" x2="619" y1="92.6719" y2="1475.6328"/><line style="stroke:#181818;stroke-width:0.5;stroke-dasharray:5.0,5.0;" x1="704" x2="704" y1="92.6719" y2="1475.6328"/><line style="stroke:#181818;stroke-width:0.5;stroke-dasharray:5.0,5.0;" x1="773" x2="773" y1="92.6719" y2="1475.6328"/><line style="stroke:#181818;stroke-width:0.5;stroke-dasharray:5.0,5.0;" x1="847" x2="847" y1="92.6719" y2="1475.6328"/><line style="stroke:#181818;stroke-width:0.5;stroke-dasharray:5.0,5.0;" x1="932" x2="932" y1="92.6719" y2="1475.6328"/><line style="stroke:#181818;stroke-width:0.5;stroke-dasharray:5.0,5.0;" x1="1002" x2="1002" y1="92.6719" y2="1475.6328"/><line style="stroke:#181818;stroke-width:0.5;stroke-dasharray:5.0,5.0;" x1="1094" x2="1094" y1="92.6719" y2="1475.6328"/><line style="stroke:#181818;stroke-width:0.5;stroke-dasharray:5.0,5.0;" x1="1183" x2="1183" y1="92.6719" y2="1475.6328"/><line style="stroke:#181818;stroke-width:0.5;stroke-dasharray:5.0,5.0;" x1="1247" x2="1247" y1="92.6719" y2="1475.6328"/><line style="stroke:#181818;stroke-width:0.5;stroke-dasharray:5.0,5.0;" x1="1325" x2="1325" y1="92.6719" y2="1475.6328"/><line style="stroke:#181818;stroke-width:0.5;stroke-dasharray:5.0,5.0;" x1="1426" x2="1426" y1="92.6719" y2="1475.6328"/><line style="stroke:#181818;stroke-width:0.5;stroke-dasharray:5.0,5.0;" x1="1525" x2="1525" y1="92.6719" y2="1475.6328"/><line style="stroke:#181818;stroke-width:0.5;stroke-dasharray:5.0,5.0;" x1="1633" x2="1633" y1="92.6719" y2="1475.6328"/><line style="stroke:#181818;stroke-width:0.5;stroke-dasharray:5.0,5.0;" x1="1769" x2="1769" y1="92.6719" y2="1475.6328"/><line style="stroke:#181818;stroke-width:0.5;stroke-dasharray:5.0,5.0;" x1="1865" x2="1865" y1="92.6719" y2="1475.6328"/><text fill="#000000" font-family="sans-serif" font-size="11" lengthAdjust="spacing" textLength="67" x="20" y="76.4189">Authenticated</text><text fill="#000000" font-family="sans-serif" font-size="11" lengthAdjust="spacing" textLength="23" x="42" y="90.2549">User</text><ellipse cx="56.5" cy="13.5" fill="#E2E2F0" rx="8" ry="8" style="stroke:#181818;stroke-width:0.5;"/><path d="M56.5,21.5 L56.5,48.5 M43.5,29.5 L69.5,29.5 M56.5,48.5 L43.5,63.5 M56.5,48.5 L69.5,63.5 " fill="none" style="stroke:#181818;stroke-width:0.5;"/><text fill="#000000" font-family="sans-serif" font-size="11" font-style="italic" lengthAdjust="spacing" textLength="31" x="190" y="76.4189">&#171;dart&#187;</text><text fill="#000000" font-family="sans-serif" font-size="11" lengthAdjust="spacing" textLength="73" x="169" y="90.2549">AddEventView</text><path d="M188,37 L188,61 M188,49 L205,49 " fill="none" style="stroke:#181818;stroke-width:0.5;"/><ellipse cx="217" cy="49" fill="#E2E2F0" rx="12" ry="12" style="stroke:#181818;stroke-width:0.5;"/><text fill="#000000" font-family="sans-serif" font-size="11" lengthAdjust="spacing" textLength="101" x="258" y="90.2549">AddEventViewModel</text><ellipse cx="311.5" cy="62.8359" fill="#E2E2F0" rx="12" ry="12" style="stroke:#181818;stroke-width:0.5;"/><polygon fill="#181818" points="307.5,50.8359,313.5,45.8359,311.5,50.8359,313.5,55.8359,307.5,50.8359" style="stroke:#181818;stroke-width:1.0;"/><text fill="#000000" font-family="sans-serif" font-size="11" lengthAdjust="spacing" textLength="79" x="375" y="90.2549">EventRepository</text><ellipse cx="417.5" cy="62.8359" fill="#E2E2F0" rx="12" ry="12" style="stroke:#181818;stroke-width:0.5;"/><polygon fill="#181818" points="413.5,50.8359,419.5,45.8359,417.5,50.8359,419.5,55.8359,413.5,50.8359" style="stroke:#181818;stroke-width:1.0;"/><text fill="#000000" font-family="sans-serif" font-size="11" lengthAdjust="spacing" textLength="93" x="470" y="90.2549">LocationRepository</text><ellipse cx="519.5" cy="62.8359" fill="#E2E2F0" rx="12" ry="12" style="stroke:#181818;stroke-width:0.5;"/><polygon fill="#181818" points="515.5,50.8359,521.5,45.8359,519.5,50.8359,521.5,55.8359,515.5,50.8359" style="stroke:#181818;stroke-width:1.0;"/><text fill="#000000" font-family="sans-serif" font-size="11" lengthAdjust="spacing" textLength="75" x="579" y="90.2549">StorageService</text><ellipse cx="619.5" cy="62.8359" fill="#E2E2F0" rx="12" ry="12" style="stroke:#181818;stroke-width:0.5;"/><polygon fill="#181818" points="615.5,50.8359,621.5,45.8359,619.5,50.8359,621.5,55.8359,615.5,50.8359" style="stroke:#181818;stroke-width:1.0;"/><text fill="#000000" font-family="sans-serif" font-size="11" lengthAdjust="spacing" textLength="63" x="670" y="90.2549">UserProvider</text><ellipse cx="704.5" cy="62.8359" fill="#E2E2F0" rx="12" ry="12" style="stroke:#181818;stroke-width:0.5;"/><polygon fill="#181818" points="700.5,50.8359,706.5,45.8359,704.5,50.8359,706.5,55.8359,700.5,50.8359" style="stroke:#181818;stroke-width:1.0;"/><text fill="#000000" font-family="sans-serif" font-size="11" lengthAdjust="spacing" textLength="42" x="749" y="90.2549">ApiClient</text><ellipse cx="773" cy="62.8359" fill="#E2E2F0" rx="12" ry="12" style="stroke:#181818;stroke-width:0.5;"/><polygon fill="#181818" points="769,50.8359,775,45.8359,773,50.8359,775,55.8359,769,50.8359" style="stroke:#181818;stroke-width:1.0;"/><text fill="#000000" font-family="sans-serif" font-size="11" lengthAdjust="spacing" textLength="75" x="807" y="90.2549">SupabaseClient</text><ellipse cx="847.5" cy="62.8359" fill="#E2E2F0" rx="12" ry="12" style="stroke:#181818;stroke-width:0.5;"/><polygon fill="#181818" points="843.5,50.8359,849.5,45.8359,847.5,50.8359,849.5,55.8359,843.5,50.8359" style="stroke:#181818;stroke-width:1.0;"/><text fill="#000000" font-family="sans-serif" font-size="11" lengthAdjust="spacing" textLength="63" x="898" y="90.2549">image_picker</text><ellipse cx="932.5" cy="62.8359" fill="#E2E2F0" rx="12" ry="12" style="stroke:#181818;stroke-width:0.5;"/><polygon fill="#181818" points="928.5,50.8359,934.5,45.8359,932.5,50.8359,934.5,55.8359,928.5,50.8359" style="stroke:#181818;stroke-width:1.0;"/><text fill="#000000" font-family="sans-serif" font-size="11" lengthAdjust="spacing" textLength="45" x="977" y="90.2549">FilePicker</text><ellipse cx="1002.5" cy="62.8359" fill="#E2E2F0" rx="12" ry="12" style="stroke:#181818;stroke-width:0.5;"/><polygon fill="#181818" points="998.5,50.8359,1004.5,45.8359,1002.5,50.8359,1004.5,55.8359,998.5,50.8359" style="stroke:#181818;stroke-width:1.0;"/><text fill="#000000" font-family="sans-serif" font-size="11" lengthAdjust="spacing" textLength="106" x="1038" y="90.2549">FlutterSoundRecorder</text><ellipse cx="1094" cy="62.8359" fill="#E2E2F0" rx="12" ry="12" style="stroke:#181818;stroke-width:0.5;"/><polygon fill="#181818" points="1090,50.8359,1096,45.8359,1094,50.8359,1096,55.8359,1090,50.8359" style="stroke:#181818;stroke-width:1.0;"/><text fill="#000000" font-family="sans-serif" font-size="11" lengthAdjust="spacing" textLength="41" x="1160" y="90.2549">Location</text><ellipse cx="1183.5" cy="62.8359" fill="#E2E2F0" rx="12" ry="12" style="stroke:#181818;stroke-width:0.5;"/><polygon fill="#181818" points="1179.5,50.8359,1185.5,45.8359,1183.5,50.8359,1185.5,55.8359,1179.5,50.8359" style="stroke:#181818;stroke-width:1.0;"/><text fill="#000000" font-family="sans-serif" font-size="11" lengthAdjust="spacing" textLength="55" x="1217" y="90.2549">EventModel</text><ellipse cx="1247.5" cy="62.8359" fill="#E2E2F0" rx="12" ry="12" style="stroke:#181818;stroke-width:0.5;"/><line style="stroke:#181818;stroke-width:0.5;" x1="1235.5" x2="1259.5" y1="76.8359" y2="76.8359"/><text fill="#000000" font-family="sans-serif" font-size="11" lengthAdjust="spacing" textLength="69" x="1288" y="90.2549">LocationModel</text><ellipse cx="1325.5" cy="62.8359" fill="#E2E2F0" rx="12" ry="12" style="stroke:#181818;stroke-width:0.5;"/><line style="stroke:#181818;stroke-width:0.5;" x1="1313.5" x2="1337.5" y1="76.8359" y2="76.8359"/><text fill="#000000" font-family="sans-serif" font-size="11" lengthAdjust="spacing" textLength="100" x="1373" y="90.2549">SupabaseUserModel</text><ellipse cx="1426" cy="62.8359" fill="#E2E2F0" rx="12" ry="12" style="stroke:#181818;stroke-width:0.5;"/><line style="stroke:#181818;stroke-width:0.5;" x1="1414" x2="1438" y1="76.8359" y2="76.8359"/><rect fill="#E2E2F0" height="41.6719" rx="2.5" ry="2.5" style="stroke:#181818;stroke-width:0.5;" width="73" x="1489" y="50"/><text fill="#000000" font-family="sans-serif" font-size="11" font-style="italic" lengthAdjust="spacing" textLength="41" x="1505" y="68.4189">&#171;REST&#187;</text><text fill="#000000" font-family="sans-serif" font-size="11" lengthAdjust="spacing" textLength="59" x="1496" y="82.2549">Express API</text><rect fill="#E2E2F0" height="41.6719" rx="2.5" ry="2.5" style="stroke:#181818;stroke-width:0.5;" width="75" x="1596" y="50"/><text fill="#000000" font-family="sans-serif" font-size="11" font-style="italic" lengthAdjust="spacing" textLength="38" x="1614.5" y="68.4189">&#171;ORM&#187;</text><text fill="#000000" font-family="sans-serif" font-size="11" lengthAdjust="spacing" textLength="61" x="1603" y="82.2549">Prisma Client</text><text fill="#000000" font-family="sans-serif" font-size="11" lengthAdjust="spacing" textLength="51" x="1741" y="90.2549">postgresql</text><path d="M1751.5,42.8359 C1751.5,32.8359 1769.5,32.8359 1769.5,32.8359 C1769.5,32.8359 1787.5,32.8359 1787.5,42.8359 L1787.5,68.8359 C1787.5,78.8359 1769.5,78.8359 1769.5,78.8359 C1769.5,78.8359 1751.5,78.8359 1751.5,68.8359 L1751.5,42.8359 " fill="#E2E2F0" style="stroke:#181818;stroke-width:1.5;"/><path d="M1751.5,42.8359 C1751.5,52.8359 1769.5,52.8359 1769.5,52.8359 C1769.5,52.8359 1787.5,52.8359 1787.5,42.8359 " fill="none" style="stroke:#181818;stroke-width:1.5;"/><rect fill="#E2E2F0" height="27.8359" rx="2.5" ry="2.5" style="stroke:#181818;stroke-width:0.5;" width="115" x="1808" y="63.8359"/><text fill="#000000" font-family="sans-serif" font-size="11" lengthAdjust="spacing" textLength="101" x="1815" y="82.2549">AddEventViewModel</text><rect fill="#FFFFFF" height="1335.125" style="stroke:#181818;stroke-width:1.0;" width="10" x="203.5" y="122.5078"/><rect fill="#FFFFFF" height="278.3594" style="stroke:#181818;stroke-width:1.0;" width="10" x="412.5" y="1123.6016"/><rect fill="#FFFFFF" height="264.5234" style="stroke:#181818;stroke-width:1.0;" width="10" x="514.5" y="831.2422"/><rect fill="#FFFFFF" height="27.8359" style="stroke:#181818;stroke-width:1.0;" width="10" x="614.5" y="719.8984"/><rect fill="#FFFFFF" height="27.8359" style="stroke:#181818;stroke-width:1.0;" width="10" x="614.5" y="775.5703"/><rect fill="#FFFFFF" height="181.0156" style="stroke:#181818;stroke-width:1.0;" width="10" x="768" y="859.0781"/><rect fill="#FFFFFF" height="194.8516" style="stroke:#181818;stroke-width:1.0;" width="10" x="768" y="1151.4375"/><rect fill="#FFFFFF" height="27.8359" style="stroke:#181818;stroke-width:1.0;" width="10" x="927.5" y="173.1797"/><rect fill="#FFFFFF" height="27.8359" style="stroke:#181818;stroke-width:1.0;" width="10" x="997.5" y="474.375"/><rect fill="#FFFFFF" height="27.8359" style="stroke:#181818;stroke-width:1.0;" width="10" x="1089" y="545.8828"/><rect fill="#FFFFFF" height="27.8359" style="stroke:#181818;stroke-width:1.0;" width="10" x="1178.5" y="636.3906"/><rect fill="#FFFFFF" height="27.8359" style="stroke:#181818;stroke-width:1.0;" width="10" x="1242.5" y="1346.2891"/><rect fill="#FFFFFF" height="55.6719" style="stroke:#181818;stroke-width:1.0;" width="10" x="1320.5" y="1040.0938"/><rect fill="#FFFFFF" height="139.1797" style="stroke:#181818;stroke-width:1.0;" width="10" x="1520.5" y="886.9141"/><rect fill="#FFFFFF" height="139.1797" style="stroke:#181818;stroke-width:1.0;" width="10" x="1520.5" y="1179.2734"/><rect fill="#FFFFFF" height="83.5078" style="stroke:#181818;stroke-width:1.0;" width="10" x="1628.5" y="914.75"/><rect fill="#FFFFFF" height="83.5078" style="stroke:#181818;stroke-width:1.0;" width="10" x="1628.5" y="1207.1094"/><rect fill="#FFFFFF" height="27.8359" style="stroke:#181818;stroke-width:1.0;" width="10" x="1764.5" y="942.5859"/><rect fill="#FFFFFF" height="27.8359" style="stroke:#181818;stroke-width:1.0;" width="10" x="1764.5" y="1234.9453"/><rect fill="#FFFFFF" height="737.7344" style="stroke:#181818;stroke-width:1.0;" width="10" x="1860.5" y="692.0625"/><polygon fill="#181818" points="191.5,118.5078,201.5,122.5078,191.5,126.5078" style="stroke:#181818;stroke-width:1.0;"/><line style="stroke:#181818;stroke-width:1.0;" x1="56.5" x2="197.5" y1="122.5078" y2="122.5078"/><text fill="#000000" font-family="sans-serif" font-size="11" lengthAdjust="spacing" textLength="28" x="63.5" y="118.0908">image</text><polygon fill="#181818" points="915.5,169.1797,925.5,173.1797,915.5,177.1797" style="stroke:#181818;stroke-width:1.0;"/><line style="stroke:#181818;stroke-width:1.0;" x1="213.5" x2="921.5" y1="173.1797" y2="173.1797"/><text fill="#000000" font-family="sans-serif" font-size="11" lengthAdjust="spacing" textLength="55" x="220.5" y="168.7627">pickImage()</text><polygon fill="#181818" points="224.5,197.0156,214.5,201.0156,224.5,205.0156" style="stroke:#181818;stroke-width:1.0;"/><line style="stroke:#181818;stroke-width:1.0;" x1="218.5" x2="931.5" y1="201.0156" y2="201.0156"/><text fill="#000000" font-family="sans-serif" font-size="11" lengthAdjust="spacing" textLength="41" x="230.5" y="196.5986">imageUri</text><polygon fill="#181818" points="191.5,224.8516,201.5,228.8516,191.5,232.8516" style="stroke:#181818;stroke-width:1.0;"/><line style="stroke:#181818;stroke-width:1.0;" x1="56.5" x2="197.5" y1="228.8516" y2="228.8516"/><text fill="#000000" font-family="sans-serif" font-size="11" lengthAdjust="spacing" textLength="16" x="63.5" y="224.4346">title</text><polygon fill="#181818" points="191.5,252.6875,201.5,256.6875,191.5,260.6875" style="stroke:#181818;stroke-width:1.0;"/><line style="stroke:#181818;stroke-width:1.0;" x1="56.5" x2="197.5" y1="256.6875" y2="256.6875"/><text fill="#000000" font-family="sans-serif" font-size="11" lengthAdjust="spacing" textLength="53" x="63.5" y="252.2705">description</text><polygon fill="#181818" points="191.5,280.5234,201.5,284.5234,191.5,288.5234" style="stroke:#181818;stroke-width:1.0;"/><line style="stroke:#181818;stroke-width:1.0;" x1="56.5" x2="197.5" y1="284.5234" y2="284.5234"/><text fill="#000000" font-family="sans-serif" font-size="11" lengthAdjust="spacing" textLength="21" x="63.5" y="280.1064">date</text><polygon fill="#181818" points="191.5,308.3594,201.5,312.3594,191.5,316.3594" style="stroke:#181818;stroke-width:1.0;"/><line style="stroke:#181818;stroke-width:1.0;" x1="56.5" x2="197.5" y1="312.3594" y2="312.3594"/><text fill="#000000" font-family="sans-serif" font-size="11" lengthAdjust="spacing" textLength="39" x="63.5" y="307.9424">startsAt</text><polygon fill="#181818" points="191.5,336.1953,201.5,340.1953,191.5,344.1953" style="stroke:#181818;stroke-width:1.0;"/><line style="stroke:#181818;stroke-width:1.0;" x1="56.5" x2="197.5" y1="340.1953" y2="340.1953"/><text fill="#000000" font-family="sans-serif" font-size="11" lengthAdjust="spacing" textLength="35" x="63.5" y="335.7783">endsAt</text><polygon fill="#181818" points="191.5,364.0313,201.5,368.0313,191.5,372.0313" style="stroke:#181818;stroke-width:1.0;"/><line style="stroke:#181818;stroke-width:1.0;" x1="56.5" x2="197.5" y1="368.0313" y2="368.0313"/><text fill="#000000" font-family="sans-serif" font-size="11" lengthAdjust="spacing" textLength="43" x="63.5" y="363.6143">category</text><polygon fill="#181818" points="191.5,391.8672,201.5,395.8672,191.5,399.8672" style="stroke:#181818;stroke-width:1.0;"/><line style="stroke:#181818;stroke-width:1.0;" x1="56.5" x2="197.5" y1="395.8672" y2="395.8672"/><text fill="#000000" font-family="sans-serif" font-size="11" lengthAdjust="spacing" textLength="28" x="63.5" y="391.4502">music</text><polygon fill="#181818" points="191.5,419.7031,201.5,423.7031,191.5,427.7031" style="stroke:#181818;stroke-width:1.0;"/><line style="stroke:#181818;stroke-width:1.0;" x1="56.5" x2="197.5" y1="423.7031" y2="423.7031"/><text fill="#000000" font-family="sans-serif" font-size="11" lengthAdjust="spacing" textLength="28" x="63.5" y="419.2861">music</text><path d="M159,438.7031 L217,438.7031 L217,444.5391 L207,454.5391 L159,454.5391 L159,438.7031 " fill="#EEEEEE" style="stroke:#000000;stroke-width:1.5;"/><rect fill="none" height="143.0156" style="stroke:#000000;stroke-width:1.5;" width="1001" x="159" y="438.7031"/><text fill="#000000" font-family="sans-serif" font-size="11" font-weight="bold" lengthAdjust="spacing" textLength="13" x="174" y="451.1221">alt</text><text fill="#000000" font-family="sans-serif" font-size="11" font-weight="bold" lengthAdjust="spacing" textLength="89" x="232" y="452.1221">[Pick Music File]</text><polygon fill="#181818" points="985.5,470.375,995.5,474.375,985.5,478.375" style="stroke:#181818;stroke-width:1.0;"/><line style="stroke:#181818;stroke-width:1.0;" x1="213.5" x2="991.5" y1="474.375" y2="474.375"/><text fill="#000000" font-family="sans-serif" font-size="11" lengthAdjust="spacing" textLength="43" x="220.5" y="469.958">pickFile()</text><polygon fill="#181818" points="224.5,498.2109,214.5,502.2109,224.5,506.2109" style="stroke:#181818;stroke-width:1.0;"/><line style="stroke:#181818;stroke-width:1.0;" x1="218.5" x2="1001.5" y1="502.2109" y2="502.2109"/><text fill="#000000" font-family="sans-serif" font-size="11" lengthAdjust="spacing" textLength="41" x="230.5" y="497.7939">musicUri</text><line style="stroke:#000000;stroke-width:1.0;stroke-dasharray:2.0,2.0;" x1="159" x2="1160" y1="511.2109" y2="511.2109"/><text fill="#000000" font-family="sans-serif" font-size="11" font-weight="bold" lengthAdjust="spacing" textLength="82" x="164" y="522.6299">[Record Audio]</text><polygon fill="#181818" points="1077,541.8828,1087,545.8828,1077,549.8828" style="stroke:#181818;stroke-width:1.0;"/><line style="stroke:#181818;stroke-width:1.0;" x1="213.5" x2="1083" y1="545.8828" y2="545.8828"/><text fill="#000000" font-family="sans-serif" font-size="11" lengthAdjust="spacing" textLength="77" x="220.5" y="541.4658">openRecorder()</text><polygon fill="#181818" points="224.5,569.7188,214.5,573.7188,224.5,577.7188" style="stroke:#181818;stroke-width:1.0;"/><line style="stroke:#181818;stroke-width:1.0;" x1="218.5" x2="1093" y1="573.7188" y2="573.7188"/><text fill="#000000" font-family="sans-serif" font-size="11" lengthAdjust="spacing" textLength="41" x="230.5" y="569.3018">musicUri</text><polygon fill="#181818" points="191.5,604.5547,201.5,608.5547,191.5,612.5547" style="stroke:#181818;stroke-width:1.0;"/><line style="stroke:#181818;stroke-width:1.0;" x1="56.5" x2="197.5" y1="608.5547" y2="608.5547"/><text fill="#000000" font-family="sans-serif" font-size="11" lengthAdjust="spacing" textLength="37" x="63.5" y="604.1377">location</text><polygon fill="#181818" points="1166.5,632.3906,1176.5,636.3906,1166.5,640.3906" style="stroke:#181818;stroke-width:1.0;"/><line style="stroke:#181818;stroke-width:1.0;" x1="213.5" x2="1172.5" y1="636.3906" y2="636.3906"/><text fill="#000000" font-family="sans-serif" font-size="11" lengthAdjust="spacing" textLength="64" x="220.5" y="631.9736">getLocation()</text><polygon fill="#181818" points="224.5,660.2266,214.5,664.2266,224.5,668.2266" style="stroke:#181818;stroke-width:1.0;"/><line style="stroke:#181818;stroke-width:1.0;" x1="218.5" x2="1182.5" y1="664.2266" y2="664.2266"/><text fill="#000000" font-family="sans-serif" font-size="11" lengthAdjust="spacing" textLength="37" x="230.5" y="659.8096">location</text><polygon fill="#181818" points="1848.5,688.0625,1858.5,692.0625,1848.5,696.0625" style="stroke:#181818;stroke-width:1.0;"/><line style="stroke:#181818;stroke-width:1.0;" x1="213.5" x2="1854.5" y1="692.0625" y2="692.0625"/><text fill="#000000" font-family="sans-serif" font-size="11" lengthAdjust="spacing" textLength="66" x="220.5" y="687.6455">createEvent()</text><polygon fill="#181818" points="635.5,715.8984,625.5,719.8984,635.5,723.8984" style="stroke:#181818;stroke-width:1.0;"/><line style="stroke:#181818;stroke-width:1.0;" x1="629.5" x2="1859.5" y1="719.8984" y2="719.8984"/><text fill="#000000" font-family="sans-serif" font-size="11" lengthAdjust="spacing" textLength="97" x="641.5" y="715.4814">uploadFile(imageUri)</text><polygon fill="#181818" points="1848.5,743.7344,1858.5,747.7344,1848.5,751.7344" style="stroke:#181818;stroke-width:1.0;"/><line style="stroke:#181818;stroke-width:1.0;" x1="619.5" x2="1854.5" y1="747.7344" y2="747.7344"/><text fill="#000000" font-family="sans-serif" font-size="11" lengthAdjust="spacing" textLength="69" x="626.5" y="743.3174">publicImageUrl</text><polygon fill="#181818" points="635.5,771.5703,625.5,775.5703,635.5,779.5703" style="stroke:#181818;stroke-width:1.0;"/><line style="stroke:#181818;stroke-width:1.0;" x1="629.5" x2="1859.5" y1="775.5703" y2="775.5703"/><text fill="#000000" font-family="sans-serif" font-size="11" lengthAdjust="spacing" textLength="97" x="641.5" y="771.1533">uploadFile(musicUri)</text><polygon fill="#181818" points="1848.5,799.4063,1858.5,803.4063,1848.5,807.4063" style="stroke:#181818;stroke-width:1.0;"/><line style="stroke:#181818;stroke-width:1.0;" x1="619.5" x2="1854.5" y1="803.4063" y2="803.4063"/><text fill="#000000" font-family="sans-serif" font-size="11" lengthAdjust="spacing" textLength="69" x="626.5" y="798.9893">publicMusicUrl</text><polygon fill="#181818" points="535.5,827.2422,525.5,831.2422,535.5,835.2422" style="stroke:#181818;stroke-width:1.0;"/><line style="stroke:#181818;stroke-width:1.0;" x1="529.5" x2="1859.5" y1="831.2422" y2="831.2422"/><text fill="#000000" font-family="sans-serif" font-size="11" lengthAdjust="spacing" textLength="80" x="541.5" y="826.8252">createLocation()</text><polygon fill="#181818" points="756,855.0781,766,859.0781,756,863.0781" style="stroke:#181818;stroke-width:1.0;"/><line style="stroke:#181818;stroke-width:1.0;" x1="524.5" x2="762" y1="859.0781" y2="859.0781"/><text fill="#000000" font-family="sans-serif" font-size="11" lengthAdjust="spacing" textLength="80" x="531.5" y="854.6611">createLocation()</text><polygon fill="#181818" points="1508.5,882.9141,1518.5,886.9141,1508.5,890.9141" style="stroke:#181818;stroke-width:1.0;"/><line style="stroke:#181818;stroke-width:1.0;" x1="778" x2="1514.5" y1="886.9141" y2="886.9141"/><text fill="#000000" font-family="sans-serif" font-size="11" lengthAdjust="spacing" textLength="93" x="785" y="882.4971">POST /api/locations</text><polygon fill="#181818" points="1616.5,910.75,1626.5,914.75,1616.5,918.75" style="stroke:#181818;stroke-width:1.0;"/><line style="stroke:#181818;stroke-width:1.0;" x1="1530.5" x2="1622.5" y1="914.75" y2="914.75"/><text fill="#000000" font-family="sans-serif" font-size="11" lengthAdjust="spacing" textLength="79" x="1537.5" y="910.333">location.create()</text><polygon fill="#181818" points="1752.5,938.5859,1762.5,942.5859,1752.5,946.5859" style="stroke:#181818;stroke-width:1.0;"/><line style="stroke:#181818;stroke-width:1.0;" x1="1638.5" x2="1758.5" y1="942.5859" y2="942.5859"/><text fill="#000000" font-family="sans-serif" font-size="11" lengthAdjust="spacing" textLength="107" x="1645.5" y="938.1689">INSERT INTO locations</text><polygon fill="#181818" points="1649.5,966.4219,1639.5,970.4219,1649.5,974.4219" style="stroke:#181818;stroke-width:1.0;"/><line style="stroke:#181818;stroke-width:1.0;" x1="1643.5" x2="1768.5" y1="970.4219" y2="970.4219"/><text fill="#000000" font-family="sans-serif" font-size="11" lengthAdjust="spacing" textLength="45" x="1655.5" y="966.0049">locationId</text><polygon fill="#181818" points="1541.5,994.2578,1531.5,998.2578,1541.5,1002.2578" style="stroke:#181818;stroke-width:1.0;"/><line style="stroke:#181818;stroke-width:1.0;" x1="1535.5" x2="1632.5" y1="998.2578" y2="998.2578"/><text fill="#000000" font-family="sans-serif" font-size="11" lengthAdjust="spacing" textLength="37" x="1547.5" y="993.8408">location</text><polygon fill="#181818" points="789,1022.0938,779,1026.0938,789,1030.0938" style="stroke:#181818;stroke-width:1.0;"/><line style="stroke:#181818;stroke-width:1.0;" x1="783" x2="1524.5" y1="1026.0938" y2="1026.0938"/><text fill="#000000" font-family="sans-serif" font-size="11" lengthAdjust="spacing" textLength="145" x="795" y="1021.6768">{data: location, success: true}</text><polygon fill="#181818" points="1308.5,1036.0938,1318.5,1040.0938,1308.5,1044.0938" style="stroke:#181818;stroke-width:1.0;"/><line style="stroke:#181818;stroke-width:1.0;" x1="773" x2="1314.5" y1="1040.0938" y2="1040.0938"/><polygon fill="#181818" points="535.5,1063.9297,525.5,1067.9297,535.5,1071.9297" style="stroke:#181818;stroke-width:1.0;"/><line style="stroke:#181818;stroke-width:1.0;" x1="529.5" x2="1319.5" y1="1067.9297" y2="1067.9297"/><text fill="#000000" font-family="sans-serif" font-size="11" lengthAdjust="spacing" textLength="37" x="541.5" y="1063.5127">location</text><polygon fill="#181818" points="1848.5,1091.7656,1858.5,1095.7656,1848.5,1099.7656" style="stroke:#181818;stroke-width:1.0;"/><line style="stroke:#181818;stroke-width:1.0;" x1="519.5" x2="1854.5" y1="1095.7656" y2="1095.7656"/><text fill="#000000" font-family="sans-serif" font-size="11" lengthAdjust="spacing" textLength="37" x="526.5" y="1091.3486">location</text><polygon fill="#181818" points="433.5,1119.6016,423.5,1123.6016,433.5,1127.6016" style="stroke:#181818;stroke-width:1.0;"/><line style="stroke:#181818;stroke-width:1.0;" x1="427.5" x2="1859.5" y1="1123.6016" y2="1123.6016"/><text fill="#000000" font-family="sans-serif" font-size="11" lengthAdjust="spacing" textLength="66" x="439.5" y="1119.1846">createEvent()</text><polygon fill="#181818" points="756,1147.4375,766,1151.4375,756,1155.4375" style="stroke:#181818;stroke-width:1.0;"/><line style="stroke:#181818;stroke-width:1.0;" x1="422.5" x2="762" y1="1151.4375" y2="1151.4375"/><text fill="#000000" font-family="sans-serif" font-size="11" lengthAdjust="spacing" textLength="66" x="429.5" y="1147.0205">createEvent()</text><polygon fill="#181818" points="1508.5,1175.2734,1518.5,1179.2734,1508.5,1183.2734" style="stroke:#181818;stroke-width:1.0;"/><line style="stroke:#181818;stroke-width:1.0;" x1="778" x2="1514.5" y1="1179.2734" y2="1179.2734"/><text fill="#000000" font-family="sans-serif" font-size="11" lengthAdjust="spacing" textLength="83" x="785" y="1174.8564">POST /api/events</text><polygon fill="#181818" points="1616.5,1203.1094,1626.5,1207.1094,1616.5,1211.1094" style="stroke:#181818;stroke-width:1.0;"/><line style="stroke:#181818;stroke-width:1.0;" x1="1530.5" x2="1622.5" y1="1207.1094" y2="1207.1094"/><text fill="#000000" font-family="sans-serif" font-size="11" lengthAdjust="spacing" textLength="69" x="1537.5" y="1202.6924">event.create()</text><polygon fill="#181818" points="1752.5,1230.9453,1762.5,1234.9453,1752.5,1238.9453" style="stroke:#181818;stroke-width:1.0;"/><line style="stroke:#181818;stroke-width:1.0;" x1="1638.5" x2="1758.5" y1="1234.9453" y2="1234.9453"/><text fill="#000000" font-family="sans-serif" font-size="11" lengthAdjust="spacing" textLength="97" x="1645.5" y="1230.5283">INSERT INTO events</text><polygon fill="#181818" points="1649.5,1258.7813,1639.5,1262.7813,1649.5,1266.7813" style="stroke:#181818;stroke-width:1.0;"/><line style="stroke:#181818;stroke-width:1.0;" x1="1643.5" x2="1768.5" y1="1262.7813" y2="1262.7813"/><text fill="#000000" font-family="sans-serif" font-size="11" lengthAdjust="spacing" textLength="35" x="1655.5" y="1258.3643">eventId</text><polygon fill="#181818" points="1541.5,1286.6172,1531.5,1290.6172,1541.5,1294.6172" style="stroke:#181818;stroke-width:1.0;"/><line style="stroke:#181818;stroke-width:1.0;" x1="1535.5" x2="1632.5" y1="1290.6172" y2="1290.6172"/><text fill="#000000" font-family="sans-serif" font-size="11" lengthAdjust="spacing" textLength="27" x="1547.5" y="1286.2002">event</text><polygon fill="#181818" points="789,1314.4531,779,1318.4531,789,1322.4531" style="stroke:#181818;stroke-width:1.0;"/><line style="stroke:#181818;stroke-width:1.0;" x1="783" x2="1524.5" y1="1318.4531" y2="1318.4531"/><text fill="#000000" font-family="sans-serif" font-size="11" lengthAdjust="spacing" textLength="135" x="795" y="1314.0361">{data: event, success: true}</text><polygon fill="#181818" points="1230.5,1342.2891,1240.5,1346.2891,1230.5,1350.2891" style="stroke:#181818;stroke-width:1.0;"/><line style="stroke:#181818;stroke-width:1.0;" x1="773" x2="1236.5" y1="1346.2891" y2="1346.2891"/><text fill="#000000" font-family="sans-serif" font-size="11" lengthAdjust="spacing" textLength="27" x="780" y="1341.8721">event</text><polygon fill="#181818" points="433.5,1370.125,423.5,1374.125,433.5,1378.125" style="stroke:#181818;stroke-width:1.0;"/><line style="stroke:#181818;stroke-width:1.0;" x1="427.5" x2="1246.5" y1="1374.125" y2="1374.125"/><text fill="#000000" font-family="sans-serif" font-size="11" lengthAdjust="spacing" textLength="27" x="439.5" y="1369.708">event</text><polygon fill="#181818" points="1848.5,1397.9609,1858.5,1401.9609,1848.5,1405.9609" style="stroke:#181818;stroke-width:1.0;"/><line style="stroke:#181818;stroke-width:1.0;" x1="417.5" x2="1854.5" y1="1401.9609" y2="1401.9609"/><text fill="#000000" font-family="sans-serif" font-size="11" lengthAdjust="spacing" textLength="27" x="424.5" y="1397.5439">event</text><polygon fill="#181818" points="224.5,1425.7969,214.5,1429.7969,224.5,1433.7969" style="stroke:#181818;stroke-width:1.0;"/><line style="stroke:#181818;stroke-width:1.0;" x1="218.5" x2="1864.5" y1="1429.7969" y2="1429.7969"/><text fill="#000000" font-family="sans-serif" font-size="11" lengthAdjust="spacing" textLength="27" x="230.5" y="1425.3799">event</text><polygon fill="#181818" points="67.5,1453.6328,57.5,1457.6328,67.5,1461.6328" style="stroke:#181818;stroke-width:1.0;"/><line style="stroke:#181818;stroke-width:1.0;" x1="61.5" x2="207.5" y1="1457.6328" y2="1457.6328"/><text fill="#000000" font-family="sans-serif" font-size="11" lengthAdjust="spacing" textLength="123" x="73.5" y="1453.2158">showSuccessMessage()</text><!--SRC=[hLRVQzim47xNNo7sjC6sqjTI2gMqO5XMaxHx6WpNrb9HnV8aELqszh_l9F_GML8IXwtG5fs_x-vqzqad_SBhfb35Xcgp4mp-AbwQTYE87hzKx7lH2dCdQxFYlnWzFqSVjM6AIRDhM2urDrpMrCY6aA8qKj4trwrvPhNXPM5OzRL-r4ozeOMc4xkr4l8asxegr0v8LNMxXQzVE7ljqCX0Boyfm0ozkYAaX9oK55FAGbPCJ7Wt7KpOC2F5VLcongOjrSuH0fi7VvAGAMmkmCTcJrd1ibYp5LDRNZ87dveyr1OWLtBBgxuys80ssV0RmI73RdF32eLic-Afq0oXfYQqVRw1JBurl7pfOpf3xjOUTST5RtCOlqGGqHeGmSgsRybAgOPDf3x45PtKaH0h2hFhk-CxwPSZOk1uqCGoueOAs9fwR6Gb10GDWkHDKHk8_xDHJ4ELywohTfvPvIrlLmzMUHDihhZU51HLlUaiGBXVBYo-AemBHq4dPWsUVq104fq2-k5gAlQBhYrmdeIXjl8qSsiuNdmBh0cQJAZW2hKKFDbUE_RRTvwFkuxXUn9vL9nKBCcUjHjeYM2pa1NJfUADKyKiF7oR1TG6UgUlpImmgwkvKFjjRM-0EU1DgtavKm4TTXJ0mYxTIIGKViAU-oFQjzmQeECME_ODdMDhHvmzuMtVBHBr7lbW0fJT7N6usIikqvabxWFmBnjM3yiepzGLuZ9E-JeXzvHVwFMyXeZXjWftE5n0W5apCwpmSHilkX5wm3rAs5-GOSneybafAWOaPyR18oY9oU1nEgN0NTi8MLHEHyCbWBm6GorWxycmQPy4BxFEcy0x3ToTdkBGy_-JugBpTdgAyTDWRCmXOQ2NHCA3JNKO-obtgDVZwu1uXgN37BkW-JsCiREYuMU3s3IYvXcnC43tSynhycCN4cVUOKWFjQHnn04n-xowNJx0luTxceY5nY6YfI9d5Mu1ves1kxsbZa-VOxyhNCBVTZ9xqdkgsxA4mG-ZIhNi3tRYwe9hENrlOEHO_AY__LjZijmh5n7U5e4K4gezT7b4UIP4bnPpy2xUVyM43-YGc1HmV56DzJkeNMPvHuJhCF-asZ3ASSawncozElH9OdMCavJgdy-fW0cvelSsuYQL4BaBkST5ctPnL9NXMotQry5vvpn4qnxUXy_oTTMLTW6_tNjvZrVYV_u2]--></g></svg>