<?xml version="1.0" encoding="us-ascii" standalone="no"?><svg xmlns="http://www.w3.org/2000/svg" xmlns:xlink="http://www.w3.org/1999/xlink" contentStyleType="text/css" height="1621px" preserveAspectRatio="none" style="width:1069px;height:1621px;background:#FFFFFF;" version="1.1" viewBox="0 0 1069 1621" width="1069px" zoomAndPan="magnify"><defs/><g><!--cluster Analysis--><g id="cluster_Analysis"><polygon fill="none" points="16,6,69,6,76,25.8359,595,25.8359,595,262,16,262,16,6" style="stroke:#000000;stroke-width:1.5;"/><line style="stroke:#000000;stroke-width:1.5;" x1="16" x2="76" y1="25.8359" y2="25.8359"/><text fill="#000000" font-family="sans-serif" font-size="11" font-weight="bold" lengthAdjust="spacing" textLength="47" x="20" y="19.4189">Analysis</text></g><!--cluster frontend--><g id="cluster_frontend"><polygon fill="none" points="198,749,252,749,259,768.8359,1052,768.8359,1052,1614,198,1614,198,749" style="stroke:#000000;stroke-width:1.5;"/><line style="stroke:#000000;stroke-width:1.5;" x1="198" x2="259" y1="768.8359" y2="768.8359"/><text fill="#000000" font-family="sans-serif" font-size="11" font-weight="bold" lengthAdjust="spacing" textLength="48" x="202" y="762.4189">frontend</text><text fill="#000000" font-family="sans-serif" font-size="11" font-style="italic" lengthAdjust="spacing" textLength="77" x="590.5" y="782.2549">&#171;Flutter:3.10.0&#187;</text></g><!--entity eventModelAnalysis--><g id="elem_eventModelAnalysis"><ellipse cx="544.5" cy="54" fill="#F1F1F1" rx="12" ry="12" style="stroke:#181818;stroke-width:0.5;"/><line style="stroke:#181818;stroke-width:0.5;" x1="532.5" x2="556.5" y1="68" y2="68"/><text fill="#000000" font-family="sans-serif" font-size="11" lengthAdjust="spacing" textLength="55" x="517" y="81.4189">EventModel</text></g><!--entity locationModelAnalysis--><g id="elem_locationModelAnalysis"><ellipse cx="544.5" cy="135" fill="#F1F1F1" rx="12" ry="12" style="stroke:#181818;stroke-width:0.5;"/><line style="stroke:#181818;stroke-width:0.5;" x1="532.5" x2="556.5" y1="149" y2="149"/><text fill="#000000" font-family="sans-serif" font-size="11" lengthAdjust="spacing" textLength="69" x="510" y="162.4189">LocationModel</text></g><!--entity addEventViewAnalysis--><g id="elem_addEventViewAnalysis"><path d="M48,204 L48,228 M48,216 L65,216 " fill="none" style="stroke:#181818;stroke-width:0.5;"/><ellipse cx="77" cy="216" fill="#F1F1F1" rx="12" ry="12" style="stroke:#181818;stroke-width:0.5;"/><text fill="#000000" font-family="sans-serif" font-size="11" lengthAdjust="spacing" textLength="73" x="32" y="243.4189">AddEventView</text></g><!--entity fileController--><g id="elem_fileController"><ellipse cx="250.5" cy="216" fill="#F1F1F1" rx="12" ry="12" style="stroke:#181818;stroke-width:0.5;"/><polygon fill="#181818" points="246.5,204,252.5,199,250.5,204,252.5,209,246.5,204" style="stroke:#181818;stroke-width:1.0;"/><text fill="#000000" font-family="sans-serif" font-size="11" lengthAdjust="spacing" textLength="62" x="219.5" y="243.4189">FileController</text></g><!--entity addEventController--><g id="elem_addEventController"><ellipse cx="250.5" cy="54" fill="#F1F1F1" rx="12" ry="12" style="stroke:#181818;stroke-width:0.5;"/><polygon fill="#181818" points="246.5,42,252.5,37,250.5,42,252.5,47,246.5,42" style="stroke:#181818;stroke-width:1.0;"/><text fill="#000000" font-family="sans-serif" font-size="11" lengthAdjust="spacing" textLength="93" x="204" y="81.4189">AddEventController</text></g><!--entity locationController--><g id="elem_locationController"><ellipse cx="250.5" cy="135" fill="#F1F1F1" rx="12" ry="12" style="stroke:#181818;stroke-width:0.5;"/><polygon fill="#181818" points="246.5,123,252.5,118,250.5,123,252.5,128,246.5,123" style="stroke:#181818;stroke-width:1.0;"/><text fill="#000000" font-family="sans-serif" font-size="11" lengthAdjust="spacing" textLength="87" x="207" y="162.4189">LocationController</text></g><!--entity addEventView--><g id="elem_addEventView"><path d="M230,1136.8359 L230,1160.8359 M230,1148.8359 L247,1148.8359 " fill="none" style="stroke:#181818;stroke-width:0.5;"/><ellipse cx="259" cy="1148.8359" fill="#F1F1F1" rx="12" ry="12" style="stroke:#181818;stroke-width:0.5;"/><text fill="#000000" font-family="sans-serif" font-size="11" lengthAdjust="spacing" textLength="73" x="214" y="1176.2549">AddEventView</text><text fill="#000000" font-family="sans-serif" font-size="11" font-style="italic" lengthAdjust="spacing" textLength="31" x="235" y="1130.4189">&#171;dart&#187;</text></g><!--entity addDateView--><g id="elem_addDateView"><path d="M524,1460.8359 L524,1484.8359 M524,1472.8359 L541,1472.8359 " fill="none" style="stroke:#181818;stroke-width:0.5;"/><ellipse cx="553" cy="1472.8359" fill="#F1F1F1" rx="12" ry="12" style="stroke:#181818;stroke-width:0.5;"/><text fill="#000000" font-family="sans-serif" font-size="11" lengthAdjust="spacing" textLength="68" x="510.5" y="1500.2549">AddDateView</text><text fill="#000000" font-family="sans-serif" font-size="11" font-style="italic" lengthAdjust="spacing" textLength="31" x="529" y="1454.4189">&#171;dart&#187;</text></g><!--entity chooseCategoriesView--><g id="elem_chooseCategoriesView"><path d="M524,1555.8359 L524,1579.8359 M524,1567.8359 L541,1567.8359 " fill="none" style="stroke:#181818;stroke-width:0.5;"/><ellipse cx="553" cy="1567.8359" fill="#F1F1F1" rx="12" ry="12" style="stroke:#181818;stroke-width:0.5;"/><text fill="#000000" font-family="sans-serif" font-size="11" lengthAdjust="spacing" textLength="115" x="487" y="1595.2549">ChooseCategoriesView</text><text fill="#000000" font-family="sans-serif" font-size="11" font-style="italic" lengthAdjust="spacing" textLength="31" x="529" y="1549.4189">&#171;dart&#187;</text></g><!--entity widgets--><g id="elem_widgets"><rect fill="#F1F1F1" height="43.8359" rx="2.5" ry="2.5" style="stroke:#181818;stroke-width:0.5;" width="165" x="462" y="969"/><rect fill="#F1F1F1" height="10" style="stroke:#181818;stroke-width:0.5;" width="15" x="607" y="974"/><rect fill="#F1F1F1" height="2" style="stroke:#181818;stroke-width:0.5;" width="4" x="605" y="976"/><rect fill="#F1F1F1" height="2" style="stroke:#181818;stroke-width:0.5;" width="4" x="605" y="980"/><text fill="#000000" font-family="sans-serif" font-size="11" lengthAdjust="spacing" textLength="125" x="477" y="1000.4189">package:eventify/widgets</text></g><!--entity material--><g id="elem_material"><rect fill="#F1F1F1" height="43.8359" rx="2.5" ry="2.5" style="stroke:#181818;stroke-width:0.5;" width="174" x="457.5" y="890"/><rect fill="#F1F1F1" height="10" style="stroke:#181818;stroke-width:0.5;" width="15" x="611.5" y="895"/><rect fill="#F1F1F1" height="2" style="stroke:#181818;stroke-width:0.5;" width="4" x="609.5" y="897"/><rect fill="#F1F1F1" height="2" style="stroke:#181818;stroke-width:0.5;" width="4" x="609.5" y="901"/><text fill="#000000" font-family="sans-serif" font-size="11" lengthAdjust="spacing" textLength="134" x="472.5" y="921.4189">package:flutter/material.dart</text></g><!--entity locationPackage--><g id="elem_locationPackage"><rect fill="#F1F1F1" height="43.8359" rx="2.5" ry="2.5" style="stroke:#181818;stroke-width:0.5;" width="183" x="453" y="1048"/><rect fill="#F1F1F1" height="10" style="stroke:#181818;stroke-width:0.5;" width="15" x="616" y="1053"/><rect fill="#F1F1F1" height="2" style="stroke:#181818;stroke-width:0.5;" width="4" x="614" y="1055"/><rect fill="#F1F1F1" height="2" style="stroke:#181818;stroke-width:0.5;" width="4" x="614" y="1059"/><text fill="#000000" font-family="sans-serif" font-size="11" lengthAdjust="spacing" textLength="143" x="468" y="1079.4189">package:location/location.dart</text></g><!--entity flutterFilePicker--><g id="elem_flutterFilePicker"><rect fill="#F1F1F1" height="43.8359" rx="2.5" ry="2.5" style="stroke:#181818;stroke-width:0.5;" width="207" x="441" y="1285"/><rect fill="#F1F1F1" height="10" style="stroke:#181818;stroke-width:0.5;" width="15" x="628" y="1290"/><rect fill="#F1F1F1" height="2" style="stroke:#181818;stroke-width:0.5;" width="4" x="626" y="1292"/><rect fill="#F1F1F1" height="2" style="stroke:#181818;stroke-width:0.5;" width="4" x="626" y="1296"/><text fill="#000000" font-family="sans-serif" font-size="11" lengthAdjust="spacing" textLength="167" x="456" y="1316.4189">package:file_picker/file_picker.dart</text></g><!--entity flutterSound--><g id="elem_flutterSound"><rect fill="#F1F1F1" height="43.8359" rx="2.5" ry="2.5" style="stroke:#181818;stroke-width:0.5;" width="237" x="426" y="1206"/><rect fill="#F1F1F1" height="10" style="stroke:#181818;stroke-width:0.5;" width="15" x="643" y="1211"/><rect fill="#F1F1F1" height="2" style="stroke:#181818;stroke-width:0.5;" width="4" x="641" y="1213"/><rect fill="#F1F1F1" height="2" style="stroke:#181818;stroke-width:0.5;" width="4" x="641" y="1217"/><text fill="#000000" font-family="sans-serif" font-size="11" lengthAdjust="spacing" textLength="197" x="441" y="1237.4189">package:flutter_sound/flutter_sound.dart</text></g><!--entity permissionHandler--><g id="elem_permissionHandler"><rect fill="#F1F1F1" height="43.8359" rx="2.5" ry="2.5" style="stroke:#181818;stroke-width:0.5;" width="297" x="396" y="1127"/><rect fill="#F1F1F1" height="10" style="stroke:#181818;stroke-width:0.5;" width="15" x="673" y="1132"/><rect fill="#F1F1F1" height="2" style="stroke:#181818;stroke-width:0.5;" width="4" x="671" y="1134"/><rect fill="#F1F1F1" height="2" style="stroke:#181818;stroke-width:0.5;" width="4" x="671" y="1138"/><text fill="#000000" font-family="sans-serif" font-size="11" lengthAdjust="spacing" textLength="257" x="411" y="1158.4189">package:permission_handler/permission_handler.dart</text></g><!--entity flutterImagePicker--><g id="elem_flutterImagePicker"><rect fill="#F1F1F1" height="43.8359" rx="2.5" ry="2.5" style="stroke:#181818;stroke-width:0.5;" width="235" x="427" y="1364"/><rect fill="#F1F1F1" height="10" style="stroke:#181818;stroke-width:0.5;" width="15" x="642" y="1369"/><rect fill="#F1F1F1" height="2" style="stroke:#181818;stroke-width:0.5;" width="4" x="640" y="1371"/><rect fill="#F1F1F1" height="2" style="stroke:#181818;stroke-width:0.5;" width="4" x="640" y="1375"/><text fill="#000000" font-family="sans-serif" font-size="11" lengthAdjust="spacing" textLength="195" x="442" y="1395.4189">package:image_picker/image_picker.dart</text></g><!--entity location--><g id="elem_location"><rect fill="#F1F1F1" height="43.8359" rx="2.5" ry="2.5" style="stroke:#181818;stroke-width:0.5;" width="81" x="786.5" y="1080"/><rect fill="#F1F1F1" height="10" style="stroke:#181818;stroke-width:0.5;" width="15" x="847.5" y="1085"/><rect fill="#F1F1F1" height="2" style="stroke:#181818;stroke-width:0.5;" width="4" x="845.5" y="1087"/><rect fill="#F1F1F1" height="2" style="stroke:#181818;stroke-width:0.5;" width="4" x="845.5" y="1091"/><text fill="#000000" font-family="sans-serif" font-size="11" lengthAdjust="spacing" textLength="41" x="801.5" y="1111.4189">Location</text></g><!--entity filePicker--><g id="elem_filePicker"><rect fill="#F1F1F1" height="43.8359" rx="2.5" ry="2.5" style="stroke:#181818;stroke-width:0.5;" width="85" x="784.5" y="1267"/><rect fill="#F1F1F1" height="10" style="stroke:#181818;stroke-width:0.5;" width="15" x="849.5" y="1272"/><rect fill="#F1F1F1" height="2" style="stroke:#181818;stroke-width:0.5;" width="4" x="847.5" y="1274"/><rect fill="#F1F1F1" height="2" style="stroke:#181818;stroke-width:0.5;" width="4" x="847.5" y="1278"/><text fill="#000000" font-family="sans-serif" font-size="11" lengthAdjust="spacing" textLength="45" x="799.5" y="1298.4189">FilePicker</text></g><!--entity flutterSoundRecorder--><g id="elem_flutterSoundRecorder"><rect fill="#F1F1F1" height="43.8359" rx="2.5" ry="2.5" style="stroke:#181818;stroke-width:0.5;" width="146" x="754" y="1182"/><rect fill="#F1F1F1" height="10" style="stroke:#181818;stroke-width:0.5;" width="15" x="880" y="1187"/><rect fill="#F1F1F1" height="2" style="stroke:#181818;stroke-width:0.5;" width="4" x="878" y="1189"/><rect fill="#F1F1F1" height="2" style="stroke:#181818;stroke-width:0.5;" width="4" x="878" y="1193"/><text fill="#000000" font-family="sans-serif" font-size="11" lengthAdjust="spacing" textLength="106" x="769" y="1213.4189">FlutterSoundRecorder</text></g><!--entity imagePicker--><g id="elem_imagePicker"><rect fill="#F1F1F1" height="43.8359" rx="2.5" ry="2.5" style="stroke:#181818;stroke-width:0.5;" width="97" x="778.5" y="1346"/><rect fill="#F1F1F1" height="10" style="stroke:#181818;stroke-width:0.5;" width="15" x="855.5" y="1351"/><rect fill="#F1F1F1" height="2" style="stroke:#181818;stroke-width:0.5;" width="4" x="853.5" y="1353"/><rect fill="#F1F1F1" height="2" style="stroke:#181818;stroke-width:0.5;" width="4" x="853.5" y="1357"/><text fill="#000000" font-family="sans-serif" font-size="11" lengthAdjust="spacing" textLength="57" x="793.5" y="1377.4189">ImagePicker</text></g><!--entity eventRepository--><g id="elem_eventRepository"><ellipse cx="827" cy="824.8359" fill="#F1F1F1" rx="12" ry="12" style="stroke:#181818;stroke-width:0.5;"/><polygon fill="#181818" points="823,812.8359,829,807.8359,827,812.8359,829,817.8359,823,812.8359" style="stroke:#181818;stroke-width:1.0;"/><text fill="#000000" font-family="sans-serif" font-size="11" lengthAdjust="spacing" textLength="79" x="787.5" y="852.2549">EventRepository</text><text fill="#000000" font-family="sans-serif" font-size="11" font-style="italic" lengthAdjust="spacing" textLength="31" x="811.5" y="806.4189">&#171;dart&#187;</text></g><!--entity locationRepository--><g id="elem_locationRepository"><ellipse cx="827" cy="919.8359" fill="#F1F1F1" rx="12" ry="12" style="stroke:#181818;stroke-width:0.5;"/><polygon fill="#181818" points="823,907.8359,829,902.8359,827,907.8359,829,912.8359,823,907.8359" style="stroke:#181818;stroke-width:1.0;"/><text fill="#000000" font-family="sans-serif" font-size="11" lengthAdjust="spacing" textLength="93" x="780.5" y="947.2549">LocationRepository</text><text fill="#000000" font-family="sans-serif" font-size="11" font-style="italic" lengthAdjust="spacing" textLength="31" x="811.5" y="901.4189">&#171;dart&#187;</text></g><!--entity storageService--><g id="elem_storageService"><ellipse cx="827" cy="1014.8359" fill="#F1F1F1" rx="12" ry="12" style="stroke:#181818;stroke-width:0.5;"/><polygon fill="#181818" points="823,1002.8359,829,997.8359,827,1002.8359,829,1007.8359,823,1002.8359" style="stroke:#181818;stroke-width:1.0;"/><text fill="#000000" font-family="sans-serif" font-size="11" lengthAdjust="spacing" textLength="75" x="789.5" y="1042.2549">StorageService</text><text fill="#000000" font-family="sans-serif" font-size="11" font-style="italic" lengthAdjust="spacing" textLength="31" x="811.5" y="996.4189">&#171;dart&#187;</text></g><!--entity apiClient--><g id="elem_apiClient"><ellipse cx="998.5" cy="986.8359" fill="#F1F1F1" rx="12" ry="12" style="stroke:#181818;stroke-width:0.5;"/><polygon fill="#181818" points="994.5,974.8359,1000.5,969.8359,998.5,974.8359,1000.5,979.8359,994.5,974.8359" style="stroke:#181818;stroke-width:1.0;"/><text fill="#000000" font-family="sans-serif" font-size="11" lengthAdjust="spacing" textLength="42" x="977.5" y="1014.2549">ApiClient</text><text fill="#000000" font-family="sans-serif" font-size="11" font-style="italic" lengthAdjust="spacing" textLength="31" x="983" y="968.4189">&#171;dart&#187;</text></g><!--entity supabaseClient--><g id="elem_supabaseClient"><ellipse cx="998.5" cy="1081.8359" fill="#F1F1F1" rx="12" ry="12" style="stroke:#181818;stroke-width:0.5;"/><polygon fill="#181818" points="994.5,1069.8359,1000.5,1064.8359,998.5,1069.8359,1000.5,1074.8359,994.5,1069.8359" style="stroke:#181818;stroke-width:1.0;"/><text fill="#000000" font-family="sans-serif" font-size="11" lengthAdjust="spacing" textLength="75" x="961" y="1109.2549">SupabaseClient</text><text fill="#000000" font-family="sans-serif" font-size="11" font-style="italic" lengthAdjust="spacing" textLength="31" x="983" y="1063.4189">&#171;dart&#187;</text></g><!--entity addEventViewModel--><g id="elem_addEventViewModel"><ellipse cx="544.5" cy="824.8359" fill="#F1F1F1" rx="12" ry="12" style="stroke:#181818;stroke-width:0.5;"/><polygon fill="#181818" points="540.5,812.8359,546.5,807.8359,544.5,812.8359,546.5,817.8359,540.5,812.8359" style="stroke:#181818;stroke-width:1.0;"/><text fill="#000000" font-family="sans-serif" font-size="11" lengthAdjust="spacing" textLength="101" x="494" y="852.2549">AddEventViewModel</text><text fill="#000000" font-family="sans-serif" font-size="11" font-style="italic" lengthAdjust="spacing" textLength="31" x="529" y="806.4189">&#171;dart&#187;</text></g><!--entity eventModel--><g id="elem_eventModel"><ellipse cx="998.5" cy="811" fill="#F1F1F1" rx="12" ry="12" style="stroke:#181818;stroke-width:0.5;"/><line style="stroke:#181818;stroke-width:0.5;" x1="986.5" x2="1010.5" y1="825" y2="825"/><text fill="#000000" font-family="sans-serif" font-size="11" lengthAdjust="spacing" textLength="55" x="971" y="838.4189">EventModel</text></g><!--entity locationModel--><g id="elem_locationModel"><ellipse cx="998.5" cy="892" fill="#F1F1F1" rx="12" ry="12" style="stroke:#181818;stroke-width:0.5;"/><line style="stroke:#181818;stroke-width:0.5;" x1="986.5" x2="1010.5" y1="906" y2="906"/><text fill="#000000" font-family="sans-serif" font-size="11" lengthAdjust="spacing" textLength="69" x="964" y="919.4189">LocationModel</text></g><!--link addEventViewAnalysis to addEventController--><g id="link_addEventViewAnalysis_addEventController"><path d="M90.01,199.59 C113.05,173.96 152.17,132.33 190,101 C197,95.2 204.84,89.46 212.48,84.21 " fill="none" id="addEventViewAnalysis-addEventController" style="stroke:#181818;stroke-width:1.0;"/></g><!--link addEventViewAnalysis to locationController--><g id="link_addEventViewAnalysis_locationController"><path d="M105.06,207 C134.26,193.86 175.71,175.21 206.72,161.25 " fill="none" id="addEventViewAnalysis-locationController" style="stroke:#181818;stroke-width:1.0;"/></g><!--link addEventViewAnalysis to fileController--><g id="link_addEventViewAnalysis_fileController"><path d="M105.06,223 C138.46,223 187.89,223 219.39,223 " fill="none" id="addEventViewAnalysis-fileController" style="stroke:#181818;stroke-width:1.0;"/></g><!--link addEventController to eventModelAnalysis--><g id="link_addEventController_eventModelAnalysis"><path d="M297.12,61 C358.88,61 467.07,61 516.94,61 " fill="none" id="addEventController-eventModelAnalysis" style="stroke:#181818;stroke-width:1.0;"/></g><!--link fileController to eventModelAnalysis--><g id="link_fileController_eventModelAnalysis"><path d="M277.74,199.77 C315.69,166.35 382.81,107.92 396,101 C435.36,80.36 486.36,69.6 516.92,64.64 " fill="none" id="fileController-eventModelAnalysis" style="stroke:#181818;stroke-width:1.0;"/></g><!--link locationController to locationModelAnalysis--><g id="link_locationController_locationModelAnalysis"><path d="M294.27,142 C352.73,142 456.38,142 509.71,142 " fill="none" id="locationController-locationModelAnalysis" style="stroke:#181818;stroke-width:1.0;"/></g><!--link addEventView to addDateView--><g id="link_addEventView_addDateView"><path d="M287.06,1167.47 C318.77,1184.26 360.94,1207.52 366,1215 C419.06,1293.47 334.85,1353.66 396,1426 C424.28,1459.46 470.3699,1468.8723 504.4599,1471.6523 " fill="none" id="addEventView-to-addDateView" style="stroke:#181818;stroke-width:1.0;"/><polygon fill="#181818" points="510.44,1472.14,501.7949,1467.4217,505.4565,1471.7336,501.1447,1475.3953,510.44,1472.14" style="stroke:#181818;stroke-width:1.0;"/></g><!--link addEventView to chooseCategoriesView--><g id="link_addEventView_chooseCategoriesView"><path d="M269.89,1179.1 C278.75,1194.33 289.14,1213.29 297,1231 C300.45,1238.78 389.92,1515.04 396,1521 C420.19,1544.7 450.4071,1555.3214 480.8471,1561.1514 " fill="none" id="addEventView-to-chooseCategoriesView" style="stroke:#181818;stroke-width:1.0;"/><polygon fill="#181818" points="486.74,1562.28,478.6531,1556.6585,481.8293,1561.3395,477.1482,1564.5156,486.74,1562.28" style="stroke:#181818;stroke-width:1.0;"/></g><!--link addEventView to widgets--><g id="link_addEventView_widgets"><path d="M280.3,1118.78 C307.66,1091.76 351.17,1052.98 396,1030 C416.39,1019.55 434.037,1013.2349 456.147,1007.4249 " fill="none" id="addEventView-to-widgets" style="stroke:#181818;stroke-width:1.0;"/><polygon fill="#181818" points="461.95,1005.9,452.2289,1004.3187,457.1142,1007.1707,454.2621,1012.056,461.95,1005.9" style="stroke:#181818;stroke-width:1.0;"/></g><!--link addEventView to material--><g id="link_addEventView_material"><path d="M265.24,1118.8 C286.76,1074.99 332.58,994.34 396,951 C414.15,938.6 430.2489,931.7095 451.5389,925.9395 " fill="none" id="addEventView-to-material" style="stroke:#181818;stroke-width:1.0;"/><polygon fill="#181818" points="457.33,924.37,447.597,922.8635,452.5041,925.6779,449.6897,930.585,457.33,924.37" style="stroke:#181818;stroke-width:1.0;"/></g><!--link addEventView to locationPackage--><g id="link_addEventView_locationPackage"><path d="M287.1,1139.02 C316.33,1130.86 358.81,1119.06 396,1109 C416.58,1103.43 433.0102,1099.0471 453.8002,1093.5371 " fill="none" id="addEventView-to-locationPackage" style="stroke:#181818;stroke-width:1.0;"/><polygon fill="#181818" points="459.6,1092,449.8756,1090.4392,454.7669,1093.2809,451.9251,1098.1722,459.6,1092" style="stroke:#181818;stroke-width:1.0;"/></g><!--link addEventView to flutterFilePicker--><g id="link_addEventView_flutterFilePicker"><path d="M287.07,1154.93 C319.56,1160.48 363,1168.32 366,1171 C399.62,1201.1 363.44,1236.76 396,1268 C408.52,1280.01 418.637,1286.4191 435.167,1292.2991 " fill="none" id="addEventView-to-flutterFilePicker" style="stroke:#181818;stroke-width:1.0;"/><polygon fill="#181818" points="440.82,1294.31,433.6811,1287.525,436.1092,1292.6343,430.9999,1295.0624,440.82,1294.31" style="stroke:#181818;stroke-width:1.0;"/></g><!--link addEventView to flutterSound--><g id="link_addEventView_flutterSound"><path d="M287.04,1151.15 C315.27,1153.26 352.21,1157.04 366,1163 C381.93,1169.89 380.6,1179.99 396,1188 C409.65,1195.1 418.9878,1199.1733 434.0778,1204.1133 " fill="none" id="addEventView-to-flutterSound" style="stroke:#181818;stroke-width:1.0;"/><polygon fill="#181818" points="439.78,1205.98,432.4712,1199.3784,435.0281,1204.4244,429.9822,1206.9814,439.78,1205.98" style="stroke:#181818;stroke-width:1.0;"/></g><!--link addEventView to permissionHandler--><g id="link_addEventView_permissionHandler"><path d="M287.01,1149 C314.68,1149 349.08,1149 389.67,1149 " fill="none" id="addEventView-to-permissionHandler" style="stroke:#181818;stroke-width:1.0;"/><polygon fill="#181818" points="395.67,1149,386.67,1145,390.67,1149,386.67,1153,395.67,1149" style="stroke:#181818;stroke-width:1.0;"/></g><!--link addEventView to flutterImagePicker--><g id="link_addEventView_flutterImagePicker"><path d="M287.18,1159.25 C319.75,1168.76 363.25,1181.9 366,1185 C414.54,1239.83 346.21,1293.31 396,1347 C404.65,1356.32 409.8245,1360.916 421.3245,1366.456 " fill="none" id="addEventView-to-flutterImagePicker" style="stroke:#181818;stroke-width:1.0;"/><polygon fill="#181818" points="426.73,1369.06,420.3578,1361.5503,422.2254,1366.89,416.8858,1368.7576,426.73,1369.06" style="stroke:#181818;stroke-width:1.0;"/></g><!--link addEventView to addEventViewModel--><g id="link_addEventView_addEventViewModel"><path d="M258.53,1118.73 C273.47,1061.41 313.91,936.96 396,872 C424.14,849.74 457.1588,839.0981 487.9488,832.8781 " fill="none" id="addEventView-to-addEventViewModel" style="stroke:#181818;stroke-width:1.0;"/><polygon fill="#181818" points="493.83,831.69,484.2162,829.5513,488.929,832.6801,485.8003,837.3929,493.83,831.69" style="stroke:#181818;stroke-width:1.0;"/></g><!--link addEventViewModel to eventRepository--><g id="link_addEventViewModel_eventRepository"><path d="M595,825 C649.89,825 731.28,825 781.36,825 " fill="none" id="addEventViewModel-to-eventRepository" style="stroke:#181818;stroke-width:1.0;"/><polygon fill="#181818" points="787.36,825,778.36,821,782.36,825,778.36,829,787.36,825" style="stroke:#181818;stroke-width:1.0;"/></g><!--link addEventViewModel to locationRepository--><g id="link_addEventViewModel_locationRepository"><path d="M595.16,840.31 C623.84,849.28 660.55,860.98 693,872 C722.17,881.91 749.0665,891.5751 774.6565,900.9551 " fill="none" id="addEventViewModel-to-locationRepository" style="stroke:#181818;stroke-width:1.0;"/><polygon fill="#181818" points="780.29,903.02,773.2164,896.1669,775.5954,901.2992,770.4632,903.6782,780.29,903.02" style="stroke:#181818;stroke-width:1.0;"/></g><!--link addEventViewModel to storageService--><g id="link_addEventViewModel_storageService"><path d="M595.29,832.06 C625.93,838.41 664.64,850.25 693,872 C732.82,902.54 718.83,931.22 754,967 C764.32,977.5 772.2361,983.756 784.3161,991.486 " fill="none" id="addEventViewModel-to-storageService" style="stroke:#181818;stroke-width:1.0;"/><polygon fill="#181818" points="789.37,994.72,783.9452,986.4998,785.1585,992.025,779.6332,993.2383,789.37,994.72" style="stroke:#181818;stroke-width:1.0;"/></g><!--link eventRepository to apiClient--><g id="link_eventRepository_apiClient"><path d="M866.85,847.45 C878.04,854.66 889.93,863.11 900,872 C916.63,886.68 950.2312,927.6453 973.5812,956.8253 " fill="none" id="eventRepository-to-apiClient" style="stroke:#181818;stroke-width:1.0;"/><polygon fill="#181818" points="977.33,961.51,974.83,951.9837,974.206,957.606,968.5837,956.9821,977.33,961.51" style="stroke:#181818;stroke-width:1.0;"/></g><!--link eventRepository to eventModel--><g id="link_eventRepository_eventModel"><path d="M866.89,823.39 C898.75,822.08 936.9951,820.4967 964.9351,819.3467 " fill="none" id="eventRepository-to-eventModel" style="stroke:#181818;stroke-width:1.0;"/><polygon fill="#181818" points="970.93,819.1,961.7731,815.4735,965.9342,819.3056,962.1021,823.4667,970.93,819.1" style="stroke:#181818;stroke-width:1.0;"/></g><!--link locationRepository to apiClient--><g id="link_locationRepository_apiClient"><path d="M873.87,938.13 C907.6,951.46 946.2296,966.7355 971.6196,976.7655 " fill="none" id="locationRepository-to-apiClient" style="stroke:#181818;stroke-width:1.0;"/><polygon fill="#181818" points="977.2,978.97,970.2991,971.9431,972.5497,977.133,967.3598,979.3836,977.2,978.97" style="stroke:#181818;stroke-width:1.0;"/></g><!--link locationRepository to locationModel--><g id="link_locationRepository_locationModel"><path d="M873.87,914.32 C902.3,910.79 932.2354,907.0871 958.0054,903.8971 " fill="none" id="locationRepository-to-locationModel" style="stroke:#181818;stroke-width:1.0;"/><polygon fill="#181818" points="963.96,903.16,954.5368,900.2959,958.9979,903.7742,955.5196,908.2353,963.96,903.16" style="stroke:#181818;stroke-width:1.0;"/></g><!--link storageService to supabaseClient--><g id="link_storageService_supabaseClient"><path d="M864.78,1029.54 C893.21,1040.78 926.8001,1054.0544 955.2101,1065.2844 " fill="none" id="storageService-to-supabaseClient" style="stroke:#181818;stroke-width:1.0;"/><polygon fill="#181818" points="960.79,1067.49,953.8906,1060.4616,956.1401,1065.652,950.9497,1067.9015,960.79,1067.49" style="stroke:#181818;stroke-width:1.0;"/></g><!--link locationPackage to location--><g id="link_locationPackage_location"><path d="M636.18,1080.35 C686.92,1086.13 741.6386,1092.3802 780.4886,1096.8102 " fill="none" id="locationPackage-to-location" style="stroke:#181818;stroke-width:1.0;"/><polygon fill="#181818" points="786.45,1097.49,777.9611,1092.4961,781.4822,1096.9235,777.0548,1100.4446,786.45,1097.49" style="stroke:#181818;stroke-width:1.0;"/></g><!--link flutterFilePicker to filePicker--><g id="link_flutterFilePicker_filePicker"><path d="M648.36,1300.4 C695.42,1297.38 742.5523,1294.3547 778.3523,1292.0547 " fill="none" id="flutterFilePicker-to-filePicker" style="stroke:#181818;stroke-width:1.0;"/><polygon fill="#181818" points="784.34,1291.67,775.1021,1288.2553,779.3503,1291.9906,775.615,1296.2388,784.34,1291.67" style="stroke:#181818;stroke-width:1.0;"/></g><!--link flutterSound to flutterSoundRecorder--><g id="link_flutterSound_flutterSoundRecorder"><path d="M663.24,1217.93 C693.97,1215.3 720.2118,1213.0515 747.7918,1210.6915 " fill="none" id="flutterSound-to-flutterSoundRecorder" style="stroke:#181818;stroke-width:1.0;"/><polygon fill="#181818" points="753.77,1210.18,744.4617,1206.9619,748.7882,1210.6063,745.1438,1214.9328,753.77,1210.18" style="stroke:#181818;stroke-width:1.0;"/></g><!--link flutterImagePicker to imagePicker--><g id="link_flutterImagePicker_imagePicker"><path d="M662.02,1378.52 C702.81,1375.91 740.3723,1373.4941 772.3323,1371.4441 " fill="none" id="flutterImagePicker-to-imagePicker" style="stroke:#181818;stroke-width:1.0;"/><polygon fill="#181818" points="778.32,1371.06,769.0824,1367.6443,773.3303,1371.3801,769.5945,1375.6279,778.32,1371.06" style="stroke:#181818;stroke-width:1.0;"/></g><!--link addEventViewAnalysis to addEventView--><g id="link_addEventViewAnalysis_addEventView"><path d="M74.04,246.35 C98.63,372.86 214.6451,969.6802 242.4351,1112.6402 " fill="none" id="addEventViewAnalysis-to-addEventView" style="stroke:#FF4B5D;stroke-width:1.0;stroke-dasharray:7.0,7.0;"/><polygon fill="#FF4B5D" points="243.58,1118.53,245.7891,1108.9321,242.6259,1113.6219,237.9361,1110.4586,243.58,1118.53" style="stroke:#FF4B5D;stroke-width:1.0;"/><text fill="#FF4B5D" font-family="sans-serif" font-size="11" lengthAdjust="spacing" textLength="37" x="136" y="573.4189">&#171;trace&#187;</text></g><!--link addEventViewAnalysis to addDateView--><g id="link_addEventViewAnalysis_addDateView"><path d="M70.36,246.38 C75.51,378.44 104.97,1031.63 190,1211 C246.69,1330.58 283.71,1355.97 396,1426 C431.8,1448.33 473.2925,1459.7437 504.5725,1466.1637 " fill="none" id="addEventViewAnalysis-to-addDateView" style="stroke:#FF4B5D;stroke-width:1.0;stroke-dasharray:7.0,7.0;"/><polygon fill="#FF4B5D" points="510.45,1467.37,502.438,1461.6422,505.5521,1466.3647,500.8296,1469.4789,510.45,1467.37" style="stroke:#FF4B5D;stroke-width:1.0;"/><text fill="#FF4B5D" font-family="sans-serif" font-size="11" lengthAdjust="spacing" textLength="37" x="232" y="1208.4189">&#171;trace&#187;</text></g><!--link addEventViewAnalysis to chooseCategoriesView--><g id="link_addEventViewAnalysis_chooseCategoriesView"><path d="M69.5,246.31 C69.82,353.16 74.86,806.57 135,1172 C150.6,1266.78 134.53,1302.58 190,1381 C261.97,1482.75 401.013,1532.2025 481.143,1553.5925 " fill="none" id="addEventViewAnalysis-to-chooseCategoriesView" style="stroke:#FF4B5D;stroke-width:1.0;stroke-dasharray:7.0,7.0;"/><polygon fill="#FF4B5D" points="486.94,1555.14,479.2761,1548.9541,482.1092,1553.8504,477.2128,1556.6835,486.94,1555.14" style="stroke:#FF4B5D;stroke-width:1.0;"/><text fill="#FF4B5D" font-family="sans-serif" font-size="11" lengthAdjust="spacing" textLength="37" x="232" y="1378.4189">&#171;trace&#187;</text></g><!--link addEventController to addEventViewModel--><g id="link_addEventController_addEventViewModel"><path d="M283.86,84.4 C288.92,89.36 293.59,94.95 297,101 C307.72,120.03 362.92,466.38 366,488 C374.83,549.95 357.91,718.35 396,768 C419.23,798.28 454.8381,811.2954 487.9081,817.9554 " fill="none" id="addEventController-to-addEventViewModel" style="stroke:#008000;stroke-width:1.0;stroke-dasharray:7.0,7.0;"/><polygon fill="#008000" points="493.79,819.14,485.7569,813.4419,488.8884,818.1529,484.1774,821.2844,493.79,819.14" style="stroke:#008000;stroke-width:1.0;"/><text fill="#008000" font-family="sans-serif" font-size="11" lengthAdjust="spacing" textLength="37" x="328" y="258.4189">&#171;trace&#187;</text></g><!--link addEventController to eventRepository--><g id="link_addEventController_eventRepository"><path d="M278.16,84.05 C284.39,89.55 290.97,95.43 297,101 C342.03,142.58 342.22,167.6 396,197 C527.39,268.83 627.12,159.82 724,274 C788.41,349.91 721.15,627.02 754,721 C763.57,748.36 778.6073,770.5189 794.6173,790.0589 " fill="none" id="addEventController-to-eventRepository" style="stroke:#008000;stroke-width:1.0;stroke-dasharray:7.0,7.0;"/><polygon fill="#008000" points="798.42,794.7,795.8101,785.2032,795.2511,790.8324,789.6219,790.2735,798.42,794.7" style="stroke:#008000;stroke-width:1.0;"/><text fill="#008000" font-family="sans-serif" font-size="11" lengthAdjust="spacing" textLength="37" x="526" y="194.4189">&#171;trace&#187;</text></g><!--link fileController to storageService--><g id="link_fileController_storageService"><path d="M267.67,246.05 C281.86,265.2 303.79,292.38 327,312 C354.24,335.03 363.19,339 396,353 C535.14,412.38 629.02,326.24 724,444 C797.08,534.61 696.15,865.98 754,967 C761.99,980.95 770.672,988.6407 784.132,996.3407 " fill="none" id="fileController-to-storageService" style="stroke:#008000;stroke-width:1.0;stroke-dasharray:7.0,7.0;"/><polygon fill="#008000" points="789.34,999.32,783.5142,991.379,785,996.8372,779.5417,998.323,789.34,999.32" style="stroke:#008000;stroke-width:1.0;"/><text fill="#008000" font-family="sans-serif" font-size="11" lengthAdjust="spacing" textLength="37" x="526" y="350.4189">&#171;trace&#187;</text></g><!--link locationController to addEventViewModel--><g id="link_locationController_addEventViewModel"><path d="M284.29,165.17 C289.31,170.16 293.85,175.81 297,182 C330.27,247.44 314.1,438.73 327,511 C347.78,627.43 316.94,680.04 396,768 C421.14,795.97 455.7686,809.003 487.9586,816.303 " fill="none" id="locationController-to-addEventViewModel" style="stroke:#008000;stroke-width:1.0;stroke-dasharray:7.0,7.0;"/><polygon fill="#008000" points="493.81,817.63,485.9175,811.7386,488.9338,816.5242,484.1482,819.5405,493.81,817.63" style="stroke:#008000;stroke-width:1.0;"/><text fill="#008000" font-family="sans-serif" font-size="11" lengthAdjust="spacing" textLength="37" x="328" y="508.4189">&#171;trace&#187;</text></g><!--link locationController to locationRepository--><g id="link_locationController_locationRepository"><path d="M282.77,165.33 C288.07,170.37 293.1,176 297,182 C321.36,219.48 293.83,248.04 327,278 C460.64,398.7 606.08,222.9 724,359 C798.78,445.3 697.2,772.93 754,872 C760.2,882.82 764.9844,888.302 775.3344,895.322 " fill="none" id="locationController-to-locationRepository" style="stroke:#008000;stroke-width:1.0;stroke-dasharray:7.0,7.0;"/><polygon fill="#008000" points="780.3,898.69,775.0969,890.3277,776.162,895.8834,770.6063,896.9485,780.3,898.69" style="stroke:#008000;stroke-width:1.0;"/><text fill="#008000" font-family="sans-serif" font-size="11" lengthAdjust="spacing" textLength="37" x="526" y="302.4189">&#171;trace&#187;</text></g><!--link locationController to location--><g id="link_locationController_location"><path d="M283.14,165.1 C288.4,170.16 293.33,175.86 297,182 C327.4,232.91 305.61,256.7 327,312 C349.61,370.46 346.84,396.11 396,435 C514.93,529.09 629.36,410.51 724,529 C798.04,621.69 690.99,961.49 754,1062 C761.52,1073.99 768.6106,1080.0326 781.0806,1086.1926 " fill="none" id="locationController-to-location" style="stroke:#008000;stroke-width:1.0;stroke-dasharray:7.0,7.0;"/><polygon fill="#008000" points="786.46,1088.85,780.1624,1081.2777,781.9771,1086.6355,776.6193,1088.4502,786.46,1088.85" style="stroke:#008000;stroke-width:1.0;"/><text fill="#008000" font-family="sans-serif" font-size="11" lengthAdjust="spacing" textLength="37" x="526" y="432.4189">&#171;trace&#187;</text></g><!--link fileController to imagePicker--><g id="link_fileController_imagePicker"><path d="M253.31,246.4 C258.53,305.44 276.56,464.41 327,586 C348.4,637.58 351.06,657.85 396,691 C506.58,772.59 604.52,671.85 693,777 C851.92,965.86 616.22,1124.21 754,1329 C760.03,1337.96 763.6614,1341.9928 773.0414,1347.5228 " fill="none" id="fileController-to-imagePicker" style="stroke:#008000;stroke-width:1.0;stroke-dasharray:7.0,7.0;"/><polygon fill="#008000" points="778.21,1350.57,772.4885,1342.5535,773.9028,1348.0307,768.4256,1349.445,778.21,1350.57" style="stroke:#008000;stroke-width:1.0;"/><text fill="#008000" font-family="sans-serif" font-size="11" lengthAdjust="spacing" textLength="37" x="526" y="688.4189">&#171;trace&#187;</text></g><!--link fileController to flutterSoundRecorder--><g id="link_fileController_flutterSoundRecorder"><path d="M255.31,246.23 C266,303.34 301.87,451.02 396,521 C517.6,611.4 629.23,495.77 724,614 C797.36,705.53 702.51,1035.6 754,1141 C762.02,1157.42 771.6699,1167.7204 785.5099,1178.2804 " fill="none" id="fileController-to-flutterSoundRecorder" style="stroke:#008000;stroke-width:1.0;stroke-dasharray:7.0,7.0;"/><polygon fill="#008000" points="790.28,1181.92,785.5513,1173.2806,786.305,1178.887,780.6985,1179.6407,790.28,1181.92" style="stroke:#008000;stroke-width:1.0;"/><text fill="#008000" font-family="sans-serif" font-size="11" lengthAdjust="spacing" textLength="37" x="526" y="518.4189">&#171;trace&#187;</text></g><!--link fileController to filePicker--><g id="link_fileController_filePicker"><path d="M252.13,246.1 C255.39,314.54 275.28,517.05 396,606 C517.99,695.88 629.34,580.69 724,699 C799.64,793.54 692.93,1138.46 754,1243 C761.03,1255.04 767.4616,1261.3588 779.2916,1268.4388 " fill="none" id="fileController-to-filePicker" style="stroke:#008000;stroke-width:1.0;stroke-dasharray:7.0,7.0;"/><polygon fill="#008000" points="784.44,1271.52,778.7715,1263.4659,780.1497,1268.9523,774.6632,1270.3305,784.44,1271.52" style="stroke:#008000;stroke-width:1.0;"/><text fill="#008000" font-family="sans-serif" font-size="11" lengthAdjust="spacing" textLength="37" x="526" y="603.4189">&#171;trace&#187;</text></g><!--link eventModel to eventModelAnalysis--><g id="link_eventModel_eventModelAnalysis"><path d="M996.87,794.83 C993.56,680.94 976.57,183.88 931,134 C835.9,29.9 648.4789,45.5662 577.9489,55.7062 " fill="none" id="eventModel-to-eventModelAnalysis" style="stroke:#FFA500;stroke-width:1.0;stroke-dasharray:7.0,7.0;"/><polygon fill="#FFA500" points="572.01,56.56,581.4876,59.2385,576.9591,55.8485,580.3492,51.32,572.01,56.56" style="stroke:#FFA500;stroke-width:1.0;"/><text fill="#FFA500" font-family="sans-serif" font-size="11" lengthAdjust="spacing" textLength="37" x="808.5" y="51.4189">&#171;trace&#187;</text></g><!--link locationModel to locationModelAnalysis--><g id="link_locationModel_locationModelAnalysis"><path d="M974.21,875.94 C969.4,870.38 964.69,864.23 961,858 C800.47,586.47 956.11,402.6 724,189 C684.03,152.22 624.7347,143.7931 585.1747,142.1231 " fill="none" id="locationModel-to-locationModelAnalysis" style="stroke:#FFA500;stroke-width:1.0;stroke-dasharray:7.0,7.0;"/><polygon fill="#FFA500" points="579.18,141.87,588.0033,146.246,584.1756,142.0809,588.3407,138.2532,579.18,141.87" style="stroke:#FFA500;stroke-width:1.0;"/><text fill="#FFA500" font-family="sans-serif" font-size="11" lengthAdjust="spacing" textLength="37" x="808.5" y="218.4189">&#171;trace&#187;</text></g><!--SRC=[hLVRRkCs47tdLn3fI_BWMpOf2iCLcdhZRXSn4CJUl1H5G4kKGuGM1OhorbtqtpkKh0jl6oyImJ34cJc7Gyv5PF72ifn8iiE5Ed0A_vB5gjnnn6cgi19OikspmWcJD5PCPAXe4GbDISdLclwZRZZRPZkQAHp37vMkrK9aQiN-fNWoGV3a97uXMuflCi8F1IlmDuJX0J1J1tnskuUtfKWeFyEamBGTDlQ6zPs8YVQj0_2-fCLKe8qeiuH8WDqaIJNF8wDVAnJf2KnG3DvBmV7PWd4whmUSoWgL6YBJl9d2WX17RCAQ1LamxeXhxtn-uy4WD4t8t4F_FNDhtOPj9zUMWV2P1DynT1thkslQ_zVbLYh1dcO9diqMl5IGbjCFmybuE8wYRp-I2e37OAPm5BcmZqJHFgePXq7pPo4AEWUxhP2C5YqwzYZwDCSSsUKYqvLsTbpdjDerbXv6NrcofQgeo8xl8KnQRyXe1xD9HlXGJr816qa8sMpxg7dfe8talZODpWrnVyfP_0BpzzuxdgDpkjRkAzKhgtWgzEQEZ973jjBI455EvOuL1VZ-z4oo139iv8ewoaxtgLQ5UDaE_fkrzWUEUtzgfN-rJJSmzjWswZQhRKf-jaLlEnveB6JIG3mA6zppiiAmdjTc2wkgvu7cec1Ao4FNnZkPNI9E-xFWt1476LQW1SzMLEvPJ2jqOOWyTTMqx9pDEGD7wufkHk6fofni2DHj1oeCKH3PRphTfulOKiVLLp-IF_9nr0qJ7gFV3GPHlvMvIb-dSgsQ5kGesXRZQEmEuXYuhI5aKjUxetLBDqJGhqZVzfXHChUm3fmsj78-OEMcTi3Gp6A4x9AgV6jorgljfGdoL9H9430mCmXPfLNvQPH0DzCni0OBSe9QXw6BSJ-aJepRNkN6hR8rUfJtC3FywwSqlTfS9tyFpSZYAPwbGfzg1HVorwDLD9ifIM8QHREHraQdiROdWtSZzHuOJcH7dgCQa6ybfPcz3NNwcSILOTZf0AkTa2TnMkV4Ff-LUIVHUKwJxx3mLrWzXVIUj6_Uo5wHl9dBLvnl9-sQmqbKnzPOHn2884-oBMrpqBWqM8orQJWM7axlNUH4MlGRt54GkkSaKr-MTtXFfVuyuSdmSdnvDVnmldukyO9kyEGQVjEhyNHyZHzlrrYhBz3v7_Tt-qiCXru95P0mVOFVbDgP2_IPx0b-AE4aiADJh4Vdw-K5NjqsGdoRxHbSa_JL7Nr-NDP6-9DGgroeolZdgy7lJ65TOh3tZqlqiRxG0pGM2SksK_nblHZyWkvWUQK-z69Qe3a4Nyd351pz7m00]--></g></svg>