<?xml version="1.0" encoding="us-ascii" standalone="no"?><svg xmlns="http://www.w3.org/2000/svg" xmlns:xlink="http://www.w3.org/1999/xlink" contentStyleType="text/css" height="1621px" preserveAspectRatio="none" style="width:1094px;height:1621px;background:#FFFFFF;" version="1.1" viewBox="0 0 1094 1621" width="1094px" zoomAndPan="magnify"><defs/><g><!--cluster Analysis--><g id="cluster_Analysis"><polygon fill="none" points="16,6,69,6,76,25.8359,595,25.8359,595,262,16,262,16,6" style="stroke:#000000;stroke-width:1.5;"/><line style="stroke:#000000;stroke-width:1.5;" x1="16" x2="76" y1="25.8359" y2="25.8359"/><text fill="#000000" font-family="sans-serif" font-size="11" font-weight="bold" lengthAdjust="spacing" textLength="47" x="20" y="19.4189">Analysis</text></g><!--cluster frontend--><g id="cluster_frontend"><polygon fill="none" points="198,749,252,749,259,768.8359,1077,768.8359,1077,1614,198,1614,198,749" style="stroke:#000000;stroke-width:1.5;"/><line style="stroke:#000000;stroke-width:1.5;" x1="198" x2="259" y1="768.8359" y2="768.8359"/><text fill="#000000" font-family="sans-serif" font-size="11" font-weight="bold" lengthAdjust="spacing" textLength="48" x="202" y="762.4189">frontend</text><text fill="#000000" font-family="sans-serif" font-size="11" font-style="italic" lengthAdjust="spacing" textLength="77" x="603" y="782.2549">&#171;Flutter:3.10.0&#187;</text></g><!--entity eventModelAnalysis--><g id="elem_eventModelAnalysis"><ellipse cx="544.5" cy="54" fill="#F1F1F1" rx="12" ry="12" style="stroke:#181818;stroke-width:0.5;"/><line style="stroke:#181818;stroke-width:0.5;" x1="532.5" x2="556.5" y1="68" y2="68"/><text fill="#000000" font-family="sans-serif" font-size="11" lengthAdjust="spacing" textLength="55" x="517" y="81.4189">EventModel</text></g><!--entity locationModelAnalysis--><g id="elem_locationModelAnalysis"><ellipse cx="544.5" cy="135" fill="#F1F1F1" rx="12" ry="12" style="stroke:#181818;stroke-width:0.5;"/><line style="stroke:#181818;stroke-width:0.5;" x1="532.5" x2="556.5" y1="149" y2="149"/><text fill="#000000" font-family="sans-serif" font-size="11" lengthAdjust="spacing" textLength="69" x="510" y="162.4189">LocationModel</text></g><!--entity addEventViewAnalysis--><g id="elem_addEventViewAnalysis"><path d="M48,204 L48,228 M48,216 L65,216 " fill="none" style="stroke:#181818;stroke-width:0.5;"/><ellipse cx="77" cy="216" fill="#F1F1F1" rx="12" ry="12" style="stroke:#181818;stroke-width:0.5;"/><text fill="#000000" font-family="sans-serif" font-size="11" lengthAdjust="spacing" textLength="73" x="32" y="243.4189">AddEventView</text></g><!--entity fileController--><g id="elem_fileController"><ellipse cx="250.5" cy="135" fill="#F1F1F1" rx="12" ry="12" style="stroke:#181818;stroke-width:0.5;"/><polygon fill="#181818" points="246.5,123,252.5,118,250.5,123,252.5,128,246.5,123" style="stroke:#181818;stroke-width:1.0;"/><text fill="#000000" font-family="sans-serif" font-size="11" lengthAdjust="spacing" textLength="62" x="219.5" y="162.4189">FileController</text></g><!--entity addEventController--><g id="elem_addEventController"><ellipse cx="250.5" cy="54" fill="#F1F1F1" rx="12" ry="12" style="stroke:#181818;stroke-width:0.5;"/><polygon fill="#181818" points="246.5,42,252.5,37,250.5,42,252.5,47,246.5,42" style="stroke:#181818;stroke-width:1.0;"/><text fill="#000000" font-family="sans-serif" font-size="11" lengthAdjust="spacing" textLength="93" x="204" y="81.4189">AddEventController</text></g><!--entity locationController--><g id="elem_locationController"><ellipse cx="250.5" cy="216" fill="#F1F1F1" rx="12" ry="12" style="stroke:#181818;stroke-width:0.5;"/><polygon fill="#181818" points="246.5,204,252.5,199,250.5,204,252.5,209,246.5,204" style="stroke:#181818;stroke-width:1.0;"/><text fill="#000000" font-family="sans-serif" font-size="11" lengthAdjust="spacing" textLength="87" x="207" y="243.4189">LocationController</text></g><!--entity addEventView--><g id="elem_addEventView"><path d="M230,1136.8359 L230,1160.8359 M230,1148.8359 L247,1148.8359 " fill="none" style="stroke:#181818;stroke-width:0.5;"/><ellipse cx="259" cy="1148.8359" fill="#F1F1F1" rx="12" ry="12" style="stroke:#181818;stroke-width:0.5;"/><text fill="#000000" font-family="sans-serif" font-size="11" lengthAdjust="spacing" textLength="73" x="214" y="1176.2549">AddEventView</text><text fill="#000000" font-family="sans-serif" font-size="11" font-style="italic" lengthAdjust="spacing" textLength="31" x="235" y="1130.4189">&#171;dart&#187;</text></g><!--entity addDateView--><g id="elem_addDateView"><path d="M524,1460.8359 L524,1484.8359 M524,1472.8359 L541,1472.8359 " fill="none" style="stroke:#181818;stroke-width:0.5;"/><ellipse cx="553" cy="1472.8359" fill="#F1F1F1" rx="12" ry="12" style="stroke:#181818;stroke-width:0.5;"/><text fill="#000000" font-family="sans-serif" font-size="11" lengthAdjust="spacing" textLength="68" x="510.5" y="1500.2549">AddDateView</text><text fill="#000000" font-family="sans-serif" font-size="11" font-style="italic" lengthAdjust="spacing" textLength="31" x="529" y="1454.4189">&#171;dart&#187;</text></g><!--entity chooseCategoriesView--><g id="elem_chooseCategoriesView"><path d="M524,1555.8359 L524,1579.8359 M524,1567.8359 L541,1567.8359 " fill="none" style="stroke:#181818;stroke-width:0.5;"/><ellipse cx="553" cy="1567.8359" fill="#F1F1F1" rx="12" ry="12" style="stroke:#181818;stroke-width:0.5;"/><text fill="#000000" font-family="sans-serif" font-size="11" lengthAdjust="spacing" textLength="115" x="487" y="1595.2549">ChooseCategoriesView</text><text fill="#000000" font-family="sans-serif" font-size="11" font-style="italic" lengthAdjust="spacing" textLength="31" x="529" y="1549.4189">&#171;dart&#187;</text></g><!--entity widgets--><g id="elem_widgets"><rect fill="#F1F1F1" height="43.8359" rx="2.5" ry="2.5" style="stroke:#181818;stroke-width:0.5;" width="165" x="462" y="1285"/><rect fill="#F1F1F1" height="10" style="stroke:#181818;stroke-width:0.5;" width="15" x="607" y="1290"/><rect fill="#F1F1F1" height="2" style="stroke:#181818;stroke-width:0.5;" width="4" x="605" y="1292"/><rect fill="#F1F1F1" height="2" style="stroke:#181818;stroke-width:0.5;" width="4" x="605" y="1296"/><text fill="#000000" font-family="sans-serif" font-size="11" lengthAdjust="spacing" textLength="125" x="477" y="1316.4189">package:eventify/widgets</text></g><!--entity material--><g id="elem_material"><rect fill="#F1F1F1" height="43.8359" rx="2.5" ry="2.5" style="stroke:#181818;stroke-width:0.5;" width="174" x="457.5" y="1206"/><rect fill="#F1F1F1" height="10" style="stroke:#181818;stroke-width:0.5;" width="15" x="611.5" y="1211"/><rect fill="#F1F1F1" height="2" style="stroke:#181818;stroke-width:0.5;" width="4" x="609.5" y="1213"/><rect fill="#F1F1F1" height="2" style="stroke:#181818;stroke-width:0.5;" width="4" x="609.5" y="1217"/><text fill="#000000" font-family="sans-serif" font-size="11" lengthAdjust="spacing" textLength="134" x="472.5" y="1237.4189">package:flutter/material.dart</text></g><!--entity locationPackage--><g id="elem_locationPackage"><rect fill="#F1F1F1" height="43.8359" rx="2.5" ry="2.5" style="stroke:#181818;stroke-width:0.5;" width="183" x="453" y="1364"/><rect fill="#F1F1F1" height="10" style="stroke:#181818;stroke-width:0.5;" width="15" x="616" y="1369"/><rect fill="#F1F1F1" height="2" style="stroke:#181818;stroke-width:0.5;" width="4" x="614" y="1371"/><rect fill="#F1F1F1" height="2" style="stroke:#181818;stroke-width:0.5;" width="4" x="614" y="1375"/><text fill="#000000" font-family="sans-serif" font-size="11" lengthAdjust="spacing" textLength="143" x="468" y="1395.4189">package:location/location.dart</text></g><!--entity flutterFilePicker--><g id="elem_flutterFilePicker"><rect fill="#F1F1F1" height="43.8359" rx="2.5" ry="2.5" style="stroke:#181818;stroke-width:0.5;" width="207" x="441" y="1127"/><rect fill="#F1F1F1" height="10" style="stroke:#181818;stroke-width:0.5;" width="15" x="628" y="1132"/><rect fill="#F1F1F1" height="2" style="stroke:#181818;stroke-width:0.5;" width="4" x="626" y="1134"/><rect fill="#F1F1F1" height="2" style="stroke:#181818;stroke-width:0.5;" width="4" x="626" y="1138"/><text fill="#000000" font-family="sans-serif" font-size="11" lengthAdjust="spacing" textLength="167" x="456" y="1158.4189">package:file_picker/file_picker.dart</text></g><!--entity flutterSound--><g id="elem_flutterSound"><rect fill="#F1F1F1" height="43.8359" rx="2.5" ry="2.5" style="stroke:#181818;stroke-width:0.5;" width="237" x="426" y="1048"/><rect fill="#F1F1F1" height="10" style="stroke:#181818;stroke-width:0.5;" width="15" x="643" y="1053"/><rect fill="#F1F1F1" height="2" style="stroke:#181818;stroke-width:0.5;" width="4" x="641" y="1055"/><rect fill="#F1F1F1" height="2" style="stroke:#181818;stroke-width:0.5;" width="4" x="641" y="1059"/><text fill="#000000" font-family="sans-serif" font-size="11" lengthAdjust="spacing" textLength="197" x="441" y="1079.4189">package:flutter_sound/flutter_sound.dart</text></g><!--entity permissionHandler--><g id="elem_permissionHandler"><rect fill="#F1F1F1" height="43.8359" rx="2.5" ry="2.5" style="stroke:#181818;stroke-width:0.5;" width="297" x="396" y="890"/><rect fill="#F1F1F1" height="10" style="stroke:#181818;stroke-width:0.5;" width="15" x="673" y="895"/><rect fill="#F1F1F1" height="2" style="stroke:#181818;stroke-width:0.5;" width="4" x="671" y="897"/><rect fill="#F1F1F1" height="2" style="stroke:#181818;stroke-width:0.5;" width="4" x="671" y="901"/><text fill="#000000" font-family="sans-serif" font-size="11" lengthAdjust="spacing" textLength="257" x="411" y="921.4189">package:permission_handler/permission_handler.dart</text></g><!--entity flutterImagePicker--><g id="elem_flutterImagePicker"><rect fill="#F1F1F1" height="43.8359" rx="2.5" ry="2.5" style="stroke:#181818;stroke-width:0.5;" width="235" x="427" y="969"/><rect fill="#F1F1F1" height="10" style="stroke:#181818;stroke-width:0.5;" width="15" x="642" y="974"/><rect fill="#F1F1F1" height="2" style="stroke:#181818;stroke-width:0.5;" width="4" x="640" y="976"/><rect fill="#F1F1F1" height="2" style="stroke:#181818;stroke-width:0.5;" width="4" x="640" y="980"/><text fill="#000000" font-family="sans-serif" font-size="11" lengthAdjust="spacing" textLength="195" x="442" y="1000.4189">package:image_picker/image_picker.dart</text></g><!--entity location--><g id="elem_location"><rect fill="#F1F1F1" height="43.8359" rx="2.5" ry="2.5" style="stroke:#181818;stroke-width:0.5;" width="81" x="786.5" y="1412"/><rect fill="#F1F1F1" height="10" style="stroke:#181818;stroke-width:0.5;" width="15" x="847.5" y="1417"/><rect fill="#F1F1F1" height="2" style="stroke:#181818;stroke-width:0.5;" width="4" x="845.5" y="1419"/><rect fill="#F1F1F1" height="2" style="stroke:#181818;stroke-width:0.5;" width="4" x="845.5" y="1423"/><text fill="#000000" font-family="sans-serif" font-size="11" lengthAdjust="spacing" textLength="41" x="801.5" y="1443.4189">Location</text></g><!--entity filePicker--><g id="elem_filePicker"><rect fill="#F1F1F1" height="43.8359" rx="2.5" ry="2.5" style="stroke:#181818;stroke-width:0.5;" width="85" x="784.5" y="1238"/><rect fill="#F1F1F1" height="10" style="stroke:#181818;stroke-width:0.5;" width="15" x="849.5" y="1243"/><rect fill="#F1F1F1" height="2" style="stroke:#181818;stroke-width:0.5;" width="4" x="847.5" y="1245"/><rect fill="#F1F1F1" height="2" style="stroke:#181818;stroke-width:0.5;" width="4" x="847.5" y="1249"/><text fill="#000000" font-family="sans-serif" font-size="11" lengthAdjust="spacing" textLength="45" x="799.5" y="1269.4189">FilePicker</text></g><!--entity flutterSoundRecorder--><g id="elem_flutterSoundRecorder"><rect fill="#F1F1F1" height="43.8359" rx="2.5" ry="2.5" style="stroke:#181818;stroke-width:0.5;" width="146" x="754" y="1159"/><rect fill="#F1F1F1" height="10" style="stroke:#181818;stroke-width:0.5;" width="15" x="880" y="1164"/><rect fill="#F1F1F1" height="2" style="stroke:#181818;stroke-width:0.5;" width="4" x="878" y="1166"/><rect fill="#F1F1F1" height="2" style="stroke:#181818;stroke-width:0.5;" width="4" x="878" y="1170"/><text fill="#000000" font-family="sans-serif" font-size="11" lengthAdjust="spacing" textLength="106" x="769" y="1190.4189">FlutterSoundRecorder</text></g><!--entity imagePicker--><g id="elem_imagePicker"><rect fill="#F1F1F1" height="43.8359" rx="2.5" ry="2.5" style="stroke:#181818;stroke-width:0.5;" width="97" x="778.5" y="1080"/><rect fill="#F1F1F1" height="10" style="stroke:#181818;stroke-width:0.5;" width="15" x="855.5" y="1085"/><rect fill="#F1F1F1" height="2" style="stroke:#181818;stroke-width:0.5;" width="4" x="853.5" y="1087"/><rect fill="#F1F1F1" height="2" style="stroke:#181818;stroke-width:0.5;" width="4" x="853.5" y="1091"/><text fill="#000000" font-family="sans-serif" font-size="11" lengthAdjust="spacing" textLength="57" x="793.5" y="1111.4189">ImagePicker</text></g><!--entity eventRepository--><g id="elem_eventRepository"><ellipse cx="827" cy="824.8359" fill="#F1F1F1" rx="12" ry="12" style="stroke:#181818;stroke-width:0.5;"/><polygon fill="#181818" points="823,812.8359,829,807.8359,827,812.8359,829,817.8359,823,812.8359" style="stroke:#181818;stroke-width:1.0;"/><text fill="#000000" font-family="sans-serif" font-size="11" lengthAdjust="spacing" textLength="79" x="787.5" y="852.2549">EventRepository</text><text fill="#000000" font-family="sans-serif" font-size="11" font-style="italic" lengthAdjust="spacing" textLength="31" x="811.5" y="806.4189">&#171;dart&#187;</text></g><!--entity locationRepository--><g id="elem_locationRepository"><ellipse cx="827" cy="919.8359" fill="#F1F1F1" rx="12" ry="12" style="stroke:#181818;stroke-width:0.5;"/><polygon fill="#181818" points="823,907.8359,829,902.8359,827,907.8359,829,912.8359,823,907.8359" style="stroke:#181818;stroke-width:1.0;"/><text fill="#000000" font-family="sans-serif" font-size="11" lengthAdjust="spacing" textLength="93" x="780.5" y="947.2549">LocationRepository</text><text fill="#000000" font-family="sans-serif" font-size="11" font-style="italic" lengthAdjust="spacing" textLength="31" x="811.5" y="901.4189">&#171;dart&#187;</text></g><!--entity storageService--><g id="elem_storageService"><ellipse cx="827" cy="1014.8359" fill="#F1F1F1" rx="12" ry="12" style="stroke:#181818;stroke-width:0.5;"/><polygon fill="#181818" points="823,1002.8359,829,997.8359,827,1002.8359,829,1007.8359,823,1002.8359" style="stroke:#181818;stroke-width:1.0;"/><text fill="#000000" font-family="sans-serif" font-size="11" lengthAdjust="spacing" textLength="75" x="789.5" y="1042.2549">StorageService</text><text fill="#000000" font-family="sans-serif" font-size="11" font-style="italic" lengthAdjust="spacing" textLength="31" x="811.5" y="996.4189">&#171;dart&#187;</text></g><!--entity userProvider--><g id="elem_userProvider"><ellipse cx="827" cy="1346.8359" fill="#F1F1F1" rx="12" ry="12" style="stroke:#181818;stroke-width:0.5;"/><polygon fill="#181818" points="823,1334.8359,829,1329.8359,827,1334.8359,829,1339.8359,823,1334.8359" style="stroke:#181818;stroke-width:1.0;"/><text fill="#000000" font-family="sans-serif" font-size="11" lengthAdjust="spacing" textLength="63" x="795.5" y="1374.2549">UserProvider</text><text fill="#000000" font-family="sans-serif" font-size="11" font-style="italic" lengthAdjust="spacing" textLength="31" x="811.5" y="1328.4189">&#171;dart&#187;</text></g><!--entity apiClient--><g id="elem_apiClient"><ellipse cx="1011" cy="986.8359" fill="#F1F1F1" rx="12" ry="12" style="stroke:#181818;stroke-width:0.5;"/><polygon fill="#181818" points="1007,974.8359,1013,969.8359,1011,974.8359,1013,979.8359,1007,974.8359" style="stroke:#181818;stroke-width:1.0;"/><text fill="#000000" font-family="sans-serif" font-size="11" lengthAdjust="spacing" textLength="42" x="990" y="1014.2549">ApiClient</text><text fill="#000000" font-family="sans-serif" font-size="11" font-style="italic" lengthAdjust="spacing" textLength="31" x="995.5" y="968.4189">&#171;dart&#187;</text></g><!--entity supabaseClient--><g id="elem_supabaseClient"><ellipse cx="1011" cy="1081.8359" fill="#F1F1F1" rx="12" ry="12" style="stroke:#181818;stroke-width:0.5;"/><polygon fill="#181818" points="1007,1069.8359,1013,1064.8359,1011,1069.8359,1013,1074.8359,1007,1069.8359" style="stroke:#181818;stroke-width:1.0;"/><text fill="#000000" font-family="sans-serif" font-size="11" lengthAdjust="spacing" textLength="75" x="973.5" y="1109.2549">SupabaseClient</text><text fill="#000000" font-family="sans-serif" font-size="11" font-style="italic" lengthAdjust="spacing" textLength="31" x="995.5" y="1063.4189">&#171;dart&#187;</text></g><!--entity addEventViewModel--><g id="elem_addEventViewModel"><ellipse cx="544.5" cy="824.8359" fill="#F1F1F1" rx="12" ry="12" style="stroke:#181818;stroke-width:0.5;"/><polygon fill="#181818" points="540.5,812.8359,546.5,807.8359,544.5,812.8359,546.5,817.8359,540.5,812.8359" style="stroke:#181818;stroke-width:1.0;"/><text fill="#000000" font-family="sans-serif" font-size="11" lengthAdjust="spacing" textLength="101" x="494" y="852.2549">AddEventViewModel</text><text fill="#000000" font-family="sans-serif" font-size="11" font-style="italic" lengthAdjust="spacing" textLength="31" x="529" y="806.4189">&#171;dart&#187;</text></g><!--entity eventModel--><g id="elem_eventModel"><ellipse cx="1011" cy="811" fill="#F1F1F1" rx="12" ry="12" style="stroke:#181818;stroke-width:0.5;"/><line style="stroke:#181818;stroke-width:0.5;" x1="999" x2="1023" y1="825" y2="825"/><text fill="#000000" font-family="sans-serif" font-size="11" lengthAdjust="spacing" textLength="55" x="983.5" y="838.4189">EventModel</text></g><!--entity locationModel--><g id="elem_locationModel"><ellipse cx="1011" cy="892" fill="#F1F1F1" rx="12" ry="12" style="stroke:#181818;stroke-width:0.5;"/><line style="stroke:#181818;stroke-width:0.5;" x1="999" x2="1023" y1="906" y2="906"/><text fill="#000000" font-family="sans-serif" font-size="11" lengthAdjust="spacing" textLength="69" x="976.5" y="919.4189">LocationModel</text></g><!--entity supabaseUserModel--><g id="elem_supabaseUserModel"><ellipse cx="1011" cy="1340" fill="#F1F1F1" rx="12" ry="12" style="stroke:#181818;stroke-width:0.5;"/><line style="stroke:#181818;stroke-width:0.5;" x1="999" x2="1023" y1="1354" y2="1354"/><text fill="#000000" font-family="sans-serif" font-size="11" lengthAdjust="spacing" textLength="100" x="961" y="1367.4189">SupabaseUserModel</text></g><!--link addEventViewAnalysis to addEventController--><g id="link_addEventViewAnalysis_addEventController"><path d="M90.01,199.59 C113.05,173.96 152.17,132.33 190,101 C197,95.2 204.84,89.46 212.48,84.21 " fill="none" id="addEventViewAnalysis-addEventController" style="stroke:#181818;stroke-width:1.0;"/></g><!--link addEventViewAnalysis to locationController--><g id="link_addEventViewAnalysis_locationController"><path d="M105.06,223 C134.26,223 175.71,223 206.72,223 " fill="none" id="addEventViewAnalysis-locationController" style="stroke:#181818;stroke-width:1.0;"/></g><!--link addEventViewAnalysis to fileController--><g id="link_addEventViewAnalysis_fileController"><path d="M105.06,207 C138.46,191.97 187.89,169.73 219.39,155.55 " fill="none" id="addEventViewAnalysis-fileController" style="stroke:#181818;stroke-width:1.0;"/></g><!--link addEventController to eventModelAnalysis--><g id="link_addEventController_eventModelAnalysis"><path d="M297.12,61 C358.88,61 467.07,61 516.94,61 " fill="none" id="addEventController-eventModelAnalysis" style="stroke:#181818;stroke-width:1.0;"/></g><!--link fileController to eventModelAnalysis--><g id="link_fileController_eventModelAnalysis"><path d="M281.64,133.34 C310.85,124.97 356.42,111.98 396,101 C438.19,89.3 487.27,76.06 516.83,68.13 " fill="none" id="fileController-eventModelAnalysis" style="stroke:#181818;stroke-width:1.0;"/></g><!--link locationController to locationModelAnalysis--><g id="link_locationController_locationModelAnalysis"><path d="M294.27,211.14 C352.73,194.92 456.38,166.17 509.71,151.37 " fill="none" id="locationController-locationModelAnalysis" style="stroke:#181818;stroke-width:1.0;"/></g><!--link addEventView to addDateView--><g id="link_addEventView_addDateView"><path d="M287.06,1167.47 C318.77,1184.26 360.94,1207.52 366,1215 C419.06,1293.47 334.85,1353.66 396,1426 C424.28,1459.46 470.3699,1468.8723 504.4599,1471.6523 " fill="none" id="addEventView-to-addDateView" style="stroke:#181818;stroke-width:1.0;"/><polygon fill="#181818" points="510.44,1472.14,501.7949,1467.4217,505.4565,1471.7336,501.1447,1475.3953,510.44,1472.14" style="stroke:#181818;stroke-width:1.0;"/></g><!--link addEventView to chooseCategoriesView--><g id="link_addEventView_chooseCategoriesView"><path d="M269.89,1179.1 C278.75,1194.33 289.14,1213.29 297,1231 C300.45,1238.78 389.92,1515.04 396,1521 C420.19,1544.7 450.4071,1555.3214 480.8471,1561.1514 " fill="none" id="addEventView-to-chooseCategoriesView" style="stroke:#181818;stroke-width:1.0;"/><polygon fill="#181818" points="486.74,1562.28,478.6531,1556.6585,481.8293,1561.3395,477.1482,1564.5156,486.74,1562.28" style="stroke:#181818;stroke-width:1.0;"/></g><!--link addEventView to widgets--><g id="link_addEventView_widgets"><path d="M287.07,1154.93 C319.56,1160.48 363,1168.32 366,1171 C399.62,1201.1 363.44,1236.76 396,1268 C413.78,1285.05 432.2588,1293.4888 456.0288,1299.0688 " fill="none" id="addEventView-to-widgets" style="stroke:#181818;stroke-width:1.0;"/><polygon fill="#181818" points="461.87,1300.44,454.0223,1294.489,457.0023,1299.2973,452.194,1302.2773,461.87,1300.44" style="stroke:#181818;stroke-width:1.0;"/></g><!--link addEventView to material--><g id="link_addEventView_material"><path d="M287.04,1151.15 C315.27,1153.26 352.21,1157.04 366,1163 C381.93,1169.89 380.6,1179.99 396,1188 C414.95,1197.86 430.7824,1203.8515 451.5224,1209.6615 " fill="none" id="addEventView-to-material" style="stroke:#181818;stroke-width:1.0;"/><polygon fill="#181818" points="457.3,1211.28,449.7126,1205.0005,452.4853,1209.9312,447.5546,1212.704,457.3,1211.28" style="stroke:#181818;stroke-width:1.0;"/></g><!--link addEventView to locationPackage--><g id="link_addEventView_locationPackage"><path d="M287.18,1159.25 C319.75,1168.76 363.25,1181.9 366,1185 C414.54,1239.83 346.21,1293.31 396,1347 C410.95,1363.12 425.9249,1371.2986 447.1549,1377.1386 " fill="none" id="addEventView-to-locationPackage" style="stroke:#181818;stroke-width:1.0;"/><polygon fill="#181818" points="452.94,1378.73,445.3233,1372.4862,448.1191,1377.4038,443.2014,1380.1997,452.94,1378.73" style="stroke:#181818;stroke-width:1.0;"/></g><!--link addEventView to flutterFilePicker--><g id="link_addEventView_flutterFilePicker"><path d="M287.01,1149 C325.09,1149 381.3,1149 434.92,1149 " fill="none" id="addEventView-to-flutterFilePicker" style="stroke:#181818;stroke-width:1.0;"/><polygon fill="#181818" points="440.92,1149,431.92,1145,435.92,1149,431.92,1153,440.92,1149" style="stroke:#181818;stroke-width:1.0;"/></g><!--link addEventView to flutterSound--><g id="link_addEventView_flutterSound"><path d="M287.1,1139.02 C316.33,1130.86 358.81,1119.06 396,1109 C416.58,1103.43 433.0102,1099.0471 453.8002,1093.5371 " fill="none" id="addEventView-to-flutterSound" style="stroke:#181818;stroke-width:1.0;"/><polygon fill="#181818" points="459.6,1092,449.8756,1090.4392,454.7669,1093.2809,451.9251,1098.1722,459.6,1092" style="stroke:#181818;stroke-width:1.0;"/></g><!--link addEventView to permissionHandler--><g id="link_addEventView_permissionHandler"><path d="M265.24,1118.8 C286.76,1074.99 332.58,994.34 396,951 C405.84,944.28 411.221,940.9679 422.571,936.3579 " fill="none" id="addEventView-to-permissionHandler" style="stroke:#181818;stroke-width:1.0;"/><polygon fill="#181818" points="428.13,934.1,418.2863,933.7808,423.4975,935.9816,421.2968,941.1928,428.13,934.1" style="stroke:#181818;stroke-width:1.0;"/></g><!--link addEventView to flutterImagePicker--><g id="link_addEventView_flutterImagePicker"><path d="M280.3,1118.78 C307.66,1091.76 351.17,1052.98 396,1030 C408.96,1023.35 417.4672,1019.6251 431.7772,1014.9451 " fill="none" id="addEventView-to-flutterImagePicker" style="stroke:#181818;stroke-width:1.0;"/><polygon fill="#181818" points="437.48,1013.08,427.6825,1012.0757,432.7277,1014.6342,430.1692,1019.6794,437.48,1013.08" style="stroke:#181818;stroke-width:1.0;"/></g><!--link addEventView to addEventViewModel--><g id="link_addEventView_addEventViewModel"><path d="M258.53,1118.73 C273.47,1061.41 313.91,936.96 396,872 C424.14,849.74 457.1588,839.0981 487.9488,832.8781 " fill="none" id="addEventView-to-addEventViewModel" style="stroke:#181818;stroke-width:1.0;"/><polygon fill="#181818" points="493.83,831.69,484.2162,829.5513,488.929,832.6801,485.8003,837.3929,493.83,831.69" style="stroke:#181818;stroke-width:1.0;"/></g><!--link addEventViewModel to eventRepository--><g id="link_addEventViewModel_eventRepository"><path d="M595,825 C649.89,825 731.28,825 781.36,825 " fill="none" id="addEventViewModel-to-eventRepository" style="stroke:#181818;stroke-width:1.0;"/><polygon fill="#181818" points="787.36,825,778.36,821,782.36,825,778.36,829,787.36,825" style="stroke:#181818;stroke-width:1.0;"/></g><!--link addEventViewModel to locationRepository--><g id="link_addEventViewModel_locationRepository"><path d="M595.16,840.31 C623.84,849.28 660.55,860.98 693,872 C722.17,881.91 749.0665,891.5751 774.6565,900.9551 " fill="none" id="addEventViewModel-to-locationRepository" style="stroke:#181818;stroke-width:1.0;"/><polygon fill="#181818" points="780.29,903.02,773.2164,896.1669,775.5954,901.2992,770.4632,903.6782,780.29,903.02" style="stroke:#181818;stroke-width:1.0;"/></g><!--link addEventViewModel to storageService--><g id="link_addEventViewModel_storageService"><path d="M595.29,832.06 C625.93,838.41 664.64,850.25 693,872 C732.82,902.54 718.83,931.22 754,967 C764.32,977.5 772.2361,983.756 784.3161,991.486 " fill="none" id="addEventViewModel-to-storageService" style="stroke:#181818;stroke-width:1.0;"/><polygon fill="#181818" points="789.37,994.72,783.9452,986.4998,785.1585,992.025,779.6332,993.2383,789.37,994.72" style="stroke:#181818;stroke-width:1.0;"/></g><!--link addEventViewModel to userProvider--><g id="link_addEventViewModel_userProvider"><path d="M595.01,827.65 C627.76,832.15 668.96,843.58 693,872 C755.03,945.36 702.4,1218.96 754,1300 C763.7,1315.24 774.9972,1323.8009 789.8172,1331.5109 " fill="none" id="addEventViewModel-to-userProvider" style="stroke:#181818;stroke-width:1.0;"/><polygon fill="#181818" points="795.14,1334.28,789.0019,1326.5778,790.7044,1331.9724,785.3098,1333.6748,795.14,1334.28" style="stroke:#181818;stroke-width:1.0;"/></g><!--link eventRepository to apiClient--><g id="link_eventRepository_apiClient"><path d="M866.66,847.67 C877.83,854.9 889.77,863.29 900,872 C930.66,898.11 933.05,910.01 961,939 C970.26,948.6 976.4803,954.8155 985.4103,963.4655 " fill="none" id="eventRepository-to-apiClient" style="stroke:#181818;stroke-width:1.0;"/><polygon fill="#181818" points="989.72,967.64,986.0385,958.5051,986.1286,964.1612,980.4725,964.2513,989.72,967.64" style="stroke:#181818;stroke-width:1.0;"/></g><!--link eventRepository to eventModel--><g id="link_eventRepository_eventModel"><path d="M866.6,823.52 C901.66,822.17 946.4644,820.4399 977.2444,819.2599 " fill="none" id="eventRepository-to-eventModel" style="stroke:#181818;stroke-width:1.0;"/><polygon fill="#181818" points="983.24,819.03,974.0934,815.3777,978.2437,819.2215,974.3998,823.3718,983.24,819.03" style="stroke:#181818;stroke-width:1.0;"/></g><!--link locationRepository to apiClient--><g id="link_locationRepository_apiClient"><path d="M873.93,936.91 C911.2,950.63 956.3494,967.2473 984.1394,977.4773 " fill="none" id="locationRepository-to-apiClient" style="stroke:#181818;stroke-width:1.0;"/><polygon fill="#181818" points="989.77,979.55,982.7059,972.6872,985.0778,977.8227,979.9423,980.1946,989.77,979.55" style="stroke:#181818;stroke-width:1.0;"/></g><!--link locationRepository to locationModel--><g id="link_locationRepository_locationModel"><path d="M873.93,914.7 C905.83,911.02 941.6697,906.8889 970.4797,903.5589 " fill="none" id="locationRepository-to-locationModel" style="stroke:#181818;stroke-width:1.0;"/><polygon fill="#181818" points="976.44,902.87,967.0402,899.9298,971.4731,903.4441,967.9588,907.8769,976.44,902.87" style="stroke:#181818;stroke-width:1.0;"/></g><!--link storageService to supabaseClient--><g id="link_storageService_supabaseClient"><path d="M864.83,1028.56 C896.41,1040.18 936.0295,1054.7669 967.5895,1066.3869 " fill="none" id="storageService-to-supabaseClient" style="stroke:#181818;stroke-width:1.0;"/><polygon fill="#181818" points="973.22,1068.46,966.1563,1061.5967,968.5279,1066.7324,963.3922,1069.104,973.22,1068.46" style="stroke:#181818;stroke-width:1.0;"/></g><!--link userProvider to supabaseUserModel--><g id="link_userProvider_supabaseUserModel"><path d="M858.87,1347 C886.76,1347 922.29,1347 954.76,1347 " fill="none" id="userProvider-to-supabaseUserModel" style="stroke:#181818;stroke-width:1.0;"/><polygon fill="#181818" points="960.76,1347,951.76,1343,955.76,1347,951.76,1351,960.76,1347" style="stroke:#181818;stroke-width:1.0;"/></g><!--link locationPackage to location--><g id="link_locationPackage_location"><path d="M636.18,1401.52 C686.92,1410.2 741.686,1419.5677 780.536,1426.2177 " fill="none" id="locationPackage-to-location" style="stroke:#181818;stroke-width:1.0;"/><polygon fill="#181818" points="786.45,1427.23,778.2539,1421.7689,781.5217,1426.3864,776.9042,1429.6542,786.45,1427.23" style="stroke:#181818;stroke-width:1.0;"/></g><!--link flutterFilePicker to filePicker--><g id="link_flutterFilePicker_filePicker"><path d="M642.18,1171.03 C659.34,1175.93 676.87,1181.61 693,1188 C702.61,1191.81 745.4923,1215.271 781.1023,1235.011 " fill="none" id="flutterFilePicker-to-filePicker" style="stroke:#181818;stroke-width:1.0;"/><polygon fill="#181818" points="786.35,1237.92,780.4178,1230.0581,781.977,1235.4959,776.5392,1237.055,786.35,1237.92" style="stroke:#181818;stroke-width:1.0;"/></g><!--link flutterSound to flutterSoundRecorder--><g id="link_flutterSound_flutterSoundRecorder"><path d="M642.18,1092.03 C659.34,1096.93 676.87,1102.61 693,1109 C702.61,1112.81 745.4923,1136.271 781.1023,1156.011 " fill="none" id="flutterSound-to-flutterSoundRecorder" style="stroke:#181818;stroke-width:1.0;"/><polygon fill="#181818" points="786.35,1158.92,780.4178,1151.0581,781.977,1156.4959,776.5392,1158.055,786.35,1158.92" style="stroke:#181818;stroke-width:1.0;"/></g><!--link flutterImagePicker to imagePicker--><g id="link_flutterImagePicker_imagePicker"><path d="M642.18,1013.03 C659.34,1017.93 676.87,1023.61 693,1030 C702.61,1033.81 745.4923,1057.271 781.1023,1077.011 " fill="none" id="flutterImagePicker-to-imagePicker" style="stroke:#181818;stroke-width:1.0;"/><polygon fill="#181818" points="786.35,1079.92,780.4178,1072.0581,781.977,1077.4959,776.5392,1079.055,786.35,1079.92" style="stroke:#181818;stroke-width:1.0;"/></g><!--link addEventViewAnalysis to addEventView--><g id="link_addEventViewAnalysis_addEventView"><path d="M74.04,246.35 C98.63,372.86 214.6451,969.6802 242.4351,1112.6402 " fill="none" id="addEventViewAnalysis-to-addEventView" style="stroke:#FF4B5D;stroke-width:1.0;stroke-dasharray:7.0,7.0;"/><polygon fill="#FF4B5D" points="243.58,1118.53,245.7891,1108.9321,242.6259,1113.6219,237.9361,1110.4586,243.58,1118.53" style="stroke:#FF4B5D;stroke-width:1.0;"/><text fill="#FF4B5D" font-family="sans-serif" font-size="11" lengthAdjust="spacing" textLength="37" x="136" y="573.4189">&#171;trace&#187;</text></g><!--link addEventViewAnalysis to addDateView--><g id="link_addEventViewAnalysis_addDateView"><path d="M70.36,246.38 C75.51,378.44 104.97,1031.63 190,1211 C246.69,1330.58 283.71,1355.97 396,1426 C431.8,1448.33 473.2925,1459.7437 504.5725,1466.1637 " fill="none" id="addEventViewAnalysis-to-addDateView" style="stroke:#FF4B5D;stroke-width:1.0;stroke-dasharray:7.0,7.0;"/><polygon fill="#FF4B5D" points="510.45,1467.37,502.438,1461.6422,505.5521,1466.3647,500.8296,1469.4789,510.45,1467.37" style="stroke:#FF4B5D;stroke-width:1.0;"/><text fill="#FF4B5D" font-family="sans-serif" font-size="11" lengthAdjust="spacing" textLength="37" x="232" y="1208.4189">&#171;trace&#187;</text></g><!--link addEventViewAnalysis to chooseCategoriesView--><g id="link_addEventViewAnalysis_chooseCategoriesView"><path d="M69.5,246.31 C69.82,353.16 74.86,806.57 135,1172 C150.6,1266.78 134.53,1302.58 190,1381 C261.97,1482.75 401.013,1532.2025 481.143,1553.5925 " fill="none" id="addEventViewAnalysis-to-chooseCategoriesView" style="stroke:#FF4B5D;stroke-width:1.0;stroke-dasharray:7.0,7.0;"/><polygon fill="#FF4B5D" points="486.94,1555.14,479.2761,1548.9541,482.1092,1553.8504,477.2128,1556.6835,486.94,1555.14" style="stroke:#FF4B5D;stroke-width:1.0;"/><text fill="#FF4B5D" font-family="sans-serif" font-size="11" lengthAdjust="spacing" textLength="37" x="232" y="1378.4189">&#171;trace&#187;</text></g><!--link addEventController to addEventViewModel--><g id="link_addEventController_addEventViewModel"><path d="M284,84.32 C289.05,89.29 293.68,94.9 297,101 C332.82,166.81 349.2,709.49 396,768 C419.75,797.69 455.1053,810.72 487.9453,817.54 " fill="none" id="addEventController-to-addEventViewModel" style="stroke:#008000;stroke-width:1.0;stroke-dasharray:7.0,7.0;"/><polygon fill="#008000" points="493.82,818.76,485.8214,813.0135,488.9245,817.7433,484.1947,820.8464,493.82,818.76" style="stroke:#008000;stroke-width:1.0;"/><text fill="#008000" font-family="sans-serif" font-size="11" lengthAdjust="spacing" textLength="37" x="328" y="277.4189">&#171;trace&#187;</text></g><!--link addEventController to eventRepository--><g id="link_addEventController_eventRepository"><path d="M278.16,84.05 C284.39,89.55 290.97,95.43 297,101 C342.03,142.58 342.22,167.6 396,197 C527.39,268.83 627.35,159.62 724,274 C792.41,354.96 711.37,652.96 754,750 C761.48,767.02 770.2468,778.3504 783.2568,790.7504 " fill="none" id="addEventController-to-eventRepository" style="stroke:#008000;stroke-width:1.0;stroke-dasharray:7.0,7.0;"/><polygon fill="#008000" points="787.6,794.89,783.8449,785.7851,783.9806,791.4403,778.3254,791.5761,787.6,794.89" style="stroke:#008000;stroke-width:1.0;"/><text fill="#008000" font-family="sans-serif" font-size="11" lengthAdjust="spacing" textLength="37" x="526" y="194.4189">&#171;trace&#187;</text></g><!--link fileController to storageService--><g id="link_fileController_storageService"><path d="M277.91,165.08 C318.68,200.68 392.66,265.12 396,267 C516.86,334.82 598.12,260.98 693,362 C785.51,460.5 686.57,849.9 754,967 C762.02,980.93 770.7129,988.619 784.1629,996.319 " fill="none" id="fileController-to-storageService" style="stroke:#008000;stroke-width:1.0;stroke-dasharray:7.0,7.0;"/><polygon fill="#008000" points="789.37,999.3,783.5467,991.3571,785.0308,996.8158,779.5721,998.2999,789.37,999.3" style="stroke:#008000;stroke-width:1.0;"/><text fill="#008000" font-family="sans-serif" font-size="11" lengthAdjust="spacing" textLength="37" x="526" y="264.4189">&#171;trace&#187;</text></g><!--link locationController to addEventViewModel--><g id="link_locationController_addEventViewModel"><path d="M251.45,246.25 C251.74,339.73 257.54,687.03 327,766 C368.55,813.24 437.8438,824.1474 487.7638,825.9174 " fill="none" id="locationController-to-addEventViewModel" style="stroke:#008000;stroke-width:1.0;stroke-dasharray:7.0,7.0;"/><polygon fill="#008000" points="493.76,826.13,484.9074,821.8136,488.7631,825.9528,484.6239,829.8086,493.76,826.13" style="stroke:#008000;stroke-width:1.0;"/><text fill="#008000" font-family="sans-serif" font-size="11" lengthAdjust="spacing" textLength="37" x="328" y="763.4189">&#171;trace&#187;</text></g><!--link locationController to locationRepository--><g id="link_locationController_locationRepository"><path d="M252.07,246.17 C254.51,292.08 266.82,394.77 327,448 C461.89,567.3 604.13,394.62 724,529 C774.93,586.1 714.99,806.18 754,872 C760.28,882.6 764.9784,887.9415 775.1784,894.9215 " fill="none" id="locationController-to-locationRepository" style="stroke:#008000;stroke-width:1.0;stroke-dasharray:7.0,7.0;"/><polygon fill="#008000" points="780.13,898.31,774.9616,889.9263,776.0037,895.4863,770.4436,896.5284,780.13,898.31" style="stroke:#008000;stroke-width:1.0;"/><text fill="#008000" font-family="sans-serif" font-size="11" lengthAdjust="spacing" textLength="37" x="526" y="472.4189">&#171;trace&#187;</text></g><!--link locationController to location--><g id="link_locationController_location"><path d="M251.24,246.15 C251.46,309.98 258.48,492.35 327,622 C347.27,660.34 358.66,668.94 396,691 C514.32,760.9 605.14,671.33 693,777 C781.23,883.11 677.64,1280.05 754,1395 C761.71,1406.6 768.674,1412.4165 780.994,1418.4065 " fill="none" id="locationController-to-location" style="stroke:#008000;stroke-width:1.0;stroke-dasharray:7.0,7.0;"/><polygon fill="#008000" points="786.39,1421.03,780.045,1413.4973,781.8933,1418.8437,776.5469,1420.692,786.39,1421.03" style="stroke:#008000;stroke-width:1.0;"/><text fill="#008000" font-family="sans-serif" font-size="11" lengthAdjust="spacing" textLength="37" x="526" y="688.4189">&#171;trace&#187;</text></g><!--link fileController to imagePicker--><g id="link_fileController_imagePicker"><path d="M281.74,165.28 C287.25,170.4 292.63,176.07 297,182 C316.36,208.26 312.95,219.55 327,249 C356.19,310.17 342.52,343.36 396,385 C502.77,468.13 590.7,363.43 693,452 C795.99,541.17 681.62,946.59 754,1062 C759.85,1071.33 763.555,1075.573 773.055,1081.273 " fill="none" id="fileController-to-imagePicker" style="stroke:#008000;stroke-width:1.0;stroke-dasharray:7.0,7.0;"/><polygon fill="#008000" points="778.2,1084.36,772.5405,1076.2996,773.9125,1081.7875,768.4246,1083.1595,778.2,1084.36" style="stroke:#008000;stroke-width:1.0;"/><text fill="#008000" font-family="sans-serif" font-size="11" lengthAdjust="spacing" textLength="37" x="526" y="382.4189">&#171;trace&#187;</text></g><!--link fileController to flutterSoundRecorder--><g id="link_fileController_flutterSoundRecorder"><path d="M281.54,162.5 C287.64,168.1 293.3,174.68 297,182 C332.28,251.89 274.95,474.53 327,533 C446.74,667.5 606.18,477.81 724,614 C800.74,702.71 691.66,1041.63 754,1141 C758.41,1148.03 759.6465,1150.4063 766.4565,1155.3263 " fill="none" id="fileController-to-flutterSoundRecorder" style="stroke:#008000;stroke-width:1.0;stroke-dasharray:7.0,7.0;"/><polygon fill="#008000" points="771.32,1158.84,766.3672,1150.3271,767.2671,1155.9119,761.6823,1156.8118,771.32,1158.84" style="stroke:#008000;stroke-width:1.0;"/><text fill="#008000" font-family="sans-serif" font-size="11" lengthAdjust="spacing" textLength="37" x="526" y="559.4189">&#171;trace&#187;</text></g><!--link fileController to filePicker--><g id="link_fileController_filePicker"><path d="M281.59,162.48 C287.68,168.08 293.34,174.66 297,182 C335.93,259.97 278.59,500.54 327,573 C429.83,726.93 607.77,554.92 724,699 C796.82,789.26 692.34,1121.78 754,1220 C761.07,1231.26 767.1869,1236.8515 778.8769,1242.9315 " fill="none" id="fileController-to-filePicker" style="stroke:#008000;stroke-width:1.0;stroke-dasharray:7.0,7.0;"/><polygon fill="#008000" points="784.2,1245.7,778.0611,1237.9985,779.7641,1243.3929,774.3697,1245.0959,784.2,1245.7" style="stroke:#008000;stroke-width:1.0;"/><text fill="#008000" font-family="sans-serif" font-size="11" lengthAdjust="spacing" textLength="37" x="526" y="629.4189">&#171;trace&#187;</text></g><!--link eventModel to eventModelAnalysis--><g id="link_eventModel_eventModelAnalysis"><path d="M1008.93,794.82 C1003.47,680.86 977.11,183.56 931,134 C835.07,30.89 648.5916,45.8747 578.1016,55.7847 " fill="none" id="eventModel-to-eventModelAnalysis" style="stroke:#FFA500;stroke-width:1.0;stroke-dasharray:7.0,7.0;"/><polygon fill="#FFA500" points="572.16,56.62,581.6292,59.3281,577.1113,55.9239,580.5155,51.406,572.16,56.62" style="stroke:#FFA500;stroke-width:1.0;"/><text fill="#FFA500" font-family="sans-serif" font-size="11" lengthAdjust="spacing" textLength="37" x="808.5" y="52.4189">&#171;trace&#187;</text></g><!--link locationModel to locationModelAnalysis--><g id="link_locationModel_locationModelAnalysis"><path d="M977.26,875.84 C971.26,870.5 965.49,864.47 961,858 C781,598.96 956.11,402.6 724,189 C684.03,152.22 624.7347,143.7931 585.1747,142.1231 " fill="none" id="locationModel-to-locationModelAnalysis" style="stroke:#FFA500;stroke-width:1.0;stroke-dasharray:7.0,7.0;"/><polygon fill="#FFA500" points="579.18,141.87,588.0033,146.246,584.1756,142.0809,588.3407,138.2532,579.18,141.87" style="stroke:#FFA500;stroke-width:1.0;"/><text fill="#FFA500" font-family="sans-serif" font-size="11" lengthAdjust="spacing" textLength="37" x="808.5" y="217.4189">&#171;trace&#187;</text></g><!--SRC=[hLZRRkCs47tdLn3fI_BWMpOf5ePhDFN6tIvYm8YTl1H5G4kKGuGM1OhorbtqttSeMH8luiQBn30CQNZEuN0uCwASlx0q8vBiSAuEdCAlP94gTXnncYYi19Pi-wnmp2ID51CfoXj6J1DISBMc_weRphRfZgOAH_13fO-QYrIjs7yKZqO8FXc9NiYMufkKy4FESlmDOVW0cQa3FhlTmzL2n9IVOP9ZsjpMU0jz9oAYVMi9tBGqd9Aq4KKQ4mcqcpWkvtbaz6l98eR19aNWlHGSdyqPfxFgXbDPiXBBPCFhAHmAySmshLwGG-EUkVAkos_SwuMc2S4xv7y4TzPjOLkxHWQspnRu0T1tp7JNnl_VvbOY0K_J64ycSrueIClnX_ves1zEfzz-9XM0Zm6cy7JgqpuHHKrMVHycpPw5oEaCS5iX6SqRTjGnOCeSSsINYLHNsjbndUCoQYmv3BwoU4jLNeeThqESf0h8O0UpIKPuNqzI4cjBY5c7VL1VjDJQigoWmRbXtvyo5ht0_CPrgtDqJjVQiXnwPHLFkGxkmBhpr5RQ6XBAgDonF0VVdvv96aE63NnJAzcEVQw6Ghfi1x_rMiqRpxs_z63tQkjkOCNO1RN1QffIjzhS2CSzZOICQqh7W4isl2mvpF3QRc5bzTpJJEHC2NbestXhSql4QtyEdNlceC8AHi6p5PLx5j6IdLkc8FCXft8fnPxLOIaCGv1rax4PPx2wgWtKTs7_Yeni21HxIyejKtWcep6rpplYMhs-yUgJzMUUg1QsNekEN8lFNQlkp0XPVRNNcvejqn_iweW-gcvrta3JohmHjrDv0By5XI1LN_56_HOH4Z0hloiyziRQ8QpsMWETsWgW_18A0Erg2O3Cqa38hUxI_ReIEaUDv4CTnMqB101sNYAdoikbM8M5a5NG9g1DLUJaXpKJydAZsiqsLSpCy5AbQQt-zfTOgwLsdhtwV_-I95URw_YVlfqWU8mdYT27SC65_Es8caucIfA8JgUJWHwTdgRQ76JUJRJpV7EYEkeuMOBuLbAQkc6e4jGMBe5XfmEgRjAUfEaSQqqz9pjFakiu_Bx3mbzHxIYszvHzSo2D8dcpLbTnlbsqRGudIHtRPxM380HvacvfauFMEuwZM473Uz6XsVdgTA8i-XrUgH1QSfAgXyKTtbEfdt9urBySNbxrFvoldmiyfniykeRl-6eu7bxZnzirriCNwFpFvTt-4iCPNK85n4p_uR0fj3CNw0lP4tnVmBbYHyTOtvsl5nTuTLiRyMswP_1Mf_zfG5yU5nK8VnPgbGbLWd-zwlt15DOb1h5_NA1FrVyFG8r4pDBj63-ivxsFw0wML-WpEgOvci7cAtaOWwFV0G00]--></g></svg>