<?xml version="1.0" encoding="us-ascii" standalone="no"?><svg xmlns="http://www.w3.org/2000/svg" xmlns:xlink="http://www.w3.org/1999/xlink" contentStyleType="text/css" height="1719px" preserveAspectRatio="none" style="width:906px;height:1719px;background:#FFFFFF;" version="1.1" viewBox="0 0 906 1719" width="906px" zoomAndPan="magnify"><defs/><g><!--cluster Analysis--><g id="cluster_Analysis"><polygon fill="none" points="16,6,69,6,76,25.8359,513.5,25.8359,513.5,262,16,262,16,6" style="stroke:#000000;stroke-width:1.5;"/><line style="stroke:#000000;stroke-width:1.5;" x1="16" x2="76" y1="25.8359" y2="25.8359"/><text fill="#000000" font-family="sans-serif" font-size="11" font-weight="bold" lengthAdjust="spacing" textLength="47" x="20" y="19.4189">Analysis</text></g><!--cluster frontend--><g id="cluster_frontend"><polygon fill="none" points="198,749,252,749,259,768.8359,889,768.8359,889,1712,198,1712,198,749" style="stroke:#000000;stroke-width:1.5;"/><line style="stroke:#000000;stroke-width:1.5;" x1="198" x2="259" y1="768.8359" y2="768.8359"/><text fill="#000000" font-family="sans-serif" font-size="11" font-weight="bold" lengthAdjust="spacing" textLength="48" x="202" y="762.4189">frontend</text><text fill="#000000" font-family="sans-serif" font-size="11" font-style="italic" lengthAdjust="spacing" textLength="77" x="509" y="782.2549">&#171;Flutter:3.10.0&#187;</text></g><!--entity eventModelAnalysis--><g id="elem_eventModelAnalysis"><ellipse cx="463" cy="54" fill="#F1F1F1" rx="12" ry="12" style="stroke:#181818;stroke-width:0.5;"/><line style="stroke:#181818;stroke-width:0.5;" x1="451" x2="475" y1="68" y2="68"/><text fill="#000000" font-family="sans-serif" font-size="11" lengthAdjust="spacing" textLength="55" x="435.5" y="81.4189">EventModel</text></g><!--entity locationModelAnalysis--><g id="elem_locationModelAnalysis"><ellipse cx="463" cy="135" fill="#F1F1F1" rx="12" ry="12" style="stroke:#181818;stroke-width:0.5;"/><line style="stroke:#181818;stroke-width:0.5;" x1="451" x2="475" y1="149" y2="149"/><text fill="#000000" font-family="sans-serif" font-size="11" lengthAdjust="spacing" textLength="69" x="428.5" y="162.4189">LocationModel</text></g><!--entity addEventViewAnalysis--><g id="elem_addEventViewAnalysis"><path d="M48,204 L48,228 M48,216 L65,216 " fill="none" style="stroke:#181818;stroke-width:0.5;"/><ellipse cx="77" cy="216" fill="#F1F1F1" rx="12" ry="12" style="stroke:#181818;stroke-width:0.5;"/><text fill="#000000" font-family="sans-serif" font-size="11" lengthAdjust="spacing" textLength="73" x="32" y="243.4189">AddEventView</text></g><!--entity fileController--><g id="elem_fileController"><ellipse cx="250.5" cy="216" fill="#F1F1F1" rx="12" ry="12" style="stroke:#181818;stroke-width:0.5;"/><polygon fill="#181818" points="246.5,204,252.5,199,250.5,204,252.5,209,246.5,204" style="stroke:#181818;stroke-width:1.0;"/><text fill="#000000" font-family="sans-serif" font-size="11" lengthAdjust="spacing" textLength="62" x="219.5" y="243.4189">FileController</text></g><!--entity addEventController--><g id="elem_addEventController"><ellipse cx="250.5" cy="54" fill="#F1F1F1" rx="12" ry="12" style="stroke:#181818;stroke-width:0.5;"/><polygon fill="#181818" points="246.5,42,252.5,37,250.5,42,252.5,47,246.5,42" style="stroke:#181818;stroke-width:1.0;"/><text fill="#000000" font-family="sans-serif" font-size="11" lengthAdjust="spacing" textLength="93" x="204" y="81.4189">AddEventController</text></g><!--entity locationController--><g id="elem_locationController"><ellipse cx="250.5" cy="135" fill="#F1F1F1" rx="12" ry="12" style="stroke:#181818;stroke-width:0.5;"/><polygon fill="#181818" points="246.5,123,252.5,118,250.5,123,252.5,128,246.5,123" style="stroke:#181818;stroke-width:1.0;"/><text fill="#000000" font-family="sans-serif" font-size="11" lengthAdjust="spacing" textLength="87" x="207" y="162.4189">LocationController</text></g><!--entity addEventView--><g id="elem_addEventView"><path d="M230,1185.8359 L230,1209.8359 M230,1197.8359 L247,1197.8359 " fill="none" style="stroke:#181818;stroke-width:0.5;"/><ellipse cx="259" cy="1197.8359" fill="#F1F1F1" rx="12" ry="12" style="stroke:#181818;stroke-width:0.5;"/><text fill="#000000" font-family="sans-serif" font-size="11" lengthAdjust="spacing" textLength="73" x="214" y="1225.2549">AddEventView</text><text fill="#000000" font-family="sans-serif" font-size="11" font-style="italic" lengthAdjust="spacing" textLength="31" x="235" y="1179.4189">&#171;dart&#187;</text></g><!--entity addDateView--><g id="elem_addDateView"><path d="M442.5,1558.8359 L442.5,1582.8359 M442.5,1570.8359 L459.5,1570.8359 " fill="none" style="stroke:#181818;stroke-width:0.5;"/><ellipse cx="471.5" cy="1570.8359" fill="#F1F1F1" rx="12" ry="12" style="stroke:#181818;stroke-width:0.5;"/><text fill="#000000" font-family="sans-serif" font-size="11" lengthAdjust="spacing" textLength="68" x="429" y="1598.2549">AddDateView</text><text fill="#000000" font-family="sans-serif" font-size="11" font-style="italic" lengthAdjust="spacing" textLength="31" x="447.5" y="1552.4189">&#171;dart&#187;</text></g><!--entity chooseCategoriesView--><g id="elem_chooseCategoriesView"><path d="M442.5,1653.8359 L442.5,1677.8359 M442.5,1665.8359 L459.5,1665.8359 " fill="none" style="stroke:#181818;stroke-width:0.5;"/><ellipse cx="471.5" cy="1665.8359" fill="#F1F1F1" rx="12" ry="12" style="stroke:#181818;stroke-width:0.5;"/><text fill="#000000" font-family="sans-serif" font-size="11" lengthAdjust="spacing" textLength="115" x="405.5" y="1693.2549">ChooseCategoriesView</text><text fill="#000000" font-family="sans-serif" font-size="11" font-style="italic" lengthAdjust="spacing" textLength="31" x="447.5" y="1647.4189">&#171;dart&#187;</text></g><!--entity widgets--><g id="elem_widgets"><rect fill="#F1F1F1" height="57.6719" rx="2.5" ry="2.5" style="stroke:#181818;stroke-width:0.5;" width="128" x="399" y="983"/><rect fill="#F1F1F1" height="10" style="stroke:#181818;stroke-width:0.5;" width="15" x="507" y="988"/><rect fill="#F1F1F1" height="2" style="stroke:#181818;stroke-width:0.5;" width="4" x="505" y="990"/><rect fill="#F1F1F1" height="2" style="stroke:#181818;stroke-width:0.5;" width="4" x="505" y="994"/><text fill="#000000" font-family="sans-serif" font-size="11" font-style="italic" lengthAdjust="spacing" textLength="88" x="414" y="1014.4189">&#171;custom widgets&#187;</text><text fill="#000000" font-family="sans-serif" font-size="11" lengthAdjust="spacing" textLength="39" x="438.5" y="1028.2549">widgets</text></g><!--entity material--><g id="elem_material"><rect fill="#F1F1F1" height="57.6719" rx="2.5" ry="2.5" style="stroke:#181818;stroke-width:0.5;" width="94" x="416" y="890"/><rect fill="#F1F1F1" height="10" style="stroke:#181818;stroke-width:0.5;" width="15" x="490" y="895"/><rect fill="#F1F1F1" height="2" style="stroke:#181818;stroke-width:0.5;" width="4" x="488" y="897"/><rect fill="#F1F1F1" height="2" style="stroke:#181818;stroke-width:0.5;" width="4" x="488" y="901"/><text fill="#000000" font-family="sans-serif" font-size="11" font-style="italic" lengthAdjust="spacing" textLength="54" x="431" y="921.4189">&#171;package&#187;</text><text fill="#000000" font-family="sans-serif" font-size="11" lengthAdjust="spacing" textLength="37" x="439.5" y="935.2549">material</text></g><!--entity locationPackage--><g id="elem_locationPackage"><rect fill="#F1F1F1" height="57.6719" rx="2.5" ry="2.5" style="stroke:#181818;stroke-width:0.5;" width="94" x="416" y="1076"/><rect fill="#F1F1F1" height="10" style="stroke:#181818;stroke-width:0.5;" width="15" x="490" y="1081"/><rect fill="#F1F1F1" height="2" style="stroke:#181818;stroke-width:0.5;" width="4" x="488" y="1083"/><rect fill="#F1F1F1" height="2" style="stroke:#181818;stroke-width:0.5;" width="4" x="488" y="1087"/><text fill="#000000" font-family="sans-serif" font-size="11" font-style="italic" lengthAdjust="spacing" textLength="54" x="431" y="1107.4189">&#171;package&#187;</text><text fill="#000000" font-family="sans-serif" font-size="11" lengthAdjust="spacing" textLength="37" x="439.5" y="1121.2549">location</text></g><!--entity flutterFilePicker--><g id="elem_flutterFilePicker"><rect fill="#F1F1F1" height="57.6719" rx="2.5" ry="2.5" style="stroke:#181818;stroke-width:0.5;" width="94" x="416" y="1355"/><rect fill="#F1F1F1" height="10" style="stroke:#181818;stroke-width:0.5;" width="15" x="490" y="1360"/><rect fill="#F1F1F1" height="2" style="stroke:#181818;stroke-width:0.5;" width="4" x="488" y="1362"/><rect fill="#F1F1F1" height="2" style="stroke:#181818;stroke-width:0.5;" width="4" x="488" y="1366"/><text fill="#000000" font-family="sans-serif" font-size="11" font-style="italic" lengthAdjust="spacing" textLength="54" x="431" y="1386.4189">&#171;package&#187;</text><text fill="#000000" font-family="sans-serif" font-size="11" lengthAdjust="spacing" textLength="49" x="433.5" y="1400.2549">file_picker</text></g><!--entity flutterSound--><g id="elem_flutterSound"><rect fill="#F1F1F1" height="57.6719" rx="2.5" ry="2.5" style="stroke:#181818;stroke-width:0.5;" width="104" x="411" y="1262"/><rect fill="#F1F1F1" height="10" style="stroke:#181818;stroke-width:0.5;" width="15" x="495" y="1267"/><rect fill="#F1F1F1" height="2" style="stroke:#181818;stroke-width:0.5;" width="4" x="493" y="1269"/><rect fill="#F1F1F1" height="2" style="stroke:#181818;stroke-width:0.5;" width="4" x="493" y="1273"/><text fill="#000000" font-family="sans-serif" font-size="11" font-style="italic" lengthAdjust="spacing" textLength="54" x="431" y="1293.4189">&#171;package&#187;</text><text fill="#000000" font-family="sans-serif" font-size="11" lengthAdjust="spacing" textLength="64" x="426" y="1307.2549">flutter_sound</text></g><!--entity permissionHandler--><g id="elem_permissionHandler"><rect fill="#F1F1F1" height="57.6719" rx="2.5" ry="2.5" style="stroke:#181818;stroke-width:0.5;" width="134" x="396" y="1169"/><rect fill="#F1F1F1" height="10" style="stroke:#181818;stroke-width:0.5;" width="15" x="510" y="1174"/><rect fill="#F1F1F1" height="2" style="stroke:#181818;stroke-width:0.5;" width="4" x="508" y="1176"/><rect fill="#F1F1F1" height="2" style="stroke:#181818;stroke-width:0.5;" width="4" x="508" y="1180"/><text fill="#000000" font-family="sans-serif" font-size="11" font-style="italic" lengthAdjust="spacing" textLength="54" x="431" y="1200.4189">&#171;package&#187;</text><text fill="#000000" font-family="sans-serif" font-size="11" lengthAdjust="spacing" textLength="94" x="411" y="1214.2549">permission_handler</text></g><!--entity flutterImagePicker--><g id="elem_flutterImagePicker"><rect fill="#F1F1F1" height="57.6719" rx="2.5" ry="2.5" style="stroke:#181818;stroke-width:0.5;" width="103" x="411.5" y="1448"/><rect fill="#F1F1F1" height="10" style="stroke:#181818;stroke-width:0.5;" width="15" x="494.5" y="1453"/><rect fill="#F1F1F1" height="2" style="stroke:#181818;stroke-width:0.5;" width="4" x="492.5" y="1455"/><rect fill="#F1F1F1" height="2" style="stroke:#181818;stroke-width:0.5;" width="4" x="492.5" y="1459"/><text fill="#000000" font-family="sans-serif" font-size="11" font-style="italic" lengthAdjust="spacing" textLength="54" x="431" y="1479.4189">&#171;package&#187;</text><text fill="#000000" font-family="sans-serif" font-size="11" lengthAdjust="spacing" textLength="63" x="426.5" y="1493.2549">image_picker</text></g><!--entity location--><g id="elem_location"><rect fill="#F1F1F1" height="57.6719" rx="2.5" ry="2.5" style="stroke:#181818;stroke-width:0.5;" width="81" x="623.5" y="1080"/><rect fill="#F1F1F1" height="10" style="stroke:#181818;stroke-width:0.5;" width="15" x="684.5" y="1085"/><rect fill="#F1F1F1" height="2" style="stroke:#181818;stroke-width:0.5;" width="4" x="682.5" y="1087"/><rect fill="#F1F1F1" height="2" style="stroke:#181818;stroke-width:0.5;" width="4" x="682.5" y="1091"/><text fill="#000000" font-family="sans-serif" font-size="11" font-style="italic" lengthAdjust="spacing" textLength="41" x="638.5" y="1111.4189">&#171;Class&#187;</text><text fill="#000000" font-family="sans-serif" font-size="11" lengthAdjust="spacing" textLength="41" x="638.5" y="1125.2549">Location</text></g><!--entity filePicker--><g id="elem_filePicker"><rect fill="#F1F1F1" height="57.6719" rx="2.5" ry="2.5" style="stroke:#181818;stroke-width:0.5;" width="85" x="621.5" y="1322"/><rect fill="#F1F1F1" height="10" style="stroke:#181818;stroke-width:0.5;" width="15" x="686.5" y="1327"/><rect fill="#F1F1F1" height="2" style="stroke:#181818;stroke-width:0.5;" width="4" x="684.5" y="1329"/><rect fill="#F1F1F1" height="2" style="stroke:#181818;stroke-width:0.5;" width="4" x="684.5" y="1333"/><text fill="#000000" font-family="sans-serif" font-size="11" font-style="italic" lengthAdjust="spacing" textLength="41" x="638.5" y="1353.4189">&#171;Class&#187;</text><text fill="#000000" font-family="sans-serif" font-size="11" lengthAdjust="spacing" textLength="45" x="636.5" y="1367.2549">FilePicker</text></g><!--entity flutterSoundRecorder--><g id="elem_flutterSoundRecorder"><rect fill="#F1F1F1" height="57.6719" rx="2.5" ry="2.5" style="stroke:#181818;stroke-width:0.5;" width="146" x="591" y="1217"/><rect fill="#F1F1F1" height="10" style="stroke:#181818;stroke-width:0.5;" width="15" x="717" y="1222"/><rect fill="#F1F1F1" height="2" style="stroke:#181818;stroke-width:0.5;" width="4" x="715" y="1224"/><rect fill="#F1F1F1" height="2" style="stroke:#181818;stroke-width:0.5;" width="4" x="715" y="1228"/><text fill="#000000" font-family="sans-serif" font-size="11" font-style="italic" lengthAdjust="spacing" textLength="41" x="638.5" y="1248.4189">&#171;Class&#187;</text><text fill="#000000" font-family="sans-serif" font-size="11" lengthAdjust="spacing" textLength="106" x="606" y="1262.2549">FlutterSoundRecorder</text></g><!--entity imagePicker--><g id="elem_imagePicker"><rect fill="#F1F1F1" height="57.6719" rx="2.5" ry="2.5" style="stroke:#181818;stroke-width:0.5;" width="97" x="615.5" y="1437"/><rect fill="#F1F1F1" height="10" style="stroke:#181818;stroke-width:0.5;" width="15" x="692.5" y="1442"/><rect fill="#F1F1F1" height="2" style="stroke:#181818;stroke-width:0.5;" width="4" x="690.5" y="1444"/><rect fill="#F1F1F1" height="2" style="stroke:#181818;stroke-width:0.5;" width="4" x="690.5" y="1448"/><text fill="#000000" font-family="sans-serif" font-size="11" font-style="italic" lengthAdjust="spacing" textLength="41" x="638.5" y="1468.4189">&#171;Class&#187;</text><text fill="#000000" font-family="sans-serif" font-size="11" lengthAdjust="spacing" textLength="57" x="630.5" y="1482.2549">ImagePicker</text></g><!--entity eventRepository--><g id="elem_eventRepository"><ellipse cx="664" cy="824.8359" fill="#F1F1F1" rx="12" ry="12" style="stroke:#181818;stroke-width:0.5;"/><polygon fill="#181818" points="660,812.8359,666,807.8359,664,812.8359,666,817.8359,660,812.8359" style="stroke:#181818;stroke-width:1.0;"/><text fill="#000000" font-family="sans-serif" font-size="11" lengthAdjust="spacing" textLength="79" x="624.5" y="852.2549">EventRepository</text><text fill="#000000" font-family="sans-serif" font-size="11" font-style="italic" lengthAdjust="spacing" textLength="31" x="648.5" y="806.4189">&#171;dart&#187;</text></g><!--entity locationRepository--><g id="elem_locationRepository"><ellipse cx="664" cy="919.8359" fill="#F1F1F1" rx="12" ry="12" style="stroke:#181818;stroke-width:0.5;"/><polygon fill="#181818" points="660,907.8359,666,902.8359,664,907.8359,666,912.8359,660,907.8359" style="stroke:#181818;stroke-width:1.0;"/><text fill="#000000" font-family="sans-serif" font-size="11" lengthAdjust="spacing" textLength="93" x="617.5" y="947.2549">LocationRepository</text><text fill="#000000" font-family="sans-serif" font-size="11" font-style="italic" lengthAdjust="spacing" textLength="31" x="648.5" y="901.4189">&#171;dart&#187;</text></g><!--entity storageService--><g id="elem_storageService"><ellipse cx="664" cy="1014.8359" fill="#F1F1F1" rx="12" ry="12" style="stroke:#181818;stroke-width:0.5;"/><polygon fill="#181818" points="660,1002.8359,666,997.8359,664,1002.8359,666,1007.8359,660,1002.8359" style="stroke:#181818;stroke-width:1.0;"/><text fill="#000000" font-family="sans-serif" font-size="11" lengthAdjust="spacing" textLength="75" x="626.5" y="1042.2549">StorageService</text><text fill="#000000" font-family="sans-serif" font-size="11" font-style="italic" lengthAdjust="spacing" textLength="31" x="648.5" y="996.4189">&#171;dart&#187;</text></g><!--entity apiClient--><g id="elem_apiClient"><ellipse cx="835.5" cy="986.8359" fill="#F1F1F1" rx="12" ry="12" style="stroke:#181818;stroke-width:0.5;"/><polygon fill="#181818" points="831.5,974.8359,837.5,969.8359,835.5,974.8359,837.5,979.8359,831.5,974.8359" style="stroke:#181818;stroke-width:1.0;"/><text fill="#000000" font-family="sans-serif" font-size="11" lengthAdjust="spacing" textLength="42" x="814.5" y="1014.2549">ApiClient</text><text fill="#000000" font-family="sans-serif" font-size="11" font-style="italic" lengthAdjust="spacing" textLength="31" x="820" y="968.4189">&#171;dart&#187;</text></g><!--entity supabaseClient--><g id="elem_supabaseClient"><ellipse cx="835.5" cy="1081.8359" fill="#F1F1F1" rx="12" ry="12" style="stroke:#181818;stroke-width:0.5;"/><polygon fill="#181818" points="831.5,1069.8359,837.5,1064.8359,835.5,1069.8359,837.5,1074.8359,831.5,1069.8359" style="stroke:#181818;stroke-width:1.0;"/><text fill="#000000" font-family="sans-serif" font-size="11" lengthAdjust="spacing" textLength="75" x="798" y="1109.2549">SupabaseClient</text><text fill="#000000" font-family="sans-serif" font-size="11" font-style="italic" lengthAdjust="spacing" textLength="31" x="820" y="1063.4189">&#171;dart&#187;</text></g><!--entity addEventViewModel--><g id="elem_addEventViewModel"><ellipse cx="463" cy="824.8359" fill="#F1F1F1" rx="12" ry="12" style="stroke:#181818;stroke-width:0.5;"/><polygon fill="#181818" points="459,812.8359,465,807.8359,463,812.8359,465,817.8359,459,812.8359" style="stroke:#181818;stroke-width:1.0;"/><text fill="#000000" font-family="sans-serif" font-size="11" lengthAdjust="spacing" textLength="101" x="412.5" y="852.2549">AddEventViewModel</text><text fill="#000000" font-family="sans-serif" font-size="11" font-style="italic" lengthAdjust="spacing" textLength="31" x="447.5" y="806.4189">&#171;dart&#187;</text></g><!--entity eventModel--><g id="elem_eventModel"><ellipse cx="835.5" cy="811" fill="#F1F1F1" rx="12" ry="12" style="stroke:#181818;stroke-width:0.5;"/><line style="stroke:#181818;stroke-width:0.5;" x1="823.5" x2="847.5" y1="825" y2="825"/><text fill="#000000" font-family="sans-serif" font-size="11" lengthAdjust="spacing" textLength="55" x="808" y="838.4189">EventModel</text></g><!--entity locationModel--><g id="elem_locationModel"><ellipse cx="835.5" cy="892" fill="#F1F1F1" rx="12" ry="12" style="stroke:#181818;stroke-width:0.5;"/><line style="stroke:#181818;stroke-width:0.5;" x1="823.5" x2="847.5" y1="906" y2="906"/><text fill="#000000" font-family="sans-serif" font-size="11" lengthAdjust="spacing" textLength="69" x="801" y="919.4189">LocationModel</text></g><!--link addEventViewAnalysis to addEventController--><g id="link_addEventViewAnalysis_addEventController"><path d="M90.01,199.59 C113.05,173.96 152.17,132.33 190,101 C197,95.2 204.84,89.46 212.48,84.21 " fill="none" id="addEventViewAnalysis-addEventController" style="stroke:#181818;stroke-width:1.0;"/></g><!--link addEventViewAnalysis to locationController--><g id="link_addEventViewAnalysis_locationController"><path d="M105.06,207 C134.26,193.86 175.71,175.21 206.72,161.25 " fill="none" id="addEventViewAnalysis-locationController" style="stroke:#181818;stroke-width:1.0;"/></g><!--link addEventViewAnalysis to fileController--><g id="link_addEventViewAnalysis_fileController"><path d="M105.06,223 C138.46,223 187.89,223 219.39,223 " fill="none" id="addEventViewAnalysis-fileController" style="stroke:#181818;stroke-width:1.0;"/></g><!--link addEventController to eventModelAnalysis--><g id="link_addEventController_eventModelAnalysis"><path d="M297.18,61 C339.38,61 400.63,61 435.35,61 " fill="none" id="addEventController-eventModelAnalysis" style="stroke:#181818;stroke-width:1.0;"/></g><!--link fileController to eventModelAnalysis--><g id="link_fileController_eventModelAnalysis"><path d="M277.84,199.9 C312.7,169.49 372.47,117.91 396,101 C408.51,92.01 423.1,83.02 435.38,75.85 " fill="none" id="fileController-eventModelAnalysis" style="stroke:#181818;stroke-width:1.0;"/></g><!--link locationController to locationModelAnalysis--><g id="link_locationController_locationModelAnalysis"><path d="M294.1,142 C333.74,142 392.03,142 428.46,142 " fill="none" id="locationController-locationModelAnalysis" style="stroke:#181818;stroke-width:1.0;"/></g><!--link addEventView to addDateView--><g id="link_addEventView_addDateView"><path d="M287.12,1218.3 C318.86,1236.73 361.06,1262.18 366,1270 C426.72,1366.1 338.07,1426.2 396,1524 C403.67,1536.95 411.3643,1544.1223 423.6543,1551.7623 " fill="none" id="addEventView-to-addDateView" style="stroke:#181818;stroke-width:1.0;"/><polygon fill="#181818" points="428.75,1554.93,423.2183,1546.7814,424.5036,1552.2903,418.9947,1553.5756,428.75,1554.93" style="stroke:#181818;stroke-width:1.0;"/></g><!--link addEventView to chooseCategoriesView--><g id="link_addEventView_chooseCategoriesView"><path d="M268.71,1228.25 C277.89,1245.17 288.93,1266.87 297,1287 C297.9,1289.23 394.6,1617.04 396,1619 C400.42,1625.18 401.3604,1626.9283 407.2804,1632.0183 " fill="none" id="addEventView-to-chooseCategoriesView" style="stroke:#181818;stroke-width:1.0;"/><polygon fill="#181818" points="411.83,1635.93,407.6135,1627.0294,408.0387,1632.6702,402.3978,1633.0955,411.83,1635.93" style="stroke:#181818;stroke-width:1.0;"/></g><!--link addEventView to widgets--><g id="link_addEventView_widgets"><path d="M279.82,1167.87 C308.06,1138.48 353.27,1093.2 396,1058 C402.9,1052.32 405.5991,1050.1034 413.0791,1044.7234 " fill="none" id="addEventView-to-widgets" style="stroke:#181818;stroke-width:1.0;"/><polygon fill="#181818" points="417.95,1041.22,408.308,1043.2278,413.8909,1044.1395,412.9792,1049.7224,417.95,1041.22" style="stroke:#181818;stroke-width:1.0;"/></g><!--link addEventView to material--><g id="link_addEventView_material"><path d="M265.25,1167.78 C287.72,1120.62 335.91,1028.39 396,965 C401.86,958.82 403.908,956.6071 410.888,951.2871 " fill="none" id="addEventView-to-material" style="stroke:#181818;stroke-width:1.0;"/><polygon fill="#181818" points="415.66,947.65,406.0773,949.9243,411.6834,950.6809,410.9268,956.2869,415.66,947.65" style="stroke:#181818;stroke-width:1.0;"/></g><!--link addEventView to locationPackage--><g id="link_addEventView_locationPackage"><path d="M287.21,1182.22 C322.63,1166.57 371.5919,1144.945 410.2919,1127.845 " fill="none" id="addEventView-to-locationPackage" style="stroke:#181818;stroke-width:1.0;"/><polygon fill="#181818" points="415.78,1125.42,405.9312,1125.3987,411.2066,1127.4408,409.1645,1132.7162,415.78,1125.42" style="stroke:#181818;stroke-width:1.0;"/></g><!--link addEventView to flutterFilePicker--><g id="link_addEventView_flutterFilePicker"><path d="M287.1,1204.21 C319.61,1210.03 363.07,1218.23 366,1221 C404.67,1257.61 365.82,1293.13 396,1337 C401.34,1344.77 403.7169,1347.9417 411.2369,1353.9317 " fill="none" id="addEventView-to-flutterFilePicker" style="stroke:#181818;stroke-width:1.0;"/><polygon fill="#181818" points="415.93,1357.67,411.3825,1348.9339,412.0191,1354.5548,406.3981,1355.1913,415.93,1357.67" style="stroke:#181818;stroke-width:1.0;"/></g><!--link addEventView to flutterSound--><g id="link_addEventView_flutterSound"><path d="M287.25,1199.72 C315.6,1201.56 352.61,1205.2 366,1212 C383.38,1220.82 381.32,1231.17 396,1244 C402.99,1250.11 405.9308,1252.6293 413.6208,1258.2993 " fill="none" id="addEventView-to-flutterSound" style="stroke:#181818;stroke-width:1.0;"/><polygon fill="#181818" points="418.45,1261.86,413.58,1253.2995,414.4256,1258.8928,408.8324,1259.7384,418.45,1261.86" style="stroke:#181818;stroke-width:1.0;"/></g><!--link addEventView to permissionHandler--><g id="link_addEventView_permissionHandler"><path d="M287.21,1198 C316.88,1198 353.91,1198 389.85,1198 " fill="none" id="addEventView-to-permissionHandler" style="stroke:#181818;stroke-width:1.0;"/><polygon fill="#181818" points="395.85,1198,386.85,1194,390.85,1198,386.85,1202,395.85,1198" style="stroke:#181818;stroke-width:1.0;"/></g><!--link addEventView to flutterImagePicker--><g id="link_addEventView_flutterImagePicker"><path d="M287.2,1209.18 C319.8,1219.53 363.32,1233.8 366,1237 C422.07,1303.84 349.82,1356.98 396,1431 C400.07,1437.52 400.9032,1439.422 406.8232,1444.572 " fill="none" id="addEventView-to-flutterImagePicker" style="stroke:#181818;stroke-width:1.0;"/><polygon fill="#181818" points="411.35,1448.51,407.1851,1439.5851,407.5777,1445.2283,401.9344,1445.6208,411.35,1448.51" style="stroke:#181818;stroke-width:1.0;"/></g><!--link addEventView to addEventViewModel--><g id="link_addEventView_addEventViewModel"><path d="M258.94,1167.59 C275.19,1106.14 318.7,965.13 396,872 C401.03,865.94 402.374,864.0766 408.664,858.9366 " fill="none" id="addEventView-to-addEventViewModel" style="stroke:#181818;stroke-width:1.0;"/><polygon fill="#181818" points="413.31,855.14,403.8099,857.7376,409.4383,858.3038,408.872,863.9323,413.31,855.14" style="stroke:#181818;stroke-width:1.0;"/></g><!--link addEventViewModel to eventRepository--><g id="link_addEventViewModel_eventRepository"><path d="M513.7,825 C547.89,825 586.66,825 618.22,825 " fill="none" id="addEventViewModel-to-eventRepository" style="stroke:#181818;stroke-width:1.0;"/><polygon fill="#181818" points="624.22,825,615.22,821,619.22,825,615.22,829,624.22,825" style="stroke:#181818;stroke-width:1.0;"/></g><!--link addEventViewModel to locationRepository--><g id="link_addEventViewModel_locationRepository"><path d="M513.7,848.73 C545.48,863.9 580.9657,880.8344 611.9157,895.6144 " fill="none" id="addEventViewModel-to-locationRepository" style="stroke:#181818;stroke-width:1.0;"/><polygon fill="#181818" points="617.33,898.2,610.9322,890.7121,612.8181,896.0454,607.4848,897.9312,617.33,898.2" style="stroke:#181818;stroke-width:1.0;"/></g><!--link addEventViewModel to storageService--><g id="link_addEventViewModel_storageService"><path d="M511.27,855.26 C517.9,860.45 524.37,866.09 530,872 C564.62,908.32 555.83,931.22 591,967 C601.32,977.5 609.2361,983.756 621.3161,991.486 " fill="none" id="addEventViewModel-to-storageService" style="stroke:#181818;stroke-width:1.0;"/><polygon fill="#181818" points="626.37,994.72,620.9452,986.4998,622.1585,992.025,616.6332,993.2383,626.37,994.72" style="stroke:#181818;stroke-width:1.0;"/></g><!--link eventRepository to apiClient--><g id="link_eventRepository_apiClient"><path d="M703.85,847.45 C715.04,854.66 726.93,863.11 737,872 C753.63,886.68 787.2312,927.6453 810.5812,956.8253 " fill="none" id="eventRepository-to-apiClient" style="stroke:#181818;stroke-width:1.0;"/><polygon fill="#181818" points="814.33,961.51,811.83,951.9837,811.206,957.606,805.5837,956.9821,814.33,961.51" style="stroke:#181818;stroke-width:1.0;"/></g><!--link eventRepository to eventModel--><g id="link_eventRepository_eventModel"><path d="M703.89,823.39 C735.75,822.08 773.9951,820.4967 801.9351,819.3467 " fill="none" id="eventRepository-to-eventModel" style="stroke:#181818;stroke-width:1.0;"/><polygon fill="#181818" points="807.93,819.1,798.7731,815.4735,802.9342,819.3056,799.1021,823.4667,807.93,819.1" style="stroke:#181818;stroke-width:1.0;"/></g><!--link locationRepository to apiClient--><g id="link_locationRepository_apiClient"><path d="M710.87,938.13 C744.6,951.46 783.2296,966.7355 808.6196,976.7655 " fill="none" id="locationRepository-to-apiClient" style="stroke:#181818;stroke-width:1.0;"/><polygon fill="#181818" points="814.2,978.97,807.2991,971.9431,809.5497,977.133,804.3598,979.3836,814.2,978.97" style="stroke:#181818;stroke-width:1.0;"/></g><!--link locationRepository to locationModel--><g id="link_locationRepository_locationModel"><path d="M710.87,914.32 C739.3,910.79 769.2354,907.0871 795.0054,903.8971 " fill="none" id="locationRepository-to-locationModel" style="stroke:#181818;stroke-width:1.0;"/><polygon fill="#181818" points="800.96,903.16,791.5368,900.2959,795.9979,903.7742,792.5196,908.2353,800.96,903.16" style="stroke:#181818;stroke-width:1.0;"/></g><!--link storageService to supabaseClient--><g id="link_storageService_supabaseClient"><path d="M701.78,1029.54 C730.21,1040.78 763.8001,1054.0544 792.2101,1065.2844 " fill="none" id="storageService-to-supabaseClient" style="stroke:#181818;stroke-width:1.0;"/><polygon fill="#181818" points="797.79,1067.49,790.8906,1060.4616,793.1401,1065.652,787.9497,1067.9015,797.79,1067.49" style="stroke:#181818;stroke-width:1.0;"/></g><!--link locationPackage to location--><g id="link_locationPackage_location"><path d="M510.15,1105.93 C544.49,1106.62 584.8412,1107.4287 617.4812,1108.0887 " fill="none" id="locationPackage-to-location" style="stroke:#181818;stroke-width:1.0;"/><polygon fill="#181818" points="623.48,1108.21,614.5627,1104.0289,618.481,1108.1089,614.401,1112.0272,623.48,1108.21" style="stroke:#181818;stroke-width:1.0;"/></g><!--link flutterFilePicker to filePicker--><g id="link_flutterFilePicker_filePicker"><path d="M510.15,1376.35 C543.8,1370.77 583.0708,1364.2514 615.5808,1358.8614 " fill="none" id="flutterFilePicker-to-filePicker" style="stroke:#181818;stroke-width:1.0;"/><polygon fill="#181818" points="621.5,1357.88,611.967,1355.4059,616.5673,1358.6978,613.2755,1363.2982,621.5,1357.88" style="stroke:#181818;stroke-width:1.0;"/></g><!--link flutterSound to flutterSoundRecorder--><g id="link_flutterSound_flutterSoundRecorder"><path d="M515.25,1279.41 C538.28,1274.2 560.0078,1269.2936 585.0778,1263.6236 " fill="none" id="flutterSound-to-flutterSoundRecorder" style="stroke:#181818;stroke-width:1.0;"/><polygon fill="#181818" points="590.93,1262.3,581.2693,1260.3839,586.0532,1263.403,583.0341,1268.1868,590.93,1262.3" style="stroke:#181818;stroke-width:1.0;"/></g><!--link flutterImagePicker to imagePicker--><g id="link_flutterImagePicker_imagePicker"><path d="M514.73,1474.2 C545.71,1472.48 579.0692,1470.6413 609.4492,1468.9613 " fill="none" id="flutterImagePicker-to-imagePicker" style="stroke:#181818;stroke-width:1.0;"/><polygon fill="#181818" points="615.44,1468.63,606.2329,1465.133,610.4476,1468.9061,606.6746,1473.1208,615.44,1468.63" style="stroke:#181818;stroke-width:1.0;"/></g><!--link addEventViewAnalysis to addEventView--><g id="link_addEventViewAnalysis_addEventView"><path d="M73.77,246.14 C97.86,376.63 215.5407,1014.0497 242.8207,1161.8097 " fill="none" id="addEventViewAnalysis-to-addEventView" style="stroke:#FF4B5D;stroke-width:1.0;stroke-dasharray:7.0,7.0;"/><polygon fill="#FF4B5D" points="243.91,1167.71,246.2095,1158.1334,243.0022,1162.7931,238.3425,1159.5858,243.91,1167.71" style="stroke:#FF4B5D;stroke-width:1.0;"/><text fill="#FF4B5D" font-family="sans-serif" font-size="11" lengthAdjust="spacing" textLength="37" x="136" y="592.4189">&#171;trace&#187;</text></g><!--link addEventViewAnalysis to addDateView--><g id="link_addEventViewAnalysis_addDateView"><path d="M70.49,246.06 C76.52,380.8 110.75,1066.73 190,1260 C246.47,1397.7 288.48,1421.09 396,1524 C405.96,1533.53 413.037,1539.2345 424.057,1546.8645 " fill="none" id="addEventViewAnalysis-to-addDateView" style="stroke:#FF4B5D;stroke-width:1.0;stroke-dasharray:7.0,7.0;"/><polygon fill="#FF4B5D" points="428.99,1550.28,423.8675,1541.8681,424.8792,1547.4338,419.3135,1548.4454,428.99,1550.28" style="stroke:#FF4B5D;stroke-width:1.0;"/><text fill="#FF4B5D" font-family="sans-serif" font-size="11" lengthAdjust="spacing" textLength="37" x="232" y="1257.4189">&#171;trace&#187;</text></g><!--link addEventViewAnalysis to chooseCategoriesView--><g id="link_addEventViewAnalysis_chooseCategoriesView"><path d="M69.61,246.29 C70.42,356.09 77.27,832.79 135,1218 C150.77,1323.23 133.55,1360.81 190,1451 C243.25,1536.08 337.3008,1598.598 400.0608,1633.908 " fill="none" id="addEventViewAnalysis-to-chooseCategoriesView" style="stroke:#FF4B5D;stroke-width:1.0;stroke-dasharray:7.0,7.0;"/><polygon fill="#FF4B5D" points="405.29,1636.85,399.4076,1628.9508,400.9323,1634.3983,395.4849,1635.9231,405.29,1636.85" style="stroke:#FF4B5D;stroke-width:1.0;"/><text fill="#FF4B5D" font-family="sans-serif" font-size="11" lengthAdjust="spacing" textLength="37" x="232" y="1448.4189">&#171;trace&#187;</text></g><!--link addEventController to addEventViewModel--><g id="link_addEventController_addEventViewModel"><path d="M283.86,84.4 C288.92,89.36 293.59,94.95 297,101 C307.72,120.03 362.92,466.38 366,488 C374.83,549.95 366.96,712.57 396,768 C401.27,778.06 404.701,783.0614 413.161,790.8314 " fill="none" id="addEventController-to-addEventViewModel" style="stroke:#008000;stroke-width:1.0;stroke-dasharray:7.0,7.0;"/><polygon fill="#008000" points="417.58,794.89,413.6572,785.8561,413.8975,791.5078,408.2457,791.7481,417.58,794.89" style="stroke:#008000;stroke-width:1.0;"/><text fill="#008000" font-family="sans-serif" font-size="11" lengthAdjust="spacing" textLength="37" x="328" y="258.4189">&#171;trace&#187;</text></g><!--link addEventController to eventRepository--><g id="link_addEventController_eventRepository"><path d="M278.16,84.05 C284.39,89.55 290.97,95.43 297,101 C342.03,142.58 345.53,162.23 396,197 C462.64,242.92 515.32,207.2 561,274 C618.45,358.01 555.19,635.74 591,731 C599.97,754.86 613.144,773.1843 628.474,790.3543 " fill="none" id="addEventController-to-eventRepository" style="stroke:#008000;stroke-width:1.0;stroke-dasharray:7.0,7.0;"/><polygon fill="#008000" points="632.47,794.83,629.4597,785.4525,629.14,791.1003,623.4922,790.7805,632.47,794.83" style="stroke:#008000;stroke-width:1.0;"/><text fill="#008000" font-family="sans-serif" font-size="11" lengthAdjust="spacing" textLength="37" x="444.5" y="194.4189">&#171;trace&#187;</text></g><!--link fileController to storageService--><g id="link_fileController_storageService"><path d="M267.57,246.39 C281.69,265.8 303.58,293.31 327,313 C354.13,335.81 365.15,335.55 396,353 C468.9,394.23 516.37,373.14 561,444 C623.04,542.51 533.15,865.98 591,967 C598.99,980.95 607.672,988.6407 621.132,996.3407 " fill="none" id="fileController-to-storageService" style="stroke:#008000;stroke-width:1.0;stroke-dasharray:7.0,7.0;"/><polygon fill="#008000" points="626.34,999.32,620.5142,991.379,622,996.8372,616.5417,998.323,626.34,999.32" style="stroke:#008000;stroke-width:1.0;"/><text fill="#008000" font-family="sans-serif" font-size="11" lengthAdjust="spacing" textLength="37" x="444.5" y="350.4189">&#171;trace&#187;</text></g><!--link locationController to addEventViewModel--><g id="link_locationController_addEventViewModel"><path d="M284.29,165.17 C289.31,170.16 293.85,175.81 297,182 C330.27,247.44 314.1,438.73 327,511 C347.78,627.43 333.14,667.82 396,768 C402.2,777.87 406.1769,782.9599 414.9469,790.8399 " fill="none" id="locationController-to-addEventViewModel" style="stroke:#008000;stroke-width:1.0;stroke-dasharray:7.0,7.0;"/><polygon fill="#008000" points="419.41,794.85,415.3888,785.8594,415.6908,791.5082,410.042,791.8102,419.41,794.85" style="stroke:#008000;stroke-width:1.0;"/><text fill="#008000" font-family="sans-serif" font-size="11" lengthAdjust="spacing" textLength="37" x="328" y="508.4189">&#171;trace&#187;</text></g><!--link locationController to locationRepository--><g id="link_locationController_locationRepository"><path d="M282.77,165.33 C288.07,170.37 293.1,176 297,182 C321.36,219.48 295.87,245.92 327,278 C403.63,356.99 494.57,271.25 561,359 C629.93,450.05 534.2,772.93 591,872 C597.2,882.82 601.9844,888.302 612.3344,895.322 " fill="none" id="locationController-to-locationRepository" style="stroke:#008000;stroke-width:1.0;stroke-dasharray:7.0,7.0;"/><polygon fill="#008000" points="617.3,898.69,612.0969,890.3277,613.162,895.8834,607.6063,896.9485,617.3,898.69" style="stroke:#008000;stroke-width:1.0;"/><text fill="#008000" font-family="sans-serif" font-size="11" lengthAdjust="spacing" textLength="37" x="444.5" y="311.4189">&#171;trace&#187;</text></g><!--link locationController to location--><g id="link_locationController_location"><path d="M283.15,165.09 C288.41,170.15 293.34,175.86 297,182 C327.57,233.31 305,257.47 327,313 C349.37,369.48 353.19,387.9 396,431 C456.11,491.52 516.74,456.09 561,529 C622.56,630.41 531.61,959.31 591,1062 C598.4,1074.79 605.6718,1081.6721 618.1518,1089.0321 " fill="none" id="locationController-to-location" style="stroke:#008000;stroke-width:1.0;stroke-dasharray:7.0,7.0;"/><polygon fill="#008000" points="623.32,1092.08,617.5996,1084.0627,619.0132,1089.5401,613.5358,1090.9536,623.32,1092.08" style="stroke:#008000;stroke-width:1.0;"/><text fill="#008000" font-family="sans-serif" font-size="11" lengthAdjust="spacing" textLength="37" x="444.5" y="428.4189">&#171;trace&#187;</text></g><!--link fileController to imagePicker--><g id="link_fileController_imagePicker"><path d="M253.65,246.17 C259.59,303.9 279.08,458.1 327,577 C348.72,630.88 355.55,646.31 396,688 C445.79,739.31 493.17,715.72 530,777 C672.87,1014.69 468.89,1149 591,1398 C598.27,1412.82 605.7335,1422.0949 617.8235,1432.8849 " fill="none" id="fileController-to-imagePicker" style="stroke:#008000;stroke-width:1.0;stroke-dasharray:7.0,7.0;"/><polygon fill="#008000" points="622.3,1436.88,618.2487,1427.903,618.5696,1433.5507,612.9219,1433.8716,622.3,1436.88" style="stroke:#008000;stroke-width:1.0;"/><text fill="#008000" font-family="sans-serif" font-size="11" lengthAdjust="spacing" textLength="37" x="444.5" y="685.4189">&#171;trace&#187;</text></g><!--link fileController to flutterSoundRecorder--><g id="link_fileController_flutterSoundRecorder"><path d="M257.09,246.08 C271.3,300.33 313.68,437.41 396,518 C456.63,577.35 516.68,541.65 561,614 C623.9,716.67 548.32,1042.41 591,1155 C599.86,1178.36 612.9397,1196.041 628.2997,1212.601 " fill="none" id="fileController-to-flutterSoundRecorder" style="stroke:#008000;stroke-width:1.0;stroke-dasharray:7.0,7.0;"/><polygon fill="#008000" points="632.38,1217,629.1923,1207.6813,628.9798,1213.3341,623.3269,1213.1216,632.38,1217" style="stroke:#008000;stroke-width:1.0;"/><text fill="#008000" font-family="sans-serif" font-size="11" lengthAdjust="spacing" textLength="37" x="444.5" y="515.4189">&#171;trace&#187;</text></g><!--link fileController to filePicker--><g id="link_fileController_filePicker"><path d="M255.88,246.13 C265.27,293.2 289.55,402.94 327,489 C350.63,543.31 353.76,561.49 396,603 C456.51,662.47 516.86,626.55 561,699 C629.65,811.68 531.55,1174.21 591,1292 C597.85,1305.56 604.6287,1313.443 616.4787,1322.633 " fill="none" id="fileController-to-filePicker" style="stroke:#008000;stroke-width:1.0;stroke-dasharray:7.0,7.0;"/><polygon fill="#008000" points="621.22,1326.31,616.5594,1317.6337,617.2689,1323.2458,611.6568,1323.9554,621.22,1326.31" style="stroke:#008000;stroke-width:1.0;"/><text fill="#008000" font-family="sans-serif" font-size="11" lengthAdjust="spacing" textLength="37" x="444.5" y="600.4189">&#171;trace&#187;</text></g><!--link eventModel to eventModelAnalysis--><g id="link_eventModel_eventModelAnalysis"><path d="M833.82,794.88 C830.28,681.19 812.35,184.97 768,134 C696.57,51.9 556.5323,53.16 496.5823,57.77 " fill="none" id="eventModel-to-eventModelAnalysis" style="stroke:#FFA500;stroke-width:1.0;stroke-dasharray:7.0,7.0;"/><polygon fill="#FFA500" points="490.6,58.23,499.8802,61.5282,495.5853,57.8466,499.2668,53.5517,490.6,58.23" style="stroke:#FFA500;stroke-width:1.0;"/><text fill="#FFA500" font-family="sans-serif" font-size="11" lengthAdjust="spacing" textLength="37" x="645.5" y="57.4189">&#171;trace&#187;</text></g><!--link locationModel to locationModelAnalysis--><g id="link_locationModel_locationModelAnalysis"><path d="M811.21,875.94 C806.4,870.38 801.69,864.23 798,858 C637.47,586.47 771.36,424.05 561,189 C544.28,170.31 524.1502,160.2719 503.3702,153.0819 " fill="none" id="locationModel-to-locationModelAnalysis" style="stroke:#FFA500;stroke-width:1.0;stroke-dasharray:7.0,7.0;"/><polygon fill="#FFA500" points="497.7,151.12,504.8973,157.843,502.4251,152.7549,507.5132,150.2828,497.7,151.12" style="stroke:#FFA500;stroke-width:1.0;"/><text fill="#FFA500" font-family="sans-serif" font-size="11" lengthAdjust="spacing" textLength="37" x="645.5" y="225.4189">&#171;trace&#187;</text></g><!--SRC=[hLTRRnev57xthx2oBya35DAagX2BDaj3Bm8f2ZGlgrLaPWonuXcFR0yjhVQ_x_4CS_5bA5M246AEl-_p6P-BRVNCqen8ac2bzvp2hsIHpXEEEDreh0MMRFkaSSmaZJGJAL8r8wORadEzej_r3MVRDA6fnX7yKEcZPYBLI_Q3uk4GmISZqJFPKdoJ4hvNJE6V2CC7o4plyTdj3lujH4pv6IOAq_gnmblekOY8yQqXyBQbvXIajSZJc4YWtSHnCSy3ezyA5caPR584tal1yTcCSJej7pYL1MjZcMnuDOL38PxPfbKlvD2uPowz2_cDUxskQRhW0VbZSEUzBMnZDyYEyDa2Hu2-OsrtRVn_JMvj9E1f6kFnUCPp3MavUjiV3lg3oUJdxwG2y370D9vCVDe7eccRLJrtawPFGYWw1TnMI4PLpOu20ssPGuuacKXDfPrzO_6MQbLm3_y17kLAYwGo76PliHBGbuoKTL8z0E-mQZwXMcSh1UyEQto4PyBxcB7ekQgJCWQcWkuAwr5o2NvKPjdQzAKn76DcL2PCAV3nyOcaSLKxZVbJQJscmH8m1tp_REm1vrt-FBHam9XoeW8XQPQaRYZr95sKrchSqqZ8sFRK6kYMQRrGmMRM2rOakpaLTN5FCw6O5dBVDEZ6vYQ_rzWSElVCdGfB60KVbrJkM4GBjh9CWOgfcd76ffo1esMjLa_TK-KPMHEeo8QaB5CdizrEcas9k5RFrLzkVx-pxPbM21-ha_LwatQJyWT3FSX77PgBFr3r4t_4QHm-m6iFdP0Yj_rHhy8x1LfP7rmUEqhs4fQ1Cq0dvpjGVcft0EqiHiWjgSAtAcU3ewqqGO6AiWKw07O68QUq2Z-j4cXcgdQ4jWhoUtuHXYR6LbTtOrprBnHelmRRwbPsaEfZIl-VFpQRg_Lr_6_VZYmUuV56cFEgu4B-UK1DncCjIGGjVVp6Z4vEKwtt_5SJ3Hu5JbH7WKCOY6ybfQcx36NwsS85iDlf3bKt8K_IT4w0RJqdyqwI2vmJN-75Vw4QAAJNb7tnGhQtz9Tg1GyNBnPjciD9KeVMM4OGX21FqYsjSz2w3ZYA9RGx5W7Du2tZH5dq5zm-4BhZ9DLV5tEyez9iJtZOlnnSNlNVdg-USZoZQpoyXk_eQZ0QNEE7snKsmnVe_EFTV7U9uGWieG9YPkxcwzmuSu6-a1t1zpcS118wmkRfVBMumClRoeXlqns32v2vbACl3uiIX3y9lSo4Bi3lhdf_CurDYS7QFopGX_Ag3jH8n2pTZl3NrQpt7itXzNB8eX6c2aqX-5hkH-3e_m00]--></g></svg>