<?xml version="1.0" encoding="us-ascii" standalone="no"?><svg xmlns="http://www.w3.org/2000/svg" xmlns:xlink="http://www.w3.org/1999/xlink" contentStyleType="text/css" height="382px" preserveAspectRatio="none" style="width:493px;height:382px;background:#FFFFFF;" version="1.1" viewBox="0 0 493 382" width="493px" zoomAndPan="magnify"><defs/><g><!--entity user--><g id="elem_user"><ellipse cx="19" cy="123.5" fill="#F1F1F1" rx="8" ry="8" style="stroke:#181818;stroke-width:0.5;"/><path d="M19,131.5 L19,158.5 M6,139.5 L32,139.5 M19,158.5 L6,173.5 M19,158.5 L32,173.5 " fill="none" style="stroke:#181818;stroke-width:0.5;"/><text fill="#000000" font-family="sans-serif" font-size="11" lengthAdjust="spacing" textLength="23" x="7.5" y="186.4189">User</text></g><!--entity userModel--><g id="elem_userModel"><ellipse cx="461" cy="185" fill="#F1F1F1" rx="12" ry="12" style="stroke:#181818;stroke-width:0.5;"/><line style="stroke:#181818;stroke-width:0.5;" x1="449" x2="473" y1="199" y2="199"/><text fill="#000000" font-family="sans-serif" font-size="11" lengthAdjust="spacing" textLength="51" x="435.5" y="212.4189">UserModel</text></g><!--entity profileView--><g id="elem_profileView"><path d="M117,11 L117,35 M117,23 L134,23 " fill="none" style="stroke:#181818;stroke-width:0.5;"/><ellipse cx="146" cy="23" fill="#F1F1F1" rx="12" ry="12" style="stroke:#181818;stroke-width:0.5;"/><text fill="#000000" font-family="sans-serif" font-size="11" lengthAdjust="spacing" textLength="56" x="109.5" y="50.4189">ProfileView</text></g><!--entity editProfileView--><g id="elem_editProfileView"><path d="M117,92 L117,116 M117,104 L134,104 " fill="none" style="stroke:#181818;stroke-width:0.5;"/><ellipse cx="146" cy="104" fill="#F1F1F1" rx="12" ry="12" style="stroke:#181818;stroke-width:0.5;"/><text fill="#000000" font-family="sans-serif" font-size="11" lengthAdjust="spacing" textLength="73" x="101" y="131.4189">EditProfileView</text></g><!--entity configurationView--><g id="elem_configurationView"><path d="M117,173 L117,197 M117,185 L134,185 " fill="none" style="stroke:#181818;stroke-width:0.5;"/><ellipse cx="146" cy="185" fill="#F1F1F1" rx="12" ry="12" style="stroke:#181818;stroke-width:0.5;"/><text fill="#000000" font-family="sans-serif" font-size="11" lengthAdjust="spacing" textLength="90" x="92.5" y="212.4189">ConfigurationView</text></g><!--entity listUsersView--><g id="elem_listUsersView"><path d="M117,294 L117,318 M117,306 L134,306 " fill="none" style="stroke:#181818;stroke-width:0.5;"/><ellipse cx="146" cy="306" fill="#F1F1F1" rx="12" ry="12" style="stroke:#181818;stroke-width:0.5;"/><text fill="#000000" font-family="sans-serif" font-size="11" lengthAdjust="spacing" textLength="72" x="101.5" y="333.4189">ListUsersView</text></g><!--entity profileController--><g id="elem_profileController"><ellipse cx="309" cy="23" fill="#F1F1F1" rx="12" ry="12" style="stroke:#181818;stroke-width:0.5;"/><polygon fill="#181818" points="305,11,311,6,309,11,311,16,305,11" style="stroke:#181818;stroke-width:1.0;"/><text fill="#000000" font-family="sans-serif" font-size="11" lengthAdjust="spacing" textLength="76" x="271" y="50.4189">ProfileController</text></g><!--entity editProfileController--><g id="elem_editProfileController"><ellipse cx="309" cy="104" fill="#F1F1F1" rx="12" ry="12" style="stroke:#181818;stroke-width:0.5;"/><polygon fill="#181818" points="305,92,311,87,309,92,311,97,305,92" style="stroke:#181818;stroke-width:1.0;"/><text fill="#000000" font-family="sans-serif" font-size="11" lengthAdjust="spacing" textLength="93" x="262.5" y="131.4189">EditProfileController</text></g><!--entity changeLanguageController--><g id="elem_changeLanguageController"><ellipse cx="309" cy="185" fill="#F1F1F1" rx="12" ry="12" style="stroke:#181818;stroke-width:0.5;"/><polygon fill="#181818" points="305,173,311,168,309,173,311,178,305,173" style="stroke:#181818;stroke-width:1.0;"/><text fill="#000000" font-family="sans-serif" font-size="11" lengthAdjust="spacing" textLength="131" x="243.5" y="212.4189">ChangeLanguageController</text></g><!--entity changePasswordController--><g id="elem_changePasswordController"><ellipse cx="309" cy="266" fill="#F1F1F1" rx="12" ry="12" style="stroke:#181818;stroke-width:0.5;"/><polygon fill="#181818" points="305,254,311,249,309,254,311,259,305,254" style="stroke:#181818;stroke-width:1.0;"/><text fill="#000000" font-family="sans-serif" font-size="11" lengthAdjust="spacing" textLength="133" x="242.5" y="293.4189">ChangePasswordController</text></g><!--entity listUsersController--><g id="elem_listUsersController"><ellipse cx="309" cy="347" fill="#F1F1F1" rx="12" ry="12" style="stroke:#181818;stroke-width:0.5;"/><polygon fill="#181818" points="305,335,311,330,309,335,311,340,305,335" style="stroke:#181818;stroke-width:1.0;"/><text fill="#000000" font-family="sans-serif" font-size="11" lengthAdjust="spacing" textLength="92" x="263" y="374.4189">ListUsersController</text></g><!--link user to profileView--><g id="link_user_profileView"><path d="M32.62,136.74 C46.73,119.94 70.48,92.32 92.5,70 C98.01,64.41 99.7105,62.6781 105.5805,57.2881 " fill="none" id="user-to-profileView" style="stroke:#181818;stroke-width:1.0;"/><polygon fill="#181818" points="110,53.23,100.6654,56.3708,106.3171,56.6117,106.0762,62.2635,110,53.23" style="stroke:#181818;stroke-width:1.0;"/></g><!--link user to editProfileView--><g id="link_user_editProfileView"><path d="M32.91,147.46 C49.2,141.72 72.2201,133.6214 95.2701,125.5114 " fill="none" id="user-to-editProfileView" style="stroke:#181818;stroke-width:1.0;"/><polygon fill="#181818" points="100.93,123.52,91.1126,122.7338,96.2134,125.1795,93.7678,130.2804,100.93,123.52" style="stroke:#181818;stroke-width:1.0;"/></g><!--link user to configurationView--><g id="link_user_configurationView"><path d="M32.91,156.43 C47.25,161.36 65.5058,167.6198 86.7458,174.9198 " fill="none" id="user-to-configurationView" style="stroke:#181818;stroke-width:1.0;"/><polygon fill="#181818" points="92.42,176.87,85.2088,170.1619,87.6915,175.2449,82.6085,177.7275,92.42,176.87" style="stroke:#181818;stroke-width:1.0;"/></g><!--link user to listUsersView--><g id="link_user_listUsersView"><path d="M32.69,169.54 C53.8,198.71 92.6227,252.3691 116.1827,284.9291 " fill="none" id="user-to-listUsersView" style="stroke:#181818;stroke-width:1.0;"/><polygon fill="#181818" points="119.7,289.79,117.6647,280.1537,116.7689,285.7392,111.1834,284.8435,119.7,289.79" style="stroke:#181818;stroke-width:1.0;"/></g><!--link profileView to profileController--><g id="link_profileView_profileController"><path d="M165.73,30 C194.18,30 233,30 264.72,30 " fill="none" id="profileView-to-profileController" style="stroke:#181818;stroke-width:1.0;"/><polygon fill="#181818" points="270.72,30,261.72,26,265.72,30,261.72,34,270.72,30" style="stroke:#181818;stroke-width:1.0;"/></g><!--link editProfileView to editProfileController--><g id="link_editProfileView_editProfileController"><path d="M174.03,111 C199.66,111 228.48,111 256.19,111 " fill="none" id="editProfileView-to-editProfileController" style="stroke:#181818;stroke-width:1.0;"/><polygon fill="#181818" points="262.19,111,253.19,107,257.19,111,253.19,115,262.19,111" style="stroke:#181818;stroke-width:1.0;"/></g><!--link configurationView to changeLanguageController--><g id="link_configurationView_changeLanguageController"><path d="M182.59,192 C201.13,192 217.07,192 237.38,192 " fill="none" id="configurationView-to-changeLanguageController" style="stroke:#181818;stroke-width:1.0;"/><polygon fill="#181818" points="243.38,192,234.38,188,238.38,192,234.38,196,243.38,192" style="stroke:#181818;stroke-width:1.0;"/></g><!--link configurationView to changePasswordController--><g id="link_configurationView_changePasswordController"><path d="M182.59,213.07 C206.23,224.37 229.9861,235.7236 254.2461,247.3136 " fill="none" id="configurationView-to-changePasswordController" style="stroke:#181818;stroke-width:1.0;"/><polygon fill="#181818" points="259.66,249.9,253.2634,242.4111,255.1484,247.7446,249.8149,249.6296,259.66,249.9" style="stroke:#181818;stroke-width:1.0;"/></g><!--link listUsersView to listUsersController--><g id="link_listUsersView_listUsersController"><path d="M173.62,321.5 C199.51,327.76 229.1083,334.919 257.0883,341.689 " fill="none" id="listUsersView-to-listUsersController" style="stroke:#181818;stroke-width:1.0;"/><polygon fill="#181818" points="262.92,343.1,255.1131,337.0956,258.0602,341.9241,253.2317,344.8713,262.92,343.1" style="stroke:#181818;stroke-width:1.0;"/></g><!--link profileController to userModel--><g id="link_profileController_userModel"><path d="M347.27,49.08 C357.04,55.04 367.17,62.13 375.5,70 C406.79,99.54 430.2953,137.2155 444.8953,163.4855 " fill="none" id="profileController-to-userModel" style="stroke:#181818;stroke-width:1.0;"/><polygon fill="#181818" points="447.81,168.73,446.9343,158.9202,445.3811,164.3596,439.9416,162.8064,447.81,168.73" style="stroke:#181818;stroke-width:1.0;"/></g><!--link editProfileController to userModel--><g id="link_editProfileController_userModel"><path d="M352.98,134.21 C379.65,148.61 407.6808,163.7486 429.9908,175.7986 " fill="none" id="editProfileController-to-userModel" style="stroke:#181818;stroke-width:1.0;"/><polygon fill="#181818" points="435.27,178.65,429.2522,170.8535,430.8707,176.2739,425.4503,177.8924,435.27,178.65" style="stroke:#181818;stroke-width:1.0;"/></g><!--link changeLanguageController to userModel--><g id="link_changeLanguageController_userModel"><path d="M374.92,192 C396.3,192 412.79,192 429.27,192 " fill="none" id="changeLanguageController-to-userModel" style="stroke:#181818;stroke-width:1.0;"/><polygon fill="#181818" points="435.27,192,426.27,188,430.27,192,426.27,196,435.27,192" style="stroke:#181818;stroke-width:1.0;"/></g><!--link changePasswordController to userModel--><g id="link_changePasswordController_userModel"><path d="M352.98,249.79 C379.65,235.39 407.6808,220.2514 429.9908,208.2014 " fill="none" id="changePasswordController-to-userModel" style="stroke:#181818;stroke-width:1.0;"/><polygon fill="#181818" points="435.27,205.35,425.4503,206.1076,430.8707,207.7261,429.2522,213.1465,435.27,205.35" style="stroke:#181818;stroke-width:1.0;"/></g><!--link listUsersController to userModel--><g id="link_listUsersController_userModel"><path d="M352.37,331 C360.49,325.64 368.6,319.56 375.5,313 C406.51,283.51 430.0685,246.2339 444.7585,220.2339 " fill="none" id="listUsersController-to-userModel" style="stroke:#181818;stroke-width:1.0;"/><polygon fill="#181818" points="447.71,215.01,439.8002,220.8781,445.2504,219.3632,446.7654,224.8135,447.71,215.01" style="stroke:#181818;stroke-width:1.0;"/></g><!--SRC=[VPFFReCm3CRlVegeznxw0fCcj9qwgTB-t3Cmr5f8K6BKTK-_05C81dQ9YFtxui-s25zaE-rrgmBV3SRJKybzQy1WpOgTyjHSMLNaiMHo5a9IL5Zhtl0RVlEZeSQsQ5cLyK2_ffwTvLVwGNKw0UYIdLU7zu3-e7HGVVm0Y4hY-nH-SHMQb1jl09-kjvNs4RbuLvF13yBR27NpFQEUAc99uZAMqOMpDJMzrqERYIzbD5ESAV1WDYJQv140Y6hspYJ3nNGtVtrtCZeBCkz2X5kPMLXSjMtm78zUDr9RxYIb_A93k3bVRShNoLcUHYAKPXq765QhZiU7nVfIK6ug9TOhIIan_-pTl4xcGHIHXPSjBgjENluPw2w-CS25yMKh-SHM3Ope_8jiMXVCdkLDR6rLO1is1V4B]--></g></svg>