<?xml version="1.0" encoding="us-ascii" standalone="no"?><svg xmlns="http://www.w3.org/2000/svg" xmlns:xlink="http://www.w3.org/1999/xlink" contentStyleType="text/css" height="1030px" preserveAspectRatio="none" style="width:528px;height:1030px;background:#FFFFFF;" version="1.1" viewBox="0 0 528 1030" width="528px" zoomAndPan="magnify"><defs/><g><!--entity user--><g id="elem_user"><ellipse cx="19" cy="406.5" fill="#F1F1F1" rx="8" ry="8" style="stroke:#181818;stroke-width:0.5;"/><path d="M19,414.5 L19,441.5 M6,422.5 L32,422.5 M19,441.5 L6,456.5 M19,441.5 L32,456.5 " fill="none" style="stroke:#181818;stroke-width:0.5;"/><text fill="#000000" font-family="sans-serif" font-size="11" lengthAdjust="spacing" textLength="23" x="7.5" y="469.4189">User</text></g><!--entity userModel--><g id="elem_userModel"><ellipse cx="468" cy="833" fill="#F1F1F1" rx="12" ry="12" style="stroke:#181818;stroke-width:0.5;"/><line style="stroke:#181818;stroke-width:0.5;" x1="456" x2="480" y1="847" y2="847"/><text fill="#000000" font-family="sans-serif" font-size="11" lengthAdjust="spacing" textLength="51" x="442.5" y="860.4189">UserModel</text></g><!--entity eventModel--><g id="elem_eventModel"><ellipse cx="468" cy="306" fill="#F1F1F1" rx="12" ry="12" style="stroke:#181818;stroke-width:0.5;"/><line style="stroke:#181818;stroke-width:0.5;" x1="456" x2="480" y1="320" y2="320"/><text fill="#000000" font-family="sans-serif" font-size="11" lengthAdjust="spacing" textLength="55" x="440.5" y="333.4189">EventModel</text></g><!--entity commentModel--><g id="elem_commentModel"><ellipse cx="468" cy="752" fill="#F1F1F1" rx="12" ry="12" style="stroke:#181818;stroke-width:0.5;"/><line style="stroke:#181818;stroke-width:0.5;" x1="456" x2="480" y1="766" y2="766"/><text fill="#000000" font-family="sans-serif" font-size="11" lengthAdjust="spacing" textLength="72" x="432" y="779.4189">CommentModel</text></g><!--entity notificationModel--><g id="elem_notificationModel"><ellipse cx="468" cy="590" fill="#F1F1F1" rx="12" ry="12" style="stroke:#181818;stroke-width:0.5;"/><line style="stroke:#181818;stroke-width:0.5;" x1="456" x2="480" y1="604" y2="604"/><text fill="#000000" font-family="sans-serif" font-size="11" lengthAdjust="spacing" textLength="81" x="427.5" y="617.4189">NotificationModel</text></g><!--entity categoriesModel--><g id="elem_categoriesModel"><ellipse cx="468" cy="995" fill="#F1F1F1" rx="12" ry="12" style="stroke:#181818;stroke-width:0.5;"/><line style="stroke:#181818;stroke-width:0.5;" x1="456" x2="480" y1="1009" y2="1009"/><text fill="#000000" font-family="sans-serif" font-size="11" lengthAdjust="spacing" textLength="80" x="428" y="1022.4189">CategoriesModel</text></g><!--entity socialInteractionModel--><g id="elem_socialInteractionModel"><ellipse cx="468" cy="914" fill="#F1F1F1" rx="12" ry="12" style="stroke:#181818;stroke-width:0.5;"/><line style="stroke:#181818;stroke-width:0.5;" x1="456" x2="480" y1="928" y2="928"/><text fill="#000000" font-family="sans-serif" font-size="11" lengthAdjust="spacing" textLength="107" x="414.5" y="941.4189">SocialInteractionModel</text></g><!--entity locationModel--><g id="elem_locationModel"><ellipse cx="468" cy="104" fill="#F1F1F1" rx="12" ry="12" style="stroke:#181818;stroke-width:0.5;"/><line style="stroke:#181818;stroke-width:0.5;" x1="456" x2="480" y1="118" y2="118"/><text fill="#000000" font-family="sans-serif" font-size="11" lengthAdjust="spacing" textLength="69" x="433.5" y="131.4189">LocationModel</text></g><!--entity addEventView--><g id="elem_addEventView"><path d="M114.5,133 L114.5,157 M114.5,145 L131.5,145 " fill="none" style="stroke:#181818;stroke-width:0.5;"/><ellipse cx="143.5" cy="145" fill="#F1F1F1" rx="12" ry="12" style="stroke:#181818;stroke-width:0.5;"/><text fill="#000000" font-family="sans-serif" font-size="11" lengthAdjust="spacing" textLength="73" x="98.5" y="172.4189">AddEventView</text></g><!--entity editEventView--><g id="elem_editEventView"><path d="M114.5,254 L114.5,278 M114.5,266 L131.5,266 " fill="none" style="stroke:#181818;stroke-width:0.5;"/><ellipse cx="143.5" cy="266" fill="#F1F1F1" rx="12" ry="12" style="stroke:#181818;stroke-width:0.5;"/><text fill="#000000" font-family="sans-serif" font-size="11" lengthAdjust="spacing" textLength="70" x="100" y="293.4189">EditEventView</text></g><!--entity eventDetailsView--><g id="elem_eventDetailsView"><path d="M114.5,578 L114.5,602 M114.5,590 L131.5,590 " fill="none" style="stroke:#181818;stroke-width:0.5;"/><ellipse cx="143.5" cy="590" fill="#F1F1F1" rx="12" ry="12" style="stroke:#181818;stroke-width:0.5;"/><text fill="#000000" font-family="sans-serif" font-size="11" lengthAdjust="spacing" textLength="85" x="92.5" y="617.4189">EventDetailsView</text></g><!--entity searchView--><g id="elem_searchView"><path d="M114.5,699 L114.5,723 M114.5,711 L131.5,711 " fill="none" style="stroke:#181818;stroke-width:0.5;"/><ellipse cx="143.5" cy="711" fill="#F1F1F1" rx="12" ry="12" style="stroke:#181818;stroke-width:0.5;"/><text fill="#000000" font-family="sans-serif" font-size="11" lengthAdjust="spacing" textLength="61" x="104.5" y="738.4189">SearchView</text></g><!--entity categoriesController--><g id="elem_categoriesController"><ellipse cx="296" cy="995" fill="#F1F1F1" rx="12" ry="12" style="stroke:#181818;stroke-width:0.5;"/><polygon fill="#181818" points="292,983,298,978,296,983,298,988,292,983" style="stroke:#181818;stroke-width:1.0;"/><text fill="#000000" font-family="sans-serif" font-size="11" lengthAdjust="spacing" textLength="98" x="247" y="1022.4189">CategoriesController</text></g><!--entity likeEventController--><g id="elem_likeEventController"><ellipse cx="296" cy="914" fill="#F1F1F1" rx="12" ry="12" style="stroke:#181818;stroke-width:0.5;"/><polygon fill="#181818" points="292,902,298,897,296,902,298,907,292,902" style="stroke:#181818;stroke-width:1.0;"/><text fill="#000000" font-family="sans-serif" font-size="11" lengthAdjust="spacing" textLength="92" x="250" y="941.4189">LikeEventController</text></g><!--entity notificationController--><g id="elem_notificationController"><ellipse cx="296" cy="590" fill="#F1F1F1" rx="12" ry="12" style="stroke:#181818;stroke-width:0.5;"/><polygon fill="#181818" points="292,578,298,573,296,578,298,583,292,578" style="stroke:#181818;stroke-width:1.0;"/><text fill="#000000" font-family="sans-serif" font-size="11" lengthAdjust="spacing" textLength="105" x="243.5" y="617.4189">NotificationsController</text></g><!--entity shareEventController--><g id="elem_shareEventController"><ellipse cx="296" cy="428" fill="#F1F1F1" rx="12" ry="12" style="stroke:#181818;stroke-width:0.5;"/><polygon fill="#181818" points="292,416,298,411,296,416,298,421,292,416" style="stroke:#181818;stroke-width:1.0;"/><text fill="#000000" font-family="sans-serif" font-size="11" lengthAdjust="spacing" textLength="102" x="245" y="455.4189">ShareEventController</text></g><!--entity commentEventController--><g id="elem_commentEventController"><ellipse cx="296" cy="752" fill="#F1F1F1" rx="12" ry="12" style="stroke:#181818;stroke-width:0.5;"/><polygon fill="#181818" points="292,740,298,735,296,740,298,745,292,740" style="stroke:#181818;stroke-width:1.0;"/><text fill="#000000" font-family="sans-serif" font-size="11" lengthAdjust="spacing" textLength="117" x="237.5" y="779.4189">CommentEventController</text></g><!--entity profileController--><g id="elem_profileController"><ellipse cx="296" cy="833" fill="#F1F1F1" rx="12" ry="12" style="stroke:#181818;stroke-width:0.5;"/><polygon fill="#181818" points="292,821,298,816,296,821,298,826,292,821" style="stroke:#181818;stroke-width:1.0;"/><text fill="#000000" font-family="sans-serif" font-size="11" lengthAdjust="spacing" textLength="76" x="258" y="860.4189">ProfileController</text></g><!--entity fileController--><g id="elem_fileController"><ellipse cx="296" cy="185" fill="#F1F1F1" rx="12" ry="12" style="stroke:#181818;stroke-width:0.5;"/><polygon fill="#181818" points="292,173,298,168,296,173,298,178,292,173" style="stroke:#181818;stroke-width:1.0;"/><text fill="#000000" font-family="sans-serif" font-size="11" lengthAdjust="spacing" textLength="62" x="265" y="212.4189">FileController</text></g><!--entity addEventController--><g id="elem_addEventController"><ellipse cx="296" cy="23" fill="#F1F1F1" rx="12" ry="12" style="stroke:#181818;stroke-width:0.5;"/><polygon fill="#181818" points="292,11,298,6,296,11,298,16,292,11" style="stroke:#181818;stroke-width:1.0;"/><text fill="#000000" font-family="sans-serif" font-size="11" lengthAdjust="spacing" textLength="93" x="249.5" y="50.4189">AddEventController</text></g><!--entity locationController--><g id="elem_locationController"><ellipse cx="296" cy="104" fill="#F1F1F1" rx="12" ry="12" style="stroke:#181818;stroke-width:0.5;"/><polygon fill="#181818" points="292,92,298,87,296,92,298,97,292,92" style="stroke:#181818;stroke-width:1.0;"/><text fill="#000000" font-family="sans-serif" font-size="11" lengthAdjust="spacing" textLength="87" x="252.5" y="131.4189">LocationController</text></g><!--entity editEventController--><g id="elem_editEventController"><ellipse cx="296" cy="266" fill="#F1F1F1" rx="12" ry="12" style="stroke:#181818;stroke-width:0.5;"/><polygon fill="#181818" points="292,254,298,249,296,254,298,259,292,254" style="stroke:#181818;stroke-width:1.0;"/><text fill="#000000" font-family="sans-serif" font-size="11" lengthAdjust="spacing" textLength="90" x="251" y="293.4189">EditEventController</text></g><!--entity eventDetailsController--><g id="elem_eventDetailsController"><ellipse cx="296" cy="347" fill="#F1F1F1" rx="12" ry="12" style="stroke:#181818;stroke-width:0.5;"/><polygon fill="#181818" points="292,335,298,330,296,335,298,340,292,335" style="stroke:#181818;stroke-width:1.0;"/><text fill="#000000" font-family="sans-serif" font-size="11" lengthAdjust="spacing" textLength="105" x="243.5" y="374.4189">EventDetailsController</text></g><!--entity searchEventController--><g id="elem_searchEventController"><ellipse cx="296" cy="671" fill="#F1F1F1" rx="12" ry="12" style="stroke:#181818;stroke-width:0.5;"/><polygon fill="#181818" points="292,659,298,654,296,659,298,664,292,659" style="stroke:#181818;stroke-width:1.0;"/><text fill="#000000" font-family="sans-serif" font-size="11" lengthAdjust="spacing" textLength="108" x="242" y="698.4189">SearchEventController</text></g><!--entity listEventsController--><g id="elem_listEventsController"><ellipse cx="296" cy="509" fill="#F1F1F1" rx="12" ry="12" style="stroke:#181818;stroke-width:0.5;"/><polygon fill="#181818" points="292,497,298,492,296,497,298,502,292,497" style="stroke:#181818;stroke-width:1.0;"/><text fill="#000000" font-family="sans-serif" font-size="11" lengthAdjust="spacing" textLength="96" x="248" y="536.4189">ListEventsController</text></g><!--link user to addEventView--><g id="link_user_addEventView"><path d="M31.62,397.74 C44.85,356.58 67.84,288.61 92.5,232 C101.06,212.35 112.34,190.82 120.98,175.05 " fill="none" id="user-addEventView" style="stroke:#181818;stroke-width:1.0;"/></g><!--link user to editEventView--><g id="link_user_editEventView"><path d="M32.64,417.04 C53.39,387.55 94.68,328.88 117.64,296.25 " fill="none" id="user-editEventView" style="stroke:#181818;stroke-width:1.0;"/></g><!--link user to eventDetailsView--><g id="link_user_eventDetailsView"><path d="M32.64,452.96 C53.39,482.45 94.68,541.12 117.64,573.75 " fill="none" id="user-eventDetailsView" style="stroke:#181818;stroke-width:1.0;"/></g><!--link user to searchView--><g id="link_user_searchView"><path d="M31.7,472.04 C45,512.98 68.05,580.59 92.5,637 C101.17,657.01 112.55,678.98 121.2,694.99 " fill="none" id="user-searchView" style="stroke:#181818;stroke-width:1.0;"/></g><!--link addEventView to addEventController--><g id="link_addEventView_addEventController"><path d="M163.58,128.83 C183.75,112.1 211.95,89.17 237.5,70 C244.99,64.38 253.18,58.52 260.96,53.08 " fill="none" id="addEventView-addEventController" style="stroke:#181818;stroke-width:1.0;"/></g><!--link addEventView to locationController--><g id="link_addEventView_locationController"><path d="M171.68,142.8 C195.58,136.64 227.16,128.49 252.38,121.99 " fill="none" id="addEventView-locationController" style="stroke:#181818;stroke-width:1.0;"/></g><!--link addEventView to fileController--><g id="link_addEventView_fileController"><path d="M171.68,160.98 C199.7,168.03 238.28,177.73 264.78,184.4 " fill="none" id="addEventView-fileController" style="stroke:#181818;stroke-width:1.0;"/></g><!--link editEventView to editEventController--><g id="link_editEventView_editEventController"><path d="M170.11,273 C193.74,273 225.42,273 250.96,273 " fill="none" id="editEventView-editEventController" style="stroke:#181818;stroke-width:1.0;"/></g><!--link editEventView to eventDetailsController--><g id="link_editEventView_eventDetailsController"><path d="M170.11,290.38 C193.38,302.23 224.45,318.06 249.78,330.96 " fill="none" id="editEventView-eventDetailsController" style="stroke:#181818;stroke-width:1.0;"/></g><!--link editEventView to fileController--><g id="link_editEventView_fileController"><path d="M170.11,255.62 C198.31,241.26 237.96,221.06 264.97,207.3 " fill="none" id="editEventView-fileController" style="stroke:#181818;stroke-width:1.0;"/></g><!--link editEventView to locationController--><g id="link_editEventView_locationController"><path d="M152.32,249.83 C171.12,224.04 203.8,181.92 237.5,151 C243.95,145.08 251.32,139.33 258.59,134.11 " fill="none" id="editEventView-locationController" style="stroke:#181818;stroke-width:1.0;"/></g><!--link eventDetailsView to eventDetailsController--><g id="link_eventDetailsView_eventDetailsController"><path d="M143.31,573.82 C156.84,533.68 188.9,450.17 237.5,394 C242.83,387.84 249.31,382.16 255.97,377.14 " fill="none" id="eventDetailsView-eventDetailsController" style="stroke:#181818;stroke-width:1.0;"/></g><!--link eventDetailsView to commentEventController--><g id="link_eventDetailsView_commentEventController"><path d="M152.76,620.36 C171.72,645.9 204.28,687.29 237.5,718 C244.25,724.24 251.98,730.35 259.54,735.86 " fill="none" id="eventDetailsView-commentEventController" style="stroke:#181818;stroke-width:1.0;"/></g><!--link eventDetailsView to likeEventController--><g id="link_eventDetailsView_likeEventController"><path d="M149.57,620.24 C158.33,635.92 169.55,657.26 177.5,677 C212.65,764.27 182.88,803.4 237.5,880 C242.27,886.69 248.48,892.68 255.05,897.89 " fill="none" id="eventDetailsView-likeEventController" style="stroke:#181818;stroke-width:1.0;"/></g><!--link eventDetailsView to profileController--><g id="link_eventDetailsView_profileController"><path d="M148.12,620.04 C156.46,635.99 167.76,657.73 177.5,677 C204.75,730.93 198.38,752.95 237.5,799 C243.29,805.82 250.46,812.09 257.74,817.56 " fill="none" id="eventDetailsView-profileController" style="stroke:#181818;stroke-width:1.0;"/></g><!--link eventDetailsView to shareEventController--><g id="link_eventDetailsView_shareEventController"><path d="M152.32,573.83 C171.12,548.04 203.8,505.92 237.5,475 C243.95,469.08 251.32,463.33 258.59,458.11 " fill="none" id="eventDetailsView-shareEventController" style="stroke:#181818;stroke-width:1.0;"/></g><!--link eventDetailsView to notificationController--><g id="link_eventDetailsView_notificationController"><path d="M177.78,597 C197.83,597 222.06,597 243.27,597 " fill="none" id="eventDetailsView-notificationController" style="stroke:#181818;stroke-width:1.0;"/></g><!--link searchView to searchEventController--><g id="link_searchView_searchEventController"><path d="M165.53,710.57 C186.91,705.19 216.39,697.78 241.82,691.38 " fill="none" id="searchView-searchEventController" style="stroke:#181818;stroke-width:1.0;"/></g><!--link searchView to categoriesController--><g id="link_searchView_categoriesController"><path d="M140.98,741.1 C151.85,787.24 181.34,892.35 237.5,962 C242.54,968.25 248.8,973.93 255.32,978.93 " fill="none" id="searchView-categoriesController" style="stroke:#181818;stroke-width:1.0;"/></g><!--link searchView to likeEventController--><g id="link_searchView_likeEventController"><path d="M146.83,741.14 C163.18,774.44 196.65,836.64 237.5,880 C243.55,886.43 250.75,892.48 257.97,897.86 " fill="none" id="searchView-likeEventController" style="stroke:#181818;stroke-width:1.0;"/></g><!--link searchView to notificationController--><g id="link_searchView_notificationController"><path d="M164.05,694.8 C184.21,678.32 212.2,655.87 237.5,637 C245.01,631.4 253.2,625.55 260.99,620.11 " fill="none" id="searchView-notificationController" style="stroke:#181818;stroke-width:1.0;"/></g><!--link searchView to shareEventController--><g id="link_searchView_shareEventController"><path d="M148.73,694.96 C157.35,678.94 168.73,656.96 177.5,637 C208.39,566.71 190.49,535.71 237.5,475 C242.34,468.75 248.43,463.1 254.82,458.14 " fill="none" id="searchView-shareEventController" style="stroke:#181818;stroke-width:1.0;"/></g><!--link searchView to profileController--><g id="link_searchView_profileController"><path d="M164.12,741.11 C184.31,757.54 212.31,779.99 237.5,799 C245.33,804.91 253.88,811.13 261.94,816.89 " fill="none" id="searchView-profileController" style="stroke:#181818;stroke-width:1.0;"/></g><!--link searchView to commentEventController--><g id="link_searchView_commentEventController"><path d="M165.53,725.62 C185.65,730.8 212.95,737.84 237.29,744.12 " fill="none" id="searchView-commentEventController" style="stroke:#181818;stroke-width:1.0;"/></g><!--link addEventController to eventModel--><g id="link_addEventController_eventModel"><path d="M336.18,53.01 C342.83,58.05 349.26,63.76 354.5,70 C412.63,139.26 447.37,243.55 460.71,289.66 " fill="none" id="addEventController-eventModel" style="stroke:#181818;stroke-width:1.0;"/></g><!--link fileController to eventModel--><g id="link_fileController_eventModel"><path d="M327.2,212.88 C336.02,219.01 345.67,225.75 354.5,232 C383.97,252.86 417.53,277.08 440.27,293.57 " fill="none" id="fileController-eventModel" style="stroke:#181818;stroke-width:1.0;"/></g><!--link locationController to locationModel--><g id="link_locationController_locationModel"><path d="M339.9,111 C368.91,111 406.69,111 433.5,111 " fill="none" id="locationController-locationModel" style="stroke:#181818;stroke-width:1.0;"/></g><!--link editEventController to eventModel--><g id="link_editEventController_eventModel"><path d="M341.22,283.41 C372.7,290.81 413.96,300.52 440.48,306.76 " fill="none" id="editEventController-eventModel" style="stroke:#181818;stroke-width:1.0;"/></g><!--link eventDetailsController to eventModel--><g id="link_eventDetailsController_eventModel"><path d="M348.93,341.48 C379,334.22 415.62,325.39 440.03,319.51 " fill="none" id="eventDetailsController-eventModel" style="stroke:#181818;stroke-width:1.0;"/></g><!--link searchEventController to eventModel--><g id="link_searchEventController_eventModel"><path d="M336.4,654.94 C343.1,649.69 349.5,643.67 354.5,637 C427.13,540.01 455.38,392.48 463.91,336.05 " fill="none" id="searchEventController-eventModel" style="stroke:#181818;stroke-width:1.0;"/></g><!--link listEventsController to eventModel--><g id="link_listEventsController_eventModel"><path d="M333.5,492.86 C340.83,487.44 348.21,481.37 354.5,475 C397.69,431.27 435.62,369.22 454.44,336.04 " fill="none" id="listEventsController-eventModel" style="stroke:#181818;stroke-width:1.0;"/></g><!--link commentEventController to commentModel--><g id="link_commentEventController_commentModel"><path d="M354.55,759 C380.18,759 409.53,759 431.81,759 " fill="none" id="commentEventController-commentModel" style="stroke:#181818;stroke-width:1.0;"/></g><!--link profileController to userModel--><g id="link_profileController_userModel"><path d="M334.31,840 C367.15,840 414.03,840 442.38,840 " fill="none" id="profileController-userModel" style="stroke:#181818;stroke-width:1.0;"/></g><!--link categoriesController to categoriesModel--><g id="link_categoriesController_categoriesModel"><path d="M345.26,1002 C371.37,1002 403.21,1002 427.78,1002 " fill="none" id="categoriesController-categoriesModel" style="stroke:#181818;stroke-width:1.0;"/></g><!--link likeEventController to socialInteractionModel--><g id="link_likeEventController_socialInteractionModel"><path d="M342.11,921 C364.34,921 391.28,921 414.44,921 " fill="none" id="likeEventController-socialInteractionModel" style="stroke:#181818;stroke-width:1.0;"/></g><!--link notificationController to notificationModel--><g id="link_notificationController_notificationModel"><path d="M348.93,597 C374.12,597 403.91,597 427.26,597 " fill="none" id="notificationController-notificationModel" style="stroke:#181818;stroke-width:1.0;"/></g><!--SRC=[nPPDRXin38NtEeMGVHOvGf0cG86qAE0qUrL3sqGqeq2IqwQdx_p44aNI1Rhgnl0yVfGeyeti_8BJgqjkjBcy1vW_4_fo6eC9i2-sH9lmS2nsm0I-O9nChXa3xDqfb2VuLMu37gOHfcBz_059KWznAZly3VRcnXZdIqpswdk6T6LTjgVvYp5p9fRtJVuI1mWrjZxL-FtR_Aq1K1yhSHV7iMCy4IhrDHRSetVBiHewSRMjwWeSOaB8PE5Ug-mkUdJXyz8Bv_iDiXggcO-HLnIeOioFU9e6bsRqTXZMNZmZ_5n9HmJ2tGzOUX2eGib5-mJ5OSWDPYBXT-2IFrOorqTZ_3pm50DjszqcXO-fUoNGqXxn1TPoM5QGUakY8-NRqS5gkRkZI-gEMGcGustMqXAz6cgftrBSOm2MzShLbl0WwKlesHiCTq8c7O-yEPtzj9JgB9O3KYT9n4yyJmsH6Qq6KuUaHQYRybPG5dQIWVypt7zlYrdkHdjztR_tPx5_nwlAN-PpWBwxT3swFjcR8ufBEC8ERhe2kue99I6z5u9ZkucuKh3XpVdRVWfwmH8QgjrY6YVzeb7g3QM15-v0quRVhC3NwndrykuHxOmzSQ4SLersk1wHNMB5weCnqjTrujkFRRyg2qe7KLzz_AfBIxDLT7ynI9q8BqUvoHYYzu5qQCD4EnUY_G_JHjzRuboGcFywJ_t_Z-u5xfAD_GC0]--></g></svg>