<?xml version="1.0" encoding="us-ascii" standalone="no"?><svg xmlns="http://www.w3.org/2000/svg" xmlns:xlink="http://www.w3.org/1999/xlink" contentStyleType="text/css" height="706px" preserveAspectRatio="none" style="width:548px;height:706px;background:#FFFFFF;" version="1.1" viewBox="0 0 548 706" width="548px" zoomAndPan="magnify"><defs/><g><!--entity user--><g id="elem_user"><ellipse cx="19" cy="285.5" fill="#F1F1F1" rx="8" ry="8" style="stroke:#181818;stroke-width:0.5;"/><path d="M19,293.5 L19,320.5 M6,301.5 L32,301.5 M19,320.5 L6,335.5 M19,320.5 L32,335.5 " fill="none" style="stroke:#181818;stroke-width:0.5;"/><text fill="#000000" font-family="sans-serif" font-size="11" lengthAdjust="spacing" textLength="23" x="7.5" y="348.4189">User</text></g><!--entity userModel--><g id="elem_userModel"><ellipse cx="500" cy="266" fill="#F1F1F1" rx="12" ry="12" style="stroke:#181818;stroke-width:0.5;"/><line style="stroke:#181818;stroke-width:0.5;" x1="488" x2="512" y1="280" y2="280"/><text fill="#000000" font-family="sans-serif" font-size="11" lengthAdjust="spacing" textLength="51" x="474.5" y="293.4189">UserModel</text></g><!--entity followUserModel--><g id="elem_followUserModel"><ellipse cx="500" cy="590" fill="#F1F1F1" rx="12" ry="12" style="stroke:#181818;stroke-width:0.5;"/><line style="stroke:#181818;stroke-width:0.5;" x1="488" x2="512" y1="604" y2="604"/><text fill="#000000" font-family="sans-serif" font-size="11" lengthAdjust="spacing" textLength="83" x="458.5" y="617.4189">FollowUserModel</text></g><!--entity notificationModel--><g id="elem_notificationModel"><ellipse cx="500" cy="671" fill="#F1F1F1" rx="12" ry="12" style="stroke:#181818;stroke-width:0.5;"/><line style="stroke:#181818;stroke-width:0.5;" x1="488" x2="512" y1="685" y2="685"/><text fill="#000000" font-family="sans-serif" font-size="11" lengthAdjust="spacing" textLength="81" x="459.5" y="698.4189">NotificationModel</text></g><!--entity profileView--><g id="elem_profileView"><path d="M128.5,133 L128.5,157 M128.5,145 L145.5,145 " fill="none" style="stroke:#181818;stroke-width:0.5;"/><ellipse cx="157.5" cy="145" fill="#F1F1F1" rx="12" ry="12" style="stroke:#181818;stroke-width:0.5;"/><text fill="#000000" font-family="sans-serif" font-size="11" lengthAdjust="spacing" textLength="56" x="121" y="172.4189">ProfileView</text></g><!--entity editProfileView--><g id="elem_editProfileView"><path d="M128.5,254 L128.5,278 M128.5,266 L145.5,266 " fill="none" style="stroke:#181818;stroke-width:0.5;"/><ellipse cx="157.5" cy="266" fill="#F1F1F1" rx="12" ry="12" style="stroke:#181818;stroke-width:0.5;"/><text fill="#000000" font-family="sans-serif" font-size="11" lengthAdjust="spacing" textLength="73" x="112.5" y="293.4189">EditProfileView</text></g><!--entity configurationView--><g id="elem_configurationView"><path d="M128.5,335 L128.5,359 M128.5,347 L145.5,347 " fill="none" style="stroke:#181818;stroke-width:0.5;"/><ellipse cx="157.5" cy="347" fill="#F1F1F1" rx="12" ry="12" style="stroke:#181818;stroke-width:0.5;"/><text fill="#000000" font-family="sans-serif" font-size="11" lengthAdjust="spacing" textLength="90" x="104" y="374.4189">ConfigurationView</text></g><!--entity changePasswordView--><g id="elem_changePasswordView"><path d="M128.5,32 L128.5,56 M128.5,44 L145.5,44 " fill="none" style="stroke:#181818;stroke-width:0.5;"/><ellipse cx="157.5" cy="44" fill="#F1F1F1" rx="12" ry="12" style="stroke:#181818;stroke-width:0.5;"/><text fill="#000000" font-family="sans-serif" font-size="11" lengthAdjust="spacing" textLength="113" x="92.5" y="71.4189">ChangePasswordView</text></g><!--entity followersView--><g id="elem_followersView"><path d="M128.5,578 L128.5,602 M128.5,590 L145.5,590 " fill="none" style="stroke:#181818;stroke-width:0.5;"/><ellipse cx="157.5" cy="590" fill="#F1F1F1" rx="12" ry="12" style="stroke:#181818;stroke-width:0.5;"/><text fill="#000000" font-family="sans-serif" font-size="11" lengthAdjust="spacing" textLength="74" x="112" y="617.4189">FollowersView</text></g><!--entity followedView--><g id="elem_followedView"><path d="M128.5,497 L128.5,521 M128.5,509 L145.5,509 " fill="none" style="stroke:#181818;stroke-width:0.5;"/><ellipse cx="157.5" cy="509" fill="#F1F1F1" rx="12" ry="12" style="stroke:#181818;stroke-width:0.5;"/><text fill="#000000" font-family="sans-serif" font-size="11" lengthAdjust="spacing" textLength="70" x="114" y="536.4189">FollowedView</text></g><!--entity profileController--><g id="elem_profileController"><ellipse cx="332" cy="104" fill="#F1F1F1" rx="12" ry="12" style="stroke:#181818;stroke-width:0.5;"/><polygon fill="#181818" points="328,92,334,87,332,92,334,97,328,92" style="stroke:#181818;stroke-width:1.0;"/><text fill="#000000" font-family="sans-serif" font-size="11" lengthAdjust="spacing" textLength="76" x="294" y="131.4189">ProfileController</text></g><!--entity editProfileController--><g id="elem_editProfileController"><ellipse cx="332" cy="185" fill="#F1F1F1" rx="12" ry="12" style="stroke:#181818;stroke-width:0.5;"/><polygon fill="#181818" points="328,173,334,168,332,173,334,178,328,173" style="stroke:#181818;stroke-width:1.0;"/><text fill="#000000" font-family="sans-serif" font-size="11" lengthAdjust="spacing" textLength="93" x="285.5" y="212.4189">EditProfileController</text></g><!--entity changeLanguageController--><g id="elem_changeLanguageController"><ellipse cx="332" cy="347" fill="#F1F1F1" rx="12" ry="12" style="stroke:#181818;stroke-width:0.5;"/><polygon fill="#181818" points="328,335,334,330,332,335,334,340,328,335" style="stroke:#181818;stroke-width:1.0;"/><text fill="#000000" font-family="sans-serif" font-size="11" lengthAdjust="spacing" textLength="131" x="266.5" y="374.4189">ChangeLanguageController</text></g><!--entity changePasswordController--><g id="elem_changePasswordController"><ellipse cx="332" cy="23" fill="#F1F1F1" rx="12" ry="12" style="stroke:#181818;stroke-width:0.5;"/><polygon fill="#181818" points="328,11,334,6,332,11,334,16,328,11" style="stroke:#181818;stroke-width:1.0;"/><text fill="#000000" font-family="sans-serif" font-size="11" lengthAdjust="spacing" textLength="133" x="265.5" y="50.4189">ChangePasswordController</text></g><!--entity listUsersController--><g id="elem_listUsersController"><ellipse cx="332" cy="509" fill="#F1F1F1" rx="12" ry="12" style="stroke:#181818;stroke-width:0.5;"/><polygon fill="#181818" points="328,497,334,492,332,497,334,502,328,497" style="stroke:#181818;stroke-width:1.0;"/><text fill="#000000" font-family="sans-serif" font-size="11" lengthAdjust="spacing" textLength="92" x="286" y="536.4189">ListUsersController</text></g><!--entity logoutController--><g id="elem_logoutController"><ellipse cx="332" cy="428" fill="#F1F1F1" rx="12" ry="12" style="stroke:#181818;stroke-width:0.5;"/><polygon fill="#181818" points="328,416,334,411,332,416,334,421,328,416" style="stroke:#181818;stroke-width:1.0;"/><text fill="#000000" font-family="sans-serif" font-size="11" lengthAdjust="spacing" textLength="79" x="292.5" y="455.4189">LogoutController</text></g><!--entity fileController--><g id="elem_fileController"><ellipse cx="332" cy="266" fill="#F1F1F1" rx="12" ry="12" style="stroke:#181818;stroke-width:0.5;"/><polygon fill="#181818" points="328,254,334,249,332,254,334,259,328,254" style="stroke:#181818;stroke-width:1.0;"/><text fill="#000000" font-family="sans-serif" font-size="11" lengthAdjust="spacing" textLength="62" x="301" y="293.4189">FileController</text></g><!--entity followUserController--><g id="elem_followUserController"><ellipse cx="332" cy="590" fill="#F1F1F1" rx="12" ry="12" style="stroke:#181818;stroke-width:0.5;"/><polygon fill="#181818" points="328,578,334,573,332,578,334,583,328,578" style="stroke:#181818;stroke-width:1.0;"/><text fill="#000000" font-family="sans-serif" font-size="11" lengthAdjust="spacing" textLength="101" x="281.5" y="617.4189">FollowUserController</text></g><!--entity notificationsController--><g id="elem_notificationsController"><ellipse cx="332" cy="671" fill="#F1F1F1" rx="12" ry="12" style="stroke:#181818;stroke-width:0.5;"/><polygon fill="#181818" points="328,659,334,654,332,659,334,664,328,659" style="stroke:#181818;stroke-width:1.0;"/><text fill="#000000" font-family="sans-serif" font-size="11" lengthAdjust="spacing" textLength="105" x="279.5" y="698.4189">NotificationsController</text></g><!--link user to profileView--><g id="link_user_profileView"><path d="M32.51,298.17 C55.22,269.43 103.32,208.55 129.71,175.14 " fill="none" id="user-profileView" style="stroke:#181818;stroke-width:1.0;"/></g><!--link user to editProfileView--><g id="link_user_editProfileView"><path d="M32.74,309.92 C51.14,304.02 85.86,292.9 112.4,284.4 " fill="none" id="user-editProfileView" style="stroke:#181818;stroke-width:1.0;"/></g><!--link user to configurationView--><g id="link_user_configurationView"><path d="M32.74,317.98 C49.25,323.14 78.87,332.4 103.96,340.24 " fill="none" id="user-configurationView" style="stroke:#181818;stroke-width:1.0;"/></g><!--link user to changePasswordView--><g id="link_user_changePasswordView"><path d="M28.45,276.83 C39.13,234.55 60.11,164.45 92.5,111 C100.59,97.65 111.97,84.7 122.33,74.26 " fill="none" id="user-changePasswordView" style="stroke:#181818;stroke-width:1.0;"/></g><!--link user to followersView--><g id="link_user_followersView"><path d="M23.75,351.2 C30.38,401.64 47.98,492.68 92.5,556 C97.67,563.35 104.57,569.91 111.75,575.52 " fill="none" id="user-followersView" style="stroke:#181818;stroke-width:1.0;"/></g><!--link user to followedView--><g id="link_user_followedView"><path d="M32.51,333.74 C56.28,371.26 107.9,452.72 133.29,492.79 " fill="none" id="user-followedView" style="stroke:#181818;stroke-width:1.0;"/></g><!--link profileView to profileController--><g id="link_profileView_profileController"><path d="M177.1,145.86 C208.16,138.83 259.26,127.25 293.98,119.39 " fill="none" id="profileView-profileController" style="stroke:#181818;stroke-width:1.0;"/></g><!--link editProfileView to editProfileController--><g id="link_editProfileView_editProfileController"><path d="M185.76,257 C214.3,244.23 254.47,226.25 285.33,212.44 " fill="none" id="editProfileView-editProfileController" style="stroke:#181818;stroke-width:1.0;"/></g><!--link editProfileView to fileController--><g id="link_editProfileView_fileController"><path d="M185.76,273 C219.35,273 269.04,273 300.72,273 " fill="none" id="editProfileView-fileController" style="stroke:#181818;stroke-width:1.0;"/></g><!--link configurationView to changeLanguageController--><g id="link_configurationView_changeLanguageController"><path d="M194.28,354 C215.94,354 242.44,354 266.31,354 " fill="none" id="configurationView-changeLanguageController" style="stroke:#181818;stroke-width:1.0;"/></g><!--link configurationView to logoutController--><g id="link_configurationView_logoutController"><path d="M194.28,373.81 C224.31,387.26 263.64,404.85 292.4,417.72 " fill="none" id="configurationView-logoutController" style="stroke:#181818;stroke-width:1.0;"/></g><!--link changePasswordView to changePasswordController--><g id="link_changePasswordView_changePasswordController"><path d="M205.78,44.53 C224.58,42.35 245.74,39.89 265.24,37.63 " fill="none" id="changePasswordView-changePasswordController" style="stroke:#181818;stroke-width:1.0;"/></g><!--link followersView to listUsersController--><g id="link_followersView_listUsersController"><path d="M186.19,580.8 C214.87,567.97 255.1,549.97 285.88,536.19 " fill="none" id="followersView-listUsersController" style="stroke:#181818;stroke-width:1.0;"/></g><!--link followersView to followUserController--><g id="link_followersView_followUserController"><path d="M186.19,597 C213.43,597 251.08,597 281.16,597 " fill="none" id="followersView-followUserController" style="stroke:#181818;stroke-width:1.0;"/></g><!--link followersView to notificationsController--><g id="link_followersView_notificationsController"><path d="M186.19,613.2 C212.91,625.15 249.65,641.6 279.44,654.93 " fill="none" id="followersView-notificationsController" style="stroke:#181818;stroke-width:1.0;"/></g><!--link followedView to listUsersController--><g id="link_followedView_listUsersController"><path d="M184.04,516 C212.82,516 254.28,516 285.82,516 " fill="none" id="followedView-listUsersController" style="stroke:#181818;stroke-width:1.0;"/></g><!--link followedView to followUserController--><g id="link_followedView_followUserController"><path d="M184.04,531.24 C211.49,543.52 250.47,560.96 281.38,574.8 " fill="none" id="followedView-followUserController" style="stroke:#181818;stroke-width:1.0;"/></g><!--link profileController to userModel--><g id="link_profileController_userModel"><path d="M370.18,130.76 C379.85,136.67 389.95,143.57 398.5,151 C433.1,181.04 465.33,223.81 483.55,249.91 " fill="none" id="profileController-userModel" style="stroke:#181818;stroke-width:1.0;"/></g><!--link editProfileController to userModel--><g id="link_editProfileController_userModel"><path d="M378.8,214.35 C409.7,229.43 449.28,248.74 474.39,260.99 " fill="none" id="editProfileController-userModel" style="stroke:#181818;stroke-width:1.0;"/></g><!--link changeLanguageController to userModel--><g id="link_changeLanguageController_userModel"><path d="M380.57,330.79 C411.23,315.83 449.82,297 474.46,284.97 " fill="none" id="changeLanguageController-userModel" style="stroke:#181818;stroke-width:1.0;"/></g><!--link changePasswordController to userModel--><g id="link_changePasswordController_userModel"><path d="M378.55,53.13 C385.77,58.06 392.74,63.71 398.5,70 C448.68,124.83 479.54,209.35 492.26,249.83 " fill="none" id="changePasswordController-userModel" style="stroke:#181818;stroke-width:1.0;"/></g><!--link listUsersController to userModel--><g id="link_listUsersController_userModel"><path d="M377.52,492.84 C385.1,487.64 392.46,481.66 398.5,475 C448.1,420.31 479.15,336.64 492.07,296.32 " fill="none" id="listUsersController-userModel" style="stroke:#181818;stroke-width:1.0;"/></g><!--link logoutController to userModel--><g id="link_logoutController_userModel"><path d="M371.51,413.74 C380.76,407.88 390.32,401.15 398.5,394 C432.63,364.16 464.75,322.14 483.12,296.29 " fill="none" id="logoutController-userModel" style="stroke:#181818;stroke-width:1.0;"/></g><!--link fileController to userModel--><g id="link_fileController_userModel"><path d="M363.06,273 C394.92,273 444.64,273 474.3,273 " fill="none" id="fileController-userModel" style="stroke:#181818;stroke-width:1.0;"/></g><!--link followUserController to followUserModel--><g id="link_followUserController_followUserModel"><path d="M382.81,597 C406.97,597 435.62,597 458.43,597 " fill="none" id="followUserController-followUserModel" style="stroke:#181818;stroke-width:1.0;"/></g><!--link notificationsController to notificationModel--><g id="link_notificationsController_notificationModel"><path d="M384.61,678 C408.69,678 436.91,678 459.29,678 " fill="none" id="notificationsController-notificationModel" style="stroke:#181818;stroke-width:1.0;"/></g><!--SRC=[bPJBRWCX34NtV0NAFejyGbKrgxIArCUU3im4bK047gNfrtSU2G-RITKDojZdWhas2L_QdeGNHnxWOjImUjr0VpJCg1OuEEvrTm0kjLSDQ6TPY0gfMj4RU5FVy61qPu_A0c-6HNbARPs5L_sZ-6R3c6Z0URvw3yglk0Yy7tumDYWrNERmivFAnDpq5VDRPumxbrHRnYBxua2tkX5ZwOcsEChOf-kj57wGxBrhjL4VMfqd-9I-C-f9Qi2aAcCP_UXigxlUJoT6li7HN74GjbDx4SBPUPaa99nfPcEK3n5lymWb9GRd7TbG67XdeXUFyxUvjkk4eqcGsO94gfP9mlc-ks7fHOUrpK8Ios- -LEKqcUGx7M0Sde2KXiOpaUjS3rY1WWdVKa-MpFZlpd7uyVwLH9BbRmDVtDPpZ8tFaQ_NnQkunV3yt-9qpcE6ZlCjLOukYbxdD2iYgoah5rM4YhmFqkQKbqZrrmUJqhI3vFhKb0mlB9ash8mdWQf3GAYbXkU6_t6al7iYQSv8Pd_kjRQKo9BPDOgwLrALQo00zQhCtYkpTllIbPbRS1mtOuP_0G00]--></g></svg>