<?xml version="1.0" encoding="us-ascii" standalone="no"?><svg xmlns="http://www.w3.org/2000/svg" xmlns:xlink="http://www.w3.org/1999/xlink" contentStyleType="text/css" height="1030px" preserveAspectRatio="none" style="width:528px;height:1030px;background:#FFFFFF;" version="1.1" viewBox="0 0 528 1030" width="528px" zoomAndPan="magnify"><defs/><g><!--entity user--><g id="elem_user"><ellipse cx="19" cy="568.5" fill="#F1F1F1" rx="8" ry="8" style="stroke:#181818;stroke-width:0.5;"/><path d="M19,576.5 L19,603.5 M6,584.5 L32,584.5 M19,603.5 L6,618.5 M19,603.5 L32,618.5 " fill="none" style="stroke:#181818;stroke-width:0.5;"/><text fill="#000000" font-family="sans-serif" font-size="11" lengthAdjust="spacing" textLength="23" x="7.5" y="631.4189">User</text></g><!--entity userModel--><g id="elem_userModel"><ellipse cx="468" cy="752" fill="#F1F1F1" rx="12" ry="12" style="stroke:#181818;stroke-width:0.5;"/><line style="stroke:#181818;stroke-width:0.5;" x1="456" x2="480" y1="766" y2="766"/><text fill="#000000" font-family="sans-serif" font-size="11" lengthAdjust="spacing" textLength="51" x="442.5" y="779.4189">UserModel</text></g><!--entity eventModel--><g id="elem_eventModel"><ellipse cx="468" cy="306" fill="#F1F1F1" rx="12" ry="12" style="stroke:#181818;stroke-width:0.5;"/><line style="stroke:#181818;stroke-width:0.5;" x1="456" x2="480" y1="320" y2="320"/><text fill="#000000" font-family="sans-serif" font-size="11" lengthAdjust="spacing" textLength="55" x="440.5" y="333.4189">EventModel</text></g><!--entity commentModel--><g id="elem_commentModel"><ellipse cx="468" cy="671" fill="#F1F1F1" rx="12" ry="12" style="stroke:#181818;stroke-width:0.5;"/><line style="stroke:#181818;stroke-width:0.5;" x1="456" x2="480" y1="685" y2="685"/><text fill="#000000" font-family="sans-serif" font-size="11" lengthAdjust="spacing" textLength="72" x="432" y="698.4189">CommentModel</text></g><!--entity notificationModel--><g id="elem_notificationModel"><ellipse cx="468" cy="509" fill="#F1F1F1" rx="12" ry="12" style="stroke:#181818;stroke-width:0.5;"/><line style="stroke:#181818;stroke-width:0.5;" x1="456" x2="480" y1="523" y2="523"/><text fill="#000000" font-family="sans-serif" font-size="11" lengthAdjust="spacing" textLength="81" x="427.5" y="536.4189">NotificationModel</text></g><!--entity categoriesModel--><g id="elem_categoriesModel"><ellipse cx="468" cy="995" fill="#F1F1F1" rx="12" ry="12" style="stroke:#181818;stroke-width:0.5;"/><line style="stroke:#181818;stroke-width:0.5;" x1="456" x2="480" y1="1009" y2="1009"/><text fill="#000000" font-family="sans-serif" font-size="11" lengthAdjust="spacing" textLength="80" x="428" y="1022.4189">CategoriesModel</text></g><!--entity socialInteractionModel--><g id="elem_socialInteractionModel"><ellipse cx="468" cy="833" fill="#F1F1F1" rx="12" ry="12" style="stroke:#181818;stroke-width:0.5;"/><line style="stroke:#181818;stroke-width:0.5;" x1="456" x2="480" y1="847" y2="847"/><text fill="#000000" font-family="sans-serif" font-size="11" lengthAdjust="spacing" textLength="107" x="414.5" y="860.4189">SocialInteractionModel</text></g><!--entity locationModel--><g id="elem_locationModel"><ellipse cx="468" cy="23" fill="#F1F1F1" rx="12" ry="12" style="stroke:#181818;stroke-width:0.5;"/><line style="stroke:#181818;stroke-width:0.5;" x1="456" x2="480" y1="37" y2="37"/><text fill="#000000" font-family="sans-serif" font-size="11" lengthAdjust="spacing" textLength="69" x="433.5" y="50.4189">LocationModel</text></g><!--entity addEventView--><g id="elem_addEventView"><path d="M114.5,133 L114.5,157 M114.5,145 L131.5,145 " fill="none" style="stroke:#181818;stroke-width:0.5;"/><ellipse cx="143.5" cy="145" fill="#F1F1F1" rx="12" ry="12" style="stroke:#181818;stroke-width:0.5;"/><text fill="#000000" font-family="sans-serif" font-size="11" lengthAdjust="spacing" textLength="73" x="98.5" y="172.4189">AddEventView</text></g><!--entity editEventView--><g id="elem_editEventView"><path d="M114.5,254 L114.5,278 M114.5,266 L131.5,266 " fill="none" style="stroke:#181818;stroke-width:0.5;"/><ellipse cx="143.5" cy="266" fill="#F1F1F1" rx="12" ry="12" style="stroke:#181818;stroke-width:0.5;"/><text fill="#000000" font-family="sans-serif" font-size="11" lengthAdjust="spacing" textLength="70" x="100" y="293.4189">EditEventView</text></g><!--entity eventDetailsView--><g id="elem_eventDetailsView"><path d="M114.5,578 L114.5,602 M114.5,590 L131.5,590 " fill="none" style="stroke:#181818;stroke-width:0.5;"/><ellipse cx="143.5" cy="590" fill="#F1F1F1" rx="12" ry="12" style="stroke:#181818;stroke-width:0.5;"/><text fill="#000000" font-family="sans-serif" font-size="11" lengthAdjust="spacing" textLength="85" x="92.5" y="617.4189">EventDetailsView</text></g><!--entity searchView--><g id="elem_searchView"><path d="M114.5,740 L114.5,764 M114.5,752 L131.5,752 " fill="none" style="stroke:#181818;stroke-width:0.5;"/><ellipse cx="143.5" cy="752" fill="#F1F1F1" rx="12" ry="12" style="stroke:#181818;stroke-width:0.5;"/><text fill="#000000" font-family="sans-serif" font-size="11" lengthAdjust="spacing" textLength="61" x="104.5" y="779.4189">SearchView</text></g><!--entity homeView--><g id="elem_homeView"><path d="M114.5,659 L114.5,683 M114.5,671 L131.5,671 " fill="none" style="stroke:#181818;stroke-width:0.5;"/><ellipse cx="143.5" cy="671" fill="#F1F1F1" rx="12" ry="12" style="stroke:#181818;stroke-width:0.5;"/><text fill="#000000" font-family="sans-serif" font-size="11" lengthAdjust="spacing" textLength="53" x="108.5" y="698.4189">HomeView</text></g><!--entity categoriesController--><g id="elem_categoriesController"><ellipse cx="296" cy="995" fill="#F1F1F1" rx="12" ry="12" style="stroke:#181818;stroke-width:0.5;"/><polygon fill="#181818" points="292,983,298,978,296,983,298,988,292,983" style="stroke:#181818;stroke-width:1.0;"/><text fill="#000000" font-family="sans-serif" font-size="11" lengthAdjust="spacing" textLength="98" x="247" y="1022.4189">CategoriesController</text></g><!--entity likeEventController--><g id="elem_likeEventController"><ellipse cx="296" cy="833" fill="#F1F1F1" rx="12" ry="12" style="stroke:#181818;stroke-width:0.5;"/><polygon fill="#181818" points="292,821,298,816,296,821,298,826,292,821" style="stroke:#181818;stroke-width:1.0;"/><text fill="#000000" font-family="sans-serif" font-size="11" lengthAdjust="spacing" textLength="92" x="250" y="860.4189">LikeEventController</text></g><!--entity notificationController--><g id="elem_notificationController"><ellipse cx="296" cy="509" fill="#F1F1F1" rx="12" ry="12" style="stroke:#181818;stroke-width:0.5;"/><polygon fill="#181818" points="292,497,298,492,296,497,298,502,292,497" style="stroke:#181818;stroke-width:1.0;"/><text fill="#000000" font-family="sans-serif" font-size="11" lengthAdjust="spacing" textLength="105" x="243.5" y="536.4189">NotificationsController</text></g><!--entity shareEventController--><g id="elem_shareEventController"><ellipse cx="296" cy="590" fill="#F1F1F1" rx="12" ry="12" style="stroke:#181818;stroke-width:0.5;"/><polygon fill="#181818" points="292,578,298,573,296,578,298,583,292,578" style="stroke:#181818;stroke-width:1.0;"/><text fill="#000000" font-family="sans-serif" font-size="11" lengthAdjust="spacing" textLength="102" x="245" y="617.4189">ShareEventController</text></g><!--entity commentEventController--><g id="elem_commentEventController"><ellipse cx="296" cy="671" fill="#F1F1F1" rx="12" ry="12" style="stroke:#181818;stroke-width:0.5;"/><polygon fill="#181818" points="292,659,298,654,296,659,298,664,292,659" style="stroke:#181818;stroke-width:1.0;"/><text fill="#000000" font-family="sans-serif" font-size="11" lengthAdjust="spacing" textLength="117" x="237.5" y="698.4189">CommentEventController</text></g><!--entity profileController--><g id="elem_profileController"><ellipse cx="296" cy="752" fill="#F1F1F1" rx="12" ry="12" style="stroke:#181818;stroke-width:0.5;"/><polygon fill="#181818" points="292,740,298,735,296,740,298,745,292,740" style="stroke:#181818;stroke-width:1.0;"/><text fill="#000000" font-family="sans-serif" font-size="11" lengthAdjust="spacing" textLength="76" x="258" y="779.4189">ProfileController</text></g><!--entity fileController--><g id="elem_fileController"><ellipse cx="296" cy="185" fill="#F1F1F1" rx="12" ry="12" style="stroke:#181818;stroke-width:0.5;"/><polygon fill="#181818" points="292,173,298,168,296,173,298,178,292,173" style="stroke:#181818;stroke-width:1.0;"/><text fill="#000000" font-family="sans-serif" font-size="11" lengthAdjust="spacing" textLength="62" x="265" y="212.4189">FileController</text></g><!--entity addEventController--><g id="elem_addEventController"><ellipse cx="296" cy="104" fill="#F1F1F1" rx="12" ry="12" style="stroke:#181818;stroke-width:0.5;"/><polygon fill="#181818" points="292,92,298,87,296,92,298,97,292,92" style="stroke:#181818;stroke-width:1.0;"/><text fill="#000000" font-family="sans-serif" font-size="11" lengthAdjust="spacing" textLength="93" x="249.5" y="131.4189">AddEventController</text></g><!--entity locationController--><g id="elem_locationController"><ellipse cx="296" cy="23" fill="#F1F1F1" rx="12" ry="12" style="stroke:#181818;stroke-width:0.5;"/><polygon fill="#181818" points="292,11,298,6,296,11,298,16,292,11" style="stroke:#181818;stroke-width:1.0;"/><text fill="#000000" font-family="sans-serif" font-size="11" lengthAdjust="spacing" textLength="87" x="252.5" y="50.4189">LocationController</text></g><!--entity editEventController--><g id="elem_editEventController"><ellipse cx="296" cy="266" fill="#F1F1F1" rx="12" ry="12" style="stroke:#181818;stroke-width:0.5;"/><polygon fill="#181818" points="292,254,298,249,296,254,298,259,292,254" style="stroke:#181818;stroke-width:1.0;"/><text fill="#000000" font-family="sans-serif" font-size="11" lengthAdjust="spacing" textLength="90" x="251" y="293.4189">EditEventController</text></g><!--entity eventDetailsController--><g id="elem_eventDetailsController"><ellipse cx="296" cy="347" fill="#F1F1F1" rx="12" ry="12" style="stroke:#181818;stroke-width:0.5;"/><polygon fill="#181818" points="292,335,298,330,296,335,298,340,292,335" style="stroke:#181818;stroke-width:1.0;"/><text fill="#000000" font-family="sans-serif" font-size="11" lengthAdjust="spacing" textLength="105" x="243.5" y="374.4189">EventDetailsController</text></g><!--entity searchEventController--><g id="elem_searchEventController"><ellipse cx="296" cy="914" fill="#F1F1F1" rx="12" ry="12" style="stroke:#181818;stroke-width:0.5;"/><polygon fill="#181818" points="292,902,298,897,296,902,298,907,292,902" style="stroke:#181818;stroke-width:1.0;"/><text fill="#000000" font-family="sans-serif" font-size="11" lengthAdjust="spacing" textLength="108" x="242" y="941.4189">SearchEventController</text></g><!--entity listEventsController--><g id="elem_listEventsController"><ellipse cx="296" cy="428" fill="#F1F1F1" rx="12" ry="12" style="stroke:#181818;stroke-width:0.5;"/><polygon fill="#181818" points="292,416,298,411,296,416,298,421,292,416" style="stroke:#181818;stroke-width:1.0;"/><text fill="#000000" font-family="sans-serif" font-size="11" lengthAdjust="spacing" textLength="96" x="248" y="455.4189">ListEventsController</text></g><!--link user to addEventView--><g id="link_user_addEventView"><path d="M23.87,559.83 C31.62,492.78 51.88,347.83 92.5,232 C99.54,211.92 107.8038,195.7926 116.8238,180.2126 " fill="none" id="user-to-addEventView" style="stroke:#181818;stroke-width:1.0;"/><polygon fill="#181818" points="119.83,175.02,111.859,180.8047,117.3248,179.3471,118.7824,184.813,119.83,175.02" style="stroke:#181818;stroke-width:1.0;"/></g><!--link user to editEventView--><g id="link_user_editEventView"><path d="M32.53,561.4 C56.01,494.66 104.0693,358.0801 123.7793,302.0401 " fill="none" id="user-to-editEventView" style="stroke:#181818;stroke-width:1.0;"/><polygon fill="#181818" points="125.77,296.38,119.0105,303.543,124.1111,301.0968,126.5573,306.1973,125.77,296.38" style="stroke:#181818;stroke-width:1.0;"/></g><!--link user to eventDetailsView--><g id="link_user_eventDetailsView"><path d="M32.64,597 C47.01,597 65.24,597 86.41,597 " fill="none" id="user-to-eventDetailsView" style="stroke:#181818;stroke-width:1.0;"/><polygon fill="#181818" points="92.41,597,83.41,593,87.41,597,83.41,601,92.41,597" style="stroke:#181818;stroke-width:1.0;"/></g><!--link user to searchView--><g id="link_user_searchView"><path d="M32.73,622.28 C46.03,647.62 68.3,687.18 92.5,718 C97.25,724.05 98.6089,725.8759 104.1189,731.4159 " fill="none" id="user-to-searchView" style="stroke:#181818;stroke-width:1.0;"/><polygon fill="#181818" points="108.35,735.67,104.8394,726.468,104.8241,732.1249,99.1672,732.1095,108.35,735.67" style="stroke:#181818;stroke-width:1.0;"/></g><!--link user to homeView--><g id="link_user_homeView"><path d="M32.64,605.98 C50.84,618.91 79.9492,639.5944 103.5192,656.3444 " fill="none" id="user-to-homeView" style="stroke:#181818;stroke-width:1.0;"/><polygon fill="#181818" points="108.41,659.82,103.3909,651.346,104.3343,656.9236,98.7567,657.8671,108.41,659.82" style="stroke:#181818;stroke-width:1.0;"/></g><!--link addEventView to addEventController--><g id="link_addEventView_addEventController"><path d="M171.68,142.8 C194.66,136.87 218.9395,130.6061 243.6395,124.2461 " fill="none" id="addEventView-to-addEventController" style="stroke:#181818;stroke-width:1.0;"/><polygon fill="#181818" points="249.45,122.75,239.7369,121.1206,244.6079,123.9968,241.7317,128.8679,249.45,122.75" style="stroke:#181818;stroke-width:1.0;"/></g><!--link addEventView to locationController--><g id="link_addEventView_locationController"><path d="M163.58,128.83 C183.75,112.1 211.95,89.17 237.5,70 C244.99,64.38 248.2628,61.9582 256.0428,56.5182 " fill="none" id="addEventView-to-locationController" style="stroke:#181818;stroke-width:1.0;"/><polygon fill="#181818" points="260.96,53.08,251.2921,54.9592,256.8624,55.9452,255.8764,61.5155,260.96,53.08" style="stroke:#181818;stroke-width:1.0;"/></g><!--link addEventView to fileController--><g id="link_addEventView_fileController"><path d="M171.68,160.98 C199.7,168.03 232.4615,176.2655 258.9615,182.9355 " fill="none" id="addEventView-to-fileController" style="stroke:#181818;stroke-width:1.0;"/><polygon fill="#181818" points="264.78,184.4,257.0286,178.3242,259.9312,183.1796,255.0759,186.0822,264.78,184.4" style="stroke:#181818;stroke-width:1.0;"/></g><!--link editEventView to editEventController--><g id="link_editEventView_editEventController"><path d="M170.11,273 C193.74,273 219.42,273 244.96,273 " fill="none" id="editEventView-to-editEventController" style="stroke:#181818;stroke-width:1.0;"/><polygon fill="#181818" points="250.96,273,241.96,269,245.96,273,241.96,277,250.96,273" style="stroke:#181818;stroke-width:1.0;"/></g><!--link editEventView to eventDetailsController--><g id="link_editEventView_eventDetailsController"><path d="M170.11,290.38 C193.38,302.23 219.1034,315.3371 244.4334,328.2371 " fill="none" id="editEventView-to-eventDetailsController" style="stroke:#181818;stroke-width:1.0;"/><polygon fill="#181818" points="249.78,330.96,243.5754,323.3113,245.3245,328.6909,239.9449,330.44,249.78,330.96" style="stroke:#181818;stroke-width:1.0;"/></g><!--link editEventView to fileController--><g id="link_editEventView_fileController"><path d="M170.11,255.62 C198.31,241.26 232.6138,223.7836 259.6238,210.0236 " fill="none" id="editEventView-to-fileController" style="stroke:#181818;stroke-width:1.0;"/><polygon fill="#181818" points="264.97,207.3,255.1349,207.8212,260.5148,209.5697,258.7664,214.9495,264.97,207.3" style="stroke:#181818;stroke-width:1.0;"/></g><!--link editEventView to locationController--><g id="link_editEventView_locationController"><path d="M148.09,249.66 C156.42,233.5 167.72,211.49 177.5,192 C204.61,138 198.11,115.82 237.5,70 C242.81,63.82 244.4921,61.7561 251.1521,56.7261 " fill="none" id="editEventView-to-locationController" style="stroke:#181818;stroke-width:1.0;"/><polygon fill="#181818" points="255.94,53.11,246.3474,55.3422,251.9501,56.1234,251.1689,61.7261,255.94,53.11" style="stroke:#181818;stroke-width:1.0;"/></g><!--link eventDetailsView to eventDetailsController--><g id="link_eventDetailsView_eventDetailsController"><path d="M143.31,573.82 C156.84,533.68 188.9,450.17 237.5,394 C242.83,387.84 244.5186,385.7715 251.1786,380.7515 " fill="none" id="eventDetailsView-to-eventDetailsController" style="stroke:#181818;stroke-width:1.0;"/><polygon fill="#181818" points="255.97,377.14,246.3753,379.363,251.9772,380.1496,251.1906,385.7515,255.97,377.14" style="stroke:#181818;stroke-width:1.0;"/></g><!--link eventDetailsView to commentEventController--><g id="link_eventDetailsView_commentEventController"><path d="M177.78,618.28 C199.86,629.53 221.6535,640.637 244.2535,652.147 " fill="none" id="eventDetailsView-to-commentEventController" style="stroke:#181818;stroke-width:1.0;"/><polygon fill="#181818" points="249.6,654.87,243.3955,647.2212,245.1445,652.6009,239.7649,654.3499,249.6,654.87" style="stroke:#181818;stroke-width:1.0;"/></g><!--link eventDetailsView to likeEventController--><g id="link_eventDetailsView_likeEventController"><path d="M163.82,620.38 C168.83,625.49 173.67,631.14 177.5,637 C219.53,701.25 190.85,738.02 237.5,799 C242.57,805.62 244.2711,807.9271 250.9811,813.1671 " fill="none" id="eventDetailsView-to-likeEventController" style="stroke:#181818;stroke-width:1.0;"/><polygon fill="#181818" points="255.71,816.86,251.0786,808.168,251.7693,813.7826,246.1547,814.4732,255.71,816.86" style="stroke:#181818;stroke-width:1.0;"/></g><!--link eventDetailsView to profileController--><g id="link_eventDetailsView_profileController"><path d="M161.26,620.04 C166.79,625.44 172.48,631.29 177.5,637 C207.06,670.66 205.54,686.61 237.5,718 C243.97,724.36 246.679,726.9017 254.119,732.3817 " fill="none" id="eventDetailsView-to-profileController" style="stroke:#181818;stroke-width:1.0;"/><polygon fill="#181818" points="258.95,735.94,254.0757,727.3819,254.9242,732.9747,249.3313,733.8232,258.95,735.94" style="stroke:#181818;stroke-width:1.0;"/></g><!--link eventDetailsView to shareEventController--><g id="link_eventDetailsView_shareEventController"><path d="M177.78,597 C198.29,597 217.18,597 238.73,597 " fill="none" id="eventDetailsView-to-shareEventController" style="stroke:#181818;stroke-width:1.0;"/><polygon fill="#181818" points="244.73,597,235.73,593,239.73,597,235.73,601,244.73,597" style="stroke:#181818;stroke-width:1.0;"/></g><!--link eventDetailsView to notificationController--><g id="link_eventDetailsView_notificationController"><path d="M177.78,575.72 C199.86,564.47 221.6535,553.363 244.2535,541.853 " fill="none" id="eventDetailsView-to-notificationController" style="stroke:#181818;stroke-width:1.0;"/><polygon fill="#181818" points="249.6,539.13,239.7649,539.6501,245.1445,541.3991,243.3955,546.7788,249.6,539.13" style="stroke:#181818;stroke-width:1.0;"/></g><!--link searchView to searchEventController--><g id="link_searchView_searchEventController"><path d="M152.76,782.36 C171.72,807.9 204.28,849.29 237.5,880 C244.25,886.24 247.1312,888.816 254.6912,894.326 " fill="none" id="searchView-to-searchEventController" style="stroke:#181818;stroke-width:1.0;"/><polygon fill="#181818" points="259.54,897.86,254.6228,889.3265,255.4993,894.915,249.9108,895.7916,259.54,897.86" style="stroke:#181818;stroke-width:1.0;"/></g><!--link searchView to categoriesController--><g id="link_searchView_categoriesController"><path d="M143.41,782.01 C157.08,821.85 189.36,904.82 237.5,961 C243.08,967.52 245.1314,969.9116 252.1114,975.2116 " fill="none" id="searchView-to-categoriesController" style="stroke:#181818;stroke-width:1.0;"/><polygon fill="#181818" points="256.89,978.84,252.1411,970.2117,252.9079,975.8163,247.3032,976.5831,256.89,978.84" style="stroke:#181818;stroke-width:1.0;"/></g><!--link searchView to likeEventController--><g id="link_searchView_likeEventController"><path d="M165.53,774.05 C189.24,786.12 217.5737,800.5565 244.6437,814.3465 " fill="none" id="searchView-to-likeEventController" style="stroke:#181818;stroke-width:1.0;"/><polygon fill="#181818" points="249.99,817.07,243.7863,809.4206,245.5348,814.8004,240.1549,816.5489,249.99,817.07" style="stroke:#181818;stroke-width:1.0;"/></g><!--link searchView to notificationController--><g id="link_searchView_notificationController"><path d="M162.94,735.85 C168.25,730.38 173.44,724.3 177.5,718 C219.13,653.49 190.49,616.71 237.5,556 C242.34,549.75 243.6903,547.779 250.0803,542.819 " fill="none" id="searchView-to-notificationController" style="stroke:#181818;stroke-width:1.0;"/><polygon fill="#181818" points="254.82,539.14,245.2578,541.4987,250.8702,542.2059,250.1631,547.8183,254.82,539.14" style="stroke:#181818;stroke-width:1.0;"/></g><!--link searchView to shareEventController--><g id="link_searchView_shareEventController"><path d="M160.78,735.75 C166.45,730.11 172.32,723.97 177.5,718 C206.86,684.16 205.35,668.2 237.5,637 C243.7,630.99 246.0235,628.7534 253.1635,623.5734 " fill="none" id="searchView-to-shareEventController" style="stroke:#181818;stroke-width:1.0;"/><polygon fill="#181818" points="258.02,620.05,248.3863,622.0974,253.9729,622.9861,253.0841,628.5727,258.02,620.05" style="stroke:#181818;stroke-width:1.0;"/></g><!--link searchView to profileController--><g id="link_searchView_profileController"><path d="M165.53,759 C191.58,759 223.65,759 251.78,759 " fill="none" id="searchView-to-profileController" style="stroke:#181818;stroke-width:1.0;"/><polygon fill="#181818" points="257.78,759,248.78,755,252.78,759,248.78,763,257.78,759" style="stroke:#181818;stroke-width:1.0;"/></g><!--link searchView to commentEventController--><g id="link_searchView_commentEventController"><path d="M165.53,743.95 C189.15,731.92 217.3238,717.5736 244.3338,703.8136 " fill="none" id="searchView-to-commentEventController" style="stroke:#181818;stroke-width:1.0;"/><polygon fill="#181818" points="249.68,701.09,239.8449,701.6112,245.2248,703.3597,243.4764,708.7395,249.68,701.09" style="stroke:#181818;stroke-width:1.0;"/></g><!--link homeView to listEventsController--><g id="link_homeView_listEventsController"><path d="M161.65,656.16 C167.41,650.36 173.11,643.81 177.5,637 C219.13,572.49 190.49,535.71 237.5,475 C242.34,468.75 243.6903,466.779 250.0803,461.819 " fill="none" id="homeView-to-listEventsController" style="stroke:#181818;stroke-width:1.0;"/><polygon fill="#181818" points="254.82,458.14,245.2578,460.4987,250.8702,461.2059,250.1631,466.8183,254.82,458.14" style="stroke:#181818;stroke-width:1.0;"/></g><!--link homeView to profileController--><g id="link_homeView_profileController"><path d="M161.55,691.01 C187.62,704.3 223.0034,722.3271 252.6134,737.4071 " fill="none" id="homeView-to-profileController" style="stroke:#181818;stroke-width:1.0;"/><polygon fill="#181818" points="257.96,740.13,251.7555,732.4812,253.5045,737.8609,248.1249,739.61,257.96,740.13" style="stroke:#181818;stroke-width:1.0;"/></g><!--link homeView to commentEventController--><g id="link_homeView_commentEventController"><path d="M161.55,678 C181.91,678 205.22,678 231.19,678 " fill="none" id="homeView-to-commentEventController" style="stroke:#181818;stroke-width:1.0;"/><polygon fill="#181818" points="237.19,678,228.19,674,232.19,678,228.19,682,237.19,678" style="stroke:#181818;stroke-width:1.0;"/></g><!--link homeView to likeEventController--><g id="link_homeView_likeEventController"><path d="M161.26,701.04 C166.79,706.44 172.48,712.29 177.5,718 C207.06,751.66 205.54,767.61 237.5,799 C243.97,805.36 246.679,807.9017 254.119,813.3817 " fill="none" id="homeView-to-likeEventController" style="stroke:#181818;stroke-width:1.0;"/><polygon fill="#181818" points="258.95,816.94,254.0757,808.3819,254.9242,813.9747,249.3313,814.8232,258.95,816.94" style="stroke:#181818;stroke-width:1.0;"/></g><!--link homeView to notificationController--><g id="link_homeView_notificationController"><path d="M160.78,654.75 C166.45,649.11 172.32,642.97 177.5,637 C206.86,603.16 205.35,587.2 237.5,556 C243.7,549.99 246.0235,547.7534 253.1635,542.5734 " fill="none" id="homeView-to-notificationController" style="stroke:#181818;stroke-width:1.0;"/><polygon fill="#181818" points="258.02,539.05,248.3863,541.0974,253.9729,541.9861,253.0841,547.5727,258.02,539.05" style="stroke:#181818;stroke-width:1.0;"/></g><!--link homeView to shareEventController--><g id="link_homeView_shareEventController"><path d="M161.55,664.99 C185.25,652.91 215.7142,637.3944 244.2842,622.8344 " fill="none" id="homeView-to-shareEventController" style="stroke:#181818;stroke-width:1.0;"/><polygon fill="#181818" points="249.63,620.11,239.795,620.6327,245.1751,622.3803,243.4275,627.7604,249.63,620.11" style="stroke:#181818;stroke-width:1.0;"/></g><!--link addEventController to eventModel--><g id="link_addEventController_eventModel"><path d="M334.43,134.13 C341.46,139.26 348.48,144.98 354.5,151 C397.94,194.48 432.8259,251.402 451.5559,284.662 " fill="none" id="addEventController-to-eventModel" style="stroke:#181818;stroke-width:1.0;"/><polygon fill="#181818" points="454.5,289.89,453.5692,280.0852,452.0466,285.5333,446.5985,284.0107,454.5,289.89" style="stroke:#181818;stroke-width:1.0;"/></g><!--link fileController to eventModel--><g id="link_fileController_eventModel"><path d="M327.2,212.88 C336.02,219.01 345.67,225.75 354.5,232 C383.97,252.86 412.6727,273.5577 435.4127,290.0477 " fill="none" id="fileController-to-eventModel" style="stroke:#181818;stroke-width:1.0;"/><polygon fill="#181818" points="440.27,293.57,435.3322,285.0484,436.2222,290.6348,430.6358,291.5248,440.27,293.57" style="stroke:#181818;stroke-width:1.0;"/></g><!--link locationController to locationModel--><g id="link_locationController_locationModel"><path d="M339.9,30 C368.91,30 400.69,30 427.5,30 " fill="none" id="locationController-to-locationModel" style="stroke:#181818;stroke-width:1.0;"/><polygon fill="#181818" points="433.5,30,424.5,26,428.5,30,424.5,34,433.5,30" style="stroke:#181818;stroke-width:1.0;"/></g><!--link editEventController to eventModel--><g id="link_editEventController_eventModel"><path d="M341.22,283.41 C372.7,290.81 408.1195,299.1458 434.6395,305.3858 " fill="none" id="editEventController-to-eventModel" style="stroke:#181818;stroke-width:1.0;"/><polygon fill="#181818" points="440.48,306.76,432.6354,300.805,435.6129,305.6148,430.8031,308.5923,440.48,306.76" style="stroke:#181818;stroke-width:1.0;"/></g><!--link eventDetailsController to eventModel--><g id="link_eventDetailsController_eventModel"><path d="M348.93,341.48 C379,334.22 409.7868,326.7951 434.1968,320.9151 " fill="none" id="eventDetailsController-to-eventModel" style="stroke:#181818;stroke-width:1.0;"/><polygon fill="#181818" points="440.03,319.51,430.3435,317.7289,435.169,320.6809,432.217,325.5064,440.03,319.51" style="stroke:#181818;stroke-width:1.0;"/></g><!--link searchEventController to eventModel--><g id="link_searchEventController_eventModel"><path d="M338.31,897.94 C344.59,892.79 350.34,886.8 354.5,880 C449.49,724.8 372.97,652.16 414.5,475 C426.31,424.63 444.4183,373.0436 456.0083,341.8836 " fill="none" id="searchEventController-to-eventModel" style="stroke:#181818;stroke-width:1.0;"/><polygon fill="#181818" points="458.1,336.26,451.2134,343.3009,456.3569,340.9463,458.7115,346.0899,458.1,336.26" style="stroke:#181818;stroke-width:1.0;"/></g><!--link listEventsController to eventModel--><g id="link_listEventsController_eventModel"><path d="M329.56,411.83 C337.71,406.01 346.43,399.78 354.5,394 C383.85,372.97 412.5644,352.2908 435.3344,335.8608 " fill="none" id="listEventsController-to-eventModel" style="stroke:#181818;stroke-width:1.0;"/><polygon fill="#181818" points="440.2,332.35,430.561,334.3725,436.1453,335.2757,435.2422,340.86,440.2,332.35" style="stroke:#181818;stroke-width:1.0;"/></g><!--link commentEventController to commentModel--><g id="link_commentEventController_commentModel"><path d="M354.55,678 C380.18,678 403.53,678 425.81,678 " fill="none" id="commentEventController-to-commentModel" style="stroke:#181818;stroke-width:1.0;"/><polygon fill="#181818" points="431.81,678,422.81,674,426.81,678,422.81,682,431.81,678" style="stroke:#181818;stroke-width:1.0;"/></g><!--link profileController to userModel--><g id="link_profileController_userModel"><path d="M334.31,759 C367.15,759 408.03,759 436.38,759 " fill="none" id="profileController-to-userModel" style="stroke:#181818;stroke-width:1.0;"/><polygon fill="#181818" points="442.38,759,433.38,755,437.38,759,433.38,763,442.38,759" style="stroke:#181818;stroke-width:1.0;"/></g><!--link categoriesController to categoriesModel--><g id="link_categoriesController_categoriesModel"><path d="M345.26,1002 C371.37,1002 397.21,1002 421.78,1002 " fill="none" id="categoriesController-to-categoriesModel" style="stroke:#181818;stroke-width:1.0;"/><polygon fill="#181818" points="427.78,1002,418.78,998,422.78,1002,418.78,1006,427.78,1002" style="stroke:#181818;stroke-width:1.0;"/></g><!--link likeEventController to socialInteractionModel--><g id="link_likeEventController_socialInteractionModel"><path d="M342.11,840 C364.34,840 385.28,840 408.44,840 " fill="none" id="likeEventController-to-socialInteractionModel" style="stroke:#181818;stroke-width:1.0;"/><polygon fill="#181818" points="414.44,840,405.44,836,409.44,840,405.44,844,414.44,840" style="stroke:#181818;stroke-width:1.0;"/></g><!--link notificationController to notificationModel--><g id="link_notificationController_notificationModel"><path d="M348.93,516 C374.12,516 397.91,516 421.26,516 " fill="none" id="notificationController-to-notificationModel" style="stroke:#181818;stroke-width:1.0;"/><polygon fill="#181818" points="427.26,516,418.26,512,422.26,516,418.26,520,427.26,516" style="stroke:#181818;stroke-width:1.0;"/></g><!--SRC=[nPRBJYin38RtUOg8FGjU00bnqJaI8AG2-v1nsuZC12Kfvy3JCvrf4yTskQpOL1txyzYnVqUJdjtmOgBfTSfl7iRVw6pUz5vvM6QTWuvkjSwwSn5iTc5GgKHqi3GRd-_XVpxpRZNqC6Hjnn-8dBeAGrwuTz0d9qePcqFKHmy9uf4sIM_6FqgDaIw_pUQRq84llkcf-2zVntyLWF9OYFFGzmrZaQ5Gjo6xfRDcUwoA3jHQtseoh49qaD2BMrjX5y4wu_zkUs5ico29hX9v7MX57bkKUWgReJDnHC-wRkh5euD_4scG0N6NdSij2DY2oQtj0h9nFbMO616_01Fjkf2fF2BcJ-YX4ElTWrBAZeg8mUE-diyclvE55HmrxDezmrGlYVBSNeFmp6awF7afTh4sKSoO10SwtgmzAT2AhXfw5yFIUI1HBzHQ0wuuVGZTYuVWXfbHnmDjJgDFAQH8ZyG0jwCW93WQ9xhGZ2O5YaEIF5XDQIueCJbnn-yCz-TjKTlBKnyVdxOtGx6srq0rquKl7hJWnLPN6YTfigAI62EeXp6a8qtPxK4-f-GkSV3BV4BHYdRjqvGIUq0m8YjTSYB8zIHYuXKcaWTkoQeC91JwGWA9zpjXf8CIv9iLIISa36yMhLWUqNu5TXKB5qP3y3ID-tj9U5iQu41J6aPiYU9BMvKyVuAqnLClturcPNPVEtnXwNlarQ6KA3HMaZ0IoiXTnmEPEJQy2QbVgPAeYThtHR4HpbEHlm_bWR9Pp_07]--></g></svg>