<?xml version="1.0" encoding="us-ascii" standalone="no"?><svg xmlns="http://www.w3.org/2000/svg" xmlns:xlink="http://www.w3.org/1999/xlink" contentStyleType="text/css" height="463px" preserveAspectRatio="none" style="width:496px;height:463px;background:#FFFFFF;" version="1.1" viewBox="0 0 496 463" width="496px" zoomAndPan="magnify"><defs/><g><!--entity user--><g id="elem_user"><ellipse cx="19" cy="204.5" fill="#F1F1F1" rx="8" ry="8" style="stroke:#181818;stroke-width:0.5;"/><path d="M19,212.5 L19,239.5 M6,220.5 L32,220.5 M19,239.5 L6,254.5 M19,239.5 L32,254.5 " fill="none" style="stroke:#181818;stroke-width:0.5;"/><text fill="#000000" font-family="sans-serif" font-size="11" lengthAdjust="spacing" textLength="23" x="7.5" y="267.4189">User</text></g><!--entity userModel--><g id="elem_userModel"><ellipse cx="436" cy="104" fill="#F1F1F1" rx="12" ry="12" style="stroke:#181818;stroke-width:0.5;"/><line style="stroke:#181818;stroke-width:0.5;" x1="424" x2="448" y1="118" y2="118"/><text fill="#000000" font-family="sans-serif" font-size="11" lengthAdjust="spacing" textLength="51" x="410.5" y="131.4189">UserModel</text></g><!--entity eventModel--><g id="elem_eventModel"><ellipse cx="436" cy="23" fill="#F1F1F1" rx="12" ry="12" style="stroke:#181818;stroke-width:0.5;"/><line style="stroke:#181818;stroke-width:0.5;" x1="424" x2="448" y1="37" y2="37"/><text fill="#000000" font-family="sans-serif" font-size="11" lengthAdjust="spacing" textLength="55" x="408.5" y="50.4189">EventModel</text></g><!--entity commentModel--><g id="elem_commentModel"><ellipse cx="436" cy="185" fill="#F1F1F1" rx="12" ry="12" style="stroke:#181818;stroke-width:0.5;"/><line style="stroke:#181818;stroke-width:0.5;" x1="424" x2="448" y1="199" y2="199"/><text fill="#000000" font-family="sans-serif" font-size="11" lengthAdjust="spacing" textLength="72" x="400" y="212.4189">CommentModel</text></g><!--entity notificationModel--><g id="elem_notificationModel"><ellipse cx="436" cy="347" fill="#F1F1F1" rx="12" ry="12" style="stroke:#181818;stroke-width:0.5;"/><line style="stroke:#181818;stroke-width:0.5;" x1="424" x2="448" y1="361" y2="361"/><text fill="#000000" font-family="sans-serif" font-size="11" lengthAdjust="spacing" textLength="81" x="395.5" y="374.4189">NotificationModel</text></g><!--entity socialInteractionModel--><g id="elem_socialInteractionModel"><ellipse cx="436" cy="266" fill="#F1F1F1" rx="12" ry="12" style="stroke:#181818;stroke-width:0.5;"/><line style="stroke:#181818;stroke-width:0.5;" x1="424" x2="448" y1="280" y2="280"/><text fill="#000000" font-family="sans-serif" font-size="11" lengthAdjust="spacing" textLength="107" x="382.5" y="293.4189">SocialInteractionModel</text></g><!--entity homeView--><g id="elem_homeView"><path d="M98.5,214 L98.5,238 M98.5,226 L115.5,226 " fill="none" style="stroke:#181818;stroke-width:0.5;"/><ellipse cx="127.5" cy="226" fill="#F1F1F1" rx="12" ry="12" style="stroke:#181818;stroke-width:0.5;"/><text fill="#000000" font-family="sans-serif" font-size="11" lengthAdjust="spacing" textLength="53" x="92.5" y="253.4189">HomeView</text></g><!--entity listEventsController--><g id="elem_listEventsController"><ellipse cx="264" cy="23" fill="#F1F1F1" rx="12" ry="12" style="stroke:#181818;stroke-width:0.5;"/><polygon fill="#181818" points="260,11,266,6,264,11,266,16,260,11" style="stroke:#181818;stroke-width:1.0;"/><text fill="#000000" font-family="sans-serif" font-size="11" lengthAdjust="spacing" textLength="96" x="216" y="50.4189">ListEventsController</text></g><!--entity profileController--><g id="elem_profileController"><ellipse cx="264" cy="104" fill="#F1F1F1" rx="12" ry="12" style="stroke:#181818;stroke-width:0.5;"/><polygon fill="#181818" points="260,92,266,87,264,92,266,97,260,92" style="stroke:#181818;stroke-width:1.0;"/><text fill="#000000" font-family="sans-serif" font-size="11" lengthAdjust="spacing" textLength="76" x="226" y="131.4189">ProfileController</text></g><!--entity commentEventController--><g id="elem_commentEventController"><ellipse cx="264" cy="185" fill="#F1F1F1" rx="12" ry="12" style="stroke:#181818;stroke-width:0.5;"/><polygon fill="#181818" points="260,173,266,168,264,173,266,178,260,173" style="stroke:#181818;stroke-width:1.0;"/><text fill="#000000" font-family="sans-serif" font-size="11" lengthAdjust="spacing" textLength="117" x="205.5" y="212.4189">CommentEventController</text></g><!--entity likeEventController--><g id="elem_likeEventController"><ellipse cx="264" cy="266" fill="#F1F1F1" rx="12" ry="12" style="stroke:#181818;stroke-width:0.5;"/><polygon fill="#181818" points="260,254,266,249,264,254,266,259,260,254" style="stroke:#181818;stroke-width:1.0;"/><text fill="#000000" font-family="sans-serif" font-size="11" lengthAdjust="spacing" textLength="92" x="218" y="293.4189">LikeEventController</text></g><!--entity notificationController--><g id="elem_notificationController"><ellipse cx="264" cy="347" fill="#F1F1F1" rx="12" ry="12" style="stroke:#181818;stroke-width:0.5;"/><polygon fill="#181818" points="260,335,266,330,264,335,266,340,260,335" style="stroke:#181818;stroke-width:1.0;"/><text fill="#000000" font-family="sans-serif" font-size="11" lengthAdjust="spacing" textLength="99" x="214.5" y="374.4189">NotificationController</text></g><!--entity shareEventController--><g id="elem_shareEventController"><ellipse cx="264" cy="428" fill="#F1F1F1" rx="12" ry="12" style="stroke:#181818;stroke-width:0.5;"/><polygon fill="#181818" points="260,416,266,411,264,416,266,421,260,416" style="stroke:#181818;stroke-width:1.0;"/><text fill="#000000" font-family="sans-serif" font-size="11" lengthAdjust="spacing" textLength="102" x="213" y="455.4189">ShareEventController</text></g><!--link user to homeView--><g id="link_user_homeView"><path d="M32.81,233 C47.86,233 73.19,233 92.33,233 " fill="none" id="user-homeView" style="stroke:#181818;stroke-width:1.0;"/></g><!--link homeView to listEventsController--><g id="link_homeView_listEventsController"><path d="M128.07,209.84 C140.63,176.19 167.44,113.13 205.5,70 C210.97,63.8 217.59,58.07 224.37,53 " fill="none" id="homeView-listEventsController" style="stroke:#181818;stroke-width:1.0;"/></g><!--link homeView to profileController--><g id="link_homeView_profileController"><path d="M142.32,209.71 C159.07,192.71 182.9,169.5 205.5,151 C212.56,145.22 220.41,139.4 228,134.05 " fill="none" id="homeView-profileController" style="stroke:#181818;stroke-width:1.0;"/></g><!--link homeView to commentEventController--><g id="link_homeView_commentEventController"><path d="M145.57,225.67 C162.2,220.9 184.57,214.49 205.33,208.53 " fill="none" id="homeView-commentEventController" style="stroke:#181818;stroke-width:1.0;"/></g><!--link homeView to likeEventController--><g id="link_homeView_likeEventController"><path d="M145.57,240.15 C165.65,245.77 194.12,253.73 218,260.41 " fill="none" id="homeView-likeEventController" style="stroke:#181818;stroke-width:1.0;"/></g><!--link homeView to notificationController--><g id="link_homeView_notificationController"><path d="M143.19,256.29 C159.97,272.74 183.47,294.98 205.5,313 C212.9,319.06 221.13,325.23 229,330.88 " fill="none" id="homeView-notificationController" style="stroke:#181818;stroke-width:1.0;"/></g><!--link homeView to shareEventController--><g id="link_homeView_shareEventController"><path d="M128.31,256.09 C141.08,289.32 168.05,351.28 205.5,394 C211.24,400.55 218.22,406.61 225.31,411.97 " fill="none" id="homeView-shareEventController" style="stroke:#181818;stroke-width:1.0;"/></g><!--link listEventsController to eventModel--><g id="link_listEventsController_eventModel"><path d="M312.35,30 C343.4,30 382.84,30 408.49,30 " fill="none" id="listEventsController-eventModel" style="stroke:#181818;stroke-width:1.0;"/></g><!--link profileController to userModel--><g id="link_profileController_userModel"><path d="M302.31,111 C335.15,111 382.03,111 410.38,111 " fill="none" id="profileController-userModel" style="stroke:#181818;stroke-width:1.0;"/></g><!--link commentEventController to commentModel--><g id="link_commentEventController_commentModel"><path d="M322.55,192 C348.18,192 377.53,192 399.81,192 " fill="none" id="commentEventController-commentModel" style="stroke:#181818;stroke-width:1.0;"/></g><!--link likeEventController to socialInteractionModel--><g id="link_likeEventController_socialInteractionModel"><path d="M310.11,273 C332.34,273 359.28,273 382.44,273 " fill="none" id="likeEventController-socialInteractionModel" style="stroke:#181818;stroke-width:1.0;"/></g><!--link notificationController to notificationModel--><g id="link_notificationController_notificationModel"><path d="M313.72,354 C339.62,354 371.05,354 395.43,354 " fill="none" id="notificationController-notificationModel" style="stroke:#181818;stroke-width:1.0;"/></g><!--SRC=[TLJ1Zjem5Bo_htZY10TMGDcgogbT5hfTGOKsmDquZs2jOoFReQLVNoTXan2yKXJPRsRiDoFRzbse4pCiG-ikalpV2ExoJ8AaWqEdqOZqw30HXhWJMe6j5GaTM2xTXlww7rAaAYFbaFiVcNlMGYiNYt-4up40uquRx6qjcHuoYxaV07YbS9UglD89oHehPpK-F_jHGw1wMZDcEijkEBnLg5c_jHC7mLbXgw6gRhNcnveB9dyL_XY_5TaW1B3NkKgOyU8NdT5Eq9-IVhnE0BYFnMY9lQMmhZHcPrL9NhEH0Q2HhOq-24aTpQbRRGJNQCeLEoeUXDejlbD89-_hZQWTSaUdWb0ZZO_C13Uq0G2WE2Wu73RXVWoAOZ35Dk4-iZRwIJItEzodqCO_STkcX7s5MY_OhND_rto1DnSdt7tBLqKBE2Yx2f_ji9-kq-izWE-a4e2rPCfjLqiyax4UnV73P3IPFdpfRuuvBcYFuqV_HTDHD7h4tNo31Jo0_i_ryZpndUI6at-BYbTgdnVh3-2LdHc-vVwEPXHXCUjlLWECvnz5dAkpCBfydk1rjwf8-A9TVDAk97-T3f-4mvYCRmntAtYk7YqlvJeHAermkraCly6IgJHdgT-8BCpyvNRc4lb6_mC0]--></g></svg>