<?xml version="1.0" encoding="us-ascii" standalone="no"?><svg xmlns="http://www.w3.org/2000/svg" xmlns:xlink="http://www.w3.org/1999/xlink" contentStyleType="text/css" height="301px" preserveAspectRatio="none" style="width:504px;height:301px;background:#FFFFFF;" version="1.1" viewBox="0 0 504 301" width="504px" zoomAndPan="magnify"><defs/><g><!--entity user--><g id="elem_user"><ellipse cx="19" cy="123.5" fill="#F1F1F1" rx="8" ry="8" style="stroke:#181818;stroke-width:0.5;"/><path d="M19,131.5 L19,158.5 M6,139.5 L32,139.5 M19,158.5 L6,173.5 M19,158.5 L32,173.5 " fill="none" style="stroke:#181818;stroke-width:0.5;"/><text fill="#000000" font-family="sans-serif" font-size="11" lengthAdjust="spacing" textLength="23" x="7.5" y="186.4189">User</text></g><!--entity userModel--><g id="elem_userModel"><ellipse cx="472" cy="145" fill="#F1F1F1" rx="12" ry="12" style="stroke:#181818;stroke-width:0.5;"/><line style="stroke:#181818;stroke-width:0.5;" x1="460" x2="484" y1="159" y2="159"/><text fill="#000000" font-family="sans-serif" font-size="11" lengthAdjust="spacing" textLength="51" x="446.5" y="172.4189">UserModel</text></g><!--entity signUpView--><g id="elem_signUpView"><path d="M125.5,11 L125.5,35 M125.5,23 L142.5,23 " fill="none" style="stroke:#181818;stroke-width:0.5;"/><ellipse cx="154.5" cy="23" fill="#F1F1F1" rx="12" ry="12" style="stroke:#181818;stroke-width:0.5;"/><text fill="#000000" font-family="sans-serif" font-size="11" lengthAdjust="spacing" textLength="60" x="116" y="50.4189">SignUpView</text></g><!--entity loginView--><g id="elem_loginView"><path d="M125.5,92 L125.5,116 M125.5,104 L142.5,104 " fill="none" style="stroke:#181818;stroke-width:0.5;"/><ellipse cx="154.5" cy="104" fill="#F1F1F1" rx="12" ry="12" style="stroke:#181818;stroke-width:0.5;"/><text fill="#000000" font-family="sans-serif" font-size="11" lengthAdjust="spacing" textLength="52" x="120" y="131.4189">LoginView</text></g><!--entity forgotPasswordView--><g id="elem_forgotPasswordView"><path d="M125.5,173 L125.5,197 M125.5,185 L142.5,185 " fill="none" style="stroke:#181818;stroke-width:0.5;"/><ellipse cx="154.5" cy="185" fill="#F1F1F1" rx="12" ry="12" style="stroke:#181818;stroke-width:0.5;"/><text fill="#000000" font-family="sans-serif" font-size="11" lengthAdjust="spacing" textLength="107" x="92.5" y="212.4189">ForgotPasswordView</text></g><!--entity logoutView--><g id="elem_logoutView"><path d="M125.5,254 L125.5,278 M125.5,266 L142.5,266 " fill="none" style="stroke:#181818;stroke-width:0.5;"/><ellipse cx="154.5" cy="266" fill="#F1F1F1" rx="12" ry="12" style="stroke:#181818;stroke-width:0.5;"/><text fill="#000000" font-family="sans-serif" font-size="11" lengthAdjust="spacing" textLength="59" x="116.5" y="293.4189">LogoutView</text></g><!--entity signUpController--><g id="elem_signUpController"><ellipse cx="323" cy="23" fill="#F1F1F1" rx="12" ry="12" style="stroke:#181818;stroke-width:0.5;"/><polygon fill="#181818" points="319,11,325,6,323,11,325,16,319,11" style="stroke:#181818;stroke-width:1.0;"/><text fill="#000000" font-family="sans-serif" font-size="11" lengthAdjust="spacing" textLength="80" x="283" y="50.4189">SignUpController</text></g><!--entity loginController--><g id="elem_loginController"><ellipse cx="323" cy="104" fill="#F1F1F1" rx="12" ry="12" style="stroke:#181818;stroke-width:0.5;"/><polygon fill="#181818" points="319,92,325,87,323,92,325,97,319,92" style="stroke:#181818;stroke-width:1.0;"/><text fill="#000000" font-family="sans-serif" font-size="11" lengthAdjust="spacing" textLength="72" x="287" y="131.4189">LoginController</text></g><!--entity forgotPasswordController--><g id="elem_forgotPasswordController"><ellipse cx="323" cy="185" fill="#F1F1F1" rx="12" ry="12" style="stroke:#181818;stroke-width:0.5;"/><polygon fill="#181818" points="319,173,325,168,323,173,325,178,319,173" style="stroke:#181818;stroke-width:1.0;"/><text fill="#000000" font-family="sans-serif" font-size="11" lengthAdjust="spacing" textLength="127" x="259.5" y="212.4189">ForgotPasswordController</text></g><!--entity logoutController--><g id="elem_logoutController"><ellipse cx="323" cy="266" fill="#F1F1F1" rx="12" ry="12" style="stroke:#181818;stroke-width:0.5;"/><polygon fill="#181818" points="319,254,325,249,323,254,325,259,319,254" style="stroke:#181818;stroke-width:1.0;"/><text fill="#000000" font-family="sans-serif" font-size="11" lengthAdjust="spacing" textLength="79" x="283.5" y="293.4189">LogoutController</text></g><!--link user to signUpView--><g id="link_user_signUpView"><path d="M32.52,136.06 C46.34,118.9 69.68,91.22 92.5,70 C99.72,63.29 103.2357,60.2041 111.0657,54.2441 " fill="none" id="user-to-signUpView" style="stroke:#181818;stroke-width:1.0;"/><polygon fill="#181818" points="115.84,50.61,106.2559,52.8782,111.8614,53.6384,111.1013,59.2439,115.84,50.61" style="stroke:#181818;stroke-width:1.0;"/></g><!--link user to loginView--><g id="link_user_loginView"><path d="M32.91,147.77 C53.37,141.06 87.9189,129.72 114.1989,121.1 " fill="none" id="user-to-loginView" style="stroke:#181818;stroke-width:1.0;"/><polygon fill="#181818" points="119.9,119.23,110.1016,118.2343,115.149,120.7883,112.595,125.8358,119.9,119.23" style="stroke:#181818;stroke-width:1.0;"/></g><!--link user to forgotPasswordView--><g id="link_user_forgotPasswordView"><path d="M32.91,156.13 C47,160.64 64.7855,166.3311 86.6255,173.3211 " fill="none" id="user-to-forgotPasswordView" style="stroke:#181818;stroke-width:1.0;"/><polygon fill="#181818" points="92.34,175.15,84.9876,168.597,87.578,173.6259,82.549,176.2162,92.34,175.15" style="stroke:#181818;stroke-width:1.0;"/></g><!--link user to logoutView--><g id="link_user_logoutView"><path d="M32.64,167.46 C46.56,184.13 69.98,211.07 92.5,232 C99.95,238.93 103.7526,242.258 111.7426,248.468 " fill="none" id="user-to-logoutView" style="stroke:#181818;stroke-width:1.0;"/><polygon fill="#181818" points="116.48,252.15,111.8286,243.4687,112.5322,249.0817,106.9192,249.7853,116.48,252.15" style="stroke:#181818;stroke-width:1.0;"/></g><!--link signUpView to signUpController--><g id="link_signUpView_signUpController"><path d="M176.29,30 C205.48,30 244.49,30 276.76,30 " fill="none" id="signUpView-to-signUpController" style="stroke:#181818;stroke-width:1.0;"/><polygon fill="#181818" points="282.76,30,273.76,26,277.76,30,273.76,34,282.76,30" style="stroke:#181818;stroke-width:1.0;"/></g><!--link loginView to loginController--><g id="link_loginView_loginController"><path d="M172.07,111 C202.13,111 246.68,111 280.68,111 " fill="none" id="loginView-to-loginController" style="stroke:#181818;stroke-width:1.0;"/><polygon fill="#181818" points="286.68,111,277.68,107,281.68,111,277.68,115,286.68,111" style="stroke:#181818;stroke-width:1.0;"/></g><!--link forgotPasswordView to forgotPasswordController--><g id="link_forgotPasswordView_forgotPasswordController"><path d="M199.51,192 C218.33,192 233.75,192 253.35,192 " fill="none" id="forgotPasswordView-to-forgotPasswordController" style="stroke:#181818;stroke-width:1.0;"/><polygon fill="#181818" points="259.35,192,250.35,188,254.35,192,250.35,196,259.35,192" style="stroke:#181818;stroke-width:1.0;"/></g><!--link logoutView to logoutController--><g id="link_logoutView_logoutController"><path d="M175.51,273 C204.85,273 244.77,273 277.37,273 " fill="none" id="logoutView-to-logoutController" style="stroke:#181818;stroke-width:1.0;"/><polygon fill="#181818" points="283.37,273,274.37,269,278.37,273,274.37,277,283.37,273" style="stroke:#181818;stroke-width:1.0;"/></g><!--link signUpController to userModel--><g id="link_signUpController_userModel"><path d="M362.85,53.15 C370.88,58.4 379.13,64.16 386.5,70 C409.42,88.15 428.9505,107.2762 445.3905,124.4462 " fill="none" id="signUpController-to-userModel" style="stroke:#181818;stroke-width:1.0;"/><polygon fill="#181818" points="449.54,128.78,446.2049,119.513,446.0821,125.1685,440.4266,125.0457,449.54,128.78" style="stroke:#181818;stroke-width:1.0;"/></g><!--link loginController to userModel--><g id="link_loginController_userModel"><path d="M359.21,120.82 C386.05,128.31 416.5603,136.8191 440.4203,143.4691 " fill="none" id="loginController-to-userModel" style="stroke:#181818;stroke-width:1.0;"/><polygon fill="#181818" points="446.2,145.08,438.6043,138.8106,441.3836,143.7376,436.4565,146.5169,446.2,145.08" style="stroke:#181818;stroke-width:1.0;"/></g><!--link forgotPasswordController to userModel--><g id="link_forgotPasswordController_userModel"><path d="M386.77,174.92 C407.84,169.19 424.3206,164.7057 440.6706,160.2557 " fill="none" id="forgotPasswordController-to-userModel" style="stroke:#181818;stroke-width:1.0;"/><polygon fill="#181818" points="446.46,158.68,436.7254,157.184,441.6355,159.9931,438.8264,164.9032,446.46,158.68" style="stroke:#181818;stroke-width:1.0;"/></g><!--link logoutController to userModel--><g id="link_logoutController_userModel"><path d="M361.44,249.99 C369.89,244.38 378.66,238.2 386.5,232 C408.84,214.33 427.974,196.1093 444.464,179.4893 " fill="none" id="logoutController-to-userModel" style="stroke:#181818;stroke-width:1.0;"/><polygon fill="#181818" points="448.69,175.23,439.5116,178.8016,445.1684,178.7794,445.1906,184.4362,448.69,175.23" style="stroke:#181818;stroke-width:1.0;"/></g><!--SRC=[TPBFQiCm3CRlUWhJUmzzWS4OzBJ1e6llNg9aPevLP8MkU_fvQU9_QIyc-lJv-yaY_jkuisOzA2zNY-5aqyWuMB3OYH9IRFelKQrXRCIG0nzljDZfqSe7_iYpDRqRq8bgme6yTkt9oS7yejhj040tGgmsHu-yKTghCNm0XAj6hZVvZLgqiJTL09yqkbPpi1m2xtW-6RnC7X_BpFDAlN7HOfSgS-o9Uv9txVs5k8tMRYMNgJHA7ZkN04ru8vDTfdkvbNP-ew_4P9y6hTosr9AvdBcwrJre5gmmxnfMY03_IrVRxLE-sQYbLKRfpifo-xmY1P3oilYC7BCJAUkkCNVePTg2JfFaxwpvaotzSHM_wZx2haCAQjN-0m00]--></g></svg>