<?xml version="1.0" encoding="us-ascii" standalone="no"?><svg xmlns="http://www.w3.org/2000/svg" xmlns:xlink="http://www.w3.org/1999/xlink" contentStyleType="text/css" height="625px" preserveAspectRatio="none" style="width:528px;height:625px;background:#FFFFFF;" version="1.1" viewBox="0 0 528 625" width="528px" zoomAndPan="magnify"><defs/><g><!--entity user--><g id="elem_user"><ellipse cx="19" cy="447.5" fill="#F1F1F1" rx="8" ry="8" style="stroke:#181818;stroke-width:0.5;"/><path d="M19,455.5 L19,482.5 M6,463.5 L32,463.5 M19,482.5 L6,497.5 M19,482.5 L32,497.5 " fill="none" style="stroke:#181818;stroke-width:0.5;"/><text fill="#000000" font-family="sans-serif" font-size="11" lengthAdjust="spacing" textLength="23" x="7.5" y="510.4189">User</text></g><!--entity userModel--><g id="elem_userModel"><ellipse cx="468" cy="590" fill="#F1F1F1" rx="12" ry="12" style="stroke:#181818;stroke-width:0.5;"/><line style="stroke:#181818;stroke-width:0.5;" x1="456" x2="480" y1="604" y2="604"/><text fill="#000000" font-family="sans-serif" font-size="11" lengthAdjust="spacing" textLength="51" x="442.5" y="617.4189">UserModel</text></g><!--entity eventModel--><g id="elem_eventModel"><ellipse cx="468" cy="266" fill="#F1F1F1" rx="12" ry="12" style="stroke:#181818;stroke-width:0.5;"/><line style="stroke:#181818;stroke-width:0.5;" x1="456" x2="480" y1="280" y2="280"/><text fill="#000000" font-family="sans-serif" font-size="11" lengthAdjust="spacing" textLength="55" x="440.5" y="293.4189">EventModel</text></g><!--entity socialInteractionModel--><g id="elem_socialInteractionModel"><ellipse cx="468" cy="144" fill="#F1F1F1" rx="12" ry="12" style="stroke:#181818;stroke-width:0.5;"/><line style="stroke:#181818;stroke-width:0.5;" x1="456" x2="480" y1="158" y2="158"/><text fill="#000000" font-family="sans-serif" font-size="11" lengthAdjust="spacing" textLength="107" x="414.5" y="171.4189">SocialInteractionModel</text></g><!--entity commentModel--><g id="elem_commentModel"><ellipse cx="468" cy="23" fill="#F1F1F1" rx="12" ry="12" style="stroke:#181818;stroke-width:0.5;"/><line style="stroke:#181818;stroke-width:0.5;" x1="456" x2="480" y1="37" y2="37"/><text fill="#000000" font-family="sans-serif" font-size="11" lengthAdjust="spacing" textLength="72" x="432" y="50.4189">CommentModel</text></g><!--entity followUserModel--><g id="elem_followUserModel"><ellipse cx="468" cy="387" fill="#F1F1F1" rx="12" ry="12" style="stroke:#181818;stroke-width:0.5;"/><line style="stroke:#181818;stroke-width:0.5;" x1="456" x2="480" y1="401" y2="401"/><text fill="#000000" font-family="sans-serif" font-size="11" lengthAdjust="spacing" textLength="83" x="426.5" y="414.4189">FollowUserModel</text></g><!--entity notificationModel--><g id="elem_notificationModel"><ellipse cx="468" cy="509" fill="#F1F1F1" rx="12" ry="12" style="stroke:#181818;stroke-width:0.5;"/><line style="stroke:#181818;stroke-width:0.5;" x1="456" x2="480" y1="523" y2="523"/><text fill="#000000" font-family="sans-serif" font-size="11" lengthAdjust="spacing" textLength="81" x="427.5" y="536.4189">NotificationModel</text></g><!--entity eventDetailsView--><g id="elem_eventDetailsView"><path d="M114.5,173 L114.5,197 M114.5,185 L131.5,185 " fill="none" style="stroke:#181818;stroke-width:0.5;"/><ellipse cx="143.5" cy="185" fill="#F1F1F1" rx="12" ry="12" style="stroke:#181818;stroke-width:0.5;"/><text fill="#000000" font-family="sans-serif" font-size="11" lengthAdjust="spacing" textLength="85" x="92.5" y="212.4189">EventDetailsView</text></g><!--entity profileView--><g id="elem_profileView"><path d="M114.5,416 L114.5,440 M114.5,428 L131.5,428 " fill="none" style="stroke:#181818;stroke-width:0.5;"/><ellipse cx="143.5" cy="428" fill="#F1F1F1" rx="12" ry="12" style="stroke:#181818;stroke-width:0.5;"/><text fill="#000000" font-family="sans-serif" font-size="11" lengthAdjust="spacing" textLength="56" x="107" y="455.4189">ProfileView</text></g><!--entity notificationsView--><g id="elem_notificationsView"><path d="M114.5,497 L114.5,521 M114.5,509 L131.5,509 " fill="none" style="stroke:#181818;stroke-width:0.5;"/><ellipse cx="143.5" cy="509" fill="#F1F1F1" rx="12" ry="12" style="stroke:#181818;stroke-width:0.5;"/><text fill="#000000" font-family="sans-serif" font-size="11" lengthAdjust="spacing" textLength="85" x="92.5" y="536.4189">NotificationsView</text></g><!--entity searchView--><g id="elem_searchView"><path d="M114.5,578 L114.5,602 M114.5,590 L131.5,590 " fill="none" style="stroke:#181818;stroke-width:0.5;"/><ellipse cx="143.5" cy="590" fill="#F1F1F1" rx="12" ry="12" style="stroke:#181818;stroke-width:0.5;"/><text fill="#000000" font-family="sans-serif" font-size="11" lengthAdjust="spacing" textLength="61" x="104.5" y="617.4189">SearchView</text></g><!--entity commentEventController--><g id="elem_commentEventController"><ellipse cx="296" cy="23" fill="#F1F1F1" rx="12" ry="12" style="stroke:#181818;stroke-width:0.5;"/><polygon fill="#181818" points="292,11,298,6,296,11,298,16,292,11" style="stroke:#181818;stroke-width:1.0;"/><text fill="#000000" font-family="sans-serif" font-size="11" lengthAdjust="spacing" textLength="117" x="237.5" y="50.4189">CommentEventController</text></g><!--entity likeEventController--><g id="elem_likeEventController"><ellipse cx="296" cy="104" fill="#F1F1F1" rx="12" ry="12" style="stroke:#181818;stroke-width:0.5;"/><polygon fill="#181818" points="292,92,298,87,296,92,298,97,292,92" style="stroke:#181818;stroke-width:1.0;"/><text fill="#000000" font-family="sans-serif" font-size="11" lengthAdjust="spacing" textLength="92" x="250" y="131.4189">LikeEventController</text></g><!--entity dislikeEventController--><g id="elem_dislikeEventController"><ellipse cx="296" cy="185" fill="#F1F1F1" rx="12" ry="12" style="stroke:#181818;stroke-width:0.5;"/><polygon fill="#181818" points="292,173,298,168,296,173,298,178,292,173" style="stroke:#181818;stroke-width:1.0;"/><text fill="#000000" font-family="sans-serif" font-size="11" lengthAdjust="spacing" textLength="103" x="244.5" y="212.4189">DislikeEventController</text></g><!--entity shareEventController--><g id="elem_shareEventController"><ellipse cx="296" cy="266" fill="#F1F1F1" rx="12" ry="12" style="stroke:#181818;stroke-width:0.5;"/><polygon fill="#181818" points="292,254,298,249,296,254,298,259,292,254" style="stroke:#181818;stroke-width:1.0;"/><text fill="#000000" font-family="sans-serif" font-size="11" lengthAdjust="spacing" textLength="102" x="245" y="293.4189">ShareEventController</text></g><!--entity followUserController--><g id="elem_followUserController"><ellipse cx="296" cy="347" fill="#F1F1F1" rx="12" ry="12" style="stroke:#181818;stroke-width:0.5;"/><polygon fill="#181818" points="292,335,298,330,296,335,298,340,292,335" style="stroke:#181818;stroke-width:1.0;"/><text fill="#000000" font-family="sans-serif" font-size="11" lengthAdjust="spacing" textLength="101" x="245.5" y="374.4189">FollowUserController</text></g><!--entity unfollowUserController--><g id="elem_unfollowUserController"><ellipse cx="296" cy="428" fill="#F1F1F1" rx="12" ry="12" style="stroke:#181818;stroke-width:0.5;"/><polygon fill="#181818" points="292,416,298,411,296,416,298,421,292,416" style="stroke:#181818;stroke-width:1.0;"/><text fill="#000000" font-family="sans-serif" font-size="11" lengthAdjust="spacing" textLength="112" x="240" y="455.4189">UnfollowUserController</text></g><!--entity notificationsController--><g id="elem_notificationsController"><ellipse cx="296" cy="509" fill="#F1F1F1" rx="12" ry="12" style="stroke:#181818;stroke-width:0.5;"/><polygon fill="#181818" points="292,497,298,492,296,497,298,502,292,497" style="stroke:#181818;stroke-width:1.0;"/><text fill="#000000" font-family="sans-serif" font-size="11" lengthAdjust="spacing" textLength="105" x="243.5" y="536.4189">NotificationsController</text></g><!--entity searchProfileController--><g id="elem_searchProfileController"><ellipse cx="296" cy="590" fill="#F1F1F1" rx="12" ry="12" style="stroke:#181818;stroke-width:0.5;"/><polygon fill="#181818" points="292,578,298,573,296,578,298,583,292,578" style="stroke:#181818;stroke-width:1.0;"/><text fill="#000000" font-family="sans-serif" font-size="11" lengthAdjust="spacing" textLength="111" x="240.5" y="617.4189">SearchProfileController</text></g><!--link user to eventDetailsView--><g id="link_user_eventDetailsView"><path d="M32.53,444.79 C55.6,387.3 102.1047,271.4581 122.4947,220.6681 " fill="none" id="user-to-eventDetailsView" style="stroke:#181818;stroke-width:1.0;"/><polygon fill="#181818" points="124.73,215.1,117.665,221.9619,122.8672,219.74,125.089,224.9423,124.73,215.1" style="stroke:#181818;stroke-width:1.0;"/></g><!--link user to profileView--><g id="link_user_profileView"><path d="M32.64,471.46 C50.37,465.08 77.474,455.3304 100.944,446.8904 " fill="none" id="user-to-profileView" style="stroke:#181818;stroke-width:1.0;"/><polygon fill="#181818" points="106.59,444.86,96.7674,444.1415,101.885,446.552,99.4745,451.6696,106.59,444.86" style="stroke:#181818;stroke-width:1.0;"/></g><!--link user to notificationsView--><g id="link_user_notificationsView"><path d="M32.64,480.43 C47.01,485.48 65.5786,491.993 86.7486,499.423 " fill="none" id="user-to-notificationsView" style="stroke:#181818;stroke-width:1.0;"/><polygon fill="#181818" points="92.41,501.41,85.2425,494.6552,87.6921,499.7542,82.5932,502.2038,92.41,501.41" style="stroke:#181818;stroke-width:1.0;"/></g><!--link user to searchView--><g id="link_user_searchView"><path d="M32.6,490.38 C46.88,506.56 70.98,533.53 92.5,556 C98.1,561.85 99.9991,563.8257 105.8091,569.5857 " fill="none" id="user-to-searchView" style="stroke:#181818;stroke-width:1.0;"/><polygon fill="#181818" points="110.07,573.81,106.4948,564.633,106.5192,570.2898,100.8624,570.3142,110.07,573.81" style="stroke:#181818;stroke-width:1.0;"/></g><!--link eventDetailsView to commentEventController--><g id="link_eventDetailsView_commentEventController"><path d="M152.32,168.83 C171.12,143.04 203.8,100.92 237.5,70 C243.95,64.08 246.4462,61.8295 253.7162,56.6095 " fill="none" id="eventDetailsView-to-commentEventController" style="stroke:#181818;stroke-width:1.0;"/><polygon fill="#181818" points="258.59,53.11,248.9464,55.11,254.5285,56.0262,253.6123,61.6084,258.59,53.11" style="stroke:#181818;stroke-width:1.0;"/></g><!--link eventDetailsView to likeEventController--><g id="link_eventDetailsView_likeEventController"><path d="M177.78,170.72 C199.95,159.42 221.8734,148.2528 244.5334,136.7128 " fill="none" id="eventDetailsView-to-likeEventController" style="stroke:#181818;stroke-width:1.0;"/><polygon fill="#181818" points="249.88,133.99,240.0449,134.5099,245.4245,136.259,243.6753,141.6387,249.88,133.99" style="stroke:#181818;stroke-width:1.0;"/></g><!--link eventDetailsView to dislikeEventController--><g id="link_eventDetailsView_dislikeEventController"><path d="M177.78,192 C198.2,192 216.95,192 238.44,192 " fill="none" id="eventDetailsView-to-dislikeEventController" style="stroke:#181818;stroke-width:1.0;"/><polygon fill="#181818" points="244.44,192,235.44,188,239.44,192,235.44,196,244.44,192" style="stroke:#181818;stroke-width:1.0;"/></g><!--link eventDetailsView to shareEventController--><g id="link_eventDetailsView_shareEventController"><path d="M177.78,213.28 C199.86,224.53 221.6535,235.637 244.2535,247.147 " fill="none" id="eventDetailsView-to-shareEventController" style="stroke:#181818;stroke-width:1.0;"/><polygon fill="#181818" points="249.6,249.87,243.3955,242.2212,245.1445,247.6009,239.7649,249.3499,249.6,249.87" style="stroke:#181818;stroke-width:1.0;"/></g><!--link profileView to followUserController--><g id="link_profileView_followUserController"><path d="M163.33,421.08 C187.04,409 216.4843,394.0046 244.3443,379.8046 " fill="none" id="profileView-to-followUserController" style="stroke:#181818;stroke-width:1.0;"/><polygon fill="#181818" points="249.69,377.08,239.855,377.6032,245.2353,379.3505,243.4879,384.7308,249.69,377.08" style="stroke:#181818;stroke-width:1.0;"/></g><!--link profileView to unfollowUserController--><g id="link_profileView_unfollowUserController"><path d="M163.33,435 C184.29,435 207.9,435 233.73,435 " fill="none" id="profileView-to-unfollowUserController" style="stroke:#181818;stroke-width:1.0;"/><polygon fill="#181818" points="239.73,435,230.73,431,234.73,435,230.73,439,239.73,435" style="stroke:#181818;stroke-width:1.0;"/></g><!--link notificationsView to notificationsController--><g id="link_notificationsView_notificationsController"><path d="M177.78,516 C197.83,516 216.06,516 237.27,516 " fill="none" id="notificationsView-to-notificationsController" style="stroke:#181818;stroke-width:1.0;"/><polygon fill="#181818" points="243.27,516,234.27,512,238.27,516,234.27,520,243.27,516" style="stroke:#181818;stroke-width:1.0;"/></g><!--link searchView to searchProfileController--><g id="link_searchView_searchProfileController"><path d="M165.53,597 C186.46,597 209.15,597 234.21,597 " fill="none" id="searchView-to-searchProfileController" style="stroke:#181818;stroke-width:1.0;"/><polygon fill="#181818" points="240.21,597,231.21,593,235.21,597,231.21,601,240.21,597" style="stroke:#181818;stroke-width:1.0;"/></g><!--link commentEventController to commentModel--><g id="link_commentEventController_commentModel"><path d="M354.55,30 C380.18,30 403.53,30 425.81,30 " fill="none" id="commentEventController-to-commentModel" style="stroke:#181818;stroke-width:1.0;"/><polygon fill="#181818" points="431.81,30,422.81,26,426.81,30,422.81,34,431.81,30" style="stroke:#181818;stroke-width:1.0;"/></g><!--link likeEventController to socialInteractionModel--><g id="link_likeEventController_socialInteractionModel"><path d="M342.11,121.61 C364.34,126.85 385.4395,131.8056 408.5995,137.2556 " fill="none" id="likeEventController-to-socialInteractionModel" style="stroke:#181818;stroke-width:1.0;"/><polygon fill="#181818" points="414.44,138.63,406.5955,132.6748,409.5729,137.4847,404.763,140.4621,414.44,138.63" style="stroke:#181818;stroke-width:1.0;"/></g><!--link dislikeEventController to socialInteractionModel--><g id="link_dislikeEventController_socialInteractionModel"><path d="M347.55,179.81 C368.59,174.73 387.1872,170.2468 408.4572,165.1168 " fill="none" id="dislikeEventController-to-socialInteractionModel" style="stroke:#181818;stroke-width:1.0;"/><polygon fill="#181818" points="414.29,163.71,404.603,161.9317,409.4294,164.8823,406.4787,169.7087,414.29,163.71" style="stroke:#181818;stroke-width:1.0;"/></g><!--link shareEventController to eventModel--><g id="link_shareEventController_eventModel"><path d="M347.09,273 C377.64,273 409.49,273 434.39,273 " fill="none" id="shareEventController-to-eventModel" style="stroke:#181818;stroke-width:1.0;"/><polygon fill="#181818" points="440.39,273,431.39,269,435.39,273,431.39,277,440.39,273" style="stroke:#181818;stroke-width:1.0;"/></g><!--link followUserController to followUserModel--><g id="link_followUserController_followUserModel"><path d="M346.63,365.68 C372.01,371.65 396.6792,377.457 420.6292,383.087 " fill="none" id="followUserController-to-followUserModel" style="stroke:#181818;stroke-width:1.0;"/><polygon fill="#181818" points="426.47,384.46,418.6242,378.5066,421.6027,383.3158,416.7935,386.2943,426.47,384.46" style="stroke:#181818;stroke-width:1.0;"/></g><!--link unfollowUserController to followUserModel--><g id="link_unfollowUserController_followUserModel"><path d="M352.19,421.69 C376.33,415.87 398.3176,410.5682 420.5176,405.2082 " fill="none" id="unfollowUserController-to-followUserModel" style="stroke:#181818;stroke-width:1.0;"/><polygon fill="#181818" points="426.35,403.8,416.6626,402.024,421.4897,404.9735,418.5402,409.8006,426.35,403.8" style="stroke:#181818;stroke-width:1.0;"/></g><!--link notificationsController to notificationModel--><g id="link_notificationsController_notificationModel"><path d="M348.93,516 C374.12,516 397.91,516 421.26,516 " fill="none" id="notificationsController-to-notificationModel" style="stroke:#181818;stroke-width:1.0;"/><polygon fill="#181818" points="427.26,516,418.26,512,422.26,516,418.26,520,427.26,516" style="stroke:#181818;stroke-width:1.0;"/></g><!--link searchProfileController to userModel--><g id="link_searchProfileController_userModel"><path d="M351.72,597 C382.2,597 412.65,597 436.29,597 " fill="none" id="searchProfileController-to-userModel" style="stroke:#181818;stroke-width:1.0;"/><polygon fill="#181818" points="442.29,597,433.29,593,437.29,597,433.29,601,442.29,597" style="stroke:#181818;stroke-width:1.0;"/></g><!--SRC=[VLH1JiCm4Bpx5LRlFVG3IAYb4X8Wf53knjcqgpfsPJkKydhIfAoTPDDB5E_ChDOpcuGZsfFogfOXNWoqJuywDhKH1geeevCUzuSeI_IW8peh0YbAg5HZuWVyn4U3Urk3ZLAt3_1JrjRPME0loDLA2AMZytAn2-0NKWNPj2z2j4gCbxxywaemX7Kdmf- -sxT403eIet0QbNc-JgAwgHCxi10frwwk1zrrLY3MrXdZpiCvgs6Dk6ykOeLQ3SUmuweGNwwnfVB_5zn0L6Z29y8vNJChPlntxoeqGDHJEcUiV93KrewhcQ80vVM1g86EGkWsJkyC6TQDlEwBvfQgPg4aVS4ZS3ephIVH1eEPqPKibAJ5GNbM61WWoLBO8rd504csizMSiB7tfOEaHbhBOzajkvHkAp6-A8y9SVt8v7BvCDqoGlAbek9qUmZAjsNSjIFCh0VBvN9bYJCxm7BPsBDhTYGsgJ5f9j29ErFFCdOoBFEFoOhtBRUq_w4mFlID-JyWxzmz1UTVMgAUm_aoyhKdyXQor1a39-RUfkHzx7EZddy0]--></g></svg>