<?xml version="1.0" encoding="us-ascii" standalone="no"?><svg xmlns="http://www.w3.org/2000/svg" xmlns:xlink="http://www.w3.org/1999/xlink" contentStyleType="text/css" height="706px" preserveAspectRatio="none" style="width:548px;height:706px;background:#FFFFFF;" version="1.1" viewBox="0 0 548 706" width="548px" zoomAndPan="magnify"><defs/><g><!--entity user--><g id="elem_user"><ellipse cx="19" cy="285.5" fill="#F1F1F1" rx="8" ry="8" style="stroke:#181818;stroke-width:0.5;"/><path d="M19,293.5 L19,320.5 M6,301.5 L32,301.5 M19,320.5 L6,335.5 M19,320.5 L32,335.5 " fill="none" style="stroke:#181818;stroke-width:0.5;"/><text fill="#000000" font-family="sans-serif" font-size="11" lengthAdjust="spacing" textLength="23" x="7.5" y="348.4189">User</text></g><!--entity userModel--><g id="elem_userModel"><ellipse cx="500" cy="266" fill="#F1F1F1" rx="12" ry="12" style="stroke:#181818;stroke-width:0.5;"/><line style="stroke:#181818;stroke-width:0.5;" x1="488" x2="512" y1="280" y2="280"/><text fill="#000000" font-family="sans-serif" font-size="11" lengthAdjust="spacing" textLength="51" x="474.5" y="293.4189">UserModel</text></g><!--entity followUserModel--><g id="elem_followUserModel"><ellipse cx="500" cy="590" fill="#F1F1F1" rx="12" ry="12" style="stroke:#181818;stroke-width:0.5;"/><line style="stroke:#181818;stroke-width:0.5;" x1="488" x2="512" y1="604" y2="604"/><text fill="#000000" font-family="sans-serif" font-size="11" lengthAdjust="spacing" textLength="83" x="458.5" y="617.4189">FollowUserModel</text></g><!--entity notificationModel--><g id="elem_notificationModel"><ellipse cx="500" cy="671" fill="#F1F1F1" rx="12" ry="12" style="stroke:#181818;stroke-width:0.5;"/><line style="stroke:#181818;stroke-width:0.5;" x1="488" x2="512" y1="685" y2="685"/><text fill="#000000" font-family="sans-serif" font-size="11" lengthAdjust="spacing" textLength="81" x="459.5" y="698.4189">NotificationModel</text></g><!--entity profileView--><g id="elem_profileView"><path d="M128.5,133 L128.5,157 M128.5,145 L145.5,145 " fill="none" style="stroke:#181818;stroke-width:0.5;"/><ellipse cx="157.5" cy="145" fill="#F1F1F1" rx="12" ry="12" style="stroke:#181818;stroke-width:0.5;"/><text fill="#000000" font-family="sans-serif" font-size="11" lengthAdjust="spacing" textLength="56" x="121" y="172.4189">ProfileView</text></g><!--entity editProfileView--><g id="elem_editProfileView"><path d="M128.5,254 L128.5,278 M128.5,266 L145.5,266 " fill="none" style="stroke:#181818;stroke-width:0.5;"/><ellipse cx="157.5" cy="266" fill="#F1F1F1" rx="12" ry="12" style="stroke:#181818;stroke-width:0.5;"/><text fill="#000000" font-family="sans-serif" font-size="11" lengthAdjust="spacing" textLength="73" x="112.5" y="293.4189">EditProfileView</text></g><!--entity configurationView--><g id="elem_configurationView"><path d="M128.5,335 L128.5,359 M128.5,347 L145.5,347 " fill="none" style="stroke:#181818;stroke-width:0.5;"/><ellipse cx="157.5" cy="347" fill="#F1F1F1" rx="12" ry="12" style="stroke:#181818;stroke-width:0.5;"/><text fill="#000000" font-family="sans-serif" font-size="11" lengthAdjust="spacing" textLength="90" x="104" y="374.4189">ConfigurationView</text></g><!--entity changePasswordView--><g id="elem_changePasswordView"><path d="M128.5,32 L128.5,56 M128.5,44 L145.5,44 " fill="none" style="stroke:#181818;stroke-width:0.5;"/><ellipse cx="157.5" cy="44" fill="#F1F1F1" rx="12" ry="12" style="stroke:#181818;stroke-width:0.5;"/><text fill="#000000" font-family="sans-serif" font-size="11" lengthAdjust="spacing" textLength="113" x="92.5" y="71.4189">ChangePasswordView</text></g><!--entity followersView--><g id="elem_followersView"><path d="M128.5,578 L128.5,602 M128.5,590 L145.5,590 " fill="none" style="stroke:#181818;stroke-width:0.5;"/><ellipse cx="157.5" cy="590" fill="#F1F1F1" rx="12" ry="12" style="stroke:#181818;stroke-width:0.5;"/><text fill="#000000" font-family="sans-serif" font-size="11" lengthAdjust="spacing" textLength="74" x="112" y="617.4189">FollowersView</text></g><!--entity followedView--><g id="elem_followedView"><path d="M128.5,497 L128.5,521 M128.5,509 L145.5,509 " fill="none" style="stroke:#181818;stroke-width:0.5;"/><ellipse cx="157.5" cy="509" fill="#F1F1F1" rx="12" ry="12" style="stroke:#181818;stroke-width:0.5;"/><text fill="#000000" font-family="sans-serif" font-size="11" lengthAdjust="spacing" textLength="70" x="114" y="536.4189">FollowedView</text></g><!--entity profileController--><g id="elem_profileController"><ellipse cx="332" cy="104" fill="#F1F1F1" rx="12" ry="12" style="stroke:#181818;stroke-width:0.5;"/><polygon fill="#181818" points="328,92,334,87,332,92,334,97,328,92" style="stroke:#181818;stroke-width:1.0;"/><text fill="#000000" font-family="sans-serif" font-size="11" lengthAdjust="spacing" textLength="76" x="294" y="131.4189">ProfileController</text></g><!--entity editProfileController--><g id="elem_editProfileController"><ellipse cx="332" cy="185" fill="#F1F1F1" rx="12" ry="12" style="stroke:#181818;stroke-width:0.5;"/><polygon fill="#181818" points="328,173,334,168,332,173,334,178,328,173" style="stroke:#181818;stroke-width:1.0;"/><text fill="#000000" font-family="sans-serif" font-size="11" lengthAdjust="spacing" textLength="93" x="285.5" y="212.4189">EditProfileController</text></g><!--entity changeLanguageController--><g id="elem_changeLanguageController"><ellipse cx="332" cy="347" fill="#F1F1F1" rx="12" ry="12" style="stroke:#181818;stroke-width:0.5;"/><polygon fill="#181818" points="328,335,334,330,332,335,334,340,328,335" style="stroke:#181818;stroke-width:1.0;"/><text fill="#000000" font-family="sans-serif" font-size="11" lengthAdjust="spacing" textLength="131" x="266.5" y="374.4189">ChangeLanguageController</text></g><!--entity changePasswordController--><g id="elem_changePasswordController"><ellipse cx="332" cy="23" fill="#F1F1F1" rx="12" ry="12" style="stroke:#181818;stroke-width:0.5;"/><polygon fill="#181818" points="328,11,334,6,332,11,334,16,328,11" style="stroke:#181818;stroke-width:1.0;"/><text fill="#000000" font-family="sans-serif" font-size="11" lengthAdjust="spacing" textLength="133" x="265.5" y="50.4189">ChangePasswordController</text></g><!--entity listUsersController--><g id="elem_listUsersController"><ellipse cx="332" cy="509" fill="#F1F1F1" rx="12" ry="12" style="stroke:#181818;stroke-width:0.5;"/><polygon fill="#181818" points="328,497,334,492,332,497,334,502,328,497" style="stroke:#181818;stroke-width:1.0;"/><text fill="#000000" font-family="sans-serif" font-size="11" lengthAdjust="spacing" textLength="92" x="286" y="536.4189">ListUsersController</text></g><!--entity logoutController--><g id="elem_logoutController"><ellipse cx="332" cy="428" fill="#F1F1F1" rx="12" ry="12" style="stroke:#181818;stroke-width:0.5;"/><polygon fill="#181818" points="328,416,334,411,332,416,334,421,328,416" style="stroke:#181818;stroke-width:1.0;"/><text fill="#000000" font-family="sans-serif" font-size="11" lengthAdjust="spacing" textLength="79" x="292.5" y="455.4189">LogoutController</text></g><!--entity fileController--><g id="elem_fileController"><ellipse cx="332" cy="266" fill="#F1F1F1" rx="12" ry="12" style="stroke:#181818;stroke-width:0.5;"/><polygon fill="#181818" points="328,254,334,249,332,254,334,259,328,254" style="stroke:#181818;stroke-width:1.0;"/><text fill="#000000" font-family="sans-serif" font-size="11" lengthAdjust="spacing" textLength="62" x="301" y="293.4189">FileController</text></g><!--entity followUserController--><g id="elem_followUserController"><ellipse cx="332" cy="590" fill="#F1F1F1" rx="12" ry="12" style="stroke:#181818;stroke-width:0.5;"/><polygon fill="#181818" points="328,578,334,573,332,578,334,583,328,578" style="stroke:#181818;stroke-width:1.0;"/><text fill="#000000" font-family="sans-serif" font-size="11" lengthAdjust="spacing" textLength="101" x="281.5" y="617.4189">FollowUserController</text></g><!--entity notificationsController--><g id="elem_notificationsController"><ellipse cx="332" cy="671" fill="#F1F1F1" rx="12" ry="12" style="stroke:#181818;stroke-width:0.5;"/><polygon fill="#181818" points="328,659,334,654,332,659,334,664,328,659" style="stroke:#181818;stroke-width:1.0;"/><text fill="#000000" font-family="sans-serif" font-size="11" lengthAdjust="spacing" textLength="105" x="279.5" y="698.4189">NotificationsController</text></g><!--link user to profileView--><g id="link_user_profileView"><path d="M32.51,298.17 C55.22,269.43 99.6009,213.2584 125.9909,179.8484 " fill="none" id="user-to-profileView" style="stroke:#181818;stroke-width:1.0;"/><polygon fill="#181818" points="129.71,175.14,120.9925,179.7232,126.6108,179.0636,127.2703,184.6819,129.71,175.14" style="stroke:#181818;stroke-width:1.0;"/></g><!--link user to editProfileView--><g id="link_user_editProfileView"><path d="M32.74,309.92 C51.14,304.02 80.1459,294.7301 106.6859,286.2301 " fill="none" id="user-to-editProfileView" style="stroke:#181818;stroke-width:1.0;"/><polygon fill="#181818" points="112.4,284.4,102.6088,283.3357,107.6383,285.9251,105.0489,290.9545,112.4,284.4" style="stroke:#181818;stroke-width:1.0;"/></g><!--link user to configurationView--><g id="link_user_configurationView"><path d="M32.74,317.98 C49.25,323.14 73.1431,330.6105 98.2331,338.4505 " fill="none" id="user-to-configurationView" style="stroke:#181818;stroke-width:1.0;"/><polygon fill="#181818" points="103.96,340.24,96.5626,333.7378,99.1876,338.7487,94.1766,341.3737,103.96,340.24" style="stroke:#181818;stroke-width:1.0;"/></g><!--link user to changePasswordView--><g id="link_user_changePasswordView"><path d="M28.45,276.83 C39.13,234.55 60.11,164.45 92.5,111 C100.59,97.65 107.7437,88.9589 118.1037,78.5189 " fill="none" id="user-to-changePasswordView" style="stroke:#181818;stroke-width:1.0;"/><polygon fill="#181818" points="122.33,74.26,113.1513,77.8309,118.8081,77.8091,118.8298,83.4659,122.33,74.26" style="stroke:#181818;stroke-width:1.0;"/></g><!--link user to followersView--><g id="link_user_followersView"><path d="M23.75,351.2 C30.38,401.64 47.98,492.68 92.5,556 C97.67,563.35 99.8421,566.2159 107.0221,571.8259 " fill="none" id="user-to-followersView" style="stroke:#181818;stroke-width:1.0;"/><polygon fill="#181818" points="111.75,575.52,107.1208,566.8269,107.81,572.4416,102.1953,573.1308,111.75,575.52" style="stroke:#181818;stroke-width:1.0;"/></g><!--link user to followedView--><g id="link_user_followedView"><path d="M32.51,333.74 C56.28,371.26 104.6886,447.6518 130.0786,487.7218 " fill="none" id="user-to-followedView" style="stroke:#181818;stroke-width:1.0;"/><polygon fill="#181818" points="133.29,492.79,131.8517,483.0467,130.6138,488.5665,125.0941,487.3286,133.29,492.79" style="stroke:#181818;stroke-width:1.0;"/></g><!--link profileView to profileController--><g id="link_profileView_profileController"><path d="M177.1,145.86 C208.16,138.83 253.4081,128.5748 288.1281,120.7148 " fill="none" id="profileView-to-profileController" style="stroke:#181818;stroke-width:1.0;"/><polygon fill="#181818" points="293.98,119.39,284.3189,117.4759,289.1034,120.494,286.0853,125.2784,293.98,119.39" style="stroke:#181818;stroke-width:1.0;"/></g><!--link editProfileView to editProfileController--><g id="link_editProfileView_editProfileController"><path d="M185.76,257 C214.3,244.23 248.9934,228.7008 279.8534,214.8908 " fill="none" id="editProfileView-to-editProfileController" style="stroke:#181818;stroke-width:1.0;"/><polygon fill="#181818" points="285.33,212.44,275.4812,212.4651,280.7661,214.4823,278.7489,219.7673,285.33,212.44" style="stroke:#181818;stroke-width:1.0;"/></g><!--link editProfileView to fileController--><g id="link_editProfileView_fileController"><path d="M185.76,273 C219.35,273 263.04,273 294.72,273 " fill="none" id="editProfileView-to-fileController" style="stroke:#181818;stroke-width:1.0;"/><polygon fill="#181818" points="300.72,273,291.72,269,295.72,273,291.72,277,300.72,273" style="stroke:#181818;stroke-width:1.0;"/></g><!--link configurationView to changeLanguageController--><g id="link_configurationView_changeLanguageController"><path d="M194.28,354 C215.94,354 236.44,354 260.31,354 " fill="none" id="configurationView-to-changeLanguageController" style="stroke:#181818;stroke-width:1.0;"/><polygon fill="#181818" points="266.31,354,257.31,350,261.31,354,257.31,358,266.31,354" style="stroke:#181818;stroke-width:1.0;"/></g><!--link configurationView to logoutController--><g id="link_configurationView_logoutController"><path d="M194.28,373.81 C224.31,387.26 258.1634,402.3992 286.9234,415.2692 " fill="none" id="configurationView-to-logoutController" style="stroke:#181818;stroke-width:1.0;"/><polygon fill="#181818" points="292.4,417.72,285.8189,410.3927,287.8361,415.6777,282.5512,417.6949,292.4,417.72" style="stroke:#181818;stroke-width:1.0;"/></g><!--link changePasswordView to changePasswordController--><g id="link_changePasswordView_changePasswordController"><path d="M205.78,44.53 C224.58,42.35 239.7799,40.5808 259.2799,38.3208 " fill="none" id="changePasswordView-to-changePasswordController" style="stroke:#181818;stroke-width:1.0;"/><polygon fill="#181818" points="265.24,37.63,255.8393,34.6927,260.2732,38.2056,256.7604,42.6395,265.24,37.63" style="stroke:#181818;stroke-width:1.0;"/></g><!--link followersView to listUsersController--><g id="link_followersView_listUsersController"><path d="M186.19,580.8 C214.87,567.97 249.6238,552.4217 280.4038,538.6417 " fill="none" id="followersView-to-listUsersController" style="stroke:#181818;stroke-width:1.0;"/><polygon fill="#181818" points="285.88,536.19,276.0312,536.2167,281.3165,538.2331,279.3001,543.5183,285.88,536.19" style="stroke:#181818;stroke-width:1.0;"/></g><!--link followersView to followUserController--><g id="link_followersView_followUserController"><path d="M186.19,597 C213.43,597 245.08,597 275.16,597 " fill="none" id="followersView-to-followUserController" style="stroke:#181818;stroke-width:1.0;"/><polygon fill="#181818" points="281.16,597,272.16,593,276.16,597,272.16,601,281.16,597" style="stroke:#181818;stroke-width:1.0;"/></g><!--link followersView to notificationsController--><g id="link_followersView_notificationsController"><path d="M186.19,613.2 C212.91,625.15 244.1733,639.1494 273.9633,652.4794 " fill="none" id="followersView-to-notificationsController" style="stroke:#181818;stroke-width:1.0;"/><polygon fill="#181818" points="279.44,654.93,272.8587,647.6029,274.8761,652.8878,269.5912,654.9052,279.44,654.93" style="stroke:#181818;stroke-width:1.0;"/></g><!--link followedView to listUsersController--><g id="link_followedView_listUsersController"><path d="M184.04,516 C212.82,516 248.28,516 279.82,516 " fill="none" id="followedView-to-listUsersController" style="stroke:#181818;stroke-width:1.0;"/><polygon fill="#181818" points="285.82,516,276.82,512,280.82,516,276.82,520,285.82,516" style="stroke:#181818;stroke-width:1.0;"/></g><!--link followedView to followUserController--><g id="link_followedView_followUserController"><path d="M184.04,531.24 C211.49,543.52 244.9939,558.5081 275.9039,572.3481 " fill="none" id="followedView-to-followUserController" style="stroke:#181818;stroke-width:1.0;"/><polygon fill="#181818" points="281.38,574.8,274.8004,567.4713,276.8166,572.7567,271.5312,574.7728,281.38,574.8" style="stroke:#181818;stroke-width:1.0;"/></g><!--link profileController to userModel--><g id="link_profileController_userModel"><path d="M370.18,130.76 C379.85,136.67 389.95,143.57 398.5,151 C433.1,181.04 461.8956,218.8902 480.1156,244.9902 " fill="none" id="profileController-to-userModel" style="stroke:#181818;stroke-width:1.0;"/><polygon fill="#181818" points="483.55,249.91,481.6782,240.2406,480.688,245.8102,475.1185,244.8199,483.55,249.91" style="stroke:#181818;stroke-width:1.0;"/></g><!--link editProfileController to userModel--><g id="link_editProfileController_userModel"><path d="M378.8,214.35 C409.7,229.43 443.8875,246.1092 468.9975,258.3592 " fill="none" id="editProfileController-to-userModel" style="stroke:#181818;stroke-width:1.0;"/><polygon fill="#181818" points="474.39,260.99,468.0551,253.4489,469.8962,258.7977,464.5474,260.6389,474.39,260.99" style="stroke:#181818;stroke-width:1.0;"/></g><!--link changeLanguageController to userModel--><g id="link_changeLanguageController_userModel"><path d="M380.57,330.79 C411.23,315.83 444.4283,299.6324 469.0683,287.6024 " fill="none" id="changeLanguageController-to-userModel" style="stroke:#181818;stroke-width:1.0;"/><polygon fill="#181818" points="474.46,284.97,464.6175,285.3241,469.9669,287.1637,468.1274,292.5131,474.46,284.97" style="stroke:#181818;stroke-width:1.0;"/></g><!--link changePasswordController to userModel--><g id="link_changePasswordController_userModel"><path d="M378.55,53.13 C385.77,58.06 392.74,63.71 398.5,70 C448.68,124.83 477.7413,203.6259 490.4613,244.1059 " fill="none" id="changePasswordController-to-userModel" style="stroke:#181818;stroke-width:1.0;"/><polygon fill="#181818" points="492.26,249.83,493.378,240.0448,490.7611,245.06,485.746,242.443,492.26,249.83" style="stroke:#181818;stroke-width:1.0;"/></g><!--link listUsersController to userModel--><g id="link_listUsersController_userModel"><path d="M377.52,492.84 C385.1,487.64 392.46,481.66 398.5,475 C448.1,420.31 477.3191,342.3538 490.2391,302.0338 " fill="none" id="listUsersController-to-userModel" style="stroke:#181818;stroke-width:1.0;"/><polygon fill="#181818" points="492.07,296.32,485.5144,303.6701,490.5442,301.0815,493.1328,306.1113,492.07,296.32" style="stroke:#181818;stroke-width:1.0;"/></g><!--link logoutController to userModel--><g id="link_logoutController_userModel"><path d="M371.51,413.74 C380.76,407.88 390.32,401.15 398.5,394 C432.63,364.16 461.2744,327.0308 479.6444,301.1808 " fill="none" id="logoutController-to-userModel" style="stroke:#181818;stroke-width:1.0;"/><polygon fill="#181818" points="483.12,296.29,474.646,301.3092,480.2237,300.3657,481.1671,305.9433,483.12,296.29" style="stroke:#181818;stroke-width:1.0;"/></g><!--link fileController to userModel--><g id="link_fileController_userModel"><path d="M363.06,273 C394.92,273 438.64,273 468.3,273 " fill="none" id="fileController-to-userModel" style="stroke:#181818;stroke-width:1.0;"/><polygon fill="#181818" points="474.3,273,465.3,269,469.3,273,465.3,277,474.3,273" style="stroke:#181818;stroke-width:1.0;"/></g><!--link followUserController to followUserModel--><g id="link_followUserController_followUserModel"><path d="M382.81,597 C406.97,597 429.62,597 452.43,597 " fill="none" id="followUserController-to-followUserModel" style="stroke:#181818;stroke-width:1.0;"/><polygon fill="#181818" points="458.43,597,449.43,593,453.43,597,449.43,601,458.43,597" style="stroke:#181818;stroke-width:1.0;"/></g><!--link notificationsController to notificationModel--><g id="link_notificationsController_notificationModel"><path d="M384.61,678 C408.69,678 430.91,678 453.29,678 " fill="none" id="notificationsController-to-notificationModel" style="stroke:#181818;stroke-width:1.0;"/><polygon fill="#181818" points="459.29,678,450.29,674,454.29,678,450.29,682,459.29,678" style="stroke:#181818;stroke-width:1.0;"/></g><!--SRC=[bPJFRW8X4CRlF0Nnxi4NQDAOUhADIV_SwJAxaY8Oc8srJzzriS0EhAONuixyFXY-6VHVoXo54mVkyQnXM9rgi3zefg55ZfOxrUsHI-MWGMKDyr4XeHMznZVunaUjEdC0WxmP5d0bjR46NzKFyDMACT6WTNpnxi4jkF2y7tumDYWLdaFusKhGCJT-nVp6QcrFKwgTnYBxOb6rgX6NqXDjQ9InJziRATmWsJdRAWqV2auZV4pV6VKa5L8Ifh6CNblJggvtuucHRsWqL-o5wM0dl3zP9vEa26UQO0mu7_4sZvIaf63OaGs5eRCwUh4Et_hQhYED9a5c2n51BPE4uRxROUb5HxNDJ9BA_tofoijaac-LnylmUABKPJmJsSxsI1KacF1DwScS6V_TEGu_tR-IIBByRT2BctgEiSjpvClbm-HPn21z0J5HZdfAbICTSzFvfU7hj6QLv9LbLPEoQAbtoB9BqwjajwYFQ0KlcrcuK34duoVEX2qhirfIrP4eiRd-vyxVErNUFhHequXcV_Ur1X5cplKgLhf8iCfTA47QHj8tQwsPGDm9u8ptHLy2_Gi0]--></g></svg>