<?xml version="1.0" encoding="us-ascii" standalone="no"?><svg xmlns="http://www.w3.org/2000/svg" xmlns:xlink="http://www.w3.org/1999/xlink" contentStyleType="text/css" height="787px" preserveAspectRatio="none" style="width:479px;height:787px;background:#FFFFFF;" version="1.1" viewBox="0 0 479 787" width="479px" zoomAndPan="magnify"><defs/><g><!--entity user--><g id="elem_user"><ellipse cx="19" cy="568.5" fill="#F1F1F1" rx="8" ry="8" style="stroke:#181818;stroke-width:0.5;"/><path d="M19,576.5 L19,603.5 M6,584.5 L32,584.5 M19,603.5 L6,618.5 M19,603.5 L32,618.5 " fill="none" style="stroke:#181818;stroke-width:0.5;"/><text fill="#000000" font-family="sans-serif" font-size="11" lengthAdjust="spacing" textLength="23" x="7.5" y="631.4189">User</text></g><!--entity eventModel--><g id="elem_eventModel"><ellipse cx="445" cy="388" fill="#F1F1F1" rx="12" ry="12" style="stroke:#181818;stroke-width:0.5;"/><line style="stroke:#181818;stroke-width:0.5;" x1="433" x2="457" y1="402" y2="402"/><text fill="#000000" font-family="sans-serif" font-size="11" lengthAdjust="spacing" textLength="55" x="417.5" y="415.4189">EventModel</text></g><!--entity addEventView--><g id="elem_addEventView"><path d="M114.5,133 L114.5,157 M114.5,145 L131.5,145 " fill="none" style="stroke:#181818;stroke-width:0.5;"/><ellipse cx="143.5" cy="145" fill="#F1F1F1" rx="12" ry="12" style="stroke:#181818;stroke-width:0.5;"/><text fill="#000000" font-family="sans-serif" font-size="11" lengthAdjust="spacing" textLength="73" x="98.5" y="172.4189">AddEventView</text></g><!--entity editEventView--><g id="elem_editEventView"><path d="M114.5,416 L114.5,440 M114.5,428 L131.5,428 " fill="none" style="stroke:#181818;stroke-width:0.5;"/><ellipse cx="143.5" cy="428" fill="#F1F1F1" rx="12" ry="12" style="stroke:#181818;stroke-width:0.5;"/><text fill="#000000" font-family="sans-serif" font-size="11" lengthAdjust="spacing" textLength="70" x="100" y="455.4189">EditEventView</text></g><!--entity eventDetailsView--><g id="elem_eventDetailsView"><path d="M114.5,578 L114.5,602 M114.5,590 L131.5,590 " fill="none" style="stroke:#181818;stroke-width:0.5;"/><ellipse cx="143.5" cy="590" fill="#F1F1F1" rx="12" ry="12" style="stroke:#181818;stroke-width:0.5;"/><text fill="#000000" font-family="sans-serif" font-size="11" lengthAdjust="spacing" textLength="85" x="92.5" y="617.4189">EventDetailsView</text></g><!--entity searchView--><g id="elem_searchView"><path d="M114.5,659 L114.5,683 M114.5,671 L131.5,671 " fill="none" style="stroke:#181818;stroke-width:0.5;"/><ellipse cx="143.5" cy="671" fill="#F1F1F1" rx="12" ry="12" style="stroke:#181818;stroke-width:0.5;"/><text fill="#000000" font-family="sans-serif" font-size="11" lengthAdjust="spacing" textLength="61" x="104.5" y="698.4189">SearchView</text></g><!--entity listEventsView--><g id="elem_listEventsView"><path d="M114.5,740 L114.5,764 M114.5,752 L131.5,752 " fill="none" style="stroke:#181818;stroke-width:0.5;"/><ellipse cx="143.5" cy="752" fill="#F1F1F1" rx="12" ry="12" style="stroke:#181818;stroke-width:0.5;"/><text fill="#000000" font-family="sans-serif" font-size="11" lengthAdjust="spacing" textLength="76" x="97" y="779.4189">ListEventsView</text></g><!--entity addEventController--><g id="elem_addEventController"><ellipse cx="297.5" cy="23" fill="#F1F1F1" rx="12" ry="12" style="stroke:#181818;stroke-width:0.5;"/><polygon fill="#181818" points="293.5,11,299.5,6,297.5,11,299.5,16,293.5,11" style="stroke:#181818;stroke-width:1.0;"/><text fill="#000000" font-family="sans-serif" font-size="11" lengthAdjust="spacing" textLength="93" x="251" y="50.4189">AddEventController</text></g><!--entity uploadFileController--><g id="elem_uploadFileController"><ellipse cx="297.5" cy="104" fill="#F1F1F1" rx="12" ry="12" style="stroke:#181818;stroke-width:0.5;"/><polygon fill="#181818" points="293.5,92,299.5,87,297.5,92,299.5,97,293.5,92" style="stroke:#181818;stroke-width:1.0;"/><text fill="#000000" font-family="sans-serif" font-size="11" lengthAdjust="spacing" textLength="95" x="250" y="131.4189">UploadFileController</text></g><!--entity uploadLocationController--><g id="elem_uploadLocationController"><ellipse cx="297.5" cy="185" fill="#F1F1F1" rx="12" ry="12" style="stroke:#181818;stroke-width:0.5;"/><polygon fill="#181818" points="293.5,173,299.5,168,297.5,173,299.5,178,293.5,173" style="stroke:#181818;stroke-width:1.0;"/><text fill="#000000" font-family="sans-serif" font-size="11" lengthAdjust="spacing" textLength="120" x="237.5" y="212.4189">UploadLocationController</text></g><!--entity editEventController--><g id="elem_editEventController"><ellipse cx="297.5" cy="266" fill="#F1F1F1" rx="12" ry="12" style="stroke:#181818;stroke-width:0.5;"/><polygon fill="#181818" points="293.5,254,299.5,249,297.5,254,299.5,259,293.5,254" style="stroke:#181818;stroke-width:1.0;"/><text fill="#000000" font-family="sans-serif" font-size="11" lengthAdjust="spacing" textLength="90" x="252.5" y="293.4189">EditEventController</text></g><!--entity editImageController--><g id="elem_editImageController"><ellipse cx="297.5" cy="347" fill="#F1F1F1" rx="12" ry="12" style="stroke:#181818;stroke-width:0.5;"/><polygon fill="#181818" points="293.5,335,299.5,330,297.5,335,299.5,340,293.5,335" style="stroke:#181818;stroke-width:1.0;"/><text fill="#000000" font-family="sans-serif" font-size="11" lengthAdjust="spacing" textLength="91" x="252" y="374.4189">EditImageController</text></g><!--entity deleteMusicController--><g id="elem_deleteMusicController"><ellipse cx="297.5" cy="428" fill="#F1F1F1" rx="12" ry="12" style="stroke:#181818;stroke-width:0.5;"/><polygon fill="#181818" points="293.5,416,299.5,411,297.5,416,299.5,421,293.5,416" style="stroke:#181818;stroke-width:1.0;"/><text fill="#000000" font-family="sans-serif" font-size="11" lengthAdjust="spacing" textLength="104" x="245.5" y="455.4189">DeleteMusicController</text></g><!--entity deleteLocationController--><g id="elem_deleteLocationController"><ellipse cx="297.5" cy="509" fill="#F1F1F1" rx="12" ry="12" style="stroke:#181818;stroke-width:0.5;"/><polygon fill="#181818" points="293.5,497,299.5,492,297.5,497,299.5,502,293.5,497" style="stroke:#181818;stroke-width:1.0;"/><text fill="#000000" font-family="sans-serif" font-size="11" lengthAdjust="spacing" textLength="117" x="239" y="536.4189">DeleteLocationController</text></g><!--entity eventDetailsController--><g id="elem_eventDetailsController"><ellipse cx="297.5" cy="590" fill="#F1F1F1" rx="12" ry="12" style="stroke:#181818;stroke-width:0.5;"/><polygon fill="#181818" points="293.5,578,299.5,573,297.5,578,299.5,583,293.5,578" style="stroke:#181818;stroke-width:1.0;"/><text fill="#000000" font-family="sans-serif" font-size="11" lengthAdjust="spacing" textLength="105" x="245" y="617.4189">EventDetailsController</text></g><!--entity searchEventController--><g id="elem_searchEventController"><ellipse cx="297.5" cy="671" fill="#F1F1F1" rx="12" ry="12" style="stroke:#181818;stroke-width:0.5;"/><polygon fill="#181818" points="293.5,659,299.5,654,297.5,659,299.5,664,293.5,659" style="stroke:#181818;stroke-width:1.0;"/><text fill="#000000" font-family="sans-serif" font-size="11" lengthAdjust="spacing" textLength="108" x="243.5" y="698.4189">SearchEventController</text></g><!--entity listEventsController--><g id="elem_listEventsController"><ellipse cx="297.5" cy="752" fill="#F1F1F1" rx="12" ry="12" style="stroke:#181818;stroke-width:0.5;"/><polygon fill="#181818" points="293.5,740,299.5,735,297.5,740,299.5,745,293.5,740" style="stroke:#181818;stroke-width:1.0;"/><text fill="#000000" font-family="sans-serif" font-size="11" lengthAdjust="spacing" textLength="96" x="249.5" y="779.4189">ListEventsController</text></g><!--link user to addEventView--><g id="link_user_addEventView"><path d="M29.52,559.82 C52.32,470.84 108.0208,253.4123 126.5908,180.9323 " fill="none" id="user-to-addEventView" style="stroke:#181818;stroke-width:1.0;"/><polygon fill="#181818" points="128.08,175.12,121.9714,182.8456,126.839,179.9636,129.7211,184.8312,128.08,175.12" style="stroke:#181818;stroke-width:1.0;"/></g><!--link user to editEventView--><g id="link_user_editEventView"><path d="M32.64,579.04 C53.39,549.55 91.2272,495.787 114.1872,463.157 " fill="none" id="user-to-editEventView" style="stroke:#181818;stroke-width:1.0;"/><polygon fill="#181818" points="117.64,458.25,109.1895,463.3086,114.7627,462.3391,115.7322,467.9123,117.64,458.25" style="stroke:#181818;stroke-width:1.0;"/></g><!--link user to eventDetailsView--><g id="link_user_eventDetailsView"><path d="M32.64,597 C47.01,597 65.24,597 86.41,597 " fill="none" id="user-to-eventDetailsView" style="stroke:#181818;stroke-width:1.0;"/><polygon fill="#181818" points="92.41,597,83.41,593,87.41,597,83.41,601,92.41,597" style="stroke:#181818;stroke-width:1.0;"/></g><!--link user to searchView--><g id="link_user_searchView"><path d="M32.64,605.98 C49.8,618.17 76.0985,636.8653 99.3685,653.3953 " fill="none" id="user-to-searchView" style="stroke:#181818;stroke-width:1.0;"/><polygon fill="#181818" points="104.26,656.87,99.2392,648.397,100.1838,653.9744,94.6063,654.9189,104.26,656.87" style="stroke:#181818;stroke-width:1.0;"/></g><!--link user to listEventsView--><g id="link_user_listEventsView"><path d="M32.73,622.28 C46.03,647.62 68.3,687.18 92.5,718 C97.25,724.05 98.6089,725.8759 104.1189,731.4159 " fill="none" id="user-to-listEventsView" style="stroke:#181818;stroke-width:1.0;"/><polygon fill="#181818" points="108.35,735.67,104.8394,726.468,104.8241,732.1249,99.1672,732.1095,108.35,735.67" style="stroke:#181818;stroke-width:1.0;"/></g><!--link addEventView to addEventController--><g id="link_addEventView_addEventController"><path d="M163.51,128.74 C183.65,111.96 211.84,89.02 237.5,70 C245.16,64.33 248.5833,61.831 256.5733,56.381 " fill="none" id="addEventView-to-addEventController" style="stroke:#181818;stroke-width:1.0;"/><polygon fill="#181818" points="261.53,53,251.8409,54.767,257.3994,55.8175,256.3489,61.3759,261.53,53" style="stroke:#181818;stroke-width:1.0;"/></g><!--link addEventView to uploadFileController--><g id="link_addEventView_uploadFileController"><path d="M171.62,142.9 C194.62,137.03 218.9669,130.8059 243.8869,124.4359 " fill="none" id="addEventView-to-uploadFileController" style="stroke:#181818;stroke-width:1.0;"/><polygon fill="#181818" points="249.7,122.95,239.9897,121.3035,244.8558,124.1883,241.971,129.0543,249.7,122.95" style="stroke:#181818;stroke-width:1.0;"/></g><!--link addEventView to uploadLocationController--><g id="link_addEventView_uploadLocationController"><path d="M171.62,160.88 C190.92,165.69 209.4481,170.3091 231.5181,175.8091 " fill="none" id="addEventView-to-uploadLocationController" style="stroke:#181818;stroke-width:1.0;"/><polygon fill="#181818" points="237.34,177.26,229.5743,171.2024,232.4884,176.0509,227.6398,178.965,237.34,177.26" style="stroke:#181818;stroke-width:1.0;"/></g><!--link editEventView to editEventController--><g id="link_editEventView_editEventController"><path d="M152.25,411.76 C170.99,385.89 203.61,343.72 237.5,313 C244.1,307.02 246.7462,304.673 254.1962,299.453 " fill="none" id="editEventView-to-editEventController" style="stroke:#181818;stroke-width:1.0;"/><polygon fill="#181818" points="259.11,296.01,249.4439,297.8986,255.0151,298.8792,254.0346,304.4504,259.11,296.01" style="stroke:#181818;stroke-width:1.0;"/></g><!--link editEventView to editImageController--><g id="link_editEventView_editImageController"><path d="M170.04,417.82 C193.87,405.79 220.593,392.3023 246.483,379.2423 " fill="none" id="editEventView-to-editImageController" style="stroke:#181818;stroke-width:1.0;"/><polygon fill="#181818" points="251.84,376.54,242.0029,377.0221,247.3758,378.7919,245.606,384.1648,251.84,376.54" style="stroke:#181818;stroke-width:1.0;"/></g><!--link editEventView to deleteMusicController--><g id="link_editEventView_deleteMusicController"><path d="M170.04,435 C191.94,435 214.8,435 239.43,435 " fill="none" id="editEventView-to-deleteMusicController" style="stroke:#181818;stroke-width:1.0;"/><polygon fill="#181818" points="245.43,435,236.43,431,240.43,435,236.43,439,245.43,435" style="stroke:#181818;stroke-width:1.0;"/></g><!--link editEventView to deleteLocationController--><g id="link_editEventView_deleteLocationController"><path d="M170.04,452.18 C193.5,464.02 219.6031,477.1975 245.2731,490.1475 " fill="none" id="editEventView-to-deleteLocationController" style="stroke:#181818;stroke-width:1.0;"/><polygon fill="#181818" points="250.63,492.85,244.3962,485.225,246.1659,490.5979,240.793,492.3676,250.63,492.85" style="stroke:#181818;stroke-width:1.0;"/></g><!--link eventDetailsView to eventDetailsController--><g id="link_eventDetailsView_eventDetailsController"><path d="M177.75,597 C198.28,597 217.21,597 238.92,597 " fill="none" id="eventDetailsView-to-eventDetailsController" style="stroke:#181818;stroke-width:1.0;"/><polygon fill="#181818" points="244.92,597,235.92,593,239.92,597,235.92,601,244.92,597" style="stroke:#181818;stroke-width:1.0;"/></g><!--link searchView to searchEventController--><g id="link_searchView_searchEventController"><path d="M165.81,678 C187.57,678 211.65,678 237.46,678 " fill="none" id="searchView-to-searchEventController" style="stroke:#181818;stroke-width:1.0;"/><polygon fill="#181818" points="243.46,678,234.46,674,238.46,678,234.46,682,243.46,678" style="stroke:#181818;stroke-width:1.0;"/></g><!--link listEventsView to listEventsController--><g id="link_listEventsView_listEventsController"><path d="M173.23,759 C195.91,759 219.12,759 243.4,759 " fill="none" id="listEventsView-to-listEventsController" style="stroke:#181818;stroke-width:1.0;"/><polygon fill="#181818" points="249.4,759,240.4,755,244.4,759,240.4,763,249.4,759" style="stroke:#181818;stroke-width:1.0;"/></g><!--link addEventController to eventModel--><g id="link_addEventController_eventModel"><path d="M340.84,53.09 C347.12,57.99 352.99,63.64 357.5,70 C426.3,166.87 440.0757,309.1077 442.9557,365.8277 " fill="none" id="addEventController-to-eventModel" style="stroke:#181818;stroke-width:1.0;"/><polygon fill="#181818" points="443.26,371.82,446.7985,362.6287,443.0064,366.8264,438.8088,363.0344,443.26,371.82" style="stroke:#181818;stroke-width:1.0;"/></g><!--link uploadFileController to eventModel--><g id="link_uploadFileController_eventModel"><path d="M340.11,134.17 C346.55,139.1 352.66,144.73 357.5,151 C411.09,220.35 432.2692,319.6974 439.7692,365.9274 " fill="none" id="uploadFileController-to-eventModel" style="stroke:#181818;stroke-width:1.0;"/><polygon fill="#181818" points="440.73,371.85,443.2371,362.3256,439.9293,366.9145,435.3404,363.6067,440.73,371.85" style="stroke:#181818;stroke-width:1.0;"/></g><!--link uploadLocationController to eventModel--><g id="link_uploadLocationController_eventModel"><path d="M338.44,215.12 C345.28,220.15 351.96,225.83 357.5,232 C396.02,274.92 421.0132,332.4558 433.7232,366.1658 " fill="none" id="uploadLocationController-to-eventModel" style="stroke:#181818;stroke-width:1.0;"/><polygon fill="#181818" points="435.84,371.78,436.4076,361.9475,434.076,367.1015,428.922,364.7699,435.84,371.78" style="stroke:#181818;stroke-width:1.0;"/></g><!--link editImageController to eventModel--><g id="link_editImageController_eventModel"><path d="M343.34,366.64 C367.56,373.46 390.8553,380.0212 411.5253,385.8512 " fill="none" id="editImageController-to-eventModel" style="stroke:#181818;stroke-width:1.0;"/><polygon fill="#181818" points="417.3,387.48,409.7238,381.1871,412.4878,386.1227,407.5521,388.8867,417.3,387.48" style="stroke:#181818;stroke-width:1.0;"/></g><!--link deleteMusicController to eventModel--><g id="link_deleteMusicController_eventModel"><path d="M349.8,420.9 C372.54,414.64 392.5745,409.1399 411.4245,403.9599 " fill="none" id="deleteMusicController-to-eventModel" style="stroke:#181818;stroke-width:1.0;"/><polygon fill="#181818" points="417.21,402.37,407.4718,400.8978,412.3887,403.6949,409.5916,408.6118,417.21,402.37" style="stroke:#181818;stroke-width:1.0;"/></g><!--link deleteLocationController to eventModel--><g id="link_deleteLocationController_eventModel"><path d="M333.41,492.94 C341.48,487.28 349.92,481.09 357.5,475 C379.82,457.06 399.2957,439 416.2657,422.52 " fill="none" id="deleteLocationController-to-eventModel" style="stroke:#181818;stroke-width:1.0;"/><polygon fill="#181818" points="420.57,418.34,411.3268,421.7405,416.9831,421.8234,416.9002,427.4796,420.57,418.34" style="stroke:#181818;stroke-width:1.0;"/></g><!--link editEventController to eventModel--><g id="link_editEventController_eventModel"><path d="M334.74,296.2 C342.42,301.5 350.36,307.26 357.5,313 C380.4,331.41 400.2786,350.3761 417.2086,367.3961 " fill="none" id="editEventController-to-eventModel" style="stroke:#181818;stroke-width:1.0;"/><polygon fill="#181818" points="421.44,371.65,417.9288,362.4483,417.9139,368.1051,412.257,368.0901,421.44,371.65" style="stroke:#181818;stroke-width:1.0;"/></g><!--link eventDetailsController to eventModel--><g id="link_eventDetailsController_eventModel"><path d="M337.48,573.84 C344.64,568.53 351.69,562.52 357.5,556 C395.41,513.49 420.5091,457.0335 433.4291,423.7435 " fill="none" id="eventDetailsController-to-eventModel" style="stroke:#181818;stroke-width:1.0;"/><polygon fill="#181818" points="435.6,418.15,428.6147,425.093,433.7909,422.8113,436.0727,427.9875,435.6,418.15" style="stroke:#181818;stroke-width:1.0;"/></g><!--link searchEventController to eventModel--><g id="link_searchEventController_eventModel"><path d="M339.18,654.81 C345.96,649.61 352.42,643.64 357.5,637 C410.25,568.09 431.7782,470.1158 439.5582,424.1758 " fill="none" id="searchEventController-to-eventModel" style="stroke:#181818;stroke-width:1.0;"/><polygon fill="#181818" points="440.56,418.26,435.1134,426.4658,439.7251,423.1898,443.0011,427.8015,440.56,418.26" style="stroke:#181818;stroke-width:1.0;"/></g><!--link listEventsController to eventModel--><g id="link_listEventsController_eventModel"><path d="M339.94,735.9 C346.55,730.72 352.77,724.74 357.5,718 C425.26,621.58 439.6133,480.9605 442.7933,424.3905 " fill="none" id="listEventsController-to-eventModel" style="stroke:#181818;stroke-width:1.0;"/><polygon fill="#181818" points="443.13,418.4,438.6312,427.1613,442.8494,423.3921,446.6186,427.6103,443.13,418.4" style="stroke:#181818;stroke-width:1.0;"/></g><!--SRC=[ZPHDRi8m48NtFeN5dWKNg8GAI9LWHUdUjGUmwiJ8TjhIqzUGoZ_ZYUWcIjvyB_OyJ-8_T7yHJdJSXwk1U7LQXg4ppC0ny62vqwTpu4exa47RdldaK70KWmcly1sMHf_w3lh0PRo0QwcDxSDU_m1VB1WJCbZ7PmSFRiQ5vqEyOImwTRZosVeptksi0dClGdfaxDqElH8kGakbxjoRXgyx9WgXuDPAXng4KYd9cxQ28BJn6KPYmUz1E7bEf4-F1RFLVbmhlz5K4cCo1kEioHqzZuBvoqOqShOSBiOAjT46a6aW2jYsjLBSJfIqjiLiJv4Y9xHwRNhfn0a84zApQGK60km6hoMoAQg2ZHCTgebYiTdYrF5-oLAsZbD1nUEfIZRcKK4-GnGOktqoV3v_gkS-gVMGPncFSweKuviqFAhbKjNQnSOQXXp52OeuawgHkhM759whbgB7Q8gZjeS2RL8ks1nnaJZkfCuS7KCv06tsUUtnRqabJpDjOvWZuiG8cIKD_M-z1-tHAMEAJ1b3LCAO-GK0]--></g></svg>