<?xml version="1.0" encoding="us-ascii" standalone="no"?><svg xmlns="http://www.w3.org/2000/svg" xmlns:xlink="http://www.w3.org/1999/xlink" contentStyleType="text/css" height="463px" preserveAspectRatio="none" style="width:528px;height:463px;background:#FFFFFF;" version="1.1" viewBox="0 0 528 463" width="528px" zoomAndPan="magnify"><defs/><g><!--entity user--><g id="elem_user"><ellipse cx="19" cy="285.5" fill="#F1F1F1" rx="8" ry="8" style="stroke:#181818;stroke-width:0.5;"/><path d="M19,293.5 L19,320.5 M6,301.5 L32,301.5 M19,320.5 L6,335.5 M19,320.5 L32,335.5 " fill="none" style="stroke:#181818;stroke-width:0.5;"/><text fill="#000000" font-family="sans-serif" font-size="11" lengthAdjust="spacing" textLength="23" x="7.5" y="348.4189">User</text></g><!--entity userModel--><g id="elem_userModel"><ellipse cx="468" cy="428" fill="#F1F1F1" rx="12" ry="12" style="stroke:#181818;stroke-width:0.5;"/><line style="stroke:#181818;stroke-width:0.5;" x1="456" x2="480" y1="442" y2="442"/><text fill="#000000" font-family="sans-serif" font-size="11" lengthAdjust="spacing" textLength="51" x="442.5" y="455.4189">UserModel</text></g><!--entity eventModel--><g id="elem_eventModel"><ellipse cx="468" cy="185" fill="#F1F1F1" rx="12" ry="12" style="stroke:#181818;stroke-width:0.5;"/><line style="stroke:#181818;stroke-width:0.5;" x1="456" x2="480" y1="199" y2="199"/><text fill="#000000" font-family="sans-serif" font-size="11" lengthAdjust="spacing" textLength="55" x="440.5" y="212.4189">EventModel</text></g><!--entity socialInteractionModel--><g id="elem_socialInteractionModel"><ellipse cx="468" cy="104" fill="#F1F1F1" rx="12" ry="12" style="stroke:#181818;stroke-width:0.5;"/><line style="stroke:#181818;stroke-width:0.5;" x1="456" x2="480" y1="118" y2="118"/><text fill="#000000" font-family="sans-serif" font-size="11" lengthAdjust="spacing" textLength="107" x="414.5" y="131.4189">SocialInteractionModel</text></g><!--entity commentModel--><g id="elem_commentModel"><ellipse cx="468" cy="23" fill="#F1F1F1" rx="12" ry="12" style="stroke:#181818;stroke-width:0.5;"/><line style="stroke:#181818;stroke-width:0.5;" x1="456" x2="480" y1="37" y2="37"/><text fill="#000000" font-family="sans-serif" font-size="11" lengthAdjust="spacing" textLength="72" x="432" y="50.4189">CommentModel</text></g><!--entity followUserModel--><g id="elem_followUserModel"><ellipse cx="468" cy="266" fill="#F1F1F1" rx="12" ry="12" style="stroke:#181818;stroke-width:0.5;"/><line style="stroke:#181818;stroke-width:0.5;" x1="456" x2="480" y1="280" y2="280"/><text fill="#000000" font-family="sans-serif" font-size="11" lengthAdjust="spacing" textLength="83" x="426.5" y="293.4189">FollowUserModel</text></g><!--entity notificationModel--><g id="elem_notificationModel"><ellipse cx="468" cy="347" fill="#F1F1F1" rx="12" ry="12" style="stroke:#181818;stroke-width:0.5;"/><line style="stroke:#181818;stroke-width:0.5;" x1="456" x2="480" y1="361" y2="361"/><text fill="#000000" font-family="sans-serif" font-size="11" lengthAdjust="spacing" textLength="81" x="427.5" y="374.4189">NotificationModel</text></g><!--entity eventDetailsView--><g id="elem_eventDetailsView"><path d="M114.5,133 L114.5,157 M114.5,145 L131.5,145 " fill="none" style="stroke:#181818;stroke-width:0.5;"/><ellipse cx="143.5" cy="145" fill="#F1F1F1" rx="12" ry="12" style="stroke:#181818;stroke-width:0.5;"/><text fill="#000000" font-family="sans-serif" font-size="11" lengthAdjust="spacing" textLength="85" x="92.5" y="172.4189">EventDetailsView</text></g><!--entity profileView--><g id="elem_profileView"><path d="M114.5,254 L114.5,278 M114.5,266 L131.5,266 " fill="none" style="stroke:#181818;stroke-width:0.5;"/><ellipse cx="143.5" cy="266" fill="#F1F1F1" rx="12" ry="12" style="stroke:#181818;stroke-width:0.5;"/><text fill="#000000" font-family="sans-serif" font-size="11" lengthAdjust="spacing" textLength="56" x="107" y="293.4189">ProfileView</text></g><!--entity notificationsView--><g id="elem_notificationsView"><path d="M114.5,335 L114.5,359 M114.5,347 L131.5,347 " fill="none" style="stroke:#181818;stroke-width:0.5;"/><ellipse cx="143.5" cy="347" fill="#F1F1F1" rx="12" ry="12" style="stroke:#181818;stroke-width:0.5;"/><text fill="#000000" font-family="sans-serif" font-size="11" lengthAdjust="spacing" textLength="85" x="92.5" y="374.4189">NotificationsView</text></g><!--entity searchView--><g id="elem_searchView"><path d="M114.5,416 L114.5,440 M114.5,428 L131.5,428 " fill="none" style="stroke:#181818;stroke-width:0.5;"/><ellipse cx="143.5" cy="428" fill="#F1F1F1" rx="12" ry="12" style="stroke:#181818;stroke-width:0.5;"/><text fill="#000000" font-family="sans-serif" font-size="11" lengthAdjust="spacing" textLength="61" x="104.5" y="455.4189">SearchView</text></g><!--entity commentEventController--><g id="elem_commentEventController"><ellipse cx="296" cy="23" fill="#F1F1F1" rx="12" ry="12" style="stroke:#181818;stroke-width:0.5;"/><polygon fill="#181818" points="292,11,298,6,296,11,298,16,292,11" style="stroke:#181818;stroke-width:1.0;"/><text fill="#000000" font-family="sans-serif" font-size="11" lengthAdjust="spacing" textLength="117" x="237.5" y="50.4189">CommentEventController</text></g><!--entity likeEventController--><g id="elem_likeEventController"><ellipse cx="296" cy="104" fill="#F1F1F1" rx="12" ry="12" style="stroke:#181818;stroke-width:0.5;"/><polygon fill="#181818" points="292,92,298,87,296,92,298,97,292,92" style="stroke:#181818;stroke-width:1.0;"/><text fill="#000000" font-family="sans-serif" font-size="11" lengthAdjust="spacing" textLength="92" x="250" y="131.4189">LikeEventController</text></g><!--entity shareEventController--><g id="elem_shareEventController"><ellipse cx="296" cy="185" fill="#F1F1F1" rx="12" ry="12" style="stroke:#181818;stroke-width:0.5;"/><polygon fill="#181818" points="292,173,298,168,296,173,298,178,292,173" style="stroke:#181818;stroke-width:1.0;"/><text fill="#000000" font-family="sans-serif" font-size="11" lengthAdjust="spacing" textLength="102" x="245" y="212.4189">ShareEventController</text></g><!--entity followUserController--><g id="elem_followUserController"><ellipse cx="296" cy="266" fill="#F1F1F1" rx="12" ry="12" style="stroke:#181818;stroke-width:0.5;"/><polygon fill="#181818" points="292,254,298,249,296,254,298,259,292,254" style="stroke:#181818;stroke-width:1.0;"/><text fill="#000000" font-family="sans-serif" font-size="11" lengthAdjust="spacing" textLength="101" x="245.5" y="293.4189">FollowUserController</text></g><!--entity notificationsController--><g id="elem_notificationsController"><ellipse cx="296" cy="347" fill="#F1F1F1" rx="12" ry="12" style="stroke:#181818;stroke-width:0.5;"/><polygon fill="#181818" points="292,335,298,330,296,335,298,340,292,335" style="stroke:#181818;stroke-width:1.0;"/><text fill="#000000" font-family="sans-serif" font-size="11" lengthAdjust="spacing" textLength="105" x="243.5" y="374.4189">NotificationsController</text></g><!--entity searchProfileController--><g id="elem_searchProfileController"><ellipse cx="296" cy="428" fill="#F1F1F1" rx="12" ry="12" style="stroke:#181818;stroke-width:0.5;"/><polygon fill="#181818" points="292,416,298,411,296,416,298,421,292,416" style="stroke:#181818;stroke-width:1.0;"/><text fill="#000000" font-family="sans-serif" font-size="11" lengthAdjust="spacing" textLength="111" x="240.5" y="455.4189">SearchProfileController</text></g><!--link user to eventDetailsView--><g id="link_user_eventDetailsView"><path d="M32.64,296.04 C53.39,266.55 91.2272,212.787 114.1872,180.157 " fill="none" id="user-to-eventDetailsView" style="stroke:#181818;stroke-width:1.0;"/><polygon fill="#181818" points="117.64,175.25,109.1895,180.3086,114.7627,179.3391,115.7322,184.9123,117.64,175.25" style="stroke:#181818;stroke-width:1.0;"/></g><!--link user to profileView--><g id="link_user_profileView"><path d="M32.64,309.46 C50.37,303.08 77.474,293.3304 100.944,284.8904 " fill="none" id="user-to-profileView" style="stroke:#181818;stroke-width:1.0;"/><polygon fill="#181818" points="106.59,282.86,96.7674,282.1415,101.885,284.552,99.4745,289.6696,106.59,282.86" style="stroke:#181818;stroke-width:1.0;"/></g><!--link user to notificationsView--><g id="link_user_notificationsView"><path d="M32.64,318.43 C47.01,323.48 65.5786,329.993 86.7486,337.423 " fill="none" id="user-to-notificationsView" style="stroke:#181818;stroke-width:1.0;"/><polygon fill="#181818" points="92.41,339.41,85.2425,332.6552,87.6921,337.7542,82.5932,340.2038,92.41,339.41" style="stroke:#181818;stroke-width:1.0;"/></g><!--link user to searchView--><g id="link_user_searchView"><path d="M32.6,328.38 C46.88,344.56 70.98,371.53 92.5,394 C98.1,399.85 99.9991,401.8257 105.8091,407.5857 " fill="none" id="user-to-searchView" style="stroke:#181818;stroke-width:1.0;"/><polygon fill="#181818" points="110.07,411.81,106.4948,402.633,106.5192,408.2898,100.8624,408.3142,110.07,411.81" style="stroke:#181818;stroke-width:1.0;"/></g><!--link eventDetailsView to commentEventController--><g id="link_eventDetailsView_commentEventController"><path d="M163.58,128.83 C183.75,112.1 211.95,89.17 237.5,70 C244.99,64.38 248.2628,61.9582 256.0428,56.5182 " fill="none" id="eventDetailsView-to-commentEventController" style="stroke:#181818;stroke-width:1.0;"/><polygon fill="#181818" points="260.96,53.08,251.2921,54.9592,256.8624,55.9452,255.8764,61.5155,260.96,53.08" style="stroke:#181818;stroke-width:1.0;"/></g><!--link eventDetailsView to likeEventController--><g id="link_eventDetailsView_likeEventController"><path d="M177.78,141.23 C199.95,135.51 221.4099,129.9774 244.0699,124.1374 " fill="none" id="eventDetailsView-to-likeEventController" style="stroke:#181818;stroke-width:1.0;"/><polygon fill="#181818" points="249.88,122.64,240.1665,121.0127,245.0382,123.8878,242.1631,128.7595,249.88,122.64" style="stroke:#181818;stroke-width:1.0;"/></g><!--link eventDetailsView to shareEventController--><g id="link_eventDetailsView_shareEventController"><path d="M177.78,162.51 C198.29,167.67 217.3612,172.4665 238.9112,177.8865 " fill="none" id="eventDetailsView-to-shareEventController" style="stroke:#181818;stroke-width:1.0;"/><polygon fill="#181818" points="244.73,179.35,236.9775,173.2756,239.881,178.1304,235.0262,181.034,244.73,179.35" style="stroke:#181818;stroke-width:1.0;"/></g><!--link profileView to followUserController--><g id="link_profileView_followUserController"><path d="M163.33,273 C185.8,273 212.21,273 239.25,273 " fill="none" id="profileView-to-followUserController" style="stroke:#181818;stroke-width:1.0;"/><polygon fill="#181818" points="245.25,273,236.25,269,240.25,273,236.25,277,245.25,273" style="stroke:#181818;stroke-width:1.0;"/></g><!--link notificationsView to notificationsController--><g id="link_notificationsView_notificationsController"><path d="M177.78,354 C197.83,354 216.06,354 237.27,354 " fill="none" id="notificationsView-to-notificationsController" style="stroke:#181818;stroke-width:1.0;"/><polygon fill="#181818" points="243.27,354,234.27,350,238.27,354,234.27,358,243.27,354" style="stroke:#181818;stroke-width:1.0;"/></g><!--link searchView to searchProfileController--><g id="link_searchView_searchProfileController"><path d="M165.53,435 C186.46,435 209.15,435 234.21,435 " fill="none" id="searchView-to-searchProfileController" style="stroke:#181818;stroke-width:1.0;"/><polygon fill="#181818" points="240.21,435,231.21,431,235.21,435,231.21,439,240.21,435" style="stroke:#181818;stroke-width:1.0;"/></g><!--link commentEventController to commentModel--><g id="link_commentEventController_commentModel"><path d="M354.55,30 C380.18,30 403.53,30 425.81,30 " fill="none" id="commentEventController-to-commentModel" style="stroke:#181818;stroke-width:1.0;"/><polygon fill="#181818" points="431.81,30,422.81,26,426.81,30,422.81,34,431.81,30" style="stroke:#181818;stroke-width:1.0;"/></g><!--link likeEventController to socialInteractionModel--><g id="link_likeEventController_socialInteractionModel"><path d="M342.11,111 C364.34,111 385.28,111 408.44,111 " fill="none" id="likeEventController-to-socialInteractionModel" style="stroke:#181818;stroke-width:1.0;"/><polygon fill="#181818" points="414.44,111,405.44,107,409.44,111,405.44,115,414.44,111" style="stroke:#181818;stroke-width:1.0;"/></g><!--link shareEventController to eventModel--><g id="link_shareEventController_eventModel"><path d="M347.09,192 C377.64,192 409.49,192 434.39,192 " fill="none" id="shareEventController-to-eventModel" style="stroke:#181818;stroke-width:1.0;"/><polygon fill="#181818" points="440.39,192,431.39,188,435.39,192,431.39,196,440.39,192" style="stroke:#181818;stroke-width:1.0;"/></g><!--link followUserController to followUserModel--><g id="link_followUserController_followUserModel"><path d="M346.63,273 C372.01,273 396.52,273 420.47,273 " fill="none" id="followUserController-to-followUserModel" style="stroke:#181818;stroke-width:1.0;"/><polygon fill="#181818" points="426.47,273,417.47,269,421.47,273,417.47,277,426.47,273" style="stroke:#181818;stroke-width:1.0;"/></g><!--link notificationsController to notificationModel--><g id="link_notificationsController_notificationModel"><path d="M348.93,354 C374.12,354 397.91,354 421.26,354 " fill="none" id="notificationsController-to-notificationModel" style="stroke:#181818;stroke-width:1.0;"/><polygon fill="#181818" points="427.26,354,418.26,350,422.26,354,418.26,358,427.26,354" style="stroke:#181818;stroke-width:1.0;"/></g><!--link searchProfileController to userModel--><g id="link_searchProfileController_userModel"><path d="M351.72,435 C382.2,435 412.65,435 436.29,435 " fill="none" id="searchProfileController-to-userModel" style="stroke:#181818;stroke-width:1.0;"/><polygon fill="#181818" points="442.29,435,433.29,431,437.29,435,433.29,439,442.29,435" style="stroke:#181818;stroke-width:1.0;"/></g><!--SRC=[TLH1JiCm4Bpx5LRlFVG3IAXG2GaGKe2xSJRjgevTsGwbl9uq2Ml7sLuYUsV6sTb978veJyghLePuCT0_FUhOjKOOQAACJdhS7wAiqOEEwAm8fAYXKPs9x_0JxmtkRGisIjq_m2zPEsTZXRyWDniXb8xEozL70B-IAiYkNmZHAp5UnlABgy4GDkm8V_pkLua0j2L6vJGgytJjH0rT9tPW8L9kNTlEJjTPWLWxPumxp_jivZNYlhg83MerRyEMLI6-N6ThvVyDFa1KQC8dmZdPp8eP_ysx1WqGzPJs6Ijl91rhosgcg41vVI1geAqGke_JEqC36rhUZaKpfQfPA4cVyGYSpYphILGTb6TLWG6IB2LMo1e6IBBPp0gbvR6irM5UKpXbjpmcnFLpb-lrtJ9lGl9ugRZCaQ0yj_BKWN0ZA9RBXSCIsJoorWSIE_s5bQN1Z9tSPMQPmV8cS__ZVyWO70_cBmxEPiflv70k2_iZyOR7XV_frRpLWPrkpJy0]--></g></svg>