<?xml version="1.0" encoding="us-ascii" standalone="no"?><svg xmlns="http://www.w3.org/2000/svg" xmlns:xlink="http://www.w3.org/1999/xlink" contentStyleType="text/css" height="706px" preserveAspectRatio="none" style="width:531px;height:706px;background:#FFFFFF;" version="1.1" viewBox="0 0 531 706" width="531px" zoomAndPan="magnify"><defs/><g><!--entity user--><g id="elem_user"><ellipse cx="19" cy="488.5" fill="#F1F1F1" rx="8" ry="8" style="stroke:#181818;stroke-width:0.5;"/><path d="M19,496.5 L19,523.5 M6,504.5 L32,504.5 M19,523.5 L6,538.5 M19,523.5 L32,538.5 " fill="none" style="stroke:#181818;stroke-width:0.5;"/><text fill="#000000" font-family="sans-serif" font-size="11" lengthAdjust="spacing" textLength="23" x="7.5" y="551.4189">User</text></g><!--entity userModel--><g id="elem_userModel"><ellipse cx="471" cy="671" fill="#F1F1F1" rx="12" ry="12" style="stroke:#181818;stroke-width:0.5;"/><line style="stroke:#181818;stroke-width:0.5;" x1="459" x2="483" y1="685" y2="685"/><text fill="#000000" font-family="sans-serif" font-size="11" lengthAdjust="spacing" textLength="51" x="445.5" y="698.4189">UserModel</text></g><!--entity eventModel--><g id="elem_eventModel"><ellipse cx="471" cy="225" fill="#F1F1F1" rx="12" ry="12" style="stroke:#181818;stroke-width:0.5;"/><line style="stroke:#181818;stroke-width:0.5;" x1="459" x2="483" y1="239" y2="239"/><text fill="#000000" font-family="sans-serif" font-size="11" lengthAdjust="spacing" textLength="55" x="443.5" y="252.4189">EventModel</text></g><!--entity socialInteractionModel--><g id="elem_socialInteractionModel"><ellipse cx="471" cy="104" fill="#F1F1F1" rx="12" ry="12" style="stroke:#181818;stroke-width:0.5;"/><line style="stroke:#181818;stroke-width:0.5;" x1="459" x2="483" y1="118" y2="118"/><text fill="#000000" font-family="sans-serif" font-size="11" lengthAdjust="spacing" textLength="107" x="417.5" y="131.4189">SocialInteractionModel</text></g><!--entity commentModel--><g id="elem_commentModel"><ellipse cx="471" cy="23" fill="#F1F1F1" rx="12" ry="12" style="stroke:#181818;stroke-width:0.5;"/><line style="stroke:#181818;stroke-width:0.5;" x1="459" x2="483" y1="37" y2="37"/><text fill="#000000" font-family="sans-serif" font-size="11" lengthAdjust="spacing" textLength="72" x="435" y="50.4189">CommentModel</text></g><!--entity followUserModel--><g id="elem_followUserModel"><ellipse cx="471" cy="590" fill="#F1F1F1" rx="12" ry="12" style="stroke:#181818;stroke-width:0.5;"/><line style="stroke:#181818;stroke-width:0.5;" x1="459" x2="483" y1="604" y2="604"/><text fill="#000000" font-family="sans-serif" font-size="11" lengthAdjust="spacing" textLength="83" x="429.5" y="617.4189">FollowUserModel</text></g><!--entity notificationModel--><g id="elem_notificationModel"><ellipse cx="471" cy="428" fill="#F1F1F1" rx="12" ry="12" style="stroke:#181818;stroke-width:0.5;"/><line style="stroke:#181818;stroke-width:0.5;" x1="459" x2="483" y1="442" y2="442"/><text fill="#000000" font-family="sans-serif" font-size="11" lengthAdjust="spacing" textLength="81" x="430.5" y="455.4189">NotificationModel</text></g><!--entity eventDetailsView--><g id="elem_eventDetailsView"><path d="M116,254 L116,278 M116,266 L133,266 " fill="none" style="stroke:#181818;stroke-width:0.5;"/><ellipse cx="145" cy="266" fill="#F1F1F1" rx="12" ry="12" style="stroke:#181818;stroke-width:0.5;"/><text fill="#000000" font-family="sans-serif" font-size="11" lengthAdjust="spacing" textLength="85" x="94" y="293.4189">EventDetailsView</text></g><!--entity profileDetailsView--><g id="elem_profileDetailsView"><path d="M116,538 L116,562 M116,550 L133,550 " fill="none" style="stroke:#181818;stroke-width:0.5;"/><ellipse cx="145" cy="550" fill="#F1F1F1" rx="12" ry="12" style="stroke:#181818;stroke-width:0.5;"/><text fill="#000000" font-family="sans-serif" font-size="11" lengthAdjust="spacing" textLength="88" x="92.5" y="577.4189">ProfileDetailsView</text></g><!--entity notificationsView--><g id="elem_notificationsView"><path d="M116,457 L116,481 M116,469 L133,469 " fill="none" style="stroke:#181818;stroke-width:0.5;"/><ellipse cx="145" cy="469" fill="#F1F1F1" rx="12" ry="12" style="stroke:#181818;stroke-width:0.5;"/><text fill="#000000" font-family="sans-serif" font-size="11" lengthAdjust="spacing" textLength="85" x="94" y="496.4189">NotificationsView</text></g><!--entity searchView--><g id="elem_searchView"><path d="M116,639 L116,663 M116,651 L133,651 " fill="none" style="stroke:#181818;stroke-width:0.5;"/><ellipse cx="145" cy="651" fill="#F1F1F1" rx="12" ry="12" style="stroke:#181818;stroke-width:0.5;"/><text fill="#000000" font-family="sans-serif" font-size="11" lengthAdjust="spacing" textLength="61" x="106" y="678.4189">SearchView</text></g><!--entity commentEventController--><g id="elem_commentEventController"><ellipse cx="299" cy="23" fill="#F1F1F1" rx="12" ry="12" style="stroke:#181818;stroke-width:0.5;"/><polygon fill="#181818" points="295,11,301,6,299,11,301,16,295,11" style="stroke:#181818;stroke-width:1.0;"/><text fill="#000000" font-family="sans-serif" font-size="11" lengthAdjust="spacing" textLength="117" x="240.5" y="50.4189">CommentEventController</text></g><!--entity likeEventController--><g id="elem_likeEventController"><ellipse cx="299" cy="104" fill="#F1F1F1" rx="12" ry="12" style="stroke:#181818;stroke-width:0.5;"/><polygon fill="#181818" points="295,92,301,87,299,92,301,97,295,92" style="stroke:#181818;stroke-width:1.0;"/><text fill="#000000" font-family="sans-serif" font-size="11" lengthAdjust="spacing" textLength="92" x="253" y="131.4189">LikeEventController</text></g><!--entity shareEventController--><g id="elem_shareEventController"><ellipse cx="299" cy="185" fill="#F1F1F1" rx="12" ry="12" style="stroke:#181818;stroke-width:0.5;"/><polygon fill="#181818" points="295,173,301,168,299,173,301,178,295,173" style="stroke:#181818;stroke-width:1.0;"/><text fill="#000000" font-family="sans-serif" font-size="11" lengthAdjust="spacing" textLength="102" x="248" y="212.4189">ShareEventController</text></g><!--entity followUserController--><g id="elem_followUserController"><ellipse cx="299" cy="590" fill="#F1F1F1" rx="12" ry="12" style="stroke:#181818;stroke-width:0.5;"/><polygon fill="#181818" points="295,578,301,573,299,578,301,583,295,578" style="stroke:#181818;stroke-width:1.0;"/><text fill="#000000" font-family="sans-serif" font-size="11" lengthAdjust="spacing" textLength="101" x="248.5" y="617.4189">FollowUserController</text></g><!--entity notificationsController--><g id="elem_notificationsController"><ellipse cx="299" cy="509" fill="#F1F1F1" rx="12" ry="12" style="stroke:#181818;stroke-width:0.5;"/><polygon fill="#181818" points="295,497,301,492,299,497,301,502,295,497" style="stroke:#181818;stroke-width:1.0;"/><text fill="#000000" font-family="sans-serif" font-size="11" lengthAdjust="spacing" textLength="105" x="246.5" y="536.4189">NotificationsController</text></g><!--entity eventDetailsController--><g id="elem_eventDetailsController"><ellipse cx="299" cy="266" fill="#F1F1F1" rx="12" ry="12" style="stroke:#181818;stroke-width:0.5;"/><polygon fill="#181818" points="295,254,301,249,299,254,301,259,295,254" style="stroke:#181818;stroke-width:1.0;"/><text fill="#000000" font-family="sans-serif" font-size="11" lengthAdjust="spacing" textLength="105" x="246.5" y="293.4189">EventDetailsController</text></g><!--entity profileController--><g id="elem_profileController"><ellipse cx="299" cy="428" fill="#F1F1F1" rx="12" ry="12" style="stroke:#181818;stroke-width:0.5;"/><polygon fill="#181818" points="295,416,301,411,299,416,301,421,295,416" style="stroke:#181818;stroke-width:1.0;"/><text fill="#000000" font-family="sans-serif" font-size="11" lengthAdjust="spacing" textLength="76" x="261" y="455.4189">ProfileController</text></g><!--entity searchUserController--><g id="elem_searchUserController"><ellipse cx="299" cy="671" fill="#F1F1F1" rx="12" ry="12" style="stroke:#181818;stroke-width:0.5;"/><polygon fill="#181818" points="295,659,301,654,299,659,301,664,295,659" style="stroke:#181818;stroke-width:1.0;"/><text fill="#000000" font-family="sans-serif" font-size="11" lengthAdjust="spacing" textLength="104" x="247" y="698.4189">SearchUserController</text></g><!--entity notificationController--><g id="elem_notificationController"><ellipse cx="299" cy="347" fill="#F1F1F1" rx="12" ry="12" style="stroke:#181818;stroke-width:0.5;"/><polygon fill="#181818" points="295,335,301,330,299,335,301,340,295,335" style="stroke:#181818;stroke-width:1.0;"/><text fill="#000000" font-family="sans-serif" font-size="11" lengthAdjust="spacing" textLength="99" x="249.5" y="374.4189">NotificationController</text></g><!--link user to eventDetailsView--><g id="link_user_eventDetailsView"><path d="M32.58,490.42 C55.32,442.38 100.3531,347.2532 121.9031,301.7232 " fill="none" id="user-to-eventDetailsView" style="stroke:#181818;stroke-width:1.0;"/><polygon fill="#181818" points="124.47,296.3,117.0042,302.7236,122.3309,300.8193,124.2351,306.1461,124.47,296.3" style="stroke:#181818;stroke-width:1.0;"/></g><!--link user to profileDetailsView--><g id="link_user_profileDetailsView"><path d="M32.8,521.43 C47.13,526.4 65.4605,532.7461 86.6505,540.0861 " fill="none" id="user-to-profileDetailsView" style="stroke:#181818;stroke-width:1.0;"/><polygon fill="#181818" points="92.32,542.05,85.125,535.3245,87.5954,540.4135,82.5065,542.8839,92.32,542.05" style="stroke:#181818;stroke-width:1.0;"/></g><!--link user to notificationsView--><g id="link_user_notificationsView"><path d="M32.8,512.46 C47.49,507.24 66.6559,500.4379 88.2259,492.7779 " fill="none" id="user-to-notificationsView" style="stroke:#181818;stroke-width:1.0;"/><polygon fill="#181818" points="93.88,490.77,84.0603,490.0125,89.1683,492.4432,86.7375,497.5512,93.88,490.77" style="stroke:#181818;stroke-width:1.0;"/></g><!--link user to searchView--><g id="link_user_searchView"><path d="M32.58,532.36 C52.87,557.13 89.1283,601.3881 112.8383,630.3381 " fill="none" id="user-to-searchView" style="stroke:#181818;stroke-width:1.0;"/><polygon fill="#181818" points="116.64,634.98,114.032,625.4827,113.4719,631.1118,107.8429,630.5516,116.64,634.98" style="stroke:#181818;stroke-width:1.0;"/></g><!--link eventDetailsView to eventDetailsController--><g id="link_eventDetailsView_eventDetailsController"><path d="M179.25,273 C199.78,273 218.71,273 240.42,273 " fill="none" id="eventDetailsView-to-eventDetailsController" style="stroke:#181818;stroke-width:1.0;"/><polygon fill="#181818" points="246.42,273,237.42,269,241.42,273,237.42,277,246.42,273" style="stroke:#181818;stroke-width:1.0;"/></g><!--link eventDetailsView to commentEventController--><g id="link_eventDetailsView_commentEventController"><path d="M145,249.82 C158.86,209.69 191.59,126.19 240.5,70 C245.85,63.85 247.5486,61.8015 254.2086,56.7815 " fill="none" id="eventDetailsView-to-commentEventController" style="stroke:#181818;stroke-width:1.0;"/><polygon fill="#181818" points="259,53.17,249.4053,55.393,255.0072,56.1796,254.2206,61.7815,259,53.17" style="stroke:#181818;stroke-width:1.0;"/></g><!--link eventDetailsView to likeEventController--><g id="link_eventDetailsView_likeEventController"><path d="M154.13,249.85 C173.27,224.08 206.48,181.98 240.5,151 C246.97,145.1 249.473,142.855 256.743,137.645 " fill="none" id="eventDetailsView-to-likeEventController" style="stroke:#181818;stroke-width:1.0;"/><polygon fill="#181818" points="261.62,134.15,251.9745,136.1413,257.5559,137.0625,256.6346,142.6439,261.62,134.15" style="stroke:#181818;stroke-width:1.0;"/></g><!--link eventDetailsView to shareEventController--><g id="link_eventDetailsView_shareEventController"><path d="M179.25,251.93 C201.63,240.63 223.9033,229.3929 246.8733,217.8029 " fill="none" id="eventDetailsView-to-shareEventController" style="stroke:#181818;stroke-width:1.0;"/><polygon fill="#181818" points="252.23,215.1,242.393,215.5831,247.7661,217.3524,245.9968,222.7254,252.23,215.1" style="stroke:#181818;stroke-width:1.0;"/></g><!--link eventDetailsView to profileController--><g id="link_eventDetailsView_profileController"><path d="M154.58,296.33 C173.87,321.85 206.96,363.22 240.5,394 C247.27,400.22 250.1734,402.773 257.7234,408.283 " fill="none" id="eventDetailsView-to-profileController" style="stroke:#181818;stroke-width:1.0;"/><polygon fill="#181818" points="262.57,411.82,257.6582,403.2834,258.5312,408.8725,252.9421,409.7455,262.57,411.82" style="stroke:#181818;stroke-width:1.0;"/></g><!--link eventDetailsView to notificationController--><g id="link_eventDetailsView_notificationController"><path d="M179.25,294.07 C201.63,305.37 223.9033,316.6071 246.8733,328.1971 " fill="none" id="eventDetailsView-to-notificationController" style="stroke:#181818;stroke-width:1.0;"/><polygon fill="#181818" points="252.23,330.9,245.9968,323.2746,247.7661,328.6476,242.393,330.4169,252.23,330.9" style="stroke:#181818;stroke-width:1.0;"/></g><!--link profileDetailsView to followUserController--><g id="link_profileDetailsView_followUserController"><path d="M180.51,567.72 C201.4,572.93 220.798,577.7592 242.508,583.1692 " fill="none" id="profileDetailsView-to-followUserController" style="stroke:#181818;stroke-width:1.0;"/><polygon fill="#181818" points="248.33,584.62,240.5643,578.5625,243.4784,583.411,238.6299,586.3251,248.33,584.62" style="stroke:#181818;stroke-width:1.0;"/></g><!--link profileDetailsView to notificationsController--><g id="link_profileDetailsView_notificationsController"><path d="M180.51,546.01 C200.75,540.84 219.2463,536.1135 240.4863,530.6935 " fill="none" id="profileDetailsView-to-notificationsController" style="stroke:#181818;stroke-width:1.0;"/><polygon fill="#181818" points="246.3,529.21,236.5904,527.5595,241.4552,530.4463,238.5685,535.3111,246.3,529.21" style="stroke:#181818;stroke-width:1.0;"/></g><!--link notificationsView to notificationsController--><g id="link_notificationsView_notificationsController"><path d="M179.25,486.41 C199.78,491.52 218.888,496.2792 240.598,501.6892 " fill="none" id="notificationsView-to-notificationsController" style="stroke:#181818;stroke-width:1.0;"/><polygon fill="#181818" points="246.42,503.14,238.6543,497.0825,241.5684,501.931,236.7199,504.8451,246.42,503.14" style="stroke:#181818;stroke-width:1.0;"/></g><!--link searchView to searchUserController--><g id="link_searchView_searchUserController"><path d="M167.31,661.71 C189.61,664.49 214.6961,667.618 240.9361,670.888 " fill="none" id="searchView-to-searchUserController" style="stroke:#181818;stroke-width:1.0;"/><polygon fill="#181818" points="246.89,671.63,238.4537,666.5477,241.9284,671.0117,237.4644,674.4863,246.89,671.63" style="stroke:#181818;stroke-width:1.0;"/></g><!--link profileDetailsView to profileController--><g id="link_profileDetailsView_profileController"><path d="M165.53,533.88 C186.03,517.17 214.65,494.25 240.5,475 C248.01,469.41 251.2808,466.9953 259.0708,461.5553 " fill="none" id="profileDetailsView-to-profileController" style="stroke:#181818;stroke-width:1.0;"/><polygon fill="#181818" points="263.99,458.12,254.321,459.9934,259.8906,460.9827,258.9013,466.5524,263.99,458.12" style="stroke:#181818;stroke-width:1.0;"/></g><!--link profileController to userModel--><g id="link_profileController_userModel"><path d="M337.21,455.9 C344.67,461.37 351.92,467.79 357.5,475 C404.51,535.71 372.19,575.02 417.5,637 C424.94,647.18 430.6671,652.6473 440.4171,659.5673 " fill="none" id="profileController-to-userModel" style="stroke:#181818;stroke-width:1.0;"/><polygon fill="#181818" points="445.31,663.04,440.2858,654.569,441.2326,660.1461,435.6555,661.0929,445.31,663.04" style="stroke:#181818;stroke-width:1.0;"/></g><!--link eventDetailsController to eventModel--><g id="link_eventDetailsController_eventModel"><path d="M351.93,260.48 C382,253.22 412.7868,245.7951 437.1968,239.9151 " fill="none" id="eventDetailsController-to-eventModel" style="stroke:#181818;stroke-width:1.0;"/><polygon fill="#181818" points="443.03,238.51,433.3435,236.7289,438.169,239.6809,435.217,244.5064,443.03,238.51" style="stroke:#181818;stroke-width:1.0;"/></g><!--link commentEventController to commentModel--><g id="link_commentEventController_commentModel"><path d="M357.55,30 C383.18,30 406.53,30 428.81,30 " fill="none" id="commentEventController-to-commentModel" style="stroke:#181818;stroke-width:1.0;"/><polygon fill="#181818" points="434.81,30,425.81,26,429.81,30,425.81,34,434.81,30" style="stroke:#181818;stroke-width:1.0;"/></g><!--link likeEventController to socialInteractionModel--><g id="link_likeEventController_socialInteractionModel"><path d="M345.11,111 C367.34,111 388.28,111 411.44,111 " fill="none" id="likeEventController-to-socialInteractionModel" style="stroke:#181818;stroke-width:1.0;"/><polygon fill="#181818" points="417.44,111,408.44,107,412.44,111,408.44,115,417.44,111" style="stroke:#181818;stroke-width:1.0;"/></g><!--link shareEventController to eventModel--><g id="link_shareEventController_eventModel"><path d="M350.09,203.78 C380.64,210.97 412.6496,218.5055 437.5496,224.3655 " fill="none" id="shareEventController-to-eventModel" style="stroke:#181818;stroke-width:1.0;"/><polygon fill="#181818" points="443.39,225.74,435.5457,219.7846,438.523,224.5946,433.713,227.5719,443.39,225.74" style="stroke:#181818;stroke-width:1.0;"/></g><!--link followUserController to followUserModel--><g id="link_followUserController_followUserModel"><path d="M349.63,597 C375.01,597 399.52,597 423.47,597 " fill="none" id="followUserController-to-followUserModel" style="stroke:#181818;stroke-width:1.0;"/><polygon fill="#181818" points="429.47,597,420.47,593,424.47,597,420.47,601,429.47,597" style="stroke:#181818;stroke-width:1.0;"/></g><!--link notificationsController to notificationModel--><g id="link_notificationsController_notificationModel"><path d="M348.72,492.79 C374.62,480.45 400.6337,468.0515 425.0137,456.4315 " fill="none" id="notificationsController-to-notificationModel" style="stroke:#181818;stroke-width:1.0;"/><polygon fill="#181818" points="430.43,453.85,420.5846,454.1114,425.9165,456.0012,424.0266,461.3331,430.43,453.85" style="stroke:#181818;stroke-width:1.0;"/></g><!--link searchUserController to userModel--><g id="link_searchUserController_userModel"><path d="M351.01,678 C382.11,678 414.48,678 439.09,678 " fill="none" id="searchUserController-to-userModel" style="stroke:#181818;stroke-width:1.0;"/><polygon fill="#181818" points="445.09,678,436.09,674,440.09,678,436.09,682,445.09,678" style="stroke:#181818;stroke-width:1.0;"/></g><!--link notificationController to notificationModel--><g id="link_notificationController_notificationModel"><path d="M348.72,377.21 C374.62,389.55 400.6337,401.9485 425.0137,413.5685 " fill="none" id="notificationController-to-notificationModel" style="stroke:#181818;stroke-width:1.0;"/><polygon fill="#181818" points="430.43,416.15,424.0266,408.6669,425.9165,413.9988,420.5846,415.8886,430.43,416.15" style="stroke:#181818;stroke-width:1.0;"/></g><!--SRC=[bLL1JiCm4Bpx5LRlFVG3IAXG2GaGKe2xSJQjLSUkR8TINa-QbBLZRoguHF7kZBsUcIX-hyn1ED5o7quQ-gTJCdIjPXgQm8FbJcrtWTVAWGpA6kQHKKCZEXrUuIlSQhKrBPZ0PVy0Lw8sreHAVGDVhHWJCbZ75syUt88Bpxl-XR6UgS9fB3_P6ZJsXXNsxp_xjmW0N2AYib89_N2UH0nJHxGdMyXSsxQTx2wJ0g8sLcjxdCxPJ6k8VRP1DKgAwHWch_uRppviPshXVWMvWo2KzkyAZb6Mf9ZWNvnjb8QSSIZA2ISTAr9CNaqO5GWdTmZrk6HCzc5mLgFSmmNMOr5VCY79LgG-gZrGF5tM8wdQ2KUoFD68jEXtHck8HgHDDCkOXkv5ScfgnWMo5QaNVpFM8QyciWpU4FVpH8E-tvNh9LHs_fhvSdbJnXCxH0onL-ODMsc-yisB4vEHIEnC-4Wi5JWII6QCH9PMaR0vaKi51pWPrXdiN3mB0wwYeoU9HNyRe9G0xnLh0pBvGP0EH_D75ErjQlk88tmTRq7_GIXtywCf1p9hHk2Ce8NObwC9NJDfwAZCxFS3]--></g></svg>