<?xml version="1.0" encoding="us-ascii" standalone="no"?><svg xmlns="http://www.w3.org/2000/svg" xmlns:xlink="http://www.w3.org/1999/xlink" contentStyleType="text/css" height="220px" preserveAspectRatio="none" style="width:504px;height:220px;background:#FFFFFF;" version="1.1" viewBox="0 0 504 220" width="504px" zoomAndPan="magnify"><defs/><g><!--entity user--><g id="elem_user"><ellipse cx="19" cy="123.5" fill="#F1F1F1" rx="8" ry="8" style="stroke:#181818;stroke-width:0.5;"/><path d="M19,131.5 L19,158.5 M6,139.5 L32,139.5 M19,158.5 L6,173.5 M19,158.5 L32,173.5 " fill="none" style="stroke:#181818;stroke-width:0.5;"/><text fill="#000000" font-family="sans-serif" font-size="11" lengthAdjust="spacing" textLength="23" x="7.5" y="186.4189">User</text></g><!--entity userModel--><g id="elem_userModel"><ellipse cx="472" cy="104" fill="#F1F1F1" rx="12" ry="12" style="stroke:#181818;stroke-width:0.5;"/><line style="stroke:#181818;stroke-width:0.5;" x1="460" x2="484" y1="118" y2="118"/><text fill="#000000" font-family="sans-serif" font-size="11" lengthAdjust="spacing" textLength="51" x="446.5" y="131.4189">UserModel</text></g><!--entity authView--><g id="elem_authView"><path d="M125.5,92 L125.5,116 M125.5,104 L142.5,104 " fill="none" style="stroke:#181818;stroke-width:0.5;"/><ellipse cx="154.5" cy="104" fill="#F1F1F1" rx="12" ry="12" style="stroke:#181818;stroke-width:0.5;"/><text fill="#000000" font-family="sans-serif" font-size="11" lengthAdjust="spacing" textLength="49" x="121.5" y="131.4189">AuthView</text></g><!--entity forgotPasswordView--><g id="elem_forgotPasswordView"><path d="M125.5,173 L125.5,197 M125.5,185 L142.5,185 " fill="none" style="stroke:#181818;stroke-width:0.5;"/><ellipse cx="154.5" cy="185" fill="#F1F1F1" rx="12" ry="12" style="stroke:#181818;stroke-width:0.5;"/><text fill="#000000" font-family="sans-serif" font-size="11" lengthAdjust="spacing" textLength="107" x="92.5" y="212.4189">ForgotPasswordView</text></g><!--entity signUpController--><g id="elem_signUpController"><ellipse cx="323" cy="23" fill="#F1F1F1" rx="12" ry="12" style="stroke:#181818;stroke-width:0.5;"/><polygon fill="#181818" points="319,11,325,6,323,11,325,16,319,11" style="stroke:#181818;stroke-width:1.0;"/><text fill="#000000" font-family="sans-serif" font-size="11" lengthAdjust="spacing" textLength="80" x="283" y="50.4189">SignUpController</text></g><!--entity loginController--><g id="elem_loginController"><ellipse cx="323" cy="104" fill="#F1F1F1" rx="12" ry="12" style="stroke:#181818;stroke-width:0.5;"/><polygon fill="#181818" points="319,92,325,87,323,92,325,97,319,92" style="stroke:#181818;stroke-width:1.0;"/><text fill="#000000" font-family="sans-serif" font-size="11" lengthAdjust="spacing" textLength="72" x="287" y="131.4189">LoginController</text></g><!--entity forgotPasswordController--><g id="elem_forgotPasswordController"><ellipse cx="323" cy="185" fill="#F1F1F1" rx="12" ry="12" style="stroke:#181818;stroke-width:0.5;"/><polygon fill="#181818" points="319,173,325,168,323,173,325,178,319,173" style="stroke:#181818;stroke-width:1.0;"/><text fill="#000000" font-family="sans-serif" font-size="11" lengthAdjust="spacing" textLength="127" x="259.5" y="212.4189">ForgotPasswordController</text></g><!--link user to authView--><g id="link_user_authView"><path d="M32.91,147.77 C53.74,140.93 89.3891,129.2406 115.6291,120.6306 " fill="none" id="user-to-authView" style="stroke:#181818;stroke-width:1.0;"/><polygon fill="#181818" points="121.33,118.76,111.5315,117.7653,116.5792,120.3189,114.0257,125.3666,121.33,118.76" style="stroke:#181818;stroke-width:1.0;"/></g><!--link user to forgotPasswordView--><g id="link_user_forgotPasswordView"><path d="M32.91,156.13 C47,160.64 64.7855,166.3311 86.6255,173.3211 " fill="none" id="user-to-forgotPasswordView" style="stroke:#181818;stroke-width:1.0;"/><polygon fill="#181818" points="92.34,175.15,84.9876,168.597,87.578,173.6259,82.549,176.2162,92.34,175.15" style="stroke:#181818;stroke-width:1.0;"/></g><!--link authView to signUpController--><g id="link_authView_signUpController"><path d="M170.6,100.08 C199.34,86.78 242.8455,66.6415 277.2855,50.6915 " fill="none" id="authView-to-signUpController" style="stroke:#181818;stroke-width:1.0;"/><polygon fill="#181818" points="282.73,48.17,272.8823,48.3226,278.1929,50.2712,276.2443,55.5818,282.73,48.17" style="stroke:#181818;stroke-width:1.0;"/></g><!--link authView to loginController--><g id="link_authView_loginController"><path d="M170.6,111 C200.46,111 246.13,111 280.69,111 " fill="none" id="authView-to-loginController" style="stroke:#181818;stroke-width:1.0;"/><polygon fill="#181818" points="286.69,111,277.69,107,281.69,111,277.69,115,286.69,111" style="stroke:#181818;stroke-width:1.0;"/></g><!--link forgotPasswordView to forgotPasswordController--><g id="link_forgotPasswordView_forgotPasswordController"><path d="M199.51,192 C218.33,192 233.75,192 253.35,192 " fill="none" id="forgotPasswordView-to-forgotPasswordController" style="stroke:#181818;stroke-width:1.0;"/><polygon fill="#181818" points="259.35,192,250.35,188,254.35,192,250.35,196,259.35,192" style="stroke:#181818;stroke-width:1.0;"/></g><!--link signUpController to userModel--><g id="link_signUpController_userModel"><path d="M363.01,51.49 C389.38,66.02 418.1454,81.8736 440.8954,94.4136 " fill="none" id="signUpController-to-userModel" style="stroke:#181818;stroke-width:1.0;"/><polygon fill="#181818" points="446.15,97.31,440.199,89.4623,441.7712,94.8963,436.3372,96.4685,446.15,97.31" style="stroke:#181818;stroke-width:1.0;"/></g><!--link loginController to userModel--><g id="link_loginController_userModel"><path d="M359.21,111 C386.05,111 416.34,111 440.2,111 " fill="none" id="loginController-to-userModel" style="stroke:#181818;stroke-width:1.0;"/><polygon fill="#181818" points="446.2,111,437.2,107,441.2,111,437.2,115,446.2,111" style="stroke:#181818;stroke-width:1.0;"/></g><!--link forgotPasswordController to userModel--><g id="link_forgotPasswordController_userModel"><path d="M366.12,168.79 C392.09,154.48 419.2254,139.5365 441.0854,127.4865 " fill="none" id="forgotPasswordController-to-userModel" style="stroke:#181818;stroke-width:1.0;"/><polygon fill="#181818" points="446.34,124.59,436.5272,125.4317,441.9612,127.0037,440.3892,132.4378,446.34,124.59" style="stroke:#181818;stroke-width:1.0;"/></g><!--SRC=[TP71Ri8m38RlVWghTmwym2GqYTCcJMBidYLkYPR6o774sDClAwobALoY-Fy_Ex-LzENZqOZfCUavK3d5MyrzW42jeZAAxmwApWjPzHmXZHsEMfE3ljEtReBlOazHqPQ3P4bjEUhE_n2krm1WhB9Wiqya3Pg4kLm0IglNyqL-PKTXz8OAu9DpT4OAiibw-F1q6WXpBMxyBKl7-cPIEh6uaMmNCe0joOG3Dhkom_xuV2d3DLcgn0b_uSx7YWvpROBdUQgkze49yBSxhbPFqugZScyL-CS6OX5zvjPHb_FkF7ERhHu_uDDdLVChzz7O2li5]--></g></svg>