<?xml version="1.0" encoding="us-ascii" standalone="no"?><svg xmlns="http://www.w3.org/2000/svg" xmlns:xlink="http://www.w3.org/1999/xlink" contentStyleType="text/css" height="868px" preserveAspectRatio="none" style="width:479px;height:868px;background:#FFFFFF;" version="1.1" viewBox="0 0 479 868" width="479px" zoomAndPan="magnify"><defs/><g><!--entity user--><g id="elem_user"><ellipse cx="19" cy="649.5" fill="#F1F1F1" rx="8" ry="8" style="stroke:#181818;stroke-width:0.5;"/><path d="M19,657.5 L19,684.5 M6,665.5 L32,665.5 M19,684.5 L6,699.5 M19,684.5 L32,699.5 " fill="none" style="stroke:#181818;stroke-width:0.5;"/><text fill="#000000" font-family="sans-serif" font-size="11" lengthAdjust="spacing" textLength="23" x="7.5" y="712.4189">User</text></g><!--entity eventModel--><g id="elem_eventModel"><ellipse cx="445" cy="428" fill="#F1F1F1" rx="12" ry="12" style="stroke:#181818;stroke-width:0.5;"/><line style="stroke:#181818;stroke-width:0.5;" x1="433" x2="457" y1="442" y2="442"/><text fill="#000000" font-family="sans-serif" font-size="11" lengthAdjust="spacing" textLength="55" x="417.5" y="455.4189">EventModel</text></g><!--entity postEventView--><g id="elem_postEventView"><path d="M114.5,173 L114.5,197 M114.5,185 L131.5,185 " fill="none" style="stroke:#181818;stroke-width:0.5;"/><ellipse cx="143.5" cy="185" fill="#F1F1F1" rx="12" ry="12" style="stroke:#181818;stroke-width:0.5;"/><text fill="#000000" font-family="sans-serif" font-size="11" lengthAdjust="spacing" textLength="74" x="98" y="212.4189">PostEventView</text></g><!--entity editEventView--><g id="elem_editEventView"><path d="M114.5,497 L114.5,521 M114.5,509 L131.5,509 " fill="none" style="stroke:#181818;stroke-width:0.5;"/><ellipse cx="143.5" cy="509" fill="#F1F1F1" rx="12" ry="12" style="stroke:#181818;stroke-width:0.5;"/><text fill="#000000" font-family="sans-serif" font-size="11" lengthAdjust="spacing" textLength="70" x="100" y="536.4189">EditEventView</text></g><!--entity eventDetailsView--><g id="elem_eventDetailsView"><path d="M114.5,659 L114.5,683 M114.5,671 L131.5,671 " fill="none" style="stroke:#181818;stroke-width:0.5;"/><ellipse cx="143.5" cy="671" fill="#F1F1F1" rx="12" ry="12" style="stroke:#181818;stroke-width:0.5;"/><text fill="#000000" font-family="sans-serif" font-size="11" lengthAdjust="spacing" textLength="85" x="92.5" y="698.4189">EventDetailsView</text></g><!--entity searchView--><g id="elem_searchView"><path d="M114.5,740 L114.5,764 M114.5,752 L131.5,752 " fill="none" style="stroke:#181818;stroke-width:0.5;"/><ellipse cx="143.5" cy="752" fill="#F1F1F1" rx="12" ry="12" style="stroke:#181818;stroke-width:0.5;"/><text fill="#000000" font-family="sans-serif" font-size="11" lengthAdjust="spacing" textLength="61" x="104.5" y="779.4189">SearchView</text></g><!--entity listEventsView--><g id="elem_listEventsView"><path d="M114.5,821 L114.5,845 M114.5,833 L131.5,833 " fill="none" style="stroke:#181818;stroke-width:0.5;"/><ellipse cx="143.5" cy="833" fill="#F1F1F1" rx="12" ry="12" style="stroke:#181818;stroke-width:0.5;"/><text fill="#000000" font-family="sans-serif" font-size="11" lengthAdjust="spacing" textLength="76" x="97" y="860.4189">ListEventsView</text></g><!--entity postEventController--><g id="elem_postEventController"><ellipse cx="297.5" cy="23" fill="#F1F1F1" rx="12" ry="12" style="stroke:#181818;stroke-width:0.5;"/><polygon fill="#181818" points="293.5,11,299.5,6,297.5,11,299.5,16,293.5,11" style="stroke:#181818;stroke-width:1.0;"/><text fill="#000000" font-family="sans-serif" font-size="11" lengthAdjust="spacing" textLength="94" x="250.5" y="50.4189">PostEventController</text></g><!--entity uploadImageController--><g id="elem_uploadImageController"><ellipse cx="297.5" cy="104" fill="#F1F1F1" rx="12" ry="12" style="stroke:#181818;stroke-width:0.5;"/><polygon fill="#181818" points="293.5,92,299.5,87,297.5,92,299.5,97,293.5,92" style="stroke:#181818;stroke-width:1.0;"/><text fill="#000000" font-family="sans-serif" font-size="11" lengthAdjust="spacing" textLength="107" x="244" y="131.4189">UploadImageController</text></g><!--entity uploadMusicController--><g id="elem_uploadMusicController"><ellipse cx="297.5" cy="185" fill="#F1F1F1" rx="12" ry="12" style="stroke:#181818;stroke-width:0.5;"/><polygon fill="#181818" points="293.5,173,299.5,168,297.5,173,299.5,178,293.5,173" style="stroke:#181818;stroke-width:1.0;"/><text fill="#000000" font-family="sans-serif" font-size="11" lengthAdjust="spacing" textLength="107" x="244" y="212.4189">UploadMusicController</text></g><!--entity uploadLocationController--><g id="elem_uploadLocationController"><ellipse cx="297.5" cy="266" fill="#F1F1F1" rx="12" ry="12" style="stroke:#181818;stroke-width:0.5;"/><polygon fill="#181818" points="293.5,254,299.5,249,297.5,254,299.5,259,293.5,254" style="stroke:#181818;stroke-width:1.0;"/><text fill="#000000" font-family="sans-serif" font-size="11" lengthAdjust="spacing" textLength="120" x="237.5" y="293.4189">UploadLocationController</text></g><!--entity editEventController--><g id="elem_editEventController"><ellipse cx="297.5" cy="347" fill="#F1F1F1" rx="12" ry="12" style="stroke:#181818;stroke-width:0.5;"/><polygon fill="#181818" points="293.5,335,299.5,330,297.5,335,299.5,340,293.5,335" style="stroke:#181818;stroke-width:1.0;"/><text fill="#000000" font-family="sans-serif" font-size="11" lengthAdjust="spacing" textLength="90" x="252.5" y="374.4189">EditEventController</text></g><!--entity editImageController--><g id="elem_editImageController"><ellipse cx="297.5" cy="428" fill="#F1F1F1" rx="12" ry="12" style="stroke:#181818;stroke-width:0.5;"/><polygon fill="#181818" points="293.5,416,299.5,411,297.5,416,299.5,421,293.5,416" style="stroke:#181818;stroke-width:1.0;"/><text fill="#000000" font-family="sans-serif" font-size="11" lengthAdjust="spacing" textLength="91" x="252" y="455.4189">EditImageController</text></g><!--entity deleteMusicController--><g id="elem_deleteMusicController"><ellipse cx="297.5" cy="509" fill="#F1F1F1" rx="12" ry="12" style="stroke:#181818;stroke-width:0.5;"/><polygon fill="#181818" points="293.5,497,299.5,492,297.5,497,299.5,502,293.5,497" style="stroke:#181818;stroke-width:1.0;"/><text fill="#000000" font-family="sans-serif" font-size="11" lengthAdjust="spacing" textLength="104" x="245.5" y="536.4189">DeleteMusicController</text></g><!--entity deleteLocationController--><g id="elem_deleteLocationController"><ellipse cx="297.5" cy="590" fill="#F1F1F1" rx="12" ry="12" style="stroke:#181818;stroke-width:0.5;"/><polygon fill="#181818" points="293.5,578,299.5,573,297.5,578,299.5,583,293.5,578" style="stroke:#181818;stroke-width:1.0;"/><text fill="#000000" font-family="sans-serif" font-size="11" lengthAdjust="spacing" textLength="117" x="239" y="617.4189">DeleteLocationController</text></g><!--entity eventDetailsController--><g id="elem_eventDetailsController"><ellipse cx="297.5" cy="671" fill="#F1F1F1" rx="12" ry="12" style="stroke:#181818;stroke-width:0.5;"/><polygon fill="#181818" points="293.5,659,299.5,654,297.5,659,299.5,664,293.5,659" style="stroke:#181818;stroke-width:1.0;"/><text fill="#000000" font-family="sans-serif" font-size="11" lengthAdjust="spacing" textLength="105" x="245" y="698.4189">EventDetailsController</text></g><!--entity searchEventController--><g id="elem_searchEventController"><ellipse cx="297.5" cy="752" fill="#F1F1F1" rx="12" ry="12" style="stroke:#181818;stroke-width:0.5;"/><polygon fill="#181818" points="293.5,740,299.5,735,297.5,740,299.5,745,293.5,740" style="stroke:#181818;stroke-width:1.0;"/><text fill="#000000" font-family="sans-serif" font-size="11" lengthAdjust="spacing" textLength="108" x="243.5" y="779.4189">SearchEventController</text></g><!--entity listEventsController--><g id="elem_listEventsController"><ellipse cx="297.5" cy="833" fill="#F1F1F1" rx="12" ry="12" style="stroke:#181818;stroke-width:0.5;"/><polygon fill="#181818" points="293.5,821,299.5,816,297.5,821,299.5,826,293.5,821" style="stroke:#181818;stroke-width:1.0;"/><text fill="#000000" font-family="sans-serif" font-size="11" lengthAdjust="spacing" textLength="96" x="249.5" y="860.4189">ListEventsController</text></g><!--link user to postEventView--><g id="link_user_postEventView"><path d="M28.76,640.67 C51.2,544.98 108.9397,298.8514 127.1897,221.0514 " fill="none" id="user-to-postEventView" style="stroke:#181818;stroke-width:1.0;"/><polygon fill="#181818" points="128.56,215.21,122.6103,223.0586,127.4181,220.0779,130.3989,224.8857,128.56,215.21" style="stroke:#181818;stroke-width:1.0;"/></g><!--link user to editEventView--><g id="link_user_editEventView"><path d="M32.64,660.04 C53.39,630.55 91.2272,576.787 114.1872,544.157 " fill="none" id="user-to-editEventView" style="stroke:#181818;stroke-width:1.0;"/><polygon fill="#181818" points="117.64,539.25,109.1895,544.3086,114.7627,543.3391,115.7322,548.9123,117.64,539.25" style="stroke:#181818;stroke-width:1.0;"/></g><!--link user to eventDetailsView--><g id="link_user_eventDetailsView"><path d="M32.64,678 C47.01,678 65.24,678 86.41,678 " fill="none" id="user-to-eventDetailsView" style="stroke:#181818;stroke-width:1.0;"/><polygon fill="#181818" points="92.41,678,83.41,674,87.41,678,83.41,682,92.41,678" style="stroke:#181818;stroke-width:1.0;"/></g><!--link user to searchView--><g id="link_user_searchView"><path d="M32.64,686.98 C49.8,699.17 76.0985,717.8653 99.3685,734.3953 " fill="none" id="user-to-searchView" style="stroke:#181818;stroke-width:1.0;"/><polygon fill="#181818" points="104.26,737.87,99.2392,729.397,100.1838,734.9744,94.6063,735.9189,104.26,737.87" style="stroke:#181818;stroke-width:1.0;"/></g><!--link user to listEventsView--><g id="link_user_listEventsView"><path d="M32.73,703.28 C46.03,728.62 68.3,768.18 92.5,799 C97.25,805.05 98.6089,806.8759 104.1189,812.4159 " fill="none" id="user-to-listEventsView" style="stroke:#181818;stroke-width:1.0;"/><polygon fill="#181818" points="108.35,816.67,104.8394,807.468,104.8241,813.1249,99.1672,813.1095,108.35,816.67" style="stroke:#181818;stroke-width:1.0;"/></g><!--link postEventView to postEventController--><g id="link_postEventView_postEventController"><path d="M152.25,168.76 C170.99,142.89 203.61,100.72 237.5,70 C244.1,64.02 246.7462,61.673 254.1962,56.453 " fill="none" id="postEventView-to-postEventController" style="stroke:#181818;stroke-width:1.0;"/><polygon fill="#181818" points="259.11,53.01,249.4439,54.8986,255.0151,55.8792,254.0346,61.4504,259.11,53.01" style="stroke:#181818;stroke-width:1.0;"/></g><!--link postEventView to uploadImageController--><g id="link_postEventView_uploadImageController"><path d="M172.02,173.82 C195.31,162.07 220.4742,149.3747 245.4642,136.7547 " fill="none" id="postEventView-to-uploadImageController" style="stroke:#181818;stroke-width:1.0;"/><polygon fill="#181818" points="250.82,134.05,240.9832,134.5365,246.3568,136.3039,244.5894,141.6776,250.82,134.05" style="stroke:#181818;stroke-width:1.0;"/></g><!--link postEventView to uploadMusicController--><g id="link_postEventView_uploadMusicController"><path d="M172.02,192 C193.18,192 214.32,192 237.85,192 " fill="none" id="postEventView-to-uploadMusicController" style="stroke:#181818;stroke-width:1.0;"/><polygon fill="#181818" points="243.85,192,234.85,188,238.85,192,234.85,196,243.85,192" style="stroke:#181818;stroke-width:1.0;"/></g><!--link postEventView to uploadLocationController--><g id="link_postEventView_uploadLocationController"><path d="M172.02,210.18 C195.31,221.93 220.4742,234.6253 245.4642,247.2453 " fill="none" id="postEventView-to-uploadLocationController" style="stroke:#181818;stroke-width:1.0;"/><polygon fill="#181818" points="250.82,249.95,244.5894,242.3224,246.3568,247.6961,240.9832,249.4635,250.82,249.95" style="stroke:#181818;stroke-width:1.0;"/></g><!--link editEventView to editEventController--><g id="link_editEventView_editEventController"><path d="M152.25,492.76 C170.99,466.89 203.61,424.72 237.5,394 C244.1,388.02 246.7462,385.673 254.1962,380.453 " fill="none" id="editEventView-to-editEventController" style="stroke:#181818;stroke-width:1.0;"/><polygon fill="#181818" points="259.11,377.01,249.4439,378.8986,255.0151,379.8792,254.0346,385.4504,259.11,377.01" style="stroke:#181818;stroke-width:1.0;"/></g><!--link editEventView to editImageController--><g id="link_editEventView_editImageController"><path d="M170.04,498.82 C193.87,486.79 220.593,473.3023 246.483,460.2423 " fill="none" id="editEventView-to-editImageController" style="stroke:#181818;stroke-width:1.0;"/><polygon fill="#181818" points="251.84,457.54,242.0029,458.0221,247.3758,459.7919,245.606,465.1648,251.84,457.54" style="stroke:#181818;stroke-width:1.0;"/></g><!--link editEventView to deleteMusicController--><g id="link_editEventView_deleteMusicController"><path d="M170.04,516 C191.94,516 214.8,516 239.43,516 " fill="none" id="editEventView-to-deleteMusicController" style="stroke:#181818;stroke-width:1.0;"/><polygon fill="#181818" points="245.43,516,236.43,512,240.43,516,236.43,520,245.43,516" style="stroke:#181818;stroke-width:1.0;"/></g><!--link editEventView to deleteLocationController--><g id="link_editEventView_deleteLocationController"><path d="M170.04,533.18 C193.5,545.02 219.6031,558.1975 245.2731,571.1475 " fill="none" id="editEventView-to-deleteLocationController" style="stroke:#181818;stroke-width:1.0;"/><polygon fill="#181818" points="250.63,573.85,244.3962,566.225,246.1659,571.5979,240.793,573.3676,250.63,573.85" style="stroke:#181818;stroke-width:1.0;"/></g><!--link eventDetailsView to eventDetailsController--><g id="link_eventDetailsView_eventDetailsController"><path d="M177.75,678 C198.28,678 217.21,678 238.92,678 " fill="none" id="eventDetailsView-to-eventDetailsController" style="stroke:#181818;stroke-width:1.0;"/><polygon fill="#181818" points="244.92,678,235.92,674,239.92,678,235.92,682,244.92,678" style="stroke:#181818;stroke-width:1.0;"/></g><!--link searchView to searchEventController--><g id="link_searchView_searchEventController"><path d="M165.81,759 C187.57,759 211.65,759 237.46,759 " fill="none" id="searchView-to-searchEventController" style="stroke:#181818;stroke-width:1.0;"/><polygon fill="#181818" points="243.46,759,234.46,755,238.46,759,234.46,763,243.46,759" style="stroke:#181818;stroke-width:1.0;"/></g><!--link listEventsView to listEventsController--><g id="link_listEventsView_listEventsController"><path d="M173.23,840 C195.91,840 219.12,840 243.4,840 " fill="none" id="listEventsView-to-listEventsController" style="stroke:#181818;stroke-width:1.0;"/><polygon fill="#181818" points="249.4,840,240.4,836,244.4,840,240.4,844,249.4,840" style="stroke:#181818;stroke-width:1.0;"/></g><!--link postEventController to eventModel--><g id="link_postEventController_eventModel"><path d="M341.29,53.22 C347.44,58.08 353.14,63.68 357.5,70 C433.86,180.7 443.2319,344.3005 444.0319,405.7505 " fill="none" id="postEventController-to-eventModel" style="stroke:#181818;stroke-width:1.0;"/><polygon fill="#181818" points="444.11,411.75,447.9925,402.6987,444.0449,406.7504,439.9932,402.8028,444.11,411.75" style="stroke:#181818;stroke-width:1.0;"/></g><!--link uploadImageController to eventModel--><g id="link_uploadImageController_eventModel"><path d="M340.65,134.23 C346.95,139.12 352.87,144.72 357.5,151 C418.52,233.76 436.3729,354.0398 441.5429,405.7298 " fill="none" id="uploadImageController-to-eventModel" style="stroke:#181818;stroke-width:1.0;"/><polygon fill="#181818" points="442.14,411.7,445.2244,402.3466,441.6424,406.7248,437.2642,403.1428,442.14,411.7" style="stroke:#181818;stroke-width:1.0;"/></g><!--link uploadMusicController to eventModel--><g id="link_uploadMusicController_eventModel"><path d="M339.48,215.2 C346.07,220.16 352.39,225.79 357.5,232 C403.41,287.74 427.1517,365.6399 437.2417,405.9099 " fill="none" id="uploadMusicController-to-eventModel" style="stroke:#181818;stroke-width:1.0;"/><polygon fill="#181818" points="438.7,411.73,440.3926,402.0277,437.4848,406.8799,432.6325,403.972,438.7,411.73" style="stroke:#181818;stroke-width:1.0;"/></g><!--link uploadLocationController to eventModel--><g id="link_uploadLocationController_eventModel"><path d="M336.88,296.06 C344.09,301.2 351.31,306.94 357.5,313 C388.29,343.16 412.4755,380.3298 427.8155,406.3798 " fill="none" id="uploadLocationController-to-eventModel" style="stroke:#181818;stroke-width:1.0;"/><polygon fill="#181818" points="430.86,411.55,429.74,401.765,428.3229,407.2415,422.8464,405.8244,430.86,411.55" style="stroke:#181818;stroke-width:1.0;"/></g><!--link editImageController to eventModel--><g id="link_editImageController_eventModel"><path d="M343.34,435 C367.56,435 390.63,435 411.3,435 " fill="none" id="editImageController-to-eventModel" style="stroke:#181818;stroke-width:1.0;"/><polygon fill="#181818" points="417.3,435,408.3,431,412.3,435,408.3,439,417.3,435" style="stroke:#181818;stroke-width:1.0;"/></g><!--link deleteMusicController to eventModel--><g id="link_deleteMusicController_eventModel"><path d="M340.19,492.79 C365.05,478.95 390.6178,464.7188 412.1878,452.7088 " fill="none" id="deleteMusicController-to-eventModel" style="stroke:#181818;stroke-width:1.0;"/><polygon fill="#181818" points="417.43,449.79,407.6208,450.6734,413.0615,452.2223,411.5126,457.663,417.43,449.79" style="stroke:#181818;stroke-width:1.0;"/></g><!--link deleteLocationController to eventModel--><g id="link_deleteLocationController_eventModel"><path d="M335.91,573.9 C343.44,568.48 351.02,562.4 357.5,556 C388.01,525.89 412.2354,489.0964 427.6754,463.3364 " fill="none" id="deleteLocationController-to-eventModel" style="stroke:#181818;stroke-width:1.0;"/><polygon fill="#181818" points="430.76,458.19,422.7022,463.8531,428.1895,462.4786,429.564,467.966,430.76,458.19" style="stroke:#181818;stroke-width:1.0;"/></g><!--link editEventController to eventModel--><g id="link_editEventController_eventModel"><path d="M340.19,377.21 C365.05,391.05 390.6178,405.2812 412.1878,417.2912 " fill="none" id="editEventController-to-eventModel" style="stroke:#181818;stroke-width:1.0;"/><polygon fill="#181818" points="417.43,420.21,411.5126,412.337,413.0615,417.7777,407.6208,419.3266,417.43,420.21" style="stroke:#181818;stroke-width:1.0;"/></g><!--link eventDetailsController to eventModel--><g id="link_eventDetailsController_eventModel"><path d="M338.55,654.78 C345.46,649.55 352.14,643.57 357.5,637 C402.94,581.27 426.8703,503.9021 437.1203,463.9121 " fill="none" id="eventDetailsController-to-eventModel" style="stroke:#181818;stroke-width:1.0;"/><polygon fill="#181818" points="438.61,458.1,432.5007,465.825,437.3686,462.9434,440.2502,467.8113,438.61,458.1" style="stroke:#181818;stroke-width:1.0;"/></g><!--link searchEventController to eventModel--><g id="link_searchEventController_eventModel"><path d="M339.44,736 C346.19,730.78 352.58,724.75 357.5,718 C417.89,635.19 436.069,515.5478 441.419,464.1378 " fill="none" id="searchEventController-to-eventModel" style="stroke:#181818;stroke-width:1.0;"/><polygon fill="#181818" points="442.04,458.17,437.1299,466.7076,441.5225,463.1431,445.087,467.5357,442.04,458.17" style="stroke:#181818;stroke-width:1.0;"/></g><!--link listEventsController to eventModel--><g id="link_listEventsController_eventModel"><path d="M340.39,816.77 C346.88,811.64 352.93,805.7 357.5,799 C433.06,688.18 442.9,525.2992 443.92,464.1292 " fill="none" id="listEventsController-to-eventModel" style="stroke:#181818;stroke-width:1.0;"/><polygon fill="#181818" points="444.02,458.13,439.8705,467.0621,443.9366,463.1293,447.8694,467.1954,444.02,458.13" style="stroke:#181818;stroke-width:1.0;"/></g><!--SRC=[ZPJBRW8n34Nt-Og8FGj-e59Lg5G9f4gKxjF4GDJCP9HasjAlRtWe3ySZkXdDsESIszV1V-f-44vqt8UJWVXqMeQnCyp0Fl1WkTE7O-1AEv11svxvf52m5wC9R_0J7eq-z1tqWSlu0DTIpxOFM_qBVB5WJCXW7P_jFBWP5vwFyOMngDJXn6Uhh_YsiGhC9Gdfax4FE_PAk0YzMXykuBk6xmitb962N2cDI2WZ9NcEBI48RNo6KR3Wjo2SF2RIfy-2MUjRLVaNJHLYJCRHE6kAdfwk4NCRpz36isWt62lKIoSEW6GZbS72pUYr98KeWuLhAyLv8KXjcypov0TIGXklHLIFqCQpQ0a60b0TAYg3XHCTgebaKMonChXUCfMbrvMYnkEfJ1RcFKCwGoGOEzyuFfy_e5kJmlKLoM5y6LAcMFuKmujUdLMVNjJMKlGYJt7OrIcESB3gkfx3NGgNrrBqqarnL7be-eqb1PlzAEp1dTG68S_ATI5yoeTV_vj9asW8ZO26slunHqmT8-J8QUX_vzqP0cq6faWpC4GPWPa_]--></g></svg>