<?xml version="1.0" encoding="us-ascii" standalone="no"?><svg xmlns="http://www.w3.org/2000/svg" xmlns:xlink="http://www.w3.org/1999/xlink" contentStyleType="text/css" height="625px" preserveAspectRatio="none" style="width:531px;height:625px;background:#FFFFFF;" version="1.1" viewBox="0 0 531 625" width="531px" zoomAndPan="magnify"><defs/><g><!--entity user--><g id="elem_user"><ellipse cx="19" cy="366.5" fill="#F1F1F1" rx="8" ry="8" style="stroke:#181818;stroke-width:0.5;"/><path d="M19,374.5 L19,401.5 M6,382.5 L32,382.5 M19,401.5 L6,416.5 M19,401.5 L32,416.5 " fill="none" style="stroke:#181818;stroke-width:0.5;"/><text fill="#000000" font-family="sans-serif" font-size="11" lengthAdjust="spacing" textLength="23" x="7.5" y="429.4189">User</text></g><!--entity userModel--><g id="elem_userModel"><ellipse cx="471" cy="387" fill="#F1F1F1" rx="12" ry="12" style="stroke:#181818;stroke-width:0.5;"/><line style="stroke:#181818;stroke-width:0.5;" x1="459" x2="483" y1="401" y2="401"/><text fill="#000000" font-family="sans-serif" font-size="11" lengthAdjust="spacing" textLength="51" x="445.5" y="414.4189">UserModel</text></g><!--entity eventModel--><g id="elem_eventModel"><ellipse cx="471" cy="225" fill="#F1F1F1" rx="12" ry="12" style="stroke:#181818;stroke-width:0.5;"/><line style="stroke:#181818;stroke-width:0.5;" x1="459" x2="483" y1="239" y2="239"/><text fill="#000000" font-family="sans-serif" font-size="11" lengthAdjust="spacing" textLength="55" x="443.5" y="252.4189">EventModel</text></g><!--entity socialInteractionModel--><g id="elem_socialInteractionModel"><ellipse cx="471" cy="104" fill="#F1F1F1" rx="12" ry="12" style="stroke:#181818;stroke-width:0.5;"/><line style="stroke:#181818;stroke-width:0.5;" x1="459" x2="483" y1="118" y2="118"/><text fill="#000000" font-family="sans-serif" font-size="11" lengthAdjust="spacing" textLength="107" x="417.5" y="131.4189">SocialInteractionModel</text></g><!--entity commentModel--><g id="elem_commentModel"><ellipse cx="471" cy="23" fill="#F1F1F1" rx="12" ry="12" style="stroke:#181818;stroke-width:0.5;"/><line style="stroke:#181818;stroke-width:0.5;" x1="459" x2="483" y1="37" y2="37"/><text fill="#000000" font-family="sans-serif" font-size="11" lengthAdjust="spacing" textLength="72" x="435" y="50.4189">CommentModel</text></g><!--entity followUserModel--><g id="elem_followUserModel"><ellipse cx="471" cy="509" fill="#F1F1F1" rx="12" ry="12" style="stroke:#181818;stroke-width:0.5;"/><line style="stroke:#181818;stroke-width:0.5;" x1="459" x2="483" y1="523" y2="523"/><text fill="#000000" font-family="sans-serif" font-size="11" lengthAdjust="spacing" textLength="83" x="429.5" y="536.4189">FollowUserModel</text></g><!--entity notificationModel--><g id="elem_notificationModel"><ellipse cx="471" cy="590" fill="#F1F1F1" rx="12" ry="12" style="stroke:#181818;stroke-width:0.5;"/><line style="stroke:#181818;stroke-width:0.5;" x1="459" x2="483" y1="604" y2="604"/><text fill="#000000" font-family="sans-serif" font-size="11" lengthAdjust="spacing" textLength="81" x="430.5" y="617.4189">NotificationModel</text></g><!--entity eventDetailsView--><g id="elem_eventDetailsView"><path d="M116,214 L116,238 M116,226 L133,226 " fill="none" style="stroke:#181818;stroke-width:0.5;"/><ellipse cx="145" cy="226" fill="#F1F1F1" rx="12" ry="12" style="stroke:#181818;stroke-width:0.5;"/><text fill="#000000" font-family="sans-serif" font-size="11" lengthAdjust="spacing" textLength="85" x="94" y="253.4189">EventDetailsView</text></g><!--entity profileDetailsView--><g id="elem_profileDetailsView"><path d="M116,416 L116,440 M116,428 L133,428 " fill="none" style="stroke:#181818;stroke-width:0.5;"/><ellipse cx="145" cy="428" fill="#F1F1F1" rx="12" ry="12" style="stroke:#181818;stroke-width:0.5;"/><text fill="#000000" font-family="sans-serif" font-size="11" lengthAdjust="spacing" textLength="88" x="92.5" y="455.4189">ProfileDetailsView</text></g><!--entity notificationsView--><g id="elem_notificationsView"><path d="M116,537 L116,561 M116,549 L133,549 " fill="none" style="stroke:#181818;stroke-width:0.5;"/><ellipse cx="145" cy="549" fill="#F1F1F1" rx="12" ry="12" style="stroke:#181818;stroke-width:0.5;"/><text fill="#000000" font-family="sans-serif" font-size="11" lengthAdjust="spacing" textLength="85" x="94" y="576.4189">NotificationsView</text></g><!--entity searchView--><g id="elem_searchView"><path d="M116,335 L116,359 M116,347 L133,347 " fill="none" style="stroke:#181818;stroke-width:0.5;"/><ellipse cx="145" cy="347" fill="#F1F1F1" rx="12" ry="12" style="stroke:#181818;stroke-width:0.5;"/><text fill="#000000" font-family="sans-serif" font-size="11" lengthAdjust="spacing" textLength="61" x="106" y="374.4189">SearchView</text></g><!--entity commentEventController--><g id="elem_commentEventController"><ellipse cx="299" cy="23" fill="#F1F1F1" rx="12" ry="12" style="stroke:#181818;stroke-width:0.5;"/><polygon fill="#181818" points="295,11,301,6,299,11,301,16,295,11" style="stroke:#181818;stroke-width:1.0;"/><text fill="#000000" font-family="sans-serif" font-size="11" lengthAdjust="spacing" textLength="117" x="240.5" y="50.4189">CommentEventController</text></g><!--entity likeEventController--><g id="elem_likeEventController"><ellipse cx="299" cy="104" fill="#F1F1F1" rx="12" ry="12" style="stroke:#181818;stroke-width:0.5;"/><polygon fill="#181818" points="295,92,301,87,299,92,301,97,295,92" style="stroke:#181818;stroke-width:1.0;"/><text fill="#000000" font-family="sans-serif" font-size="11" lengthAdjust="spacing" textLength="92" x="253" y="131.4189">LikeEventController</text></g><!--entity shareEventController--><g id="elem_shareEventController"><ellipse cx="299" cy="185" fill="#F1F1F1" rx="12" ry="12" style="stroke:#181818;stroke-width:0.5;"/><polygon fill="#181818" points="295,173,301,168,299,173,301,178,295,173" style="stroke:#181818;stroke-width:1.0;"/><text fill="#000000" font-family="sans-serif" font-size="11" lengthAdjust="spacing" textLength="102" x="248" y="212.4189">ShareEventController</text></g><!--entity followUserController--><g id="elem_followUserController"><ellipse cx="299" cy="509" fill="#F1F1F1" rx="12" ry="12" style="stroke:#181818;stroke-width:0.5;"/><polygon fill="#181818" points="295,497,301,492,299,497,301,502,295,497" style="stroke:#181818;stroke-width:1.0;"/><text fill="#000000" font-family="sans-serif" font-size="11" lengthAdjust="spacing" textLength="101" x="248.5" y="536.4189">FollowUserController</text></g><!--entity notificationsController--><g id="elem_notificationsController"><ellipse cx="299" cy="590" fill="#F1F1F1" rx="12" ry="12" style="stroke:#181818;stroke-width:0.5;"/><polygon fill="#181818" points="295,578,301,573,299,578,301,583,295,578" style="stroke:#181818;stroke-width:1.0;"/><text fill="#000000" font-family="sans-serif" font-size="11" lengthAdjust="spacing" textLength="105" x="246.5" y="617.4189">NotificationsController</text></g><!--entity searchProfileController--><g id="elem_searchProfileController"><ellipse cx="299" cy="347" fill="#F1F1F1" rx="12" ry="12" style="stroke:#181818;stroke-width:0.5;"/><polygon fill="#181818" points="295,335,301,330,299,335,301,340,295,335" style="stroke:#181818;stroke-width:1.0;"/><text fill="#000000" font-family="sans-serif" font-size="11" lengthAdjust="spacing" textLength="111" x="243.5" y="374.4189">SearchProfileController</text></g><!--entity eventDetailsController--><g id="elem_eventDetailsController"><ellipse cx="299" cy="266" fill="#F1F1F1" rx="12" ry="12" style="stroke:#181818;stroke-width:0.5;"/><polygon fill="#181818" points="295,254,301,249,299,254,301,259,295,254" style="stroke:#181818;stroke-width:1.0;"/><text fill="#000000" font-family="sans-serif" font-size="11" lengthAdjust="spacing" textLength="105" x="246.5" y="293.4189">EventDetailsController</text></g><!--entity profileController--><g id="elem_profileController"><ellipse cx="299" cy="428" fill="#F1F1F1" rx="12" ry="12" style="stroke:#181818;stroke-width:0.5;"/><polygon fill="#181818" points="295,416,301,411,299,416,301,421,295,416" style="stroke:#181818;stroke-width:1.0;"/><text fill="#000000" font-family="sans-serif" font-size="11" lengthAdjust="spacing" textLength="76" x="261" y="455.4189">ProfileController</text></g><!--link user to eventDetailsView--><g id="link_user_eventDetailsView"><path d="M32.58,377.35 C53.57,347.91 92.237,293.6755 115.557,260.9655 " fill="none" id="user-to-eventDetailsView" style="stroke:#181818;stroke-width:1.0;"/><polygon fill="#181818" points="119.04,256.08,110.5584,261.0863,116.1375,260.1513,117.0724,265.7303,119.04,256.08" style="stroke:#181818;stroke-width:1.0;"/></g><!--link user to profileDetailsView--><g id="link_user_profileDetailsView"><path d="M32.8,399.43 C47.13,404.4 65.4605,410.7461 86.6505,418.0861 " fill="none" id="user-to-profileDetailsView" style="stroke:#181818;stroke-width:1.0;"/><polygon fill="#181818" points="92.32,420.05,85.125,413.3245,87.5954,418.4135,82.5065,420.8839,92.32,420.05" style="stroke:#181818;stroke-width:1.0;"/></g><!--link user to notificationsView--><g id="link_user_notificationsView"><path d="M32.58,412.54 C53.51,441.71 91.9924,495.3549 115.3524,527.9149 " fill="none" id="user-to-notificationsView" style="stroke:#181818;stroke-width:1.0;"/><polygon fill="#181818" points="118.85,532.79,116.8536,523.1456,115.9353,528.7274,110.3535,527.8091,118.85,532.79" style="stroke:#181818;stroke-width:1.0;"/></g><!--link user to searchView--><g id="link_user_searchView"><path d="M32.8,390.46 C50.3,384.24 76.5651,374.9154 100.1951,366.5354 " fill="none" id="user-to-searchView" style="stroke:#181818;stroke-width:1.0;"/><polygon fill="#181818" points="105.85,364.53,96.0306,363.7682,101.1376,366.2012,98.7046,371.3081,105.85,364.53" style="stroke:#181818;stroke-width:1.0;"/></g><!--link eventDetailsView to eventDetailsController--><g id="link_eventDetailsView_eventDetailsController"><path d="M179.25,243.41 C199.78,248.52 218.888,253.2792 240.598,258.6892 " fill="none" id="eventDetailsView-to-eventDetailsController" style="stroke:#181818;stroke-width:1.0;"/><polygon fill="#181818" points="246.42,260.14,238.6543,254.0825,241.5684,258.931,236.7199,261.8451,246.42,260.14" style="stroke:#181818;stroke-width:1.0;"/></g><!--link eventDetailsView to commentEventController--><g id="link_eventDetailsView_commentEventController"><path d="M148.33,209.94 C164.85,176.44 198.85,113.54 240.5,70 C246.3,63.94 248.3225,61.803 255.2325,56.703 " fill="none" id="eventDetailsView-to-commentEventController" style="stroke:#181818;stroke-width:1.0;"/><polygon fill="#181818" points="260.06,53.14,250.4434,55.2662,256.0371,56.1092,255.1941,61.7029,260.06,53.14" style="stroke:#181818;stroke-width:1.0;"/></g><!--link eventDetailsView to likeEventController--><g id="link_eventDetailsView_likeEventController"><path d="M165.53,209.88 C186.03,193.17 214.65,170.25 240.5,151 C248.01,145.41 251.2808,142.9953 259.0708,137.5553 " fill="none" id="eventDetailsView-to-likeEventController" style="stroke:#181818;stroke-width:1.0;"/><polygon fill="#181818" points="263.99,134.12,254.321,135.9934,259.8906,136.9827,258.9013,142.5524,263.99,134.12" style="stroke:#181818;stroke-width:1.0;"/></g><!--link eventDetailsView to shareEventController--><g id="link_eventDetailsView_shareEventController"><path d="M179.25,222.33 C200.24,216.97 220.0265,211.9144 242.0765,206.2844 " fill="none" id="eventDetailsView-to-shareEventController" style="stroke:#181818;stroke-width:1.0;"/><polygon fill="#181818" points="247.89,204.8,238.1802,203.1509,243.0454,206.037,240.1593,210.9022,247.89,204.8" style="stroke:#181818;stroke-width:1.0;"/></g><!--link eventDetailsView to profileController--><g id="link_eventDetailsView_profileController"><path d="M150.89,256.26 C173.53,295.16 219.01,371.4 240.5,394 C246.58,400.4 248.9788,402.8549 256.1988,408.2349 " fill="none" id="eventDetailsView-to-profileController" style="stroke:#181818;stroke-width:1.0;"/><polygon fill="#181818" points="261.01,411.82,256.1833,403.235,257.0007,408.8325,251.4032,409.6499,261.01,411.82" style="stroke:#181818;stroke-width:1.0;"/></g><!--link profileDetailsView to followUserController--><g id="link_profileDetailsView_followUserController"><path d="M180.51,456.71 C202.7,467.91 224.4239,478.8658 246.9839,490.2558 " fill="none" id="profileDetailsView-to-followUserController" style="stroke:#181818;stroke-width:1.0;"/><polygon fill="#181818" points="252.34,492.96,246.1087,485.3331,247.8766,490.7065,242.5031,492.4745,252.34,492.96" style="stroke:#181818;stroke-width:1.0;"/></g><!--link notificationsView to notificationsController--><g id="link_notificationsView_notificationsController"><path d="M179.25,566.67 C199.78,571.91 218.8963,576.7964 240.6063,582.3364 " fill="none" id="notificationsView-to-notificationsController" style="stroke:#181818;stroke-width:1.0;"/><polygon fill="#181818" points="246.42,583.82,238.6885,577.7189,241.5753,582.5837,236.7104,585.4705,246.42,583.82" style="stroke:#181818;stroke-width:1.0;"/></g><!--link searchView to searchProfileController--><g id="link_searchView_searchProfileController"><path d="M167.31,354 C188.62,354 211.9,354 237.34,354 " fill="none" id="searchView-to-searchProfileController" style="stroke:#181818;stroke-width:1.0;"/><polygon fill="#181818" points="243.34,354,234.34,350,238.34,354,234.34,358,243.34,354" style="stroke:#181818;stroke-width:1.0;"/></g><!--link profileDetailsView to profileController--><g id="link_profileDetailsView_profileController"><path d="M180.51,435 C205.58,435 230.88,435 254.87,435 " fill="none" id="profileDetailsView-to-profileController" style="stroke:#181818;stroke-width:1.0;"/><polygon fill="#181818" points="260.87,435,251.87,431,255.87,435,251.87,439,260.87,435" style="stroke:#181818;stroke-width:1.0;"/></g><!--link profileController to userModel--><g id="link_profileController_userModel"><path d="M337.31,426 C370.15,418.08 411.1969,408.1753 439.5469,401.3453 " fill="none" id="profileController-to-userModel" style="stroke:#181818;stroke-width:1.0;"/><polygon fill="#181818" points="445.38,399.94,435.6935,398.1592,440.5191,401.1111,437.5672,405.9367,445.38,399.94" style="stroke:#181818;stroke-width:1.0;"/></g><!--link eventDetailsController to eventModel--><g id="link_eventDetailsController_eventModel"><path d="M351.93,260.48 C382,253.22 412.7868,245.7951 437.1968,239.9151 " fill="none" id="eventDetailsController-to-eventModel" style="stroke:#181818;stroke-width:1.0;"/><polygon fill="#181818" points="443.03,238.51,433.3435,236.7289,438.169,239.6809,435.217,244.5064,443.03,238.51" style="stroke:#181818;stroke-width:1.0;"/></g><!--link commentEventController to commentModel--><g id="link_commentEventController_commentModel"><path d="M357.55,30 C383.18,30 406.53,30 428.81,30 " fill="none" id="commentEventController-to-commentModel" style="stroke:#181818;stroke-width:1.0;"/><polygon fill="#181818" points="434.81,30,425.81,26,429.81,30,425.81,34,434.81,30" style="stroke:#181818;stroke-width:1.0;"/></g><!--link likeEventController to socialInteractionModel--><g id="link_likeEventController_socialInteractionModel"><path d="M345.11,111 C367.34,111 388.28,111 411.44,111 " fill="none" id="likeEventController-to-socialInteractionModel" style="stroke:#181818;stroke-width:1.0;"/><polygon fill="#181818" points="417.44,111,408.44,107,412.44,111,408.44,115,417.44,111" style="stroke:#181818;stroke-width:1.0;"/></g><!--link shareEventController to eventModel--><g id="link_shareEventController_eventModel"><path d="M350.09,203.78 C380.64,210.97 412.6496,218.5055 437.5496,224.3655 " fill="none" id="shareEventController-to-eventModel" style="stroke:#181818;stroke-width:1.0;"/><polygon fill="#181818" points="443.39,225.74,435.5457,219.7846,438.523,224.5946,433.713,227.5719,443.39,225.74" style="stroke:#181818;stroke-width:1.0;"/></g><!--link followUserController to followUserModel--><g id="link_followUserController_followUserModel"><path d="M349.63,516 C375.01,516 399.52,516 423.47,516 " fill="none" id="followUserController-to-followUserModel" style="stroke:#181818;stroke-width:1.0;"/><polygon fill="#181818" points="429.47,516,420.47,512,424.47,516,420.47,520,429.47,516" style="stroke:#181818;stroke-width:1.0;"/></g><!--link notificationsController to notificationModel--><g id="link_notificationsController_notificationModel"><path d="M351.93,597 C377.12,597 400.91,597 424.26,597 " fill="none" id="notificationsController-to-notificationModel" style="stroke:#181818;stroke-width:1.0;"/><polygon fill="#181818" points="430.26,597,421.26,593,425.26,597,421.26,601,430.26,597" style="stroke:#181818;stroke-width:1.0;"/></g><!--link searchProfileController to userModel--><g id="link_searchProfileController_userModel"><path d="M354.72,366.88 C385.2,374.05 415.8099,381.244 439.4499,386.814 " fill="none" id="searchProfileController-to-userModel" style="stroke:#181818;stroke-width:1.0;"/><polygon fill="#181818" points="445.29,388.19,437.4472,382.2326,440.4233,387.0433,435.6125,390.0193,445.29,388.19" style="stroke:#181818;stroke-width:1.0;"/></g><!--SRC=[ZLH1RiCW4Bpp2fHx3lb0fIfjf4fj5SbjxnIlarKmM82Rfg-lOxk0OIFrOfcT6RFCh74dr9smekNENnGCJulIzwrY2XhFlU4M3qVFQxGWFHhDN53Kq8XU-JVuzlSA3xe5xRaS7c1BriveN-4FyCs6CI6ziNprxi2kk72y7ruO6vJeBrFvnTIW0ZQk0lxuDRn50eHbO5H6eb1Frqx4s7LaEn8AogrfsyNNPL88h9rHofoNVJRBMk2-6eyDIh5iG-TLnZvDhsjX_mxu05wWSXy8vtZCf9ZmzzOqg21NT4KvqQHjHOdEgucY0c7bCL1TM38cXt2jKS6-yG3RgQZcZ2K9HUapde3IgR8UHTLHM5Bb223AOdwPh260A5jubYarZIMjZdxDKUNTqbWKfnEHQO64efJUiIlsOjSVZQ_NT-Ma1OIOg82LenEWT5JoZnSx9YsHt1jpH7AfsI69vBYGpDAuqfIHI8vIOL9fNSAElYKsxl_R014nAseZCxbYoI1YHXEBZY1DP-8Hzay7eUzWAeHyQyhLpEw9UCFJmkzvQzhQp9rV]--></g></svg>