<?xml version="1.0" encoding="us-ascii" standalone="no"?><svg xmlns="http://www.w3.org/2000/svg" xmlns:xlink="http://www.w3.org/1999/xlink" contentStyleType="text/css" height="949px" preserveAspectRatio="none" style="width:496px;height:949px;background:#FFFFFF;" version="1.1" viewBox="0 0 496 949" width="496px" zoomAndPan="magnify"><defs/><g><!--entity user--><g id="elem_user"><ellipse cx="19" cy="447.5" fill="#F1F1F1" rx="8" ry="8" style="stroke:#181818;stroke-width:0.5;"/><path d="M19,455.5 L19,482.5 M6,463.5 L32,463.5 M19,482.5 L6,497.5 M19,482.5 L32,497.5 " fill="none" style="stroke:#181818;stroke-width:0.5;"/><text fill="#000000" font-family="sans-serif" font-size="11" lengthAdjust="spacing" textLength="23" x="7.5" y="510.4189">User</text></g><!--entity userModel--><g id="elem_userModel"><ellipse cx="453.5" cy="914" fill="#F1F1F1" rx="12" ry="12" style="stroke:#181818;stroke-width:0.5;"/><line style="stroke:#181818;stroke-width:0.5;" x1="441.5" x2="465.5" y1="928" y2="928"/><text fill="#000000" font-family="sans-serif" font-size="11" lengthAdjust="spacing" textLength="51" x="428" y="941.4189">UserModel</text></g><!--entity eventModel--><g id="elem_eventModel"><ellipse cx="453.5" cy="388" fill="#F1F1F1" rx="12" ry="12" style="stroke:#181818;stroke-width:0.5;"/><line style="stroke:#181818;stroke-width:0.5;" x1="441.5" x2="465.5" y1="402" y2="402"/><text fill="#000000" font-family="sans-serif" font-size="11" lengthAdjust="spacing" textLength="55" x="426" y="415.4189">EventModel</text></g><!--entity commentModel--><g id="elem_commentModel"><ellipse cx="453.5" cy="752" fill="#F1F1F1" rx="12" ry="12" style="stroke:#181818;stroke-width:0.5;"/><line style="stroke:#181818;stroke-width:0.5;" x1="441.5" x2="465.5" y1="766" y2="766"/><text fill="#000000" font-family="sans-serif" font-size="11" lengthAdjust="spacing" textLength="72" x="417.5" y="779.4189">CommentModel</text></g><!--entity addEventView--><g id="elem_addEventView"><path d="M114.5,214 L114.5,238 M114.5,226 L131.5,226 " fill="none" style="stroke:#181818;stroke-width:0.5;"/><ellipse cx="143.5" cy="226" fill="#F1F1F1" rx="12" ry="12" style="stroke:#181818;stroke-width:0.5;"/><text fill="#000000" font-family="sans-serif" font-size="11" lengthAdjust="spacing" textLength="73" x="98.5" y="253.4189">AddEventView</text></g><!--entity editEventView--><g id="elem_editEventView"><path d="M114.5,457 L114.5,481 M114.5,469 L131.5,469 " fill="none" style="stroke:#181818;stroke-width:0.5;"/><ellipse cx="143.5" cy="469" fill="#F1F1F1" rx="12" ry="12" style="stroke:#181818;stroke-width:0.5;"/><text fill="#000000" font-family="sans-serif" font-size="11" lengthAdjust="spacing" textLength="70" x="100" y="496.4189">EditEventView</text></g><!--entity eventDetailsView--><g id="elem_eventDetailsView"><path d="M114.5,659 L114.5,683 M114.5,671 L131.5,671 " fill="none" style="stroke:#181818;stroke-width:0.5;"/><ellipse cx="143.5" cy="671" fill="#F1F1F1" rx="12" ry="12" style="stroke:#181818;stroke-width:0.5;"/><text fill="#000000" font-family="sans-serif" font-size="11" lengthAdjust="spacing" textLength="85" x="92.5" y="698.4189">EventDetailsView</text></g><!--entity searchView--><g id="elem_searchView"><path d="M114.5,52 L114.5,76 M114.5,64 L131.5,64 " fill="none" style="stroke:#181818;stroke-width:0.5;"/><ellipse cx="143.5" cy="64" fill="#F1F1F1" rx="12" ry="12" style="stroke:#181818;stroke-width:0.5;"/><text fill="#000000" font-family="sans-serif" font-size="11" lengthAdjust="spacing" textLength="61" x="104.5" y="91.4189">SearchView</text></g><!--entity homeView--><g id="elem_homeView"><path d="M114.5,780 L114.5,804 M114.5,792 L131.5,792 " fill="none" style="stroke:#181818;stroke-width:0.5;"/><ellipse cx="143.5" cy="792" fill="#F1F1F1" rx="12" ry="12" style="stroke:#181818;stroke-width:0.5;"/><text fill="#000000" font-family="sans-serif" font-size="11" lengthAdjust="spacing" textLength="53" x="108.5" y="819.4189">HomeView</text></g><!--entity addEventController--><g id="elem_addEventController"><ellipse cx="297.5" cy="104" fill="#F1F1F1" rx="12" ry="12" style="stroke:#181818;stroke-width:0.5;"/><polygon fill="#181818" points="293.5,92,299.5,87,297.5,92,299.5,97,293.5,92" style="stroke:#181818;stroke-width:1.0;"/><text fill="#000000" font-family="sans-serif" font-size="11" lengthAdjust="spacing" textLength="93" x="251" y="131.4189">AddEventController</text></g><!--entity uploadFileController--><g id="elem_uploadFileController"><ellipse cx="297.5" cy="185" fill="#F1F1F1" rx="12" ry="12" style="stroke:#181818;stroke-width:0.5;"/><polygon fill="#181818" points="293.5,173,299.5,168,297.5,173,299.5,178,293.5,173" style="stroke:#181818;stroke-width:1.0;"/><text fill="#000000" font-family="sans-serif" font-size="11" lengthAdjust="spacing" textLength="95" x="250" y="212.4189">UploadFileController</text></g><!--entity uploadLocationController--><g id="elem_uploadLocationController"><ellipse cx="297.5" cy="266" fill="#F1F1F1" rx="12" ry="12" style="stroke:#181818;stroke-width:0.5;"/><polygon fill="#181818" points="293.5,254,299.5,249,297.5,254,299.5,259,293.5,254" style="stroke:#181818;stroke-width:1.0;"/><text fill="#000000" font-family="sans-serif" font-size="11" lengthAdjust="spacing" textLength="120" x="237.5" y="293.4189">UploadLocationController</text></g><!--entity editEventController--><g id="elem_editEventController"><ellipse cx="297.5" cy="347" fill="#F1F1F1" rx="12" ry="12" style="stroke:#181818;stroke-width:0.5;"/><polygon fill="#181818" points="293.5,335,299.5,330,297.5,335,299.5,340,293.5,335" style="stroke:#181818;stroke-width:1.0;"/><text fill="#000000" font-family="sans-serif" font-size="11" lengthAdjust="spacing" textLength="90" x="252.5" y="374.4189">EditEventController</text></g><!--entity editImageController--><g id="elem_editImageController"><ellipse cx="297.5" cy="428" fill="#F1F1F1" rx="12" ry="12" style="stroke:#181818;stroke-width:0.5;"/><polygon fill="#181818" points="293.5,416,299.5,411,297.5,416,299.5,421,293.5,416" style="stroke:#181818;stroke-width:1.0;"/><text fill="#000000" font-family="sans-serif" font-size="11" lengthAdjust="spacing" textLength="91" x="252" y="455.4189">EditImageController</text></g><!--entity deleteMusicController--><g id="elem_deleteMusicController"><ellipse cx="297.5" cy="509" fill="#F1F1F1" rx="12" ry="12" style="stroke:#181818;stroke-width:0.5;"/><polygon fill="#181818" points="293.5,497,299.5,492,297.5,497,299.5,502,293.5,497" style="stroke:#181818;stroke-width:1.0;"/><text fill="#000000" font-family="sans-serif" font-size="11" lengthAdjust="spacing" textLength="104" x="245.5" y="536.4189">DeleteMusicController</text></g><!--entity deleteLocationController--><g id="elem_deleteLocationController"><ellipse cx="297.5" cy="590" fill="#F1F1F1" rx="12" ry="12" style="stroke:#181818;stroke-width:0.5;"/><polygon fill="#181818" points="293.5,578,299.5,573,297.5,578,299.5,583,293.5,578" style="stroke:#181818;stroke-width:1.0;"/><text fill="#000000" font-family="sans-serif" font-size="11" lengthAdjust="spacing" textLength="117" x="239" y="617.4189">DeleteLocationController</text></g><!--entity eventDetailsController--><g id="elem_eventDetailsController"><ellipse cx="297.5" cy="671" fill="#F1F1F1" rx="12" ry="12" style="stroke:#181818;stroke-width:0.5;"/><polygon fill="#181818" points="293.5,659,299.5,654,297.5,659,299.5,664,293.5,659" style="stroke:#181818;stroke-width:1.0;"/><text fill="#000000" font-family="sans-serif" font-size="11" lengthAdjust="spacing" textLength="105" x="245" y="698.4189">EventDetailsController</text></g><!--entity searchEventController--><g id="elem_searchEventController"><ellipse cx="297.5" cy="23" fill="#F1F1F1" rx="12" ry="12" style="stroke:#181818;stroke-width:0.5;"/><polygon fill="#181818" points="293.5,11,299.5,6,297.5,11,299.5,16,293.5,11" style="stroke:#181818;stroke-width:1.0;"/><text fill="#000000" font-family="sans-serif" font-size="11" lengthAdjust="spacing" textLength="108" x="243.5" y="50.4189">SearchEventController</text></g><!--entity listEventsController--><g id="elem_listEventsController"><ellipse cx="297.5" cy="833" fill="#F1F1F1" rx="12" ry="12" style="stroke:#181818;stroke-width:0.5;"/><polygon fill="#181818" points="293.5,821,299.5,816,297.5,821,299.5,826,293.5,821" style="stroke:#181818;stroke-width:1.0;"/><text fill="#000000" font-family="sans-serif" font-size="11" lengthAdjust="spacing" textLength="96" x="249.5" y="860.4189">ListEventsController</text></g><!--entity commentEventController--><g id="elem_commentEventController"><ellipse cx="297.5" cy="752" fill="#F1F1F1" rx="12" ry="12" style="stroke:#181818;stroke-width:0.5;"/><polygon fill="#181818" points="293.5,740,299.5,735,297.5,740,299.5,745,293.5,740" style="stroke:#181818;stroke-width:1.0;"/><text fill="#000000" font-family="sans-serif" font-size="11" lengthAdjust="spacing" textLength="117" x="239" y="779.4189">CommentEventController</text></g><!--entity profileController--><g id="elem_profileController"><ellipse cx="297.5" cy="914" fill="#F1F1F1" rx="12" ry="12" style="stroke:#181818;stroke-width:0.5;"/><polygon fill="#181818" points="293.5,902,299.5,897,297.5,902,299.5,907,293.5,902" style="stroke:#181818;stroke-width:1.0;"/><text fill="#000000" font-family="sans-serif" font-size="11" lengthAdjust="spacing" textLength="76" x="259.5" y="941.4189">ProfileController</text></g><!--link user to addEventView--><g id="link_user_addEventView"><path d="M32.64,449.07 C55.19,401 99.4308,306.6816 120.6208,261.5316 " fill="none" id="user-to-addEventView" style="stroke:#181818;stroke-width:1.0;"/><polygon fill="#181818" points="123.17,256.1,115.7252,262.5479,121.0457,260.6263,122.9673,265.9468,123.17,256.1" style="stroke:#181818;stroke-width:1.0;"/></g><!--link user to editEventView--><g id="link_user_editEventView"><path d="M32.64,476 C48.75,476 71.25,476 93.93,476 " fill="none" id="user-to-editEventView" style="stroke:#181818;stroke-width:1.0;"/><polygon fill="#181818" points="99.93,476,90.93,472,94.93,476,90.93,480,99.93,476" style="stroke:#181818;stroke-width:1.0;"/></g><!--link user to eventDetailsView--><g id="link_user_eventDetailsView"><path d="M32.64,498.39 C54.43,537.01 95.9308,610.5448 118.0108,649.6648 " fill="none" id="user-to-eventDetailsView" style="stroke:#181818;stroke-width:1.0;"/><polygon fill="#181818" points="120.96,654.89,120.0197,645.0861,118.5024,650.5357,113.0528,649.0184,120.96,654.89" style="stroke:#181818;stroke-width:1.0;"/></g><!--link user to searchView--><g id="link_user_searchView"><path d="M28.45,438.98 C41.1,384.52 66.29,279.77 92.5,192 C102.79,157.53 114.6282,123.8683 123.4382,99.6583 " fill="none" id="user-to-searchView" style="stroke:#181818;stroke-width:1.0;"/><polygon fill="#181818" points="125.49,94.02,118.6535,101.1096,123.7802,98.7186,126.1712,103.8453,125.49,94.02" style="stroke:#181818;stroke-width:1.0;"/></g><!--link user to homeView--><g id="link_user_homeView"><path d="M28.81,513.38 C40.74,561.74 63.87,648.19 92.5,719 C100.48,738.73 108.7637,754.832 117.5237,770.512 " fill="none" id="user-to-homeView" style="stroke:#181818;stroke-width:1.0;"/><polygon fill="#181818" points="120.45,775.75,119.5525,765.9421,118.0114,771.385,112.5685,769.8439,120.45,775.75" style="stroke:#181818;stroke-width:1.0;"/></g><!--link addEventView to addEventController--><g id="link_addEventView_addEventController"><path d="M163.51,209.74 C183.65,192.96 211.84,170.02 237.5,151 C245.16,145.33 248.5833,142.831 256.5733,137.381 " fill="none" id="addEventView-to-addEventController" style="stroke:#181818;stroke-width:1.0;"/><polygon fill="#181818" points="261.53,134,251.8409,135.767,257.3994,136.8175,256.3489,142.3759,261.53,134" style="stroke:#181818;stroke-width:1.0;"/></g><!--link addEventView to uploadFileController--><g id="link_addEventView_uploadFileController"><path d="M171.62,223.9 C194.62,218.03 218.9669,211.8059 243.8869,205.4359 " fill="none" id="addEventView-to-uploadFileController" style="stroke:#181818;stroke-width:1.0;"/><polygon fill="#181818" points="249.7,203.95,239.9897,202.3035,244.8558,205.1883,241.971,210.0543,249.7,203.95" style="stroke:#181818;stroke-width:1.0;"/></g><!--link addEventView to uploadLocationController--><g id="link_addEventView_uploadLocationController"><path d="M171.62,241.88 C190.92,246.69 209.4481,251.3091 231.5181,256.8091 " fill="none" id="addEventView-to-uploadLocationController" style="stroke:#181818;stroke-width:1.0;"/><polygon fill="#181818" points="237.34,258.26,229.5743,252.2024,232.4884,257.0509,227.6398,259.965,237.34,258.26" style="stroke:#181818;stroke-width:1.0;"/></g><!--link editEventView to editEventController--><g id="link_editEventView_editEventController"><path d="M163.51,452.74 C183.65,435.96 211.84,413.02 237.5,394 C245.16,388.33 248.5833,385.831 256.5733,380.381 " fill="none" id="editEventView-to-editEventController" style="stroke:#181818;stroke-width:1.0;"/><polygon fill="#181818" points="261.53,377,251.8409,378.767,257.3994,379.8175,256.3489,385.3759,261.53,377" style="stroke:#181818;stroke-width:1.0;"/></g><!--link editEventView to editImageController--><g id="link_editEventView_editImageController"><path d="M170.04,467.3 C193.87,461.22 220.1365,454.5043 246.0265,447.8943 " fill="none" id="editEventView-to-editImageController" style="stroke:#181818;stroke-width:1.0;"/><polygon fill="#181818" points="251.84,446.41,242.1302,444.7607,246.9954,447.6469,244.1092,452.5121,251.84,446.41" style="stroke:#181818;stroke-width:1.0;"/></g><!--link editEventView to deleteMusicController--><g id="link_editEventView_deleteMusicController"><path d="M170.04,484.48 C191.94,489.94 214.9782,495.6787 239.6082,501.8187 " fill="none" id="editEventView-to-deleteMusicController" style="stroke:#181818;stroke-width:1.0;"/><polygon fill="#181818" points="245.43,503.27,237.6648,497.2118,240.5785,502.0606,235.7297,504.9742,245.43,503.27" style="stroke:#181818;stroke-width:1.0;"/></g><!--link editEventView to deleteLocationController--><g id="link_editEventView_deleteLocationController"><path d="M163.98,499.29 C184.11,515.82 212.08,538.29 237.5,557 C245.17,562.65 248.6133,565.139 256.6033,570.589 " fill="none" id="editEventView-to-deleteLocationController" style="stroke:#181818;stroke-width:1.0;"/><polygon fill="#181818" points="261.56,573.97,256.3789,565.5941,257.4294,571.1525,251.8709,572.203,261.56,573.97" style="stroke:#181818;stroke-width:1.0;"/></g><!--link eventDetailsView to eventDetailsController--><g id="link_eventDetailsView_eventDetailsController"><path d="M177.75,678 C198.28,678 217.21,678 238.92,678 " fill="none" id="eventDetailsView-to-eventDetailsController" style="stroke:#181818;stroke-width:1.0;"/><polygon fill="#181818" points="244.92,678,235.92,674,239.92,678,235.92,682,244.92,678" style="stroke:#181818;stroke-width:1.0;"/></g><!--link eventDetailsView to commentEventController--><g id="link_eventDetailsView_commentEventController"><path d="M177.75,699.07 C200.13,710.37 222.4033,721.6071 245.3733,733.1971 " fill="none" id="eventDetailsView-to-commentEventController" style="stroke:#181818;stroke-width:1.0;"/><polygon fill="#181818" points="250.73,735.9,244.4968,728.2746,246.2661,733.6476,240.893,735.4169,250.73,735.9" style="stroke:#181818;stroke-width:1.0;"/></g><!--link searchView to searchEventController--><g id="link_searchView_searchEventController"><path d="M165.81,63.38 C187.57,57.83 211.8365,51.6243 237.6465,45.0343 " fill="none" id="searchView-to-searchEventController" style="stroke:#181818;stroke-width:1.0;"/><polygon fill="#181818" points="243.46,43.55,233.7502,41.9009,238.6154,44.787,235.7293,49.6522,243.46,43.55" style="stroke:#181818;stroke-width:1.0;"/></g><!--link homeView to listEventsController--><g id="link_homeView_listEventsController"><path d="M161.79,805.59 C185.36,811.61 214.9868,819.1747 243.5968,826.4847 " fill="none" id="homeView-to-listEventsController" style="stroke:#181818;stroke-width:1.0;"/><polygon fill="#181818" points="249.41,827.97,241.6803,821.8665,244.5656,826.7322,239.6999,829.6175,249.41,827.97" style="stroke:#181818;stroke-width:1.0;"/></g><!--link homeView to profileController--><g id="link_homeView_profileController"><path d="M161.81,820.85 C182.05,837.74 211.11,861.45 237.5,881 C245.16,886.67 248.5833,889.169 256.5733,894.619 " fill="none" id="homeView-to-profileController" style="stroke:#181818;stroke-width:1.0;"/><polygon fill="#181818" points="261.53,898,256.3489,889.6241,257.3994,895.1825,251.8409,896.233,261.53,898" style="stroke:#181818;stroke-width:1.0;"/></g><!--link homeView to commentEventController--><g id="link_homeView_commentEventController"><path d="M161.79,792.57 C182.52,787.41 206.6184,781.4021 232.9984,774.8221 " fill="none" id="homeView-to-commentEventController" style="stroke:#181818;stroke-width:1.0;"/><polygon fill="#181818" points="238.82,773.37,229.1195,771.6671,233.9686,774.5801,231.0556,779.4292,238.82,773.37" style="stroke:#181818;stroke-width:1.0;"/></g><!--link addEventController to eventModel--><g id="link_addEventController_eventModel"><path d="M339.65,134.07 C346.21,139.04 352.49,144.71 357.5,151 C412.77,220.31 437.7723,319.7187 447.1123,365.9687 " fill="none" id="addEventController-to-eventModel" style="stroke:#181818;stroke-width:1.0;"/><polygon fill="#181818" points="448.3,371.85,450.4393,362.2363,447.3103,366.9489,442.5976,363.8199,448.3,371.85" style="stroke:#181818;stroke-width:1.0;"/></g><!--link uploadFileController to eventModel--><g id="link_uploadFileController_eventModel"><path d="M337.93,215.08 C344.9,220.15 351.76,225.85 357.5,232 C397.75,275.08 425.9677,332.6676 440.5977,366.3176 " fill="none" id="uploadFileController-to-eventModel" style="stroke:#181818;stroke-width:1.0;"/><polygon fill="#181818" points="442.99,371.82,443.0699,361.9715,440.9964,367.2346,435.7333,365.1612,442.99,371.82" style="stroke:#181818;stroke-width:1.0;"/></g><!--link uploadLocationController to eventModel--><g id="link_uploadLocationController_eventModel"><path d="M333.92,296.03 C341.8,301.43 350.04,307.28 357.5,313 C382.06,331.82 404.1422,350.974 422.9122,367.884 " fill="none" id="uploadLocationController-to-eventModel" style="stroke:#181818;stroke-width:1.0;"/><polygon fill="#181818" points="427.37,371.9,423.3607,362.9041,423.6552,368.5533,418.006,368.8478,427.37,371.9" style="stroke:#181818;stroke-width:1.0;"/></g><!--link editImageController to eventModel--><g id="link_editImageController_eventModel"><path d="M343.04,423.43 C369.87,416.46 397.3224,409.3274 420.0924,403.4174 " fill="none" id="editImageController-to-eventModel" style="stroke:#181818;stroke-width:1.0;"/><polygon fill="#181818" points="425.9,401.91,416.1837,400.2993,421.0604,403.1661,418.1936,408.0428,425.9,401.91" style="stroke:#181818;stroke-width:1.0;"/></g><!--link deleteMusicController to eventModel--><g id="link_deleteMusicController_eventModel"><path d="M333.89,492.93 C341.78,487.54 350.02,481.7 357.5,476 C381.81,457.48 403.6715,438.7716 422.4415,422.1216 " fill="none" id="deleteMusicController-to-eventModel" style="stroke:#181818;stroke-width:1.0;"/><polygon fill="#181818" points="426.93,418.14,417.5428,421.12,423.1895,421.458,422.8516,427.1047,426.93,418.14" style="stroke:#181818;stroke-width:1.0;"/></g><!--link deleteLocationController to eventModel--><g id="link_deleteLocationController_eventModel"><path d="M337.92,573.9 C344.89,568.84 351.75,563.14 357.5,557 C397.62,514.17 425.8802,456.9748 440.5502,423.5248 " fill="none" id="deleteLocationController-to-eventModel" style="stroke:#181818;stroke-width:1.0;"/><polygon fill="#181818" points="442.96,418.03,435.6821,424.6656,440.9518,422.609,443.0085,427.8787,442.96,418.03" style="stroke:#181818;stroke-width:1.0;"/></g><!--link editEventController to eventModel--><g id="link_editEventController_eventModel"><path d="M342.63,365.75 C369.47,372.9 397.0717,380.2473 419.9617,386.3373 " fill="none" id="editEventController-to-eventModel" style="stroke:#181818;stroke-width:1.0;"/><polygon fill="#181818" points="425.76,387.88,418.091,381.7005,420.9281,386.5944,416.0341,389.4315,425.76,387.88" style="stroke:#181818;stroke-width:1.0;"/></g><!--link eventDetailsController to eventModel--><g id="link_eventDetailsController_eventModel"><path d="M339.64,654.92 C346.21,649.96 352.48,644.29 357.5,638 C412.62,568.98 437.6912,469.989 447.0812,423.939 " fill="none" id="eventDetailsController-to-eventModel" style="stroke:#181818;stroke-width:1.0;"/><polygon fill="#181818" points="448.28,418.06,442.5625,426.0793,447.281,422.9592,450.4012,427.6777,448.28,418.06" style="stroke:#181818;stroke-width:1.0;"/></g><!--link searchEventController to eventModel--><g id="link_searchEventController_eventModel"><path d="M340.71,53.18 C347,58.08 352.91,63.7 357.5,70 C427.95,166.68 445.9445,309.0397 450.5545,365.8197 " fill="none" id="searchEventController-to-eventModel" style="stroke:#181818;stroke-width:1.0;"/><polygon fill="#181818" points="451.04,371.8,454.2986,362.5058,450.6354,366.8164,446.3248,363.1532,451.04,371.8" style="stroke:#181818;stroke-width:1.0;"/></g><!--link listEventsController to eventModel--><g id="link_listEventsController_eventModel"><path d="M341.3,816.79 C347.45,811.93 353.15,806.32 357.5,800 C443.07,675.65 452.1964,490.3998 452.6764,424.3698 " fill="none" id="listEventsController-to-eventModel" style="stroke:#181818;stroke-width:1.0;"/><polygon fill="#181818" points="452.72,418.37,448.6547,427.3407,452.6837,423.3699,456.6545,427.3988,452.72,418.37" style="stroke:#181818;stroke-width:1.0;"/></g><!--link commentEventController to commentModel--><g id="link_commentEventController_commentModel"><path d="M356.28,759 C376.77,759 393.19,759 411.23,759 " fill="none" id="commentEventController-to-commentModel" style="stroke:#181818;stroke-width:1.0;"/><polygon fill="#181818" points="417.23,759,408.23,755,412.23,759,408.23,763,417.23,759" style="stroke:#181818;stroke-width:1.0;"/></g><!--link profileController to userModel--><g id="link_profileController_userModel"><path d="M335.78,921 C364.26,921 396.74,921 421.59,921 " fill="none" id="profileController-to-userModel" style="stroke:#181818;stroke-width:1.0;"/><polygon fill="#181818" points="427.59,921,418.59,917,422.59,921,418.59,925,427.59,921" style="stroke:#181818;stroke-width:1.0;"/></g><!--SRC=[ZPNBRi8m44Nt_WghUnRyG2N4Gwq4KYLAzwuzW5KdHhRJbdvz0w5-Z2UYcoYUEHVRSsU2_z3jIJZHS1_E1lgdqp9qZM46ze47ovq-70DNse4CshRCHuM2lUXCU8NlC3Fwq3RG1Yxx1xYQMjasRFKFyEcKCI63TVnXvy4zSE5vrxymrYjrE0_XZLLWOkwwYldbP_-M08ZBICnjqnICp0AClTkkLSBru4ofww-zQVYwWY8BPDnIwL22a4ToyX9RG13Q-0IZOCPlGJXvZAIFounviWr4udXRC2RxaZfhqYtcGy3SgYggS9BiJiOAjT86aAWZ4bYsjb9SUe6KriaaZsL4IgZZfUYv4GSWH2YUH0im463JUIsHJ54PB1oveHf9PeVDdCRd9LD9EdG2LHvFPP9mhVrGFRoZ8H99TXiIQaD9ffBqnTbztJed76NiChnyCdaivof6oo5AOJmkCPEDHuobWSWtANRDZbGnPCEFK8JpnHNAIzsbSFVM5DsiOnnrF5JAghxts95MI4Palc3epvahGZPZGTJzKwH7Ji9gazCbXmy-PJ7Dr1N47E4RHaZJQEX_-zsv7cqdfaYBC4IPX1dQXzoYWQli70Of_ft_0W00]--></g></svg>