<?xml version="1.0" encoding="us-ascii" standalone="no"?><svg xmlns="http://www.w3.org/2000/svg" xmlns:xlink="http://www.w3.org/1999/xlink" contentStyleType="text/css" height="463px" preserveAspectRatio="none" style="width:516px;height:463px;background:#FFFFFF;" version="1.1" viewBox="0 0 516 463" width="516px" zoomAndPan="magnify"><defs/><g><!--entity user--><g id="elem_user"><ellipse cx="19" cy="204.5" fill="#F1F1F1" rx="8" ry="8" style="stroke:#181818;stroke-width:0.5;"/><path d="M19,212.5 L19,239.5 M6,220.5 L32,220.5 M19,239.5 L6,254.5 M19,239.5 L32,254.5 " fill="none" style="stroke:#181818;stroke-width:0.5;"/><text fill="#000000" font-family="sans-serif" font-size="11" lengthAdjust="spacing" textLength="23" x="7.5" y="267.4189">User</text></g><!--entity userModel--><g id="elem_userModel"><ellipse cx="484" cy="226" fill="#F1F1F1" rx="12" ry="12" style="stroke:#181818;stroke-width:0.5;"/><line style="stroke:#181818;stroke-width:0.5;" x1="472" x2="496" y1="240" y2="240"/><text fill="#000000" font-family="sans-serif" font-size="11" lengthAdjust="spacing" textLength="51" x="458.5" y="253.4189">UserModel</text></g><!--entity profileView--><g id="elem_profileView"><path d="M128.5,11 L128.5,35 M128.5,23 L145.5,23 " fill="none" style="stroke:#181818;stroke-width:0.5;"/><ellipse cx="157.5" cy="23" fill="#F1F1F1" rx="12" ry="12" style="stroke:#181818;stroke-width:0.5;"/><text fill="#000000" font-family="sans-serif" font-size="11" lengthAdjust="spacing" textLength="56" x="121" y="50.4189">ProfileView</text></g><!--entity editProfileView--><g id="elem_editProfileView"><path d="M128.5,92 L128.5,116 M128.5,104 L145.5,104 " fill="none" style="stroke:#181818;stroke-width:0.5;"/><ellipse cx="157.5" cy="104" fill="#F1F1F1" rx="12" ry="12" style="stroke:#181818;stroke-width:0.5;"/><text fill="#000000" font-family="sans-serif" font-size="11" lengthAdjust="spacing" textLength="73" x="112.5" y="131.4189">EditProfileView</text></g><!--entity configurationView--><g id="elem_configurationView"><path d="M128.5,173 L128.5,197 M128.5,185 L145.5,185 " fill="none" style="stroke:#181818;stroke-width:0.5;"/><ellipse cx="157.5" cy="185" fill="#F1F1F1" rx="12" ry="12" style="stroke:#181818;stroke-width:0.5;"/><text fill="#000000" font-family="sans-serif" font-size="11" lengthAdjust="spacing" textLength="90" x="104" y="212.4189">ConfigurationView</text></g><!--entity listUsersView--><g id="elem_listUsersView"><path d="M128.5,254 L128.5,278 M128.5,266 L145.5,266 " fill="none" style="stroke:#181818;stroke-width:0.5;"/><ellipse cx="157.5" cy="266" fill="#F1F1F1" rx="12" ry="12" style="stroke:#181818;stroke-width:0.5;"/><text fill="#000000" font-family="sans-serif" font-size="11" lengthAdjust="spacing" textLength="72" x="113" y="293.4189">ListUsersView</text></g><!--entity changePasswordView--><g id="elem_changePasswordView"><path d="M128.5,335 L128.5,359 M128.5,347 L145.5,347 " fill="none" style="stroke:#181818;stroke-width:0.5;"/><ellipse cx="157.5" cy="347" fill="#F1F1F1" rx="12" ry="12" style="stroke:#181818;stroke-width:0.5;"/><text fill="#000000" font-family="sans-serif" font-size="11" lengthAdjust="spacing" textLength="113" x="92.5" y="374.4189">ChangePasswordView</text></g><!--entity logoutView--><g id="elem_logoutView"><path d="M128.5,416 L128.5,440 M128.5,428 L145.5,428 " fill="none" style="stroke:#181818;stroke-width:0.5;"/><ellipse cx="157.5" cy="428" fill="#F1F1F1" rx="12" ry="12" style="stroke:#181818;stroke-width:0.5;"/><text fill="#000000" font-family="sans-serif" font-size="11" lengthAdjust="spacing" textLength="59" x="119.5" y="455.4189">LogoutView</text></g><!--entity profileController--><g id="elem_profileController"><ellipse cx="332" cy="23" fill="#F1F1F1" rx="12" ry="12" style="stroke:#181818;stroke-width:0.5;"/><polygon fill="#181818" points="328,11,334,6,332,11,334,16,328,11" style="stroke:#181818;stroke-width:1.0;"/><text fill="#000000" font-family="sans-serif" font-size="11" lengthAdjust="spacing" textLength="76" x="294" y="50.4189">ProfileController</text></g><!--entity editProfileController--><g id="elem_editProfileController"><ellipse cx="332" cy="104" fill="#F1F1F1" rx="12" ry="12" style="stroke:#181818;stroke-width:0.5;"/><polygon fill="#181818" points="328,92,334,87,332,92,334,97,328,92" style="stroke:#181818;stroke-width:1.0;"/><text fill="#000000" font-family="sans-serif" font-size="11" lengthAdjust="spacing" textLength="93" x="285.5" y="131.4189">EditProfileController</text></g><!--entity changeLanguageController--><g id="elem_changeLanguageController"><ellipse cx="332" cy="185" fill="#F1F1F1" rx="12" ry="12" style="stroke:#181818;stroke-width:0.5;"/><polygon fill="#181818" points="328,173,334,168,332,173,334,178,328,173" style="stroke:#181818;stroke-width:1.0;"/><text fill="#000000" font-family="sans-serif" font-size="11" lengthAdjust="spacing" textLength="131" x="266.5" y="212.4189">ChangeLanguageController</text></g><!--entity changePasswordController--><g id="elem_changePasswordController"><ellipse cx="332" cy="347" fill="#F1F1F1" rx="12" ry="12" style="stroke:#181818;stroke-width:0.5;"/><polygon fill="#181818" points="328,335,334,330,332,335,334,340,328,335" style="stroke:#181818;stroke-width:1.0;"/><text fill="#000000" font-family="sans-serif" font-size="11" lengthAdjust="spacing" textLength="133" x="265.5" y="374.4189">ChangePasswordController</text></g><!--entity listUsersController--><g id="elem_listUsersController"><ellipse cx="332" cy="266" fill="#F1F1F1" rx="12" ry="12" style="stroke:#181818;stroke-width:0.5;"/><polygon fill="#181818" points="328,254,334,249,332,254,334,259,328,254" style="stroke:#181818;stroke-width:1.0;"/><text fill="#000000" font-family="sans-serif" font-size="11" lengthAdjust="spacing" textLength="92" x="286" y="293.4189">ListUsersController</text></g><!--entity logoutController--><g id="elem_logoutController"><ellipse cx="332" cy="428" fill="#F1F1F1" rx="12" ry="12" style="stroke:#181818;stroke-width:0.5;"/><polygon fill="#181818" points="328,416,334,411,332,416,334,421,328,416" style="stroke:#181818;stroke-width:1.0;"/><text fill="#000000" font-family="sans-serif" font-size="11" lengthAdjust="spacing" textLength="79" x="292.5" y="455.4189">LogoutController</text></g><!--link user to profileView--><g id="link_user_profileView"><path d="M30.28,195.99 C41.38,160.83 61.74,107.86 92.5,70 C100.29,60.41 105.92,55.3417 115.79,48.7517 " fill="none" id="user-to-profileView" style="stroke:#181818;stroke-width:1.0;"/><polygon fill="#181818" points="120.78,45.42,111.0739,47.0909,116.6217,48.1964,115.5162,53.7442,120.78,45.42" style="stroke:#181818;stroke-width:1.0;"/></g><!--link user to editProfileView--><g id="link_user_editProfileView"><path d="M32.66,216.63 C46.42,199.35 69.54,171.79 92.5,151 C98.93,145.18 101.3709,142.9908 108.4909,137.7408 " fill="none" id="user-to-editProfileView" style="stroke:#181818;stroke-width:1.0;"/><polygon fill="#181818" points="113.32,134.18,103.7024,136.3018,109.2957,137.1473,108.4502,142.7406,113.32,134.18" style="stroke:#181818;stroke-width:1.0;"/></g><!--link user to configurationView--><g id="link_user_configurationView"><path d="M32.74,228.92 C49.25,223.63 73.1555,215.9689 98.2455,207.9389 " fill="none" id="user-to-configurationView" style="stroke:#181818;stroke-width:1.0;"/><polygon fill="#181818" points="103.96,206.11,94.169,205.0437,99.1979,207.6341,96.6076,212.663,103.96,206.11" style="stroke:#181818;stroke-width:1.0;"/></g><!--link user to listUsersView--><g id="link_user_listUsersView"><path d="M32.74,236.98 C51.27,242.77 80.6134,251.9395 107.2234,260.2595 " fill="none" id="user-to-listUsersView" style="stroke:#181818;stroke-width:1.0;"/><polygon fill="#181818" points="112.95,262.05,105.5538,255.5465,108.1778,260.5579,103.1664,263.182,112.95,262.05" style="stroke:#181818;stroke-width:1.0;"/></g><!--link user to changePasswordView--><g id="link_user_changePasswordView"><path d="M32.53,248.58 C46.36,265.35 69.7,292.38 92.5,313 C99.34,319.19 102.2877,321.7631 109.7777,327.3731 " fill="none" id="user-to-changePasswordView" style="stroke:#181818;stroke-width:1.0;"/><polygon fill="#181818" points="114.58,330.97,109.7745,322.3731,110.5781,327.9726,104.9786,328.7762,114.58,330.97" style="stroke:#181818;stroke-width:1.0;"/></g><!--link user to logoutView--><g id="link_user_logoutView"><path d="M30.69,270.14 C41.99,304.81 62.38,356.66 92.5,394 C99.95,403.23 105.0158,408.0075 114.4658,414.6275 " fill="none" id="user-to-logoutView" style="stroke:#181818;stroke-width:1.0;"/><polygon fill="#181818" points="119.38,418.07,114.3038,409.6301,115.2849,415.2012,109.7137,416.1823,119.38,418.07" style="stroke:#181818;stroke-width:1.0;"/></g><!--link profileView to profileController--><g id="link_profileView_profileController"><path d="M177.1,30 C208.16,30 253.26,30 287.98,30 " fill="none" id="profileView-to-profileController" style="stroke:#181818;stroke-width:1.0;"/><polygon fill="#181818" points="293.98,30,284.98,26,288.98,30,284.98,34,293.98,30" style="stroke:#181818;stroke-width:1.0;"/></g><!--link editProfileView to editProfileController--><g id="link_editProfileView_editProfileController"><path d="M185.76,111 C214.3,111 248.47,111 279.33,111 " fill="none" id="editProfileView-to-editProfileController" style="stroke:#181818;stroke-width:1.0;"/><polygon fill="#181818" points="285.33,111,276.33,107,280.33,111,276.33,115,285.33,111" style="stroke:#181818;stroke-width:1.0;"/></g><!--link configurationView to changeLanguageController--><g id="link_configurationView_changeLanguageController"><path d="M194.28,192 C215.94,192 236.44,192 260.31,192 " fill="none" id="configurationView-to-changeLanguageController" style="stroke:#181818;stroke-width:1.0;"/><polygon fill="#181818" points="266.31,192,257.31,188,261.31,192,257.31,196,266.31,192" style="stroke:#181818;stroke-width:1.0;"/></g><!--link logoutView to logoutController--><g id="link_logoutView_logoutController"><path d="M178.68,435 C209.38,435 252.27,435 286.35,435 " fill="none" id="logoutView-to-logoutController" style="stroke:#181818;stroke-width:1.0;"/><polygon fill="#181818" points="292.35,435,283.35,431,287.35,435,283.35,439,292.35,435" style="stroke:#181818;stroke-width:1.0;"/></g><!--link changePasswordView to changePasswordController--><g id="link_changePasswordView_changePasswordController"><path d="M205.78,354 C224.58,354 239.74,354 259.24,354 " fill="none" id="changePasswordView-to-changePasswordController" style="stroke:#181818;stroke-width:1.0;"/><polygon fill="#181818" points="265.24,354,256.24,350,260.24,354,256.24,358,265.24,354" style="stroke:#181818;stroke-width:1.0;"/></g><!--link listUsersView to listUsersController--><g id="link_listUsersView_listUsersController"><path d="M185.33,273 C214.03,273 248.71,273 279.79,273 " fill="none" id="listUsersView-to-listUsersController" style="stroke:#181818;stroke-width:1.0;"/><polygon fill="#181818" points="285.79,273,276.79,269,280.79,273,276.79,277,285.79,273" style="stroke:#181818;stroke-width:1.0;"/></g><!--link profileController to userModel--><g id="link_profileController_userModel"><path d="M370.27,47.99 C380.27,54.02 390.5,61.42 398.5,70 C437.74,112.08 461.6703,170.186 473.5403,204.146 " fill="none" id="profileController-to-userModel" style="stroke:#181818;stroke-width:1.0;"/><polygon fill="#181818" points="475.52,209.81,476.3264,199.9942,473.8702,205.09,468.7744,202.6338,475.52,209.81" style="stroke:#181818;stroke-width:1.0;"/></g><!--link editProfileController to userModel--><g id="link_editProfileController_userModel"><path d="M374.12,134.18 C382.42,139.39 390.92,145.12 398.5,151 C421.61,168.91 441.1272,188.0403 457.5172,205.2903 " fill="none" id="editProfileController-to-userModel" style="stroke:#181818;stroke-width:1.0;"/><polygon fill="#181818" points="461.65,209.64,458.3505,200.3603,458.206,206.0153,452.551,205.8707,461.65,209.64" style="stroke:#181818;stroke-width:1.0;"/></g><!--link changeLanguageController to userModel--><g id="link_changeLanguageController_userModel"><path d="M397.92,209.74 C419.3,215.59 436.0019,220.1595 452.4819,224.6595 " fill="none" id="changeLanguageController-to-userModel" style="stroke:#181818;stroke-width:1.0;"/><polygon fill="#181818" points="458.27,226.24,450.6415,220.0105,453.4466,224.9229,448.5342,227.728,458.27,226.24" style="stroke:#181818;stroke-width:1.0;"/></g><!--link changePasswordController to userModel--><g id="link_changePasswordController_userModel"><path d="M372.65,330.95 C381.39,325.39 390.44,319.24 398.5,313 C421.19,295.44 440.4933,277.0283 456.9433,260.2983 " fill="none" id="changePasswordController-to-userModel" style="stroke:#181818;stroke-width:1.0;"/><polygon fill="#181818" points="461.15,256.02,451.9878,259.633,457.6444,259.5852,457.6922,265.2419,461.15,256.02" style="stroke:#181818;stroke-width:1.0;"/></g><!--link listUsersController to userModel--><g id="link_listUsersController_userModel"><path d="M378,261 C404.24,254 430.5326,246.986 452.2826,241.186 " fill="none" id="listUsersController-to-userModel" style="stroke:#181818;stroke-width:1.0;"/><polygon fill="#181818" points="458.08,239.64,448.3532,238.094,453.2488,240.9283,450.4145,245.8239,458.08,239.64" style="stroke:#181818;stroke-width:1.0;"/></g><!--link logoutController to userModel--><g id="link_logoutController_userModel"><path d="M371.6,415.54 C381.15,409.52 390.84,402.27 398.5,394 C437.12,352.32 461.1768,295.305 473.2568,261.765 " fill="none" id="logoutController-to-userModel" style="stroke:#181818;stroke-width:1.0;"/><polygon fill="#181818" points="475.29,256.12,468.4769,263.2321,473.5957,260.8242,476.0036,265.943,475.29,256.12" style="stroke:#181818;stroke-width:1.0;"/></g><!--SRC=[TLFBRiCW4Bpp5IZt7F83bQgeFQLIf3xkr5uxg1WYM9IcNrzYjx1Uo0MPsPdLxB0ENzgUbLUJ37Wra4wlEuoJ4GO6bEYar-C9PQyzTAYT5I4hUXXKDFW6t_Xez6Wdi2YxT82lMS_Eugl-0RdR2Q4wT5vktWFuZLH1nlGXH59gl2xmY-l1vDfy4-BJHTihdoX7xmPju4F3PIQTovsmddgDd0bhZB3tpWvwZ5xTnipyZgD4ST01RsP3PXkAqDudPKSugX0kplUbUGNJxcvq4KlhV1N94tfdSWpxvMx-qZnpj0X88am4hKeHBWCSqX7LoBNTdIAN_m_QbDV58iz1CwMfSIAQ0-CA1Wfnso-vtJwiTYY3V5roeTwBN5elGL7KZrqavN45yK5z4S_C53Uw3cFjaZXfl5UnGLpHTjK8ZSbeFvh4EXl2gWQScUM_Rux6EFT6Qj9gfupMSCaPB1fM_WK0]--></g></svg>