<?xml version="1.0" encoding="us-ascii" standalone="no"?><svg xmlns="http://www.w3.org/2000/svg" xmlns:xlink="http://www.w3.org/1999/xlink" contentStyleType="text/css" height="904px" preserveAspectRatio="none" style="width:1121px;height:904px;background:#FFFFFF;" version="1.1" viewBox="0 0 1121 904" width="1121px" zoomAndPan="magnify"><defs/><g><!--cluster backend--><g id="cluster_backend"><polygon fill="none" points="836.5,535,889.5,535,896.5,554.8359,1049.5,554.8359,1049.5,897,836.5,897,836.5,535" style="stroke:#000000;stroke-width:1.5;"/><line style="stroke:#000000;stroke-width:1.5;" x1="836.5" x2="896.5" y1="554.8359" y2="554.8359"/><text fill="#000000" font-family="sans-serif" font-size="11" font-weight="bold" lengthAdjust="spacing" textLength="47" x="840.5" y="548.4189">backend</text><text fill="#000000" font-family="sans-serif" font-size="11" font-style="italic" lengthAdjust="spacing" textLength="85" x="904.5" y="568.2549">&#171;express:4.21.2&#187;</text></g><!--cluster frontend--><g id="cluster_frontend"><polygon fill="none" points="89.5,6,143.5,6,150.5,25.8359,1104.5,25.8359,1104.5,511,89.5,511,89.5,6" style="stroke:#000000;stroke-width:1.5;"/><line style="stroke:#000000;stroke-width:1.5;" x1="89.5" x2="150.5" y1="25.8359" y2="25.8359"/><text fill="#000000" font-family="sans-serif" font-size="11" font-weight="bold" lengthAdjust="spacing" textLength="48" x="93.5" y="19.4189">frontend</text></g><!--cluster Event Creation Views--><g id="cluster_Event Creation Views"><polygon fill="none" points="113.5,140,237.5,140,244.5,159.8359,759.5,159.8359,759.5,487,113.5,487,113.5,140" style="stroke:#000000;stroke-width:1.5;"/><line style="stroke:#000000;stroke-width:1.5;" x1="113.5" x2="244.5" y1="159.8359" y2="159.8359"/><text fill="#000000" font-family="sans-serif" font-size="11" font-weight="bold" lengthAdjust="spacing" textLength="118" x="117.5" y="153.4189">Event Creation Views</text></g><!--entity app--><g id="elem_app"><ellipse cx="884.5" cy="610.8359" fill="#F1F1F1" rx="12" ry="12" style="stroke:#181818;stroke-width:0.5;"/><polygon fill="#181818" points="880.5,598.8359,886.5,593.8359,884.5,598.8359,886.5,603.8359,880.5,598.8359" style="stroke:#181818;stroke-width:1.0;"/><text fill="#000000" font-family="sans-serif" font-size="11" lengthAdjust="spacing" textLength="18" x="875.5" y="638.2549">app</text><text fill="#000000" font-family="sans-serif" font-size="11" font-style="italic" lengthAdjust="spacing" textLength="64" x="852.5" y="592.4189">&#171;JavaScript&#187;</text></g><!--entity authenticateUser--><g id="elem_authenticateUser"><ellipse cx="992.5" cy="610.8359" fill="#F1F1F1" rx="12" ry="12" style="stroke:#181818;stroke-width:0.5;"/><polygon fill="#181818" points="988.5,598.8359,994.5,593.8359,992.5,598.8359,994.5,603.8359,988.5,598.8359" style="stroke:#181818;stroke-width:1.0;"/><text fill="#000000" font-family="sans-serif" font-size="11" lengthAdjust="spacing" textLength="82" x="951.5" y="638.2549">authenticateUser</text><text fill="#000000" font-family="sans-serif" font-size="11" font-style="italic" lengthAdjust="spacing" textLength="68" x="958.5" y="592.4189">&#171;middleware&#187;</text></g><!--entity CreateEventController--><g id="elem_CreateEventController"><ellipse cx="884.5" cy="730.8359" fill="#F1F1F1" rx="12" ry="12" style="stroke:#181818;stroke-width:0.5;"/><polygon fill="#181818" points="880.5,718.8359,886.5,713.8359,884.5,718.8359,886.5,723.8359,880.5,718.8359" style="stroke:#181818;stroke-width:1.0;"/><text fill="#000000" font-family="sans-serif" font-size="11" lengthAdjust="spacing" textLength="59" x="855" y="758.2549">CreateEvent</text><text fill="#000000" font-family="sans-serif" font-size="11" font-style="italic" lengthAdjust="spacing" textLength="64" x="852.5" y="712.4189">&#171;JavaScript&#187;</text></g><!--entity CreateLocationController--><g id="elem_CreateLocationController"><ellipse cx="988.5" cy="730.8359" fill="#F1F1F1" rx="12" ry="12" style="stroke:#181818;stroke-width:0.5;"/><polygon fill="#181818" points="984.5,718.8359,990.5,713.8359,988.5,718.8359,990.5,723.8359,984.5,718.8359" style="stroke:#181818;stroke-width:1.0;"/><text fill="#000000" font-family="sans-serif" font-size="11" lengthAdjust="spacing" textLength="73" x="952" y="758.2549">CreateLocation</text><text fill="#000000" font-family="sans-serif" font-size="11" font-style="italic" lengthAdjust="spacing" textLength="64" x="956.5" y="712.4189">&#171;JavaScript&#187;</text></g><!--entity Event--><g id="elem_Event"><ellipse cx="884.5" cy="850.8359" fill="#F1F1F1" rx="12" ry="12" style="stroke:#181818;stroke-width:0.5;"/><line style="stroke:#181818;stroke-width:0.5;" x1="872.5" x2="896.5" y1="864.8359" y2="864.8359"/><text fill="#000000" font-family="sans-serif" font-size="11" lengthAdjust="spacing" textLength="27" x="871" y="878.2549">Event</text><text fill="#000000" font-family="sans-serif" font-size="11" font-style="italic" lengthAdjust="spacing" textLength="64" x="852.5" y="832.4189">&#171;JavaScript&#187;</text></g><!--entity Location--><g id="elem_Location"><ellipse cx="988.5" cy="850.8359" fill="#F1F1F1" rx="12" ry="12" style="stroke:#181818;stroke-width:0.5;"/><line style="stroke:#181818;stroke-width:0.5;" x1="976.5" x2="1000.5" y1="864.8359" y2="864.8359"/><text fill="#000000" font-family="sans-serif" font-size="11" lengthAdjust="spacing" textLength="41" x="968" y="878.2549">Location</text><text fill="#000000" font-family="sans-serif" font-size="11" font-style="italic" lengthAdjust="spacing" textLength="64" x="956.5" y="832.4189">&#171;JavaScript&#187;</text></g><!--entity AuthProvider--><g id="elem_AuthProvider"><path d="M604,55.8359 L604,79.8359 M604,67.8359 L621,67.8359 " fill="none" style="stroke:#181818;stroke-width:0.5;"/><ellipse cx="633" cy="67.8359" fill="#F1F1F1" rx="12" ry="12" style="stroke:#181818;stroke-width:0.5;"/><text fill="#000000" font-family="sans-serif" font-size="11" lengthAdjust="spacing" textLength="63" x="593" y="95.2549">AuthProvider</text><text fill="#000000" font-family="sans-serif" font-size="11" font-style="italic" lengthAdjust="spacing" textLength="33" x="608" y="49.4189">&#171;TSX&#187;</text></g><!--entity AddEventController--><g id="elem_AddEventController"><ellipse cx="822.5" cy="329" fill="#F1F1F1" rx="12" ry="12" style="stroke:#181818;stroke-width:0.5;"/><polygon fill="#181818" points="818.5,317,824.5,312,822.5,317,824.5,322,818.5,317" style="stroke:#181818;stroke-width:1.0;"/><text fill="#000000" font-family="sans-serif" font-size="11" lengthAdjust="spacing" textLength="93" x="776" y="356.4189">AddEventController</text></g><!--entity LocationController--><g id="elem_LocationController"><ellipse cx="947.5" cy="329" fill="#F1F1F1" rx="12" ry="12" style="stroke:#181818;stroke-width:0.5;"/><polygon fill="#181818" points="943.5,317,949.5,312,947.5,317,949.5,322,943.5,317" style="stroke:#181818;stroke-width:1.0;"/><text fill="#000000" font-family="sans-serif" font-size="11" lengthAdjust="spacing" textLength="87" x="904" y="356.4189">LocationController</text></g><!--entity FileController--><g id="elem_FileController"><ellipse cx="1057.5" cy="329" fill="#F1F1F1" rx="12" ry="12" style="stroke:#181818;stroke-width:0.5;"/><polygon fill="#181818" points="1053.5,317,1059.5,312,1057.5,317,1059.5,322,1053.5,317" style="stroke:#181818;stroke-width:1.0;"/><text fill="#000000" font-family="sans-serif" font-size="11" lengthAdjust="spacing" textLength="62" x="1026.5" y="356.4189">FileController</text></g><!--entity Services--><g id="elem_Services"><ellipse cx="1057.5" cy="442" fill="#F1F1F1" rx="12" ry="12" style="stroke:#181818;stroke-width:0.5;"/><polygon fill="#181818" points="1053.5,430,1059.5,425,1057.5,430,1059.5,435,1053.5,430" style="stroke:#181818;stroke-width:1.0;"/><text fill="#000000" font-family="sans-serif" font-size="11" lengthAdjust="spacing" textLength="43" x="1036" y="469.4189">Services</text></g><!--entity EventModel--><g id="elem_EventModel"><ellipse cx="829.5" cy="442" fill="#F1F1F1" rx="12" ry="12" style="stroke:#181818;stroke-width:0.5;"/><line style="stroke:#181818;stroke-width:0.5;" x1="817.5" x2="841.5" y1="456" y2="456"/><text fill="#000000" font-family="sans-serif" font-size="11" lengthAdjust="spacing" textLength="55" x="802" y="469.4189">EventModel</text></g><!--entity LocationModel--><g id="elem_LocationModel"><ellipse cx="933.5" cy="442" fill="#F1F1F1" rx="12" ry="12" style="stroke:#181818;stroke-width:0.5;"/><line style="stroke:#181818;stroke-width:0.5;" x1="921.5" x2="945.5" y1="456" y2="456"/><text fill="#000000" font-family="sans-serif" font-size="11" lengthAdjust="spacing" textLength="69" x="899" y="469.4189">LocationModel</text></g><!--entity addEventView--><g id="elem_addEventView"><path d="M604,189.8359 L604,213.8359 M604,201.8359 L621,201.8359 " fill="none" style="stroke:#181818;stroke-width:0.5;"/><ellipse cx="633" cy="201.8359" fill="#F1F1F1" rx="12" ry="12" style="stroke:#181818;stroke-width:0.5;"/><text fill="#000000" font-family="sans-serif" font-size="11" lengthAdjust="spacing" textLength="73" x="588" y="229.2549">AddEventView</text><text fill="#000000" font-family="sans-serif" font-size="11" font-style="italic" lengthAdjust="spacing" textLength="33" x="608" y="183.4189">&#171;TSX&#187;</text></g><!--entity AddDefaultView--><g id="elem_AddDefaultView"><path d="M290,323.8359 L290,347.8359 M290,335.8359 L307,335.8359 " fill="none" style="stroke:#181818;stroke-width:0.5;"/><ellipse cx="319" cy="335.8359" fill="#F1F1F1" rx="12" ry="12" style="stroke:#181818;stroke-width:0.5;"/><text fill="#000000" font-family="sans-serif" font-size="11" lengthAdjust="spacing" textLength="80" x="270.5" y="363.2549">AddDefaultView</text><text fill="#000000" font-family="sans-serif" font-size="11" font-style="italic" lengthAdjust="spacing" textLength="33" x="294" y="317.4189">&#171;TSX&#187;</text></g><!--entity AddDateView--><g id="elem_AddDateView"><path d="M409,323.8359 L409,347.8359 M409,335.8359 L426,335.8359 " fill="none" style="stroke:#181818;stroke-width:0.5;"/><ellipse cx="438" cy="335.8359" fill="#F1F1F1" rx="12" ry="12" style="stroke:#181818;stroke-width:0.5;"/><text fill="#000000" font-family="sans-serif" font-size="11" lengthAdjust="spacing" textLength="68" x="395.5" y="363.2549">AddDateView</text><text fill="#000000" font-family="sans-serif" font-size="11" font-style="italic" lengthAdjust="spacing" textLength="33" x="413" y="317.4189">&#171;TSX&#187;</text></g><!--entity ChooseCategoriesView--><g id="elem_ChooseCategoriesView"><path d="M536,323.8359 L536,347.8359 M536,335.8359 L553,335.8359 " fill="none" style="stroke:#181818;stroke-width:0.5;"/><ellipse cx="565" cy="335.8359" fill="#F1F1F1" rx="12" ry="12" style="stroke:#181818;stroke-width:0.5;"/><text fill="#000000" font-family="sans-serif" font-size="11" lengthAdjust="spacing" textLength="115" x="499" y="363.2549">ChooseCategoriesView</text><text fill="#000000" font-family="sans-serif" font-size="11" font-style="italic" lengthAdjust="spacing" textLength="33" x="540" y="317.4189">&#171;TSX&#187;</text></g><!--entity AddLocationView--><g id="elem_AddLocationView"><path d="M672,323.8359 L672,347.8359 M672,335.8359 L689,335.8359 " fill="none" style="stroke:#181818;stroke-width:0.5;"/><ellipse cx="701" cy="335.8359" fill="#F1F1F1" rx="12" ry="12" style="stroke:#181818;stroke-width:0.5;"/><text fill="#000000" font-family="sans-serif" font-size="11" lengthAdjust="spacing" textLength="87" x="649" y="363.2549">AddLocationView</text><text fill="#000000" font-family="sans-serif" font-size="11" font-style="italic" lengthAdjust="spacing" textLength="33" x="676" y="317.4189">&#171;TSX&#187;</text></g><!--entity Calendar--><g id="elem_Calendar"><rect fill="#F1F1F1" height="43.8359" rx="2.5" ry="2.5" style="stroke:#181818;stroke-width:0.5;" width="83" x="394" y="427"/><rect fill="#F1F1F1" height="10" style="stroke:#181818;stroke-width:0.5;" width="15" x="457" y="432"/><rect fill="#F1F1F1" height="2" style="stroke:#181818;stroke-width:0.5;" width="4" x="455" y="434"/><rect fill="#F1F1F1" height="2" style="stroke:#181818;stroke-width:0.5;" width="4" x="455" y="438"/><text fill="#000000" font-family="sans-serif" font-size="11" lengthAdjust="spacing" textLength="43" x="409" y="458.4189">Calendar</text></g><!--entity MapView--><g id="elem_MapView"><rect fill="#F1F1F1" height="43.8359" rx="2.5" ry="2.5" style="stroke:#181818;stroke-width:0.5;" width="86" x="512.5" y="427"/><rect fill="#F1F1F1" height="10" style="stroke:#181818;stroke-width:0.5;" width="15" x="578.5" y="432"/><rect fill="#F1F1F1" height="2" style="stroke:#181818;stroke-width:0.5;" width="4" x="576.5" y="434"/><rect fill="#F1F1F1" height="2" style="stroke:#181818;stroke-width:0.5;" width="4" x="576.5" y="438"/><text fill="#000000" font-family="sans-serif" font-size="11" lengthAdjust="spacing" textLength="46" x="527.5" y="458.4189">MapView</text></g><!--entity MusicPicker--><g id="elem_MusicPicker"><rect fill="#F1F1F1" height="43.8359" rx="2.5" ry="2.5" style="stroke:#181818;stroke-width:0.5;" width="97" x="130" y="427"/><rect fill="#F1F1F1" height="10" style="stroke:#181818;stroke-width:0.5;" width="15" x="207" y="432"/><rect fill="#F1F1F1" height="2" style="stroke:#181818;stroke-width:0.5;" width="4" x="205" y="434"/><rect fill="#F1F1F1" height="2" style="stroke:#181818;stroke-width:0.5;" width="4" x="205" y="438"/><text fill="#000000" font-family="sans-serif" font-size="11" lengthAdjust="spacing" textLength="57" x="145" y="458.4189">MusicPicker</text></g><!--entity ImagePicker--><g id="elem_ImagePicker"><rect fill="#F1F1F1" height="43.8359" rx="2.5" ry="2.5" style="stroke:#181818;stroke-width:0.5;" width="97" x="262" y="427"/><rect fill="#F1F1F1" height="10" style="stroke:#181818;stroke-width:0.5;" width="15" x="339" y="432"/><rect fill="#F1F1F1" height="2" style="stroke:#181818;stroke-width:0.5;" width="4" x="337" y="434"/><rect fill="#F1F1F1" height="2" style="stroke:#181818;stroke-width:0.5;" width="4" x="337" y="438"/><text fill="#000000" font-family="sans-serif" font-size="11" lengthAdjust="spacing" textLength="57" x="277" y="458.4189">ImagePicker</text></g><!--entity LocationPicker--><g id="elem_LocationPicker"><rect fill="#F1F1F1" height="43.8359" rx="2.5" ry="2.5" style="stroke:#181818;stroke-width:0.5;" width="110" x="633.5" y="427"/><rect fill="#F1F1F1" height="10" style="stroke:#181818;stroke-width:0.5;" width="15" x="723.5" y="432"/><rect fill="#F1F1F1" height="2" style="stroke:#181818;stroke-width:0.5;" width="4" x="721.5" y="434"/><rect fill="#F1F1F1" height="2" style="stroke:#181818;stroke-width:0.5;" width="4" x="721.5" y="438"/><text fill="#000000" font-family="sans-serif" font-size="11" lengthAdjust="spacing" textLength="70" x="648.5" y="458.4189">LocationPicker</text></g><!--entity UserReg--><g id="elem_UserReg"><ellipse cx="39.5" cy="166.5" fill="#F1F1F1" rx="8" ry="8" style="stroke:#181818;stroke-width:0.5;"/><path d="M39.5,174.5 L39.5,201.5 M26.5,182.5 L52.5,182.5 M39.5,201.5 L26.5,216.5 M39.5,201.5 L52.5,216.5 " fill="none" style="stroke:#181818;stroke-width:0.5;"/><text fill="#000000" font-family="sans-serif" font-size="11" lengthAdjust="spacing" textLength="67" x="6" y="229.4189">Authenticated</text><text fill="#000000" font-family="sans-serif" font-size="11" lengthAdjust="spacing" textLength="23" x="28" y="243.2549">User</text></g><!--link AuthProvider to addEventView--><g id="link_AuthProvider_addEventView"><path d="M624.5,98.3 C624.5,120.17 624.5,143.93 624.5,165.79 " fill="none" id="AuthProvider-to-addEventView" style="stroke:#181818;stroke-width:1.0;"/><polygon fill="#181818" points="624.5,171.79,628.5,162.79,624.5,166.79,620.5,162.79,624.5,171.79" style="stroke:#181818;stroke-width:1.0;"/></g><!--link addEventView to AddDefaultView--><g id="link_addEventView_AddDefaultView"><path d="M587.79,218.28 C539.69,238.33 452.71,274.64 378.5,306 C369.52,309.8 365.3911,311.5511 356.2711,315.4311 " fill="none" id="addEventView-to-AddDefaultView" style="stroke:#181818;stroke-width:1.0;"/><polygon fill="#181818" points="350.75,317.78,360.5976,317.9374,355.3509,315.8226,357.4657,310.5759,350.75,317.78" style="stroke:#181818;stroke-width:1.0;"/></g><!--link addEventView to AddDateView--><g id="link_addEventView_AddDateView"><path d="M587.82,227.83 C552.19,251.95 503.4684,284.9263 468.6984,308.4663 " fill="none" id="addEventView-to-AddDateView" style="stroke:#181818;stroke-width:1.0;"/><polygon fill="#181818" points="463.73,311.83,473.4251,310.0967,467.8704,309.0269,468.9402,303.4721,463.73,311.83" style="stroke:#181818;stroke-width:1.0;"/></g><!--link addEventView to ChooseCategoriesView--><g id="link_addEventView_ChooseCategoriesView"><path d="M609.41,232.3 C598.14,254.17 585.5575,278.596 574.2975,300.456 " fill="none" id="addEventView-to-ChooseCategoriesView" style="stroke:#181818;stroke-width:1.0;"/><polygon fill="#181818" points="571.55,305.79,579.2272,299.6207,573.8396,301.345,572.1153,295.9574,571.55,305.79" style="stroke:#181818;stroke-width:1.0;"/></g><!--link addEventView to AddLocationView--><g id="link_addEventView_AddLocationView"><path d="M639.59,232.3 C650.86,254.17 663.4425,278.596 674.7025,300.456 " fill="none" id="addEventView-to-AddLocationView" style="stroke:#181818;stroke-width:1.0;"/><polygon fill="#181818" points="677.45,305.79,676.8847,295.9574,675.1604,301.345,669.7728,299.6207,677.45,305.79" style="stroke:#181818;stroke-width:1.0;"/></g><!--link AddDateView to Calendar--><g id="link_AddDateView_Calendar"><path d="M431.08,366.16 C432.1,385.18 433.0959,403.5688 434.0259,420.7588 " fill="none" id="AddDateView-to-Calendar" style="stroke:#181818;stroke-width:1.0;"/><polygon fill="#181818" points="434.35,426.75,437.858,417.5471,434.0799,421.7573,429.8696,417.9792,434.35,426.75" style="stroke:#181818;stroke-width:1.0;"/></g><!--link AddLocationView to MapView--><g id="link_AddLocationView_MapView"><path d="M656.5,366.16 C633.04,385.18 607.6122,405.7832 586.3922,422.9732 " fill="none" id="AddLocationView-to-MapView" style="stroke:#181818;stroke-width:1.0;"/><polygon fill="#181818" points="581.73,426.75,591.2411,424.193,585.6152,423.6027,586.2054,417.9767,581.73,426.75" style="stroke:#181818;stroke-width:1.0;"/></g><!--link AddDefaultView to MusicPicker--><g id="link_AddDefaultView_MusicPicker"><path d="M275.82,366.16 C253.21,385.18 228.801,405.6971 208.371,422.8871 " fill="none" id="AddDefaultView-to-MusicPicker" style="stroke:#181818;stroke-width:1.0;"/><polygon fill="#181818" points="203.78,426.75,213.2419,424.0163,207.6059,423.5309,208.0913,417.8949,203.78,426.75" style="stroke:#181818;stroke-width:1.0;"/></g><!--link AddDefaultView to ImagePicker--><g id="link_AddDefaultView_ImagePicker"><path d="M310.5,366.16 C310.5,385.18 310.5,403.56 310.5,420.75 " fill="none" id="AddDefaultView-to-ImagePicker" style="stroke:#181818;stroke-width:1.0;"/><polygon fill="#181818" points="310.5,426.75,314.5,417.75,310.5,421.75,306.5,417.75,310.5,426.75" style="stroke:#181818;stroke-width:1.0;"/></g><!--link AddLocationView to LocationPicker--><g id="link_AddLocationView_LocationPicker"><path d="M691.45,366.16 C690.76,385.18 690.1063,403.5639 689.4863,420.7539 " fill="none" id="AddLocationView-to-LocationPicker" style="stroke:#181818;stroke-width:1.0;"/><polygon fill="#181818" points="689.27,426.75,693.5918,417.9,689.4502,421.7532,685.597,417.6117,689.27,426.75" style="stroke:#181818;stroke-width:1.0;"/></g><!--link addEventView to AddEventController--><g id="link_addEventView_AddEventController"><path d="M661.28,227.52 C697.96,251.97 748.8177,285.8818 784.2177,309.4818 " fill="none" id="addEventView-to-AddEventController" style="stroke:#181818;stroke-width:1.0;"/><polygon fill="#181818" points="789.21,312.81,783.9403,304.4895,785.0497,310.0365,779.5027,311.1459,789.21,312.81" style="stroke:#181818;stroke-width:1.0;"/></g><!--link addEventView to LocationController--><g id="link_addEventView_LocationController"><path d="M661.28,216.54 C712.27,235.52 807.13,271.58 886.5,306 C892.09,308.43 892.4864,308.5367 898.2464,311.2067 " fill="none" id="addEventView-to-LocationController" style="stroke:#181818;stroke-width:1.0;"/><polygon fill="#181818" points="903.69,313.73,897.2068,306.3159,899.1537,311.6272,893.8424,313.5741,903.69,313.73" style="stroke:#181818;stroke-width:1.0;"/></g><!--link addEventView to FileController--><g id="link_addEventView_FileController"><path d="M661.05,209.36 C730.62,222.2 886.03,254.48 1008.5,306 C1014.42,308.49 1015.2667,308.6553 1021.0267,311.8853 " fill="none" id="addEventView-to-FileController" style="stroke:#181818;stroke-width:1.0;"/><polygon fill="#181818" points="1026.26,314.82,1020.3664,306.9291,1021.8989,312.3744,1016.4536,313.9069,1026.26,314.82" style="stroke:#181818;stroke-width:1.0;"/></g><!--link AddEventController to EventModel--><g id="link_AddEventController_EventModel"><path d="M823.9,359.2 C825.12,378.56 826.5025,400.5019 827.7225,419.8519 " fill="none" id="AddEventController-to-EventModel" style="stroke:#181818;stroke-width:1.0;"/><polygon fill="#181818" points="828.1,425.84,831.5258,416.6061,827.7854,420.8499,823.5416,417.1095,828.1,425.84" style="stroke:#181818;stroke-width:1.0;"/></g><!--link LocationController to LocationModel--><g id="link_LocationController_LocationModel"><path d="M944.7,359.2 C942.26,378.56 939.4806,400.5371 937.0406,419.8871 " fill="none" id="LocationController-to-LocationModel" style="stroke:#181818;stroke-width:1.0;"/><polygon fill="#181818" points="936.29,425.84,941.3845,417.4111,936.9155,420.8793,933.4474,416.4103,936.29,425.84" style="stroke:#181818;stroke-width:1.0;"/></g><!--link UserReg to addEventView--><g id="link_UserReg_addEventView"><path d="M73.21,202 C244.77,202 410.33,202 581.89,202 " fill="none" id="UserReg-to-addEventView" style="stroke:#181818;stroke-width:1.0;stroke-dasharray:7.0,7.0;"/><polygon fill="#181818" points="587.89,202,578.89,198,582.89,202,578.89,206,587.89,202" style="stroke:#181818;stroke-width:1.0;"/></g><!--link app to authenticateUser--><g id="link_app_authenticateUser"><path d="M916.56,611 C928.13,611 933.7,611 945.27,611 " fill="none" id="app-to-authenticateUser" style="stroke:#181818;stroke-width:1.0;"/><polygon fill="#181818" points="951.27,611,942.27,607,946.27,611,942.27,615,951.27,611" style="stroke:#181818;stroke-width:1.0;"/></g><!--link app to CreateEventController--><g id="link_app_CreateEventController"><path d="M884.5,641.17 C884.5,659.32 884.5,676.59 884.5,694.76 " fill="none" id="app-to-CreateEventController" style="stroke:#181818;stroke-width:1.0;"/><polygon fill="#181818" points="884.5,700.76,888.5,691.76,884.5,695.76,880.5,691.76,884.5,700.76" style="stroke:#181818;stroke-width:1.0;"/></g><!--link app to CreateLocationController--><g id="link_app_CreateLocationController"><path d="M910.21,641.17 C926.21,659.32 942.7534,678.0882 958.7634,696.2582 " fill="none" id="app-to-CreateLocationController" style="stroke:#181818;stroke-width:1.0;"/><polygon fill="#181818" points="962.73,700.76,959.7813,691.3629,959.4245,697.0085,953.7789,696.6517,962.73,700.76" style="stroke:#181818;stroke-width:1.0;"/></g><!--link FileController to Services--><g id="link_FileController_Services"><path d="M1057.5,359.2 C1057.5,378.56 1057.5,400.49 1057.5,419.84 " fill="none" id="FileController-to-Services" style="stroke:#181818;stroke-width:1.0;"/><polygon fill="#181818" points="1057.5,425.84,1061.5,416.84,1057.5,420.84,1053.5,416.84,1057.5,425.84" style="stroke:#181818;stroke-width:1.0;"/></g><!--link CreateEventController to Event--><g id="link_CreateEventController_Event"><path d="M884.5,767.17 C884.5,785.32 884.5,796.59 884.5,814.76 " fill="none" id="CreateEventController-Event" style="stroke:#181818;stroke-width:1.0;"/><polygon fill="#181818" points="884.5,761.17,880.5,770.17,884.5,766.17,888.5,770.17,884.5,761.17" style="stroke:#181818;stroke-width:1.0;"/><polygon fill="#181818" points="884.5,820.76,888.5,811.76,884.5,815.76,880.5,811.76,884.5,820.76" style="stroke:#181818;stroke-width:1.0;"/></g><!--link CreateLocationController to Location--><g id="link_CreateLocationController_Location"><path d="M988.5,767.17 C988.5,785.32 988.5,796.59 988.5,814.76 " fill="none" id="CreateLocationController-Location" style="stroke:#181818;stroke-width:1.0;"/><polygon fill="#181818" points="988.5,761.17,984.5,770.17,988.5,766.17,992.5,770.17,988.5,761.17" style="stroke:#181818;stroke-width:1.0;"/><polygon fill="#181818" points="988.5,820.76,992.5,811.76,988.5,815.76,984.5,811.76,988.5,820.76" style="stroke:#181818;stroke-width:1.0;"/></g><!--link LocationModel to app--><g id="link_LocationModel_app"><path d="M926.69,472.25 C918.01,500.58 904.747,543.883 895.167,575.163 " fill="none" id="LocationModel-to-app" style="stroke:#181818;stroke-width:1.0;"/><polygon fill="#181818" points="893.41,580.9,899.8702,573.4659,894.8742,576.1192,892.2209,571.1232,893.41,580.9" style="stroke:#181818;stroke-width:1.0;"/></g><!--link EventModel to app--><g id="link_EventModel_app"><path d="M837.15,472.25 C846.89,500.58 861.7883,543.9463 872.5483,575.2263 " fill="none" id="EventModel-to-app" style="stroke:#181818;stroke-width:1.0;"/><polygon fill="#181818" points="874.5,580.9,875.3549,571.0883,872.8736,576.1719,867.79,573.6906,874.5,580.9" style="stroke:#181818;stroke-width:1.0;"/></g><!--SRC=[XLNVQzim47xNNo7yqgS6KlOqIg1B5xQnG5coiOUzgFOr4PKb8pbfiz7_VIV9iYLRIKjnT7VV_PA-uympbmtJhAQcFGd0h-PbUwW5CRsbWYTs4EqMNjixmNUo1jdI4Z-WfwYLaks6_mKwdnF2obPfMjmTsZt2USbQgFx8dmPqGPcXzl03TeHSqUsU6uh_Z9QgTWcKHC5mkSEg19T06bO-intGH_m5MT7RMtXjD1ZpySFiPZwxMIp-4Of_9LQWbQ2iQH13lx4ZsvIQDorTB590L9OjnQ9hNbK2NfY6CRfOQa3WvoEwkEeZUUanmiSudx6ByLrXIgva52QeBaLoeMp1xOcwjFba7I94d8BUI7-NJnhpsSlqL_Ue3h9Y-kIVx46h8w-wjueLDkHsypiaT9yGiV2LkQvizbySNapHnH_bg2e7jX2NWqMAKOw9vxsdM- -RgjxrnYjFN3lvejzohvI19K9tIdCmVO2SuRqAmlF4LSIwZ7z_m15fbBJNN2oP01lKrz49EU2QDNsgxdmnyFfWUFd0STHyx4ZEmR_M-FWHF99pyD1fv96gdDCRIQSd46OOad1puobC_QR3bMGSrAdRYWiOkQIg5Bu1VUGb60SCGZoHVZJMgWBXC8EOe49P0p3HsF6zegimk8uhNpXefilzYP1aJg-l5-bGaKIovj7Sv05XEgRMBFMpGH9osnRSOHauOKYSo8Nks4p9sDjQEmuxOzo0imrSpTeZSkQ3frnqrKRaqY2SrUnvOxAzZkWunMIeDy6Ck9PXkKL59Chia3YN1s4hRjTnkxvnFwE1T7kOplGivOj5V-hMxQXhNAwMNACLwlMLVRtSTXoRCzUGTkqQw6U9d5cvBgBJalFRr862WIINual2siXmcuEE_0S0]--></g></svg>