<?xml version="1.0" encoding="us-ascii" standalone="no"?><svg xmlns="http://www.w3.org/2000/svg" xmlns:xlink="http://www.w3.org/1999/xlink" contentStyleType="text/css" height="1409px" preserveAspectRatio="none" style="width:1111px;height:1409px;background:#FFFFFF;" version="1.1" viewBox="0 0 1111 1409" width="1111px" zoomAndPan="magnify"><defs/><g><!--cluster frontend--><g id="cluster_frontend"><polygon fill="none" points="117,6,171,6,178,25.8359,1094,25.8359,1094,1402,117,1402,117,6" style="stroke:#000000;stroke-width:1.5;"/><line style="stroke:#000000;stroke-width:1.5;" x1="117" x2="178" y1="25.8359" y2="25.8359"/><text fill="#000000" font-family="sans-serif" font-size="11" font-weight="bold" lengthAdjust="spacing" textLength="48" x="121" y="19.4189">frontend</text><text fill="#000000" font-family="sans-serif" font-size="11" font-style="italic" lengthAdjust="spacing" textLength="108" x="555.5" y="39.2549">&#171;React Native:0.76.6&#187;</text></g><!--entity addEventView--><g id="elem_addEventView"><path d="M149,687.8359 L149,711.8359 M149,699.8359 L166,699.8359 " fill="none" style="stroke:#181818;stroke-width:0.5;"/><ellipse cx="178" cy="699.8359" fill="#F1F1F1" rx="12" ry="12" style="stroke:#181818;stroke-width:0.5;"/><text fill="#000000" font-family="sans-serif" font-size="11" lengthAdjust="spacing" textLength="73" x="133" y="727.2549">AddEventView</text><text fill="#000000" font-family="sans-serif" font-size="11" font-style="italic" lengthAdjust="spacing" textLength="33" x="153" y="681.4189">&#171;TSX&#187;</text></g><!--entity AddDefaultView--><g id="elem_AddDefaultView"><path d="M340.5,1343.8359 L340.5,1367.8359 M340.5,1355.8359 L357.5,1355.8359 " fill="none" style="stroke:#181818;stroke-width:0.5;"/><ellipse cx="369.5" cy="1355.8359" fill="#F1F1F1" rx="12" ry="12" style="stroke:#181818;stroke-width:0.5;"/><text fill="#000000" font-family="sans-serif" font-size="11" lengthAdjust="spacing" textLength="80" x="321" y="1383.2549">AddDefaultView</text><text fill="#000000" font-family="sans-serif" font-size="11" font-style="italic" lengthAdjust="spacing" textLength="33" x="344.5" y="1337.4189">&#171;TSX&#187;</text></g><!--entity AddDateView--><g id="elem_AddDateView"><path d="M340.5,1248.8359 L340.5,1272.8359 M340.5,1260.8359 L357.5,1260.8359 " fill="none" style="stroke:#181818;stroke-width:0.5;"/><ellipse cx="369.5" cy="1260.8359" fill="#F1F1F1" rx="12" ry="12" style="stroke:#181818;stroke-width:0.5;"/><text fill="#000000" font-family="sans-serif" font-size="11" lengthAdjust="spacing" textLength="68" x="327" y="1288.2549">AddDateView</text><text fill="#000000" font-family="sans-serif" font-size="11" font-style="italic" lengthAdjust="spacing" textLength="33" x="344.5" y="1242.4189">&#171;TSX&#187;</text></g><!--entity ChooseCategoriesView--><g id="elem_ChooseCategoriesView"><path d="M340.5,1153.8359 L340.5,1177.8359 M340.5,1165.8359 L357.5,1165.8359 " fill="none" style="stroke:#181818;stroke-width:0.5;"/><ellipse cx="369.5" cy="1165.8359" fill="#F1F1F1" rx="12" ry="12" style="stroke:#181818;stroke-width:0.5;"/><text fill="#000000" font-family="sans-serif" font-size="11" lengthAdjust="spacing" textLength="115" x="303.5" y="1193.2549">ChooseCategoriesView</text><text fill="#000000" font-family="sans-serif" font-size="11" font-style="italic" lengthAdjust="spacing" textLength="33" x="344.5" y="1147.4189">&#171;TSX&#187;</text></g><!--entity React--><g id="elem_React"><rect fill="#F1F1F1" height="57.6719" rx="2.5" ry="2.5" style="stroke:#181818;stroke-width:0.5;" width="87" x="317.5" y="1043"/><rect fill="#F1F1F1" height="10" style="stroke:#181818;stroke-width:0.5;" width="15" x="384.5" y="1048"/><rect fill="#F1F1F1" height="2" style="stroke:#181818;stroke-width:0.5;" width="4" x="382.5" y="1050"/><rect fill="#F1F1F1" height="2" style="stroke:#181818;stroke-width:0.5;" width="4" x="382.5" y="1054"/><text fill="#000000" font-family="sans-serif" font-size="11" font-style="italic" lengthAdjust="spacing" textLength="47" x="332.5" y="1074.4189">&#171;Library&#187;</text><text fill="#000000" font-family="sans-serif" font-size="11" lengthAdjust="spacing" textLength="25" x="343.5" y="1088.2549">react</text></g><!--entity ReactNavigation--><g id="elem_ReactNavigation"><rect fill="#F1F1F1" height="57.6719" rx="2.5" ry="2.5" style="stroke:#181818;stroke-width:0.5;" width="161" x="280.5" y="950"/><rect fill="#F1F1F1" height="10" style="stroke:#181818;stroke-width:0.5;" width="15" x="421.5" y="955"/><rect fill="#F1F1F1" height="2" style="stroke:#181818;stroke-width:0.5;" width="4" x="419.5" y="957"/><rect fill="#F1F1F1" height="2" style="stroke:#181818;stroke-width:0.5;" width="4" x="419.5" y="961"/><text fill="#000000" font-family="sans-serif" font-size="11" font-style="italic" lengthAdjust="spacing" textLength="47" x="332.5" y="981.4189">&#171;Library&#187;</text><text fill="#000000" font-family="sans-serif" font-size="11" lengthAdjust="spacing" textLength="121" x="295.5" y="995.2549">@react-navigation/native</text></g><!--entity SafeAreaContext--><g id="elem_SafeAreaContext"><rect fill="#F1F1F1" height="57.6719" rx="2.5" ry="2.5" style="stroke:#181818;stroke-width:0.5;" width="190" x="266" y="857"/><rect fill="#F1F1F1" height="10" style="stroke:#181818;stroke-width:0.5;" width="15" x="436" y="862"/><rect fill="#F1F1F1" height="2" style="stroke:#181818;stroke-width:0.5;" width="4" x="434" y="864"/><rect fill="#F1F1F1" height="2" style="stroke:#181818;stroke-width:0.5;" width="4" x="434" y="868"/><text fill="#000000" font-family="sans-serif" font-size="11" font-style="italic" lengthAdjust="spacing" textLength="47" x="332.5" y="888.4189">&#171;Library&#187;</text><text fill="#000000" font-family="sans-serif" font-size="11" lengthAdjust="spacing" textLength="150" x="281" y="902.2549">react-native-safe-area-context</text></g><!--entity ReactNative--><g id="elem_ReactNative"><rect fill="#F1F1F1" height="57.6719" rx="2.5" ry="2.5" style="stroke:#181818;stroke-width:0.5;" width="98" x="312" y="764"/><rect fill="#F1F1F1" height="10" style="stroke:#181818;stroke-width:0.5;" width="15" x="390" y="769"/><rect fill="#F1F1F1" height="2" style="stroke:#181818;stroke-width:0.5;" width="4" x="388" y="771"/><rect fill="#F1F1F1" height="2" style="stroke:#181818;stroke-width:0.5;" width="4" x="388" y="775"/><text fill="#000000" font-family="sans-serif" font-size="11" font-style="italic" lengthAdjust="spacing" textLength="47" x="332.5" y="795.4189">&#171;Library&#187;</text><text fill="#000000" font-family="sans-serif" font-size="11" lengthAdjust="spacing" textLength="58" x="327" y="809.2549">react-native</text></g><!--entity ReactI18next--><g id="elem_ReactI18next"><rect fill="#F1F1F1" height="57.6719" rx="2.5" ry="2.5" style="stroke:#181818;stroke-width:0.5;" width="104" x="309" y="671"/><rect fill="#F1F1F1" height="10" style="stroke:#181818;stroke-width:0.5;" width="15" x="393" y="676"/><rect fill="#F1F1F1" height="2" style="stroke:#181818;stroke-width:0.5;" width="4" x="391" y="678"/><rect fill="#F1F1F1" height="2" style="stroke:#181818;stroke-width:0.5;" width="4" x="391" y="682"/><text fill="#000000" font-family="sans-serif" font-size="11" font-style="italic" lengthAdjust="spacing" textLength="47" x="332.5" y="702.4189">&#171;Library&#187;</text><text fill="#000000" font-family="sans-serif" font-size="11" lengthAdjust="spacing" textLength="64" x="324" y="716.2549">react-i18next</text></g><!--entity useTranslation--><g id="elem_useTranslation"><rect fill="#F1F1F1" height="57.6719" rx="2.5" ry="2.5" style="stroke:#181818;stroke-width:0.5;" width="111" x="549" y="671"/><rect fill="#F1F1F1" height="10" style="stroke:#181818;stroke-width:0.5;" width="15" x="640" y="676"/><rect fill="#F1F1F1" height="2" style="stroke:#181818;stroke-width:0.5;" width="4" x="638" y="678"/><rect fill="#F1F1F1" height="2" style="stroke:#181818;stroke-width:0.5;" width="4" x="638" y="682"/><text fill="#000000" font-family="sans-serif" font-size="11" font-style="italic" lengthAdjust="spacing" textLength="38" x="580.5" y="702.4189">&#171;Hook&#187;</text><text fill="#000000" font-family="sans-serif" font-size="11" lengthAdjust="spacing" textLength="71" x="564" y="716.2549">useTranslation</text></g><!--entity ReactNativeToast--><g id="elem_ReactNativeToast"><rect fill="#F1F1F1" height="57.6719" rx="2.5" ry="2.5" style="stroke:#181818;stroke-width:0.5;" width="188" x="267" y="578"/><rect fill="#F1F1F1" height="10" style="stroke:#181818;stroke-width:0.5;" width="15" x="435" y="583"/><rect fill="#F1F1F1" height="2" style="stroke:#181818;stroke-width:0.5;" width="4" x="433" y="585"/><rect fill="#F1F1F1" height="2" style="stroke:#181818;stroke-width:0.5;" width="4" x="433" y="589"/><text fill="#000000" font-family="sans-serif" font-size="11" font-style="italic" lengthAdjust="spacing" textLength="47" x="332.5" y="609.4189">&#171;Library&#187;</text><text fill="#000000" font-family="sans-serif" font-size="11" lengthAdjust="spacing" textLength="148" x="282" y="623.2549">react-native-toast-notifications</text></g><!--entity Modal--><g id="elem_Modal"><path d="M340.5,500.8359 L340.5,524.8359 M340.5,512.8359 L357.5,512.8359 " fill="none" style="stroke:#181818;stroke-width:0.5;"/><ellipse cx="369.5" cy="512.8359" fill="#F1F1F1" rx="12" ry="12" style="stroke:#181818;stroke-width:0.5;"/><text fill="#000000" font-family="sans-serif" font-size="11" lengthAdjust="spacing" textLength="28" x="347" y="540.2549">Modal</text><text fill="#000000" font-family="sans-serif" font-size="11" font-style="italic" lengthAdjust="spacing" textLength="115" x="303.5" y="494.4189">&#171;Custom Components&#187;</text></g><!--entity AppHeader--><g id="elem_AppHeader"><path d="M340.5,405.8359 L340.5,429.8359 M340.5,417.8359 L357.5,417.8359 " fill="none" style="stroke:#181818;stroke-width:0.5;"/><ellipse cx="369.5" cy="417.8359" fill="#F1F1F1" rx="12" ry="12" style="stroke:#181818;stroke-width:0.5;"/><text fill="#000000" font-family="sans-serif" font-size="11" lengthAdjust="spacing" textLength="55" x="333.5" y="445.2549">AppHeader</text><text fill="#000000" font-family="sans-serif" font-size="11" font-style="italic" lengthAdjust="spacing" textLength="115" x="303.5" y="399.4189">&#171;Custom Components&#187;</text></g><!--entity useCurrentLocation--><g id="elem_useCurrentLocation"><rect fill="#F1F1F1" height="57.6719" rx="2.5" ry="2.5" style="stroke:#181818;stroke-width:0.5;" width="135" x="293.5" y="295"/><rect fill="#F1F1F1" height="10" style="stroke:#181818;stroke-width:0.5;" width="15" x="408.5" y="300"/><rect fill="#F1F1F1" height="2" style="stroke:#181818;stroke-width:0.5;" width="4" x="406.5" y="302"/><rect fill="#F1F1F1" height="2" style="stroke:#181818;stroke-width:0.5;" width="4" x="406.5" y="306"/><text fill="#000000" font-family="sans-serif" font-size="11" font-style="italic" lengthAdjust="spacing" textLength="85" x="313.5" y="326.4189">&#171;Custom Hooks&#187;</text><text fill="#000000" font-family="sans-serif" font-size="11" lengthAdjust="spacing" textLength="95" x="308.5" y="340.2549">useCurrentLocation</text></g><!--entity useImagePicker--><g id="elem_useImagePicker"><rect fill="#F1F1F1" height="57.6719" rx="2.5" ry="2.5" style="stroke:#181818;stroke-width:0.5;" width="125" x="542" y="1327"/><rect fill="#F1F1F1" height="10" style="stroke:#181818;stroke-width:0.5;" width="15" x="647" y="1332"/><rect fill="#F1F1F1" height="2" style="stroke:#181818;stroke-width:0.5;" width="4" x="645" y="1334"/><rect fill="#F1F1F1" height="2" style="stroke:#181818;stroke-width:0.5;" width="4" x="645" y="1338"/><text fill="#000000" font-family="sans-serif" font-size="11" font-style="italic" lengthAdjust="spacing" textLength="85" x="557" y="1358.4189">&#171;Custom Hooks&#187;</text><text fill="#000000" font-family="sans-serif" font-size="11" lengthAdjust="spacing" textLength="75" x="562" y="1372.2549">useImagePicker</text></g><!--entity useMusicPicker--><g id="elem_useMusicPicker"><rect fill="#F1F1F1" height="57.6719" rx="2.5" ry="2.5" style="stroke:#181818;stroke-width:0.5;" width="125" x="542" y="1222"/><rect fill="#F1F1F1" height="10" style="stroke:#181818;stroke-width:0.5;" width="15" x="647" y="1227"/><rect fill="#F1F1F1" height="2" style="stroke:#181818;stroke-width:0.5;" width="4" x="645" y="1229"/><rect fill="#F1F1F1" height="2" style="stroke:#181818;stroke-width:0.5;" width="4" x="645" y="1233"/><text fill="#000000" font-family="sans-serif" font-size="11" font-style="italic" lengthAdjust="spacing" textLength="85" x="557" y="1253.4189">&#171;Custom Hooks&#187;</text><text fill="#000000" font-family="sans-serif" font-size="11" lengthAdjust="spacing" textLength="75" x="562" y="1267.2549">useMusicPicker</text></g><!--entity useAudioRecorder--><g id="elem_useAudioRecorder"><rect fill="#F1F1F1" height="57.6719" rx="2.5" ry="2.5" style="stroke:#181818;stroke-width:0.5;" width="131" x="539" y="1106"/><rect fill="#F1F1F1" height="10" style="stroke:#181818;stroke-width:0.5;" width="15" x="650" y="1111"/><rect fill="#F1F1F1" height="2" style="stroke:#181818;stroke-width:0.5;" width="4" x="648" y="1113"/><rect fill="#F1F1F1" height="2" style="stroke:#181818;stroke-width:0.5;" width="4" x="648" y="1117"/><text fill="#000000" font-family="sans-serif" font-size="11" font-style="italic" lengthAdjust="spacing" textLength="85" x="557" y="1137.4189">&#171;Custom Hooks&#187;</text><text fill="#000000" font-family="sans-serif" font-size="11" lengthAdjust="spacing" textLength="91" x="554" y="1151.2549">useAudioRecorder</text></g><!--entity ExpoCamera--><g id="elem_ExpoCamera"><rect fill="#F1F1F1" height="57.6719" rx="2.5" ry="2.5" style="stroke:#181818;stroke-width:0.5;" width="104" x="775" y="1328"/><rect fill="#F1F1F1" height="10" style="stroke:#181818;stroke-width:0.5;" width="15" x="859" y="1333"/><rect fill="#F1F1F1" height="2" style="stroke:#181818;stroke-width:0.5;" width="4" x="857" y="1335"/><rect fill="#F1F1F1" height="2" style="stroke:#181818;stroke-width:0.5;" width="4" x="857" y="1339"/><text fill="#000000" font-family="sans-serif" font-size="11" font-style="italic" lengthAdjust="spacing" textLength="47" x="798.5" y="1359.4189">&#171;Library&#187;</text><text fill="#000000" font-family="sans-serif" font-size="11" lengthAdjust="spacing" textLength="64" x="790" y="1373.2549">expo-camera</text></g><!--entity Camera--><g id="elem_Camera"><rect fill="#F1F1F1" height="57.6719" rx="2.5" ry="2.5" style="stroke:#181818;stroke-width:0.5;" width="108" x="965.5" y="1328"/><rect fill="#F1F1F1" height="10" style="stroke:#181818;stroke-width:0.5;" width="15" x="1053.5" y="1333"/><rect fill="#F1F1F1" height="2" style="stroke:#181818;stroke-width:0.5;" width="4" x="1051.5" y="1335"/><rect fill="#F1F1F1" height="2" style="stroke:#181818;stroke-width:0.5;" width="4" x="1051.5" y="1339"/><text fill="#000000" font-family="sans-serif" font-size="11" font-style="italic" lengthAdjust="spacing" textLength="68" x="980.5" y="1359.4189">&#171;Component&#187;</text><text fill="#000000" font-family="sans-serif" font-size="11" lengthAdjust="spacing" textLength="37" x="996" y="1373.2549">Camera</text></g><!--entity ExpoImagePicker--><g id="elem_ExpoImagePicker"><rect fill="#F1F1F1" height="57.6719" rx="2.5" ry="2.5" style="stroke:#181818;stroke-width:0.5;" width="129" x="762.5" y="1235"/><rect fill="#F1F1F1" height="10" style="stroke:#181818;stroke-width:0.5;" width="15" x="871.5" y="1240"/><rect fill="#F1F1F1" height="2" style="stroke:#181818;stroke-width:0.5;" width="4" x="869.5" y="1242"/><rect fill="#F1F1F1" height="2" style="stroke:#181818;stroke-width:0.5;" width="4" x="869.5" y="1246"/><text fill="#000000" font-family="sans-serif" font-size="11" font-style="italic" lengthAdjust="spacing" textLength="47" x="798.5" y="1266.4189">&#171;Library&#187;</text><text fill="#000000" font-family="sans-serif" font-size="11" lengthAdjust="spacing" textLength="89" x="777.5" y="1280.2549">expo-image-picker</text></g><!--entity ImagePicker--><g id="elem_ImagePicker"><rect fill="#F1F1F1" height="57.6719" rx="2.5" ry="2.5" style="stroke:#181818;stroke-width:0.5;" width="108" x="965.5" y="1235"/><rect fill="#F1F1F1" height="10" style="stroke:#181818;stroke-width:0.5;" width="15" x="1053.5" y="1240"/><rect fill="#F1F1F1" height="2" style="stroke:#181818;stroke-width:0.5;" width="4" x="1051.5" y="1242"/><rect fill="#F1F1F1" height="2" style="stroke:#181818;stroke-width:0.5;" width="4" x="1051.5" y="1246"/><text fill="#000000" font-family="sans-serif" font-size="11" font-style="italic" lengthAdjust="spacing" textLength="68" x="980.5" y="1266.4189">&#171;Component&#187;</text><text fill="#000000" font-family="sans-serif" font-size="11" lengthAdjust="spacing" textLength="57" x="986" y="1280.2549">ImagePicker</text></g><!--entity ExpoLocation--><g id="elem_ExpoLocation"><rect fill="#F1F1F1" height="57.6719" rx="2.5" ry="2.5" style="stroke:#181818;stroke-width:0.5;" width="105" x="552" y="295"/><rect fill="#F1F1F1" height="10" style="stroke:#181818;stroke-width:0.5;" width="15" x="637" y="300"/><rect fill="#F1F1F1" height="2" style="stroke:#181818;stroke-width:0.5;" width="4" x="635" y="302"/><rect fill="#F1F1F1" height="2" style="stroke:#181818;stroke-width:0.5;" width="4" x="635" y="306"/><text fill="#000000" font-family="sans-serif" font-size="11" font-style="italic" lengthAdjust="spacing" textLength="47" x="576" y="326.4189">&#171;Library&#187;</text><text fill="#000000" font-family="sans-serif" font-size="11" lengthAdjust="spacing" textLength="65" x="567" y="340.2549">expo-location</text></g><!--entity expoLocationComponent--><g id="elem_expoLocationComponent"><rect fill="#F1F1F1" height="57.6719" rx="2.5" ry="2.5" style="stroke:#181818;stroke-width:0.5;" width="108" x="773" y="295"/><rect fill="#F1F1F1" height="10" style="stroke:#181818;stroke-width:0.5;" width="15" x="861" y="300"/><rect fill="#F1F1F1" height="2" style="stroke:#181818;stroke-width:0.5;" width="4" x="859" y="302"/><rect fill="#F1F1F1" height="2" style="stroke:#181818;stroke-width:0.5;" width="4" x="859" y="306"/><text fill="#000000" font-family="sans-serif" font-size="11" font-style="italic" lengthAdjust="spacing" textLength="68" x="788" y="326.4189">&#171;Component&#187;</text><text fill="#000000" font-family="sans-serif" font-size="11" lengthAdjust="spacing" textLength="41" x="801.5" y="340.2549">Location</text></g><!--entity ExpoDocumentPicker--><g id="elem_ExpoDocumentPicker"><rect fill="#F1F1F1" height="57.6719" rx="2.5" ry="2.5" style="stroke:#181818;stroke-width:0.5;" width="148" x="753" y="1142"/><rect fill="#F1F1F1" height="10" style="stroke:#181818;stroke-width:0.5;" width="15" x="881" y="1147"/><rect fill="#F1F1F1" height="2" style="stroke:#181818;stroke-width:0.5;" width="4" x="879" y="1149"/><rect fill="#F1F1F1" height="2" style="stroke:#181818;stroke-width:0.5;" width="4" x="879" y="1153"/><text fill="#000000" font-family="sans-serif" font-size="11" font-style="italic" lengthAdjust="spacing" textLength="47" x="798.5" y="1173.4189">&#171;Library&#187;</text><text fill="#000000" font-family="sans-serif" font-size="11" lengthAdjust="spacing" textLength="108" x="768" y="1187.2549">expo-document-picker</text></g><!--entity DocumentPicker--><g id="elem_DocumentPicker"><rect fill="#F1F1F1" height="57.6719" rx="2.5" ry="2.5" style="stroke:#181818;stroke-width:0.5;" width="117" x="961" y="1142"/><rect fill="#F1F1F1" height="10" style="stroke:#181818;stroke-width:0.5;" width="15" x="1058" y="1147"/><rect fill="#F1F1F1" height="2" style="stroke:#181818;stroke-width:0.5;" width="4" x="1056" y="1149"/><rect fill="#F1F1F1" height="2" style="stroke:#181818;stroke-width:0.5;" width="4" x="1056" y="1153"/><text fill="#000000" font-family="sans-serif" font-size="11" font-style="italic" lengthAdjust="spacing" textLength="68" x="980.5" y="1173.4189">&#171;Component&#187;</text><text fill="#000000" font-family="sans-serif" font-size="11" lengthAdjust="spacing" textLength="77" x="976" y="1187.2549">DocumentPicker</text></g><!--entity ExpoAV--><g id="elem_ExpoAV"><rect fill="#F1F1F1" height="57.6719" rx="2.5" ry="2.5" style="stroke:#181818;stroke-width:0.5;" width="87" x="783.5" y="1049"/><rect fill="#F1F1F1" height="10" style="stroke:#181818;stroke-width:0.5;" width="15" x="850.5" y="1054"/><rect fill="#F1F1F1" height="2" style="stroke:#181818;stroke-width:0.5;" width="4" x="848.5" y="1056"/><rect fill="#F1F1F1" height="2" style="stroke:#181818;stroke-width:0.5;" width="4" x="848.5" y="1060"/><text fill="#000000" font-family="sans-serif" font-size="11" font-style="italic" lengthAdjust="spacing" textLength="47" x="798.5" y="1080.4189">&#171;Library&#187;</text><text fill="#000000" font-family="sans-serif" font-size="11" lengthAdjust="spacing" textLength="40" x="802" y="1094.2549">expo-av</text></g><!--entity AudioComponent--><g id="elem_AudioComponent"><rect fill="#F1F1F1" height="57.6719" rx="2.5" ry="2.5" style="stroke:#181818;stroke-width:0.5;" width="108" x="965.5" y="1049"/><rect fill="#F1F1F1" height="10" style="stroke:#181818;stroke-width:0.5;" width="15" x="1053.5" y="1054"/><rect fill="#F1F1F1" height="2" style="stroke:#181818;stroke-width:0.5;" width="4" x="1051.5" y="1056"/><rect fill="#F1F1F1" height="2" style="stroke:#181818;stroke-width:0.5;" width="4" x="1051.5" y="1060"/><text fill="#000000" font-family="sans-serif" font-size="11" font-style="italic" lengthAdjust="spacing" textLength="68" x="980.5" y="1080.4189">&#171;Component&#187;</text><text fill="#000000" font-family="sans-serif" font-size="11" lengthAdjust="spacing" textLength="28" x="1000.5" y="1094.2549">Audio</text></g><!--entity ReactNativeCalendarPicker--><g id="elem_ReactNativeCalendarPicker"><rect fill="#F1F1F1" height="57.6719" rx="2.5" ry="2.5" style="stroke:#181818;stroke-width:0.5;" width="177" x="516" y="1002"/><rect fill="#F1F1F1" height="10" style="stroke:#181818;stroke-width:0.5;" width="15" x="673" y="1007"/><rect fill="#F1F1F1" height="2" style="stroke:#181818;stroke-width:0.5;" width="4" x="671" y="1009"/><rect fill="#F1F1F1" height="2" style="stroke:#181818;stroke-width:0.5;" width="4" x="671" y="1013"/><text fill="#000000" font-family="sans-serif" font-size="11" font-style="italic" lengthAdjust="spacing" textLength="47" x="576" y="1033.4189">&#171;Library&#187;</text><text fill="#000000" font-family="sans-serif" font-size="11" lengthAdjust="spacing" textLength="137" x="531" y="1047.2549">react-native-calendar-picker</text></g><!--entity CalendarPicker--><g id="elem_CalendarPicker"><rect fill="#F1F1F1" height="57.6719" rx="2.5" ry="2.5" style="stroke:#181818;stroke-width:0.5;" width="112" x="771" y="956"/><rect fill="#F1F1F1" height="10" style="stroke:#181818;stroke-width:0.5;" width="15" x="863" y="961"/><rect fill="#F1F1F1" height="2" style="stroke:#181818;stroke-width:0.5;" width="4" x="861" y="963"/><rect fill="#F1F1F1" height="2" style="stroke:#181818;stroke-width:0.5;" width="4" x="861" y="967"/><text fill="#000000" font-family="sans-serif" font-size="11" font-style="italic" lengthAdjust="spacing" textLength="68" x="788" y="987.4189">&#171;Component&#187;</text><text fill="#000000" font-family="sans-serif" font-size="11" lengthAdjust="spacing" textLength="72" x="786" y="1001.2549">CalendarPicker</text></g><!--entity AddEventController--><g id="elem_AddEventController"><ellipse cx="361" cy="230" fill="#F1F1F1" rx="12" ry="12" style="stroke:#181818;stroke-width:0.5;"/><polygon fill="#181818" points="357,218,363,213,361,218,363,223,357,218" style="stroke:#181818;stroke-width:1.0;"/><text fill="#000000" font-family="sans-serif" font-size="11" lengthAdjust="spacing" textLength="93" x="314.5" y="257.4189">AddEventController</text></g><!--entity LocationController--><g id="elem_LocationController"><ellipse cx="361" cy="149" fill="#F1F1F1" rx="12" ry="12" style="stroke:#181818;stroke-width:0.5;"/><polygon fill="#181818" points="357,137,363,132,361,137,363,142,357,137" style="stroke:#181818;stroke-width:1.0;"/><text fill="#000000" font-family="sans-serif" font-size="11" lengthAdjust="spacing" textLength="87" x="317.5" y="176.4189">LocationController</text></g><!--entity FileController--><g id="elem_FileController"><ellipse cx="361" cy="68" fill="#F1F1F1" rx="12" ry="12" style="stroke:#181818;stroke-width:0.5;"/><polygon fill="#181818" points="357,56,363,51,361,56,363,61,357,56" style="stroke:#181818;stroke-width:1.0;"/><text fill="#000000" font-family="sans-serif" font-size="11" lengthAdjust="spacing" textLength="62" x="330" y="95.4189">FileController</text></g><!--entity EventModel--><g id="elem_EventModel"><ellipse cx="604.5" cy="230" fill="#F1F1F1" rx="12" ry="12" style="stroke:#181818;stroke-width:0.5;"/><line style="stroke:#181818;stroke-width:0.5;" x1="592.5" x2="616.5" y1="244" y2="244"/><text fill="#000000" font-family="sans-serif" font-size="11" lengthAdjust="spacing" textLength="55" x="577" y="257.4189">EventModel</text></g><!--entity LocationModel--><g id="elem_LocationModel"><ellipse cx="604.5" cy="149" fill="#F1F1F1" rx="12" ry="12" style="stroke:#181818;stroke-width:0.5;"/><line style="stroke:#181818;stroke-width:0.5;" x1="592.5" x2="616.5" y1="163" y2="163"/><text fill="#000000" font-family="sans-serif" font-size="11" lengthAdjust="spacing" textLength="69" x="570" y="176.4189">LocationModel</text></g><!--entity UserReg--><g id="elem_UserReg"><ellipse cx="39.5" cy="664.5" fill="#F1F1F1" rx="8" ry="8" style="stroke:#181818;stroke-width:0.5;"/><path d="M39.5,672.5 L39.5,699.5 M26.5,680.5 L52.5,680.5 M39.5,699.5 L26.5,714.5 M39.5,699.5 L52.5,714.5 " fill="none" style="stroke:#181818;stroke-width:0.5;"/><text fill="#000000" font-family="sans-serif" font-size="11" lengthAdjust="spacing" textLength="67" x="6" y="727.4189">Authenticated</text><text fill="#000000" font-family="sans-serif" font-size="11" lengthAdjust="spacing" textLength="23" x="28" y="741.2549">User</text></g><!--link addEventView to AddDefaultView--><g id="link_addEventView_AddDefaultView"><path d="M171.69,730.36 C176.5,839.97 197.72,1213.81 266,1308 C279.23,1326.25 295.823,1335.9307 315.343,1343.2607 " fill="none" id="addEventView-to-AddDefaultView" style="stroke:#181818;stroke-width:1.0;"/><polygon fill="#181818" points="320.96,1345.37,313.9406,1338.4614,316.2791,1343.6123,311.1283,1345.9508,320.96,1345.37" style="stroke:#181818;stroke-width:1.0;"/></g><!--link addEventView to AddDateView--><g id="link_addEventView_AddDateView"><path d="M172.66,730.28 C180.17,828.32 207.94,1135.24 266,1213 C280.8,1232.82 300.4614,1243.1236 321.1014,1250.2836 " fill="none" id="addEventView-to-AddDateView" style="stroke:#181818;stroke-width:1.0;"/><polygon fill="#181818" points="326.77,1252.25,319.578,1245.5213,322.0462,1250.6113,316.9561,1253.0794,326.77,1252.25" style="stroke:#181818;stroke-width:1.0;"/></g><!--link addEventView to ChooseCategoriesView--><g id="link_addEventView_ChooseCategoriesView"><path d="M174.07,730.27 C184.64,815.71 218.09,1056.48 266,1118 C275.57,1130.29 283.8091,1136.976 297.6791,1144.076 " fill="none" id="addEventView-to-ChooseCategoriesView" style="stroke:#181818;stroke-width:1.0;"/><polygon fill="#181818" points="303.02,1146.81,296.8313,1139.1484,298.5692,1144.5317,293.186,1146.2696,303.02,1146.81" style="stroke:#181818;stroke-width:1.0;"/></g><!--link addEventView to useCurrentLocation--><g id="link_addEventView_useCurrentLocation"><path d="M171.34,669.83 C174.61,606.89 190.42,459.96 266,370 C273.48,361.1 277.9114,356.8002 288.1314,350.8202 " fill="none" id="addEventView-to-useCurrentLocation" style="stroke:#181818;stroke-width:1.0;"/><polygon fill="#181818" points="293.31,347.79,283.522,348.8828,288.9945,350.3151,287.5622,355.7876,293.31,347.79" style="stroke:#181818;stroke-width:1.0;"/></g><!--link addEventView to SafeAreaContext--><g id="link_addEventView_SafeAreaContext"><path d="M185.35,730.15 C201.66,760.76 230.33,807.96 266,839 C273.57,845.59 277.0566,848.4809 285.9766,853.7209 " fill="none" id="addEventView-to-SafeAreaContext" style="stroke:#181818;stroke-width:1.0;"/><polygon fill="#181818" points="291.15,856.76,285.416,848.7525,286.8388,854.2274,281.3639,855.6503,291.15,856.76" style="stroke:#181818;stroke-width:1.0;"/></g><!--link addEventView to ReactNative--><g id="link_addEventView_ReactNative"><path d="M206.14,717.49 C236.06,732.17 273.6636,750.6267 306.6136,766.7967 " fill="none" id="addEventView-to-ReactNative" style="stroke:#181818;stroke-width:1.0;"/><polygon fill="#181818" points="312,769.44,305.6827,761.8841,307.5114,767.2372,302.1582,769.0659,312,769.44" style="stroke:#181818;stroke-width:1.0;"/></g><!--link addEventView to ReactNativeToast--><g id="link_addEventView_ReactNativeToast"><path d="M206.32,682.35 C224.24,673.52 246.26,662.69 266,653 C277.17,647.52 283.7101,644.3062 295.1801,638.6962 " fill="none" id="addEventView-to-ReactNativeToast" style="stroke:#181818;stroke-width:1.0;"/><polygon fill="#181818" points="300.57,636.06,290.7278,636.421,296.0785,638.2568,294.2427,643.6075,300.57,636.06" style="stroke:#181818;stroke-width:1.0;"/></g><!--link addEventView to ReactI18next--><g id="link_addEventView_ReactI18next"><path d="M206.14,700 C235.09,700 270.29,700 302.78,700 " fill="none" id="addEventView-to-ReactI18next" style="stroke:#181818;stroke-width:1.0;"/><polygon fill="#181818" points="308.78,700,299.78,696,303.78,700,299.78,704,308.78,700" style="stroke:#181818;stroke-width:1.0;"/></g><!--link addEventView to ReactNavigation--><g id="link_addEventView_ReactNavigation"><path d="M175.8,730.02 C185.7,778.1 211.14,872.98 266,932 C272.33,938.82 274.8446,941.5174 282.8546,946.7074 " fill="none" id="addEventView-to-ReactNavigation" style="stroke:#181818;stroke-width:1.0;"/><polygon fill="#181818" points="287.89,949.97,282.512,941.7191,283.6938,947.2511,278.1618,948.433,287.89,949.97" style="stroke:#181818;stroke-width:1.0;"/></g><!--link addEventView to React--><g id="link_addEventView_React"><path d="M171.56,730.14 C175.27,792.31 191.87,936.35 266,1025 C279.23,1040.82 293.5332,1049.5667 311.6032,1056.9267 " fill="none" id="addEventView-to-React" style="stroke:#181818;stroke-width:1.0;"/><polygon fill="#181818" points="317.16,1059.19,310.3337,1052.0906,312.5294,1057.3039,307.316,1059.4996,317.16,1059.19" style="stroke:#181818;stroke-width:1.0;"/></g><!--link addEventView to Modal--><g id="link_addEventView_Modal"><path d="M185.15,669.92 C201.39,639.09 230.1,591.35 266,560 C276.99,550.4 284.9639,544.9534 298.0539,538.2234 " fill="none" id="addEventView-to-Modal" style="stroke:#181818;stroke-width:1.0;"/><polygon fill="#181818" points="303.39,535.48,293.557,536.0378,298.9433,537.7662,297.2149,543.1525,303.39,535.48" style="stroke:#181818;stroke-width:1.0;"/></g><!--link addEventView to AppHeader--><g id="link_addEventView_AppHeader"><path d="M175.62,669.99 C185.3,621.42 210.52,524.96 266,465 C276.28,453.88 284.4317,447.7595 297.9817,440.8695 " fill="none" id="addEventView-to-AppHeader" style="stroke:#181818;stroke-width:1.0;"/><polygon fill="#181818" points="303.33,438.15,293.4946,438.6638,298.8731,440.4163,297.1206,445.7948,303.33,438.15" style="stroke:#181818;stroke-width:1.0;"/></g><!--link AddDefaultView to useImagePicker--><g id="link_AddDefaultView_useImagePicker"><path d="M401.07,1356 C439.12,1356 491.53,1356 535.85,1356 " fill="none" id="AddDefaultView-to-useImagePicker" style="stroke:#181818;stroke-width:1.0;"/><polygon fill="#181818" points="541.85,1356,532.85,1352,536.85,1356,532.85,1360,541.85,1356" style="stroke:#181818;stroke-width:1.0;"/></g><!--link AddDefaultView to useMusicPicker--><g id="link_AddDefaultView_useMusicPicker"><path d="M401.07,1339.01 C439.12,1322.47 492.0271,1299.4614 536.3471,1280.2014 " fill="none" id="AddDefaultView-to-useMusicPicker" style="stroke:#181818;stroke-width:1.0;"/><polygon fill="#181818" points="541.85,1277.81,532.0015,1277.7285,537.2643,1279.8028,535.19,1285.0656,541.85,1277.81" style="stroke:#181818;stroke-width:1.0;"/></g><!--link AddDefaultView to useAudioRecorder--><g id="link_AddDefaultView_useAudioRecorder"><path d="M401.3,1341.97 C419.49,1334.06 440.46,1322.77 456,1308 C494.69,1271.24 481.09,1244.36 516,1204 C528.78,1189.22 540.3103,1178.9837 555.3803,1167.6137 " fill="none" id="AddDefaultView-to-useAudioRecorder" style="stroke:#181818;stroke-width:1.0;"/><polygon fill="#181818" points="560.17,1164,550.5763,1166.2275,556.1786,1167.0114,555.3946,1172.6137,560.17,1164" style="stroke:#181818;stroke-width:1.0;"/></g><!--link AddDateView to ReactNativeCalendarPicker--><g id="link_AddDateView_ReactNativeCalendarPicker"><path d="M395.36,1250.13 C415.01,1242.35 439.24,1230.18 456,1213 C499.04,1168.89 475.34,1134.31 516,1088 C525.21,1077.51 531.8347,1071.5383 543.5247,1063.6083 " fill="none" id="AddDateView-to-ReactNativeCalendarPicker" style="stroke:#181818;stroke-width:1.0;"/><polygon fill="#181818" points="548.49,1060.24,538.7965,1061.9822,544.3522,1063.0469,543.2875,1068.6027,548.49,1060.24" style="stroke:#181818;stroke-width:1.0;"/></g><!--link ReactNativeCalendarPicker to CalendarPicker--><g id="link_ReactNativeCalendarPicker_CalendarPicker"><path d="M693.28,1012.69 C719.46,1007.23 741.5367,1002.6267 764.9967,997.7267 " fill="none" id="ReactNativeCalendarPicker-to-CalendarPicker" style="stroke:#181818;stroke-width:1.0;"/><polygon fill="#181818" points="770.87,996.5,761.2423,994.4246,765.9756,997.5223,762.8779,1002.2556,770.87,996.5" style="stroke:#181818;stroke-width:1.0;"/></g><!--link useImagePicker to ExpoCamera--><g id="link_useImagePicker_ExpoCamera"><path d="M667.21,1356.28 C701.1,1356.43 736.6401,1356.592 768.7301,1356.742 " fill="none" id="useImagePicker-to-ExpoCamera" style="stroke:#181818;stroke-width:1.0;"/><polygon fill="#181818" points="774.73,1356.77,765.7488,1352.728,769.7301,1356.7466,765.7114,1360.7279,774.73,1356.77" style="stroke:#181818;stroke-width:1.0;"/></g><!--link ExpoCamera to Camera--><g id="link_ExpoCamera_Camera"><path d="M879.05,1357 C905.72,1357 932.33,1357 959.31,1357 " fill="none" id="ExpoCamera-to-Camera" style="stroke:#181818;stroke-width:1.0;"/><polygon fill="#181818" points="965.31,1357,956.31,1353,960.31,1357,956.31,1361,965.31,1357" style="stroke:#181818;stroke-width:1.0;"/></g><!--link useImagePicker to ExpoImagePicker--><g id="link_useImagePicker_ExpoImagePicker"><path d="M667.21,1330.25 C696.9,1317.86 726.9128,1305.3407 756.8428,1292.8507 " fill="none" id="useImagePicker-to-ExpoImagePicker" style="stroke:#181818;stroke-width:1.0;"/><polygon fill="#181818" points="762.38,1290.54,752.5337,1290.3146,757.7657,1292.4656,755.6147,1297.6975,762.38,1290.54" style="stroke:#181818;stroke-width:1.0;"/></g><!--link ExpoImagePicker to ImagePicker--><g id="link_ExpoImagePicker_ImagePicker"><path d="M891.7,1264 C915.6,1264 936.5,1264 959.34,1264 " fill="none" id="ExpoImagePicker-to-ImagePicker" style="stroke:#181818;stroke-width:1.0;"/><polygon fill="#181818" points="965.34,1264,956.34,1260,960.34,1264,956.34,1268,965.34,1264" style="stroke:#181818;stroke-width:1.0;"/></g><!--link ReactI18next to useTranslation--><g id="link_ReactI18next_useTranslation"><path d="M413.22,700 C452.95,700 501.93,700 542.58,700 " fill="none" id="ReactI18next-to-useTranslation" style="stroke:#181818;stroke-width:1.0;"/><polygon fill="#181818" points="548.58,700,539.58,696,543.58,700,539.58,704,548.58,700" style="stroke:#181818;stroke-width:1.0;"/></g><!--link useMusicPicker to ExpoDocumentPicker--><g id="link_useMusicPicker_ExpoDocumentPicker"><path d="M667.21,1228.61 C693.84,1218.95 719.5498,1209.6265 747.3298,1199.5465 " fill="none" id="useMusicPicker-to-ExpoDocumentPicker" style="stroke:#181818;stroke-width:1.0;"/><polygon fill="#181818" points="752.97,1197.5,743.1454,1196.8097,748.2698,1199.2055,745.8741,1204.3299,752.97,1197.5" style="stroke:#181818;stroke-width:1.0;"/></g><!--link ExpoDocumentPicker to DocumentPicker--><g id="link_ExpoDocumentPicker_DocumentPicker"><path d="M901.11,1171 C920.94,1171 936.13,1171 954.96,1171 " fill="none" id="ExpoDocumentPicker-to-DocumentPicker" style="stroke:#181818;stroke-width:1.0;"/><polygon fill="#181818" points="960.96,1171,951.96,1167,955.96,1171,951.96,1175,960.96,1171" style="stroke:#181818;stroke-width:1.0;"/></g><!--link useCurrentLocation to ExpoLocation--><g id="link_useCurrentLocation_ExpoLocation"><path d="M428.63,324 C467.44,324 509.66,324 545.63,324 " fill="none" id="useCurrentLocation-to-ExpoLocation" style="stroke:#181818;stroke-width:1.0;"/><polygon fill="#181818" points="551.63,324,542.63,320,546.63,324,542.63,328,551.63,324" style="stroke:#181818;stroke-width:1.0;"/></g><!--link ExpoLocation to expoLocationComponent--><g id="link_ExpoLocation_expoLocationComponent"><path d="M657.2,324 C691.95,324 731.63,324 766.71,324 " fill="none" id="ExpoLocation-to-expoLocationComponent" style="stroke:#181818;stroke-width:1.0;"/><polygon fill="#181818" points="772.71,324,763.71,320,767.71,324,763.71,328,772.71,324" style="stroke:#181818;stroke-width:1.0;"/></g><!--link useAudioRecorder to ExpoAV--><g id="link_useAudioRecorder_ExpoAV"><path d="M670.17,1118.28 C706.64,1108.86 745.3809,1098.8416 777.4909,1090.5416 " fill="none" id="useAudioRecorder-to-ExpoAV" style="stroke:#181818;stroke-width:1.0;"/><polygon fill="#181818" points="783.3,1089.04,773.5854,1087.4196,778.4591,1090.2913,775.5874,1095.1651,783.3,1089.04" style="stroke:#181818;stroke-width:1.0;"/></g><!--link ExpoAV to AudioComponent--><g id="link_ExpoAV_AudioComponent"><path d="M870.75,1078 C898.73,1078 929.48,1078 959.34,1078 " fill="none" id="ExpoAV-to-AudioComponent" style="stroke:#181818;stroke-width:1.0;"/><polygon fill="#181818" points="965.34,1078,956.34,1074,960.34,1078,956.34,1082,965.34,1078" style="stroke:#181818;stroke-width:1.0;"/></g><!--link addEventView to AddEventController--><g id="link_addEventView_AddEventController"><path d="M173.74,669.81 C183.54,583.46 215.36,337.7 266,277 C278.27,262.29 291.2427,254.8112 308.7027,248.8412 " fill="none" id="addEventView-to-AddEventController" style="stroke:#181818;stroke-width:1.0;"/><polygon fill="#181818" points="314.38,246.9,304.5699,246.0269,309.6489,248.5177,307.1582,253.5967,314.38,246.9" style="stroke:#181818;stroke-width:1.0;"/></g><!--link addEventView to LocationController--><g id="link_addEventView_LocationController"><path d="M172.54,669.75 C179.66,572.55 206.24,270.22 266,196 C278.68,180.25 292.9964,172.4317 311.3064,166.5617 " fill="none" id="addEventView-to-LocationController" style="stroke:#181818;stroke-width:1.0;"/><polygon fill="#181818" points="317.02,164.73,307.2285,163.6685,312.2587,166.2564,309.6708,171.2866,317.02,164.73" style="stroke:#181818;stroke-width:1.0;"/></g><!--link addEventView to FileController--><g id="link_addEventView_FileController"><path d="M171.66,669.89 C176.34,562.93 197.01,202.95 266,115 C281.54,95.18 302.9269,86.4452 324.0969,81.3452 " fill="none" id="addEventView-to-FileController" style="stroke:#181818;stroke-width:1.0;"/><polygon fill="#181818" points="329.93,79.94,320.2435,78.1591,325.0691,81.111,322.1171,85.9366,329.93,79.94" style="stroke:#181818;stroke-width:1.0;"/></g><!--link AddEventController to EventModel--><g id="link_AddEventController_EventModel"><path d="M407.71,237 C457.62,237 529.87,237 570.69,237 " fill="none" id="AddEventController-to-EventModel" style="stroke:#181818;stroke-width:1.0;"/><polygon fill="#181818" points="576.69,237,567.69,233,571.69,237,567.69,241,576.69,237" style="stroke:#181818;stroke-width:1.0;"/></g><!--link LocationController to LocationModel--><g id="link_LocationController_LocationModel"><path d="M404.62,156 C451.74,156 520.69,156 563.86,156 " fill="none" id="LocationController-to-LocationModel" style="stroke:#181818;stroke-width:1.0;"/><polygon fill="#181818" points="569.86,156,560.86,152,564.86,156,560.86,160,569.86,156" style="stroke:#181818;stroke-width:1.0;"/></g><!--link UserReg to addEventView--><g id="link_UserReg_addEventView"><path d="M73.13,700 C91.35,700 108.08,700 126.78,700 " fill="none" id="UserReg-to-addEventView" style="stroke:#181818;stroke-width:1.0;stroke-dasharray:7.0,7.0;"/><polygon fill="#181818" points="132.78,700,123.78,696,127.78,700,123.78,704,132.78,700" style="stroke:#181818;stroke-width:1.0;"/></g><!--SRC=[bLTDRniX4BtpAr0kFQtRNDAgggnQcqI9b4HLuaOzz49OR2FlBYjWtQHL_tk1_U1pxQqFrZAyzmO6c06nftM3EAgWa6ybKV-SOjbM9H1ZJq4sg2tbchpALKctTKLg2R7w8pn6NRDQFj7V19wVWv9i99GCShhTILXGJh2ah0O8IyRXsQgLEwL2CPAa-5b_5uIVGIIW_dWaMm10W_0URGdSSALAwW9- -V9851i-84aFvFE7nSUBnSLo-GT0zNjXRLqW_gQKY-BgeAIVAVbb995ZK29m_VG3BfSnwxARnCZpJKUPQX8UhMzFSl8TOuBa2hPbd18nabCTZegHmQngMAtNuOphW1XY5ng5lAClNFj8eByQU5QZ0zqYlHZlQnDAA_0mTfsG6fGqFHDeGpAaJ1dMI_NQZUX9MLVAc7Us_n1qnwFRiwZq_5Czk3RSsyuGa0DkAyYQergKPjA6x9iq_OQn_SaWI8Q4QZ19DtfJAwe8vx7MaDHaxCQuPmKg3SzyQN3U2iagc0z-HM8BDiqDGKL_XCRM93iHXRpbN7tVCUn58Z0xYZee8XtHsqgTssyKx_i1-QPv6lUjeDZNS4ppD5PjGTaZmOmNLiKpfdH28VBQi0oZYd1aDAvKEpVDurihjnGB7zTXqXFLaSeQEtFjBmZVjDCmz67SJxeltGsWNRjBF-tNspV4eLcFizmN3BUwn8G1kEpjSsBWOur4J3yz57GOlQ-UZtiqUwexU_fh_foz389HIVI1TkVkP8-yxvuJ0X_Rxy6GdXfPBJahRGtDEqCvP9R837sUNNMF5vjzsZKjIK3nJTtmz7r1gdHdng3o8-aofMrwgC6f1NeMy1U0T_1wk5oOGdj3rJ7bUFS6l3j3bYt3oq0QC9Jzk3TPrsDOd77r84stpU0nBIYrCS3PHaSxJOMQGFJrT98_t1mc0B7PLBX488VofQOUHZrezo5pajm4mYaT4mYlBFIU- -K4xj860VDF5PW-hcOJ-62ribrX0461r5XRPO1JS3eLOrLiTzuJ4YuaB2GQu_OhHM-XlLjK7oRdPgJnVbu5GP4U1X6W4lbS8mEKKdVB3qXSHWRz4UFLAzsRh4HQsYmtYAu3W-Bg6VHvt-n8BwcRTRC9a9Ck76976v5C2q7AZ369z1XXmdoOICLcy3ONnggUimwavg9VN93g1ntgNcZz4mmk5allxGJ0Fm00]--></g></svg>