<?xml version="1.0" encoding="us-ascii" standalone="no"?><svg xmlns="http://www.w3.org/2000/svg" xmlns:xlink="http://www.w3.org/1999/xlink" contentStyleType="text/css" height="1451px" preserveAspectRatio="none" style="width:1111px;height:1451px;background:#FFFFFF;" version="1.1" viewBox="0 0 1111 1451" width="1111px" zoomAndPan="magnify"><defs/><g><!--cluster frontend--><g id="cluster_frontend"><polygon fill="none" points="117,6,171,6,178,25.8359,1094,25.8359,1094,1444,117,1444,117,6" style="stroke:#000000;stroke-width:1.5;"/><line style="stroke:#000000;stroke-width:1.5;" x1="117" x2="178" y1="25.8359" y2="25.8359"/><text fill="#000000" font-family="sans-serif" font-size="11" font-weight="bold" lengthAdjust="spacing" textLength="48" x="121" y="19.4189">frontend</text><text fill="#000000" font-family="sans-serif" font-size="11" font-style="italic" lengthAdjust="spacing" textLength="108" x="555.5" y="39.2549">&#171;React Native:0.76.6&#187;</text></g><!--entity addEventView--><g id="elem_addEventView"><path d="M149,729.8359 L149,753.8359 M149,741.8359 L166,741.8359 " fill="none" style="stroke:#181818;stroke-width:0.5;"/><ellipse cx="178" cy="741.8359" fill="#F1F1F1" rx="12" ry="12" style="stroke:#181818;stroke-width:0.5;"/><text fill="#000000" font-family="sans-serif" font-size="11" lengthAdjust="spacing" textLength="73" x="133" y="769.2549">AddEventView</text><text fill="#000000" font-family="sans-serif" font-size="11" font-style="italic" lengthAdjust="spacing" textLength="33" x="153" y="723.4189">&#171;TSX&#187;</text></g><!--entity AddDefaultView--><g id="elem_AddDefaultView"><path d="M340.5,1385.8359 L340.5,1409.8359 M340.5,1397.8359 L357.5,1397.8359 " fill="none" style="stroke:#181818;stroke-width:0.5;"/><ellipse cx="369.5" cy="1397.8359" fill="#F1F1F1" rx="12" ry="12" style="stroke:#181818;stroke-width:0.5;"/><text fill="#000000" font-family="sans-serif" font-size="11" lengthAdjust="spacing" textLength="80" x="321" y="1425.2549">AddDefaultView</text><text fill="#000000" font-family="sans-serif" font-size="11" font-style="italic" lengthAdjust="spacing" textLength="33" x="344.5" y="1379.4189">&#171;TSX&#187;</text></g><!--entity AddDateView--><g id="elem_AddDateView"><path d="M340.5,1290.8359 L340.5,1314.8359 M340.5,1302.8359 L357.5,1302.8359 " fill="none" style="stroke:#181818;stroke-width:0.5;"/><ellipse cx="369.5" cy="1302.8359" fill="#F1F1F1" rx="12" ry="12" style="stroke:#181818;stroke-width:0.5;"/><text fill="#000000" font-family="sans-serif" font-size="11" lengthAdjust="spacing" textLength="68" x="327" y="1330.2549">AddDateView</text><text fill="#000000" font-family="sans-serif" font-size="11" font-style="italic" lengthAdjust="spacing" textLength="33" x="344.5" y="1284.4189">&#171;TSX&#187;</text></g><!--entity ChooseCategoriesView--><g id="elem_ChooseCategoriesView"><path d="M340.5,1195.8359 L340.5,1219.8359 M340.5,1207.8359 L357.5,1207.8359 " fill="none" style="stroke:#181818;stroke-width:0.5;"/><ellipse cx="369.5" cy="1207.8359" fill="#F1F1F1" rx="12" ry="12" style="stroke:#181818;stroke-width:0.5;"/><text fill="#000000" font-family="sans-serif" font-size="11" lengthAdjust="spacing" textLength="115" x="303.5" y="1235.2549">ChooseCategoriesView</text><text fill="#000000" font-family="sans-serif" font-size="11" font-style="italic" lengthAdjust="spacing" textLength="33" x="344.5" y="1189.4189">&#171;TSX&#187;</text></g><!--entity React--><g id="elem_React"><rect fill="#F1F1F1" height="57.6719" rx="2.5" ry="2.5" style="stroke:#181818;stroke-width:0.5;" width="87" x="317.5" y="1085"/><rect fill="#F1F1F1" height="10" style="stroke:#181818;stroke-width:0.5;" width="15" x="384.5" y="1090"/><rect fill="#F1F1F1" height="2" style="stroke:#181818;stroke-width:0.5;" width="4" x="382.5" y="1092"/><rect fill="#F1F1F1" height="2" style="stroke:#181818;stroke-width:0.5;" width="4" x="382.5" y="1096"/><text fill="#000000" font-family="sans-serif" font-size="11" font-style="italic" lengthAdjust="spacing" textLength="47" x="332.5" y="1116.4189">&#171;Library&#187;</text><text fill="#000000" font-family="sans-serif" font-size="11" lengthAdjust="spacing" textLength="25" x="343.5" y="1130.2549">react</text></g><!--entity ReactNavigation--><g id="elem_ReactNavigation"><rect fill="#F1F1F1" height="57.6719" rx="2.5" ry="2.5" style="stroke:#181818;stroke-width:0.5;" width="161" x="280.5" y="992"/><rect fill="#F1F1F1" height="10" style="stroke:#181818;stroke-width:0.5;" width="15" x="421.5" y="997"/><rect fill="#F1F1F1" height="2" style="stroke:#181818;stroke-width:0.5;" width="4" x="419.5" y="999"/><rect fill="#F1F1F1" height="2" style="stroke:#181818;stroke-width:0.5;" width="4" x="419.5" y="1003"/><text fill="#000000" font-family="sans-serif" font-size="11" font-style="italic" lengthAdjust="spacing" textLength="47" x="332.5" y="1023.4189">&#171;Library&#187;</text><text fill="#000000" font-family="sans-serif" font-size="11" lengthAdjust="spacing" textLength="121" x="295.5" y="1037.2549">@react-navigation/native</text></g><!--entity SafeAreaContext--><g id="elem_SafeAreaContext"><rect fill="#F1F1F1" height="57.6719" rx="2.5" ry="2.5" style="stroke:#181818;stroke-width:0.5;" width="190" x="266" y="899"/><rect fill="#F1F1F1" height="10" style="stroke:#181818;stroke-width:0.5;" width="15" x="436" y="904"/><rect fill="#F1F1F1" height="2" style="stroke:#181818;stroke-width:0.5;" width="4" x="434" y="906"/><rect fill="#F1F1F1" height="2" style="stroke:#181818;stroke-width:0.5;" width="4" x="434" y="910"/><text fill="#000000" font-family="sans-serif" font-size="11" font-style="italic" lengthAdjust="spacing" textLength="47" x="332.5" y="930.4189">&#171;Library&#187;</text><text fill="#000000" font-family="sans-serif" font-size="11" lengthAdjust="spacing" textLength="150" x="281" y="944.2549">react-native-safe-area-context</text></g><!--entity ReactNative--><g id="elem_ReactNative"><rect fill="#F1F1F1" height="57.6719" rx="2.5" ry="2.5" style="stroke:#181818;stroke-width:0.5;" width="98" x="312" y="806"/><rect fill="#F1F1F1" height="10" style="stroke:#181818;stroke-width:0.5;" width="15" x="390" y="811"/><rect fill="#F1F1F1" height="2" style="stroke:#181818;stroke-width:0.5;" width="4" x="388" y="813"/><rect fill="#F1F1F1" height="2" style="stroke:#181818;stroke-width:0.5;" width="4" x="388" y="817"/><text fill="#000000" font-family="sans-serif" font-size="11" font-style="italic" lengthAdjust="spacing" textLength="47" x="332.5" y="837.4189">&#171;Library&#187;</text><text fill="#000000" font-family="sans-serif" font-size="11" lengthAdjust="spacing" textLength="58" x="327" y="851.2549">react-native</text></g><!--entity ReactI18next--><g id="elem_ReactI18next"><rect fill="#F1F1F1" height="57.6719" rx="2.5" ry="2.5" style="stroke:#181818;stroke-width:0.5;" width="104" x="309" y="713"/><rect fill="#F1F1F1" height="10" style="stroke:#181818;stroke-width:0.5;" width="15" x="393" y="718"/><rect fill="#F1F1F1" height="2" style="stroke:#181818;stroke-width:0.5;" width="4" x="391" y="720"/><rect fill="#F1F1F1" height="2" style="stroke:#181818;stroke-width:0.5;" width="4" x="391" y="724"/><text fill="#000000" font-family="sans-serif" font-size="11" font-style="italic" lengthAdjust="spacing" textLength="47" x="332.5" y="744.4189">&#171;Library&#187;</text><text fill="#000000" font-family="sans-serif" font-size="11" lengthAdjust="spacing" textLength="64" x="324" y="758.2549">react-i18next</text></g><!--entity useTranslation--><g id="elem_useTranslation"><rect fill="#F1F1F1" height="57.6719" rx="2.5" ry="2.5" style="stroke:#181818;stroke-width:0.5;" width="111" x="549" y="713"/><rect fill="#F1F1F1" height="10" style="stroke:#181818;stroke-width:0.5;" width="15" x="640" y="718"/><rect fill="#F1F1F1" height="2" style="stroke:#181818;stroke-width:0.5;" width="4" x="638" y="720"/><rect fill="#F1F1F1" height="2" style="stroke:#181818;stroke-width:0.5;" width="4" x="638" y="724"/><text fill="#000000" font-family="sans-serif" font-size="11" font-style="italic" lengthAdjust="spacing" textLength="38" x="580.5" y="744.4189">&#171;Hook&#187;</text><text fill="#000000" font-family="sans-serif" font-size="11" lengthAdjust="spacing" textLength="71" x="564" y="758.2549">useTranslation</text></g><!--entity ReactNativeToast--><g id="elem_ReactNativeToast"><rect fill="#F1F1F1" height="57.6719" rx="2.5" ry="2.5" style="stroke:#181818;stroke-width:0.5;" width="188" x="267" y="620"/><rect fill="#F1F1F1" height="10" style="stroke:#181818;stroke-width:0.5;" width="15" x="435" y="625"/><rect fill="#F1F1F1" height="2" style="stroke:#181818;stroke-width:0.5;" width="4" x="433" y="627"/><rect fill="#F1F1F1" height="2" style="stroke:#181818;stroke-width:0.5;" width="4" x="433" y="631"/><text fill="#000000" font-family="sans-serif" font-size="11" font-style="italic" lengthAdjust="spacing" textLength="47" x="332.5" y="651.4189">&#171;Library&#187;</text><text fill="#000000" font-family="sans-serif" font-size="11" lengthAdjust="spacing" textLength="148" x="282" y="665.2549">react-native-toast-notifications</text></g><!--entity Modal--><g id="elem_Modal"><path d="M340.5,542.8359 L340.5,566.8359 M340.5,554.8359 L357.5,554.8359 " fill="none" style="stroke:#181818;stroke-width:0.5;"/><ellipse cx="369.5" cy="554.8359" fill="#F1F1F1" rx="12" ry="12" style="stroke:#181818;stroke-width:0.5;"/><text fill="#000000" font-family="sans-serif" font-size="11" lengthAdjust="spacing" textLength="28" x="347" y="582.2549">Modal</text><text fill="#000000" font-family="sans-serif" font-size="11" font-style="italic" lengthAdjust="spacing" textLength="115" x="303.5" y="536.4189">&#171;Custom Components&#187;</text></g><!--entity AppHeader--><g id="elem_AppHeader"><path d="M340.5,447.8359 L340.5,471.8359 M340.5,459.8359 L357.5,459.8359 " fill="none" style="stroke:#181818;stroke-width:0.5;"/><ellipse cx="369.5" cy="459.8359" fill="#F1F1F1" rx="12" ry="12" style="stroke:#181818;stroke-width:0.5;"/><text fill="#000000" font-family="sans-serif" font-size="11" lengthAdjust="spacing" textLength="55" x="333.5" y="487.2549">AppHeader</text><text fill="#000000" font-family="sans-serif" font-size="11" font-style="italic" lengthAdjust="spacing" textLength="115" x="303.5" y="441.4189">&#171;Custom Components&#187;</text></g><!--entity useCurrentLocation--><g id="elem_useCurrentLocation"><rect fill="#F1F1F1" height="57.6719" rx="2.5" ry="2.5" style="stroke:#181818;stroke-width:0.5;" width="135" x="293.5" y="337"/><rect fill="#F1F1F1" height="10" style="stroke:#181818;stroke-width:0.5;" width="15" x="408.5" y="342"/><rect fill="#F1F1F1" height="2" style="stroke:#181818;stroke-width:0.5;" width="4" x="406.5" y="344"/><rect fill="#F1F1F1" height="2" style="stroke:#181818;stroke-width:0.5;" width="4" x="406.5" y="348"/><text fill="#000000" font-family="sans-serif" font-size="11" font-style="italic" lengthAdjust="spacing" textLength="85" x="313.5" y="368.4189">&#171;Custom Hooks&#187;</text><text fill="#000000" font-family="sans-serif" font-size="11" lengthAdjust="spacing" textLength="95" x="308.5" y="382.2549">useCurrentLocation</text></g><!--entity useImagePicker--><g id="elem_useImagePicker"><rect fill="#F1F1F1" height="57.6719" rx="2.5" ry="2.5" style="stroke:#181818;stroke-width:0.5;" width="125" x="542" y="1369"/><rect fill="#F1F1F1" height="10" style="stroke:#181818;stroke-width:0.5;" width="15" x="647" y="1374"/><rect fill="#F1F1F1" height="2" style="stroke:#181818;stroke-width:0.5;" width="4" x="645" y="1376"/><rect fill="#F1F1F1" height="2" style="stroke:#181818;stroke-width:0.5;" width="4" x="645" y="1380"/><text fill="#000000" font-family="sans-serif" font-size="11" font-style="italic" lengthAdjust="spacing" textLength="85" x="557" y="1400.4189">&#171;Custom Hooks&#187;</text><text fill="#000000" font-family="sans-serif" font-size="11" lengthAdjust="spacing" textLength="75" x="562" y="1414.2549">useImagePicker</text></g><!--entity useMusicPicker--><g id="elem_useMusicPicker"><rect fill="#F1F1F1" height="57.6719" rx="2.5" ry="2.5" style="stroke:#181818;stroke-width:0.5;" width="125" x="542" y="1264"/><rect fill="#F1F1F1" height="10" style="stroke:#181818;stroke-width:0.5;" width="15" x="647" y="1269"/><rect fill="#F1F1F1" height="2" style="stroke:#181818;stroke-width:0.5;" width="4" x="645" y="1271"/><rect fill="#F1F1F1" height="2" style="stroke:#181818;stroke-width:0.5;" width="4" x="645" y="1275"/><text fill="#000000" font-family="sans-serif" font-size="11" font-style="italic" lengthAdjust="spacing" textLength="85" x="557" y="1295.4189">&#171;Custom Hooks&#187;</text><text fill="#000000" font-family="sans-serif" font-size="11" lengthAdjust="spacing" textLength="75" x="562" y="1309.2549">useMusicPicker</text></g><!--entity useAudioRecorder--><g id="elem_useAudioRecorder"><rect fill="#F1F1F1" height="57.6719" rx="2.5" ry="2.5" style="stroke:#181818;stroke-width:0.5;" width="131" x="539" y="1148"/><rect fill="#F1F1F1" height="10" style="stroke:#181818;stroke-width:0.5;" width="15" x="650" y="1153"/><rect fill="#F1F1F1" height="2" style="stroke:#181818;stroke-width:0.5;" width="4" x="648" y="1155"/><rect fill="#F1F1F1" height="2" style="stroke:#181818;stroke-width:0.5;" width="4" x="648" y="1159"/><text fill="#000000" font-family="sans-serif" font-size="11" font-style="italic" lengthAdjust="spacing" textLength="85" x="557" y="1179.4189">&#171;Custom Hooks&#187;</text><text fill="#000000" font-family="sans-serif" font-size="11" lengthAdjust="spacing" textLength="91" x="554" y="1193.2549">useAudioRecorder</text></g><!--entity ExpoCamera--><g id="elem_ExpoCamera"><rect fill="#F1F1F1" height="57.6719" rx="2.5" ry="2.5" style="stroke:#181818;stroke-width:0.5;" width="104" x="775" y="1370"/><rect fill="#F1F1F1" height="10" style="stroke:#181818;stroke-width:0.5;" width="15" x="859" y="1375"/><rect fill="#F1F1F1" height="2" style="stroke:#181818;stroke-width:0.5;" width="4" x="857" y="1377"/><rect fill="#F1F1F1" height="2" style="stroke:#181818;stroke-width:0.5;" width="4" x="857" y="1381"/><text fill="#000000" font-family="sans-serif" font-size="11" font-style="italic" lengthAdjust="spacing" textLength="47" x="798.5" y="1401.4189">&#171;Library&#187;</text><text fill="#000000" font-family="sans-serif" font-size="11" lengthAdjust="spacing" textLength="64" x="790" y="1415.2549">expo-camera</text></g><!--entity Camera--><g id="elem_Camera"><rect fill="#F1F1F1" height="57.6719" rx="2.5" ry="2.5" style="stroke:#181818;stroke-width:0.5;" width="108" x="965.5" y="1370"/><rect fill="#F1F1F1" height="10" style="stroke:#181818;stroke-width:0.5;" width="15" x="1053.5" y="1375"/><rect fill="#F1F1F1" height="2" style="stroke:#181818;stroke-width:0.5;" width="4" x="1051.5" y="1377"/><rect fill="#F1F1F1" height="2" style="stroke:#181818;stroke-width:0.5;" width="4" x="1051.5" y="1381"/><text fill="#000000" font-family="sans-serif" font-size="11" font-style="italic" lengthAdjust="spacing" textLength="68" x="980.5" y="1401.4189">&#171;Component&#187;</text><text fill="#000000" font-family="sans-serif" font-size="11" lengthAdjust="spacing" textLength="37" x="996" y="1415.2549">Camera</text></g><!--entity ExpoImagePicker--><g id="elem_ExpoImagePicker"><rect fill="#F1F1F1" height="57.6719" rx="2.5" ry="2.5" style="stroke:#181818;stroke-width:0.5;" width="129" x="762.5" y="1277"/><rect fill="#F1F1F1" height="10" style="stroke:#181818;stroke-width:0.5;" width="15" x="871.5" y="1282"/><rect fill="#F1F1F1" height="2" style="stroke:#181818;stroke-width:0.5;" width="4" x="869.5" y="1284"/><rect fill="#F1F1F1" height="2" style="stroke:#181818;stroke-width:0.5;" width="4" x="869.5" y="1288"/><text fill="#000000" font-family="sans-serif" font-size="11" font-style="italic" lengthAdjust="spacing" textLength="47" x="798.5" y="1308.4189">&#171;Library&#187;</text><text fill="#000000" font-family="sans-serif" font-size="11" lengthAdjust="spacing" textLength="89" x="777.5" y="1322.2549">expo-image-picker</text></g><!--entity ImagePicker--><g id="elem_ImagePicker"><rect fill="#F1F1F1" height="57.6719" rx="2.5" ry="2.5" style="stroke:#181818;stroke-width:0.5;" width="108" x="965.5" y="1277"/><rect fill="#F1F1F1" height="10" style="stroke:#181818;stroke-width:0.5;" width="15" x="1053.5" y="1282"/><rect fill="#F1F1F1" height="2" style="stroke:#181818;stroke-width:0.5;" width="4" x="1051.5" y="1284"/><rect fill="#F1F1F1" height="2" style="stroke:#181818;stroke-width:0.5;" width="4" x="1051.5" y="1288"/><text fill="#000000" font-family="sans-serif" font-size="11" font-style="italic" lengthAdjust="spacing" textLength="68" x="980.5" y="1308.4189">&#171;Component&#187;</text><text fill="#000000" font-family="sans-serif" font-size="11" lengthAdjust="spacing" textLength="57" x="986" y="1322.2549">ImagePicker</text></g><!--entity ExpoLocation--><g id="elem_ExpoLocation"><rect fill="#F1F1F1" height="57.6719" rx="2.5" ry="2.5" style="stroke:#181818;stroke-width:0.5;" width="105" x="552" y="337"/><rect fill="#F1F1F1" height="10" style="stroke:#181818;stroke-width:0.5;" width="15" x="637" y="342"/><rect fill="#F1F1F1" height="2" style="stroke:#181818;stroke-width:0.5;" width="4" x="635" y="344"/><rect fill="#F1F1F1" height="2" style="stroke:#181818;stroke-width:0.5;" width="4" x="635" y="348"/><text fill="#000000" font-family="sans-serif" font-size="11" font-style="italic" lengthAdjust="spacing" textLength="47" x="576" y="368.4189">&#171;Library&#187;</text><text fill="#000000" font-family="sans-serif" font-size="11" lengthAdjust="spacing" textLength="65" x="567" y="382.2549">expo-location</text></g><!--entity expoLocationComponent--><g id="elem_expoLocationComponent"><rect fill="#F1F1F1" height="57.6719" rx="2.5" ry="2.5" style="stroke:#181818;stroke-width:0.5;" width="108" x="773" y="337"/><rect fill="#F1F1F1" height="10" style="stroke:#181818;stroke-width:0.5;" width="15" x="861" y="342"/><rect fill="#F1F1F1" height="2" style="stroke:#181818;stroke-width:0.5;" width="4" x="859" y="344"/><rect fill="#F1F1F1" height="2" style="stroke:#181818;stroke-width:0.5;" width="4" x="859" y="348"/><text fill="#000000" font-family="sans-serif" font-size="11" font-style="italic" lengthAdjust="spacing" textLength="68" x="788" y="368.4189">&#171;Component&#187;</text><text fill="#000000" font-family="sans-serif" font-size="11" lengthAdjust="spacing" textLength="41" x="801.5" y="382.2549">Location</text></g><!--entity ExpoDocumentPicker--><g id="elem_ExpoDocumentPicker"><rect fill="#F1F1F1" height="57.6719" rx="2.5" ry="2.5" style="stroke:#181818;stroke-width:0.5;" width="148" x="753" y="1184"/><rect fill="#F1F1F1" height="10" style="stroke:#181818;stroke-width:0.5;" width="15" x="881" y="1189"/><rect fill="#F1F1F1" height="2" style="stroke:#181818;stroke-width:0.5;" width="4" x="879" y="1191"/><rect fill="#F1F1F1" height="2" style="stroke:#181818;stroke-width:0.5;" width="4" x="879" y="1195"/><text fill="#000000" font-family="sans-serif" font-size="11" font-style="italic" lengthAdjust="spacing" textLength="47" x="798.5" y="1215.4189">&#171;Library&#187;</text><text fill="#000000" font-family="sans-serif" font-size="11" lengthAdjust="spacing" textLength="108" x="768" y="1229.2549">expo-document-picker</text></g><!--entity DocumentPicker--><g id="elem_DocumentPicker"><rect fill="#F1F1F1" height="57.6719" rx="2.5" ry="2.5" style="stroke:#181818;stroke-width:0.5;" width="117" x="961" y="1184"/><rect fill="#F1F1F1" height="10" style="stroke:#181818;stroke-width:0.5;" width="15" x="1058" y="1189"/><rect fill="#F1F1F1" height="2" style="stroke:#181818;stroke-width:0.5;" width="4" x="1056" y="1191"/><rect fill="#F1F1F1" height="2" style="stroke:#181818;stroke-width:0.5;" width="4" x="1056" y="1195"/><text fill="#000000" font-family="sans-serif" font-size="11" font-style="italic" lengthAdjust="spacing" textLength="68" x="980.5" y="1215.4189">&#171;Component&#187;</text><text fill="#000000" font-family="sans-serif" font-size="11" lengthAdjust="spacing" textLength="77" x="976" y="1229.2549">DocumentPicker</text></g><!--entity ExpoAV--><g id="elem_ExpoAV"><rect fill="#F1F1F1" height="57.6719" rx="2.5" ry="2.5" style="stroke:#181818;stroke-width:0.5;" width="87" x="783.5" y="1091"/><rect fill="#F1F1F1" height="10" style="stroke:#181818;stroke-width:0.5;" width="15" x="850.5" y="1096"/><rect fill="#F1F1F1" height="2" style="stroke:#181818;stroke-width:0.5;" width="4" x="848.5" y="1098"/><rect fill="#F1F1F1" height="2" style="stroke:#181818;stroke-width:0.5;" width="4" x="848.5" y="1102"/><text fill="#000000" font-family="sans-serif" font-size="11" font-style="italic" lengthAdjust="spacing" textLength="47" x="798.5" y="1122.4189">&#171;Library&#187;</text><text fill="#000000" font-family="sans-serif" font-size="11" lengthAdjust="spacing" textLength="40" x="802" y="1136.2549">expo-av</text></g><!--entity AudioComponent--><g id="elem_AudioComponent"><rect fill="#F1F1F1" height="57.6719" rx="2.5" ry="2.5" style="stroke:#181818;stroke-width:0.5;" width="108" x="965.5" y="1091"/><rect fill="#F1F1F1" height="10" style="stroke:#181818;stroke-width:0.5;" width="15" x="1053.5" y="1096"/><rect fill="#F1F1F1" height="2" style="stroke:#181818;stroke-width:0.5;" width="4" x="1051.5" y="1098"/><rect fill="#F1F1F1" height="2" style="stroke:#181818;stroke-width:0.5;" width="4" x="1051.5" y="1102"/><text fill="#000000" font-family="sans-serif" font-size="11" font-style="italic" lengthAdjust="spacing" textLength="68" x="980.5" y="1122.4189">&#171;Component&#187;</text><text fill="#000000" font-family="sans-serif" font-size="11" lengthAdjust="spacing" textLength="28" x="1000.5" y="1136.2549">Audio</text></g><!--entity ReactNativeCalendarPicker--><g id="elem_ReactNativeCalendarPicker"><rect fill="#F1F1F1" height="57.6719" rx="2.5" ry="2.5" style="stroke:#181818;stroke-width:0.5;" width="177" x="516" y="1044"/><rect fill="#F1F1F1" height="10" style="stroke:#181818;stroke-width:0.5;" width="15" x="673" y="1049"/><rect fill="#F1F1F1" height="2" style="stroke:#181818;stroke-width:0.5;" width="4" x="671" y="1051"/><rect fill="#F1F1F1" height="2" style="stroke:#181818;stroke-width:0.5;" width="4" x="671" y="1055"/><text fill="#000000" font-family="sans-serif" font-size="11" font-style="italic" lengthAdjust="spacing" textLength="47" x="576" y="1075.4189">&#171;Library&#187;</text><text fill="#000000" font-family="sans-serif" font-size="11" lengthAdjust="spacing" textLength="137" x="531" y="1089.2549">react-native-calendar-picker</text></g><!--entity CalendarPicker--><g id="elem_CalendarPicker"><rect fill="#F1F1F1" height="57.6719" rx="2.5" ry="2.5" style="stroke:#181818;stroke-width:0.5;" width="112" x="771" y="998"/><rect fill="#F1F1F1" height="10" style="stroke:#181818;stroke-width:0.5;" width="15" x="863" y="1003"/><rect fill="#F1F1F1" height="2" style="stroke:#181818;stroke-width:0.5;" width="4" x="861" y="1005"/><rect fill="#F1F1F1" height="2" style="stroke:#181818;stroke-width:0.5;" width="4" x="861" y="1009"/><text fill="#000000" font-family="sans-serif" font-size="11" font-style="italic" lengthAdjust="spacing" textLength="68" x="788" y="1029.4189">&#171;Component&#187;</text><text fill="#000000" font-family="sans-serif" font-size="11" lengthAdjust="spacing" textLength="72" x="786" y="1043.2549">CalendarPicker</text></g><!--entity AddEventController--><g id="elem_AddEventController"><ellipse cx="361" cy="271.8359" fill="#F1F1F1" rx="12" ry="12" style="stroke:#181818;stroke-width:0.5;"/><polygon fill="#181818" points="357,259.8359,363,254.8359,361,259.8359,363,264.8359,357,259.8359" style="stroke:#181818;stroke-width:1.0;"/><text fill="#000000" font-family="sans-serif" font-size="11" lengthAdjust="spacing" textLength="93" x="314.5" y="299.2549">AddEventController</text><text fill="#000000" font-family="sans-serif" font-size="11" font-style="italic" lengthAdjust="spacing" textLength="26" x="348" y="253.4189">&#171;TS&#187;</text></g><!--entity LocationController--><g id="elem_LocationController"><ellipse cx="361" cy="176.8359" fill="#F1F1F1" rx="12" ry="12" style="stroke:#181818;stroke-width:0.5;"/><polygon fill="#181818" points="357,164.8359,363,159.8359,361,164.8359,363,169.8359,357,164.8359" style="stroke:#181818;stroke-width:1.0;"/><text fill="#000000" font-family="sans-serif" font-size="11" lengthAdjust="spacing" textLength="87" x="317.5" y="204.2549">LocationController</text><text fill="#000000" font-family="sans-serif" font-size="11" font-style="italic" lengthAdjust="spacing" textLength="26" x="348" y="158.4189">&#171;TS&#187;</text></g><!--entity FileController--><g id="elem_FileController"><ellipse cx="361" cy="81.8359" fill="#F1F1F1" rx="12" ry="12" style="stroke:#181818;stroke-width:0.5;"/><polygon fill="#181818" points="357,69.8359,363,64.8359,361,69.8359,363,74.8359,357,69.8359" style="stroke:#181818;stroke-width:1.0;"/><text fill="#000000" font-family="sans-serif" font-size="11" lengthAdjust="spacing" textLength="62" x="330" y="109.2549">FileController</text><text fill="#000000" font-family="sans-serif" font-size="11" font-style="italic" lengthAdjust="spacing" textLength="26" x="348" y="63.4189">&#171;TS&#187;</text></g><!--entity EventModel--><g id="elem_EventModel"><ellipse cx="604.5" cy="271.8359" fill="#F1F1F1" rx="12" ry="12" style="stroke:#181818;stroke-width:0.5;"/><line style="stroke:#181818;stroke-width:0.5;" x1="592.5" x2="616.5" y1="285.8359" y2="285.8359"/><text fill="#000000" font-family="sans-serif" font-size="11" lengthAdjust="spacing" textLength="55" x="577" y="299.2549">EventModel</text><text fill="#000000" font-family="sans-serif" font-size="11" font-style="italic" lengthAdjust="spacing" textLength="26" x="591.5" y="253.4189">&#171;TS&#187;</text></g><!--entity LocationModel--><g id="elem_LocationModel"><ellipse cx="604.5" cy="176.8359" fill="#F1F1F1" rx="12" ry="12" style="stroke:#181818;stroke-width:0.5;"/><line style="stroke:#181818;stroke-width:0.5;" x1="592.5" x2="616.5" y1="190.8359" y2="190.8359"/><text fill="#000000" font-family="sans-serif" font-size="11" lengthAdjust="spacing" textLength="69" x="570" y="204.2549">LocationModel</text><text fill="#000000" font-family="sans-serif" font-size="11" font-style="italic" lengthAdjust="spacing" textLength="26" x="591.5" y="158.4189">&#171;TS&#187;</text></g><!--entity UserReg--><g id="elem_UserReg"><ellipse cx="39.5" cy="706.5" fill="#F1F1F1" rx="8" ry="8" style="stroke:#181818;stroke-width:0.5;"/><path d="M39.5,714.5 L39.5,741.5 M26.5,722.5 L52.5,722.5 M39.5,741.5 L26.5,756.5 M39.5,741.5 L52.5,756.5 " fill="none" style="stroke:#181818;stroke-width:0.5;"/><text fill="#000000" font-family="sans-serif" font-size="11" lengthAdjust="spacing" textLength="67" x="6" y="769.4189">Authenticated</text><text fill="#000000" font-family="sans-serif" font-size="11" lengthAdjust="spacing" textLength="23" x="28" y="783.2549">User</text></g><!--link addEventView to AddDefaultView--><g id="link_addEventView_AddDefaultView"><path d="M171.69,772.36 C176.5,881.97 197.72,1255.81 266,1350 C279.23,1368.25 295.823,1377.9307 315.343,1385.2607 " fill="none" id="addEventView-to-AddDefaultView" style="stroke:#181818;stroke-width:1.0;"/><polygon fill="#181818" points="320.96,1387.37,313.9406,1380.4614,316.2791,1385.6123,311.1283,1387.9508,320.96,1387.37" style="stroke:#181818;stroke-width:1.0;"/></g><!--link addEventView to AddDateView--><g id="link_addEventView_AddDateView"><path d="M172.66,772.28 C180.17,870.32 207.94,1177.24 266,1255 C280.8,1274.82 300.4614,1285.1236 321.1014,1292.2836 " fill="none" id="addEventView-to-AddDateView" style="stroke:#181818;stroke-width:1.0;"/><polygon fill="#181818" points="326.77,1294.25,319.578,1287.5213,322.0462,1292.6113,316.9561,1295.0794,326.77,1294.25" style="stroke:#181818;stroke-width:1.0;"/></g><!--link addEventView to ChooseCategoriesView--><g id="link_addEventView_ChooseCategoriesView"><path d="M174.07,772.27 C184.64,857.71 218.09,1098.48 266,1160 C275.57,1172.29 283.8091,1178.976 297.6791,1186.076 " fill="none" id="addEventView-to-ChooseCategoriesView" style="stroke:#181818;stroke-width:1.0;"/><polygon fill="#181818" points="303.02,1188.81,296.8313,1181.1484,298.5692,1186.5317,293.186,1188.2696,303.02,1188.81" style="stroke:#181818;stroke-width:1.0;"/></g><!--link addEventView to useCurrentLocation--><g id="link_addEventView_useCurrentLocation"><path d="M171.34,711.83 C174.61,648.89 190.42,501.96 266,412 C273.48,403.1 277.9114,398.8002 288.1314,392.8202 " fill="none" id="addEventView-to-useCurrentLocation" style="stroke:#181818;stroke-width:1.0;"/><polygon fill="#181818" points="293.31,389.79,283.522,390.8828,288.9945,392.3151,287.5622,397.7876,293.31,389.79" style="stroke:#181818;stroke-width:1.0;"/></g><!--link addEventView to SafeAreaContext--><g id="link_addEventView_SafeAreaContext"><path d="M185.35,772.15 C201.66,802.76 230.33,849.96 266,881 C273.57,887.59 277.0566,890.4809 285.9766,895.7209 " fill="none" id="addEventView-to-SafeAreaContext" style="stroke:#181818;stroke-width:1.0;"/><polygon fill="#181818" points="291.15,898.76,285.416,890.7525,286.8388,896.2274,281.3639,897.6503,291.15,898.76" style="stroke:#181818;stroke-width:1.0;"/></g><!--link addEventView to ReactNative--><g id="link_addEventView_ReactNative"><path d="M206.14,759.49 C236.06,774.17 273.6636,792.6267 306.6136,808.7967 " fill="none" id="addEventView-to-ReactNative" style="stroke:#181818;stroke-width:1.0;"/><polygon fill="#181818" points="312,811.44,305.6827,803.8841,307.5114,809.2372,302.1582,811.0659,312,811.44" style="stroke:#181818;stroke-width:1.0;"/></g><!--link addEventView to ReactNativeToast--><g id="link_addEventView_ReactNativeToast"><path d="M206.32,724.35 C224.24,715.52 246.26,704.69 266,695 C277.17,689.52 283.7101,686.3062 295.1801,680.6962 " fill="none" id="addEventView-to-ReactNativeToast" style="stroke:#181818;stroke-width:1.0;"/><polygon fill="#181818" points="300.57,678.06,290.7278,678.421,296.0785,680.2568,294.2427,685.6075,300.57,678.06" style="stroke:#181818;stroke-width:1.0;"/></g><!--link addEventView to ReactI18next--><g id="link_addEventView_ReactI18next"><path d="M206.14,742 C235.09,742 270.29,742 302.78,742 " fill="none" id="addEventView-to-ReactI18next" style="stroke:#181818;stroke-width:1.0;"/><polygon fill="#181818" points="308.78,742,299.78,738,303.78,742,299.78,746,308.78,742" style="stroke:#181818;stroke-width:1.0;"/></g><!--link addEventView to ReactNavigation--><g id="link_addEventView_ReactNavigation"><path d="M175.8,772.02 C185.7,820.1 211.14,914.98 266,974 C272.33,980.82 274.8446,983.5174 282.8546,988.7074 " fill="none" id="addEventView-to-ReactNavigation" style="stroke:#181818;stroke-width:1.0;"/><polygon fill="#181818" points="287.89,991.97,282.512,983.7191,283.6938,989.2511,278.1618,990.433,287.89,991.97" style="stroke:#181818;stroke-width:1.0;"/></g><!--link addEventView to React--><g id="link_addEventView_React"><path d="M171.56,772.14 C175.27,834.31 191.87,978.35 266,1067 C279.23,1082.82 293.5332,1091.5667 311.6032,1098.9267 " fill="none" id="addEventView-to-React" style="stroke:#181818;stroke-width:1.0;"/><polygon fill="#181818" points="317.16,1101.19,310.3337,1094.0906,312.5294,1099.3039,307.316,1101.4996,317.16,1101.19" style="stroke:#181818;stroke-width:1.0;"/></g><!--link addEventView to Modal--><g id="link_addEventView_Modal"><path d="M185.15,711.92 C201.39,681.09 230.1,633.35 266,602 C276.99,592.4 284.9639,586.9534 298.0539,580.2234 " fill="none" id="addEventView-to-Modal" style="stroke:#181818;stroke-width:1.0;"/><polygon fill="#181818" points="303.39,577.48,293.557,578.0378,298.9433,579.7662,297.2149,585.1525,303.39,577.48" style="stroke:#181818;stroke-width:1.0;"/></g><!--link addEventView to AppHeader--><g id="link_addEventView_AppHeader"><path d="M175.62,711.99 C185.3,663.42 210.52,566.96 266,507 C276.28,495.88 284.4317,489.7595 297.9817,482.8695 " fill="none" id="addEventView-to-AppHeader" style="stroke:#181818;stroke-width:1.0;"/><polygon fill="#181818" points="303.33,480.15,293.4946,480.6638,298.8731,482.4163,297.1206,487.7948,303.33,480.15" style="stroke:#181818;stroke-width:1.0;"/></g><!--link AddDefaultView to useImagePicker--><g id="link_AddDefaultView_useImagePicker"><path d="M401.07,1398 C439.12,1398 491.53,1398 535.85,1398 " fill="none" id="AddDefaultView-to-useImagePicker" style="stroke:#181818;stroke-width:1.0;"/><polygon fill="#181818" points="541.85,1398,532.85,1394,536.85,1398,532.85,1402,541.85,1398" style="stroke:#181818;stroke-width:1.0;"/></g><!--link AddDefaultView to useMusicPicker--><g id="link_AddDefaultView_useMusicPicker"><path d="M401.07,1381.01 C439.12,1364.47 492.0271,1341.4614 536.3471,1322.2014 " fill="none" id="AddDefaultView-to-useMusicPicker" style="stroke:#181818;stroke-width:1.0;"/><polygon fill="#181818" points="541.85,1319.81,532.0015,1319.7285,537.2643,1321.8028,535.19,1327.0656,541.85,1319.81" style="stroke:#181818;stroke-width:1.0;"/></g><!--link AddDefaultView to useAudioRecorder--><g id="link_AddDefaultView_useAudioRecorder"><path d="M401.3,1383.97 C419.49,1376.06 440.46,1364.77 456,1350 C494.69,1313.24 481.09,1286.36 516,1246 C528.78,1231.22 540.3103,1220.9837 555.3803,1209.6137 " fill="none" id="AddDefaultView-to-useAudioRecorder" style="stroke:#181818;stroke-width:1.0;"/><polygon fill="#181818" points="560.17,1206,550.5763,1208.2275,556.1786,1209.0114,555.3946,1214.6137,560.17,1206" style="stroke:#181818;stroke-width:1.0;"/></g><!--link AddDateView to ReactNativeCalendarPicker--><g id="link_AddDateView_ReactNativeCalendarPicker"><path d="M395.36,1292.13 C415.01,1284.35 439.24,1272.18 456,1255 C499.04,1210.89 475.34,1176.31 516,1130 C525.21,1119.51 531.8347,1113.5383 543.5247,1105.6083 " fill="none" id="AddDateView-to-ReactNativeCalendarPicker" style="stroke:#181818;stroke-width:1.0;"/><polygon fill="#181818" points="548.49,1102.24,538.7965,1103.9822,544.3522,1105.0469,543.2875,1110.6027,548.49,1102.24" style="stroke:#181818;stroke-width:1.0;"/></g><!--link ReactNativeCalendarPicker to CalendarPicker--><g id="link_ReactNativeCalendarPicker_CalendarPicker"><path d="M693.28,1054.69 C719.46,1049.23 741.5367,1044.6267 764.9967,1039.7267 " fill="none" id="ReactNativeCalendarPicker-to-CalendarPicker" style="stroke:#181818;stroke-width:1.0;"/><polygon fill="#181818" points="770.87,1038.5,761.2423,1036.4246,765.9756,1039.5223,762.8779,1044.2556,770.87,1038.5" style="stroke:#181818;stroke-width:1.0;"/></g><!--link useImagePicker to ExpoCamera--><g id="link_useImagePicker_ExpoCamera"><path d="M667.21,1398.28 C701.1,1398.43 736.6401,1398.592 768.7301,1398.742 " fill="none" id="useImagePicker-to-ExpoCamera" style="stroke:#181818;stroke-width:1.0;"/><polygon fill="#181818" points="774.73,1398.77,765.7488,1394.728,769.7301,1398.7466,765.7114,1402.7279,774.73,1398.77" style="stroke:#181818;stroke-width:1.0;"/></g><!--link ExpoCamera to Camera--><g id="link_ExpoCamera_Camera"><path d="M879.05,1399 C905.72,1399 932.33,1399 959.31,1399 " fill="none" id="ExpoCamera-to-Camera" style="stroke:#181818;stroke-width:1.0;"/><polygon fill="#181818" points="965.31,1399,956.31,1395,960.31,1399,956.31,1403,965.31,1399" style="stroke:#181818;stroke-width:1.0;"/></g><!--link useImagePicker to ExpoImagePicker--><g id="link_useImagePicker_ExpoImagePicker"><path d="M667.21,1372.25 C696.9,1359.86 726.9128,1347.3407 756.8428,1334.8507 " fill="none" id="useImagePicker-to-ExpoImagePicker" style="stroke:#181818;stroke-width:1.0;"/><polygon fill="#181818" points="762.38,1332.54,752.5337,1332.3146,757.7657,1334.4656,755.6147,1339.6975,762.38,1332.54" style="stroke:#181818;stroke-width:1.0;"/></g><!--link ExpoImagePicker to ImagePicker--><g id="link_ExpoImagePicker_ImagePicker"><path d="M891.7,1306 C915.6,1306 936.5,1306 959.34,1306 " fill="none" id="ExpoImagePicker-to-ImagePicker" style="stroke:#181818;stroke-width:1.0;"/><polygon fill="#181818" points="965.34,1306,956.34,1302,960.34,1306,956.34,1310,965.34,1306" style="stroke:#181818;stroke-width:1.0;"/></g><!--link ReactI18next to useTranslation--><g id="link_ReactI18next_useTranslation"><path d="M413.22,742 C452.95,742 501.93,742 542.58,742 " fill="none" id="ReactI18next-to-useTranslation" style="stroke:#181818;stroke-width:1.0;"/><polygon fill="#181818" points="548.58,742,539.58,738,543.58,742,539.58,746,548.58,742" style="stroke:#181818;stroke-width:1.0;"/></g><!--link useMusicPicker to ExpoDocumentPicker--><g id="link_useMusicPicker_ExpoDocumentPicker"><path d="M667.21,1270.61 C693.84,1260.95 719.5498,1251.6265 747.3298,1241.5465 " fill="none" id="useMusicPicker-to-ExpoDocumentPicker" style="stroke:#181818;stroke-width:1.0;"/><polygon fill="#181818" points="752.97,1239.5,743.1454,1238.8097,748.2698,1241.2055,745.8741,1246.3299,752.97,1239.5" style="stroke:#181818;stroke-width:1.0;"/></g><!--link ExpoDocumentPicker to DocumentPicker--><g id="link_ExpoDocumentPicker_DocumentPicker"><path d="M901.11,1213 C920.94,1213 936.13,1213 954.96,1213 " fill="none" id="ExpoDocumentPicker-to-DocumentPicker" style="stroke:#181818;stroke-width:1.0;"/><polygon fill="#181818" points="960.96,1213,951.96,1209,955.96,1213,951.96,1217,960.96,1213" style="stroke:#181818;stroke-width:1.0;"/></g><!--link useCurrentLocation to ExpoLocation--><g id="link_useCurrentLocation_ExpoLocation"><path d="M428.63,366 C467.44,366 509.66,366 545.63,366 " fill="none" id="useCurrentLocation-to-ExpoLocation" style="stroke:#181818;stroke-width:1.0;"/><polygon fill="#181818" points="551.63,366,542.63,362,546.63,366,542.63,370,551.63,366" style="stroke:#181818;stroke-width:1.0;"/></g><!--link ExpoLocation to expoLocationComponent--><g id="link_ExpoLocation_expoLocationComponent"><path d="M657.2,366 C691.95,366 731.63,366 766.71,366 " fill="none" id="ExpoLocation-to-expoLocationComponent" style="stroke:#181818;stroke-width:1.0;"/><polygon fill="#181818" points="772.71,366,763.71,362,767.71,366,763.71,370,772.71,366" style="stroke:#181818;stroke-width:1.0;"/></g><!--link useAudioRecorder to ExpoAV--><g id="link_useAudioRecorder_ExpoAV"><path d="M670.17,1160.28 C706.64,1150.86 745.3809,1140.8416 777.4909,1132.5416 " fill="none" id="useAudioRecorder-to-ExpoAV" style="stroke:#181818;stroke-width:1.0;"/><polygon fill="#181818" points="783.3,1131.04,773.5854,1129.4196,778.4591,1132.2913,775.5874,1137.1651,783.3,1131.04" style="stroke:#181818;stroke-width:1.0;"/></g><!--link ExpoAV to AudioComponent--><g id="link_ExpoAV_AudioComponent"><path d="M870.75,1120 C898.73,1120 929.48,1120 959.34,1120 " fill="none" id="ExpoAV-to-AudioComponent" style="stroke:#181818;stroke-width:1.0;"/><polygon fill="#181818" points="965.34,1120,956.34,1116,960.34,1120,956.34,1124,965.34,1120" style="stroke:#181818;stroke-width:1.0;"/></g><!--link addEventView to AddEventController--><g id="link_addEventView_AddEventController"><path d="M173.92,711.96 C184.22,626 217.25,381.23 266,319 C278.15,303.49 291.2423,295.0095 308.7223,287.7195 " fill="none" id="addEventView-to-AddEventController" style="stroke:#181818;stroke-width:1.0;"/><polygon fill="#181818" points="314.26,285.41,304.4138,285.1824,309.6452,287.3346,307.4931,292.566,314.26,285.41" style="stroke:#181818;stroke-width:1.0;"/></g><!--link addEventView to LocationController--><g id="link_addEventView_LocationController"><path d="M172.57,711.76 C179.84,613.08 207.06,302.39 266,224 C278.61,207.23 293.2724,198.2261 311.7524,190.9961 " fill="none" id="addEventView-to-LocationController" style="stroke:#181818;stroke-width:1.0;"/><polygon fill="#181818" points="317.34,188.81,307.5012,188.364,312.6837,190.6317,310.416,195.8141,317.34,188.81" style="stroke:#181818;stroke-width:1.0;"/></g><!--link addEventView to FileController--><g id="link_addEventView_FileController"><path d="M171.61,711.76 C176.19,601.67 196.75,223.8 266,129 C281.28,108.08 302.8079,97.715 324.0479,91.015 " fill="none" id="addEventView-to-FileController" style="stroke:#181818;stroke-width:1.0;"/><polygon fill="#181818" points="329.77,89.21,319.9836,88.1028,325.0016,90.7142,322.3902,95.7322,329.77,89.21" style="stroke:#181818;stroke-width:1.0;"/></g><!--link AddEventController to EventModel--><g id="link_AddEventController_EventModel"><path d="M407.71,272 C457.62,272 529.87,272 570.69,272 " fill="none" id="AddEventController-to-EventModel" style="stroke:#181818;stroke-width:1.0;"/><polygon fill="#181818" points="576.69,272,567.69,268,571.69,272,567.69,276,576.69,272" style="stroke:#181818;stroke-width:1.0;"/></g><!--link LocationController to LocationModel--><g id="link_LocationController_LocationModel"><path d="M404.62,177 C451.74,177 520.69,177 563.86,177 " fill="none" id="LocationController-to-LocationModel" style="stroke:#181818;stroke-width:1.0;"/><polygon fill="#181818" points="569.86,177,560.86,173,564.86,177,560.86,181,569.86,177" style="stroke:#181818;stroke-width:1.0;"/></g><!--link UserReg to addEventView--><g id="link_UserReg_addEventView"><path d="M73.13,742 C91.35,742 108.08,742 126.78,742 " fill="none" id="UserReg-to-addEventView" style="stroke:#181818;stroke-width:1.0;stroke-dasharray:7.0,7.0;"/><polygon fill="#181818" points="132.78,742,123.78,738,127.78,742,123.78,746,132.78,742" style="stroke:#181818;stroke-width:1.0;"/></g><!--SRC=[bLTDRniX4BtpAr0kFQtRNDAgggnQcqI9b4HLuaOzz49OR2FlBYjWtQHL_tk1_U1pxQqFrZAyzmO6c06nftM3EAgWa6ybKV-SOjbM9H1ZJq4sg2tbchpALKctTKLg2R7w8pn6NRDQFj7V19wVWv9i99GCShhTILXGJh2ah0O8IyRXsQgLEwL2CPAa-5b_5uIVGIIW_dWaMm10W_0URGdSSALAwW9- -V9851i-84aFvFE7nSUBnSLo-GT0zNjXRLqW_gQKY-BgeAIVAVbb995ZK29m_VG3BfSnwxARnCZpJKUPQX8UhMzFSl8TOuBa2hPbd18nabCTZegHmQngMAtNuOphW1XY5ng5lAClNFj8eByQU5QZ0zqYlHZlQnDAA_0mTfsG6fGqFHDeGpAaJ1dMI_NQZUX9MLVAc7Us_n1qnwFRiwZq_5Czk3RSsyuGa0DkAyYQergKPjA6x9iq_OQn_SaWI8Q4QZ19DtfJAwe8vx7MaDHaxCQuPmKg3SzyQN3U2iagc0z-HM8BDiqDGKL_XCRM93iHXRpbN7tVCUn58Z0xYZee8XtHsqgTssyKx_i1-QPv6lUjeDZNS4ppD5PjGTaZmOmNLiKpfdH28VBQi0oZYd1aDAvKEpVDurihjnGB7zTXqXFLaSeQEtFjBmZVjDCmz67SJxeltGsWNRjBF-tNspV4eLcFizmN3BUwn8G1kEpjSsBWOur4J3yz57GOlQ-UZtiqUwexU_fh_foz389HIVI1TkVkP8-yxvuJ0X_Rxy6GdXfPBJahRGtDEqCvP9R8tDKcEuAURrVVuyVc2VurBKd0zKsMPuZw9Y5L8ZIZKvcJT3dKDdq_0tmOZsLu5alw2y0xU3rSH4nHlg7gI7EyUmFU_IBBbk758GqOhWXnR_8E4CFYxAm7QRfjjezfGLcE0SwMEzffgja4eg-za_pXbZ41YCsc6YO2EPGwDVKmwa6x3vcJ42SGJfcPG7WbfFVSBoTmbpO8c7y2mVJHDfl01wkLxOe828gfnjgA19pYrAaOgsAxyvwGS25XqT4OjryfUWljtRZwC3ctA8ttSp082lemY02LoFqQ6Q2KkbkgGEBYCkYF6A-swTvarTBIPhb1T7KO55VFeAyHPaTw1S2icqrQd7JX43lQY6HQ2D9hZ8bJQ8pnKoK0YRHj1ZzcHv18pAwp3gJcebzdaEh77-fUS_rp3IuMI- -T1S0_]--></g></svg>