<?xml version="1.0" encoding="us-ascii" standalone="no"?><svg xmlns="http://www.w3.org/2000/svg" xmlns:xlink="http://www.w3.org/1999/xlink" contentStyleType="text/css" height="1490px" preserveAspectRatio="none" style="width:1111px;height:1490px;background:#FFFFFF;" version="1.1" viewBox="0 0 1111 1490" width="1111px" zoomAndPan="magnify"><defs/><g><!--cluster frontend--><g id="cluster_frontend"><polygon fill="none" points="117,6,171,6,178,25.8359,1094,25.8359,1094,1483,117,1483,117,6" style="stroke:#000000;stroke-width:1.5;"/><line style="stroke:#000000;stroke-width:1.5;" x1="117" x2="178" y1="25.8359" y2="25.8359"/><text fill="#000000" font-family="sans-serif" font-size="11" font-weight="bold" lengthAdjust="spacing" textLength="48" x="121" y="19.4189">frontend</text><text fill="#000000" font-family="sans-serif" font-size="11" font-style="italic" lengthAdjust="spacing" textLength="108" x="555.5" y="39.2549">&#171;React Native:0.76.6&#187;</text></g><!--entity addEventView--><g id="elem_addEventView"><path d="M149,722.8359 L149,746.8359 M149,734.8359 L166,734.8359 " fill="none" style="stroke:#181818;stroke-width:0.5;"/><ellipse cx="178" cy="734.8359" fill="#F1F1F1" rx="12" ry="12" style="stroke:#181818;stroke-width:0.5;"/><text fill="#000000" font-family="sans-serif" font-size="11" lengthAdjust="spacing" textLength="73" x="133" y="762.2549">AddEventView</text><text fill="#000000" font-family="sans-serif" font-size="11" font-style="italic" lengthAdjust="spacing" textLength="33" x="153" y="716.4189">&#171;TSX&#187;</text></g><!--entity AddDefaultView--><g id="elem_AddDefaultView"><path d="M340.5,1424.8359 L340.5,1448.8359 M340.5,1436.8359 L357.5,1436.8359 " fill="none" style="stroke:#181818;stroke-width:0.5;"/><ellipse cx="369.5" cy="1436.8359" fill="#F1F1F1" rx="12" ry="12" style="stroke:#181818;stroke-width:0.5;"/><text fill="#000000" font-family="sans-serif" font-size="11" lengthAdjust="spacing" textLength="80" x="321" y="1464.2549">AddDefaultView</text><text fill="#000000" font-family="sans-serif" font-size="11" font-style="italic" lengthAdjust="spacing" textLength="33" x="344.5" y="1418.4189">&#171;TSX&#187;</text></g><!--entity AddDateView--><g id="elem_AddDateView"><path d="M340.5,1329.8359 L340.5,1353.8359 M340.5,1341.8359 L357.5,1341.8359 " fill="none" style="stroke:#181818;stroke-width:0.5;"/><ellipse cx="369.5" cy="1341.8359" fill="#F1F1F1" rx="12" ry="12" style="stroke:#181818;stroke-width:0.5;"/><text fill="#000000" font-family="sans-serif" font-size="11" lengthAdjust="spacing" textLength="68" x="327" y="1369.2549">AddDateView</text><text fill="#000000" font-family="sans-serif" font-size="11" font-style="italic" lengthAdjust="spacing" textLength="33" x="344.5" y="1323.4189">&#171;TSX&#187;</text></g><!--entity ChooseCategoriesView--><g id="elem_ChooseCategoriesView"><path d="M340.5,1234.8359 L340.5,1258.8359 M340.5,1246.8359 L357.5,1246.8359 " fill="none" style="stroke:#181818;stroke-width:0.5;"/><ellipse cx="369.5" cy="1246.8359" fill="#F1F1F1" rx="12" ry="12" style="stroke:#181818;stroke-width:0.5;"/><text fill="#000000" font-family="sans-serif" font-size="11" lengthAdjust="spacing" textLength="115" x="303.5" y="1274.2549">ChooseCategoriesView</text><text fill="#000000" font-family="sans-serif" font-size="11" font-style="italic" lengthAdjust="spacing" textLength="33" x="344.5" y="1228.4189">&#171;TSX&#187;</text></g><!--entity React--><g id="elem_React"><rect fill="#F1F1F1" height="57.6719" rx="2.5" ry="2.5" style="stroke:#181818;stroke-width:0.5;" width="87" x="317.5" y="1124"/><rect fill="#F1F1F1" height="10" style="stroke:#181818;stroke-width:0.5;" width="15" x="384.5" y="1129"/><rect fill="#F1F1F1" height="2" style="stroke:#181818;stroke-width:0.5;" width="4" x="382.5" y="1131"/><rect fill="#F1F1F1" height="2" style="stroke:#181818;stroke-width:0.5;" width="4" x="382.5" y="1135"/><text fill="#000000" font-family="sans-serif" font-size="11" font-style="italic" lengthAdjust="spacing" textLength="47" x="332.5" y="1155.4189">&#171;Library&#187;</text><text fill="#000000" font-family="sans-serif" font-size="11" lengthAdjust="spacing" textLength="25" x="343.5" y="1169.2549">react</text></g><!--entity ReactNavigation--><g id="elem_ReactNavigation"><rect fill="#F1F1F1" height="57.6719" rx="2.5" ry="2.5" style="stroke:#181818;stroke-width:0.5;" width="161" x="280.5" y="1031"/><rect fill="#F1F1F1" height="10" style="stroke:#181818;stroke-width:0.5;" width="15" x="421.5" y="1036"/><rect fill="#F1F1F1" height="2" style="stroke:#181818;stroke-width:0.5;" width="4" x="419.5" y="1038"/><rect fill="#F1F1F1" height="2" style="stroke:#181818;stroke-width:0.5;" width="4" x="419.5" y="1042"/><text fill="#000000" font-family="sans-serif" font-size="11" font-style="italic" lengthAdjust="spacing" textLength="47" x="332.5" y="1062.4189">&#171;Library&#187;</text><text fill="#000000" font-family="sans-serif" font-size="11" lengthAdjust="spacing" textLength="121" x="295.5" y="1076.2549">@react-navigation/native</text></g><!--entity SafeAreaContext--><g id="elem_SafeAreaContext"><rect fill="#F1F1F1" height="57.6719" rx="2.5" ry="2.5" style="stroke:#181818;stroke-width:0.5;" width="190" x="266" y="938"/><rect fill="#F1F1F1" height="10" style="stroke:#181818;stroke-width:0.5;" width="15" x="436" y="943"/><rect fill="#F1F1F1" height="2" style="stroke:#181818;stroke-width:0.5;" width="4" x="434" y="945"/><rect fill="#F1F1F1" height="2" style="stroke:#181818;stroke-width:0.5;" width="4" x="434" y="949"/><text fill="#000000" font-family="sans-serif" font-size="11" font-style="italic" lengthAdjust="spacing" textLength="47" x="332.5" y="969.4189">&#171;Library&#187;</text><text fill="#000000" font-family="sans-serif" font-size="11" lengthAdjust="spacing" textLength="150" x="281" y="983.2549">react-native-safe-area-context</text></g><!--entity ReactNative--><g id="elem_ReactNative"><rect fill="#F1F1F1" height="57.6719" rx="2.5" ry="2.5" style="stroke:#181818;stroke-width:0.5;" width="98" x="312" y="845"/><rect fill="#F1F1F1" height="10" style="stroke:#181818;stroke-width:0.5;" width="15" x="390" y="850"/><rect fill="#F1F1F1" height="2" style="stroke:#181818;stroke-width:0.5;" width="4" x="388" y="852"/><rect fill="#F1F1F1" height="2" style="stroke:#181818;stroke-width:0.5;" width="4" x="388" y="856"/><text fill="#000000" font-family="sans-serif" font-size="11" font-style="italic" lengthAdjust="spacing" textLength="47" x="332.5" y="876.4189">&#171;Library&#187;</text><text fill="#000000" font-family="sans-serif" font-size="11" lengthAdjust="spacing" textLength="58" x="327" y="890.2549">react-native</text></g><!--entity ReactI18next--><g id="elem_ReactI18next"><rect fill="#F1F1F1" height="57.6719" rx="2.5" ry="2.5" style="stroke:#181818;stroke-width:0.5;" width="104" x="309" y="752"/><rect fill="#F1F1F1" height="10" style="stroke:#181818;stroke-width:0.5;" width="15" x="393" y="757"/><rect fill="#F1F1F1" height="2" style="stroke:#181818;stroke-width:0.5;" width="4" x="391" y="759"/><rect fill="#F1F1F1" height="2" style="stroke:#181818;stroke-width:0.5;" width="4" x="391" y="763"/><text fill="#000000" font-family="sans-serif" font-size="11" font-style="italic" lengthAdjust="spacing" textLength="47" x="332.5" y="783.4189">&#171;Library&#187;</text><text fill="#000000" font-family="sans-serif" font-size="11" lengthAdjust="spacing" textLength="64" x="324" y="797.2549">react-i18next</text></g><!--entity useTranslation--><g id="elem_useTranslation"><rect fill="#F1F1F1" height="57.6719" rx="2.5" ry="2.5" style="stroke:#181818;stroke-width:0.5;" width="111" x="549" y="752"/><rect fill="#F1F1F1" height="10" style="stroke:#181818;stroke-width:0.5;" width="15" x="640" y="757"/><rect fill="#F1F1F1" height="2" style="stroke:#181818;stroke-width:0.5;" width="4" x="638" y="759"/><rect fill="#F1F1F1" height="2" style="stroke:#181818;stroke-width:0.5;" width="4" x="638" y="763"/><text fill="#000000" font-family="sans-serif" font-size="11" font-style="italic" lengthAdjust="spacing" textLength="38" x="580.5" y="783.4189">&#171;Hook&#187;</text><text fill="#000000" font-family="sans-serif" font-size="11" lengthAdjust="spacing" textLength="71" x="564" y="797.2549">useTranslation</text></g><!--entity ReactNativeToast--><g id="elem_ReactNativeToast"><rect fill="#F1F1F1" height="57.6719" rx="2.5" ry="2.5" style="stroke:#181818;stroke-width:0.5;" width="188" x="267" y="659"/><rect fill="#F1F1F1" height="10" style="stroke:#181818;stroke-width:0.5;" width="15" x="435" y="664"/><rect fill="#F1F1F1" height="2" style="stroke:#181818;stroke-width:0.5;" width="4" x="433" y="666"/><rect fill="#F1F1F1" height="2" style="stroke:#181818;stroke-width:0.5;" width="4" x="433" y="670"/><text fill="#000000" font-family="sans-serif" font-size="11" font-style="italic" lengthAdjust="spacing" textLength="47" x="332.5" y="690.4189">&#171;Library&#187;</text><text fill="#000000" font-family="sans-serif" font-size="11" lengthAdjust="spacing" textLength="148" x="282" y="704.2549">react-native-toast-notifications</text></g><!--entity Modal--><g id="elem_Modal"><path d="M340.5,581.8359 L340.5,605.8359 M340.5,593.8359 L357.5,593.8359 " fill="none" style="stroke:#181818;stroke-width:0.5;"/><ellipse cx="369.5" cy="593.8359" fill="#F1F1F1" rx="12" ry="12" style="stroke:#181818;stroke-width:0.5;"/><text fill="#000000" font-family="sans-serif" font-size="11" lengthAdjust="spacing" textLength="28" x="347" y="621.2549">Modal</text><text fill="#000000" font-family="sans-serif" font-size="11" font-style="italic" lengthAdjust="spacing" textLength="115" x="303.5" y="575.4189">&#171;Custom Components&#187;</text></g><!--entity AppHeader--><g id="elem_AppHeader"><path d="M340.5,486.8359 L340.5,510.8359 M340.5,498.8359 L357.5,498.8359 " fill="none" style="stroke:#181818;stroke-width:0.5;"/><ellipse cx="369.5" cy="498.8359" fill="#F1F1F1" rx="12" ry="12" style="stroke:#181818;stroke-width:0.5;"/><text fill="#000000" font-family="sans-serif" font-size="11" lengthAdjust="spacing" textLength="55" x="333.5" y="526.2549">AppHeader</text><text fill="#000000" font-family="sans-serif" font-size="11" font-style="italic" lengthAdjust="spacing" textLength="115" x="303.5" y="480.4189">&#171;Custom Components&#187;</text></g><!--entity useCurrentLocation--><g id="elem_useCurrentLocation"><rect fill="#F1F1F1" height="57.6719" rx="2.5" ry="2.5" style="stroke:#181818;stroke-width:0.5;" width="135" x="293.5" y="376"/><rect fill="#F1F1F1" height="10" style="stroke:#181818;stroke-width:0.5;" width="15" x="408.5" y="381"/><rect fill="#F1F1F1" height="2" style="stroke:#181818;stroke-width:0.5;" width="4" x="406.5" y="383"/><rect fill="#F1F1F1" height="2" style="stroke:#181818;stroke-width:0.5;" width="4" x="406.5" y="387"/><text fill="#000000" font-family="sans-serif" font-size="11" font-style="italic" lengthAdjust="spacing" textLength="85" x="313.5" y="407.4189">&#171;Custom Hooks&#187;</text><text fill="#000000" font-family="sans-serif" font-size="11" lengthAdjust="spacing" textLength="95" x="308.5" y="421.2549">useCurrentLocation</text></g><!--entity useImagePicker--><g id="elem_useImagePicker"><rect fill="#F1F1F1" height="57.6719" rx="2.5" ry="2.5" style="stroke:#181818;stroke-width:0.5;" width="125" x="542" y="1408"/><rect fill="#F1F1F1" height="10" style="stroke:#181818;stroke-width:0.5;" width="15" x="647" y="1413"/><rect fill="#F1F1F1" height="2" style="stroke:#181818;stroke-width:0.5;" width="4" x="645" y="1415"/><rect fill="#F1F1F1" height="2" style="stroke:#181818;stroke-width:0.5;" width="4" x="645" y="1419"/><text fill="#000000" font-family="sans-serif" font-size="11" font-style="italic" lengthAdjust="spacing" textLength="85" x="557" y="1439.4189">&#171;Custom Hooks&#187;</text><text fill="#000000" font-family="sans-serif" font-size="11" lengthAdjust="spacing" textLength="75" x="562" y="1453.2549">useImagePicker</text></g><!--entity useMusicPicker--><g id="elem_useMusicPicker"><rect fill="#F1F1F1" height="57.6719" rx="2.5" ry="2.5" style="stroke:#181818;stroke-width:0.5;" width="125" x="542" y="1303"/><rect fill="#F1F1F1" height="10" style="stroke:#181818;stroke-width:0.5;" width="15" x="647" y="1308"/><rect fill="#F1F1F1" height="2" style="stroke:#181818;stroke-width:0.5;" width="4" x="645" y="1310"/><rect fill="#F1F1F1" height="2" style="stroke:#181818;stroke-width:0.5;" width="4" x="645" y="1314"/><text fill="#000000" font-family="sans-serif" font-size="11" font-style="italic" lengthAdjust="spacing" textLength="85" x="557" y="1334.4189">&#171;Custom Hooks&#187;</text><text fill="#000000" font-family="sans-serif" font-size="11" lengthAdjust="spacing" textLength="75" x="562" y="1348.2549">useMusicPicker</text></g><!--entity useAudioRecorder--><g id="elem_useAudioRecorder"><rect fill="#F1F1F1" height="57.6719" rx="2.5" ry="2.5" style="stroke:#181818;stroke-width:0.5;" width="131" x="539" y="1187"/><rect fill="#F1F1F1" height="10" style="stroke:#181818;stroke-width:0.5;" width="15" x="650" y="1192"/><rect fill="#F1F1F1" height="2" style="stroke:#181818;stroke-width:0.5;" width="4" x="648" y="1194"/><rect fill="#F1F1F1" height="2" style="stroke:#181818;stroke-width:0.5;" width="4" x="648" y="1198"/><text fill="#000000" font-family="sans-serif" font-size="11" font-style="italic" lengthAdjust="spacing" textLength="85" x="557" y="1218.4189">&#171;Custom Hooks&#187;</text><text fill="#000000" font-family="sans-serif" font-size="11" lengthAdjust="spacing" textLength="91" x="554" y="1232.2549">useAudioRecorder</text></g><!--entity ExpoCamera--><g id="elem_ExpoCamera"><rect fill="#F1F1F1" height="57.6719" rx="2.5" ry="2.5" style="stroke:#181818;stroke-width:0.5;" width="104" x="775" y="1409"/><rect fill="#F1F1F1" height="10" style="stroke:#181818;stroke-width:0.5;" width="15" x="859" y="1414"/><rect fill="#F1F1F1" height="2" style="stroke:#181818;stroke-width:0.5;" width="4" x="857" y="1416"/><rect fill="#F1F1F1" height="2" style="stroke:#181818;stroke-width:0.5;" width="4" x="857" y="1420"/><text fill="#000000" font-family="sans-serif" font-size="11" font-style="italic" lengthAdjust="spacing" textLength="47" x="798.5" y="1440.4189">&#171;Library&#187;</text><text fill="#000000" font-family="sans-serif" font-size="11" lengthAdjust="spacing" textLength="64" x="790" y="1454.2549">expo-camera</text></g><!--entity Camera--><g id="elem_Camera"><rect fill="#F1F1F1" height="57.6719" rx="2.5" ry="2.5" style="stroke:#181818;stroke-width:0.5;" width="108" x="965.5" y="1409"/><rect fill="#F1F1F1" height="10" style="stroke:#181818;stroke-width:0.5;" width="15" x="1053.5" y="1414"/><rect fill="#F1F1F1" height="2" style="stroke:#181818;stroke-width:0.5;" width="4" x="1051.5" y="1416"/><rect fill="#F1F1F1" height="2" style="stroke:#181818;stroke-width:0.5;" width="4" x="1051.5" y="1420"/><text fill="#000000" font-family="sans-serif" font-size="11" font-style="italic" lengthAdjust="spacing" textLength="68" x="980.5" y="1440.4189">&#171;Component&#187;</text><text fill="#000000" font-family="sans-serif" font-size="11" lengthAdjust="spacing" textLength="37" x="996" y="1454.2549">Camera</text></g><!--entity ExpoImagePicker--><g id="elem_ExpoImagePicker"><rect fill="#F1F1F1" height="57.6719" rx="2.5" ry="2.5" style="stroke:#181818;stroke-width:0.5;" width="129" x="762.5" y="1316"/><rect fill="#F1F1F1" height="10" style="stroke:#181818;stroke-width:0.5;" width="15" x="871.5" y="1321"/><rect fill="#F1F1F1" height="2" style="stroke:#181818;stroke-width:0.5;" width="4" x="869.5" y="1323"/><rect fill="#F1F1F1" height="2" style="stroke:#181818;stroke-width:0.5;" width="4" x="869.5" y="1327"/><text fill="#000000" font-family="sans-serif" font-size="11" font-style="italic" lengthAdjust="spacing" textLength="47" x="798.5" y="1347.4189">&#171;Library&#187;</text><text fill="#000000" font-family="sans-serif" font-size="11" lengthAdjust="spacing" textLength="89" x="777.5" y="1361.2549">expo-image-picker</text></g><!--entity ImagePicker--><g id="elem_ImagePicker"><rect fill="#F1F1F1" height="57.6719" rx="2.5" ry="2.5" style="stroke:#181818;stroke-width:0.5;" width="108" x="965.5" y="1316"/><rect fill="#F1F1F1" height="10" style="stroke:#181818;stroke-width:0.5;" width="15" x="1053.5" y="1321"/><rect fill="#F1F1F1" height="2" style="stroke:#181818;stroke-width:0.5;" width="4" x="1051.5" y="1323"/><rect fill="#F1F1F1" height="2" style="stroke:#181818;stroke-width:0.5;" width="4" x="1051.5" y="1327"/><text fill="#000000" font-family="sans-serif" font-size="11" font-style="italic" lengthAdjust="spacing" textLength="68" x="980.5" y="1347.4189">&#171;Component&#187;</text><text fill="#000000" font-family="sans-serif" font-size="11" lengthAdjust="spacing" textLength="57" x="986" y="1361.2549">ImagePicker</text></g><!--entity ExpoLocation--><g id="elem_ExpoLocation"><rect fill="#F1F1F1" height="57.6719" rx="2.5" ry="2.5" style="stroke:#181818;stroke-width:0.5;" width="105" x="552" y="376"/><rect fill="#F1F1F1" height="10" style="stroke:#181818;stroke-width:0.5;" width="15" x="637" y="381"/><rect fill="#F1F1F1" height="2" style="stroke:#181818;stroke-width:0.5;" width="4" x="635" y="383"/><rect fill="#F1F1F1" height="2" style="stroke:#181818;stroke-width:0.5;" width="4" x="635" y="387"/><text fill="#000000" font-family="sans-serif" font-size="11" font-style="italic" lengthAdjust="spacing" textLength="47" x="576" y="407.4189">&#171;Library&#187;</text><text fill="#000000" font-family="sans-serif" font-size="11" lengthAdjust="spacing" textLength="65" x="567" y="421.2549">expo-location</text></g><!--entity expoLocationComponent--><g id="elem_expoLocationComponent"><rect fill="#F1F1F1" height="57.6719" rx="2.5" ry="2.5" style="stroke:#181818;stroke-width:0.5;" width="108" x="773" y="376"/><rect fill="#F1F1F1" height="10" style="stroke:#181818;stroke-width:0.5;" width="15" x="861" y="381"/><rect fill="#F1F1F1" height="2" style="stroke:#181818;stroke-width:0.5;" width="4" x="859" y="383"/><rect fill="#F1F1F1" height="2" style="stroke:#181818;stroke-width:0.5;" width="4" x="859" y="387"/><text fill="#000000" font-family="sans-serif" font-size="11" font-style="italic" lengthAdjust="spacing" textLength="68" x="788" y="407.4189">&#171;Component&#187;</text><text fill="#000000" font-family="sans-serif" font-size="11" lengthAdjust="spacing" textLength="41" x="801.5" y="421.2549">Location</text></g><!--entity ExpoDocumentPicker--><g id="elem_ExpoDocumentPicker"><rect fill="#F1F1F1" height="57.6719" rx="2.5" ry="2.5" style="stroke:#181818;stroke-width:0.5;" width="148" x="753" y="1223"/><rect fill="#F1F1F1" height="10" style="stroke:#181818;stroke-width:0.5;" width="15" x="881" y="1228"/><rect fill="#F1F1F1" height="2" style="stroke:#181818;stroke-width:0.5;" width="4" x="879" y="1230"/><rect fill="#F1F1F1" height="2" style="stroke:#181818;stroke-width:0.5;" width="4" x="879" y="1234"/><text fill="#000000" font-family="sans-serif" font-size="11" font-style="italic" lengthAdjust="spacing" textLength="47" x="798.5" y="1254.4189">&#171;Library&#187;</text><text fill="#000000" font-family="sans-serif" font-size="11" lengthAdjust="spacing" textLength="108" x="768" y="1268.2549">expo-document-picker</text></g><!--entity DocumentPicker--><g id="elem_DocumentPicker"><rect fill="#F1F1F1" height="57.6719" rx="2.5" ry="2.5" style="stroke:#181818;stroke-width:0.5;" width="117" x="961" y="1223"/><rect fill="#F1F1F1" height="10" style="stroke:#181818;stroke-width:0.5;" width="15" x="1058" y="1228"/><rect fill="#F1F1F1" height="2" style="stroke:#181818;stroke-width:0.5;" width="4" x="1056" y="1230"/><rect fill="#F1F1F1" height="2" style="stroke:#181818;stroke-width:0.5;" width="4" x="1056" y="1234"/><text fill="#000000" font-family="sans-serif" font-size="11" font-style="italic" lengthAdjust="spacing" textLength="68" x="980.5" y="1254.4189">&#171;Component&#187;</text><text fill="#000000" font-family="sans-serif" font-size="11" lengthAdjust="spacing" textLength="77" x="976" y="1268.2549">DocumentPicker</text></g><!--entity ExpoAV--><g id="elem_ExpoAV"><rect fill="#F1F1F1" height="57.6719" rx="2.5" ry="2.5" style="stroke:#181818;stroke-width:0.5;" width="87" x="783.5" y="1130"/><rect fill="#F1F1F1" height="10" style="stroke:#181818;stroke-width:0.5;" width="15" x="850.5" y="1135"/><rect fill="#F1F1F1" height="2" style="stroke:#181818;stroke-width:0.5;" width="4" x="848.5" y="1137"/><rect fill="#F1F1F1" height="2" style="stroke:#181818;stroke-width:0.5;" width="4" x="848.5" y="1141"/><text fill="#000000" font-family="sans-serif" font-size="11" font-style="italic" lengthAdjust="spacing" textLength="47" x="798.5" y="1161.4189">&#171;Library&#187;</text><text fill="#000000" font-family="sans-serif" font-size="11" lengthAdjust="spacing" textLength="40" x="802" y="1175.2549">expo-av</text></g><!--entity AudioComponent--><g id="elem_AudioComponent"><rect fill="#F1F1F1" height="57.6719" rx="2.5" ry="2.5" style="stroke:#181818;stroke-width:0.5;" width="108" x="965.5" y="1130"/><rect fill="#F1F1F1" height="10" style="stroke:#181818;stroke-width:0.5;" width="15" x="1053.5" y="1135"/><rect fill="#F1F1F1" height="2" style="stroke:#181818;stroke-width:0.5;" width="4" x="1051.5" y="1137"/><rect fill="#F1F1F1" height="2" style="stroke:#181818;stroke-width:0.5;" width="4" x="1051.5" y="1141"/><text fill="#000000" font-family="sans-serif" font-size="11" font-style="italic" lengthAdjust="spacing" textLength="68" x="980.5" y="1161.4189">&#171;Component&#187;</text><text fill="#000000" font-family="sans-serif" font-size="11" lengthAdjust="spacing" textLength="28" x="1000.5" y="1175.2549">Audio</text></g><!--entity ReactNativeCalendarPicker--><g id="elem_ReactNativeCalendarPicker"><rect fill="#F1F1F1" height="57.6719" rx="2.5" ry="2.5" style="stroke:#181818;stroke-width:0.5;" width="177" x="516" y="1083"/><rect fill="#F1F1F1" height="10" style="stroke:#181818;stroke-width:0.5;" width="15" x="673" y="1088"/><rect fill="#F1F1F1" height="2" style="stroke:#181818;stroke-width:0.5;" width="4" x="671" y="1090"/><rect fill="#F1F1F1" height="2" style="stroke:#181818;stroke-width:0.5;" width="4" x="671" y="1094"/><text fill="#000000" font-family="sans-serif" font-size="11" font-style="italic" lengthAdjust="spacing" textLength="47" x="576" y="1114.4189">&#171;Library&#187;</text><text fill="#000000" font-family="sans-serif" font-size="11" lengthAdjust="spacing" textLength="137" x="531" y="1128.2549">react-native-calendar-picker</text></g><!--entity CalendarPicker--><g id="elem_CalendarPicker"><rect fill="#F1F1F1" height="57.6719" rx="2.5" ry="2.5" style="stroke:#181818;stroke-width:0.5;" width="112" x="771" y="1037"/><rect fill="#F1F1F1" height="10" style="stroke:#181818;stroke-width:0.5;" width="15" x="863" y="1042"/><rect fill="#F1F1F1" height="2" style="stroke:#181818;stroke-width:0.5;" width="4" x="861" y="1044"/><rect fill="#F1F1F1" height="2" style="stroke:#181818;stroke-width:0.5;" width="4" x="861" y="1048"/><text fill="#000000" font-family="sans-serif" font-size="11" font-style="italic" lengthAdjust="spacing" textLength="68" x="788" y="1068.4189">&#171;Component&#187;</text><text fill="#000000" font-family="sans-serif" font-size="11" lengthAdjust="spacing" textLength="72" x="786" y="1082.2549">CalendarPicker</text></g><!--entity AddEventController--><g id="elem_AddEventController"><ellipse cx="361" cy="311" fill="#F1F1F1" rx="12" ry="12" style="stroke:#181818;stroke-width:0.5;"/><polygon fill="#181818" points="357,299,363,294,361,299,363,304,357,299" style="stroke:#181818;stroke-width:1.0;"/><text fill="#000000" font-family="sans-serif" font-size="11" lengthAdjust="spacing" textLength="93" x="314.5" y="338.4189">AddEventController</text></g><!--entity LocationController--><g id="elem_LocationController"><ellipse cx="361" cy="230" fill="#F1F1F1" rx="12" ry="12" style="stroke:#181818;stroke-width:0.5;"/><polygon fill="#181818" points="357,218,363,213,361,218,363,223,357,218" style="stroke:#181818;stroke-width:1.0;"/><text fill="#000000" font-family="sans-serif" font-size="11" lengthAdjust="spacing" textLength="87" x="317.5" y="257.4189">LocationController</text></g><!--entity FileController--><g id="elem_FileController"><ellipse cx="361" cy="149" fill="#F1F1F1" rx="12" ry="12" style="stroke:#181818;stroke-width:0.5;"/><polygon fill="#181818" points="357,137,363,132,361,137,363,142,357,137" style="stroke:#181818;stroke-width:1.0;"/><text fill="#000000" font-family="sans-serif" font-size="11" lengthAdjust="spacing" textLength="62" x="330" y="176.4189">FileController</text></g><!--entity useAuth--><g id="elem_useAuth"><ellipse cx="361" cy="68" fill="#F1F1F1" rx="12" ry="12" style="stroke:#181818;stroke-width:0.5;"/><polygon fill="#181818" points="357,56,363,51,361,56,363,61,357,56" style="stroke:#181818;stroke-width:1.0;"/><text fill="#000000" font-family="sans-serif" font-size="11" lengthAdjust="spacing" textLength="41" x="340.5" y="95.4189">useAuth</text></g><!--entity EventModel--><g id="elem_EventModel"><ellipse cx="604.5" cy="311" fill="#F1F1F1" rx="12" ry="12" style="stroke:#181818;stroke-width:0.5;"/><line style="stroke:#181818;stroke-width:0.5;" x1="592.5" x2="616.5" y1="325" y2="325"/><text fill="#000000" font-family="sans-serif" font-size="11" lengthAdjust="spacing" textLength="55" x="577" y="338.4189">EventModel</text></g><!--entity LocationModel--><g id="elem_LocationModel"><ellipse cx="604.5" cy="230" fill="#F1F1F1" rx="12" ry="12" style="stroke:#181818;stroke-width:0.5;"/><line style="stroke:#181818;stroke-width:0.5;" x1="592.5" x2="616.5" y1="244" y2="244"/><text fill="#000000" font-family="sans-serif" font-size="11" lengthAdjust="spacing" textLength="69" x="570" y="257.4189">LocationModel</text></g><!--entity UserReg--><g id="elem_UserReg"><ellipse cx="39.5" cy="699.5" fill="#F1F1F1" rx="8" ry="8" style="stroke:#181818;stroke-width:0.5;"/><path d="M39.5,707.5 L39.5,734.5 M26.5,715.5 L52.5,715.5 M39.5,734.5 L26.5,749.5 M39.5,734.5 L52.5,749.5 " fill="none" style="stroke:#181818;stroke-width:0.5;"/><text fill="#000000" font-family="sans-serif" font-size="11" lengthAdjust="spacing" textLength="67" x="6" y="762.4189">Authenticated</text><text fill="#000000" font-family="sans-serif" font-size="11" lengthAdjust="spacing" textLength="23" x="28" y="776.2549">User</text></g><!--link addEventView to AddDefaultView--><g id="link_addEventView_AddDefaultView"><path d="M171.31,765.24 C174.91,879.94 192.72,1286.76 266,1389 C279.13,1407.32 295.7204,1417.0177 315.2604,1424.3277 " fill="none" id="addEventView-to-AddDefaultView" style="stroke:#181818;stroke-width:1.0;"/><polygon fill="#181818" points="320.88,1426.43,313.8521,1419.5301,316.197,1424.6781,311.049,1427.0229,320.88,1426.43" style="stroke:#181818;stroke-width:1.0;"/></g><!--link addEventView to AddDateView--><g id="link_addEventView_AddDateView"><path d="M172.13,765.04 C178.27,868.48 202.94,1208.23 266,1294 C280.65,1313.93 300.3177,1324.2343 320.9977,1331.3643 " fill="none" id="addEventView-to-AddDateView" style="stroke:#181818;stroke-width:1.0;"/><polygon fill="#181818" points="326.67,1333.32,319.4653,1326.6049,321.9431,1331.6903,316.8577,1334.168,326.67,1333.32" style="stroke:#181818;stroke-width:1.0;"/></g><!--link addEventView to ChooseCategoriesView--><g id="link_addEventView_ChooseCategoriesView"><path d="M173.31,765.26 C182.35,856.95 213.18,1129.64 266,1199 C275.55,1211.54 283.9403,1218.3532 297.9803,1225.4832 " fill="none" id="addEventView-to-ChooseCategoriesView" style="stroke:#181818;stroke-width:1.0;"/><polygon fill="#181818" points="303.33,1228.2,297.1166,1220.5584,298.8719,1225.936,293.4943,1227.6913,303.33,1228.2" style="stroke:#181818;stroke-width:1.0;"/></g><!--link addEventView to useCurrentLocation--><g id="link_addEventView_useCurrentLocation"><path d="M173.07,704.7 C179.35,648.29 200.14,526.08 266,451 C273.55,442.39 277.8918,438.2709 287.9718,432.3709 " fill="none" id="addEventView-to-useCurrentLocation" style="stroke:#181818;stroke-width:1.0;"/><polygon fill="#181818" points="293.15,429.34,283.3621,430.4342,288.8348,431.8657,287.4033,437.3385,293.15,429.34" style="stroke:#181818;stroke-width:1.0;"/></g><!--link addEventView to SafeAreaContext--><g id="link_addEventView_SafeAreaContext"><path d="M179.5,765.15 C192.73,805.03 220.86,875.44 266,920 C272.75,926.67 275.5506,929.3822 283.8306,934.5522 " fill="none" id="addEventView-to-SafeAreaContext" style="stroke:#181818;stroke-width:1.0;"/><polygon fill="#181818" points="288.92,937.73,283.4045,929.5704,284.6789,935.0818,279.1674,936.3562,288.92,937.73" style="stroke:#181818;stroke-width:1.0;"/></g><!--link addEventView to ReactNative--><g id="link_addEventView_ReactNative"><path d="M197.33,765.21 C215.45,784.46 240.62,809.06 266,827 C280.01,836.9 291.008,843.2281 306.148,850.6181 " fill="none" id="addEventView-to-ReactNative" style="stroke:#181818;stroke-width:1.0;"/><polygon fill="#181818" points="311.54,853.25,305.2066,845.7075,307.0467,851.0568,301.6975,852.8968,311.54,853.25" style="stroke:#181818;stroke-width:1.0;"/></g><!--link addEventView to ReactNativeToast--><g id="link_addEventView_ReactNativeToast"><path d="M206.14,726.16 C223.51,721.85 239.4663,717.8938 261.1263,712.5238 " fill="none" id="addEventView-to-ReactNativeToast" style="stroke:#181818;stroke-width:1.0;"/><polygon fill="#181818" points="266.95,711.08,257.2519,709.3633,262.0969,712.2832,259.177,717.1282,266.95,711.08" style="stroke:#181818;stroke-width:1.0;"/></g><!--link addEventView to ReactI18next--><g id="link_addEventView_ReactI18next"><path d="M206.14,743.65 C235.09,750.68 270.4595,759.2641 302.9495,767.1541 " fill="none" id="addEventView-to-ReactI18next" style="stroke:#181818;stroke-width:1.0;"/><polygon fill="#181818" points="308.78,768.57,300.9781,762.5591,303.9212,767.3901,299.0902,770.3332,308.78,768.57" style="stroke:#181818;stroke-width:1.0;"/></g><!--link addEventView to ReactNavigation--><g id="link_addEventView_ReactNavigation"><path d="M173.37,765.05 C180.13,820.38 201.63,939.47 266,1013 C271.89,1019.73 273.9898,1022.2537 281.5798,1027.3537 " fill="none" id="addEventView-to-ReactNavigation" style="stroke:#181818;stroke-width:1.0;"/><polygon fill="#181818" points="286.56,1030.7,281.3207,1022.3604,282.4099,1027.9114,276.8589,1029.0006,286.56,1030.7" style="stroke:#181818;stroke-width:1.0;"/></g><!--link addEventView to React--><g id="link_addEventView_React"><path d="M170.2,765.13 C171.08,833.45 182.2,1002.27 266,1106 C279.07,1122.18 293.5712,1131.0364 311.8212,1138.3564 " fill="none" id="addEventView-to-React" style="stroke:#181818;stroke-width:1.0;"/><polygon fill="#181818" points="317.39,1140.59,310.5259,1133.5271,312.7494,1138.7287,307.5478,1140.9521,317.39,1140.59" style="stroke:#181818;stroke-width:1.0;"/></g><!--link addEventView to Modal--><g id="link_addEventView_Modal"><path d="M196.41,704.96 C214.54,685.15 240.07,659.53 266,641 C277.43,632.83 285.1515,628.0588 297.8215,621.5588 " fill="none" id="addEventView-to-Modal" style="stroke:#181818;stroke-width:1.0;"/><polygon fill="#181818" points="303.16,618.82,293.3265,619.3692,298.7113,621.1023,296.9781,626.4871,303.16,618.82" style="stroke:#181818;stroke-width:1.0;"/></g><!--link addEventView to AppHeader--><g id="link_addEventView_AppHeader"><path d="M179.11,704.89 C192.05,664.28 220.02,591.79 266,546 C276.6,535.44 284.7168,529.5595 298.1068,522.7195 " fill="none" id="addEventView-to-AppHeader" style="stroke:#181818;stroke-width:1.0;"/><polygon fill="#181818" points="303.45,519.99,293.6155,520.5221,298.9973,522.2646,297.2548,527.6464,303.45,519.99" style="stroke:#181818;stroke-width:1.0;"/></g><!--link AddDefaultView to useImagePicker--><g id="link_AddDefaultView_useImagePicker"><path d="M401.07,1437 C439.12,1437 491.53,1437 535.85,1437 " fill="none" id="AddDefaultView-to-useImagePicker" style="stroke:#181818;stroke-width:1.0;"/><polygon fill="#181818" points="541.85,1437,532.85,1433,536.85,1437,532.85,1441,541.85,1437" style="stroke:#181818;stroke-width:1.0;"/></g><!--link AddDefaultView to useMusicPicker--><g id="link_AddDefaultView_useMusicPicker"><path d="M401.07,1420.01 C439.12,1403.47 492.0271,1380.4614 536.3471,1361.2014 " fill="none" id="AddDefaultView-to-useMusicPicker" style="stroke:#181818;stroke-width:1.0;"/><polygon fill="#181818" points="541.85,1358.81,532.0015,1358.7285,537.2643,1360.8028,535.19,1366.0656,541.85,1358.81" style="stroke:#181818;stroke-width:1.0;"/></g><!--link AddDefaultView to useAudioRecorder--><g id="link_AddDefaultView_useAudioRecorder"><path d="M401.3,1422.97 C419.49,1415.06 440.46,1403.77 456,1389 C494.69,1352.24 481.09,1325.36 516,1285 C528.78,1270.22 540.3103,1259.9837 555.3803,1248.6137 " fill="none" id="AddDefaultView-to-useAudioRecorder" style="stroke:#181818;stroke-width:1.0;"/><polygon fill="#181818" points="560.17,1245,550.5763,1247.2275,556.1786,1248.0114,555.3946,1253.6137,560.17,1245" style="stroke:#181818;stroke-width:1.0;"/></g><!--link AddDateView to ReactNativeCalendarPicker--><g id="link_AddDateView_ReactNativeCalendarPicker"><path d="M395.36,1331.13 C415.01,1323.35 439.24,1311.18 456,1294 C499.04,1249.89 475.34,1215.31 516,1169 C525.21,1158.51 531.8347,1152.5383 543.5247,1144.6083 " fill="none" id="AddDateView-to-ReactNativeCalendarPicker" style="stroke:#181818;stroke-width:1.0;"/><polygon fill="#181818" points="548.49,1141.24,538.7965,1142.9822,544.3522,1144.0469,543.2875,1149.6027,548.49,1141.24" style="stroke:#181818;stroke-width:1.0;"/></g><!--link ReactNativeCalendarPicker to CalendarPicker--><g id="link_ReactNativeCalendarPicker_CalendarPicker"><path d="M693.28,1093.69 C719.46,1088.23 741.5367,1083.6267 764.9967,1078.7267 " fill="none" id="ReactNativeCalendarPicker-to-CalendarPicker" style="stroke:#181818;stroke-width:1.0;"/><polygon fill="#181818" points="770.87,1077.5,761.2423,1075.4246,765.9756,1078.5223,762.8779,1083.2556,770.87,1077.5" style="stroke:#181818;stroke-width:1.0;"/></g><!--link useImagePicker to ExpoCamera--><g id="link_useImagePicker_ExpoCamera"><path d="M667.21,1437.28 C701.1,1437.43 736.6401,1437.592 768.7301,1437.742 " fill="none" id="useImagePicker-to-ExpoCamera" style="stroke:#181818;stroke-width:1.0;"/><polygon fill="#181818" points="774.73,1437.77,765.7488,1433.728,769.7301,1437.7466,765.7114,1441.7279,774.73,1437.77" style="stroke:#181818;stroke-width:1.0;"/></g><!--link ExpoCamera to Camera--><g id="link_ExpoCamera_Camera"><path d="M879.05,1438 C905.72,1438 932.33,1438 959.31,1438 " fill="none" id="ExpoCamera-to-Camera" style="stroke:#181818;stroke-width:1.0;"/><polygon fill="#181818" points="965.31,1438,956.31,1434,960.31,1438,956.31,1442,965.31,1438" style="stroke:#181818;stroke-width:1.0;"/></g><!--link useImagePicker to ExpoImagePicker--><g id="link_useImagePicker_ExpoImagePicker"><path d="M667.21,1411.25 C696.9,1398.86 726.9128,1386.3407 756.8428,1373.8507 " fill="none" id="useImagePicker-to-ExpoImagePicker" style="stroke:#181818;stroke-width:1.0;"/><polygon fill="#181818" points="762.38,1371.54,752.5337,1371.3146,757.7657,1373.4656,755.6147,1378.6975,762.38,1371.54" style="stroke:#181818;stroke-width:1.0;"/></g><!--link ExpoImagePicker to ImagePicker--><g id="link_ExpoImagePicker_ImagePicker"><path d="M891.7,1345 C915.6,1345 936.5,1345 959.34,1345 " fill="none" id="ExpoImagePicker-to-ImagePicker" style="stroke:#181818;stroke-width:1.0;"/><polygon fill="#181818" points="965.34,1345,956.34,1341,960.34,1345,956.34,1349,965.34,1345" style="stroke:#181818;stroke-width:1.0;"/></g><!--link ReactI18next to useTranslation--><g id="link_ReactI18next_useTranslation"><path d="M413.22,781 C452.95,781 501.93,781 542.58,781 " fill="none" id="ReactI18next-to-useTranslation" style="stroke:#181818;stroke-width:1.0;"/><polygon fill="#181818" points="548.58,781,539.58,777,543.58,781,539.58,785,548.58,781" style="stroke:#181818;stroke-width:1.0;"/></g><!--link useMusicPicker to ExpoDocumentPicker--><g id="link_useMusicPicker_ExpoDocumentPicker"><path d="M667.21,1309.61 C693.84,1299.95 719.5498,1290.6265 747.3298,1280.5465 " fill="none" id="useMusicPicker-to-ExpoDocumentPicker" style="stroke:#181818;stroke-width:1.0;"/><polygon fill="#181818" points="752.97,1278.5,743.1454,1277.8097,748.2698,1280.2055,745.8741,1285.3299,752.97,1278.5" style="stroke:#181818;stroke-width:1.0;"/></g><!--link ExpoDocumentPicker to DocumentPicker--><g id="link_ExpoDocumentPicker_DocumentPicker"><path d="M901.11,1252 C920.94,1252 936.13,1252 954.96,1252 " fill="none" id="ExpoDocumentPicker-to-DocumentPicker" style="stroke:#181818;stroke-width:1.0;"/><polygon fill="#181818" points="960.96,1252,951.96,1248,955.96,1252,951.96,1256,960.96,1252" style="stroke:#181818;stroke-width:1.0;"/></g><!--link useCurrentLocation to ExpoLocation--><g id="link_useCurrentLocation_ExpoLocation"><path d="M428.63,405 C467.44,405 509.66,405 545.63,405 " fill="none" id="useCurrentLocation-to-ExpoLocation" style="stroke:#181818;stroke-width:1.0;"/><polygon fill="#181818" points="551.63,405,542.63,401,546.63,405,542.63,409,551.63,405" style="stroke:#181818;stroke-width:1.0;"/></g><!--link ExpoLocation to expoLocationComponent--><g id="link_ExpoLocation_expoLocationComponent"><path d="M657.2,405 C691.95,405 731.63,405 766.71,405 " fill="none" id="ExpoLocation-to-expoLocationComponent" style="stroke:#181818;stroke-width:1.0;"/><polygon fill="#181818" points="772.71,405,763.71,401,767.71,405,763.71,409,772.71,405" style="stroke:#181818;stroke-width:1.0;"/></g><!--link useAudioRecorder to ExpoAV--><g id="link_useAudioRecorder_ExpoAV"><path d="M670.17,1199.28 C706.64,1189.86 745.3809,1179.8416 777.4909,1171.5416 " fill="none" id="useAudioRecorder-to-ExpoAV" style="stroke:#181818;stroke-width:1.0;"/><polygon fill="#181818" points="783.3,1170.04,773.5854,1168.4196,778.4591,1171.2913,775.5874,1176.1651,783.3,1170.04" style="stroke:#181818;stroke-width:1.0;"/></g><!--link ExpoAV to AudioComponent--><g id="link_ExpoAV_AudioComponent"><path d="M870.75,1159 C898.73,1159 929.48,1159 959.34,1159 " fill="none" id="ExpoAV-to-AudioComponent" style="stroke:#181818;stroke-width:1.0;"/><polygon fill="#181818" points="965.34,1159,956.34,1155,960.34,1159,956.34,1163,965.34,1159" style="stroke:#181818;stroke-width:1.0;"/></g><!--link addEventView to AddEventController--><g id="link_addEventView_AddEventController"><path d="M169.61,704.81 C169.17,635.13 177.6,461.2 266,358 C278.35,343.59 291.1216,336.1971 308.4116,330.1971 " fill="none" id="addEventView-to-AddEventController" style="stroke:#181818;stroke-width:1.0;"/><polygon fill="#181818" points="314.08,328.23,304.266,327.4017,309.3563,329.8692,306.8888,334.9595,314.08,328.23" style="stroke:#181818;stroke-width:1.0;"/></g><!--link addEventView to LocationController--><g id="link_addEventView_LocationController"><path d="M173.15,704.96 C181.74,613.97 211.39,343.57 266,277 C278.82,261.37 293.1588,253.5692 311.4488,247.6792 " fill="none" id="addEventView-to-LocationController" style="stroke:#181818;stroke-width:1.0;"/><polygon fill="#181818" points="317.16,245.84,307.3671,244.7913,312.4007,247.3727,309.8194,252.4062,317.16,245.84" style="stroke:#181818;stroke-width:1.0;"/></g><!--link addEventView to FileController--><g id="link_addEventView_FileController"><path d="M172.13,704.82 C178.16,603.3 202.26,276.14 266,196 C281.57,176.43 302.6724,167.7079 323.7324,162.5479 " fill="none" id="addEventView-to-FileController" style="stroke:#181818;stroke-width:1.0;"/><polygon fill="#181818" points="329.56,161.12,319.8667,159.3767,324.7036,162.3099,321.7705,167.1469,329.56,161.12" style="stroke:#181818;stroke-width:1.0;"/></g><!--link addEventView to useAuth--><g id="link_addEventView_useAuth"><path d="M171.36,704.65 C175.08,593.31 193.07,208.84 266,115 C284.17,91.61 312.7417,82.82 334.5117,78.76 " fill="none" id="addEventView-to-useAuth" style="stroke:#181818;stroke-width:1.0;"/><polygon fill="#181818" points="340.41,77.66,330.8292,75.3778,335.4947,78.5767,332.2959,83.2422,340.41,77.66" style="stroke:#181818;stroke-width:1.0;"/></g><!--link AddEventController to EventModel--><g id="link_AddEventController_EventModel"><path d="M407.71,318 C457.62,318 529.87,318 570.69,318 " fill="none" id="AddEventController-to-EventModel" style="stroke:#181818;stroke-width:1.0;"/><polygon fill="#181818" points="576.69,318,567.69,314,571.69,318,567.69,322,576.69,318" style="stroke:#181818;stroke-width:1.0;"/></g><!--link LocationController to LocationModel--><g id="link_LocationController_LocationModel"><path d="M404.62,237 C451.74,237 520.69,237 563.86,237 " fill="none" id="LocationController-to-LocationModel" style="stroke:#181818;stroke-width:1.0;"/><polygon fill="#181818" points="569.86,237,560.86,233,564.86,237,560.86,241,569.86,237" style="stroke:#181818;stroke-width:1.0;"/></g><!--link UserReg to addEventView--><g id="link_UserReg_addEventView"><path d="M73.13,735 C91.35,735 108.08,735 126.78,735 " fill="none" id="UserReg-to-addEventView" style="stroke:#181818;stroke-width:1.0;stroke-dasharray:7.0,7.0;"/><polygon fill="#181818" points="132.78,735,123.78,731,127.78,735,123.78,739,132.78,735" style="stroke:#181818;stroke-width:1.0;"/></g><!--SRC=[bLTDRniX4BtpAr0kFQtRNDAgggnQcqI9b4HLuaOzz49OR2ElbnMmRjAg_xryx2wVQxi-MClmtXiOO0R4bZOjucW7XNohYVhd5CjkLmCnzbHaXRfQBichNDHqtUn88o5MVuIdg6lMo2Vwcy3pSr2JbOIIGKxN6mahoWcMb3K0OSauF5jqSgDKA4QIL3-RxuBmCuW4r1-FP0q0Q17UeZM1AwvKILF1BryUYMB31oJfddp-CFjuCRkOp_y0g7ulh6ignD-KSbLTxPNqCoM_Z2Jo34e4Bfz-mFayPLtQIOoyq7IGgIOHqFhs9AVSC2P8gM1hnYaH8pdNuQaO6SnsBMlqEfnn7H13jA5Ho3lwmhMF3FghWHSDsjCrqelnlZ6XT08FOzSHgK59qmk1LgH0obHWlLIlTaHFohfGnjBQ_aFG7uzkdqIbvv-QmRNXtbf3H8wudI1BZXfHcqaRScZIz1l6jaU381aIgi4aNUbDhQWYdiTIGtAJSHlZdbMeDZppfS5b9oJRmNBmAp9Ri6rl2Ahw8pIs9jcPA9GTv-hxZk4W4f7PKzH14Vc8tkxKkVr6yROVK6WwJUE-4nI76fxfD8r5Lr7sI33ZbLC9Z3cTM8Yyjgp0Q4SuCXfNgbsQvk6jLJgAWu_hCEc9waWLhPkvzXU5Rzff7FeuxaVTr_u6qAxzfP_s6-mRuj6SnvFSLmntkiJ40RZixQV48CGQYPH-V2XeFtfVF1_sQFQKFNlww_Gv1na4evhe0-tFtSiUPTzzIWX2RBy7OtfkP8tah7OrjBI6UiWiYHc6FBVg0IyrXxHhMfE84ff2k3d5SkDEjDpOyUiBXLJvq0nI9L1YKwbh1gXXL0uOMC1V0Dx1w-7sOIhn3LNdcEFD6mWk5KKnZsyBUS1mBqXxiuK_XQKfMG_ITBiKdzAYMfm2l7rsiDEKi0b4Nt0d-SFLOWAGcaq9p0Hog6zgwd7KetOVCYyBJY2ysZA12Ef6xxbVJk0lRHImyDY1wVDiDa48LYjhAmU8AgZ6kZ84l8faLOnLiVrvJqZuaBZIQ8pVhnI3XGwkMNsOlAkJneU95qHLV1X4XCeaV8sCK4hThqyWSriPz4TCKD1qRxPKQMcpt22vBmoAYsVG5mQp8uEiRzRDPKXER3Z4XhOYcnQYd9fYClapmKG9CvSvRABC974pAvSaKtV1A2n8JLA_rI3LJq5attRzumtEPlFWrGN0Fm00]--></g></svg>