<?xml version="1.0" encoding="us-ascii" standalone="no"?><svg xmlns="http://www.w3.org/2000/svg" xmlns:xlink="http://www.w3.org/1999/xlink" contentStyleType="text/css" height="1574px" preserveAspectRatio="none" style="width:1553px;height:1574px;background:#FFFFFF;" version="1.1" viewBox="0 0 1553 1574" width="1553px" zoomAndPan="magnify"><defs/><g><rect fill="#FFFFFF" height="1455.3047" style="stroke:#181818;stroke-width:1.0;" width="10" x="201.5" y="102.6719"/><rect fill="#FFFFFF" height="27.8359" style="stroke:#181818;stroke-width:1.0;" width="10" x="309.5" y="495.2109"/><rect fill="#FFFFFF" height="27.8359" style="stroke:#181818;stroke-width:1.0;" width="10" x="413.5" y="150.3438"/><rect fill="#FFFFFF" height="27.8359" style="stroke:#181818;stroke-width:1.0;" width="10" x="514.5" y="423.7031"/><rect fill="#FFFFFF" height="27.8359" style="stroke:#181818;stroke-width:1.0;" width="10" x="620.5" y="585.7188"/><rect fill="#FFFFFF" height="456.2109" style="stroke:#181818;stroke-width:1.0;" width="10" x="730.5" y="1058.9297"/><rect fill="#FFFFFF" height="250.5234" style="stroke:#181818;stroke-width:1.0;" width="10" x="836.5" y="780.5703"/><rect fill="#FFFFFF" height="27.8359" style="stroke:#181818;stroke-width:1.0;" width="10" x="927" y="669.2266"/><rect fill="#FFFFFF" height="27.8359" style="stroke:#181818;stroke-width:1.0;" width="10" x="927" y="724.8984"/><rect fill="#FFFFFF" height="400.5391" style="stroke:#181818;stroke-width:1.0;" width="10" x="1001.5" y="1086.7656"/><rect fill="#FFFFFF" height="194.8516" style="stroke:#181818;stroke-width:1.0;" width="10" x="1079.5" y="808.4063"/><rect fill="#FFFFFF" height="139.1797" style="stroke:#181818;stroke-width:1.0;" width="10" x="1258.5" y="836.2422"/><rect fill="#FFFFFF" height="344.8672" style="stroke:#181818;stroke-width:1.0;" width="10" x="1258.5" y="1114.6016"/><rect fill="#FFFFFF" height="83.5078" style="stroke:#181818;stroke-width:1.0;" width="10" x="1366.5" y="864.0781"/><rect fill="#FFFFFF" height="289.1953" style="stroke:#181818;stroke-width:1.0;" width="10" x="1366.5" y="1142.4375"/><rect fill="#FFFFFF" height="27.8359" style="stroke:#181818;stroke-width:1.0;" width="10" x="1502.5" y="891.9141"/><rect fill="#FFFFFF" height="233.5234" style="stroke:#181818;stroke-width:1.0;" width="10" x="1502.5" y="1170.2734"/><rect fill="none" height="143.0156" style="stroke:#000000;stroke-width:1.5;" width="418" x="157" y="388.0313"/><rect fill="none" height="365.7031" style="stroke:#000000;stroke-width:1.5;" width="1536" x="10" y="1185.2734"/><line style="stroke:#181818;stroke-width:0.5;stroke-dasharray:5.0,5.0;" x1="56" x2="56" y1="92.6719" y2="1567.9766"/><line style="stroke:#181818;stroke-width:0.5;stroke-dasharray:5.0,5.0;" x1="206" x2="206" y1="92.6719" y2="1567.9766"/><line style="stroke:#181818;stroke-width:0.5;stroke-dasharray:5.0,5.0;" x1="314" x2="314" y1="92.6719" y2="1567.9766"/><line style="stroke:#181818;stroke-width:0.5;stroke-dasharray:5.0,5.0;" x1="418" x2="418" y1="92.6719" y2="1567.9766"/><line style="stroke:#181818;stroke-width:0.5;stroke-dasharray:5.0,5.0;" x1="519" x2="519" y1="92.6719" y2="1567.9766"/><line style="stroke:#181818;stroke-width:0.5;stroke-dasharray:5.0,5.0;" x1="625" x2="625" y1="92.6719" y2="1567.9766"/><line style="stroke:#181818;stroke-width:0.5;stroke-dasharray:5.0,5.0;" x1="735" x2="735" y1="92.6719" y2="1567.9766"/><line style="stroke:#181818;stroke-width:0.5;stroke-dasharray:5.0,5.0;" x1="841" x2="841" y1="92.6719" y2="1567.9766"/><line style="stroke:#181818;stroke-width:0.5;stroke-dasharray:5.0,5.0;" x1="932" x2="932" y1="92.6719" y2="1567.9766"/><line style="stroke:#181818;stroke-width:0.5;stroke-dasharray:5.0,5.0;" x1="1006" x2="1006" y1="92.6719" y2="1567.9766"/><line style="stroke:#181818;stroke-width:0.5;stroke-dasharray:5.0,5.0;" x1="1084" x2="1084" y1="92.6719" y2="1567.9766"/><line style="stroke:#181818;stroke-width:0.5;stroke-dasharray:5.0,5.0;" x1="1263" x2="1263" y1="92.6719" y2="1567.9766"/><line style="stroke:#181818;stroke-width:0.5;stroke-dasharray:5.0,5.0;" x1="1371" x2="1371" y1="92.6719" y2="1567.9766"/><line style="stroke:#181818;stroke-width:0.5;stroke-dasharray:5.0,5.0;" x1="1507" x2="1507" y1="92.6719" y2="1567.9766"/><text fill="#000000" font-family="sans-serif" font-size="11" lengthAdjust="spacing" textLength="67" x="20" y="76.4189">Authenticated</text><text fill="#000000" font-family="sans-serif" font-size="11" lengthAdjust="spacing" textLength="23" x="42" y="90.2549">User</text><ellipse cx="56.5" cy="13.5" fill="#E2E2F0" rx="8" ry="8" style="stroke:#181818;stroke-width:0.5;"/><path d="M56.5,21.5 L56.5,48.5 M43.5,29.5 L69.5,29.5 M56.5,48.5 L43.5,63.5 M56.5,48.5 L69.5,63.5 " fill="none" style="stroke:#181818;stroke-width:0.5;"/><text fill="#000000" font-family="sans-serif" font-size="11" font-style="italic" lengthAdjust="spacing" textLength="33" x="187" y="76.4189">&#171;TSX&#187;</text><text fill="#000000" font-family="sans-serif" font-size="11" lengthAdjust="spacing" textLength="73" x="167" y="90.2549">AddEventView</text><path d="M186,37 L186,61 M186,49 L203,49 " fill="none" style="stroke:#181818;stroke-width:0.5;"/><ellipse cx="215" cy="49" fill="#E2E2F0" rx="12" ry="12" style="stroke:#181818;stroke-width:0.5;"/><text fill="#000000" font-family="sans-serif" font-size="11" font-style="italic" lengthAdjust="spacing" textLength="85" x="269" y="76.4189">&#171;Custom Hooks&#187;</text><text fill="#000000" font-family="sans-serif" font-size="11" lengthAdjust="spacing" textLength="91" x="266" y="90.2549">useAudioRecorder</text><ellipse cx="314.5" cy="49" fill="#E2E2F0" rx="12" ry="12" style="stroke:#181818;stroke-width:0.5;"/><polygon fill="#181818" points="310.5,37,316.5,32,314.5,37,316.5,42,310.5,37" style="stroke:#181818;stroke-width:1.0;"/><text fill="#000000" font-family="sans-serif" font-size="11" font-style="italic" lengthAdjust="spacing" textLength="85" x="373" y="76.4189">&#171;Custom Hooks&#187;</text><text fill="#000000" font-family="sans-serif" font-size="11" lengthAdjust="spacing" textLength="75" x="378" y="90.2549">useImagePicker</text><ellipse cx="418.5" cy="49" fill="#E2E2F0" rx="12" ry="12" style="stroke:#181818;stroke-width:0.5;"/><polygon fill="#181818" points="414.5,37,420.5,32,418.5,37,420.5,42,414.5,37" style="stroke:#181818;stroke-width:1.0;"/><text fill="#000000" font-family="sans-serif" font-size="11" font-style="italic" lengthAdjust="spacing" textLength="85" x="474" y="76.4189">&#171;Custom Hooks&#187;</text><text fill="#000000" font-family="sans-serif" font-size="11" lengthAdjust="spacing" textLength="75" x="479" y="90.2549">useMusicPicker</text><ellipse cx="519.5" cy="49" fill="#E2E2F0" rx="12" ry="12" style="stroke:#181818;stroke-width:0.5;"/><polygon fill="#181818" points="515.5,37,521.5,32,519.5,37,521.5,42,515.5,37" style="stroke:#181818;stroke-width:1.0;"/><text fill="#000000" font-family="sans-serif" font-size="11" font-style="italic" lengthAdjust="spacing" textLength="85" x="580" y="76.4189">&#171;Custom Hooks&#187;</text><text fill="#000000" font-family="sans-serif" font-size="11" lengthAdjust="spacing" textLength="95" x="575" y="90.2549">useCurrentLocation</text><ellipse cx="625.5" cy="49" fill="#E2E2F0" rx="12" ry="12" style="stroke:#181818;stroke-width:0.5;"/><polygon fill="#181818" points="621.5,37,627.5,32,625.5,37,627.5,42,621.5,37" style="stroke:#181818;stroke-width:1.0;"/><text fill="#000000" font-family="sans-serif" font-size="11" lengthAdjust="spacing" textLength="93" x="686" y="90.2549">AddEventController</text><ellipse cx="735.5" cy="62.8359" fill="#E2E2F0" rx="12" ry="12" style="stroke:#181818;stroke-width:0.5;"/><polygon fill="#181818" points="731.5,50.8359,737.5,45.8359,735.5,50.8359,737.5,55.8359,731.5,50.8359" style="stroke:#181818;stroke-width:1.0;"/><text fill="#000000" font-family="sans-serif" font-size="11" lengthAdjust="spacing" textLength="87" x="795" y="90.2549">LocationController</text><ellipse cx="841.5" cy="62.8359" fill="#E2E2F0" rx="12" ry="12" style="stroke:#181818;stroke-width:0.5;"/><polygon fill="#181818" points="837.5,50.8359,843.5,45.8359,841.5,50.8359,843.5,55.8359,837.5,50.8359" style="stroke:#181818;stroke-width:1.0;"/><text fill="#000000" font-family="sans-serif" font-size="11" lengthAdjust="spacing" textLength="62" x="898" y="90.2549">FileController</text><ellipse cx="932" cy="62.8359" fill="#E2E2F0" rx="12" ry="12" style="stroke:#181818;stroke-width:0.5;"/><polygon fill="#181818" points="928,50.8359,934,45.8359,932,50.8359,934,55.8359,928,50.8359" style="stroke:#181818;stroke-width:1.0;"/><text fill="#000000" font-family="sans-serif" font-size="11" lengthAdjust="spacing" textLength="55" x="976" y="90.2549">EventModel</text><ellipse cx="1006.5" cy="62.8359" fill="#E2E2F0" rx="12" ry="12" style="stroke:#181818;stroke-width:0.5;"/><line style="stroke:#181818;stroke-width:0.5;" x1="994.5" x2="1018.5" y1="76.8359" y2="76.8359"/><text fill="#000000" font-family="sans-serif" font-size="11" lengthAdjust="spacing" textLength="69" x="1047" y="90.2549">LocationModel</text><ellipse cx="1084.5" cy="62.8359" fill="#E2E2F0" rx="12" ry="12" style="stroke:#181818;stroke-width:0.5;"/><line style="stroke:#181818;stroke-width:0.5;" x1="1072.5" x2="1096.5" y1="76.8359" y2="76.8359"/><rect fill="#E2E2F0" height="41.6719" rx="2.5" ry="2.5" style="stroke:#181818;stroke-width:0.5;" width="73" x="1227" y="50"/><text fill="#000000" font-family="sans-serif" font-size="11" font-style="italic" lengthAdjust="spacing" textLength="41" x="1243" y="68.4189">&#171;REST&#187;</text><text fill="#000000" font-family="sans-serif" font-size="11" lengthAdjust="spacing" textLength="59" x="1234" y="82.2549">Express API</text><rect fill="#E2E2F0" height="41.6719" rx="2.5" ry="2.5" style="stroke:#181818;stroke-width:0.5;" width="75" x="1334" y="50"/><text fill="#000000" font-family="sans-serif" font-size="11" font-style="italic" lengthAdjust="spacing" textLength="38" x="1352.5" y="68.4189">&#171;ORM&#187;</text><text fill="#000000" font-family="sans-serif" font-size="11" lengthAdjust="spacing" textLength="61" x="1341" y="82.2549">Prisma Client</text><text fill="#000000" font-family="sans-serif" font-size="11" lengthAdjust="spacing" textLength="51" x="1479" y="90.2549">postgresql</text><path d="M1489.5,42.8359 C1489.5,32.8359 1507.5,32.8359 1507.5,32.8359 C1507.5,32.8359 1525.5,32.8359 1525.5,42.8359 L1525.5,68.8359 C1525.5,78.8359 1507.5,78.8359 1507.5,78.8359 C1507.5,78.8359 1489.5,78.8359 1489.5,68.8359 L1489.5,42.8359 " fill="#E2E2F0" style="stroke:#181818;stroke-width:1.5;"/><path d="M1489.5,42.8359 C1489.5,52.8359 1507.5,52.8359 1507.5,52.8359 C1507.5,52.8359 1525.5,52.8359 1525.5,42.8359 " fill="none" style="stroke:#181818;stroke-width:1.5;"/><rect fill="#FFFFFF" height="1455.3047" style="stroke:#181818;stroke-width:1.0;" width="10" x="201.5" y="102.6719"/><rect fill="#FFFFFF" height="27.8359" style="stroke:#181818;stroke-width:1.0;" width="10" x="309.5" y="495.2109"/><rect fill="#FFFFFF" height="27.8359" style="stroke:#181818;stroke-width:1.0;" width="10" x="413.5" y="150.3438"/><rect fill="#FFFFFF" height="27.8359" style="stroke:#181818;stroke-width:1.0;" width="10" x="514.5" y="423.7031"/><rect fill="#FFFFFF" height="27.8359" style="stroke:#181818;stroke-width:1.0;" width="10" x="620.5" y="585.7188"/><rect fill="#FFFFFF" height="456.2109" style="stroke:#181818;stroke-width:1.0;" width="10" x="730.5" y="1058.9297"/><rect fill="#FFFFFF" height="250.5234" style="stroke:#181818;stroke-width:1.0;" width="10" x="836.5" y="780.5703"/><rect fill="#FFFFFF" height="27.8359" style="stroke:#181818;stroke-width:1.0;" width="10" x="927" y="669.2266"/><rect fill="#FFFFFF" height="27.8359" style="stroke:#181818;stroke-width:1.0;" width="10" x="927" y="724.8984"/><rect fill="#FFFFFF" height="400.5391" style="stroke:#181818;stroke-width:1.0;" width="10" x="1001.5" y="1086.7656"/><rect fill="#FFFFFF" height="194.8516" style="stroke:#181818;stroke-width:1.0;" width="10" x="1079.5" y="808.4063"/><rect fill="#FFFFFF" height="139.1797" style="stroke:#181818;stroke-width:1.0;" width="10" x="1258.5" y="836.2422"/><rect fill="#FFFFFF" height="344.8672" style="stroke:#181818;stroke-width:1.0;" width="10" x="1258.5" y="1114.6016"/><rect fill="#FFFFFF" height="83.5078" style="stroke:#181818;stroke-width:1.0;" width="10" x="1366.5" y="864.0781"/><rect fill="#FFFFFF" height="289.1953" style="stroke:#181818;stroke-width:1.0;" width="10" x="1366.5" y="1142.4375"/><rect fill="#FFFFFF" height="27.8359" style="stroke:#181818;stroke-width:1.0;" width="10" x="1502.5" y="891.9141"/><rect fill="#FFFFFF" height="233.5234" style="stroke:#181818;stroke-width:1.0;" width="10" x="1502.5" y="1170.2734"/><polygon fill="#181818" points="189.5,118.5078,199.5,122.5078,189.5,126.5078" style="stroke:#181818;stroke-width:1.0;"/><line style="stroke:#181818;stroke-width:1.0;" x1="56.5" x2="195.5" y1="122.5078" y2="122.5078"/><text fill="#000000" font-family="sans-serif" font-size="11" lengthAdjust="spacing" textLength="28" x="63.5" y="118.0908">image</text><polygon fill="#181818" points="401.5,146.3438,411.5,150.3438,401.5,154.3438" style="stroke:#181818;stroke-width:1.0;"/><line style="stroke:#181818;stroke-width:1.0;" x1="211.5" x2="407.5" y1="150.3438" y2="150.3438"/><text fill="#000000" font-family="sans-serif" font-size="11" lengthAdjust="spacing" textLength="145" x="218.5" y="145.9268">openCamera() || openGallery()</text><polygon fill="#181818" points="222.5,174.1797,212.5,178.1797,222.5,182.1797" style="stroke:#181818;stroke-width:1.0;"/><line style="stroke:#181818;stroke-width:1.0;" x1="216.5" x2="417.5" y1="178.1797" y2="178.1797"/><text fill="#000000" font-family="sans-serif" font-size="11" lengthAdjust="spacing" textLength="41" x="228.5" y="173.7627">imageUri</text><polygon fill="#181818" points="189.5,202.0156,199.5,206.0156,189.5,210.0156" style="stroke:#181818;stroke-width:1.0;"/><line style="stroke:#181818;stroke-width:1.0;" x1="56.5" x2="195.5" y1="206.0156" y2="206.0156"/><text fill="#000000" font-family="sans-serif" font-size="11" lengthAdjust="spacing" textLength="16" x="63.5" y="201.5986">title</text><polygon fill="#181818" points="189.5,229.8516,199.5,233.8516,189.5,237.8516" style="stroke:#181818;stroke-width:1.0;"/><line style="stroke:#181818;stroke-width:1.0;" x1="56.5" x2="195.5" y1="233.8516" y2="233.8516"/><text fill="#000000" font-family="sans-serif" font-size="11" lengthAdjust="spacing" textLength="53" x="63.5" y="229.4346">description</text><polygon fill="#181818" points="189.5,257.6875,199.5,261.6875,189.5,265.6875" style="stroke:#181818;stroke-width:1.0;"/><line style="stroke:#181818;stroke-width:1.0;" x1="56.5" x2="195.5" y1="261.6875" y2="261.6875"/><text fill="#000000" font-family="sans-serif" font-size="11" lengthAdjust="spacing" textLength="21" x="63.5" y="257.2705">date</text><polygon fill="#181818" points="189.5,285.5234,199.5,289.5234,189.5,293.5234" style="stroke:#181818;stroke-width:1.0;"/><line style="stroke:#181818;stroke-width:1.0;" x1="56.5" x2="195.5" y1="289.5234" y2="289.5234"/><text fill="#000000" font-family="sans-serif" font-size="11" lengthAdjust="spacing" textLength="39" x="63.5" y="285.1064">startsAt</text><polygon fill="#181818" points="189.5,313.3594,199.5,317.3594,189.5,321.3594" style="stroke:#181818;stroke-width:1.0;"/><line style="stroke:#181818;stroke-width:1.0;" x1="56.5" x2="195.5" y1="317.3594" y2="317.3594"/><text fill="#000000" font-family="sans-serif" font-size="11" lengthAdjust="spacing" textLength="35" x="63.5" y="312.9424">endsAt</text><polygon fill="#181818" points="189.5,341.1953,199.5,345.1953,189.5,349.1953" style="stroke:#181818;stroke-width:1.0;"/><line style="stroke:#181818;stroke-width:1.0;" x1="56.5" x2="195.5" y1="345.1953" y2="345.1953"/><text fill="#000000" font-family="sans-serif" font-size="11" lengthAdjust="spacing" textLength="43" x="63.5" y="340.7783">category</text><polygon fill="#181818" points="189.5,369.0313,199.5,373.0313,189.5,377.0313" style="stroke:#181818;stroke-width:1.0;"/><line style="stroke:#181818;stroke-width:1.0;" x1="56.5" x2="195.5" y1="373.0313" y2="373.0313"/><text fill="#000000" font-family="sans-serif" font-size="11" lengthAdjust="spacing" textLength="28" x="63.5" y="368.6143">music</text><path d="M157,388.0313 L215,388.0313 L215,393.8672 L205,403.8672 L157,403.8672 L157,388.0313 " fill="#EEEEEE" style="stroke:#000000;stroke-width:1.5;"/><rect fill="none" height="143.0156" style="stroke:#000000;stroke-width:1.5;" width="418" x="157" y="388.0313"/><text fill="#000000" font-family="sans-serif" font-size="11" font-weight="bold" lengthAdjust="spacing" textLength="13" x="172" y="400.4502">alt</text><text fill="#000000" font-family="sans-serif" font-size="11" font-weight="bold" lengthAdjust="spacing" textLength="89" x="230" y="401.4502">[Pick Music File]</text><polygon fill="#181818" points="502.5,419.7031,512.5,423.7031,502.5,427.7031" style="stroke:#181818;stroke-width:1.0;"/><line style="stroke:#181818;stroke-width:1.0;" x1="211.5" x2="508.5" y1="423.7031" y2="423.7031"/><text fill="#000000" font-family="sans-serif" font-size="11" lengthAdjust="spacing" textLength="71" x="218.5" y="419.2861">pickMusicFile()</text><polygon fill="#181818" points="222.5,447.5391,212.5,451.5391,222.5,455.5391" style="stroke:#181818;stroke-width:1.0;"/><line style="stroke:#181818;stroke-width:1.0;" x1="216.5" x2="518.5" y1="451.5391" y2="451.5391"/><text fill="#000000" font-family="sans-serif" font-size="11" lengthAdjust="spacing" textLength="57" x="228.5" y="447.1221">musicFileUri</text><line style="stroke:#000000;stroke-width:1.0;stroke-dasharray:2.0,2.0;" x1="157" x2="575" y1="460.5391" y2="460.5391"/><text fill="#000000" font-family="sans-serif" font-size="11" font-weight="bold" lengthAdjust="spacing" textLength="82" x="162" y="471.958">[Record Audio]</text><polygon fill="#181818" points="297.5,491.2109,307.5,495.2109,297.5,499.2109" style="stroke:#181818;stroke-width:1.0;"/><line style="stroke:#181818;stroke-width:1.0;" x1="211.5" x2="303.5" y1="495.2109" y2="495.2109"/><text fill="#000000" font-family="sans-serif" font-size="11" lengthAdjust="spacing" textLength="79" x="218.5" y="490.7939">startRecording()</text><polygon fill="#181818" points="222.5,519.0469,212.5,523.0469,222.5,527.0469" style="stroke:#181818;stroke-width:1.0;"/><line style="stroke:#181818;stroke-width:1.0;" x1="216.5" x2="313.5" y1="523.0469" y2="523.0469"/><text fill="#000000" font-family="sans-serif" font-size="11" lengthAdjust="spacing" textLength="55" x="228.5" y="518.6299">audioFileUri</text><polygon fill="#181818" points="189.5,553.8828,199.5,557.8828,189.5,561.8828" style="stroke:#181818;stroke-width:1.0;"/><line style="stroke:#181818;stroke-width:1.0;" x1="56.5" x2="195.5" y1="557.8828" y2="557.8828"/><text fill="#000000" font-family="sans-serif" font-size="11" lengthAdjust="spacing" textLength="37" x="63.5" y="553.4658">location</text><polygon fill="#181818" points="608.5,581.7188,618.5,585.7188,608.5,589.7188" style="stroke:#181818;stroke-width:1.0;"/><line style="stroke:#181818;stroke-width:1.0;" x1="211.5" x2="614.5" y1="585.7188" y2="585.7188"/><text fill="#000000" font-family="sans-serif" font-size="11" lengthAdjust="spacing" textLength="117" x="218.5" y="581.3018">handleCurrentLocation()</text><polygon fill="#181818" points="222.5,609.5547,212.5,613.5547,222.5,617.5547" style="stroke:#181818;stroke-width:1.0;"/><line style="stroke:#181818;stroke-width:1.0;" x1="216.5" x2="624.5" y1="613.5547" y2="613.5547"/><text fill="#000000" font-family="sans-serif" font-size="11" lengthAdjust="spacing" textLength="37" x="228.5" y="609.1377">location</text><polygon fill="#181818" points="189.5,637.3906,199.5,641.3906,189.5,645.3906" style="stroke:#181818;stroke-width:1.0;"/><line style="stroke:#181818;stroke-width:1.0;" x1="56.5" x2="195.5" y1="641.3906" y2="641.3906"/><text fill="#000000" font-family="sans-serif" font-size="11" lengthAdjust="spacing" textLength="87" x="63.5" y="636.9736">handleAddEvent()</text><polygon fill="#181818" points="915,665.2266,925,669.2266,915,673.2266" style="stroke:#181818;stroke-width:1.0;"/><line style="stroke:#181818;stroke-width:1.0;" x1="211.5" x2="921" y1="669.2266" y2="669.2266"/><text fill="#000000" font-family="sans-serif" font-size="11" lengthAdjust="spacing" textLength="178" x="218.5" y="664.8096">uploadFile(imageUri, FileType.IMAGE)</text><polygon fill="#181818" points="222.5,693.0625,212.5,697.0625,222.5,701.0625" style="stroke:#181818;stroke-width:1.0;"/><line style="stroke:#181818;stroke-width:1.0;" x1="216.5" x2="931" y1="697.0625" y2="697.0625"/><text fill="#000000" font-family="sans-serif" font-size="11" lengthAdjust="spacing" textLength="41" x="228.5" y="692.6455">imageUrl</text><polygon fill="#181818" points="915,720.8984,925,724.8984,915,728.8984" style="stroke:#181818;stroke-width:1.0;"/><line style="stroke:#181818;stroke-width:1.0;" x1="211.5" x2="921" y1="724.8984" y2="724.8984"/><text fill="#000000" font-family="sans-serif" font-size="11" lengthAdjust="spacing" textLength="193" x="218.5" y="720.4814">uploadFile(musicFileUri, FileType.MUSIC)</text><polygon fill="#181818" points="222.5,748.7344,212.5,752.7344,222.5,756.7344" style="stroke:#181818;stroke-width:1.0;"/><line style="stroke:#181818;stroke-width:1.0;" x1="216.5" x2="931" y1="752.7344" y2="752.7344"/><text fill="#000000" font-family="sans-serif" font-size="11" lengthAdjust="spacing" textLength="41" x="228.5" y="748.3174">musicUrl</text><polygon fill="#181818" points="824.5,776.5703,834.5,780.5703,824.5,784.5703" style="stroke:#181818;stroke-width:1.0;"/><line style="stroke:#181818;stroke-width:1.0;" x1="211.5" x2="830.5" y1="780.5703" y2="780.5703"/><text fill="#000000" font-family="sans-serif" font-size="11" lengthAdjust="spacing" textLength="104" x="218.5" y="776.1533">addLocation(location)</text><polygon fill="#181818" points="1067.5,804.4063,1077.5,808.4063,1067.5,812.4063" style="stroke:#181818;stroke-width:1.0;"/><line style="stroke:#181818;stroke-width:1.0;" x1="846.5" x2="1073.5" y1="808.4063" y2="808.4063"/><text fill="#000000" font-family="sans-serif" font-size="11" lengthAdjust="spacing" textLength="117" x="853.5" y="803.9893">createLocation(location)</text><polygon fill="#181818" points="1246.5,832.2422,1256.5,836.2422,1246.5,840.2422" style="stroke:#181818;stroke-width:1.0;"/><line style="stroke:#181818;stroke-width:1.0;" x1="1089.5" x2="1252.5" y1="836.2422" y2="836.2422"/><text fill="#000000" font-family="sans-serif" font-size="11" lengthAdjust="spacing" textLength="93" x="1096.5" y="831.8252">POST /api/locations</text><polygon fill="#181818" points="1354.5,860.0781,1364.5,864.0781,1354.5,868.0781" style="stroke:#181818;stroke-width:1.0;"/><line style="stroke:#181818;stroke-width:1.0;" x1="1268.5" x2="1360.5" y1="864.0781" y2="864.0781"/><text fill="#000000" font-family="sans-serif" font-size="11" lengthAdjust="spacing" textLength="79" x="1275.5" y="859.6611">location.create()</text><polygon fill="#181818" points="1490.5,887.9141,1500.5,891.9141,1490.5,895.9141" style="stroke:#181818;stroke-width:1.0;"/><line style="stroke:#181818;stroke-width:1.0;" x1="1376.5" x2="1496.5" y1="891.9141" y2="891.9141"/><text fill="#000000" font-family="sans-serif" font-size="11" lengthAdjust="spacing" textLength="107" x="1383.5" y="887.4971">INSERT INTO locations</text><polygon fill="#181818" points="1387.5,915.75,1377.5,919.75,1387.5,923.75" style="stroke:#181818;stroke-width:1.0;"/><line style="stroke:#181818;stroke-width:1.0;" x1="1381.5" x2="1506.5" y1="919.75" y2="919.75"/><text fill="#000000" font-family="sans-serif" font-size="11" lengthAdjust="spacing" textLength="45" x="1393.5" y="915.333">locationId</text><polygon fill="#181818" points="1279.5,943.5859,1269.5,947.5859,1279.5,951.5859" style="stroke:#181818;stroke-width:1.0;"/><line style="stroke:#181818;stroke-width:1.0;" x1="1273.5" x2="1370.5" y1="947.5859" y2="947.5859"/><text fill="#000000" font-family="sans-serif" font-size="11" lengthAdjust="spacing" textLength="37" x="1285.5" y="943.1689">location</text><polygon fill="#181818" points="1100.5,971.4219,1090.5,975.4219,1100.5,979.4219" style="stroke:#181818;stroke-width:1.0;"/><line style="stroke:#181818;stroke-width:1.0;" x1="1094.5" x2="1262.5" y1="975.4219" y2="975.4219"/><text fill="#000000" font-family="sans-serif" font-size="11" lengthAdjust="spacing" textLength="145" x="1106.5" y="971.0049">{data: location, success: true}</text><polygon fill="#181818" points="857.5,999.2578,847.5,1003.2578,857.5,1007.2578" style="stroke:#181818;stroke-width:1.0;"/><line style="stroke:#181818;stroke-width:1.0;" x1="851.5" x2="1083.5" y1="1003.2578" y2="1003.2578"/><text fill="#000000" font-family="sans-serif" font-size="11" lengthAdjust="spacing" textLength="45" x="863.5" y="998.8408">locationId</text><polygon fill="#181818" points="222.5,1027.0938,212.5,1031.0938,222.5,1035.0938" style="stroke:#181818;stroke-width:1.0;"/><line style="stroke:#181818;stroke-width:1.0;" x1="216.5" x2="840.5" y1="1031.0938" y2="1031.0938"/><text fill="#000000" font-family="sans-serif" font-size="11" lengthAdjust="spacing" textLength="45" x="228.5" y="1026.6768">locationId</text><polygon fill="#181818" points="718.5,1054.9297,728.5,1058.9297,718.5,1062.9297" style="stroke:#181818;stroke-width:1.0;"/><line style="stroke:#181818;stroke-width:1.0;" x1="211.5" x2="724.5" y1="1058.9297" y2="1058.9297"/><text fill="#000000" font-family="sans-serif" font-size="11" lengthAdjust="spacing" textLength="83" x="218.5" y="1054.5127">postEvent(event)</text><polygon fill="#181818" points="989.5,1082.7656,999.5,1086.7656,989.5,1090.7656" style="stroke:#181818;stroke-width:1.0;"/><line style="stroke:#181818;stroke-width:1.0;" x1="740.5" x2="995.5" y1="1086.7656" y2="1086.7656"/><text fill="#000000" font-family="sans-serif" font-size="11" lengthAdjust="spacing" textLength="93" x="747.5" y="1082.3486">createEvent(event)</text><polygon fill="#181818" points="1246.5,1110.6016,1256.5,1114.6016,1246.5,1118.6016" style="stroke:#181818;stroke-width:1.0;"/><line style="stroke:#181818;stroke-width:1.0;" x1="1011.5" x2="1252.5" y1="1114.6016" y2="1114.6016"/><text fill="#000000" font-family="sans-serif" font-size="11" lengthAdjust="spacing" textLength="83" x="1018.5" y="1110.1846">POST /api/events</text><polygon fill="#181818" points="1354.5,1138.4375,1364.5,1142.4375,1354.5,1146.4375" style="stroke:#181818;stroke-width:1.0;"/><line style="stroke:#181818;stroke-width:1.0;" x1="1268.5" x2="1360.5" y1="1142.4375" y2="1142.4375"/><text fill="#000000" font-family="sans-serif" font-size="11" lengthAdjust="spacing" textLength="69" x="1275.5" y="1138.0205">event.create()</text><polygon fill="#181818" points="1490.5,1166.2734,1500.5,1170.2734,1490.5,1174.2734" style="stroke:#181818;stroke-width:1.0;"/><line style="stroke:#181818;stroke-width:1.0;" x1="1376.5" x2="1496.5" y1="1170.2734" y2="1170.2734"/><text fill="#000000" font-family="sans-serif" font-size="11" lengthAdjust="spacing" textLength="97" x="1383.5" y="1165.8564">INSERT INTO events</text><path d="M10,1185.2734 L68,1185.2734 L68,1191.1094 L58,1201.1094 L10,1201.1094 L10,1185.2734 " fill="#EEEEEE" style="stroke:#000000;stroke-width:1.5;"/><rect fill="none" height="365.7031" style="stroke:#000000;stroke-width:1.5;" width="1536" x="10" y="1185.2734"/><text fill="#000000" font-family="sans-serif" font-size="11" font-weight="bold" lengthAdjust="spacing" textLength="13" x="25" y="1197.6924">alt</text><text fill="#000000" font-family="sans-serif" font-size="11" font-weight="bold" lengthAdjust="spacing" textLength="98" x="83" y="1198.6924">[Successful case]</text><polygon fill="#181818" points="1387.5,1216.9453,1377.5,1220.9453,1387.5,1224.9453" style="stroke:#181818;stroke-width:1.0;"/><line style="stroke:#181818;stroke-width:1.0;" x1="1381.5" x2="1501.5" y1="1220.9453" y2="1220.9453"/><text fill="#000000" font-family="sans-serif" font-size="11" lengthAdjust="spacing" textLength="27" x="1393.5" y="1216.5283">event</text><polygon fill="#181818" points="1279.5,1244.7813,1269.5,1248.7813,1279.5,1252.7813" style="stroke:#181818;stroke-width:1.0;"/><line style="stroke:#181818;stroke-width:1.0;" x1="1273.5" x2="1365.5" y1="1248.7813" y2="1248.7813"/><text fill="#000000" font-family="sans-serif" font-size="11" lengthAdjust="spacing" textLength="27" x="1285.5" y="1244.3643">event</text><polygon fill="#181818" points="1022.5,1272.6172,1012.5,1276.6172,1022.5,1280.6172" style="stroke:#181818;stroke-width:1.0;"/><line style="stroke:#181818;stroke-width:1.0;" x1="1016.5" x2="1257.5" y1="1276.6172" y2="1276.6172"/><text fill="#000000" font-family="sans-serif" font-size="11" lengthAdjust="spacing" textLength="135" x="1028.5" y="1272.2002">{data: event, success: true}</text><polygon fill="#181818" points="751.5,1300.4531,741.5,1304.4531,751.5,1308.4531" style="stroke:#181818;stroke-width:1.0;"/><line style="stroke:#181818;stroke-width:1.0;" x1="745.5" x2="1000.5" y1="1304.4531" y2="1304.4531"/><text fill="#000000" font-family="sans-serif" font-size="11" lengthAdjust="spacing" textLength="27" x="757.5" y="1300.0361">event</text><polygon fill="#181818" points="222.5,1328.2891,212.5,1332.2891,222.5,1336.2891" style="stroke:#181818;stroke-width:1.0;"/><line style="stroke:#181818;stroke-width:1.0;" x1="216.5" x2="729.5" y1="1332.2891" y2="1332.2891"/><text fill="#000000" font-family="sans-serif" font-size="11" lengthAdjust="spacing" textLength="27" x="228.5" y="1327.8721">event</text><polygon fill="#181818" points="67.5,1356.125,57.5,1360.125,67.5,1364.125" style="stroke:#181818;stroke-width:1.0;"/><line style="stroke:#181818;stroke-width:1.0;" x1="61.5" x2="200.5" y1="1360.125" y2="1360.125"/><text fill="#000000" font-family="sans-serif" font-size="11" lengthAdjust="spacing" textLength="121" x="73.5" y="1355.708">Show success message</text><line style="stroke:#000000;stroke-width:1.0;stroke-dasharray:2.0,2.0;" x1="10" x2="1546" y1="1369.125" y2="1369.125"/><text fill="#000000" font-family="sans-serif" font-size="11" font-weight="bold" lengthAdjust="spacing" textLength="69" x="15" y="1380.5439">[Failed case]</text><polygon fill="#181818" points="1387.5,1399.7969,1377.5,1403.7969,1387.5,1407.7969" style="stroke:#181818;stroke-width:1.0;"/><line style="stroke:#181818;stroke-width:1.0;" x1="1381.5" x2="1506.5" y1="1403.7969" y2="1403.7969"/><text fill="#000000" font-family="sans-serif" font-size="11" lengthAdjust="spacing" textLength="24" x="1393.5" y="1399.3799">error</text><polygon fill="#181818" points="1279.5,1427.6328,1269.5,1431.6328,1279.5,1435.6328" style="stroke:#181818;stroke-width:1.0;"/><line style="stroke:#181818;stroke-width:1.0;" x1="1273.5" x2="1370.5" y1="1431.6328" y2="1431.6328"/><text fill="#000000" font-family="sans-serif" font-size="11" lengthAdjust="spacing" textLength="24" x="1285.5" y="1427.2158">error</text><polygon fill="#181818" points="1022.5,1455.4688,1012.5,1459.4688,1022.5,1463.4688" style="stroke:#181818;stroke-width:1.0;"/><line style="stroke:#181818;stroke-width:1.0;" x1="1016.5" x2="1262.5" y1="1459.4688" y2="1459.4688"/><text fill="#000000" font-family="sans-serif" font-size="11" lengthAdjust="spacing" textLength="216" x="1028.5" y="1455.0518">status(500) {error: "FAILED to create event"}</text><polygon fill="#181818" points="751.5,1483.3047,741.5,1487.3047,751.5,1491.3047" style="stroke:#181818;stroke-width:1.0;"/><line style="stroke:#181818;stroke-width:1.0;" x1="745.5" x2="1005.5" y1="1487.3047" y2="1487.3047"/><text fill="#000000" font-family="sans-serif" font-size="11" lengthAdjust="spacing" textLength="24" x="757.5" y="1482.8877">error</text><polygon fill="#181818" points="222.5,1511.1406,212.5,1515.1406,222.5,1519.1406" style="stroke:#181818;stroke-width:1.0;"/><line style="stroke:#181818;stroke-width:1.0;" x1="216.5" x2="734.5" y1="1515.1406" y2="1515.1406"/><text fill="#000000" font-family="sans-serif" font-size="11" lengthAdjust="spacing" textLength="24" x="228.5" y="1510.7236">error</text><polygon fill="#181818" points="67.5,1538.9766,57.5,1542.9766,67.5,1546.9766" style="stroke:#181818;stroke-width:1.0;"/><line style="stroke:#181818;stroke-width:1.0;" x1="61.5" x2="200.5" y1="1542.9766" y2="1542.9766"/><text fill="#000000" font-family="sans-serif" font-size="11" lengthAdjust="spacing" textLength="103" x="73.5" y="1538.5596">Show error message</text><!--SRC=[fLV1RXCn4BtxAwnUQAL2uS0bgYf58OML28sQ577WOjOcjUgi5zlR4jh-EsFlRjRsUibMS0ZDUDxpUEPvnj5tl2Y98bkipKum-5GyDzLM8BrVeUmdgOIvb8LPyJyCltldBMh359DcLxAbrDnmMM0ZIuH8RgJ2HzFAtBB2y9mOHhyNDvgf8qmq3kpMYj0FMHMKg1s0A9tVm-fNpXvgRy-0py_nUlKDNrmWb4D8IWfyL6ashIYNrooNYZPxn4QBd5NQo2t-9EMTjXG-GxOb6xRa-Ls7zqo7q8jAypn4UwP3w5cb51pmiuI4G0vRXiYSOkbesYpDQeDeKzqpTv2ME8BqpHtaaWiMkOScX6nX3TJHRRkGb0ddrdtTUxGRTKw11I4G6OY4bwGmmFUxL4p3YPPPVR9bPZDoFL-jRIO2twNYUalmJ73OotcNjGK0LzSBwq-98J-8PhYKsco0-PTmkkNt8Cf0SwWdL_pw8bJb17Eh5OG2AtX5AffWMR9YHhPCaUCJ_FJaldyaDdExuvDk_n278fg1xMyKHvGDSOmw1XH6i56UbEbSyT9MQvm_h8ror0OggQTcb3Chw5XNkxQHQZVAUMilB-X166pJXzrbTb976FuboknVzmakuGzdiH0eh0NvXV6ytLf4C12G9RD5jeYmq3uV4w3gkkrXrmA7GWxxOvFv-ZilDece0q0RTyZIZvpOzU78GqwevpYXYgPJ9AzSt3Wd-9OKLCJswC95goX1z8yumbF5NAFEL0VP6Y6wtjd2NWkGgXIIK2UojWMSEgyrpEGtsMBwSUuTCchL4TjWLn7-uU9s_v8GVH5xOIvkLjdiFy9qj0V2HA_smmNtOkvFFAjRIlT2QQli1PcOaWaQZzpDDDk750Fy6Efc2eO4zlWm-IPuUGM3xuoK_AobqDxyMcR8ke5tC_awgRwf8_3LN_kWnjM2zaCHWDcNrVnw3V-jht1YBs-0Uh3KpXdrI-JZzXlNPqlTgYR6vbHnLX_jFE-0frXNUGxF1HXfgcBFFf7DJJ-fIGsa0m_hawxwG9j84qL2TS2UIFilEJjd88Trjs3sywJ_WadTrJ3KxcMsLsUQqdl28G-KKAH37f2Zy_alBSQx12yvcDohMW8_Am73NzUJUq2XZWhL7f4MlQNc24726k4vhvxg72fALQgC_Xx96iNFdhx_NYQzGJF1grlvq8Q6j_1XtwhkcN19e4_Im-bHIgfuU7lfJkOjYQcBEvHCU86OIX-_V_ls13ywWWdyvfXcd-SVu8Tb8yxwz4VFCRSLsTXyfsBpv3s-42cYnDLxKQKSQLUd8kWPmI-Jlm00]--></g></svg>