<?xml version="1.0" encoding="us-ascii" standalone="no"?><svg xmlns="http://www.w3.org/2000/svg" xmlns:xlink="http://www.w3.org/1999/xlink" contentStyleType="text/css" height="1686px" preserveAspectRatio="none" style="width:1644px;height:1686px;background:#FFFFFF;" version="1.1" viewBox="0 0 1644 1686" width="1644px" zoomAndPan="magnify"><defs/><g><rect fill="#FFFFFF" height="1566.6484" style="stroke:#181818;stroke-width:1.0;" width="10" x="201.5" y="102.6719"/><rect fill="#FFFFFF" height="27.8359" style="stroke:#181818;stroke-width:1.0;" width="10" x="309.5" y="495.2109"/><rect fill="#FFFFFF" height="27.8359" style="stroke:#181818;stroke-width:1.0;" width="10" x="413.5" y="150.3438"/><rect fill="#FFFFFF" height="27.8359" style="stroke:#181818;stroke-width:1.0;" width="10" x="514.5" y="423.7031"/><rect fill="#FFFFFF" height="27.8359" style="stroke:#181818;stroke-width:1.0;" width="10" x="620.5" y="585.7188"/><rect fill="#FFFFFF" height="27.8359" style="stroke:#181818;stroke-width:1.0;" width="10" x="721.5" y="697.0625"/><rect fill="#FFFFFF" height="27.8359" style="stroke:#181818;stroke-width:1.0;" width="10" x="721.5" y="808.4063"/><rect fill="#FFFFFF" height="456.2109" style="stroke:#181818;stroke-width:1.0;" width="10" x="821.5" y="1170.2734"/><rect fill="#FFFFFF" height="250.5234" style="stroke:#181818;stroke-width:1.0;" width="10" x="927.5" y="891.9141"/><rect fill="#FFFFFF" height="83.5078" style="stroke:#181818;stroke-width:1.0;" width="10" x="1018" y="669.2266"/><rect fill="#FFFFFF" height="83.5078" style="stroke:#181818;stroke-width:1.0;" width="10" x="1018" y="780.5703"/><rect fill="#FFFFFF" height="400.5391" style="stroke:#181818;stroke-width:1.0;" width="10" x="1092.5" y="1198.1094"/><rect fill="#FFFFFF" height="194.8516" style="stroke:#181818;stroke-width:1.0;" width="10" x="1170.5" y="919.75"/><rect fill="#FFFFFF" height="139.1797" style="stroke:#181818;stroke-width:1.0;" width="10" x="1349.5" y="947.5859"/><rect fill="#FFFFFF" height="344.8672" style="stroke:#181818;stroke-width:1.0;" width="10" x="1349.5" y="1225.9453"/><rect fill="#FFFFFF" height="83.5078" style="stroke:#181818;stroke-width:1.0;" width="10" x="1457.5" y="975.4219"/><rect fill="#FFFFFF" height="289.1953" style="stroke:#181818;stroke-width:1.0;" width="10" x="1457.5" y="1253.7813"/><rect fill="#FFFFFF" height="27.8359" style="stroke:#181818;stroke-width:1.0;" width="10" x="1593.5" y="1003.2578"/><rect fill="#FFFFFF" height="233.5234" style="stroke:#181818;stroke-width:1.0;" width="10" x="1593.5" y="1281.6172"/><rect fill="none" height="143.0156" style="stroke:#000000;stroke-width:1.5;" width="418" x="157" y="388.0313"/><rect fill="none" height="365.7031" style="stroke:#000000;stroke-width:1.5;" width="1627" x="10" y="1296.6172"/><line style="stroke:#181818;stroke-width:0.5;stroke-dasharray:5.0,5.0;" x1="56" x2="56" y1="92.6719" y2="1679.3203"/><line style="stroke:#181818;stroke-width:0.5;stroke-dasharray:5.0,5.0;" x1="206" x2="206" y1="92.6719" y2="1679.3203"/><line style="stroke:#181818;stroke-width:0.5;stroke-dasharray:5.0,5.0;" x1="314" x2="314" y1="92.6719" y2="1679.3203"/><line style="stroke:#181818;stroke-width:0.5;stroke-dasharray:5.0,5.0;" x1="418" x2="418" y1="92.6719" y2="1679.3203"/><line style="stroke:#181818;stroke-width:0.5;stroke-dasharray:5.0,5.0;" x1="519" x2="519" y1="92.6719" y2="1679.3203"/><line style="stroke:#181818;stroke-width:0.5;stroke-dasharray:5.0,5.0;" x1="625" x2="625" y1="92.6719" y2="1679.3203"/><line style="stroke:#181818;stroke-width:0.5;stroke-dasharray:5.0,5.0;" x1="726" x2="726" y1="92.6719" y2="1679.3203"/><line style="stroke:#181818;stroke-width:0.5;stroke-dasharray:5.0,5.0;" x1="826" x2="826" y1="92.6719" y2="1679.3203"/><line style="stroke:#181818;stroke-width:0.5;stroke-dasharray:5.0,5.0;" x1="932" x2="932" y1="92.6719" y2="1679.3203"/><line style="stroke:#181818;stroke-width:0.5;stroke-dasharray:5.0,5.0;" x1="1023" x2="1023" y1="92.6719" y2="1679.3203"/><line style="stroke:#181818;stroke-width:0.5;stroke-dasharray:5.0,5.0;" x1="1097" x2="1097" y1="92.6719" y2="1679.3203"/><line style="stroke:#181818;stroke-width:0.5;stroke-dasharray:5.0,5.0;" x1="1175" x2="1175" y1="92.6719" y2="1679.3203"/><line style="stroke:#181818;stroke-width:0.5;stroke-dasharray:5.0,5.0;" x1="1354" x2="1354" y1="92.6719" y2="1679.3203"/><line style="stroke:#181818;stroke-width:0.5;stroke-dasharray:5.0,5.0;" x1="1462" x2="1462" y1="92.6719" y2="1679.3203"/><line style="stroke:#181818;stroke-width:0.5;stroke-dasharray:5.0,5.0;" x1="1598" x2="1598" y1="92.6719" y2="1679.3203"/><text fill="#000000" font-family="sans-serif" font-size="11" lengthAdjust="spacing" textLength="67" x="20" y="76.4189">Authenticated</text><text fill="#000000" font-family="sans-serif" font-size="11" lengthAdjust="spacing" textLength="23" x="42" y="90.2549">User</text><ellipse cx="56.5" cy="13.5" fill="#E2E2F0" rx="8" ry="8" style="stroke:#181818;stroke-width:0.5;"/><path d="M56.5,21.5 L56.5,48.5 M43.5,29.5 L69.5,29.5 M56.5,48.5 L43.5,63.5 M56.5,48.5 L69.5,63.5 " fill="none" style="stroke:#181818;stroke-width:0.5;"/><text fill="#000000" font-family="sans-serif" font-size="11" font-style="italic" lengthAdjust="spacing" textLength="33" x="187" y="76.4189">&#171;TSX&#187;</text><text fill="#000000" font-family="sans-serif" font-size="11" lengthAdjust="spacing" textLength="73" x="167" y="90.2549">AddEventView</text><path d="M186,37 L186,61 M186,49 L203,49 " fill="none" style="stroke:#181818;stroke-width:0.5;"/><ellipse cx="215" cy="49" fill="#E2E2F0" rx="12" ry="12" style="stroke:#181818;stroke-width:0.5;"/><text fill="#000000" font-family="sans-serif" font-size="11" font-style="italic" lengthAdjust="spacing" textLength="85" x="269" y="76.4189">&#171;Custom Hooks&#187;</text><text fill="#000000" font-family="sans-serif" font-size="11" lengthAdjust="spacing" textLength="91" x="266" y="90.2549">useAudioRecorder</text><ellipse cx="314.5" cy="49" fill="#E2E2F0" rx="12" ry="12" style="stroke:#181818;stroke-width:0.5;"/><polygon fill="#181818" points="310.5,37,316.5,32,314.5,37,316.5,42,310.5,37" style="stroke:#181818;stroke-width:1.0;"/><text fill="#000000" font-family="sans-serif" font-size="11" font-style="italic" lengthAdjust="spacing" textLength="85" x="373" y="76.4189">&#171;Custom Hooks&#187;</text><text fill="#000000" font-family="sans-serif" font-size="11" lengthAdjust="spacing" textLength="75" x="378" y="90.2549">useImagePicker</text><ellipse cx="418.5" cy="49" fill="#E2E2F0" rx="12" ry="12" style="stroke:#181818;stroke-width:0.5;"/><polygon fill="#181818" points="414.5,37,420.5,32,418.5,37,420.5,42,414.5,37" style="stroke:#181818;stroke-width:1.0;"/><text fill="#000000" font-family="sans-serif" font-size="11" font-style="italic" lengthAdjust="spacing" textLength="85" x="474" y="76.4189">&#171;Custom Hooks&#187;</text><text fill="#000000" font-family="sans-serif" font-size="11" lengthAdjust="spacing" textLength="75" x="479" y="90.2549">useMusicPicker</text><ellipse cx="519.5" cy="49" fill="#E2E2F0" rx="12" ry="12" style="stroke:#181818;stroke-width:0.5;"/><polygon fill="#181818" points="515.5,37,521.5,32,519.5,37,521.5,42,515.5,37" style="stroke:#181818;stroke-width:1.0;"/><text fill="#000000" font-family="sans-serif" font-size="11" font-style="italic" lengthAdjust="spacing" textLength="85" x="580" y="76.4189">&#171;Custom Hooks&#187;</text><text fill="#000000" font-family="sans-serif" font-size="11" lengthAdjust="spacing" textLength="95" x="575" y="90.2549">useCurrentLocation</text><ellipse cx="625.5" cy="49" fill="#E2E2F0" rx="12" ry="12" style="stroke:#181818;stroke-width:0.5;"/><polygon fill="#181818" points="621.5,37,627.5,32,625.5,37,627.5,42,621.5,37" style="stroke:#181818;stroke-width:1.0;"/><text fill="#000000" font-family="sans-serif" font-size="11" lengthAdjust="spacing" textLength="75" x="686" y="90.2549">SupabaseClient</text><ellipse cx="726.5" cy="62.8359" fill="#E2E2F0" rx="12" ry="12" style="stroke:#181818;stroke-width:0.5;"/><polygon fill="#181818" points="722.5,50.8359,728.5,45.8359,726.5,50.8359,728.5,55.8359,722.5,50.8359" style="stroke:#181818;stroke-width:1.0;"/><text fill="#000000" font-family="sans-serif" font-size="11" lengthAdjust="spacing" textLength="93" x="777" y="90.2549">AddEventController</text><ellipse cx="826.5" cy="62.8359" fill="#E2E2F0" rx="12" ry="12" style="stroke:#181818;stroke-width:0.5;"/><polygon fill="#181818" points="822.5,50.8359,828.5,45.8359,826.5,50.8359,828.5,55.8359,822.5,50.8359" style="stroke:#181818;stroke-width:1.0;"/><text fill="#000000" font-family="sans-serif" font-size="11" lengthAdjust="spacing" textLength="87" x="886" y="90.2549">LocationController</text><ellipse cx="932.5" cy="62.8359" fill="#E2E2F0" rx="12" ry="12" style="stroke:#181818;stroke-width:0.5;"/><polygon fill="#181818" points="928.5,50.8359,934.5,45.8359,932.5,50.8359,934.5,55.8359,928.5,50.8359" style="stroke:#181818;stroke-width:1.0;"/><text fill="#000000" font-family="sans-serif" font-size="11" lengthAdjust="spacing" textLength="62" x="989" y="90.2549">FileController</text><ellipse cx="1023" cy="62.8359" fill="#E2E2F0" rx="12" ry="12" style="stroke:#181818;stroke-width:0.5;"/><polygon fill="#181818" points="1019,50.8359,1025,45.8359,1023,50.8359,1025,55.8359,1019,50.8359" style="stroke:#181818;stroke-width:1.0;"/><text fill="#000000" font-family="sans-serif" font-size="11" lengthAdjust="spacing" textLength="55" x="1067" y="90.2549">EventModel</text><ellipse cx="1097.5" cy="62.8359" fill="#E2E2F0" rx="12" ry="12" style="stroke:#181818;stroke-width:0.5;"/><line style="stroke:#181818;stroke-width:0.5;" x1="1085.5" x2="1109.5" y1="76.8359" y2="76.8359"/><text fill="#000000" font-family="sans-serif" font-size="11" lengthAdjust="spacing" textLength="69" x="1138" y="90.2549">LocationModel</text><ellipse cx="1175.5" cy="62.8359" fill="#E2E2F0" rx="12" ry="12" style="stroke:#181818;stroke-width:0.5;"/><line style="stroke:#181818;stroke-width:0.5;" x1="1163.5" x2="1187.5" y1="76.8359" y2="76.8359"/><rect fill="#E2E2F0" height="41.6719" rx="2.5" ry="2.5" style="stroke:#181818;stroke-width:0.5;" width="73" x="1318" y="50"/><text fill="#000000" font-family="sans-serif" font-size="11" font-style="italic" lengthAdjust="spacing" textLength="41" x="1334" y="68.4189">&#171;REST&#187;</text><text fill="#000000" font-family="sans-serif" font-size="11" lengthAdjust="spacing" textLength="59" x="1325" y="82.2549">Express API</text><rect fill="#E2E2F0" height="41.6719" rx="2.5" ry="2.5" style="stroke:#181818;stroke-width:0.5;" width="75" x="1425" y="50"/><text fill="#000000" font-family="sans-serif" font-size="11" font-style="italic" lengthAdjust="spacing" textLength="38" x="1443.5" y="68.4189">&#171;ORM&#187;</text><text fill="#000000" font-family="sans-serif" font-size="11" lengthAdjust="spacing" textLength="61" x="1432" y="82.2549">Prisma Client</text><text fill="#000000" font-family="sans-serif" font-size="11" lengthAdjust="spacing" textLength="51" x="1570" y="90.2549">postgresql</text><path d="M1580.5,42.8359 C1580.5,32.8359 1598.5,32.8359 1598.5,32.8359 C1598.5,32.8359 1616.5,32.8359 1616.5,42.8359 L1616.5,68.8359 C1616.5,78.8359 1598.5,78.8359 1598.5,78.8359 C1598.5,78.8359 1580.5,78.8359 1580.5,68.8359 L1580.5,42.8359 " fill="#E2E2F0" style="stroke:#181818;stroke-width:1.5;"/><path d="M1580.5,42.8359 C1580.5,52.8359 1598.5,52.8359 1598.5,52.8359 C1598.5,52.8359 1616.5,52.8359 1616.5,42.8359 " fill="none" style="stroke:#181818;stroke-width:1.5;"/><rect fill="#FFFFFF" height="1566.6484" style="stroke:#181818;stroke-width:1.0;" width="10" x="201.5" y="102.6719"/><rect fill="#FFFFFF" height="27.8359" style="stroke:#181818;stroke-width:1.0;" width="10" x="309.5" y="495.2109"/><rect fill="#FFFFFF" height="27.8359" style="stroke:#181818;stroke-width:1.0;" width="10" x="413.5" y="150.3438"/><rect fill="#FFFFFF" height="27.8359" style="stroke:#181818;stroke-width:1.0;" width="10" x="514.5" y="423.7031"/><rect fill="#FFFFFF" height="27.8359" style="stroke:#181818;stroke-width:1.0;" width="10" x="620.5" y="585.7188"/><rect fill="#FFFFFF" height="27.8359" style="stroke:#181818;stroke-width:1.0;" width="10" x="721.5" y="697.0625"/><rect fill="#FFFFFF" height="27.8359" style="stroke:#181818;stroke-width:1.0;" width="10" x="721.5" y="808.4063"/><rect fill="#FFFFFF" height="456.2109" style="stroke:#181818;stroke-width:1.0;" width="10" x="821.5" y="1170.2734"/><rect fill="#FFFFFF" height="250.5234" style="stroke:#181818;stroke-width:1.0;" width="10" x="927.5" y="891.9141"/><rect fill="#FFFFFF" height="83.5078" style="stroke:#181818;stroke-width:1.0;" width="10" x="1018" y="669.2266"/><rect fill="#FFFFFF" height="83.5078" style="stroke:#181818;stroke-width:1.0;" width="10" x="1018" y="780.5703"/><rect fill="#FFFFFF" height="400.5391" style="stroke:#181818;stroke-width:1.0;" width="10" x="1092.5" y="1198.1094"/><rect fill="#FFFFFF" height="194.8516" style="stroke:#181818;stroke-width:1.0;" width="10" x="1170.5" y="919.75"/><rect fill="#FFFFFF" height="139.1797" style="stroke:#181818;stroke-width:1.0;" width="10" x="1349.5" y="947.5859"/><rect fill="#FFFFFF" height="344.8672" style="stroke:#181818;stroke-width:1.0;" width="10" x="1349.5" y="1225.9453"/><rect fill="#FFFFFF" height="83.5078" style="stroke:#181818;stroke-width:1.0;" width="10" x="1457.5" y="975.4219"/><rect fill="#FFFFFF" height="289.1953" style="stroke:#181818;stroke-width:1.0;" width="10" x="1457.5" y="1253.7813"/><rect fill="#FFFFFF" height="27.8359" style="stroke:#181818;stroke-width:1.0;" width="10" x="1593.5" y="1003.2578"/><rect fill="#FFFFFF" height="233.5234" style="stroke:#181818;stroke-width:1.0;" width="10" x="1593.5" y="1281.6172"/><polygon fill="#181818" points="189.5,118.5078,199.5,122.5078,189.5,126.5078" style="stroke:#181818;stroke-width:1.0;"/><line style="stroke:#181818;stroke-width:1.0;" x1="56.5" x2="195.5" y1="122.5078" y2="122.5078"/><text fill="#000000" font-family="sans-serif" font-size="11" lengthAdjust="spacing" textLength="28" x="63.5" y="118.0908">image</text><polygon fill="#181818" points="401.5,146.3438,411.5,150.3438,401.5,154.3438" style="stroke:#181818;stroke-width:1.0;"/><line style="stroke:#181818;stroke-width:1.0;" x1="211.5" x2="407.5" y1="150.3438" y2="150.3438"/><text fill="#000000" font-family="sans-serif" font-size="11" lengthAdjust="spacing" textLength="145" x="218.5" y="145.9268">openCamera() || openGallery()</text><polygon fill="#181818" points="222.5,174.1797,212.5,178.1797,222.5,182.1797" style="stroke:#181818;stroke-width:1.0;"/><line style="stroke:#181818;stroke-width:1.0;" x1="216.5" x2="417.5" y1="178.1797" y2="178.1797"/><text fill="#000000" font-family="sans-serif" font-size="11" lengthAdjust="spacing" textLength="41" x="228.5" y="173.7627">imageUri</text><polygon fill="#181818" points="189.5,202.0156,199.5,206.0156,189.5,210.0156" style="stroke:#181818;stroke-width:1.0;"/><line style="stroke:#181818;stroke-width:1.0;" x1="56.5" x2="195.5" y1="206.0156" y2="206.0156"/><text fill="#000000" font-family="sans-serif" font-size="11" lengthAdjust="spacing" textLength="16" x="63.5" y="201.5986">title</text><polygon fill="#181818" points="189.5,229.8516,199.5,233.8516,189.5,237.8516" style="stroke:#181818;stroke-width:1.0;"/><line style="stroke:#181818;stroke-width:1.0;" x1="56.5" x2="195.5" y1="233.8516" y2="233.8516"/><text fill="#000000" font-family="sans-serif" font-size="11" lengthAdjust="spacing" textLength="53" x="63.5" y="229.4346">description</text><polygon fill="#181818" points="189.5,257.6875,199.5,261.6875,189.5,265.6875" style="stroke:#181818;stroke-width:1.0;"/><line style="stroke:#181818;stroke-width:1.0;" x1="56.5" x2="195.5" y1="261.6875" y2="261.6875"/><text fill="#000000" font-family="sans-serif" font-size="11" lengthAdjust="spacing" textLength="21" x="63.5" y="257.2705">date</text><polygon fill="#181818" points="189.5,285.5234,199.5,289.5234,189.5,293.5234" style="stroke:#181818;stroke-width:1.0;"/><line style="stroke:#181818;stroke-width:1.0;" x1="56.5" x2="195.5" y1="289.5234" y2="289.5234"/><text fill="#000000" font-family="sans-serif" font-size="11" lengthAdjust="spacing" textLength="39" x="63.5" y="285.1064">startsAt</text><polygon fill="#181818" points="189.5,313.3594,199.5,317.3594,189.5,321.3594" style="stroke:#181818;stroke-width:1.0;"/><line style="stroke:#181818;stroke-width:1.0;" x1="56.5" x2="195.5" y1="317.3594" y2="317.3594"/><text fill="#000000" font-family="sans-serif" font-size="11" lengthAdjust="spacing" textLength="35" x="63.5" y="312.9424">endsAt</text><polygon fill="#181818" points="189.5,341.1953,199.5,345.1953,189.5,349.1953" style="stroke:#181818;stroke-width:1.0;"/><line style="stroke:#181818;stroke-width:1.0;" x1="56.5" x2="195.5" y1="345.1953" y2="345.1953"/><text fill="#000000" font-family="sans-serif" font-size="11" lengthAdjust="spacing" textLength="43" x="63.5" y="340.7783">category</text><polygon fill="#181818" points="189.5,369.0313,199.5,373.0313,189.5,377.0313" style="stroke:#181818;stroke-width:1.0;"/><line style="stroke:#181818;stroke-width:1.0;" x1="56.5" x2="195.5" y1="373.0313" y2="373.0313"/><text fill="#000000" font-family="sans-serif" font-size="11" lengthAdjust="spacing" textLength="28" x="63.5" y="368.6143">music</text><path d="M157,388.0313 L215,388.0313 L215,393.8672 L205,403.8672 L157,403.8672 L157,388.0313 " fill="#EEEEEE" style="stroke:#000000;stroke-width:1.5;"/><rect fill="none" height="143.0156" style="stroke:#000000;stroke-width:1.5;" width="418" x="157" y="388.0313"/><text fill="#000000" font-family="sans-serif" font-size="11" font-weight="bold" lengthAdjust="spacing" textLength="13" x="172" y="400.4502">alt</text><text fill="#000000" font-family="sans-serif" font-size="11" font-weight="bold" lengthAdjust="spacing" textLength="89" x="230" y="401.4502">[Pick Music File]</text><polygon fill="#181818" points="502.5,419.7031,512.5,423.7031,502.5,427.7031" style="stroke:#181818;stroke-width:1.0;"/><line style="stroke:#181818;stroke-width:1.0;" x1="211.5" x2="508.5" y1="423.7031" y2="423.7031"/><text fill="#000000" font-family="sans-serif" font-size="11" lengthAdjust="spacing" textLength="71" x="218.5" y="419.2861">pickMusicFile()</text><polygon fill="#181818" points="222.5,447.5391,212.5,451.5391,222.5,455.5391" style="stroke:#181818;stroke-width:1.0;"/><line style="stroke:#181818;stroke-width:1.0;" x1="216.5" x2="518.5" y1="451.5391" y2="451.5391"/><text fill="#000000" font-family="sans-serif" font-size="11" lengthAdjust="spacing" textLength="57" x="228.5" y="447.1221">musicFileUri</text><line style="stroke:#000000;stroke-width:1.0;stroke-dasharray:2.0,2.0;" x1="157" x2="575" y1="460.5391" y2="460.5391"/><text fill="#000000" font-family="sans-serif" font-size="11" font-weight="bold" lengthAdjust="spacing" textLength="82" x="162" y="471.958">[Record Audio]</text><polygon fill="#181818" points="297.5,491.2109,307.5,495.2109,297.5,499.2109" style="stroke:#181818;stroke-width:1.0;"/><line style="stroke:#181818;stroke-width:1.0;" x1="211.5" x2="303.5" y1="495.2109" y2="495.2109"/><text fill="#000000" font-family="sans-serif" font-size="11" lengthAdjust="spacing" textLength="79" x="218.5" y="490.7939">startRecording()</text><polygon fill="#181818" points="222.5,519.0469,212.5,523.0469,222.5,527.0469" style="stroke:#181818;stroke-width:1.0;"/><line style="stroke:#181818;stroke-width:1.0;" x1="216.5" x2="313.5" y1="523.0469" y2="523.0469"/><text fill="#000000" font-family="sans-serif" font-size="11" lengthAdjust="spacing" textLength="55" x="228.5" y="518.6299">audioFileUri</text><polygon fill="#181818" points="189.5,553.8828,199.5,557.8828,189.5,561.8828" style="stroke:#181818;stroke-width:1.0;"/><line style="stroke:#181818;stroke-width:1.0;" x1="56.5" x2="195.5" y1="557.8828" y2="557.8828"/><text fill="#000000" font-family="sans-serif" font-size="11" lengthAdjust="spacing" textLength="37" x="63.5" y="553.4658">location</text><polygon fill="#181818" points="608.5,581.7188,618.5,585.7188,608.5,589.7188" style="stroke:#181818;stroke-width:1.0;"/><line style="stroke:#181818;stroke-width:1.0;" x1="211.5" x2="614.5" y1="585.7188" y2="585.7188"/><text fill="#000000" font-family="sans-serif" font-size="11" lengthAdjust="spacing" textLength="117" x="218.5" y="581.3018">handleCurrentLocation()</text><polygon fill="#181818" points="222.5,609.5547,212.5,613.5547,222.5,617.5547" style="stroke:#181818;stroke-width:1.0;"/><line style="stroke:#181818;stroke-width:1.0;" x1="216.5" x2="624.5" y1="613.5547" y2="613.5547"/><text fill="#000000" font-family="sans-serif" font-size="11" lengthAdjust="spacing" textLength="37" x="228.5" y="609.1377">location</text><polygon fill="#181818" points="189.5,637.3906,199.5,641.3906,189.5,645.3906" style="stroke:#181818;stroke-width:1.0;"/><line style="stroke:#181818;stroke-width:1.0;" x1="56.5" x2="195.5" y1="641.3906" y2="641.3906"/><text fill="#000000" font-family="sans-serif" font-size="11" lengthAdjust="spacing" textLength="87" x="63.5" y="636.9736">handleAddEvent()</text><polygon fill="#181818" points="1006,665.2266,1016,669.2266,1006,673.2266" style="stroke:#181818;stroke-width:1.0;"/><line style="stroke:#181818;stroke-width:1.0;" x1="211.5" x2="1012" y1="669.2266" y2="669.2266"/><text fill="#000000" font-family="sans-serif" font-size="11" lengthAdjust="spacing" textLength="178" x="218.5" y="664.8096">uploadFile(imageUri, FileType.IMAGE)</text><polygon fill="#181818" points="742.5,693.0625,732.5,697.0625,742.5,701.0625" style="stroke:#181818;stroke-width:1.0;"/><line style="stroke:#181818;stroke-width:1.0;" x1="736.5" x2="1017" y1="697.0625" y2="697.0625"/><text fill="#000000" font-family="sans-serif" font-size="11" lengthAdjust="spacing" textLength="215" x="748.5" y="692.6455">storage.from(EventImages).upload(imageUri)</text><polygon fill="#181818" points="1006,720.8984,1016,724.8984,1006,728.8984" style="stroke:#181818;stroke-width:1.0;"/><line style="stroke:#181818;stroke-width:1.0;" x1="726.5" x2="1012" y1="724.8984" y2="724.8984"/><text fill="#000000" font-family="sans-serif" font-size="11" lengthAdjust="spacing" textLength="69" x="733.5" y="720.4814">publicImageUrl</text><polygon fill="#181818" points="222.5,748.7344,212.5,752.7344,222.5,756.7344" style="stroke:#181818;stroke-width:1.0;"/><line style="stroke:#181818;stroke-width:1.0;" x1="216.5" x2="1022" y1="752.7344" y2="752.7344"/><text fill="#000000" font-family="sans-serif" font-size="11" lengthAdjust="spacing" textLength="41" x="228.5" y="748.3174">imageUrl</text><polygon fill="#181818" points="1006,776.5703,1016,780.5703,1006,784.5703" style="stroke:#181818;stroke-width:1.0;"/><line style="stroke:#181818;stroke-width:1.0;" x1="211.5" x2="1012" y1="780.5703" y2="780.5703"/><text fill="#000000" font-family="sans-serif" font-size="11" lengthAdjust="spacing" textLength="193" x="218.5" y="776.1533">uploadFile(musicFileUri, FileType.MUSIC)</text><polygon fill="#181818" points="742.5,804.4063,732.5,808.4063,742.5,812.4063" style="stroke:#181818;stroke-width:1.0;"/><line style="stroke:#181818;stroke-width:1.0;" x1="736.5" x2="1017" y1="808.4063" y2="808.4063"/><text fill="#000000" font-family="sans-serif" font-size="11" lengthAdjust="spacing" textLength="225" x="748.5" y="803.9893">storage.from(EventMusic).upload(musicFileUri)</text><polygon fill="#181818" points="1006,832.2422,1016,836.2422,1006,840.2422" style="stroke:#181818;stroke-width:1.0;"/><line style="stroke:#181818;stroke-width:1.0;" x1="726.5" x2="1012" y1="836.2422" y2="836.2422"/><text fill="#000000" font-family="sans-serif" font-size="11" lengthAdjust="spacing" textLength="69" x="733.5" y="831.8252">publicMusicUrl</text><polygon fill="#181818" points="222.5,860.0781,212.5,864.0781,222.5,868.0781" style="stroke:#181818;stroke-width:1.0;"/><line style="stroke:#181818;stroke-width:1.0;" x1="216.5" x2="1022" y1="864.0781" y2="864.0781"/><text fill="#000000" font-family="sans-serif" font-size="11" lengthAdjust="spacing" textLength="41" x="228.5" y="859.6611">musicUrl</text><polygon fill="#181818" points="915.5,887.9141,925.5,891.9141,915.5,895.9141" style="stroke:#181818;stroke-width:1.0;"/><line style="stroke:#181818;stroke-width:1.0;" x1="211.5" x2="921.5" y1="891.9141" y2="891.9141"/><text fill="#000000" font-family="sans-serif" font-size="11" lengthAdjust="spacing" textLength="104" x="218.5" y="887.4971">addLocation(location)</text><polygon fill="#181818" points="1158.5,915.75,1168.5,919.75,1158.5,923.75" style="stroke:#181818;stroke-width:1.0;"/><line style="stroke:#181818;stroke-width:1.0;" x1="937.5" x2="1164.5" y1="919.75" y2="919.75"/><text fill="#000000" font-family="sans-serif" font-size="11" lengthAdjust="spacing" textLength="117" x="944.5" y="915.333">createLocation(location)</text><polygon fill="#181818" points="1337.5,943.5859,1347.5,947.5859,1337.5,951.5859" style="stroke:#181818;stroke-width:1.0;"/><line style="stroke:#181818;stroke-width:1.0;" x1="1180.5" x2="1343.5" y1="947.5859" y2="947.5859"/><text fill="#000000" font-family="sans-serif" font-size="11" lengthAdjust="spacing" textLength="93" x="1187.5" y="943.1689">POST /api/locations</text><polygon fill="#181818" points="1445.5,971.4219,1455.5,975.4219,1445.5,979.4219" style="stroke:#181818;stroke-width:1.0;"/><line style="stroke:#181818;stroke-width:1.0;" x1="1359.5" x2="1451.5" y1="975.4219" y2="975.4219"/><text fill="#000000" font-family="sans-serif" font-size="11" lengthAdjust="spacing" textLength="79" x="1366.5" y="971.0049">location.create()</text><polygon fill="#181818" points="1581.5,999.2578,1591.5,1003.2578,1581.5,1007.2578" style="stroke:#181818;stroke-width:1.0;"/><line style="stroke:#181818;stroke-width:1.0;" x1="1467.5" x2="1587.5" y1="1003.2578" y2="1003.2578"/><text fill="#000000" font-family="sans-serif" font-size="11" lengthAdjust="spacing" textLength="107" x="1474.5" y="998.8408">INSERT INTO locations</text><polygon fill="#181818" points="1478.5,1027.0938,1468.5,1031.0938,1478.5,1035.0938" style="stroke:#181818;stroke-width:1.0;"/><line style="stroke:#181818;stroke-width:1.0;" x1="1472.5" x2="1597.5" y1="1031.0938" y2="1031.0938"/><text fill="#000000" font-family="sans-serif" font-size="11" lengthAdjust="spacing" textLength="45" x="1484.5" y="1026.6768">locationId</text><polygon fill="#181818" points="1370.5,1054.9297,1360.5,1058.9297,1370.5,1062.9297" style="stroke:#181818;stroke-width:1.0;"/><line style="stroke:#181818;stroke-width:1.0;" x1="1364.5" x2="1461.5" y1="1058.9297" y2="1058.9297"/><text fill="#000000" font-family="sans-serif" font-size="11" lengthAdjust="spacing" textLength="37" x="1376.5" y="1054.5127">location</text><polygon fill="#181818" points="1191.5,1082.7656,1181.5,1086.7656,1191.5,1090.7656" style="stroke:#181818;stroke-width:1.0;"/><line style="stroke:#181818;stroke-width:1.0;" x1="1185.5" x2="1353.5" y1="1086.7656" y2="1086.7656"/><text fill="#000000" font-family="sans-serif" font-size="11" lengthAdjust="spacing" textLength="145" x="1197.5" y="1082.3486">{data: location, success: true}</text><polygon fill="#181818" points="948.5,1110.6016,938.5,1114.6016,948.5,1118.6016" style="stroke:#181818;stroke-width:1.0;"/><line style="stroke:#181818;stroke-width:1.0;" x1="942.5" x2="1174.5" y1="1114.6016" y2="1114.6016"/><text fill="#000000" font-family="sans-serif" font-size="11" lengthAdjust="spacing" textLength="45" x="954.5" y="1110.1846">locationId</text><polygon fill="#181818" points="222.5,1138.4375,212.5,1142.4375,222.5,1146.4375" style="stroke:#181818;stroke-width:1.0;"/><line style="stroke:#181818;stroke-width:1.0;" x1="216.5" x2="931.5" y1="1142.4375" y2="1142.4375"/><text fill="#000000" font-family="sans-serif" font-size="11" lengthAdjust="spacing" textLength="45" x="228.5" y="1138.0205">locationId</text><polygon fill="#181818" points="809.5,1166.2734,819.5,1170.2734,809.5,1174.2734" style="stroke:#181818;stroke-width:1.0;"/><line style="stroke:#181818;stroke-width:1.0;" x1="211.5" x2="815.5" y1="1170.2734" y2="1170.2734"/><text fill="#000000" font-family="sans-serif" font-size="11" lengthAdjust="spacing" textLength="83" x="218.5" y="1165.8564">postEvent(event)</text><polygon fill="#181818" points="1080.5,1194.1094,1090.5,1198.1094,1080.5,1202.1094" style="stroke:#181818;stroke-width:1.0;"/><line style="stroke:#181818;stroke-width:1.0;" x1="831.5" x2="1086.5" y1="1198.1094" y2="1198.1094"/><text fill="#000000" font-family="sans-serif" font-size="11" lengthAdjust="spacing" textLength="93" x="838.5" y="1193.6924">createEvent(event)</text><polygon fill="#181818" points="1337.5,1221.9453,1347.5,1225.9453,1337.5,1229.9453" style="stroke:#181818;stroke-width:1.0;"/><line style="stroke:#181818;stroke-width:1.0;" x1="1102.5" x2="1343.5" y1="1225.9453" y2="1225.9453"/><text fill="#000000" font-family="sans-serif" font-size="11" lengthAdjust="spacing" textLength="83" x="1109.5" y="1221.5283">POST /api/events</text><polygon fill="#181818" points="1445.5,1249.7813,1455.5,1253.7813,1445.5,1257.7813" style="stroke:#181818;stroke-width:1.0;"/><line style="stroke:#181818;stroke-width:1.0;" x1="1359.5" x2="1451.5" y1="1253.7813" y2="1253.7813"/><text fill="#000000" font-family="sans-serif" font-size="11" lengthAdjust="spacing" textLength="69" x="1366.5" y="1249.3643">event.create()</text><polygon fill="#181818" points="1581.5,1277.6172,1591.5,1281.6172,1581.5,1285.6172" style="stroke:#181818;stroke-width:1.0;"/><line style="stroke:#181818;stroke-width:1.0;" x1="1467.5" x2="1587.5" y1="1281.6172" y2="1281.6172"/><text fill="#000000" font-family="sans-serif" font-size="11" lengthAdjust="spacing" textLength="97" x="1474.5" y="1277.2002">INSERT INTO events</text><path d="M10,1296.6172 L68,1296.6172 L68,1302.4531 L58,1312.4531 L10,1312.4531 L10,1296.6172 " fill="#EEEEEE" style="stroke:#000000;stroke-width:1.5;"/><rect fill="none" height="365.7031" style="stroke:#000000;stroke-width:1.5;" width="1627" x="10" y="1296.6172"/><text fill="#000000" font-family="sans-serif" font-size="11" font-weight="bold" lengthAdjust="spacing" textLength="13" x="25" y="1309.0361">alt</text><text fill="#000000" font-family="sans-serif" font-size="11" font-weight="bold" lengthAdjust="spacing" textLength="98" x="83" y="1310.0361">[Successful case]</text><polygon fill="#181818" points="1478.5,1328.2891,1468.5,1332.2891,1478.5,1336.2891" style="stroke:#181818;stroke-width:1.0;"/><line style="stroke:#181818;stroke-width:1.0;" x1="1472.5" x2="1592.5" y1="1332.2891" y2="1332.2891"/><text fill="#000000" font-family="sans-serif" font-size="11" lengthAdjust="spacing" textLength="27" x="1484.5" y="1327.8721">event</text><polygon fill="#181818" points="1370.5,1356.125,1360.5,1360.125,1370.5,1364.125" style="stroke:#181818;stroke-width:1.0;"/><line style="stroke:#181818;stroke-width:1.0;" x1="1364.5" x2="1456.5" y1="1360.125" y2="1360.125"/><text fill="#000000" font-family="sans-serif" font-size="11" lengthAdjust="spacing" textLength="27" x="1376.5" y="1355.708">event</text><polygon fill="#181818" points="1113.5,1383.9609,1103.5,1387.9609,1113.5,1391.9609" style="stroke:#181818;stroke-width:1.0;"/><line style="stroke:#181818;stroke-width:1.0;" x1="1107.5" x2="1348.5" y1="1387.9609" y2="1387.9609"/><text fill="#000000" font-family="sans-serif" font-size="11" lengthAdjust="spacing" textLength="135" x="1119.5" y="1383.5439">{data: event, success: true}</text><polygon fill="#181818" points="842.5,1411.7969,832.5,1415.7969,842.5,1419.7969" style="stroke:#181818;stroke-width:1.0;"/><line style="stroke:#181818;stroke-width:1.0;" x1="836.5" x2="1091.5" y1="1415.7969" y2="1415.7969"/><text fill="#000000" font-family="sans-serif" font-size="11" lengthAdjust="spacing" textLength="27" x="848.5" y="1411.3799">event</text><polygon fill="#181818" points="222.5,1439.6328,212.5,1443.6328,222.5,1447.6328" style="stroke:#181818;stroke-width:1.0;"/><line style="stroke:#181818;stroke-width:1.0;" x1="216.5" x2="820.5" y1="1443.6328" y2="1443.6328"/><text fill="#000000" font-family="sans-serif" font-size="11" lengthAdjust="spacing" textLength="27" x="228.5" y="1439.2158">event</text><polygon fill="#181818" points="67.5,1467.4688,57.5,1471.4688,67.5,1475.4688" style="stroke:#181818;stroke-width:1.0;"/><line style="stroke:#181818;stroke-width:1.0;" x1="61.5" x2="200.5" y1="1471.4688" y2="1471.4688"/><text fill="#000000" font-family="sans-serif" font-size="11" lengthAdjust="spacing" textLength="121" x="73.5" y="1467.0518">Show success message</text><line style="stroke:#000000;stroke-width:1.0;stroke-dasharray:2.0,2.0;" x1="10" x2="1637" y1="1480.4688" y2="1480.4688"/><text fill="#000000" font-family="sans-serif" font-size="11" font-weight="bold" lengthAdjust="spacing" textLength="69" x="15" y="1491.8877">[Failed case]</text><polygon fill="#181818" points="1478.5,1511.1406,1468.5,1515.1406,1478.5,1519.1406" style="stroke:#181818;stroke-width:1.0;"/><line style="stroke:#181818;stroke-width:1.0;" x1="1472.5" x2="1597.5" y1="1515.1406" y2="1515.1406"/><text fill="#000000" font-family="sans-serif" font-size="11" lengthAdjust="spacing" textLength="24" x="1484.5" y="1510.7236">error</text><polygon fill="#181818" points="1370.5,1538.9766,1360.5,1542.9766,1370.5,1546.9766" style="stroke:#181818;stroke-width:1.0;"/><line style="stroke:#181818;stroke-width:1.0;" x1="1364.5" x2="1461.5" y1="1542.9766" y2="1542.9766"/><text fill="#000000" font-family="sans-serif" font-size="11" lengthAdjust="spacing" textLength="24" x="1376.5" y="1538.5596">error</text><polygon fill="#181818" points="1113.5,1566.8125,1103.5,1570.8125,1113.5,1574.8125" style="stroke:#181818;stroke-width:1.0;"/><line style="stroke:#181818;stroke-width:1.0;" x1="1107.5" x2="1353.5" y1="1570.8125" y2="1570.8125"/><text fill="#000000" font-family="sans-serif" font-size="11" lengthAdjust="spacing" textLength="216" x="1119.5" y="1566.3955">status(500) {error: "FAILED to create event"}</text><polygon fill="#181818" points="842.5,1594.6484,832.5,1598.6484,842.5,1602.6484" style="stroke:#181818;stroke-width:1.0;"/><line style="stroke:#181818;stroke-width:1.0;" x1="836.5" x2="1096.5" y1="1598.6484" y2="1598.6484"/><text fill="#000000" font-family="sans-serif" font-size="11" lengthAdjust="spacing" textLength="24" x="848.5" y="1594.2314">error</text><polygon fill="#181818" points="222.5,1622.4844,212.5,1626.4844,222.5,1630.4844" style="stroke:#181818;stroke-width:1.0;"/><line style="stroke:#181818;stroke-width:1.0;" x1="216.5" x2="825.5" y1="1626.4844" y2="1626.4844"/><text fill="#000000" font-family="sans-serif" font-size="11" lengthAdjust="spacing" textLength="24" x="228.5" y="1622.0674">error</text><polygon fill="#181818" points="67.5,1650.3203,57.5,1654.3203,67.5,1658.3203" style="stroke:#181818;stroke-width:1.0;"/><line style="stroke:#181818;stroke-width:1.0;" x1="61.5" x2="200.5" y1="1654.3203" y2="1654.3203"/><text fill="#000000" font-family="sans-serif" font-size="11" lengthAdjust="spacing" textLength="103" x="73.5" y="1649.9033">Show error message</text><!--SRC=[hLTDRziu4BtpLn2vR0oqQNlOYr44CBnELq2zCM9diOTU6959Y52YbgJQzRRzxnsI-Y0fkb7Hvk3Omvd7uPl7qKW_yReXYbHOcwDWyAbuQTfA83siK7PFMc6kP6ts_7-6txm95hLXYabpRDXEQcwuhB6H3KAaD5BXirLh7bbjU4aCen_gMytK6IOQHtPhHUXEjZKbwWX1b6u-mkhVd7tote41ltsB3_j_yEKbGYMafAJ0PwrcgvPoUSDAgMYtHsgqaUjM6rdXFwLyqXOYH2Wgyi1sl7mQumFJSz7RLlCoZWvCpqMlMwNWWEyb408SzWY9-Rie-xOXTmHY18SGXn2R0hvwGjVU8FggJCnZI9z34Z8rZo5NNB34FJOXP3LWeEHkswsaJ3YtyUVWqMyqEaKMX42Fe2VUaDe0td-DOXfEj2lyoNQ59UzcipzOqYBVdUAw8ZZWhV4M2BY-sLf_IemZ4ZTIcmT0_bSuYVEFeDz8dcYYRFpoCXRm4dChAuGYAtWbWbjYsR1wJIgcoFa2V_dYVhyZbhdZ-MBSFuv32So9xMyLHvITmfXr32YCOBCyATEbuesjrZn_M9lbg0rKKg_CB6TMqxckTkr1gkCivyhUSz23CDZIXzszTr976FuoPGuxmn8tyCLPR0WKrWQ5XGcytLe2S28X2sQBR2FYGeTuJ82gVOV4hbkUIZbkfHtp_ZUl7p9PHm5ztZ7AD7DYrqzd7cD2FUS9LNIT8dlbqXwxn8-afYAr9nSkMKKPeE_a4PygnPfr9fzaRuJi9cUBUos4j8sGX3gHzItWXVCwmEFxejYktcs2GoQjEa43_FZfuYGX5S1Ut2jPdRjKN4lHYmk_yx1hi4loY4emSwTesZl1oy93YP3A16kQSRuFHXZf0-f7I0slNK3izdPVh7yniUuA3xo66_y2RXtuJt9RPJ1IRj5lmpCSJuYU3XQsFL0wtCV-CWK7pWmZ6PW0t8qEjjqh1l5peBjX8mQmnuS1Oubtrp1Vl28DVzL3w61Cs1N8ke5tDs2C7U72Pn0s6U-3EbSRDCmU45ZyjT_S7E3VuHfdzWhcb20ijtD1mnA5SSF6_covvjNbs9qgPVMp7Pl6m1TOjsK9KnbC3gfbNqCWoysKrAm6yed7zSbN_KGtpWCbGdM14v5E1sPxYO13tvIP_LnC1yLSWubJ7GVWGPrvo61IHa5GHf4kyXavEf-VqcAwIpGmmu2qznAuRmNCMDeFI2SKwg2GzqYq62nrHuW8wuJdl2QgSr49LRaoXdjaQvHEbrF_GIQJv_aIxn_bfpurNC67VILmqzWLWJv9dwT7AQdI6IcWEyjRDiONznIPCEYPLf___lhr0dzs04jujLiLxpT_mAj-9qv_-hElAROLsLo-Sxa5yfvVY1nGvkhzKAKSw5YdEkePqGlWDm00]--></g></svg>