<?xml version="1.0" encoding="us-ascii" standalone="no"?><svg xmlns="http://www.w3.org/2000/svg" xmlns:xlink="http://www.w3.org/1999/xlink" contentStyleType="text/css" height="1770px" preserveAspectRatio="none" style="width:1282px;height:1770px;background:#FFFFFF;" version="1.1" viewBox="0 0 1282 1770" width="1282px" zoomAndPan="magnify"><defs/><g><!--cluster Analysis--><g id="cluster_Analysis"><polygon fill="none" points="16,6,69,6,76,25.8359,541.5,25.8359,541.5,262,16,262,16,6" style="stroke:#000000;stroke-width:1.5;"/><line style="stroke:#000000;stroke-width:1.5;" x1="16" x2="76" y1="25.8359" y2="25.8359"/><text fill="#000000" font-family="sans-serif" font-size="11" font-weight="bold" lengthAdjust="spacing" textLength="47" x="20" y="19.4189">Analysis</text></g><!--cluster frontend--><g id="cluster_frontend"><polygon fill="none" points="198,286,252,286,259,305.8359,1265,305.8359,1265,1763,198,1763,198,286" style="stroke:#000000;stroke-width:1.5;"/><line style="stroke:#000000;stroke-width:1.5;" x1="198" x2="259" y1="305.8359" y2="305.8359"/><text fill="#000000" font-family="sans-serif" font-size="11" font-weight="bold" lengthAdjust="spacing" textLength="48" x="202" y="299.4189">frontend</text><text fill="#000000" font-family="sans-serif" font-size="11" font-style="italic" lengthAdjust="spacing" textLength="108" x="681.5" y="319.2549">&#171;React Native:0.76.6&#187;</text></g><!--entity eventModel--><g id="elem_eventModel"><ellipse cx="491" cy="216" fill="#F1F1F1" rx="12" ry="12" style="stroke:#181818;stroke-width:0.5;"/><line style="stroke:#181818;stroke-width:0.5;" x1="479" x2="503" y1="230" y2="230"/><text fill="#000000" font-family="sans-serif" font-size="11" lengthAdjust="spacing" textLength="55" x="463.5" y="243.4189">EventModel</text></g><!--entity locationModel--><g id="elem_locationModel"><ellipse cx="491" cy="115" fill="#F1F1F1" rx="12" ry="12" style="stroke:#181818;stroke-width:0.5;"/><line style="stroke:#181818;stroke-width:0.5;" x1="479" x2="503" y1="129" y2="129"/><text fill="#000000" font-family="sans-serif" font-size="11" lengthAdjust="spacing" textLength="69" x="456.5" y="142.4189">LocationModel</text></g><!--entity addEventViewAnalysis--><g id="elem_addEventViewAnalysis"><path d="M48,164 L48,188 M48,176 L65,176 " fill="none" style="stroke:#181818;stroke-width:0.5;"/><ellipse cx="77" cy="176" fill="#F1F1F1" rx="12" ry="12" style="stroke:#181818;stroke-width:0.5;"/><text fill="#000000" font-family="sans-serif" font-size="11" lengthAdjust="spacing" textLength="73" x="32" y="203.4189">AddEventView</text></g><!--entity fileController--><g id="elem_fileController"><ellipse cx="250.5" cy="135" fill="#F1F1F1" rx="12" ry="12" style="stroke:#181818;stroke-width:0.5;"/><polygon fill="#181818" points="246.5,123,252.5,118,250.5,123,252.5,128,246.5,123" style="stroke:#181818;stroke-width:1.0;"/><text fill="#000000" font-family="sans-serif" font-size="11" lengthAdjust="spacing" textLength="62" x="219.5" y="162.4189">FileController</text></g><!--entity addEventController--><g id="elem_addEventController"><ellipse cx="250.5" cy="216" fill="#F1F1F1" rx="12" ry="12" style="stroke:#181818;stroke-width:0.5;"/><polygon fill="#181818" points="246.5,204,252.5,199,250.5,204,252.5,209,246.5,204" style="stroke:#181818;stroke-width:1.0;"/><text fill="#000000" font-family="sans-serif" font-size="11" lengthAdjust="spacing" textLength="93" x="204" y="243.4189">AddEventController</text></g><!--entity locationController--><g id="elem_locationController"><ellipse cx="250.5" cy="54" fill="#F1F1F1" rx="12" ry="12" style="stroke:#181818;stroke-width:0.5;"/><polygon fill="#181818" points="246.5,42,252.5,37,250.5,42,252.5,47,246.5,42" style="stroke:#181818;stroke-width:1.0;"/><text fill="#000000" font-family="sans-serif" font-size="11" lengthAdjust="spacing" textLength="87" x="207" y="81.4189">LocationController</text></g><!--entity addEventView--><g id="elem_addEventView"><path d="M230,967.8359 L230,991.8359 M230,979.8359 L247,979.8359 " fill="none" style="stroke:#181818;stroke-width:0.5;"/><ellipse cx="259" cy="979.8359" fill="#F1F1F1" rx="12" ry="12" style="stroke:#181818;stroke-width:0.5;"/><text fill="#000000" font-family="sans-serif" font-size="11" lengthAdjust="spacing" textLength="73" x="214" y="1007.2549">AddEventView</text><text fill="#000000" font-family="sans-serif" font-size="11" font-style="italic" lengthAdjust="spacing" textLength="33" x="234" y="961.4189">&#171;TSX&#187;</text></g><!--entity AddDefaultView--><g id="elem_AddDefaultView"><path d="M470.5,1623.8359 L470.5,1647.8359 M470.5,1635.8359 L487.5,1635.8359 " fill="none" style="stroke:#181818;stroke-width:0.5;"/><ellipse cx="499.5" cy="1635.8359" fill="#F1F1F1" rx="12" ry="12" style="stroke:#181818;stroke-width:0.5;"/><text fill="#000000" font-family="sans-serif" font-size="11" lengthAdjust="spacing" textLength="80" x="451" y="1663.2549">AddDefaultView</text><text fill="#000000" font-family="sans-serif" font-size="11" font-style="italic" lengthAdjust="spacing" textLength="33" x="474.5" y="1617.4189">&#171;TSX&#187;</text></g><!--entity AddDateView--><g id="elem_AddDateView"><path d="M470.5,1528.8359 L470.5,1552.8359 M470.5,1540.8359 L487.5,1540.8359 " fill="none" style="stroke:#181818;stroke-width:0.5;"/><ellipse cx="499.5" cy="1540.8359" fill="#F1F1F1" rx="12" ry="12" style="stroke:#181818;stroke-width:0.5;"/><text fill="#000000" font-family="sans-serif" font-size="11" lengthAdjust="spacing" textLength="68" x="457" y="1568.2549">AddDateView</text><text fill="#000000" font-family="sans-serif" font-size="11" font-style="italic" lengthAdjust="spacing" textLength="33" x="474.5" y="1522.4189">&#171;TSX&#187;</text></g><!--entity ChooseCategoriesView--><g id="elem_ChooseCategoriesView"><path d="M470.5,1433.8359 L470.5,1457.8359 M470.5,1445.8359 L487.5,1445.8359 " fill="none" style="stroke:#181818;stroke-width:0.5;"/><ellipse cx="499.5" cy="1445.8359" fill="#F1F1F1" rx="12" ry="12" style="stroke:#181818;stroke-width:0.5;"/><text fill="#000000" font-family="sans-serif" font-size="11" lengthAdjust="spacing" textLength="115" x="433.5" y="1473.2549">ChooseCategoriesView</text><text fill="#000000" font-family="sans-serif" font-size="11" font-style="italic" lengthAdjust="spacing" textLength="33" x="474.5" y="1427.4189">&#171;TSX&#187;</text></g><!--entity React--><g id="elem_React"><rect fill="#F1F1F1" height="57.6719" rx="2.5" ry="2.5" style="stroke:#181818;stroke-width:0.5;" width="87" x="447.5" y="1323"/><rect fill="#F1F1F1" height="10" style="stroke:#181818;stroke-width:0.5;" width="15" x="514.5" y="1328"/><rect fill="#F1F1F1" height="2" style="stroke:#181818;stroke-width:0.5;" width="4" x="512.5" y="1330"/><rect fill="#F1F1F1" height="2" style="stroke:#181818;stroke-width:0.5;" width="4" x="512.5" y="1334"/><text fill="#000000" font-family="sans-serif" font-size="11" font-style="italic" lengthAdjust="spacing" textLength="47" x="462.5" y="1354.4189">&#171;Library&#187;</text><text fill="#000000" font-family="sans-serif" font-size="11" lengthAdjust="spacing" textLength="25" x="473.5" y="1368.2549">react</text></g><!--entity ReactNavigation--><g id="elem_ReactNavigation"><rect fill="#F1F1F1" height="57.6719" rx="2.5" ry="2.5" style="stroke:#181818;stroke-width:0.5;" width="161" x="410.5" y="1230"/><rect fill="#F1F1F1" height="10" style="stroke:#181818;stroke-width:0.5;" width="15" x="551.5" y="1235"/><rect fill="#F1F1F1" height="2" style="stroke:#181818;stroke-width:0.5;" width="4" x="549.5" y="1237"/><rect fill="#F1F1F1" height="2" style="stroke:#181818;stroke-width:0.5;" width="4" x="549.5" y="1241"/><text fill="#000000" font-family="sans-serif" font-size="11" font-style="italic" lengthAdjust="spacing" textLength="47" x="462.5" y="1261.4189">&#171;Library&#187;</text><text fill="#000000" font-family="sans-serif" font-size="11" lengthAdjust="spacing" textLength="121" x="425.5" y="1275.2549">@react-navigation/native</text></g><!--entity SafeAreaContext--><g id="elem_SafeAreaContext"><rect fill="#F1F1F1" height="57.6719" rx="2.5" ry="2.5" style="stroke:#181818;stroke-width:0.5;" width="190" x="396" y="1137"/><rect fill="#F1F1F1" height="10" style="stroke:#181818;stroke-width:0.5;" width="15" x="566" y="1142"/><rect fill="#F1F1F1" height="2" style="stroke:#181818;stroke-width:0.5;" width="4" x="564" y="1144"/><rect fill="#F1F1F1" height="2" style="stroke:#181818;stroke-width:0.5;" width="4" x="564" y="1148"/><text fill="#000000" font-family="sans-serif" font-size="11" font-style="italic" lengthAdjust="spacing" textLength="47" x="462.5" y="1168.4189">&#171;Library&#187;</text><text fill="#000000" font-family="sans-serif" font-size="11" lengthAdjust="spacing" textLength="150" x="411" y="1182.2549">react-native-safe-area-context</text></g><!--entity ReactNative--><g id="elem_ReactNative"><rect fill="#F1F1F1" height="57.6719" rx="2.5" ry="2.5" style="stroke:#181818;stroke-width:0.5;" width="98" x="442" y="1044"/><rect fill="#F1F1F1" height="10" style="stroke:#181818;stroke-width:0.5;" width="15" x="520" y="1049"/><rect fill="#F1F1F1" height="2" style="stroke:#181818;stroke-width:0.5;" width="4" x="518" y="1051"/><rect fill="#F1F1F1" height="2" style="stroke:#181818;stroke-width:0.5;" width="4" x="518" y="1055"/><text fill="#000000" font-family="sans-serif" font-size="11" font-style="italic" lengthAdjust="spacing" textLength="47" x="462.5" y="1075.4189">&#171;Library&#187;</text><text fill="#000000" font-family="sans-serif" font-size="11" lengthAdjust="spacing" textLength="58" x="457" y="1089.2549">react-native</text></g><!--entity ReactI18next--><g id="elem_ReactI18next"><rect fill="#F1F1F1" height="57.6719" rx="2.5" ry="2.5" style="stroke:#181818;stroke-width:0.5;" width="104" x="439" y="951"/><rect fill="#F1F1F1" height="10" style="stroke:#181818;stroke-width:0.5;" width="15" x="523" y="956"/><rect fill="#F1F1F1" height="2" style="stroke:#181818;stroke-width:0.5;" width="4" x="521" y="958"/><rect fill="#F1F1F1" height="2" style="stroke:#181818;stroke-width:0.5;" width="4" x="521" y="962"/><text fill="#000000" font-family="sans-serif" font-size="11" font-style="italic" lengthAdjust="spacing" textLength="47" x="462.5" y="982.4189">&#171;Library&#187;</text><text fill="#000000" font-family="sans-serif" font-size="11" lengthAdjust="spacing" textLength="64" x="454" y="996.2549">react-i18next</text></g><!--entity useTranslation--><g id="elem_useTranslation"><rect fill="#F1F1F1" height="57.6719" rx="2.5" ry="2.5" style="stroke:#181818;stroke-width:0.5;" width="111" x="718" y="951"/><rect fill="#F1F1F1" height="10" style="stroke:#181818;stroke-width:0.5;" width="15" x="809" y="956"/><rect fill="#F1F1F1" height="2" style="stroke:#181818;stroke-width:0.5;" width="4" x="807" y="958"/><rect fill="#F1F1F1" height="2" style="stroke:#181818;stroke-width:0.5;" width="4" x="807" y="962"/><text fill="#000000" font-family="sans-serif" font-size="11" font-style="italic" lengthAdjust="spacing" textLength="38" x="749.5" y="982.4189">&#171;Hook&#187;</text><text fill="#000000" font-family="sans-serif" font-size="11" lengthAdjust="spacing" textLength="71" x="733" y="996.2549">useTranslation</text></g><!--entity ReactNativeToast--><g id="elem_ReactNativeToast"><rect fill="#F1F1F1" height="57.6719" rx="2.5" ry="2.5" style="stroke:#181818;stroke-width:0.5;" width="188" x="397" y="858"/><rect fill="#F1F1F1" height="10" style="stroke:#181818;stroke-width:0.5;" width="15" x="565" y="863"/><rect fill="#F1F1F1" height="2" style="stroke:#181818;stroke-width:0.5;" width="4" x="563" y="865"/><rect fill="#F1F1F1" height="2" style="stroke:#181818;stroke-width:0.5;" width="4" x="563" y="869"/><text fill="#000000" font-family="sans-serif" font-size="11" font-style="italic" lengthAdjust="spacing" textLength="47" x="462.5" y="889.4189">&#171;Library&#187;</text><text fill="#000000" font-family="sans-serif" font-size="11" lengthAdjust="spacing" textLength="148" x="412" y="903.2549">react-native-toast-notifications</text></g><!--entity Modal--><g id="elem_Modal"><path d="M470.5,780.8359 L470.5,804.8359 M470.5,792.8359 L487.5,792.8359 " fill="none" style="stroke:#181818;stroke-width:0.5;"/><ellipse cx="499.5" cy="792.8359" fill="#F1F1F1" rx="12" ry="12" style="stroke:#181818;stroke-width:0.5;"/><text fill="#000000" font-family="sans-serif" font-size="11" lengthAdjust="spacing" textLength="28" x="477" y="820.2549">Modal</text><text fill="#000000" font-family="sans-serif" font-size="11" font-style="italic" lengthAdjust="spacing" textLength="115" x="433.5" y="774.4189">&#171;Custom Components&#187;</text></g><!--entity AppHeader--><g id="elem_AppHeader"><path d="M470.5,685.8359 L470.5,709.8359 M470.5,697.8359 L487.5,697.8359 " fill="none" style="stroke:#181818;stroke-width:0.5;"/><ellipse cx="499.5" cy="697.8359" fill="#F1F1F1" rx="12" ry="12" style="stroke:#181818;stroke-width:0.5;"/><text fill="#000000" font-family="sans-serif" font-size="11" lengthAdjust="spacing" textLength="55" x="463.5" y="725.2549">AppHeader</text><text fill="#000000" font-family="sans-serif" font-size="11" font-style="italic" lengthAdjust="spacing" textLength="115" x="433.5" y="679.4189">&#171;Custom Components&#187;</text></g><!--entity useCurrentLocation--><g id="elem_useCurrentLocation"><rect fill="#F1F1F1" height="57.6719" rx="2.5" ry="2.5" style="stroke:#181818;stroke-width:0.5;" width="135" x="423.5" y="575"/><rect fill="#F1F1F1" height="10" style="stroke:#181818;stroke-width:0.5;" width="15" x="538.5" y="580"/><rect fill="#F1F1F1" height="2" style="stroke:#181818;stroke-width:0.5;" width="4" x="536.5" y="582"/><rect fill="#F1F1F1" height="2" style="stroke:#181818;stroke-width:0.5;" width="4" x="536.5" y="586"/><text fill="#000000" font-family="sans-serif" font-size="11" font-style="italic" lengthAdjust="spacing" textLength="85" x="443.5" y="606.4189">&#171;Custom Hooks&#187;</text><text fill="#000000" font-family="sans-serif" font-size="11" lengthAdjust="spacing" textLength="95" x="438.5" y="620.2549">useCurrentLocation</text></g><!--entity useImagePicker--><g id="elem_useImagePicker"><rect fill="#F1F1F1" height="57.6719" rx="2.5" ry="2.5" style="stroke:#181818;stroke-width:0.5;" width="125" x="711" y="1607"/><rect fill="#F1F1F1" height="10" style="stroke:#181818;stroke-width:0.5;" width="15" x="816" y="1612"/><rect fill="#F1F1F1" height="2" style="stroke:#181818;stroke-width:0.5;" width="4" x="814" y="1614"/><rect fill="#F1F1F1" height="2" style="stroke:#181818;stroke-width:0.5;" width="4" x="814" y="1618"/><text fill="#000000" font-family="sans-serif" font-size="11" font-style="italic" lengthAdjust="spacing" textLength="85" x="726" y="1638.4189">&#171;Custom Hooks&#187;</text><text fill="#000000" font-family="sans-serif" font-size="11" lengthAdjust="spacing" textLength="75" x="731" y="1652.2549">useImagePicker</text></g><!--entity useMusicPicker--><g id="elem_useMusicPicker"><rect fill="#F1F1F1" height="57.6719" rx="2.5" ry="2.5" style="stroke:#181818;stroke-width:0.5;" width="125" x="711" y="1513"/><rect fill="#F1F1F1" height="10" style="stroke:#181818;stroke-width:0.5;" width="15" x="816" y="1518"/><rect fill="#F1F1F1" height="2" style="stroke:#181818;stroke-width:0.5;" width="4" x="814" y="1520"/><rect fill="#F1F1F1" height="2" style="stroke:#181818;stroke-width:0.5;" width="4" x="814" y="1524"/><text fill="#000000" font-family="sans-serif" font-size="11" font-style="italic" lengthAdjust="spacing" textLength="85" x="726" y="1544.4189">&#171;Custom Hooks&#187;</text><text fill="#000000" font-family="sans-serif" font-size="11" lengthAdjust="spacing" textLength="75" x="731" y="1558.2549">useMusicPicker</text></g><!--entity useAudioRecorder--><g id="elem_useAudioRecorder"><rect fill="#F1F1F1" height="57.6719" rx="2.5" ry="2.5" style="stroke:#181818;stroke-width:0.5;" width="131" x="708" y="1415"/><rect fill="#F1F1F1" height="10" style="stroke:#181818;stroke-width:0.5;" width="15" x="819" y="1420"/><rect fill="#F1F1F1" height="2" style="stroke:#181818;stroke-width:0.5;" width="4" x="817" y="1422"/><rect fill="#F1F1F1" height="2" style="stroke:#181818;stroke-width:0.5;" width="4" x="817" y="1426"/><text fill="#000000" font-family="sans-serif" font-size="11" font-style="italic" lengthAdjust="spacing" textLength="85" x="726" y="1446.4189">&#171;Custom Hooks&#187;</text><text fill="#000000" font-family="sans-serif" font-size="11" lengthAdjust="spacing" textLength="91" x="723" y="1460.2549">useAudioRecorder</text></g><!--entity ExpoCamera--><g id="elem_ExpoCamera"><rect fill="#F1F1F1" height="57.6719" rx="2.5" ry="2.5" style="stroke:#181818;stroke-width:0.5;" width="104" x="945" y="1596"/><rect fill="#F1F1F1" height="10" style="stroke:#181818;stroke-width:0.5;" width="15" x="1029" y="1601"/><rect fill="#F1F1F1" height="2" style="stroke:#181818;stroke-width:0.5;" width="4" x="1027" y="1603"/><rect fill="#F1F1F1" height="2" style="stroke:#181818;stroke-width:0.5;" width="4" x="1027" y="1607"/><text fill="#000000" font-family="sans-serif" font-size="11" font-style="italic" lengthAdjust="spacing" textLength="47" x="968.5" y="1627.4189">&#171;Library&#187;</text><text fill="#000000" font-family="sans-serif" font-size="11" lengthAdjust="spacing" textLength="64" x="960" y="1641.2549">expo-camera</text></g><!--entity Camera--><g id="elem_Camera"><rect fill="#F1F1F1" height="57.6719" rx="2.5" ry="2.5" style="stroke:#181818;stroke-width:0.5;" width="108" x="1136.5" y="1596"/><rect fill="#F1F1F1" height="10" style="stroke:#181818;stroke-width:0.5;" width="15" x="1224.5" y="1601"/><rect fill="#F1F1F1" height="2" style="stroke:#181818;stroke-width:0.5;" width="4" x="1222.5" y="1603"/><rect fill="#F1F1F1" height="2" style="stroke:#181818;stroke-width:0.5;" width="4" x="1222.5" y="1607"/><text fill="#000000" font-family="sans-serif" font-size="11" font-style="italic" lengthAdjust="spacing" textLength="68" x="1151.5" y="1627.4189">&#171;Component&#187;</text><text fill="#000000" font-family="sans-serif" font-size="11" lengthAdjust="spacing" textLength="37" x="1167" y="1641.2549">Camera</text></g><!--entity ExpoImagePicker--><g id="elem_ExpoImagePicker"><rect fill="#F1F1F1" height="57.6719" rx="2.5" ry="2.5" style="stroke:#181818;stroke-width:0.5;" width="129" x="932.5" y="1689"/><rect fill="#F1F1F1" height="10" style="stroke:#181818;stroke-width:0.5;" width="15" x="1041.5" y="1694"/><rect fill="#F1F1F1" height="2" style="stroke:#181818;stroke-width:0.5;" width="4" x="1039.5" y="1696"/><rect fill="#F1F1F1" height="2" style="stroke:#181818;stroke-width:0.5;" width="4" x="1039.5" y="1700"/><text fill="#000000" font-family="sans-serif" font-size="11" font-style="italic" lengthAdjust="spacing" textLength="47" x="968.5" y="1720.4189">&#171;Library&#187;</text><text fill="#000000" font-family="sans-serif" font-size="11" lengthAdjust="spacing" textLength="89" x="947.5" y="1734.2549">expo-image-picker</text></g><!--entity ImagePicker--><g id="elem_ImagePicker"><rect fill="#F1F1F1" height="57.6719" rx="2.5" ry="2.5" style="stroke:#181818;stroke-width:0.5;" width="108" x="1136.5" y="1689"/><rect fill="#F1F1F1" height="10" style="stroke:#181818;stroke-width:0.5;" width="15" x="1224.5" y="1694"/><rect fill="#F1F1F1" height="2" style="stroke:#181818;stroke-width:0.5;" width="4" x="1222.5" y="1696"/><rect fill="#F1F1F1" height="2" style="stroke:#181818;stroke-width:0.5;" width="4" x="1222.5" y="1700"/><text fill="#000000" font-family="sans-serif" font-size="11" font-style="italic" lengthAdjust="spacing" textLength="68" x="1151.5" y="1720.4189">&#171;Component&#187;</text><text fill="#000000" font-family="sans-serif" font-size="11" lengthAdjust="spacing" textLength="57" x="1157" y="1734.2549">ImagePicker</text></g><!--entity ExpoLocation--><g id="elem_ExpoLocation"><rect fill="#F1F1F1" height="57.6719" rx="2.5" ry="2.5" style="stroke:#181818;stroke-width:0.5;" width="105" x="721" y="575"/><rect fill="#F1F1F1" height="10" style="stroke:#181818;stroke-width:0.5;" width="15" x="806" y="580"/><rect fill="#F1F1F1" height="2" style="stroke:#181818;stroke-width:0.5;" width="4" x="804" y="582"/><rect fill="#F1F1F1" height="2" style="stroke:#181818;stroke-width:0.5;" width="4" x="804" y="586"/><text fill="#000000" font-family="sans-serif" font-size="11" font-style="italic" lengthAdjust="spacing" textLength="47" x="745" y="606.4189">&#171;Library&#187;</text><text fill="#000000" font-family="sans-serif" font-size="11" lengthAdjust="spacing" textLength="65" x="736" y="620.2549">expo-location</text></g><!--entity expoLocationComponent--><g id="elem_expoLocationComponent"><rect fill="#F1F1F1" height="57.6719" rx="2.5" ry="2.5" style="stroke:#181818;stroke-width:0.5;" width="108" x="943" y="575"/><rect fill="#F1F1F1" height="10" style="stroke:#181818;stroke-width:0.5;" width="15" x="1031" y="580"/><rect fill="#F1F1F1" height="2" style="stroke:#181818;stroke-width:0.5;" width="4" x="1029" y="582"/><rect fill="#F1F1F1" height="2" style="stroke:#181818;stroke-width:0.5;" width="4" x="1029" y="586"/><text fill="#000000" font-family="sans-serif" font-size="11" font-style="italic" lengthAdjust="spacing" textLength="68" x="958" y="606.4189">&#171;Component&#187;</text><text fill="#000000" font-family="sans-serif" font-size="11" lengthAdjust="spacing" textLength="41" x="971.5" y="620.2549">Location</text></g><!--entity ExpoDocumentPicker--><g id="elem_ExpoDocumentPicker"><rect fill="#F1F1F1" height="57.6719" rx="2.5" ry="2.5" style="stroke:#181818;stroke-width:0.5;" width="148" x="923" y="1503"/><rect fill="#F1F1F1" height="10" style="stroke:#181818;stroke-width:0.5;" width="15" x="1051" y="1508"/><rect fill="#F1F1F1" height="2" style="stroke:#181818;stroke-width:0.5;" width="4" x="1049" y="1510"/><rect fill="#F1F1F1" height="2" style="stroke:#181818;stroke-width:0.5;" width="4" x="1049" y="1514"/><text fill="#000000" font-family="sans-serif" font-size="11" font-style="italic" lengthAdjust="spacing" textLength="47" x="968.5" y="1534.4189">&#171;Library&#187;</text><text fill="#000000" font-family="sans-serif" font-size="11" lengthAdjust="spacing" textLength="108" x="938" y="1548.2549">expo-document-picker</text></g><!--entity DocumentPicker--><g id="elem_DocumentPicker"><rect fill="#F1F1F1" height="57.6719" rx="2.5" ry="2.5" style="stroke:#181818;stroke-width:0.5;" width="117" x="1132" y="1503"/><rect fill="#F1F1F1" height="10" style="stroke:#181818;stroke-width:0.5;" width="15" x="1229" y="1508"/><rect fill="#F1F1F1" height="2" style="stroke:#181818;stroke-width:0.5;" width="4" x="1227" y="1510"/><rect fill="#F1F1F1" height="2" style="stroke:#181818;stroke-width:0.5;" width="4" x="1227" y="1514"/><text fill="#000000" font-family="sans-serif" font-size="11" font-style="italic" lengthAdjust="spacing" textLength="68" x="1151.5" y="1534.4189">&#171;Component&#187;</text><text fill="#000000" font-family="sans-serif" font-size="11" lengthAdjust="spacing" textLength="77" x="1147" y="1548.2549">DocumentPicker</text></g><!--entity ExpoAV--><g id="elem_ExpoAV"><rect fill="#F1F1F1" height="57.6719" rx="2.5" ry="2.5" style="stroke:#181818;stroke-width:0.5;" width="87" x="953.5" y="1410"/><rect fill="#F1F1F1" height="10" style="stroke:#181818;stroke-width:0.5;" width="15" x="1020.5" y="1415"/><rect fill="#F1F1F1" height="2" style="stroke:#181818;stroke-width:0.5;" width="4" x="1018.5" y="1417"/><rect fill="#F1F1F1" height="2" style="stroke:#181818;stroke-width:0.5;" width="4" x="1018.5" y="1421"/><text fill="#000000" font-family="sans-serif" font-size="11" font-style="italic" lengthAdjust="spacing" textLength="47" x="968.5" y="1441.4189">&#171;Library&#187;</text><text fill="#000000" font-family="sans-serif" font-size="11" lengthAdjust="spacing" textLength="40" x="972" y="1455.2549">expo-av</text></g><!--entity AudioComponent--><g id="elem_AudioComponent"><rect fill="#F1F1F1" height="57.6719" rx="2.5" ry="2.5" style="stroke:#181818;stroke-width:0.5;" width="108" x="1136.5" y="1410"/><rect fill="#F1F1F1" height="10" style="stroke:#181818;stroke-width:0.5;" width="15" x="1224.5" y="1415"/><rect fill="#F1F1F1" height="2" style="stroke:#181818;stroke-width:0.5;" width="4" x="1222.5" y="1417"/><rect fill="#F1F1F1" height="2" style="stroke:#181818;stroke-width:0.5;" width="4" x="1222.5" y="1421"/><text fill="#000000" font-family="sans-serif" font-size="11" font-style="italic" lengthAdjust="spacing" textLength="68" x="1151.5" y="1441.4189">&#171;Component&#187;</text><text fill="#000000" font-family="sans-serif" font-size="11" lengthAdjust="spacing" textLength="28" x="1171.5" y="1455.2549">Audio</text></g><!--entity ReactNativeCalendarPicker--><g id="elem_ReactNativeCalendarPicker"><rect fill="#F1F1F1" height="57.6719" rx="2.5" ry="2.5" style="stroke:#181818;stroke-width:0.5;" width="177" x="685" y="1319"/><rect fill="#F1F1F1" height="10" style="stroke:#181818;stroke-width:0.5;" width="15" x="842" y="1324"/><rect fill="#F1F1F1" height="2" style="stroke:#181818;stroke-width:0.5;" width="4" x="840" y="1326"/><rect fill="#F1F1F1" height="2" style="stroke:#181818;stroke-width:0.5;" width="4" x="840" y="1330"/><text fill="#000000" font-family="sans-serif" font-size="11" font-style="italic" lengthAdjust="spacing" textLength="47" x="745" y="1350.4189">&#171;Library&#187;</text><text fill="#000000" font-family="sans-serif" font-size="11" lengthAdjust="spacing" textLength="137" x="700" y="1364.2549">react-native-calendar-picker</text></g><!--entity CalendarPicker--><g id="elem_CalendarPicker"><rect fill="#F1F1F1" height="57.6719" rx="2.5" ry="2.5" style="stroke:#181818;stroke-width:0.5;" width="112" x="941" y="1317"/><rect fill="#F1F1F1" height="10" style="stroke:#181818;stroke-width:0.5;" width="15" x="1033" y="1322"/><rect fill="#F1F1F1" height="2" style="stroke:#181818;stroke-width:0.5;" width="4" x="1031" y="1324"/><rect fill="#F1F1F1" height="2" style="stroke:#181818;stroke-width:0.5;" width="4" x="1031" y="1328"/><text fill="#000000" font-family="sans-serif" font-size="11" font-style="italic" lengthAdjust="spacing" textLength="68" x="958" y="1348.4189">&#171;Component&#187;</text><text fill="#000000" font-family="sans-serif" font-size="11" lengthAdjust="spacing" textLength="72" x="956" y="1362.2549">CalendarPicker</text></g><!--entity AddEventController--><g id="elem_AddEventController"><ellipse cx="491" cy="510" fill="#F1F1F1" rx="12" ry="12" style="stroke:#181818;stroke-width:0.5;"/><polygon fill="#181818" points="487,498,493,493,491,498,493,503,487,498" style="stroke:#181818;stroke-width:1.0;"/><text fill="#000000" font-family="sans-serif" font-size="11" lengthAdjust="spacing" textLength="93" x="444.5" y="537.4189">AddEventController</text></g><!--entity LocationController--><g id="elem_LocationController"><ellipse cx="491" cy="348" fill="#F1F1F1" rx="12" ry="12" style="stroke:#181818;stroke-width:0.5;"/><polygon fill="#181818" points="487,336,493,331,491,336,493,341,487,336" style="stroke:#181818;stroke-width:1.0;"/><text fill="#000000" font-family="sans-serif" font-size="11" lengthAdjust="spacing" textLength="87" x="447.5" y="375.4189">LocationController</text></g><!--entity FileController--><g id="elem_FileController"><ellipse cx="491" cy="429" fill="#F1F1F1" rx="12" ry="12" style="stroke:#181818;stroke-width:0.5;"/><polygon fill="#181818" points="487,417,493,412,491,417,493,422,487,417" style="stroke:#181818;stroke-width:1.0;"/><text fill="#000000" font-family="sans-serif" font-size="11" lengthAdjust="spacing" textLength="62" x="460" y="456.4189">FileController</text></g><!--entity useAuth--><g id="elem_useAuth"><ellipse cx="491" cy="1717" fill="#F1F1F1" rx="12" ry="12" style="stroke:#181818;stroke-width:0.5;"/><polygon fill="#181818" points="487,1705,493,1700,491,1705,493,1710,487,1705" style="stroke:#181818;stroke-width:1.0;"/><text fill="#000000" font-family="sans-serif" font-size="11" lengthAdjust="spacing" textLength="41" x="470.5" y="1744.4189">useAuth</text></g><!--entity EventModel--><g id="elem_EventModel"><ellipse cx="773.5" cy="469" fill="#F1F1F1" rx="12" ry="12" style="stroke:#181818;stroke-width:0.5;"/><line style="stroke:#181818;stroke-width:0.5;" x1="761.5" x2="785.5" y1="483" y2="483"/><text fill="#000000" font-family="sans-serif" font-size="11" lengthAdjust="spacing" textLength="55" x="746" y="496.4189">EventModel</text></g><!--entity LocationModel--><g id="elem_LocationModel"><ellipse cx="773.5" cy="348" fill="#F1F1F1" rx="12" ry="12" style="stroke:#181818;stroke-width:0.5;"/><line style="stroke:#181818;stroke-width:0.5;" x1="761.5" x2="785.5" y1="362" y2="362"/><text fill="#000000" font-family="sans-serif" font-size="11" lengthAdjust="spacing" textLength="69" x="739" y="375.4189">LocationModel</text></g><!--link addEventViewAnalysis to addEventController--><g id="link_addEventViewAnalysis_addEventController"><path d="M105.06,190.9 C133.34,197.19 173.1,206.02 203.75,212.83 " fill="none" id="addEventViewAnalysis-addEventController" style="stroke:#181818;stroke-width:1.0;"/></g><!--link addEventViewAnalysis to locationController--><g id="link_addEventViewAnalysis_locationController"><path d="M103.23,159.97 C127.37,143.51 160.66,120.85 190,101 C198.15,95.49 206.93,89.57 215.18,84.02 " fill="none" id="addEventViewAnalysis-locationController" style="stroke:#181818;stroke-width:1.0;"/></g><!--link addEventViewAnalysis to fileController--><g id="link_addEventViewAnalysis_fileController"><path d="M105.06,174.9 C138.46,167.29 187.89,156.03 219.39,148.86 " fill="none" id="addEventViewAnalysis-fileController" style="stroke:#181818;stroke-width:1.0;"/></g><!--link addEventController to eventModel--><g id="link_addEventController_eventModel"><path d="M297.2,223 C346.44,223 423.11,223 463.33,223 " fill="none" id="addEventController-eventModel" style="stroke:#181818;stroke-width:1.0;"/></g><!--link fileController to eventModel--><g id="link_fileController_eventModel"><path d="M281.71,152.26 C328.71,168.22 418.6,198.75 463.34,213.94 " fill="none" id="fileController-eventModel" style="stroke:#181818;stroke-width:1.0;"/></g><!--link locationController to locationModel--><g id="link_locationController_locationModel"><path d="M294.14,71.91 C340.5,83.76 413.65,102.47 456.2,113.36 " fill="none" id="locationController-locationModel" style="stroke:#181818;stroke-width:1.0;"/></g><!--link addEventView to AddDefaultView--><g id="link_addEventView_AddDefaultView"><path d="M252.4,1010.28 C255.51,1088.22 269.09,1301.21 327,1467 C347.41,1525.44 351.23,1545.25 396,1588 C411.51,1602.81 426.9672,1611.7084 445.1672,1619.6184 " fill="none" id="addEventView-to-AddDefaultView" style="stroke:#181818;stroke-width:1.0;"/><polygon fill="#181818" points="450.67,1622.01,444.0103,1614.7541,446.0844,1620.017,440.8215,1622.0911,450.67,1622.01" style="stroke:#181818;stroke-width:1.0;"/></g><!--link addEventView to AddDateView--><g id="link_addEventView_AddDateView"><path d="M253.97,1010.07 C260.16,1076.83 279.41,1241.73 327,1371 C348.52,1429.46 351.02,1449.9 396,1493 C413.2,1509.48 431.6159,1519.3303 451.0459,1527.2703 " fill="none" id="addEventView-to-AddDateView" style="stroke:#181818;stroke-width:1.0;"/><polygon fill="#181818" points="456.6,1529.54,449.7819,1522.4327,451.9715,1527.6486,446.7557,1529.8382,456.6,1529.54" style="stroke:#181818;stroke-width:1.0;"/></g><!--link addEventView to ChooseCategoriesView--><g id="link_addEventView_ChooseCategoriesView"><path d="M252.84,1010.24 C257.9,1086.73 281.97,1289.5 396,1398 C406.75,1408.23 414.7941,1414.0076 428.0341,1420.9376 " fill="none" id="addEventView-to-ChooseCategoriesView" style="stroke:#181818;stroke-width:1.0;"/><polygon fill="#181818" points="433.35,1423.72,427.2311,1416.0025,428.9201,1421.4013,423.5213,1423.0903,433.35,1423.72" style="stroke:#181818;stroke-width:1.0;"/></g><!--link addEventView to useCurrentLocation--><g id="link_addEventView_useCurrentLocation"><path d="M257.04,949.9 C270.19,886.44 308.9,737.59 396,650 C403.82,642.14 408.0472,638.4258 417.8772,632.7358 " fill="none" id="addEventView-to-useCurrentLocation" style="stroke:#181818;stroke-width:1.0;"/><polygon fill="#181818" points="423.07,629.73,413.2769,630.7768,418.7427,632.2348,417.2847,637.7006,423.07,629.73" style="stroke:#181818;stroke-width:1.0;"/></g><!--link addEventView to SafeAreaContext--><g id="link_addEventView_SafeAreaContext"><path d="M277.77,1010.14 C305.15,1040.32 350.36,1086.77 396,1119 C405.09,1125.42 409.9119,1128.5967 420.0119,1134.0567 " fill="none" id="addEventView-to-SafeAreaContext" style="stroke:#181818;stroke-width:1.0;"/><polygon fill="#181818" points="425.29,1136.91,419.275,1129.1113,420.8916,1134.5322,415.4706,1136.1488,425.29,1136.91" style="stroke:#181818;stroke-width:1.0;"/></g><!--link addEventView to ReactNative--><g id="link_addEventView_ReactNative"><path d="M287.21,993.92 C328.27,1009.94 390.3002,1034.1195 436.0602,1051.9695 " fill="none" id="addEventView-to-ReactNative" style="stroke:#181818;stroke-width:1.0;"/><polygon fill="#181818" points="441.65,1054.15,434.719,1047.1528,436.9919,1052.333,431.8117,1054.6058,441.65,1054.15" style="stroke:#181818;stroke-width:1.0;"/></g><!--link addEventView to ReactNativeToast--><g id="link_addEventView_ReactNativeToast"><path d="M287.21,966.08 C320.99,952.9 367.1701,934.9 409.9401,918.22 " fill="none" id="addEventView-to-ReactNativeToast" style="stroke:#181818;stroke-width:1.0;"/><polygon fill="#181818" points="415.53,916.04,405.6917,915.5834,410.8717,917.8567,408.5984,923.0367,415.53,916.04" style="stroke:#181818;stroke-width:1.0;"/></g><!--link addEventView to ReactI18next--><g id="link_addEventView_ReactI18next"><path d="M287.21,980 C327.36,980 386.91,980 432.58,980 " fill="none" id="addEventView-to-ReactI18next" style="stroke:#181818;stroke-width:1.0;"/><polygon fill="#181818" points="438.58,980,429.58,976,433.58,980,429.58,984,438.58,980" style="stroke:#181818;stroke-width:1.0;"/></g><!--link addEventView to ReactNavigation--><g id="link_addEventView_ReactNavigation"><path d="M263.62,1010.08 C284.35,1058.26 330.76,1153.27 396,1212 C403.46,1218.71 406.8898,1221.6486 415.7898,1226.9286 " fill="none" id="addEventView-to-ReactNavigation" style="stroke:#181818;stroke-width:1.0;"/><polygon fill="#181818" points="420.95,1229.99,415.2505,1221.9578,416.6498,1227.4389,411.1687,1228.8381,420.95,1229.99" style="stroke:#181818;stroke-width:1.0;"/></g><!--link addEventView to React--><g id="link_addEventView_React"><path d="M256.7,1010.15 C269.17,1073.62 306.68,1221.97 396,1305 C410.7,1318.66 424.6284,1326.8428 442.0084,1334.4928 " fill="none" id="addEventView-to-React" style="stroke:#181818;stroke-width:1.0;"/><polygon fill="#181818" points="447.5,1336.91,440.8741,1329.6232,442.9237,1334.8957,437.6512,1336.9453,447.5,1336.91" style="stroke:#181818;stroke-width:1.0;"/></g><!--link addEventView to Modal--><g id="link_addEventView_Modal"><path d="M277.47,949.91 C304.79,919.51 350.12,872.52 396,840 C407.46,831.88 415.1907,827.127 427.8707,820.627 " fill="none" id="addEventView-to-Modal" style="stroke:#181818;stroke-width:1.0;"/><polygon fill="#181818" points="433.21,817.89,423.3763,818.436,428.7605,820.1709,427.0257,825.5551,433.21,817.89" style="stroke:#181818;stroke-width:1.0;"/></g><!--link addEventView to AppHeader--><g id="link_addEventView_AppHeader"><path d="M263.6,949.61 C284.3,900.92 330.66,804.85 396,745 C406.76,735.14 414.6448,729.5951 427.7248,722.8651 " fill="none" id="addEventView-to-AppHeader" style="stroke:#181818;stroke-width:1.0;"/><polygon fill="#181818" points="433.06,720.12,423.2271,720.6808,428.614,722.4076,426.8873,727.7945,433.06,720.12" style="stroke:#181818;stroke-width:1.0;"/></g><!--link AddDefaultView to useImagePicker--><g id="link_AddDefaultView_useImagePicker"><path d="M531,1636 C577.59,1636 650.1,1636 704.92,1636 " fill="none" id="AddDefaultView-to-useImagePicker" style="stroke:#181818;stroke-width:1.0;"/><polygon fill="#181818" points="710.92,1636,701.92,1632,705.92,1636,701.92,1640,710.92,1636" style="stroke:#181818;stroke-width:1.0;"/></g><!--link AddDefaultView to useMusicPicker--><g id="link_AddDefaultView_useMusicPicker"><path d="M531,1622.93 C577.59,1607.32 650.4109,1582.9164 705.2309,1564.5464 " fill="none" id="AddDefaultView-to-useMusicPicker" style="stroke:#181818;stroke-width:1.0;"/><polygon fill="#181818" points="710.92,1562.64,701.1154,1561.7069,706.1791,1564.2287,703.6573,1569.2923,710.92,1562.64" style="stroke:#181818;stroke-width:1.0;"/></g><!--link AddDefaultView to useAudioRecorder--><g id="link_AddDefaultView_useAudioRecorder"><path d="M531.37,1618.95 C548.77,1610.66 569.07,1599.92 586,1588 C635.37,1553.26 636.61,1531.1 685,1495 C695.29,1487.32 701.6702,1482.9589 712.9102,1476.2389 " fill="none" id="AddDefaultView-to-useAudioRecorder" style="stroke:#181818;stroke-width:1.0;"/><polygon fill="#181818" points="718.06,1473.16,708.2827,1474.3451,713.7685,1475.7257,712.3879,1481.2115,718.06,1473.16" style="stroke:#181818;stroke-width:1.0;"/></g><!--link AddDateView to ReactNativeCalendarPicker--><g id="link_AddDateView_ReactNativeCalendarPicker"><path d="M525.13,1527.03 C543.79,1518.46 567.07,1506.54 586,1493 C635.84,1457.34 635.85,1433.61 685,1397 C694.49,1389.93 699.9409,1386.1794 710.4209,1380.0494 " fill="none" id="AddDateView-to-ReactNativeCalendarPicker" style="stroke:#181818;stroke-width:1.0;"/><polygon fill="#181818" points="715.6,1377.02,705.8118,1378.1113,711.2841,1379.5445,709.851,1385.0168,715.6,1377.02" style="stroke:#181818;stroke-width:1.0;"/></g><!--link ReactNativeCalendarPicker to CalendarPicker--><g id="link_ReactNativeCalendarPicker_CalendarPicker"><path d="M862.04,1347.21 C888.65,1346.97 911.1202,1346.7629 934.9402,1346.5529 " fill="none" id="ReactNativeCalendarPicker-to-CalendarPicker" style="stroke:#181818;stroke-width:1.0;"/><polygon fill="#181818" points="940.94,1346.5,931.9051,1342.5795,935.9402,1346.5441,931.9756,1350.5792,940.94,1346.5" style="stroke:#181818;stroke-width:1.0;"/></g><!--link useImagePicker to ExpoCamera--><g id="link_useImagePicker_ExpoCamera"><path d="M836.2,1632.94 C870.38,1631.24 906.3773,1629.4464 938.7273,1627.8464 " fill="none" id="useImagePicker-to-ExpoCamera" style="stroke:#181818;stroke-width:1.0;"/><polygon fill="#181818" points="944.72,1627.55,935.5334,1623.9995,939.7261,1627.797,935.9286,1631.9897,944.72,1627.55" style="stroke:#181818;stroke-width:1.0;"/></g><!--link ExpoCamera to Camera--><g id="link_ExpoCamera_Camera"><path d="M1049.07,1625 C1075.99,1625 1102.99,1625 1130.24,1625 " fill="none" id="ExpoCamera-to-Camera" style="stroke:#181818;stroke-width:1.0;"/><polygon fill="#181818" points="1136.24,1625,1127.24,1621,1131.24,1625,1127.24,1629,1136.24,1625" style="stroke:#181818;stroke-width:1.0;"/></g><!--link useImagePicker to ExpoImagePicker--><g id="link_useImagePicker_ExpoImagePicker"><path d="M836.2,1658.84 C866.15,1669.93 896.483,1681.1576 926.693,1692.3376 " fill="none" id="useImagePicker-to-ExpoImagePicker" style="stroke:#181818;stroke-width:1.0;"/><polygon fill="#181818" points="932.32,1694.42,925.2677,1687.545,927.6308,1692.6846,922.4912,1695.0477,932.32,1694.42" style="stroke:#181818;stroke-width:1.0;"/></g><!--link ExpoImagePicker to ImagePicker--><g id="link_ExpoImagePicker_ImagePicker"><path d="M1061.5,1718 C1085.78,1718 1107.19,1718 1130.4,1718 " fill="none" id="ExpoImagePicker-to-ImagePicker" style="stroke:#181818;stroke-width:1.0;"/><polygon fill="#181818" points="1136.4,1718,1127.4,1714,1131.4,1718,1127.4,1722,1136.4,1718" style="stroke:#181818;stroke-width:1.0;"/></g><!--link ReactI18next to useTranslation--><g id="link_ReactI18next_useTranslation"><path d="M543.12,980 C592.58,980 661.29,980 711.9,980 " fill="none" id="ReactI18next-to-useTranslation" style="stroke:#181818;stroke-width:1.0;"/><polygon fill="#181818" points="717.9,980,708.9,976,712.9,980,708.9,984,717.9,980" style="stroke:#181818;stroke-width:1.0;"/></g><!--link useMusicPicker to ExpoDocumentPicker--><g id="link_useMusicPicker_ExpoDocumentPicker"><path d="M836.2,1539.21 C863.08,1538 888.7961,1536.8413 916.8561,1535.5713 " fill="none" id="useMusicPicker-to-ExpoDocumentPicker" style="stroke:#181818;stroke-width:1.0;"/><polygon fill="#181818" points="922.85,1535.3,913.6783,1531.711,917.8551,1535.5261,914.0401,1539.7028,922.85,1535.3" style="stroke:#181818;stroke-width:1.0;"/></g><!--link ExpoDocumentPicker to DocumentPicker--><g id="link_ExpoDocumentPicker_DocumentPicker"><path d="M1071.22,1532 C1091.28,1532 1106.74,1532 1125.8,1532 " fill="none" id="ExpoDocumentPicker-to-DocumentPicker" style="stroke:#181818;stroke-width:1.0;"/><polygon fill="#181818" points="1131.8,1532,1122.8,1528,1126.8,1532,1122.8,1536,1131.8,1532" style="stroke:#181818;stroke-width:1.0;"/></g><!--link useCurrentLocation to ExpoLocation--><g id="link_useCurrentLocation_ExpoLocation"><path d="M558.83,604 C608.42,604 669.05,604 714.65,604 " fill="none" id="useCurrentLocation-to-ExpoLocation" style="stroke:#181818;stroke-width:1.0;"/><polygon fill="#181818" points="720.65,604,711.65,600,715.65,604,711.65,608,720.65,604" style="stroke:#181818;stroke-width:1.0;"/></g><!--link ExpoLocation to expoLocationComponent--><g id="link_ExpoLocation_expoLocationComponent"><path d="M826.15,604 C861.18,604 901.36,604 936.72,604 " fill="none" id="ExpoLocation-to-expoLocationComponent" style="stroke:#181818;stroke-width:1.0;"/><polygon fill="#181818" points="942.72,604,933.72,600,937.72,604,933.72,608,942.72,604" style="stroke:#181818;stroke-width:1.0;"/></g><!--link useAudioRecorder to ExpoAV--><g id="link_useAudioRecorder_ExpoAV"><path d="M839.16,1442.54 C875.94,1441.71 914.9715,1440.8253 947.3315,1440.0953 " fill="none" id="useAudioRecorder-to-ExpoAV" style="stroke:#181818;stroke-width:1.0;"/><polygon fill="#181818" points="953.33,1439.96,944.2421,1436.164,948.3313,1440.0728,944.4225,1444.162,953.33,1439.96" style="stroke:#181818;stroke-width:1.0;"/></g><!--link ExpoAV to AudioComponent--><g id="link_ExpoAV_AudioComponent"><path d="M1040.5,1439 C1068.71,1439 1099.96,1439 1130.16,1439 " fill="none" id="ExpoAV-to-AudioComponent" style="stroke:#181818;stroke-width:1.0;"/><polygon fill="#181818" points="1136.16,1439,1127.16,1435,1131.16,1439,1127.16,1443,1136.16,1439" style="stroke:#181818;stroke-width:1.0;"/></g><!--link addEventView to AddEventController--><g id="link_addEventView_AddEventController"><path d="M258.09,949.75 C277.62,862.64 337.49,613.85 396,557 C409.36,544.02 421.9362,537.0242 438.7762,530.8542 " fill="none" id="addEventView-to-AddEventController" style="stroke:#181818;stroke-width:1.0;"/><polygon fill="#181818" points="444.41,528.79,434.5833,528.1304,439.7152,530.5101,437.3355,535.6421,444.41,528.79" style="stroke:#181818;stroke-width:1.0;"/></g><!--link addEventView to LocationController--><g id="link_addEventView_LocationController"><path d="M255.83,949.97 C265.61,884.34 291.38,723.48 327,592 C333.06,569.61 380.15,411.93 396,395 C409.58,380.5 423.5885,372.9588 441.4385,366.8988 " fill="none" id="addEventView-to-LocationController" style="stroke:#181818;stroke-width:1.0;"/><polygon fill="#181818" points="447.12,364.97,437.3118,364.0756,442.3854,366.5774,439.8836,371.6509,447.12,364.97" style="stroke:#181818;stroke-width:1.0;"/></g><!--link addEventView to FileController--><g id="link_addEventView_FileController"><path d="M255.78,949.87 C264.82,889.88 288.29,751.7 327,641 C340.06,603.66 350.73,597.49 366,561 C381.47,524.05 368.58,505.21 396,476 C412.87,458.03 433.3532,449.3652 453.8332,443.7552 " fill="none" id="addEventView-to-FileController" style="stroke:#181818;stroke-width:1.0;"/><polygon fill="#181818" points="459.62,442.17,449.883,440.6899,454.7977,443.491,451.9965,448.4056,459.62,442.17" style="stroke:#181818;stroke-width:1.0;"/></g><!--link addEventView to useAuth--><g id="link_addEventView_useAuth"><path d="M251.34,1010.02 C251.71,1097.66 258.86,1359.79 327,1563 C346.68,1621.7 349.76,1642.83 396,1684 C417.59,1703.22 443.9991,1712.6472 464.5491,1718.0772 " fill="none" id="addEventView-to-useAuth" style="stroke:#181818;stroke-width:1.0;"/><polygon fill="#181818" points="470.35,1719.61,462.6705,1713.4435,465.5159,1718.3327,460.6268,1721.1781,470.35,1719.61" style="stroke:#181818;stroke-width:1.0;"/></g><!--link AddEventController to EventModel--><g id="link_AddEventController_EventModel"><path d="M537.69,510.32 C596.84,501.68 692.0431,487.7578 739.9331,480.7578 " fill="none" id="AddEventController-to-EventModel" style="stroke:#181818;stroke-width:1.0;"/><polygon fill="#181818" points="745.87,479.89,736.3861,477.2337,740.9226,480.6132,737.5432,485.1496,745.87,479.89" style="stroke:#181818;stroke-width:1.0;"/></g><!--link LocationController to LocationModel--><g id="link_LocationController_LocationModel"><path d="M534.6,355 C590.54,355 681.63,355 732.76,355 " fill="none" id="LocationController-to-LocationModel" style="stroke:#181818;stroke-width:1.0;"/><polygon fill="#181818" points="738.76,355,729.76,351,733.76,355,729.76,359,738.76,355" style="stroke:#181818;stroke-width:1.0;"/></g><!--link addEventViewAnalysis to addEventView--><g id="link_addEventViewAnalysis_addEventView"><path d="M74.79,206.42 C100.63,320.84 212.208,814.8775 241.318,943.7475 " fill="none" id="addEventViewAnalysis-to-addEventView" style="stroke:#FF4B5D;stroke-width:1.0;stroke-dasharray:7.0,7.0;"/><polygon fill="#FF4B5D" points="242.64,949.6,244.5587,939.9398,241.5383,944.7229,236.7553,941.7025,242.64,949.6" style="stroke:#FF4B5D;stroke-width:1.0;"/><text fill="#FF4B5D" font-family="sans-serif" font-size="11" lengthAdjust="spacing" textLength="37" x="136" y="484.4189">&#171;trace&#187;</text></g><!--link fileController to FileController--><g id="link_fileController_FileController"><path d="M281.57,163.17 C287.51,168.66 293.1,175.02 297,182 C335.68,251.28 280.66,293.59 327,358 C358.7,402.05 416.1342,420.8825 453.8442,429.3025 " fill="none" id="fileController-to-FileController" style="stroke:#008000;stroke-width:1.0;stroke-dasharray:7.0,7.0;"/><polygon fill="#008000" points="459.7,430.61,451.788,424.7449,454.8202,429.5204,450.0446,432.5526,459.7,430.61" style="stroke:#008000;stroke-width:1.0;"/><text fill="#008000" font-family="sans-serif" font-size="11" lengthAdjust="spacing" textLength="37" x="328" y="355.4189">&#171;trace&#187;</text></g><!--link addEventController to AddEventController--><g id="link_addEventController_AddEventController"><path d="M264.16,246.23 C273.95,264.76 287.4,291.58 297,316 C313.82,358.79 302.17,376.31 327,415 C354.31,457.56 400.845,483.1781 438.805,498.8681 " fill="none" id="addEventController-to-AddEventController" style="stroke:#008000;stroke-width:1.0;stroke-dasharray:7.0,7.0;"/><polygon fill="#008000" points="444.35,501.16,437.5604,494.0255,439.7292,499.2501,434.5045,501.4188,444.35,501.16" style="stroke:#008000;stroke-width:1.0;"/><text fill="#008000" font-family="sans-serif" font-size="11" lengthAdjust="spacing" textLength="37" x="328" y="412.4189">&#171;trace&#187;</text></g><!--link locationController to LocationController--><g id="link_locationController_LocationController"><path d="M280.66,84.31 C286.38,89.51 292.12,95.21 297,101 C351.15,165.22 343.77,196.21 396,262 C416.41,287.71 438.9026,309.6925 458.7126,327.6325 " fill="none" id="locationController-to-LocationController" style="stroke:#008000;stroke-width:1.0;stroke-dasharray:7.0,7.0;"/><polygon fill="#008000" points="463.16,331.66,459.174,322.6538,459.4539,328.3037,453.8039,328.5836,463.16,331.66" style="stroke:#008000;stroke-width:1.0;"/><text fill="#008000" font-family="sans-serif" font-size="11" lengthAdjust="spacing" textLength="37" x="328" y="140.4189">&#171;trace&#187;</text></g><!--link eventModel to EventModel--><g id="link_eventModel_EventModel"><path d="M517.89,246.35 C571.32,294.55 688.8343,400.5416 742.2243,448.6916 " fill="none" id="eventModel-to-EventModel" style="stroke:#FFA500;stroke-width:1.0;stroke-dasharray:7.0,7.0;"/><polygon fill="#FFA500" points="746.68,452.71,742.6754,443.712,742.967,449.3614,737.3176,449.6529,746.68,452.71" style="stroke:#FFA500;stroke-width:1.0;"/><text fill="#FFA500" font-family="sans-serif" font-size="11" lengthAdjust="spacing" textLength="37" x="617" y="339.4189">&#171;trace&#187;</text></g><!--link locationModel to LocationModel--><g id="link_locationModel_LocationModel"><path d="M525.61,141.43 C543.99,152.55 566.85,167.2 586,182 C649.25,230.88 712.0953,292.8299 745.9453,327.4499 " fill="none" id="locationModel-to-LocationModel" style="stroke:#FFA500;stroke-width:1.0;stroke-dasharray:7.0,7.0;"/><polygon fill="#FFA500" points="750.14,331.74,746.7081,322.5084,746.6444,328.1649,740.988,328.1013,750.14,331.74" style="stroke:#FFA500;stroke-width:1.0;"/><text fill="#FFA500" font-family="sans-serif" font-size="11" lengthAdjust="spacing" textLength="37" x="617" y="206.4189">&#171;trace&#187;</text></g><!--SRC=[bLXBQzmm4BxhLuZqq9FJ1leYR4qNDo65RIX928NIWsAFTqMyrYB9QTBI_rv9VkbbnyrXiKRVV2EDHZEZY7jQ7mWdUopaKmNgbzDSDliALL1AB1dcTBkJkA0SSabPZSIWKK19cahUmADSLtHRxw6ME5S_m4FKEQlbDVqD-EG4gRy3oU_95l2w9jMJe0B_GLZzAMKgd_3HsOFw-ieAg8um4HY6eOFQi9peDOt0ofOW0xvZJLqGhk3heZ2yjnH-6JIn1Fr2MgLShPQp2X-TqmgoTb01Drgb8tBXlGbFXGHYLwtVYATM1U9sTR5ruoIPCZC5Zz3FmRrzEzXHhf7USRcA4K2u47jvBUwl5JGbLq2e2xnQNG799RvKm0SuVNty_jtnkpJzypy7hqZmpVLtdAQXrkSsTWSzLpIhIIGuQjruKYVRCIOWKx0junJ4e1oRi5YwGDeVMAsltn7N3Z6AhMiKSaFlkBOHGNyoyAGc3tHhdFsgDguS2Iw7gMUeUYQjdWXIGaAKAD4nhXA48RnMqhKIPgtiFmZjzUZn8bLwyg7kJHlTBwt0K_Pq6m4tdDIYCfisogv8grymTl-i4oGZGWsOf2LjGrdu-xZHaDXcni1GuK_Qv6Q-D3XhX6HxdFLsHIG43uSB84MNI8RHf7R42rd3kVhkSrFl2KziCMgdYBX7l-pLlVr6y_jkGQve6SVNHj3SvR14opZMJK7P5UIC5oEB8upn-4JmU619JlR0YU4uK-FC3ET3AnjLHlXm3fEMgFPKSXXthkrvxfiswhlUz_kpvYix0BHf- -YdxJfn0vRQQ76H-OBbZUuiV0TyxkHBVE1Y3KMe_lnIoCDWVNqxRz74L7ltzDVoFJiP92SLw0jjxztA7batlSG5BhQBGLyzjhBvpYOKuqMjpIRUUyprNUSpVPUvnN8ttcYvGtCDvTdIXdBZDo4lyNdVVPXAV47LFURvxWavJKMIf7wt40VqVK4u6oty8InCoNgHPdfCyQ6QLuj3W1LdivEcX4qWke8xgT-t5XE0K6nAOCIHVNrJM_UzxeqxbrbPS09XrPO9X5CtEilTSIBxQ3s7kTSEJTzd4mGkM9riMpcGLq4rTYn3oAf8BOkHAcrxtnCKDiIlD1fZpoj6vw2TDgjpazKwQRoRU95NnVj5UAX8mjT83wNOxVg48jrAppzWd8AcPwEbIbERuqP1lz0phczHLnXCH3fPtvpRc24vjEuGEteGqRJWF-C2J2H_1XWlOSOoHvierx5NN6edoKtiXPPwsH6XwDFn-CUBidnpzxRuUPowBwzJl2gP_fy1gnZ_sA7IrKfoaaEQhbxfsHHvxqV5j-K0jQPpj-WH6bH85tcpsfGHPooYZJnYRTg81nVHZazbJSVKNTg2vXiFn-Df8TFhYt0vnxYGxXy0]--></g></svg>